<?xml version="1.0" encoding="UTF-8"?>
<svg id="Layer_2" data-name="Layer 2" xmlns="http://www.w3.org/2000/svg" xmlns:xlink="http://www.w3.org/1999/xlink" viewBox="0 0 266.55 208.65">
  <defs>
    <style>
      .cls-1 {
        clip-path: url(#clippath-6);
      }

      .cls-2 {
        clip-path: url(#clippath-7);
      }

      .cls-3 {
        clip-path: url(#clippath-4);
      }

      .cls-4, .cls-5 {
        fill: #231f20;
      }

      .cls-6 {
        clip-path: url(#clippath-9);
      }

      .cls-7 {
        clip-path: url(#clippath-10);
      }

      .cls-8 {
        fill: #fff;
      }

      .cls-9 {
        letter-spacing: 1.24em;
      }

      .cls-10 {
        clip-path: url(#clippath-11);
      }

      .cls-11, .cls-12 {
        fill: none;
      }

      .cls-13 {
        clip-path: url(#clippath-1);
      }

      .cls-14 {
        clip-path: url(#clippath-5);
      }

      .cls-15 {
        clip-path: url(#clippath-8);
      }

      .cls-16 {
        letter-spacing: 0em;
      }

      .cls-17 {
        clip-path: url(#clippath-3);
      }

      .cls-18 {
        clip-path: url(#clippath-12);
      }

      .cls-5 {
        font-family: BookmanOldStyle, 'Bookman Old Style';
        font-size: 10px;
      }

      .cls-12 {
        stroke: #231f20;
        stroke-miterlimit: 10;
      }

      .cls-19 {
        clip-path: url(#clippath-2);
      }

      .cls-20 {
        clip-path: url(#clippath-13);
      }

      .cls-21 {
        clip-path: url(#clippath);
      }
    </style>
    <clipPath id="clippath">
      <rect class="cls-11" y="0" width="266.55" height="208.65"/>
    </clipPath>
    <clipPath id="clippath-1">
      <rect class="cls-11" y="0" width="266.55" height="208.65"/>
    </clipPath>
    <clipPath id="clippath-2">
      <rect class="cls-11" y="0" width="266.55" height="208.65"/>
    </clipPath>
    <clipPath id="clippath-3">
      <rect class="cls-11" y="0" width="266.55" height="208.65"/>
    </clipPath>
    <clipPath id="clippath-4">
      <rect class="cls-11" y="0" width="266.55" height="208.65"/>
    </clipPath>
    <clipPath id="clippath-5">
      <rect class="cls-11" y="0" width="266.55" height="208.65"/>
    </clipPath>
    <clipPath id="clippath-6">
      <rect class="cls-11" y="0" width="266.55" height="208.65"/>
    </clipPath>
    <clipPath id="clippath-7">
      <rect class="cls-11" y="0" width="266.55" height="208.65"/>
    </clipPath>
    <clipPath id="clippath-8">
      <rect class="cls-11" y="0" width="266.55" height="208.65"/>
    </clipPath>
    <clipPath id="clippath-9">
      <rect class="cls-11" y="0" width="266.55" height="208.65"/>
    </clipPath>
    <clipPath id="clippath-10">
      <rect class="cls-11" y="0" width="266.55" height="208.65"/>
    </clipPath>
    <clipPath id="clippath-11">
      <rect class="cls-11" y="0" width="266.55" height="208.65"/>
    </clipPath>
    <clipPath id="clippath-12">
      <rect class="cls-11" y="0" width="266.55" height="208.65"/>
    </clipPath>
    <clipPath id="clippath-13">
      <rect class="cls-11" y="0" width="266.55" height="208.65"/>
    </clipPath>
  </defs>
  <g id="Layer_1-2" data-name="Layer 1">
    <rect class="cls-8" x=".5" y="25.36" width="20.66" height="19.2"/>
    <g class="cls-21">
      <rect class="cls-12" x=".5" y="25.36" width="20.66" height="19.2"/>
    </g>
    <text class="cls-5" transform="translate(7.43 37.56)"><tspan x="0" y="0">A</tspan></text>
    <rect class="cls-8" x=".5" y="44.56" width="20.66" height="19.2"/>
    <g class="cls-13">
      <rect class="cls-12" x=".5" y="44.56" width="20.66" height="19.2"/>
    </g>
    <text class="cls-5" transform="translate(7.13 56.76)"><tspan x="0" y="0">B</tspan></text>
    <rect class="cls-8" x=".5" y="63.76" width="20.66" height="19.2"/>
    <g class="cls-19">
      <rect class="cls-12" x=".5" y="63.76" width="20.66" height="19.2"/>
    </g>
    <text class="cls-5" transform="translate(7.13 75.96)"><tspan x="0" y="0">C</tspan></text>
    <rect class="cls-8" x="225.43" y="82.96" width="20.66" height="19.2"/>
    <rect class="cls-12" x="225.43" y="82.96" width="20.66" height="19.2"/>
    <text class="cls-5" transform="translate(232.36 95.16)"><tspan x="0" y="0">A</tspan></text>
    <rect class="cls-8" x="225.43" y="102.16" width="20.66" height="19.2"/>
    <rect class="cls-12" x="225.43" y="102.16" width="20.66" height="19.2"/>
    <text class="cls-5" transform="translate(232.06 114.35)"><tspan x="0" y="0">B</tspan></text>
    <rect class="cls-8" x="225.43" y="121.36" width="20.66" height="19.2"/>
    <rect class="cls-12" x="225.43" y="121.36" width="20.66" height="19.2"/>
    <text class="cls-5" transform="translate(232.06 133.55)"><tspan x="0" y="0">C</tspan></text>
    <rect class="cls-8" x="245.39" y="82.96" width="20.66" height="19.2"/>
    <g class="cls-17">
      <rect class="cls-12" x="245.39" y="82.96" width="20.66" height="19.2"/>
    </g>
    <text class="cls-5" transform="translate(249.52 95.16)"><tspan x="0" y="0">15</tspan></text>
    <rect class="cls-8" x="245.39" y="102.16" width="20.66" height="19.2"/>
    <g class="cls-3">
      <rect class="cls-12" x="245.39" y="102.16" width="20.66" height="19.2"/>
    </g>
    <text class="cls-5" transform="translate(249.52 114.35)"><tspan x="0" y="0">30</tspan></text>
    <rect class="cls-8" x="245.39" y="121.36" width="20.66" height="19.2"/>
    <g class="cls-14">
      <rect class="cls-12" x="245.39" y="121.36" width="20.66" height="19.2"/>
    </g>
    <text class="cls-5" transform="translate(249.52 133.55)"><tspan x="0" y="0">45</tspan></text>
    <rect class="cls-8" x=".5" y="82.96" width="20.66" height="19.2"/>
    <g class="cls-1">
      <rect class="cls-12" x=".5" y="82.96" width="20.66" height="19.2"/>
    </g>
    <text class="cls-5" transform="translate(7.43 95.16)"><tspan x="0" y="0">A</tspan></text>
    <rect class="cls-8" x=".5" y="102.16" width="20.66" height="19.2"/>
    <g class="cls-2">
      <rect class="cls-12" x=".5" y="102.16" width="20.66" height="19.2"/>
    </g>
    <text class="cls-5" transform="translate(7.13 114.35)"><tspan x="0" y="0">B</tspan></text>
    <rect class="cls-8" x=".5" y="121.36" width="20.66" height="19.2"/>
    <g class="cls-15">
      <rect class="cls-12" x=".5" y="121.36" width="20.66" height="19.2"/>
    </g>
    <text class="cls-5" transform="translate(7.13 133.55)"><tspan x="0" y="0">C</tspan></text>
    <rect class="cls-8" x=".5" y="140.55" width="20.66" height="19.2"/>
    <g class="cls-6">
      <rect class="cls-12" x=".5" y="140.55" width="20.66" height="19.2"/>
    </g>
    <text class="cls-5" transform="translate(7.43 152.75)"><tspan x="0" y="0">A</tspan></text>
    <rect class="cls-8" x=".5" y="159.75" width="20.66" height="19.2"/>
    <g class="cls-7">
      <rect class="cls-12" x=".5" y="159.75" width="20.66" height="19.2"/>
    </g>
    <text class="cls-5" transform="translate(7.13 171.95)"><tspan x="0" y="0">B</tspan></text>
    <rect class="cls-8" x=".5" y="178.95" width="20.66" height="19.2"/>
    <g class="cls-10">
      <rect class="cls-12" x=".5" y="178.95" width="20.66" height="19.2"/>
    </g>
    <text class="cls-5" transform="translate(7.13 191.15)"><tspan x="0" y="0">C</tspan></text>
    <rect class="cls-8" x="122.5" y="14.36" width="20.66" height="19.2"/>
    <rect class="cls-12" x="122.5" y="14.36" width="20.66" height="19.2"/>
    <text class="cls-5" transform="translate(129.43 26.56)"><tspan x="0" y="0">A</tspan></text>
    <rect class="cls-8" x="122.5" y="33.56" width="20.66" height="19.2"/>
    <rect class="cls-12" x="122.5" y="33.56" width="20.66" height="19.2"/>
    <text class="cls-5" transform="translate(129.13 45.76)"><tspan x="0" y="0">A</tspan></text>
    <rect class="cls-8" x="122.5" y="52.76" width="20.66" height="19.2"/>
    <rect class="cls-12" x="122.5" y="52.76" width="20.66" height="19.2"/>
    <text class="cls-5" transform="translate(129.13 64.96)"><tspan x="0" y="0">A</tspan></text>
    <rect class="cls-8" x="142.95" y="14.36" width="20.66" height="19.2"/>
    <rect class="cls-12" x="142.95" y="14.36" width="20.66" height="19.2"/>
    <text class="cls-5" transform="translate(150.18 26.56)"><tspan x="0" y="0">0</tspan></text>
    <rect class="cls-8" x="142.95" y="33.56" width="20.66" height="19.2"/>
    <rect class="cls-12" x="142.95" y="33.56" width="20.66" height="19.2"/>
    <text class="cls-5" transform="translate(150.18 45.76)"><tspan x="0" y="0">5</tspan></text>
    <rect class="cls-8" x="142.95" y="52.76" width="20.66" height="19.2"/>
    <rect class="cls-12" x="142.95" y="52.76" width="20.66" height="19.2"/>
    <text class="cls-5" transform="translate(147.07 64.96)"><tspan x="0" y="0">10</tspan></text>
    <rect class="cls-8" x="122.5" y="82.96" width="20.66" height="19.2"/>
    <rect class="cls-12" x="122.5" y="82.96" width="20.66" height="19.2"/>
    <text class="cls-5" transform="translate(129.43 95.16)"><tspan x="0" y="0">B</tspan></text>
    <rect class="cls-8" x="122.5" y="102.16" width="20.66" height="19.2"/>
    <rect class="cls-12" x="122.5" y="102.16" width="20.66" height="19.2"/>
    <text class="cls-5" transform="translate(129.13 114.35)"><tspan x="0" y="0">B</tspan></text>
    <rect class="cls-8" x="122.5" y="121.36" width="20.66" height="19.2"/>
    <rect class="cls-12" x="122.5" y="121.36" width="20.66" height="19.2"/>
    <text class="cls-5" transform="translate(129.13 133.55)"><tspan x="0" y="0">B</tspan></text>
    <rect class="cls-8" x="142.95" y="82.96" width="20.66" height="19.2"/>
    <rect class="cls-12" x="142.95" y="82.96" width="20.66" height="19.2"/>
    <text class="cls-5" transform="translate(150.18 95.16)"><tspan x="0" y="0">5</tspan></text>
    <rect class="cls-8" x="142.95" y="102.16" width="20.66" height="19.2"/>
    <rect class="cls-12" x="142.95" y="102.16" width="20.66" height="19.2"/>
    <text class="cls-5" transform="translate(147.07 114.35)"><tspan x="0" y="0">10</tspan></text>
    <rect class="cls-8" x="142.95" y="121.36" width="20.66" height="19.2"/>
    <rect class="cls-12" x="142.95" y="121.36" width="20.66" height="19.2"/>
    <text class="cls-5" transform="translate(147.07 133.55)"><tspan x="0" y="0">15</tspan></text>
    <rect class="cls-8" x="122.5" y="150.55" width="20.66" height="19.2"/>
    <rect class="cls-12" x="122.5" y="150.55" width="20.66" height="19.2"/>
    <text class="cls-5" transform="translate(129.43 162.75)"><tspan x="0" y="0">C</tspan></text>
    <rect class="cls-8" x="122.5" y="169.75" width="20.66" height="19.2"/>
    <rect class="cls-12" x="122.5" y="169.75" width="20.66" height="19.2"/>
    <text class="cls-5" transform="translate(129.13 181.95)"><tspan x="0" y="0">C</tspan></text>
    <rect class="cls-8" x="122.5" y="188.95" width="20.66" height="19.2"/>
    <g class="cls-18">
      <rect class="cls-12" x="122.5" y="188.95" width="20.66" height="19.2"/>
    </g>
    <text class="cls-5" transform="translate(129.13 201.15)"><tspan x="0" y="0">C</tspan></text>
    <rect class="cls-8" x="142.95" y="150.55" width="20.66" height="19.2"/>
    <rect class="cls-12" x="142.95" y="150.55" width="20.66" height="19.2"/>
    <text class="cls-5" transform="translate(147.07 162.75)"><tspan x="0" y="0">10</tspan></text>
    <rect class="cls-8" x="142.95" y="169.75" width="20.66" height="19.2"/>
    <rect class="cls-12" x="142.95" y="169.75" width="20.66" height="19.2"/>
    <text class="cls-5" transform="translate(147.07 181.95)"><tspan x="0" y="0">15</tspan></text>
    <rect class="cls-8" x="142.95" y="188.95" width="20.66" height="19.2"/>
    <g class="cls-20">
      <rect class="cls-12" x="142.95" y="188.95" width="20.66" height="19.2"/>
    </g>
    <text class="cls-5" transform="translate(147.07 201.15)"><tspan x="0" y="0">20</tspan></text>
    <rect class="cls-8" x="52.62" y="25.36" width="20.66" height="19.2"/>
    <rect class="cls-12" x="52.62" y="25.36" width="20.66" height="19.2"/>
    <text class="cls-5" transform="translate(59.85 37.56)"><tspan x="0" y="0">0</tspan></text>
    <rect class="cls-8" x="52.62" y="44.56" width="20.66" height="19.2"/>
    <rect class="cls-12" x="52.62" y="44.56" width="20.66" height="19.2"/>
    <text class="cls-5" transform="translate(59.85 56.76)"><tspan x="0" y="0">5</tspan></text>
    <rect class="cls-8" x="52.62" y="63.76" width="20.66" height="19.2"/>
    <rect class="cls-12" x="52.62" y="63.76" width="20.66" height="19.2"/>
    <text class="cls-5" transform="translate(56.75 75.96)"><tspan x="0" y="0">10</tspan></text>
    <rect class="cls-8" x="52.62" y="82.96" width="20.66" height="19.2"/>
    <rect class="cls-12" x="52.62" y="82.96" width="20.66" height="19.2"/>
    <text class="cls-5" transform="translate(59.85 95.16)"><tspan x="0" y="0">5</tspan></text>
    <rect class="cls-8" x="52.62" y="102.16" width="20.66" height="19.2"/>
    <rect class="cls-12" x="52.62" y="102.16" width="20.66" height="19.2"/>
    <text class="cls-5" transform="translate(56.75 114.35)"><tspan x="0" y="0">10</tspan></text>
    <rect class="cls-8" x="52.62" y="121.36" width="20.66" height="19.2"/>
    <rect class="cls-12" x="52.62" y="121.36" width="20.66" height="19.2"/>
    <text class="cls-5" transform="translate(56.75 133.55)"><tspan x="0" y="0">15</tspan></text>
    <rect class="cls-8" x="52.62" y="140.55" width="20.66" height="19.2"/>
    <rect class="cls-12" x="52.62" y="140.55" width="20.66" height="19.2"/>
    <text class="cls-5" transform="translate(56.75 152.75)"><tspan x="0" y="0">10</tspan></text>
    <rect class="cls-8" x="52.62" y="159.75" width="20.66" height="19.2"/>
    <rect class="cls-12" x="52.62" y="159.75" width="20.66" height="19.2"/>
    <text class="cls-5" transform="translate(56.75 171.95)"><tspan x="0" y="0">15</tspan></text>
    <rect class="cls-8" x="52.62" y="178.95" width="20.66" height="19.2"/>
    <rect class="cls-12" x="52.62" y="178.95" width="20.66" height="19.2"/>
    <text class="cls-5" transform="translate(56.75 191.15)"><tspan x="0" y="0">20</tspan></text>
    <polyline class="cls-12" points="106.9 80.03 78.72 111.76 106.8 141.88"/>
    <polygon class="cls-4" points="103.15 78.26 110.72 75.74 109.11 83.56 103.15 78.26"/>
    <polygon class="cls-4" points="103.09 143.74 110.72 146.07 108.92 138.3 103.09 143.74"/>
    <line class="cls-12" x1="110.98" y1="111.76" x2="78.72" y2="111.76"/>
    <polygon class="cls-4" points="109.81 107.77 116.72 111.76 109.81 115.74 109.81 107.77"/>
    <line class="cls-12" x1="213.87" y1="111.76" x2="169.61" y2="111.76"/>
    <polygon class="cls-4" points="212.7 107.77 219.61 111.76 212.7 115.74 212.7 107.77"/>
    <line class="cls-12" x1="214.86" y1="72.52" x2="172.61" y2="43.76"/>
    <polygon class="cls-4" points="216.14 68.57 219.61 75.76 211.65 75.17 216.14 68.57"/>
    <line class="cls-12" x1="214.54" y1="146.45" x2="170.61" y2="169.76"/>
    <polygon class="cls-4" points="211.63 143.47 219.61 143.76 215.37 150.52 211.63 143.47"/>
    <text class="cls-5" transform="translate(1.72 18.08)"><tspan x="0" y="0">key</tspan></text>
    <text class="cls-5" transform="translate(51.62 18.08)"><tspan x="0" y="0">data</tspan></text>
    <text class="cls-5" transform="translate(132.83 8.41)"><tspan x="0" y="0">split</tspan></text>
    <text class="cls-5" transform="translate(181.94 45.75)"><tspan x="0" y="0">Sum</tspan></text>
    <text class="cls-5" transform="translate(175.61 105.41)"><tspan x="0" y="0">Sum</tspan></text>
    <text class="cls-5" transform="translate(186.61 169.75)"><tspan x="0" y="0">Sum</tspan></text>
    <text class="cls-5" transform="translate(179.61 8.41)"><tspan x="0" y="0">Appl</tspan><tspan class="cls-9" x="22.2" y="0">y</tspan><tspan class="cls-16" x="39.99" y="0">Combine</tspan></text>
  </g>
</svg>