<?xml version="1.0" encoding="UTF-8"?>
<svg id="Layer_2" data-name="Layer 2" xmlns="http://www.w3.org/2000/svg" viewBox="0 0 185.31 185.31">
  <defs>
    <style>
      .cls-1 {
        fill: #231f20;
      }

      .cls-2 {
        fill: #75c8ee;
      }

      .cls-2, .cls-3, .cls-4 {
        stroke: #fff;
        stroke-miterlimit: 10;
      }

      .cls-3 {
        fill: #ec8e71;
      }

      .cls-4 {
        fill: #c9df83;
      }
    </style>
  </defs>
  <g id="Layer_1-2" data-name="Layer 1">
    <g>
      <path class="cls-2" d="M92.66.5c-22.39,0-42.91,7.99-58.88,21.26l12.65,15.38c12.53-10.45,28.65-16.73,46.23-16.73,12.2,0,23.69,3.03,33.77,8.37,22.89,12.11,38.48,36.17,38.48,63.88h0s19.9,0,19.9,0h0C184.81,41.76,143.55.5,92.66.5Z"/>
      <path class="cls-4" d="M184.81,92.67c0,50.89-41.26,92.14-92.15,92.14-15.98,0-31.01-4.06-44.11-11.22l9.43-17.53c10.3,5.64,22.11,8.85,34.68,8.85,17.25,0,33.09-6.05,45.52-16.15,16.31-13.24,26.73-33.45,26.73-56.09h19.9Z"/>
      <path class="cls-3" d="M57.98,156.06l-9.43,17.53C19.92,157.95.5,127.57.5,92.66c0-28.51,12.95-54,33.28-70.9l12.65,15.38c-15.9,13.24-26.02,33.2-26.02,55.52h0c0,27.34,15.18,51.12,37.57,63.4Z"/>
      <path class="cls-4" d="M138.18,148.76c-12.43,10.1-28.27,16.15-45.52,16.15-12.57,0-24.38-3.21-34.68-8.85l34.09-63.39,46.11,56.09Z"/>
      <path class="cls-4" d="M164.91,92.67c0,22.64-10.42,42.85-26.73,56.09l-46.11-56.09h72.84Z"/>
      <path class="cls-2" d="M164.91,92.66h0s-72.84,0-72.84,0l34.36-63.89c22.89,12.11,38.48,36.17,38.48,63.88Z"/>
      <path class="cls-2" d="M126.43,28.78l-34.36,63.89-45.64-55.53c12.53-10.45,28.65-16.73,46.23-16.73,12.2,0,23.69,3.03,33.77,8.37Z"/>
      <path class="cls-3" d="M92.07,92.67H20.41c0-22.33,10.12-42.29,26.02-55.53l45.64,55.53Z"/>
      <path class="cls-3" d="M92.07,92.67l-34.09,63.39c-22.39-12.28-37.57-36.06-37.57-63.39h71.66Z"/>
    </g>
    <g>
      <path class="cls-1" d="M108.43,9.49l-.49,2.19,1.1.25c.51.12.87.17,1.07.16.31-.01.57-.09.76-.24.2-.15.33-.37.39-.66.06-.25.03-.47-.07-.66-.1-.2-.27-.35-.49-.47-.15-.07-.46-.16-.95-.27l-1.32-.29ZM107.84,12.09l-.44,1.96c-.04.2-.06.32-.05.36.01.06.05.1.11.14.04.03.18.06.41.11l.58.13c.58.13,1,.19,1.26.18.26,0,.5-.1.72-.27.22-.17.36-.4.43-.69.05-.24.03-.48-.07-.7-.1-.22-.26-.4-.49-.54-.23-.14-.66-.28-1.3-.42l-1.16-.26ZM106.98,8.66l2.85.64c.69.16,1.16.29,1.41.41.36.18.62.41.79.7.17.29.21.6.14.94-.06.24-.16.45-.32.61-.16.17-.37.29-.62.38-.16.06-.37.09-.63.1.3.13.52.25.66.36.22.18.37.39.47.65.09.26.11.52.04.8-.06.27-.19.51-.38.71-.19.2-.43.35-.72.44-.29.09-.61.12-.96.08-.35-.03-.7-.09-1.07-.17l-3-.67.08-.36.2.04c.19.04.33.04.42,0,.12-.06.21-.19.25-.38l.93-4.15c.04-.2.06-.33.04-.41-.02-.08-.05-.14-.11-.19-.06-.05-.17-.09-.35-.13l-.2-.04.08-.36Z"/>
      <path class="cls-1" d="M115.86,14.21c.03-.27.03-.48-.01-.63-.04-.15-.12-.28-.24-.39-.12-.11-.27-.2-.45-.25-.18-.05-.35-.06-.53-.03-.18.03-.33.09-.47.19-.14.1-.28.26-.43.49l2.14.62ZM115.91,16.07l.21.3c-.28.18-.53.32-.77.41-.23.09-.45.14-.63.14-.19,0-.4-.02-.63-.09-.41-.12-.74-.31-.98-.56-.28-.29-.46-.62-.54-.98-.09-.36-.07-.76.05-1.18.13-.44.32-.8.59-1.07.26-.27.57-.45.94-.54.36-.09.74-.08,1.15.04.3.09.55.21.74.37.19.16.34.35.44.59.1.23.15.48.15.75,0,.15-.03.35-.09.58l-2.99-.86c-.05.14-.08.24-.1.3-.1.36-.13.69-.09,1,.04.31.15.57.32.76.17.19.38.32.64.4.22.06.45.07.68.03.24-.04.54-.17.92-.39"/>
      <path class="cls-1" d="M121.39,12.61l4.64,1.81-.05,1.71h-.41c0-.29-.02-.52-.07-.7-.05-.18-.13-.35-.24-.51-.11-.16-.24-.28-.38-.37-.14-.09-.41-.21-.8-.37l-1.39-.54-.82,2.09.69.27c.25.1.46.13.63.09.16-.03.29-.11.39-.22.07-.08.16-.24.25-.48l.04-.09.4.16-.98,2.51-.4-.16.09-.22c.07-.19.11-.33.12-.43,0-.09-.02-.2-.07-.3-.05-.1-.11-.19-.19-.25-.08-.06-.23-.14-.44-.22l-.69-.27-.72,1.86c-.08.19-.11.32-.11.36,0,.05.02.09.05.13.03.04.14.09.33.16l.86.33c.48.19.88.27,1.19.26.31-.01.62-.09.92-.25.23-.12.49-.32.77-.6l.32.28-1.34,1.54-4.82-1.88.13-.35.17.07c.19.07.31.11.37.1.09,0,.16-.04.23-.11.05-.04.11-.16.18-.34l1.53-3.94c.07-.18.1-.3.09-.38-.01-.07-.06-.15-.13-.21-.04-.04-.2-.11-.48-.22l.14-.35Z"/>
      <path class="cls-1" d="M128.43,15.91l.28.13-.61,1.36,1.19.54-.18.4-1.19-.54-1.09,2.42c-.09.21-.14.36-.14.47,0,.1.02.2.09.3.06.1.14.17.25.22.25.11.59.13,1,.04l-.18.39c-.46.08-.86.04-1.22-.12-.2-.09-.37-.22-.49-.39-.12-.17-.19-.32-.19-.47,0-.15.06-.38.2-.68l1.11-2.46-.7-.32.15-.34c.25.05.46.05.65,0,.19-.04.36-.13.52-.27.16-.13.35-.36.56-.68"/>
      <path class="cls-1" d="M130.66,16.94l.17-.34c.27.1.49.16.65.18.16.03.35.03.55.02l.31.16-1.32,2.59c.42-.1.79-.14,1.12-.12.32.02.6.09.84.22.35.18.58.43.71.75.12.33.1.64-.05.94l-.98,1.92c-.1.19-.15.32-.15.4s.03.14.08.21c.06.06.21.16.45.28l-.17.33-2.02-1.04.17-.33.15.08c.19.1.32.15.4.15.08,0,.14-.03.21-.08.06-.05.15-.19.26-.41l.68-1.33c.15-.3.24-.49.26-.59.04-.17.02-.33-.05-.49-.08-.15-.21-.28-.4-.38-.21-.11-.46-.17-.75-.18-.29-.01-.61.02-.97.1l-1,1.96c-.07.15-.11.25-.11.31,0,.06.03.12.07.18.05.05.16.13.34.22l.16.08-.17.33-2.03-1.04.17-.33.12.06c.19.1.34.15.45.14.06,0,.12-.03.17-.08.05-.06.16-.24.32-.55l2.04-3.97-.67-.34Z"/>
      <path class="cls-1" d="M137.35,19.78c.12.07.2.17.24.31.04.13.02.26-.05.39-.07.12-.17.2-.31.24-.14.04-.26.02-.39-.05-.12-.07-.2-.17-.24-.31-.04-.14-.02-.27.05-.39.07-.12.17-.2.31-.24.13-.04.26-.02.38.05M135.03,21.59l.18-.32c.22.1.42.16.59.2.17.04.37.06.61.06l.28.16-1.75,3.06c-.06.11-.09.2-.09.27s.02.13.06.19c.04.06.13.12.28.21l.18.1-.18.32-1.95-1.11.18-.32.16.09c.17.1.29.15.37.15.08,0,.14-.02.2-.06.06-.04.14-.17.26-.37l1.28-2.25-.66-.38Z"/>
      <path class="cls-1" d="M139.51,27.06l.12.34c-.86.33-1.61.29-2.26-.11-.51-.32-.83-.77-.95-1.35-.12-.58-.02-1.14.32-1.68.23-.36.51-.63.85-.82.34-.19.71-.27,1.1-.24.39.02.77.15,1.14.38.43.27.72.6.87.98.15.39.17.69.03.9-.07.11-.16.18-.27.2-.1.02-.2,0-.28-.05-.05-.03-.08-.07-.11-.12-.03-.05-.05-.11-.06-.19,0-.04,0-.13.02-.28.02-.19.03-.32.03-.39-.01-.15-.06-.28-.14-.41-.08-.13-.18-.24-.32-.32-.21-.13-.44-.2-.7-.19-.25,0-.5.09-.75.25-.25.16-.47.4-.67.71-.31.49-.42.96-.34,1.41.07.39.26.68.57.88.15.09.31.16.48.2.18.04.36.06.55.05.14,0,.39-.06.76-.16"/>
      <path class="cls-1" d="M143.29,28.53c-.61-.31-1-.49-1.15-.55-.31-.12-.54-.19-.7-.2-.16,0-.3.01-.4.06-.11.05-.19.12-.26.21-.07.09-.1.2-.11.33,0,.12.02.25.08.37.06.12.15.22.26.3.16.11.36.2.61.26.25.06.6.09,1.06.09l.61-.87ZM143.51,28.21l.27-.39c.19-.27.25-.51.18-.73-.07-.22-.24-.42-.51-.61-.13-.1-.26-.16-.39-.2-.12-.04-.24-.05-.34-.04-.1.01-.19.05-.27.1-.03.02-.13.1-.3.24-.21.18-.39.21-.56.09-.09-.07-.15-.15-.16-.26-.01-.1.02-.21.09-.32.11-.16.28-.27.5-.34.22-.07.49-.07.8,0,.31.07.63.22.96.45.31.21.54.45.69.69.15.25.22.5.2.74-.01.17-.13.42-.36.74l-.97,1.38c-.14.2-.22.33-.25.4-.05.12-.05.23-.02.33.03.1.1.18.2.26.11.08.26.15.45.2l-.22.31c-.24-.08-.44-.18-.6-.29-.17-.12-.3-.24-.38-.38-.08-.13-.13-.27-.14-.41,0-.15.02-.29.09-.43-.45.02-.82,0-1.11-.07-.3-.07-.56-.19-.8-.36-.33-.23-.54-.51-.62-.83-.08-.33-.04-.61.13-.85.1-.15.24-.26.41-.34.17-.08.36-.11.59-.11.23,0,.53.09.92.24.38.15.89.41,1.53.76"/>
      <path class="cls-1" d="M147.07,26.89l.22-.29c.34.22.72.36,1.15.42l.26.2-3.29,4.3c-.14.18-.21.3-.23.37-.02.09-.01.17.02.24.03.07.13.18.3.3l.11.09-.22.29-1.8-1.38.23-.29.18.14c.11.09.21.14.3.14.08,0,.16,0,.23-.05.07-.04.17-.15.31-.33l2.82-3.69-.6-.46Z"/>
      <path class="cls-1" d="M160.2,145.8l-1.7-1.47-.74.85c-.34.4-.56.68-.65.86-.14.28-.19.54-.15.79.04.24.17.47.4.66.19.16.4.25.62.25.22,0,.44-.07.64-.21.13-.09.36-.33.69-.71l.88-1.02ZM158.18,144.05l-1.52-1.32c-.15-.13-.25-.2-.29-.22-.05-.02-.11,0-.18.03-.04.03-.14.13-.29.3l-.39.45c-.39.45-.64.79-.76,1.02-.12.23-.15.49-.11.76.04.27.18.51.4.7.19.17.41.26.65.28.24.02.48-.04.71-.18.23-.14.56-.45.99-.95l.78-.9ZM161.61,144.91l-1.91,2.2c-.47.54-.81.89-1.03,1.04-.33.23-.66.35-.99.36-.33.01-.63-.1-.89-.32-.19-.16-.32-.35-.39-.58-.07-.22-.08-.46-.04-.73.03-.17.1-.37.22-.6-.25.2-.47.34-.64.41-.26.11-.52.14-.79.1-.27-.04-.51-.15-.73-.34-.21-.18-.36-.41-.44-.67-.08-.26-.1-.54-.04-.84.06-.3.18-.59.38-.88.2-.29.42-.58.66-.85l2.01-2.32.28.24-.13.16c-.13.15-.2.27-.2.37,0,.14.07.27.21.4l3.22,2.79c.15.13.27.21.34.23.08.02.15.02.22,0,.07-.03.16-.11.28-.25l.13-.16.28.24Z"/>
      <path class="cls-1" d="M152.51,150.11c.22.16.41.25.56.28.15.03.3.02.46-.03.16-.05.3-.15.43-.28.13-.13.22-.28.28-.45.06-.17.08-.34.05-.51-.02-.17-.1-.37-.22-.61l-1.56,1.59ZM150.85,149.27l-.36.04c-.03-.33-.03-.62,0-.87.03-.25.09-.46.17-.63.08-.17.21-.34.38-.51.3-.31.62-.51.96-.6.39-.1.76-.11,1.12-.01.36.1.7.3,1.01.61.33.32.55.67.66,1.02.11.36.12.72.03,1.08-.09.36-.28.69-.58.99-.22.22-.45.38-.68.48-.23.1-.48.13-.73.11s-.5-.1-.73-.22c-.13-.08-.29-.2-.46-.36l2.18-2.22c-.1-.11-.17-.19-.22-.24-.26-.26-.54-.44-.84-.55-.3-.11-.57-.14-.81-.08-.25.06-.46.18-.65.37-.16.16-.28.36-.35.59-.07.23-.11.56-.1.99"/>
      <path class="cls-1" d="M149.78,156.4l-1.5-1.76-.96.82c-.33.28-.54.49-.64.65-.14.21-.21.44-.19.67.01.24.12.46.3.68.16.19.33.31.52.37.19.06.38.07.56.02.19-.05.42-.19.69-.42l1.21-1.03ZM151.3,155.73l-2.41,2.05c-.46.39-.84.64-1.16.74-.32.1-.61.12-.89.05-.28-.07-.52-.23-.72-.46-.21-.24-.33-.51-.37-.8-.04-.29.01-.59.15-.9.14-.3.4-.62.78-.95l-2.52-.45c-.21-.04-.34-.06-.39-.06-.14,0-.26.01-.38.05-.12.04-.23.1-.33.19l-.08.07-.24-.28,1.06-.91,3.61.77.6-.51-1.23-1.44c-.14-.16-.23-.26-.27-.29-.09-.05-.17-.07-.26-.06-.08.02-.2.09-.36.23l-.12.1-.24-.28,1.79-1.52.24.28-.16.14c-.12.1-.2.18-.22.23-.03.05-.04.11-.04.18,0,.07.02.14.06.21.02.03.11.14.28.35l2.6,3.05c.12.14.21.22.29.26.08.04.15.05.22.03.07-.01.16-.07.28-.17l.19-.16.24.28Z"/>
      <path class="cls-1" d="M141.73,159.35c.2.19.37.31.51.36.14.05.29.07.46.04.16-.03.32-.1.47-.21.15-.11.26-.25.35-.4.08-.16.13-.32.13-.5,0-.17-.04-.38-.13-.64l-1.78,1.34ZM140.21,158.27h-.36c.02-.34.06-.63.13-.87.07-.24.16-.44.26-.59.11-.16.26-.31.45-.45.34-.26.69-.41,1.04-.45.4-.05.77,0,1.11.15.34.15.65.4.91.75.28.37.44.74.5,1.11.06.37.01.73-.13,1.07s-.38.64-.72.9c-.25.19-.5.31-.74.38-.24.06-.49.06-.74,0-.25-.06-.48-.17-.69-.33-.12-.09-.26-.23-.4-.42l2.48-1.87c-.08-.12-.14-.21-.18-.27-.22-.29-.47-.52-.75-.67-.28-.15-.54-.22-.79-.2-.25.02-.49.11-.7.27-.18.14-.33.31-.43.53-.11.21-.19.54-.24.97"/>
      <path class="cls-1" d="M138.75,163.05l-.26.17-1.08-.89.25-.33c.33.21.68.32,1.03.33.35.01.65-.07.89-.23.19-.13.31-.27.36-.44.05-.17.04-.32-.04-.43-.07-.11-.18-.18-.32-.2-.14-.03-.39,0-.75.1l-.88.23c-.5.13-.87.16-1.13.1-.25-.07-.45-.21-.59-.41-.12-.18-.18-.38-.19-.62,0-.24.06-.47.2-.71.14-.23.34-.44.6-.62.41-.28.84-.4,1.29-.36l-.1-.31.26-.17,1.26.88-.24.35c-.46-.2-.83-.31-1.13-.32-.41-.02-.78.08-1.1.29-.21.14-.35.32-.41.52-.06.2-.04.38.05.51.08.11.19.19.34.23.15.03.38,0,.68-.07l1.05-.26c.45-.11.8-.14,1.04-.08.25.06.44.19.57.39.17.24.2.54.1.88-.1.34-.33.64-.68.88-.18.12-.36.21-.54.27-.18.05-.38.07-.59.06l.05.29Z"/>
      <path class="cls-1" d="M135.41,163.9l-.78-1.29c-.1-.17-.19-.29-.26-.36-.11-.11-.24-.19-.38-.24-.15-.05-.32-.07-.51-.05-.19.02-.37.07-.54.17-.32.2-.54.49-.62.88s.01.84.32,1.33c.28.47.6.77.95.9.35.14.66.12.93-.04.18-.11.34-.27.49-.48.15-.22.29-.49.41-.82M136.92,163.52l.19.31c-.19.11-.34.24-.46.37-.12.13-.23.31-.33.53l-.3.18-.38-.63c-.17.44-.33.76-.48.97-.16.21-.34.38-.55.5-.43.26-.89.31-1.4.16-.51-.15-.92-.5-1.24-1.04-.36-.6-.48-1.19-.37-1.78.1-.54.4-.96.89-1.26.25-.15.51-.24.78-.28.19-.03.44-.02.75.03l-.75-1.24c-.11-.19-.18-.29-.21-.32-.04-.04-.09-.07-.15-.08-.06,0-.12,0-.18.02-.05.02-.19.1-.44.25l-.19-.32,1.94-1.17.19.32-.17.1c-.17.1-.28.18-.31.24-.04.06-.05.12-.04.19.01.05.08.19.21.41l2.35,3.9.65-.39Z"/>
      <path class="cls-1" d="M128.86,167.32c.16.22.31.36.44.44.13.08.28.11.45.11.17,0,.33-.05.49-.13.16-.09.3-.2.4-.34.11-.14.18-.3.21-.47.03-.17.02-.39-.03-.65l-1.97,1.04ZM127.53,166.01l-.36-.07c.07-.33.16-.6.26-.83.11-.23.23-.41.36-.54.13-.14.3-.26.51-.37.38-.2.74-.3,1.09-.28.4.02.76.12,1.07.33.32.2.58.5.79.89.22.41.32.8.32,1.17,0,.37-.1.72-.3,1.04-.19.32-.48.57-.85.77-.28.15-.54.23-.79.25-.25.02-.49-.02-.73-.11-.24-.1-.45-.24-.63-.43-.11-.11-.22-.27-.33-.48l2.74-1.46c-.06-.13-.1-.23-.14-.29-.17-.33-.38-.59-.63-.78-.25-.2-.5-.3-.75-.32-.25-.02-.5.03-.74.16-.2.11-.37.26-.51.45-.14.2-.27.5-.39.92"/>
      <path class="cls-1" d="M123.26,168.15l-.35-.09c.19-.9.63-1.51,1.33-1.84.54-.26,1.09-.28,1.65-.06.55.21.97.61,1.24,1.18.18.39.25.77.22,1.16s-.16.74-.39,1.05c-.23.32-.54.57-.94.75-.46.21-.89.28-1.3.2-.41-.08-.67-.24-.78-.46-.06-.12-.07-.23-.03-.33.04-.1.11-.17.2-.21.05-.02.1-.03.16-.03.06,0,.12.02.19.05.03.01.11.07.22.17.14.12.25.2.31.23.13.07.27.1.42.11.15,0,.3-.03.45-.1.22-.11.4-.27.54-.48.13-.21.2-.47.2-.77,0-.29-.08-.61-.24-.95-.24-.52-.58-.87-1-1.05-.36-.15-.71-.15-1.05,0-.15.07-.3.17-.43.3-.13.13-.25.27-.34.44-.07.12-.16.36-.27.73"/>
      <path class="cls-1" d="M123.19,173.07l-.29.12-.57-1.38-1.2.5-.17-.41,1.2-.5-1.02-2.45c-.09-.21-.17-.35-.24-.42-.07-.07-.17-.12-.28-.14-.11-.02-.22,0-.33.04-.26.11-.49.34-.71.7l-.17-.39c.26-.39.56-.66.93-.81.21-.09.41-.12.62-.1.21.02.36.08.48.18.11.1.23.3.36.61l1.04,2.49.71-.3.14.34c-.21.15-.36.3-.45.47-.1.17-.15.35-.16.56-.01.21.02.5.11.87"/>
      <path class="cls-1" d="M120.47,172.57l-.7.27.23.62c.16.42.15.83-.03,1.2-.18.38-.49.65-.95.82-.3.11-.56.14-.78.08-.21-.06-.35-.17-.41-.32-.04-.1-.03-.19,0-.29.04-.09.11-.16.22-.2.09-.04.17-.05.25-.04.08,0,.21.05.4.13.2.08.36.1.49.05.09-.03.16-.09.21-.18.05-.08.08-.19.08-.31,0-.12-.05-.3-.13-.52l-.3-.78-.77.29-.16-.42.77-.29-1.01-2.67c-.07-.18-.13-.3-.18-.35-.05-.05-.11-.08-.17-.08-.06,0-.19.03-.4.11l-.17.06-.13-.35,2.12-.8.13.35-.13.05c-.22.08-.35.15-.4.2-.05.05-.07.11-.08.18,0,.07.04.22.12.43l.99,2.61.7-.27.16.42Z"/>
      <path class="cls-1" d="M117.85,173.59l-1.56.58-.87-2.69c-.07-.24-.17-.41-.28-.53-.11-.12-.25-.19-.4-.23-.16-.03-.33-.02-.51.04-.22.07-.46.21-.7.43-.24.21-.47.48-.67.81l.63,1.95c.07.21.13.34.18.39.05.05.12.09.21.1.09.01.22,0,.39-.06l.3-.1.11.35-1.56.58-1.01-3.12c-.07-.2-.13-.33-.18-.4-.06-.07-.13-.1-.2-.11-.07-.01-.21.02-.41.08l-.13.04-.11-.35,1.36-.52.25.77c.28-.43.55-.74.79-.95.25-.21.52-.36.81-.45.22-.07.42-.1.59-.09.18,0,.35.05.51.13.16.08.3.19.42.33.12.14.21.31.27.49l.62,1.9c.05.17.11.28.16.34.05.06.12.1.21.11.08.02.19,0,.31-.03l.38-.12.11.35Z"/>
      <path class="cls-1" d="M112.11,176.94l.09.35c-.38.13-.72.35-1.03.66l-.31.09-1.42-5.22c-.06-.22-.11-.36-.15-.4-.06-.07-.13-.11-.21-.13-.08-.02-.22,0-.42.05l-.14.04-.1-.36,2.18-.6.1.36-.22.06c-.14.04-.24.09-.29.15-.06.06-.09.13-.1.21,0,.08.01.23.07.45l1.22,4.48.73-.2Z"/>
      <path class="cls-1" d="M20.57,134.87l1.77-.95c.18-.1.28-.16.3-.19.04-.05.05-.1.03-.18-.01-.05-.07-.18-.18-.38l-.28-.53c-.28-.52-.51-.88-.69-1.07-.18-.19-.4-.32-.67-.37-.27-.06-.54-.02-.8.13-.22.12-.38.29-.49.51-.1.22-.13.46-.09.73.04.27.22.69.53,1.26l.56,1.05ZM18.22,136.13l1.98-1.06-.53-.99c-.25-.46-.44-.77-.58-.92-.21-.23-.44-.37-.68-.42-.24-.05-.5,0-.76.14-.22.12-.37.28-.45.49-.08.21-.09.43-.03.68.04.16.18.46.42.89l.64,1.19ZM18.54,137.76l-1.38-2.57c-.34-.63-.54-1.07-.61-1.34-.1-.39-.1-.74,0-1.06.11-.32.32-.56.62-.72.22-.12.44-.17.68-.16.23.01.46.09.69.22.15.09.31.23.49.42-.1-.31-.15-.55-.16-.74-.01-.28.05-.54.18-.77.13-.24.33-.42.58-.56.25-.13.51-.19.78-.18.28.01.55.1.8.26.26.16.49.38.69.67.2.29.39.59.57.92l1.45,2.71-.32.17-.1-.18c-.1-.18-.19-.28-.28-.32-.12-.05-.27-.03-.45.06l-3.75,2.01c-.18.1-.29.17-.34.24-.05.06-.07.13-.07.2,0,.07.05.19.13.35l.1.18-.33.17Z"/>
      <path class="cls-1" d="M16.92,127.41c-.23.15-.38.29-.46.42-.08.13-.13.28-.14.44,0,.17.03.33.11.5.08.17.18.31.32.42.14.11.29.19.46.23.17.04.38.04.65,0l-.93-2.02ZM18.29,126.16l.09-.35c.32.09.59.19.81.31.22.12.4.25.53.38.13.14.24.32.35.53.18.39.25.76.22,1.11-.04.4-.17.75-.39,1.05-.22.3-.53.55-.93.73-.42.19-.82.28-1.19.25-.37-.02-.71-.14-1.02-.35-.31-.21-.55-.51-.72-.89-.13-.28-.2-.55-.21-.8-.01-.25.04-.49.15-.72s.27-.43.47-.6c.12-.1.28-.2.5-.31l1.3,2.82c.13-.05.23-.09.3-.12.34-.15.61-.35.82-.59.21-.24.33-.48.36-.73.03-.25,0-.5-.12-.74-.1-.21-.24-.39-.42-.54-.19-.15-.49-.3-.89-.44"/>
      <path class="cls-1" d="M12,122.62l2.17-.77-.43-1.19c-.14-.4-.27-.68-.38-.82-.15-.21-.33-.35-.56-.42-.22-.07-.47-.06-.75.04-.23.08-.41.2-.53.35-.12.15-.2.33-.22.52-.02.2.03.46.15.79l.53,1.5ZM12.09,124.28l-1.06-2.98c-.2-.57-.29-1.02-.28-1.35.01-.33.1-.61.27-.85s.4-.41.69-.51c.3-.11.6-.13.88-.06.29.07.55.22.79.46.24.24.44.59.61,1.07l1.32-2.19c.11-.18.18-.29.2-.35.05-.13.08-.25.09-.37,0-.12-.01-.25-.06-.38l-.04-.1.35-.12.47,1.32-2,3.11.26.74,1.78-.63c.2-.07.32-.12.36-.15.08-.06.13-.14.15-.22.01-.08-.01-.22-.08-.42l-.05-.15.35-.12.79,2.21-.35.12-.07-.2c-.05-.15-.1-.24-.14-.29-.04-.04-.09-.08-.15-.1-.06-.02-.13-.03-.21-.02-.03,0-.17.05-.42.14l-3.78,1.35c-.17.06-.28.12-.34.18-.06.06-.1.12-.11.19-.01.07.01.18.06.33l.08.23-.35.12Z"/>
      <path class="cls-1" d="M12.11,114.05c-.25.12-.42.23-.52.35-.1.11-.17.25-.2.42-.03.16-.02.33.03.51.05.18.14.33.25.47.12.13.26.23.42.3.16.07.37.1.64.1l-.62-2.14ZM13.66,113.01l.14-.33c.3.13.56.28.75.43.2.15.35.3.46.46.11.16.19.35.26.58.12.41.14.79.05,1.13-.1.39-.28.72-.54.99-.26.27-.6.46-1.03.59-.44.13-.85.15-1.21.07-.36-.08-.68-.25-.95-.5-.27-.26-.47-.59-.58-.99-.09-.3-.12-.58-.09-.83.03-.25.12-.48.26-.69.14-.21.33-.39.55-.53.13-.08.31-.16.54-.23l.87,2.98c.14-.03.25-.06.31-.08.36-.1.65-.26.9-.46.24-.2.4-.43.47-.67.07-.24.07-.49,0-.75-.06-.22-.18-.42-.34-.59-.16-.18-.43-.37-.82-.57"/>
      <path class="cls-1" d="M9.7,109.95l-.07-.3,1.22-.69.22.35c-.31.24-.54.52-.67.84-.13.33-.17.63-.1.92.05.22.15.38.29.5.14.11.28.15.42.12.13-.03.23-.11.3-.23.07-.12.13-.36.17-.73l.1-.9c.06-.51.16-.87.31-1.09.16-.21.36-.35.6-.41.21-.05.42-.03.65.05.22.08.42.22.59.43.17.21.29.47.36.78.11.48.07.92-.12,1.33l.33.02.07.3-1.27.86-.25-.35c.35-.36.58-.67.7-.94.17-.38.2-.76.12-1.13-.06-.25-.18-.44-.35-.57-.17-.13-.34-.17-.5-.13-.13.03-.25.11-.33.24-.08.13-.14.35-.18.67l-.12,1.07c-.05.46-.15.8-.29,1.01-.14.21-.33.34-.57.4-.29.07-.57,0-.86-.22-.28-.22-.48-.53-.58-.95-.05-.22-.07-.42-.05-.6.01-.18.07-.37.16-.57l-.28-.06Z"/>
      <path class="cls-1" d="M10.09,106.53l1.49-.27c.19-.03.34-.07.43-.11.14-.06.26-.15.36-.27.1-.12.18-.27.23-.46.05-.19.06-.37.03-.56-.07-.38-.27-.67-.6-.9-.33-.22-.79-.28-1.36-.18-.54.1-.93.28-1.18.57-.25.28-.35.58-.29.89.04.2.13.41.28.63.15.22.36.44.62.67M9.91,108.07l-.36.07c-.04-.22-.1-.4-.19-.56-.08-.16-.21-.32-.38-.5l-.06-.34.72-.13c-.35-.31-.6-.58-.74-.8-.14-.22-.23-.45-.28-.69-.09-.49.03-.95.35-1.37.32-.42.8-.68,1.42-.79.69-.12,1.28-.03,1.79.29.47.29.75.72.86,1.28.05.28.05.56-.01.83-.04.19-.14.42-.29.69l1.42-.26c.21-.04.34-.07.37-.09.05-.02.09-.06.12-.11.03-.05.04-.11.04-.18,0-.05-.03-.22-.08-.5l.36-.07.4,2.23-.36.07-.03-.2c-.04-.2-.08-.33-.12-.38-.04-.05-.1-.09-.16-.11-.05,0-.21,0-.46.05l-4.49.81.13.74Z"/>
      <path class="cls-1" d="M8.35,100.31c.04.33.21.6.5.79.36.25.85.34,1.47.26.6-.07,1.04-.25,1.33-.54.25-.26.35-.58.31-.96-.03-.25-.12-.46-.28-.64-.15-.18-.38-.31-.68-.39-.3-.08-.64-.1-1.03-.05-.38.05-.71.15-.99.32-.23.13-.39.3-.5.52-.11.22-.15.45-.12.7M7.92,100.33c-.05-.43,0-.81.13-1.14.14-.34.37-.61.68-.84.32-.22.69-.36,1.13-.41.44-.05.84,0,1.2.13.36.14.65.36.87.66.22.3.36.67.41,1.11.09.7-.07,1.26-.46,1.67-.4.41-.89.65-1.48.72-.43.05-.83,0-1.19-.13-.36-.14-.65-.37-.88-.67-.22-.31-.36-.67-.42-1.09"/>
      <path class="cls-1" d="M8.3,97.3l-.36.02c-.05-.26-.09-.45-.14-.58-.05-.13-.15-.3-.3-.54l-.02-.32.83-.05c-.35-.36-.59-.68-.72-.95-.13-.27-.21-.54-.23-.82-.01-.24.01-.45.08-.64.07-.19.17-.35.3-.47.13-.12.28-.21.45-.26.11-.03.27-.05.49-.07l1.93-.12c.23-.02.38-.04.44-.08.06-.04.11-.09.13-.17.03-.08.03-.26,0-.54l.37-.02.15,2.25-.37.02v-.12c-.02-.21-.05-.35-.09-.43-.04-.07-.1-.12-.18-.15-.07-.03-.23-.04-.45-.02l-1.61.1c-.33.02-.56.06-.69.13-.12.06-.22.16-.3.3-.07.14-.1.3-.09.5.02.24.09.49.23.75.14.26.33.51.59.75l2.02-.13c.23-.01.38-.04.45-.08s.13-.1.16-.17c.03-.05.03-.2.02-.42v-.13s.36-.02.36-.02l.15,2.26-.37.02v-.11c-.02-.22-.05-.36-.09-.44-.04-.08-.11-.13-.21-.15-.05-.02-.21-.01-.48,0l-2.5.16.05.74Z"/>
      <path class="cls-1" d="M7.3,88.3v-.31s1.34-.41,1.34-.41l.14.39c-.36.16-.64.39-.85.67s-.31.58-.3.87c0,.23.06.41.17.55.11.14.24.21.38.21.13,0,.25-.05.35-.16.1-.1.21-.33.33-.67l.29-.86c.17-.48.35-.82.55-.99.2-.17.42-.26.68-.27.21,0,.42.06.62.19.2.13.36.31.48.56.12.24.18.52.18.84,0,.49-.13.92-.41,1.27l.32.09v.31s-1.43.56-1.43.56l-.16-.39c.42-.27.72-.53.89-.76.25-.33.37-.69.36-1.08,0-.26-.07-.47-.21-.63-.14-.16-.29-.24-.46-.24-.14,0-.26.05-.38.16-.11.11-.22.31-.32.61l-.36,1.02c-.15.44-.33.74-.51.91-.19.17-.4.26-.65.26-.29,0-.56-.13-.79-.41-.23-.27-.35-.63-.35-1.05,0-.22.02-.42.08-.6.06-.18.15-.35.28-.52l-.27-.12Z"/>
      <path class="cls-1" d="M7.94,86.56h-.36c-.02-.26-.06-.46-.1-.63-.05-.17-.12-.36-.23-.57v-.32s3.53.11,3.53.11c.12,0,.22-.01.28-.04.06-.03.11-.08.14-.14.03-.06.05-.18.05-.34v-.21s.38.01.38.01l-.07,2.25h-.37s0-.19,0-.19c0-.2,0-.33-.04-.4-.03-.07-.08-.12-.14-.15-.06-.03-.22-.05-.45-.06l-2.59-.08-.02.76ZM5.26,85.36c0-.14.06-.26.16-.36.1-.1.22-.14.36-.14.14,0,.26.06.36.16.1.1.14.22.14.36,0,.14-.06.26-.16.36-.1.1-.22.14-.36.14-.14,0-.26-.06-.35-.16-.1-.1-.14-.22-.13-.36"/>
      <path class="cls-1" d="M8.4,82.34l1.69.13c.27.02.46.02.56-.02.11-.03.23-.1.35-.21.12-.11.22-.24.3-.4.08-.16.12-.32.14-.49.02-.26-.03-.5-.15-.72-.12-.22-.31-.41-.57-.55-.26-.14-.58-.23-.95-.26-.53-.04-.96.06-1.3.29-.28.19-.43.47-.46.84-.01.19,0,.39.06.59.06.2.17.46.34.78M5.92,83.65l-.36-.03c0-.19-.02-.38-.06-.57-.04-.18-.11-.39-.22-.62l.02-.32,2.67.2c-.17-.27-.3-.55-.37-.83-.08-.28-.1-.56-.08-.84.03-.33.14-.62.33-.89.2-.26.46-.46.79-.6.33-.13.72-.19,1.15-.15.68.05,1.23.29,1.64.73.38.4.55.89.51,1.46-.03.34-.12.64-.28.9-.12.19-.3.37-.53.54l.58.29-.03.41-5.7-.43-.06.76Z"/>
      <path class="cls-1" d="M6.4,77.86l-.36-.04c.02-.4-.06-.8-.23-1.2l.04-.32,5.37.65c.23.03.37.03.43,0,.09-.03.15-.08.2-.14.05-.07.08-.21.11-.41l.02-.14.37.04-.27,2.25-.37-.04.03-.23c.02-.14,0-.25-.03-.33-.04-.08-.09-.13-.16-.17-.07-.04-.22-.07-.45-.1l-4.61-.56-.09.75Z"/>
      <path class="cls-1" d="M10.02,72.27c-.27,0-.48.03-.62.09-.14.06-.26.16-.36.29-.1.13-.16.29-.19.47-.03.18-.02.36.03.53.05.17.13.32.25.45.12.13.3.25.54.37l.35-2.2ZM11.86,72l.27-.24c.22.25.38.49.5.71.12.22.19.43.22.61.03.19.03.4-.01.63-.07.43-.21.77-.43,1.04-.25.31-.56.53-.91.66-.35.13-.74.16-1.18.09-.46-.07-.83-.22-1.13-.45-.3-.23-.51-.52-.65-.86-.14-.35-.17-.73-.1-1.14.05-.31.14-.57.27-.78.13-.21.31-.38.53-.51.22-.13.46-.21.72-.24.15-.02.35-.01.58.02l-.49,3.07c.14.03.25.05.32.06.36.06.7.05,1.01-.03.31-.08.54-.22.71-.4.17-.19.27-.42.32-.68.04-.22.02-.45-.05-.68-.07-.23-.24-.52-.5-.87"/>
    </g>
    <g>
      <path class="cls-1" d="M58.69,34.15h1.88l2.79,4.6v-3.5c0-.21-.02-.36-.06-.45-.04-.09-.1-.16-.18-.21-.08-.05-.2-.07-.36-.07h-.16v-.37h2.05v.37h-.11c-.18,0-.3.02-.37.04-.09.04-.16.12-.2.23-.05.11-.07.26-.07.46v5.03h-.53l-3.36-5.52v4.38c0,.24,0,.39.02.44.02.07.06.13.11.19.05.05.12.09.19.11.07.02.22.03.44.04v.37h-2.07v-.37h.11c.21,0,.35-.02.43-.06.07-.04.13-.11.17-.21.04-.1.06-.27.06-.51v-3.88c0-.25,0-.39-.02-.45-.03-.1-.08-.17-.15-.22-.07-.04-.22-.07-.45-.07h-.16v-.37Z"/>
      <path class="cls-1" d="M67.47,36.36c-.33,0-.62.13-.85.4-.29.33-.44.81-.44,1.43s.12,1.06.37,1.38c.22.28.53.42.92.42.25,0,.47-.07.67-.2.19-.13.35-.34.47-.63.12-.29.18-.63.18-1.02s-.07-.72-.19-1.02c-.1-.24-.25-.43-.45-.56-.2-.13-.43-.2-.68-.2M67.5,35.93c.43,0,.8.09,1.12.27.31.18.56.44.74.78.18.34.27.73.27,1.17s-.09.83-.28,1.17c-.19.34-.44.6-.76.78-.32.18-.7.27-1.15.27-.71,0-1.24-.22-1.6-.66-.36-.44-.53-.96-.53-1.56,0-.44.09-.82.28-1.16.18-.34.44-.6.78-.79.33-.19.71-.28,1.13-.28"/>
      <path class="cls-1" d="M77.09,39.05l.28.23c-.55.74-1.21,1.1-1.98,1.1-.6,0-1.11-.21-1.52-.64-.41-.43-.62-.96-.62-1.59,0-.42.1-.81.29-1.15.19-.34.46-.6.8-.79.34-.19.73-.28,1.18-.28.5,0,.92.12,1.26.37.34.25.51.5.51.75,0,.13-.04.24-.12.31-.08.07-.17.11-.27.11-.05,0-.1-.01-.15-.04-.05-.03-.1-.07-.15-.13-.02-.03-.07-.11-.13-.25-.08-.17-.14-.28-.18-.34-.09-.12-.2-.21-.34-.28-.13-.07-.28-.1-.45-.1-.25,0-.48.07-.69.21s-.38.34-.51.61c-.12.27-.19.59-.19.96,0,.58.15,1.04.46,1.38.27.29.58.44.95.44.17,0,.34-.03.52-.09.18-.06.34-.14.49-.25.11-.08.3-.26.56-.54"/>
      <path class="cls-1" d="M80.07,36.36c-.33,0-.62.13-.85.4-.29.33-.44.81-.44,1.43s.12,1.06.37,1.38c.22.28.53.42.92.42.25,0,.47-.07.67-.2.19-.13.35-.34.47-.63.12-.29.18-.63.18-1.02s-.07-.72-.19-1.02c-.1-.24-.25-.43-.45-.56-.2-.13-.43-.2-.68-.2M80.1,35.93c.43,0,.8.09,1.12.27.31.18.56.44.74.78.18.34.27.73.27,1.17s-.09.83-.28,1.17c-.19.34-.44.6-.76.78-.32.18-.7.27-1.15.27-.71,0-1.24-.22-1.6-.66-.36-.44-.53-.96-.53-1.56,0-.44.09-.82.28-1.16.18-.34.44-.6.78-.79.33-.19.71-.28,1.13-.28"/>
      <path class="cls-1" d="M84.37,37.12v1.51c0,.2.01.35.04.44.04.15.1.28.2.41.1.12.24.22.41.31.17.08.36.13.55.13.38,0,.71-.14.99-.43.28-.29.42-.72.42-1.3,0-.54-.12-.97-.35-1.26-.23-.3-.5-.45-.82-.45-.2,0-.43.05-.67.16-.24.11-.5.27-.77.49M82.88,36.66v-.36c.22,0,.41-.03.58-.08.17-.05.35-.15.56-.29h.35v.73c.37-.29.67-.48.91-.58.24-.1.49-.15.73-.15.5,0,.93.2,1.28.59.35.39.53.9.53,1.53,0,.7-.2,1.27-.6,1.71-.37.41-.84.61-1.42.61-.29,0-.56-.05-.81-.16-.18-.08-.39-.21-.63-.41v1.45c0,.22,0,.34.02.38.01.05.04.1.09.14.04.04.1.06.17.07.05,0,.22.01.5.01v.37h-2.26v-.37h.2c.2,0,.33-.02.39-.05.06-.03.11-.08.13-.14.02-.05.03-.2.03-.46v-4.56h-.75Z"/>
      <path class="cls-1" d="M88.13,36.04h2.13v.37h-.18c-.17,0-.27,0-.3.01-.04.01-.07.04-.1.07s-.04.08-.04.14c0,.08.04.21.12.4l1.02,2.4.94-2.29c.11-.27.17-.45.17-.54,0-.07-.02-.12-.07-.15s-.16-.05-.34-.05h-.21v-.37h1.79v.37h-.11c-.18,0-.29.01-.34.04-.05.02-.1.07-.15.14-.05.07-.13.23-.24.49l-1.61,3.76c-.12.27-.25.52-.39.75-.14.23-.32.41-.54.53-.22.13-.46.19-.72.19-.3,0-.54-.07-.73-.21-.16-.12-.23-.26-.23-.44,0-.11.03-.2.1-.27.07-.07.15-.11.24-.11.07,0,.14.01.2.04.04.01.12.08.24.18.15.13.25.21.31.24.06.03.12.05.18.05.12,0,.24-.04.36-.12.12-.08.22-.2.3-.35.12-.21.21-.41.29-.6l.18-.43-1.45-3.25c-.1-.23-.19-.38-.26-.46-.07-.08-.14-.13-.21-.15-.04-.01-.16-.02-.36-.02v-.37Z"/>
      <path class="cls-1" d="M93.36,36.66v-.36c.21-.02.4-.05.57-.11.17-.05.36-.14.57-.26h.33v.83c.21-.26.45-.46.73-.61.27-.15.52-.22.74-.22s.39.05.51.15c.13.1.19.23.19.37,0,.11-.04.2-.13.28-.08.08-.18.12-.3.12-.05,0-.1,0-.14-.02-.04-.01-.09-.05-.17-.1-.16-.11-.3-.16-.4-.16-.15,0-.31.06-.48.18-.22.16-.4.31-.52.47v2.03c0,.18,0,.29.03.36.02.06.05.12.1.16.04.05.1.08.16.1.07.02.18.03.34.03h.15v.37h-2.27v-.37h.19c.18,0,.29-.02.35-.05.08-.04.13-.1.17-.18.04-.08.05-.22.05-.42v-2.59h-.76Z"/>
      <path class="cls-1" d="M98.41,33.95c.14,0,.26.05.36.15.1.1.15.22.15.36s-.05.26-.15.36c-.1.1-.22.15-.36.15s-.26-.05-.36-.15c-.1-.1-.15-.22-.15-.36s.05-.26.15-.36c.1-.1.22-.15.36-.15M97.29,36.66v-.36c.24-.03.45-.07.61-.12.17-.05.35-.14.57-.25h.32v3.52c0,.12.02.22.05.28.04.06.08.11.15.13.06.03.18.04.35.04h.21v.37h-2.25v-.37h.18c.2,0,.33-.02.4-.05.07-.03.11-.08.14-.15.03-.06.04-.21.04-.45v-2.59h-.76Z"/>
      <path class="cls-1" d="M102.09,36.34c-.29,0-.53.1-.73.31-.2.21-.3.46-.3.77,0,.21.05.39.14.56.09.16.22.29.38.39.16.1.34.14.52.14s.35-.05.52-.14c.17-.1.29-.23.38-.39.09-.16.13-.35.13-.55,0-.32-.1-.58-.29-.78-.2-.2-.45-.3-.76-.3M101.39,40.15c-.28.24-.47.43-.56.58-.09.15-.14.29-.14.43,0,.12.05.23.14.34.09.11.25.2.47.27.22.07.5.11.84.11.4,0,.74-.04,1.03-.13.29-.09.49-.2.61-.33.09-.11.14-.23.14-.37,0-.12-.04-.23-.11-.31-.07-.09-.21-.16-.42-.22-.21-.06-.4-.11-.58-.14l-1.42-.22ZM103.42,36.38c.13-.15.27-.27.4-.34.14-.07.26-.11.38-.11.1,0,.19.03.27.09.07.06.11.14.11.23s-.03.17-.1.24c-.07.06-.15.1-.25.1-.04,0-.1,0-.17-.02-.08-.02-.15-.03-.21-.03-.07,0-.15.03-.23.1.18.22.27.48.27.77,0,.4-.17.76-.51,1.05-.34.3-.77.44-1.29.44-.29,0-.58-.06-.87-.18-.19.14-.3.22-.33.26-.04.05-.06.1-.06.16,0,.09.04.16.13.21.11.07.33.14.66.18l1.27.19c.28.04.56.12.85.22.29.1.49.23.62.4.13.16.19.36.19.59,0,.39-.18.7-.54.93-.46.3-1.13.44-2.02.44-.47,0-.85-.05-1.14-.15-.29-.1-.52-.24-.68-.42-.12-.13-.18-.27-.18-.41,0-.18.06-.36.18-.53.12-.17.39-.42.82-.74-.28-.07-.48-.15-.6-.25-.15-.12-.23-.26-.23-.41,0-.08.01-.15.04-.21.03-.07.07-.13.14-.2.06-.07.18-.16.35-.27.11-.07.18-.13.22-.16-.21-.15-.38-.32-.48-.51-.11-.19-.16-.39-.16-.62,0-.37.14-.7.43-.97.35-.34.82-.51,1.41-.51.26,0,.49.03.69.1.2.07.4.18.61.35"/>
      <path class="cls-1" d="M104.88,34.58v-.38c.28-.04.5-.08.66-.13.16-.05.32-.13.5-.23h.34v2.9c.33-.28.65-.48.94-.61.3-.13.58-.19.85-.19.39,0,.72.12.97.35.25.23.38.52.38.86v2.16c0,.21.02.35.05.42.04.07.09.11.17.15.08.03.26.05.53.05v.37h-2.27v-.37h.17c.21,0,.35-.02.42-.05.07-.03.12-.09.15-.17.03-.08.05-.24.05-.48v-1.5c0-.33-.01-.55-.04-.65-.04-.17-.14-.31-.27-.41-.14-.1-.31-.15-.53-.15-.24,0-.49.06-.75.18-.26.12-.53.3-.82.53v2.2c0,.16.01.27.04.33.03.06.08.1.14.12.07.03.2.04.4.04h.18v.37h-2.28v-.37h.14c.21,0,.37-.03.47-.08.05-.03.09-.08.11-.15.02-.08.04-.29.04-.63v-4.47h-.75Z"/>
      <path class="cls-1" d="M111.98,34.54h.31v1.49h1.31v.44h-1.31v2.65c0,.23.02.39.06.48.04.1.11.18.2.24.1.06.2.09.32.09.28,0,.58-.12.92-.37v.43c-.38.26-.77.39-1.17.39-.22,0-.42-.05-.6-.15-.18-.1-.3-.22-.37-.35-.07-.13-.1-.37-.1-.7v-2.7h-.77v-.37c.25-.05.45-.14.6-.26.15-.12.27-.27.37-.46.09-.19.17-.47.23-.85"/>
      <path class="cls-1" d="M67.39,46.83h2.01v.37h-.12c-.17,0-.27,0-.31.02-.06.02-.1.04-.13.08-.03.04-.04.08-.04.14,0,.07.03.19.1.36l1.01,2.5.97-2.5c.06-.16.09-.28.09-.35s-.03-.14-.09-.18c-.06-.04-.16-.06-.32-.06h-.21v-.37h1.74v.37c-.12,0-.22.02-.3.06-.08.04-.14.08-.19.14-.05.06-.11.19-.21.4l-1.4,3.28h-.53l-1.41-3.35c-.06-.14-.12-.25-.19-.34-.05-.05-.11-.1-.19-.13-.08-.03-.17-.05-.27-.05v-.37Z"/>
      <path class="cls-1" d="M73.48,44.75c.14,0,.26.05.36.15.1.1.15.22.15.36s-.05.26-.15.36c-.1.1-.22.15-.36.15s-.26-.05-.36-.15c-.1-.1-.15-.22-.15-.36s.05-.26.15-.36c.1-.1.22-.15.36-.15M72.36,47.46v-.36c.24-.03.45-.07.61-.12.17-.05.35-.14.57-.25h.32v3.52c0,.12.02.22.05.28.04.06.08.11.15.13.06.03.18.04.35.04h.21v.37h-2.25v-.37h.18c.2,0,.33-.02.4-.05.07-.03.11-.08.14-.15.03-.06.04-.21.04-.45v-2.59h-.76Z"/>
      <path class="cls-1" d="M77.28,47.16c-.33,0-.62.13-.85.4-.29.33-.44.8-.44,1.43s.12,1.06.37,1.38c.22.28.53.42.92.42.25,0,.47-.07.67-.2.19-.13.35-.34.47-.63s.18-.63.18-1.02-.07-.72-.19-1.02c-.1-.24-.25-.43-.45-.56-.2-.13-.43-.2-.68-.2M77.31,46.73c.43,0,.8.09,1.12.27.31.18.56.44.74.78.18.34.27.73.27,1.17s-.09.83-.28,1.17c-.19.34-.44.6-.76.78-.32.18-.7.27-1.15.27-.71,0-1.24-.22-1.6-.66-.36-.44-.53-.96-.53-1.56,0-.44.09-.82.28-1.16.18-.34.44-.6.78-.79.33-.19.71-.28,1.13-.28"/>
      <path class="cls-1" d="M80.09,45.36v-.36c.4-.03.79-.15,1.16-.37h.32v5.41c0,.23.01.37.04.43.04.08.09.14.17.18.07.04.21.06.42.06h.14v.37h-2.26v-.37h.23c.14,0,.25-.02.32-.07.07-.04.12-.1.15-.18.03-.08.04-.23.04-.45v-4.65h-.75Z"/>
      <path class="cls-1" d="M85.99,48.91c-.68.1-1.1.17-1.26.21-.32.07-.55.15-.69.24-.14.09-.24.18-.29.28-.06.1-.09.21-.09.32s.03.23.1.33c.06.11.16.19.28.25.12.06.25.09.38.09.19,0,.41-.05.65-.14.24-.09.55-.27.92-.53v-1.06ZM86,48.53v-.48c0-.33-.09-.56-.27-.7-.18-.14-.44-.21-.77-.21-.16,0-.31.02-.43.06-.12.04-.22.09-.3.16-.08.07-.13.15-.17.24-.01.03-.05.16-.11.37-.07.26-.2.4-.41.4-.12,0-.21-.04-.28-.12-.07-.08-.11-.18-.11-.31,0-.19.07-.38.21-.57.14-.19.36-.34.66-.46.29-.12.64-.18,1.04-.18.38,0,.7.06.96.17.27.12.46.28.59.5.09.15.13.42.13.82v1.69c0,.24,0,.4.02.47.03.13.09.22.17.28.08.06.18.1.31.1s.3-.03.48-.09v.38c-.24.07-.46.1-.65.1-.21,0-.38-.03-.53-.09-.14-.06-.26-.14-.35-.26-.09-.11-.15-.25-.18-.4-.35.28-.67.47-.95.58s-.57.17-.86.17c-.4,0-.73-.11-.99-.33-.25-.22-.38-.48-.38-.77,0-.18.05-.35.14-.51.09-.16.23-.3.42-.43.19-.12.49-.23.89-.33.4-.09.97-.18,1.69-.26"/>
      <path class="cls-1" d="M89.21,45.34h.31v1.49h1.3v.44h-1.3v2.65c0,.23.02.39.06.48.04.1.11.18.2.24.1.06.2.09.32.09.28,0,.59-.12.92-.37v.43c-.38.26-.77.39-1.17.39-.22,0-.43-.05-.6-.15-.18-.1-.3-.22-.37-.35-.07-.13-.1-.37-.1-.7v-2.7h-.77v-.37c.25-.05.45-.14.6-.26.15-.12.27-.27.37-.46.09-.19.17-.47.23-.85"/>
      <path class="cls-1" d="M92.55,44.75c.14,0,.26.05.36.15.1.1.15.22.15.36s-.05.26-.15.36c-.1.1-.22.15-.36.15s-.26-.05-.36-.15c-.1-.1-.15-.22-.15-.36s.05-.26.15-.36c.1-.1.22-.15.36-.15M91.44,47.46v-.36c.24-.03.45-.07.61-.12.17-.05.35-.14.57-.25h.32v3.52c0,.12.02.22.05.28.04.06.08.11.15.13.06.03.18.04.35.04h.21v.37h-2.25v-.37h.18c.2,0,.33-.02.4-.05.07-.03.11-.08.14-.15.03-.06.04-.21.04-.45v-2.59h-.76Z"/>
      <path class="cls-1" d="M96.36,47.16c-.33,0-.62.13-.85.4-.29.33-.44.8-.44,1.43s.12,1.06.37,1.38c.22.28.53.42.92.42.25,0,.47-.07.67-.2.19-.13.35-.34.47-.63.12-.29.18-.63.18-1.02s-.07-.72-.19-1.02c-.1-.24-.25-.43-.45-.56-.2-.13-.43-.2-.68-.2M96.39,46.73c.43,0,.8.09,1.12.27.31.18.56.44.74.78.18.34.27.73.27,1.17s-.09.83-.28,1.17c-.19.34-.44.6-.76.78-.32.18-.7.27-1.15.27-.71,0-1.24-.22-1.6-.66s-.53-.96-.53-1.56c0-.44.09-.82.28-1.16.18-.34.44-.6.78-.79.33-.19.71-.28,1.13-.28"/>
      <path class="cls-1" d="M99.22,47.46v-.36c.26-.03.46-.06.58-.1.13-.04.31-.13.56-.26h.32v.83c.39-.33.72-.54.99-.66.27-.11.55-.17.83-.17.24,0,.45.04.64.12.18.08.33.19.45.33.12.14.19.29.23.47.02.11.03.27.03.49v1.93c0,.23.02.38.05.45.03.07.09.11.16.14.07.03.25.04.54.04v.37h-2.26v-.37h.12c.21,0,.35-.02.43-.06s.13-.09.16-.17c.03-.07.05-.22.05-.45v-1.62c0-.33-.03-.57-.08-.7-.05-.13-.15-.23-.28-.31-.13-.08-.3-.12-.5-.12-.24,0-.49.06-.76.18-.27.12-.53.3-.78.54v2.03c0,.23.02.38.05.46s.09.13.16.17c.05.03.19.04.42.04h.13v.37h-2.27v-.37h.11c.22,0,.37-.02.45-.05.08-.04.13-.1.17-.2.02-.05.03-.21.03-.48v-2.51h-.75Z"/>
      <path class="cls-1" d="M116.32,67.11h.32l.47,1.89-.41.12c-.26-.53-.6-.95-1.03-1.25-.35-.26-.74-.38-1.17-.38-.26,0-.49.05-.69.14-.21.09-.36.21-.46.36-.1.15-.15.29-.15.45,0,.14.04.27.12.4.08.13.2.24.36.34.16.1.43.2.79.31l1.15.34c.14.04.34.12.61.24.27.12.48.24.63.37.15.13.27.29.35.48.08.19.13.39.13.61,0,.49-.21.91-.64,1.28-.43.36-.98.55-1.65.55-.35,0-.66-.05-.94-.15-.28-.1-.57-.28-.89-.54l-.2.58h-.31l-.41-2.2.41-.08c.15.41.35.75.6,1.04.25.29.52.5.82.64.3.15.6.22.92.22.42,0,.79-.13,1.11-.38.26-.21.4-.46.4-.76,0-.27-.1-.48-.29-.65-.19-.17-.54-.33-1.04-.48l-1.1-.32c-.62-.18-1.05-.41-1.3-.69-.25-.28-.38-.6-.38-.96,0-.28.08-.54.25-.78.16-.24.42-.44.76-.6s.71-.24,1.12-.24c.34,0,.67.06.98.17.22.08.42.2.61.35l.19-.42Z"/>
      <path class="cls-1" d="M118.03,67.54v-.38c.28-.04.5-.08.66-.13.16-.05.32-.13.5-.23h.34v2.9c.33-.28.65-.48.94-.61.3-.13.58-.19.85-.19.39,0,.72.12.97.35.25.23.38.52.38.86v2.16c0,.21.02.35.05.42.03.07.09.11.17.15.08.03.26.05.53.05v.37h-2.27v-.37h.17c.21,0,.35-.02.42-.05.07-.03.12-.09.15-.17.03-.08.05-.24.05-.48v-1.5c0-.33-.01-.55-.04-.65-.04-.17-.14-.31-.27-.41-.14-.1-.31-.15-.53-.15-.24,0-.49.06-.75.18-.26.12-.53.3-.82.53v2.2c0,.16.01.27.04.33.03.06.08.1.14.12.07.03.2.04.4.04h.18v.37h-2.28v-.37h.14c.21,0,.37-.03.47-.08.05-.03.09-.08.11-.15.02-.08.04-.29.04-.63v-4.47h-.75Z"/>
      <path class="cls-1" d="M127.13,71.08c-.68.1-1.1.17-1.26.21-.32.07-.55.15-.69.24-.14.09-.24.18-.29.28-.06.1-.09.21-.09.32s.03.23.1.33c.06.11.16.19.28.25.12.06.25.09.38.09.19,0,.41-.05.65-.14.24-.09.55-.27.92-.53v-1.06ZM127.13,70.7v-.48c0-.33-.09-.56-.27-.7-.18-.14-.44-.21-.77-.21-.16,0-.31.02-.43.06-.12.04-.22.09-.3.16-.08.07-.13.15-.17.24-.01.03-.05.16-.11.37-.07.26-.2.4-.41.4-.12,0-.21-.04-.28-.12-.07-.08-.11-.18-.11-.31,0-.19.07-.38.21-.57.14-.19.36-.34.66-.46.29-.12.64-.18,1.04-.18.37,0,.7.06.96.17.27.12.46.28.59.5.09.15.13.42.13.82v1.69c0,.24,0,.4.02.47.03.13.09.22.17.28.08.06.18.1.31.1s.3-.03.48-.09v.38c-.24.07-.46.1-.65.1-.21,0-.38-.03-.53-.09-.14-.06-.26-.14-.35-.26-.09-.11-.15-.25-.18-.4-.35.28-.67.47-.95.58s-.57.17-.86.17c-.4,0-.73-.11-.99-.33-.25-.22-.38-.48-.38-.77,0-.18.05-.35.14-.51.09-.16.23-.3.42-.43.19-.12.49-.23.89-.33.4-.09.97-.18,1.69-.26"/>
      <path class="cls-1" d="M129.19,69.63v-.36c.21-.02.4-.05.57-.11.17-.05.36-.14.57-.26h.33v.83c.21-.26.45-.46.72-.61.28-.15.52-.22.74-.22s.39.05.51.15c.13.1.19.23.19.37,0,.11-.04.2-.12.28-.08.08-.18.12-.3.12-.05,0-.1,0-.14-.02-.04-.01-.09-.05-.17-.1-.16-.11-.3-.16-.4-.16-.15,0-.31.06-.49.18-.22.16-.4.31-.52.47v2.03c0,.18,0,.29.03.36.02.06.05.12.1.16.04.05.1.08.16.1.06.02.18.03.34.03h.15v.37h-2.27v-.37h.19c.18,0,.29-.02.35-.05.08-.04.13-.1.17-.18.04-.08.05-.22.05-.42v-2.59h-.76Z"/>
      <path class="cls-1" d="M136.35,70.33c-.04-.27-.11-.47-.19-.6-.08-.13-.19-.23-.34-.31-.15-.08-.31-.11-.5-.11s-.36.04-.52.11c-.16.08-.29.18-.4.32-.11.14-.2.33-.28.59h2.23ZM136.91,72.11l.28.23c-.21.25-.42.46-.62.61-.2.15-.39.25-.57.31-.18.06-.39.09-.63.09-.43,0-.8-.09-1.1-.26-.35-.2-.61-.47-.8-.79-.18-.33-.28-.71-.28-1.15s.09-.86.27-1.19c.18-.33.43-.59.75-.78.32-.19.69-.28,1.11-.28.31,0,.59.05.82.15.23.1.43.24.59.44.16.2.28.42.35.68.04.15.06.34.07.58h-3.11c0,.14-.01.25-.01.32,0,.37.06.7.19.99.13.29.3.5.51.64.21.14.45.21.72.21.23,0,.45-.05.66-.16.21-.11.47-.32.78-.63"/>
      <path class="cls-1" d="M141.87,67.5h.31v1.49h1.3v.44h-1.3v2.65c0,.23.02.39.06.48.04.1.11.18.2.24.1.06.2.09.32.09.28,0,.59-.12.92-.37v.43c-.38.26-.78.39-1.17.39-.22,0-.42-.05-.6-.15-.18-.1-.3-.22-.37-.35-.07-.13-.1-.37-.1-.7v-2.7h-.77v-.37c.25-.05.45-.14.6-.26.15-.12.27-.27.37-.46.09-.19.17-.47.23-.85"/>
      <path class="cls-1" d="M144.13,67.54v-.38c.28-.04.5-.08.66-.13.16-.05.32-.13.5-.23h.34v2.9c.33-.28.65-.48.94-.61.3-.13.58-.19.85-.19.39,0,.72.12.97.35.25.23.38.52.38.86v2.16c0,.21.02.35.05.42.03.07.09.11.17.15.08.03.26.05.53.05v.37h-2.27v-.37h.17c.21,0,.35-.02.42-.05.07-.03.12-.09.15-.17.03-.08.05-.24.05-.48v-1.5c0-.33-.01-.55-.04-.65-.04-.17-.14-.31-.27-.41-.14-.1-.31-.15-.53-.15-.24,0-.49.06-.75.18-.26.12-.53.3-.82.53v2.2c0,.16.01.27.04.33.03.06.08.1.14.12.07.03.2.04.4.04h.18v.37h-2.28v-.37h.14c.21,0,.37-.03.47-.08.05-.03.09-.08.11-.15.02-.08.04-.29.04-.63v-4.47h-.75Z"/>
      <path class="cls-1" d="M153.27,70.33c-.04-.27-.11-.47-.19-.6-.08-.13-.19-.23-.34-.31-.15-.08-.31-.11-.5-.11s-.36.04-.52.11c-.16.08-.29.18-.4.32-.11.14-.2.33-.28.59h2.23ZM153.83,72.11l.28.23c-.21.25-.42.46-.62.61-.2.15-.39.25-.57.31-.18.06-.39.09-.63.09-.43,0-.8-.09-1.1-.26-.35-.2-.61-.47-.8-.79-.18-.33-.28-.71-.28-1.15s.09-.86.27-1.19c.18-.33.43-.59.75-.78.32-.19.69-.28,1.11-.28.31,0,.59.05.82.15.23.1.43.24.59.44.16.2.28.42.35.68.04.15.06.34.07.58h-3.11c0,.14-.01.25-.01.32,0,.37.06.7.19.99.13.29.3.5.51.64.21.14.45.21.72.21.23,0,.45-.05.66-.16.21-.11.47-.32.78-.63"/>
      <path class="cls-1" d="M116.91,81.13c-.04-.27-.11-.47-.19-.6-.08-.13-.19-.23-.34-.31-.15-.08-.31-.11-.5-.11s-.36.04-.52.11c-.16.08-.29.18-.4.32-.11.14-.2.33-.28.59h2.23ZM117.47,82.91l.28.23c-.21.25-.42.46-.62.61-.2.15-.39.25-.57.31-.18.06-.39.09-.63.09-.43,0-.8-.09-1.1-.26-.35-.2-.61-.47-.8-.79-.18-.33-.28-.71-.28-1.15s.09-.86.27-1.19c.18-.33.43-.59.75-.78.32-.19.69-.28,1.11-.28.31,0,.59.05.82.15.23.1.43.24.59.44.16.2.28.42.35.68.04.15.06.34.07.58h-3.11c0,.14-.01.25-.01.32,0,.37.06.7.19.99.13.29.3.5.51.64.21.14.45.21.72.21.23,0,.45-.05.66-.16.21-.11.47-.32.78-.63"/>
      <path class="cls-1" d="M118.23,79.8h2.21v.37h-.15c-.09,0-.17,0-.24.03-.04.01-.08.03-.11.07-.03.03-.04.07-.04.1,0,.07.06.17.17.3l.62.79.74-.79c.13-.15.2-.26.2-.33,0-.05-.02-.09-.07-.12-.05-.03-.15-.04-.3-.04h-.17v-.37h1.87v.37c-.18,0-.34.05-.48.11-.13.07-.29.2-.47.39l-1.01,1.04,1.25,1.43.05.06c.12.16.26.29.41.39.08.06.22.09.39.09v.36h-2.15v-.36h.18c.14,0,.23,0,.27-.03.06-.03.1-.08.1-.15,0-.07-.07-.18-.21-.36l-.8-.98-.89.98-.09.11-.05.05c-.07.08-.11.15-.11.21,0,.06.02.1.07.12.04.03.15.04.3.04h.18v.36h-1.85v-.36c.14,0,.26-.02.34-.05.08-.03.16-.07.24-.13.13-.11.23-.19.29-.25l1.29-1.32-1.1-1.26c-.14-.16-.25-.27-.33-.33-.08-.06-.16-.11-.24-.13-.08-.03-.18-.04-.32-.04v-.37Z"/>
      <path class="cls-1" d="M124.88,80.88v1.51c0,.2.01.35.03.44.04.15.1.28.2.41.1.12.24.22.41.31.17.08.35.13.55.13.38,0,.71-.14.99-.43.28-.29.42-.72.42-1.3,0-.54-.12-.97-.35-1.26-.23-.3-.51-.45-.82-.45-.2,0-.43.05-.67.16-.24.11-.5.27-.77.49M123.39,80.43v-.36c.22,0,.41-.03.58-.08.17-.05.36-.15.56-.29h.35v.73c.37-.29.67-.48.91-.58.24-.1.49-.15.73-.15.5,0,.93.2,1.28.59.35.39.53.9.53,1.53,0,.7-.2,1.27-.6,1.71-.37.41-.84.61-1.42.61-.29,0-.56-.05-.81-.16-.18-.08-.39-.21-.63-.41v1.45c0,.22,0,.34.02.38.01.05.04.1.09.14.04.04.1.06.17.07.05,0,.22.01.5.01v.37h-2.26v-.37h.2c.2,0,.33-.02.39-.05.06-.03.1-.08.13-.14.02-.05.03-.2.03-.46v-4.56h-.75Z"/>
      <path class="cls-1" d="M132.21,81.13c-.04-.27-.11-.47-.19-.6-.08-.13-.19-.23-.34-.31-.15-.08-.31-.11-.5-.11s-.36.04-.52.11c-.16.08-.29.18-.4.32-.11.14-.2.33-.28.59h2.23ZM132.78,82.91l.28.23c-.21.25-.42.46-.62.61-.2.15-.39.25-.57.31-.18.06-.39.09-.63.09-.43,0-.8-.09-1.1-.26-.35-.2-.61-.47-.8-.79-.18-.33-.28-.71-.28-1.15s.09-.86.27-1.19c.18-.33.43-.59.75-.78.32-.19.69-.28,1.11-.28.31,0,.59.05.82.15.23.1.43.24.59.44.16.2.28.42.35.68.04.15.06.34.07.58h-3.11c0,.14-.01.25-.01.32,0,.37.06.7.19.99.13.29.3.5.51.64.21.14.45.21.72.21.23,0,.45-.05.66-.16.21-.11.47-.32.78-.63"/>
      <path class="cls-1" d="M133.69,80.43v-.36c.21-.02.4-.05.57-.11.17-.05.36-.14.57-.26h.33v.83c.21-.26.45-.46.72-.61.28-.15.52-.22.74-.22s.39.05.51.15c.13.1.19.23.19.37,0,.11-.04.2-.12.28-.08.08-.18.12-.3.12-.05,0-.1,0-.14-.02-.04-.01-.09-.05-.17-.1-.16-.11-.3-.16-.4-.16-.15,0-.31.06-.49.18-.22.16-.4.31-.52.47v2.03c0,.18,0,.29.03.36.02.06.05.12.1.16.04.05.1.08.16.1.06.02.18.03.34.03h.15v.37h-2.27v-.37h.19c.18,0,.29-.02.35-.05.08-.04.13-.1.17-.18.04-.08.05-.22.05-.42v-2.59h-.76Z"/>
      <path class="cls-1" d="M138.81,78.3h.31v1.49h1.31v.44h-1.31v2.65c0,.23.02.39.06.48.04.1.11.18.2.24.1.06.2.09.32.09.28,0,.58-.12.92-.37v.43c-.38.26-.77.39-1.17.39-.22,0-.42-.05-.6-.15-.18-.1-.3-.22-.37-.35-.07-.13-.1-.37-.1-.7v-2.7h-.77v-.37c.25-.05.45-.14.6-.26.15-.12.27-.27.37-.46.09-.19.17-.47.23-.85"/>
      <path class="cls-1" d="M142.15,77.71c.14,0,.26.05.36.15.1.1.15.22.15.36s-.05.26-.15.36c-.1.1-.22.15-.36.15s-.26-.05-.36-.15c-.1-.1-.15-.22-.15-.36s.05-.26.15-.36c.1-.1.22-.15.36-.15M141.04,80.43v-.36c.24-.03.45-.07.61-.12.17-.05.35-.14.57-.25h.32v3.52c0,.12.02.22.05.28.04.06.08.11.15.13.06.03.18.04.35.04h.21v.37h-2.25v-.37h.18c.19,0,.33-.02.39-.05.07-.03.11-.08.14-.15.03-.06.04-.21.04-.45v-2.59h-.76Z"/>
      <path class="cls-1" d="M146.75,79.8h.31l.39,1.35-.4.13c-.16-.36-.38-.64-.66-.85-.29-.21-.58-.31-.87-.31-.23,0-.41.06-.55.16-.14.11-.21.24-.21.38,0,.14.05.25.15.35.1.1.32.21.67.34l.86.3c.48.17.81.36.99.55.17.2.26.42.26.68,0,.21-.06.42-.19.62-.13.2-.32.35-.56.47-.24.12-.52.18-.84.18-.49,0-.91-.14-1.27-.42l-.09.32h-.31l-.55-1.44.4-.16c.27.42.52.72.76.9.33.25.69.37,1.07.37.26,0,.47-.07.63-.2.16-.14.25-.29.25-.46,0-.14-.05-.26-.15-.38-.1-.11-.31-.22-.6-.33l-1.02-.37c-.44-.16-.74-.33-.91-.52-.17-.19-.25-.4-.25-.65,0-.3.14-.56.41-.78.28-.23.63-.34,1.06-.34.22,0,.42.03.6.09.18.06.35.15.52.28l.12-.27Z"/>
      <path class="cls-1" d="M151.65,81.13c-.04-.27-.11-.47-.19-.6-.08-.13-.19-.23-.34-.31-.15-.08-.31-.11-.5-.11s-.36.04-.52.11c-.16.08-.29.18-.4.32-.11.14-.2.33-.28.59h2.23ZM152.21,82.91l.28.23c-.21.25-.42.46-.62.61-.2.15-.39.25-.57.31-.18.06-.39.09-.63.09-.43,0-.8-.09-1.1-.26-.35-.2-.61-.47-.8-.79-.18-.33-.28-.71-.28-1.15s.09-.86.27-1.19c.18-.33.43-.59.75-.78.32-.19.69-.28,1.11-.28.31,0,.59.05.82.15.23.1.43.24.59.44.16.2.28.42.35.68.04.15.06.34.07.58h-3.11c0,.14-.01.25-.01.32,0,.37.06.7.19.99.13.29.3.5.51.64.21.14.45.21.72.21.23,0,.45-.05.66-.16.21-.11.47-.32.78-.63"/>
      <path class="cls-1" d="M123.16,107.49v2.31h1.26c.43,0,.73-.03.9-.08.25-.07.44-.2.58-.39.14-.19.21-.43.21-.72,0-.25-.05-.45-.15-.62-.1-.17-.24-.29-.42-.38-.18-.08-.44-.12-.79-.12h-1.59ZM121.57,107.01h3.16c.6,0,1.06.06,1.36.19.31.12.54.3.71.54.17.24.25.51.25.82s-.08.6-.24.85c-.16.25-.39.44-.7.59-.3.14-.71.22-1.21.22l1.62,1.98c.13.16.22.27.26.3.1.09.21.16.32.21.11.05.24.07.38.07h.11v.37h-1.4l-2.25-2.93h-.79v1.89c0,.21,0,.34.02.4.03.1.08.17.16.21.07.04.21.06.42.06h.16v.37h-2.35v-.37h.21c.16,0,.26-.01.32-.03.05-.02.1-.06.15-.11.04-.05.07-.12.09-.2,0-.03,0-.18.01-.44v-4.01c0-.18-.02-.31-.05-.38-.04-.08-.08-.13-.15-.17-.06-.03-.17-.05-.33-.05h-.25v-.37Z"/>
      <path class="cls-1" d="M131.14,110.24c-.04-.27-.11-.47-.19-.6-.08-.13-.19-.23-.34-.31-.15-.08-.31-.11-.5-.11s-.36.04-.52.11c-.16.08-.29.18-.4.32-.11.14-.2.33-.28.59h2.23ZM131.71,112.01l.28.23c-.21.25-.42.46-.62.61-.2.15-.39.25-.57.31-.18.06-.39.09-.63.09-.43,0-.8-.09-1.1-.26-.35-.2-.61-.47-.8-.79-.18-.33-.28-.71-.28-1.15s.09-.86.27-1.19c.18-.33.43-.59.75-.78.32-.19.69-.28,1.11-.28.31,0,.59.05.82.15.23.1.43.24.59.44.16.2.28.42.35.68.04.15.06.34.07.58h-3.11c0,.14-.01.25-.01.32,0,.37.06.7.19.99.13.29.3.5.51.64.21.14.45.21.72.21.23,0,.45-.05.66-.16.21-.11.47-.32.78-.63"/>
      <path class="cls-1" d="M135.6,108.9h.31l.39,1.35-.4.13c-.16-.36-.38-.64-.66-.85-.29-.21-.58-.31-.87-.31-.23,0-.41.06-.55.16-.14.11-.21.24-.21.38,0,.14.05.25.15.35.1.1.32.21.67.34l.86.3c.48.17.81.36.99.55.17.2.26.42.26.68,0,.21-.06.42-.19.62-.13.2-.32.35-.56.47-.24.12-.52.18-.84.18-.49,0-.91-.14-1.27-.42l-.09.32h-.31l-.55-1.44.4-.16c.27.42.52.72.76.9.33.25.69.37,1.07.37.26,0,.47-.07.63-.2.16-.14.25-.29.25-.46,0-.14-.05-.26-.15-.38-.1-.11-.31-.22-.6-.33l-1.02-.37c-.44-.16-.74-.33-.91-.52-.17-.19-.25-.4-.25-.65,0-.3.14-.56.41-.78.28-.23.63-.34,1.06-.34.22,0,.42.03.6.09.18.06.35.15.52.28l.12-.27Z"/>
      <path class="cls-1" d="M138.75,109.99v1.51c0,.2.01.35.03.44.04.15.1.28.21.41.1.12.24.22.41.31.17.08.35.13.55.13.38,0,.71-.14.99-.43.28-.29.42-.72.42-1.3,0-.54-.12-.97-.35-1.26-.23-.3-.51-.45-.82-.45-.2,0-.43.05-.67.16-.24.11-.5.27-.77.49M137.26,109.53v-.36c.22,0,.41-.03.58-.08.17-.05.36-.15.56-.29h.35v.73c.37-.29.67-.48.91-.58.24-.1.49-.15.73-.15.5,0,.93.2,1.28.59.35.39.53.9.53,1.53,0,.7-.2,1.27-.6,1.71-.37.41-.84.61-1.42.61-.29,0-.56-.05-.81-.16-.18-.08-.39-.21-.63-.41v1.45c0,.22,0,.34.02.38.01.05.04.1.09.14.04.04.1.06.17.07.05,0,.22.01.5.01v.37h-2.26v-.37h.2c.2,0,.33-.02.39-.05.06-.03.1-.08.13-.14.02-.05.03-.2.03-.46v-4.56h-.75Z"/>
      <path class="cls-1" d="M146.08,110.24c-.04-.27-.11-.47-.19-.6-.08-.13-.19-.23-.34-.31-.15-.08-.31-.11-.5-.11s-.36.04-.52.11c-.16.08-.29.18-.4.32-.11.14-.2.33-.28.59h2.23ZM146.65,112.01l.28.23c-.21.25-.42.46-.62.61-.2.15-.39.25-.57.31-.18.06-.39.09-.63.09-.43,0-.8-.09-1.1-.26-.35-.2-.61-.47-.8-.79-.18-.33-.28-.71-.28-1.15s.09-.86.27-1.19c.18-.33.43-.59.75-.78.32-.19.69-.28,1.11-.28.31,0,.59.05.82.15.23.1.43.24.59.44.16.2.28.42.35.68.04.15.06.34.07.58h-3.11c0,.14-.01.25-.01.32,0,.37.06.7.19.99.13.29.3.5.51.64.21.14.45.21.72.21.23,0,.45-.05.66-.16.21-.11.47-.32.78-.63"/>
      <path class="cls-1" d="M151.45,111.92l.28.23c-.55.74-1.21,1.1-1.98,1.1-.6,0-1.11-.21-1.52-.64-.41-.43-.62-.96-.62-1.59,0-.42.1-.81.29-1.15.19-.34.46-.6.8-.79.34-.19.73-.28,1.18-.28.5,0,.92.12,1.26.37.34.25.51.5.51.75,0,.14-.04.24-.12.31-.08.07-.17.11-.27.11-.05,0-.1-.01-.15-.04-.05-.03-.1-.07-.15-.13-.02-.03-.07-.11-.13-.25-.08-.17-.14-.28-.18-.34-.09-.12-.2-.21-.34-.28-.13-.07-.28-.1-.45-.1-.25,0-.48.07-.69.21-.21.14-.38.34-.51.61-.12.27-.19.59-.19.96,0,.58.15,1.04.46,1.38.27.29.58.44.95.44.17,0,.34-.03.52-.09.18-.06.34-.14.49-.25.11-.08.3-.26.56-.54"/>
      <path class="cls-1" d="M153.41,107.41h.31v1.49h1.31v.44h-1.31v2.65c0,.23.02.39.06.48.04.1.11.18.2.24.1.06.2.09.32.09.28,0,.58-.12.92-.37v.43c-.38.26-.77.39-1.17.39-.22,0-.42-.05-.6-.15-.18-.1-.3-.22-.37-.35-.07-.13-.1-.37-.1-.7v-2.7h-.77v-.37c.25-.05.45-.14.6-.26.15-.12.27-.27.37-.46.09-.19.17-.47.23-.85"/>
      <path class="cls-1" d="M124.17,120.79v1.51c0,.2.01.35.03.44.04.15.1.28.21.41.1.12.24.22.41.31.17.08.35.13.55.13.38,0,.71-.14.99-.43.28-.29.42-.72.42-1.3,0-.54-.12-.97-.35-1.26-.23-.3-.51-.45-.82-.45-.2,0-.43.05-.67.16-.24.11-.5.27-.77.49M122.68,120.33v-.36c.22,0,.41-.03.58-.08.17-.05.36-.15.56-.29h.35v.73c.37-.29.67-.48.91-.58.24-.1.49-.15.73-.15.5,0,.93.2,1.28.59.35.39.53.9.53,1.53,0,.7-.2,1.27-.6,1.71-.37.41-.84.61-1.42.61-.29,0-.56-.05-.81-.16-.18-.08-.39-.21-.63-.41v1.45c0,.22,0,.34.02.38.01.05.04.1.09.14.04.04.1.06.17.07.05,0,.22.01.5.01v.37h-2.26v-.37h.2c.2,0,.33-.02.39-.05.06-.03.1-.08.13-.14.02-.05.03-.2.03-.46v-4.56h-.75Z"/>
      <path class="cls-1" d="M128.3,120.33v-.36c.21-.02.4-.05.57-.11.17-.05.36-.14.57-.26h.33v.83c.21-.26.45-.46.72-.61.28-.15.52-.22.74-.22s.39.05.51.15c.13.1.19.23.19.37,0,.11-.04.2-.12.28-.08.08-.18.12-.3.12-.05,0-.1,0-.14-.02-.04-.01-.09-.05-.17-.1-.16-.11-.3-.16-.4-.16-.15,0-.31.06-.49.18-.22.16-.4.31-.52.47v2.03c0,.18,0,.29.03.36.02.06.05.12.1.16.04.05.1.08.16.1.06.02.18.03.34.03h.15v.37h-2.27v-.37h.19c.18,0,.29-.02.35-.05.08-.04.13-.1.17-.18.04-.08.05-.22.05-.42v-2.59h-.76Z"/>
      <path class="cls-1" d="M133.35,117.62c.14,0,.26.05.36.15.1.1.15.22.15.36s-.05.26-.15.36c-.1.1-.22.15-.36.15s-.26-.05-.36-.15c-.1-.1-.15-.22-.15-.36s.05-.26.15-.36c.1-.1.22-.15.36-.15M132.23,120.33v-.36c.24-.03.45-.07.61-.12.17-.05.35-.14.57-.25h.32v3.52c0,.12.02.22.05.28.04.06.08.11.15.13.06.03.18.04.35.04h.21v.37h-2.25v-.37h.18c.19,0,.33-.02.39-.05.07-.03.11-.08.14-.15.03-.06.04-.21.04-.45v-2.59h-.76Z"/>
      <path class="cls-1" d="M134.64,119.7h2.01v.37h-.12c-.17,0-.27,0-.31.02-.06.02-.1.04-.13.08-.03.04-.04.08-.04.14,0,.07.03.19.1.36l1.01,2.5.97-2.5c.06-.16.09-.28.09-.35s-.03-.14-.09-.18c-.06-.04-.16-.06-.32-.06h-.21v-.37h1.74v.37c-.12,0-.22.02-.3.06-.08.04-.14.08-.19.14-.05.06-.11.19-.2.4l-1.4,3.28h-.53l-1.41-3.35c-.06-.14-.12-.25-.19-.34-.05-.05-.11-.1-.19-.13-.08-.03-.17-.05-.27-.05v-.37Z"/>
      <path class="cls-1" d="M142.8,121.78c-.68.1-1.1.17-1.26.21-.32.07-.55.15-.69.24-.14.09-.24.18-.29.28-.06.1-.09.21-.09.32s.03.23.1.33c.06.11.16.19.28.25.12.06.25.09.38.09.19,0,.41-.05.65-.14.24-.09.55-.27.92-.53v-1.06ZM142.81,121.4v-.48c0-.33-.09-.56-.27-.7-.18-.14-.44-.21-.77-.21-.16,0-.31.02-.43.06-.12.04-.22.09-.3.16-.08.07-.13.15-.17.24-.01.03-.05.16-.11.37-.07.26-.2.4-.41.4-.12,0-.21-.04-.28-.12-.07-.08-.11-.18-.11-.31,0-.19.07-.38.21-.57.14-.19.36-.34.66-.46.29-.12.64-.18,1.04-.18.37,0,.7.06.96.17.27.12.46.28.59.5.09.15.13.42.13.82v1.69c0,.24,0,.4.02.47.03.13.09.22.17.28.08.06.18.1.31.1s.3-.03.48-.09v.38c-.24.07-.46.1-.65.1-.21,0-.38-.03-.53-.09-.14-.06-.26-.14-.35-.26-.09-.11-.15-.25-.18-.4-.35.28-.67.47-.95.58-.28.11-.57.17-.86.17-.4,0-.73-.11-.99-.33-.25-.22-.38-.48-.38-.77,0-.18.05-.35.14-.51.09-.16.23-.3.42-.43.19-.12.49-.23.89-.33.4-.09.97-.18,1.69-.26"/>
      <path class="cls-1" d="M148.75,122.72l.28.23c-.55.74-1.21,1.1-1.98,1.1-.6,0-1.11-.21-1.52-.64-.41-.43-.62-.96-.62-1.59,0-.42.1-.81.29-1.15.19-.34.46-.6.8-.79.34-.19.73-.28,1.18-.28.5,0,.92.12,1.26.37.34.25.51.5.51.75,0,.14-.04.24-.12.31-.08.07-.17.11-.27.11-.05,0-.1-.01-.15-.04-.05-.03-.1-.07-.15-.13-.02-.03-.07-.11-.13-.25-.08-.17-.14-.28-.18-.34-.09-.12-.2-.21-.34-.28-.13-.07-.28-.1-.45-.1-.25,0-.48.07-.69.21-.21.14-.38.34-.51.61-.12.27-.19.59-.19.96,0,.58.15,1.04.46,1.38.27.29.58.44.95.44.17,0,.34-.03.52-.09.18-.06.34-.14.49-.25.11-.08.3-.26.56-.54"/>
      <path class="cls-1" d="M149.17,119.7h2.13v.37h-.18c-.17,0-.27,0-.3.01-.04.01-.07.04-.1.07-.03.04-.04.08-.04.14,0,.08.04.21.12.4l1.02,2.4.94-2.29c.11-.27.17-.45.17-.54,0-.07-.02-.12-.07-.15-.05-.03-.16-.05-.34-.05h-.21v-.37h1.79v.37h-.11c-.18,0-.29.01-.34.04-.05.02-.1.07-.15.14-.05.07-.13.23-.24.49l-1.61,3.76c-.12.27-.25.52-.39.75-.14.23-.32.41-.54.53-.22.13-.46.19-.71.19-.3,0-.54-.07-.73-.21-.15-.12-.23-.26-.23-.44,0-.11.03-.2.1-.27.07-.07.15-.11.24-.11.07,0,.14.01.2.04.04.01.12.08.24.18.15.13.25.21.31.24.06.03.12.04.18.04.12,0,.24-.04.36-.12.12-.08.22-.2.3-.35.12-.21.21-.41.29-.6l.18-.43-1.45-3.25c-.1-.23-.19-.38-.26-.46-.07-.08-.14-.13-.21-.15-.04-.01-.16-.02-.36-.02v-.37Z"/>
      <path class="cls-1" d="M82.8,130.4v2.31h1.26c.43,0,.73-.03.9-.08.25-.07.44-.2.58-.39.14-.19.21-.43.21-.72,0-.25-.05-.45-.15-.62-.1-.17-.24-.29-.42-.38-.18-.08-.44-.12-.79-.12h-1.59ZM81.21,129.92h3.16c.6,0,1.06.06,1.36.19.31.12.54.3.71.54.16.24.25.51.25.82s-.08.6-.24.85c-.16.25-.39.44-.7.59-.3.14-.71.22-1.21.22l1.62,1.98c.13.16.22.27.26.3.1.09.21.16.32.21.11.05.24.07.38.07h.11v.37h-1.4l-2.26-2.93h-.79v1.89c0,.21,0,.34.02.4.03.1.08.17.16.21.07.04.21.06.42.06h.16v.37h-2.35v-.37h.21c.16,0,.26-.01.32-.03.05-.02.1-.06.14-.11.04-.05.07-.12.09-.2,0-.03,0-.18.01-.44v-4.01c0-.18-.02-.31-.05-.38-.04-.08-.08-.13-.15-.17-.06-.03-.17-.05-.33-.05h-.25v-.37Z"/>
      <path class="cls-1" d="M90.78,133.15c-.04-.27-.11-.47-.19-.6-.08-.13-.19-.23-.34-.31-.15-.08-.31-.11-.5-.11s-.36.04-.52.11c-.16.08-.3.18-.4.32s-.2.33-.28.59h2.23ZM91.34,134.92l.28.23c-.21.25-.42.46-.62.61-.2.15-.39.25-.57.31-.18.06-.39.09-.63.09-.43,0-.8-.09-1.1-.26-.35-.2-.61-.47-.79-.79-.18-.33-.28-.71-.28-1.15s.09-.86.27-1.19.43-.59.75-.78c.32-.19.69-.28,1.11-.28.31,0,.59.05.82.15.23.1.43.24.59.44.16.2.28.42.35.68.04.15.07.34.07.58h-3.11c0,.14-.01.25-.01.32,0,.37.07.7.19.99s.3.5.51.64c.21.14.45.21.72.21.23,0,.45-.05.66-.16.21-.11.47-.32.78-.63"/>
      <path class="cls-1" d="M95.24,131.81h.31l.39,1.35-.39.13c-.16-.36-.38-.64-.67-.85-.29-.21-.58-.31-.87-.31-.23,0-.41.06-.55.16-.14.11-.21.24-.21.38,0,.14.05.25.15.35.1.1.32.21.67.34l.86.3c.48.17.81.36.99.55.17.2.26.42.26.68,0,.21-.07.42-.19.62-.13.2-.32.35-.56.47-.24.12-.53.18-.84.18-.49,0-.91-.14-1.27-.42l-.09.32h-.31l-.55-1.44.4-.16c.27.42.52.72.76.9.33.25.69.37,1.07.37.26,0,.46-.07.63-.2.16-.14.25-.29.25-.46,0-.14-.05-.26-.15-.38-.1-.11-.31-.22-.61-.33l-1.01-.37c-.44-.16-.74-.33-.91-.52-.17-.19-.25-.4-.25-.65,0-.3.14-.56.41-.78s.63-.34,1.06-.34c.22,0,.42.03.6.09.18.06.35.15.52.28l.12-.27Z"/>
      <path class="cls-1" d="M98.39,132.89v1.51c0,.2.01.35.04.44.04.15.1.28.2.41.1.12.24.22.41.31.17.08.36.13.55.13.38,0,.71-.14.99-.43.28-.29.42-.72.42-1.3,0-.54-.12-.97-.35-1.26-.23-.3-.5-.45-.82-.45-.2,0-.43.05-.67.16-.24.11-.5.27-.77.49M96.9,132.44v-.36c.22,0,.41-.03.58-.08.17-.06.36-.15.56-.29h.35v.73c.37-.29.67-.48.91-.58.24-.1.49-.15.73-.15.5,0,.93.2,1.28.59.35.39.53.9.53,1.53,0,.7-.2,1.27-.6,1.71-.37.41-.84.62-1.42.62-.29,0-.56-.05-.81-.16-.18-.08-.39-.21-.63-.41v1.45c0,.22,0,.34.02.38.01.05.04.1.09.14.04.04.1.06.17.07.05,0,.22.01.5.01v.37h-2.26v-.37h.2c.2,0,.33-.02.39-.05.06-.03.11-.08.13-.14.02-.05.03-.2.03-.46v-4.56h-.75Z"/>
      <path class="cls-1" d="M105.72,133.15c-.04-.27-.11-.47-.19-.6-.08-.13-.2-.23-.34-.31-.15-.08-.31-.11-.5-.11s-.36.04-.52.11c-.16.08-.29.18-.4.32-.11.14-.2.33-.28.59h2.23ZM106.28,134.92l.28.23c-.21.25-.42.46-.62.61-.2.15-.39.25-.57.31-.18.06-.39.09-.63.09-.43,0-.8-.09-1.1-.26-.35-.2-.61-.47-.79-.79-.18-.33-.28-.71-.28-1.15s.09-.86.27-1.19c.18-.33.43-.59.75-.78.32-.19.69-.28,1.12-.28.31,0,.58.05.82.15.23.1.43.24.59.44.16.2.28.42.35.68.04.15.06.34.07.58h-3.11c0,.14-.01.25-.01.32,0,.37.06.7.19.99s.3.5.51.64c.21.14.45.21.72.21.23,0,.45-.05.66-.16.21-.11.47-.32.78-.63"/>
      <path class="cls-1" d="M111.09,134.83l.28.23c-.55.74-1.21,1.1-1.98,1.1-.6,0-1.11-.21-1.52-.64-.41-.43-.62-.96-.62-1.59,0-.42.1-.81.29-1.15.19-.34.46-.6.8-.79.34-.19.73-.28,1.18-.28.5,0,.92.12,1.26.37.34.25.51.5.51.75,0,.14-.04.24-.12.31-.08.07-.17.11-.27.11-.05,0-.1-.01-.15-.04-.05-.03-.1-.07-.15-.13-.02-.03-.07-.11-.13-.25-.08-.17-.14-.28-.18-.34-.09-.12-.2-.21-.34-.28-.13-.07-.28-.1-.45-.1-.25,0-.48.07-.69.21-.21.14-.38.34-.51.61-.12.27-.19.59-.19.96,0,.58.15,1.04.46,1.38.27.29.58.44.95.44.17,0,.34-.03.52-.09.18-.06.34-.14.49-.25.11-.08.3-.26.56-.54"/>
      <path class="cls-1" d="M113.04,130.32h.31v1.49h1.31v.44h-1.31v2.65c0,.23.02.39.06.48.04.1.11.18.2.24.1.06.2.09.32.09.28,0,.59-.12.92-.37v.43c-.38.26-.77.39-1.17.39-.22,0-.42-.05-.6-.15-.18-.1-.3-.22-.37-.35-.07-.13-.1-.37-.1-.7v-2.7h-.77v-.37c.25-.05.45-.14.6-.26.15-.12.27-.27.37-.46.09-.19.17-.47.23-.85"/>
      <path class="cls-1" d="M83.05,145.79v-1.66c0-.24-.04-.43-.13-.58-.09-.15-.24-.28-.44-.39-.2-.11-.41-.17-.63-.17-.25,0-.49.07-.71.21-.21.14-.38.34-.51.6-.12.26-.18.58-.18.95,0,.35.06.66.17.91.11.26.26.45.46.58.19.13.39.2.58.2s.42-.06.67-.17c.25-.11.49-.27.72-.48M82.31,141.15v-.37c.2-.02.38-.05.55-.1.16-.05.37-.14.62-.27h.33v5.33c0,.25,0,.4.02.45.03.11.08.19.15.23.07.04.21.07.41.07h.19v.37l-1.52.07v-.7c-.29.27-.57.45-.82.57-.26.11-.51.17-.77.17-.53,0-.97-.21-1.32-.64-.35-.43-.53-.94-.53-1.54,0-.43.09-.82.28-1.18.18-.35.43-.63.74-.82.3-.19.64-.28,1-.28.28,0,.54.05.77.15.24.1.45.24.65.43v-1.94h-.74Z"/>
      <path class="cls-1" d="M86.23,140.53c.14,0,.26.05.36.15.1.1.15.22.15.36s-.05.26-.15.36c-.1.1-.22.15-.36.15s-.26-.05-.36-.15c-.1-.1-.15-.22-.15-.36s.05-.26.15-.36c.1-.1.22-.15.36-.15M85.12,143.24v-.36c.24-.03.45-.07.61-.12.17-.05.35-.14.57-.25h.32v3.52c0,.12.02.22.05.28.04.06.08.11.15.13.06.03.18.04.35.04h.21v.37h-2.25v-.37h.18c.2,0,.33-.02.4-.05.07-.03.11-.08.14-.15.03-.06.04-.21.04-.45v-2.59h-.76Z"/>
      <path class="cls-1" d="M87.53,142.61h2.01v.37h-.12c-.17,0-.27,0-.31.02-.06.02-.1.04-.13.08-.03.04-.04.08-.04.14,0,.07.03.19.1.36l1,2.5.97-2.5c.06-.16.09-.28.09-.35s-.03-.14-.09-.18c-.06-.04-.16-.06-.32-.06h-.21v-.37h1.74v.37c-.12,0-.22.02-.3.06-.08.04-.14.08-.19.14-.05.06-.11.19-.21.4l-1.4,3.28h-.53l-1.41-3.35c-.06-.14-.12-.25-.19-.34-.05-.05-.11-.1-.19-.13-.08-.03-.17-.05-.27-.05v-.37Z"/>
      <path class="cls-1" d="M95.73,143.95c-.04-.27-.11-.47-.19-.6-.08-.13-.19-.23-.34-.31-.15-.08-.31-.11-.5-.11s-.36.04-.52.11c-.16.08-.3.18-.4.32s-.2.33-.28.59h2.23ZM96.29,145.72l.28.23c-.21.25-.42.46-.62.61-.2.15-.39.25-.57.31-.18.06-.39.09-.63.09-.43,0-.8-.09-1.1-.26-.35-.2-.61-.47-.79-.79-.18-.33-.28-.71-.28-1.15s.09-.86.27-1.19.43-.59.75-.78c.32-.19.69-.28,1.11-.28.31,0,.59.05.82.15.23.1.43.24.59.44.16.2.28.42.35.68.04.15.07.34.07.58h-3.11c0,.14-.01.25-.01.32,0,.37.07.7.19.99s.3.5.51.64c.21.14.45.21.72.21.23,0,.45-.05.66-.16.21-.11.47-.32.78-.63"/>
      <path class="cls-1" d="M97.21,143.24v-.36c.21-.02.4-.05.57-.11.17-.05.36-.14.57-.26h.33v.83c.21-.26.45-.46.73-.61.27-.15.52-.22.74-.22s.39.05.51.15c.13.1.19.23.19.37,0,.11-.04.2-.13.28-.08.08-.18.12-.3.12-.05,0-.1,0-.14-.02-.04-.01-.09-.05-.17-.1-.16-.11-.3-.16-.4-.16-.15,0-.31.06-.48.18-.22.16-.4.31-.52.47v2.03c0,.18,0,.29.03.36.02.06.05.12.1.16.04.05.1.08.16.1.07.02.18.03.34.03h.15v.37h-2.27v-.37h.19c.18,0,.29-.02.35-.05.08-.04.13-.1.17-.18.04-.08.05-.22.05-.42v-2.59h-.76Z"/>
      <path class="cls-1" d="M104.15,142.61h.31l.39,1.35-.4.13c-.16-.36-.38-.64-.66-.85-.29-.21-.58-.31-.87-.31-.23,0-.41.06-.55.16-.14.11-.21.24-.21.38,0,.14.05.25.15.35.1.1.32.21.67.34l.86.3c.48.17.81.36.99.55.17.2.26.42.26.68,0,.21-.06.42-.19.62-.13.2-.32.35-.56.47-.24.12-.52.18-.84.18-.49,0-.91-.14-1.27-.42l-.09.32h-.31l-.55-1.44.4-.16c.27.42.52.72.76.9.33.25.69.37,1.07.37.26,0,.47-.07.63-.2.16-.14.25-.29.25-.46,0-.14-.05-.26-.15-.38-.1-.11-.31-.22-.6-.33l-1.02-.37c-.44-.16-.74-.33-.91-.52-.17-.19-.25-.4-.25-.65,0-.3.14-.56.41-.78.28-.23.63-.34,1.06-.34.22,0,.42.03.6.09.18.06.35.15.52.28l.12-.27Z"/>
      <path class="cls-1" d="M106.93,140.53c.14,0,.26.05.36.15.1.1.15.22.15.36s-.05.26-.15.36c-.1.1-.22.15-.36.15s-.26-.05-.36-.15c-.1-.1-.15-.22-.15-.36s.05-.26.15-.36c.1-.1.22-.15.36-.15M105.82,143.24v-.36c.24-.03.45-.07.61-.12.17-.05.35-.14.57-.25h.32v3.52c0,.12.02.22.05.28.04.06.08.11.15.13.06.03.18.04.35.04h.21v.37h-2.25v-.37h.18c.19,0,.33-.02.39-.05.07-.03.11-.08.14-.15.03-.06.04-.21.04-.45v-2.59h-.76Z"/>
      <path class="cls-1" d="M109.71,141.12h.31v1.49h1.3v.44h-1.3v2.65c0,.23.02.39.06.48.04.1.11.18.2.24.1.06.2.09.32.09.28,0,.59-.12.92-.37v.43c-.38.26-.77.39-1.17.39-.22,0-.42-.05-.6-.15-.18-.1-.3-.22-.37-.35-.07-.13-.1-.37-.1-.7v-2.7h-.77v-.37c.25-.06.45-.14.6-.26.15-.12.27-.27.37-.46.09-.19.17-.47.23-.85"/>
      <path class="cls-1" d="M111.59,142.61h2.13v.37h-.18c-.17,0-.27,0-.3.01-.04.01-.07.04-.1.07-.03.04-.04.08-.04.14,0,.08.04.21.12.4l1.02,2.4.94-2.29c.11-.27.17-.45.17-.54,0-.07-.02-.12-.07-.15-.05-.03-.16-.05-.34-.05h-.21v-.37h1.79v.37h-.11c-.18,0-.29.01-.34.04-.05.02-.1.07-.15.14-.05.07-.13.23-.24.49l-1.61,3.76c-.12.27-.25.52-.39.75-.14.23-.32.41-.54.53-.22.13-.46.19-.72.19-.3,0-.54-.07-.73-.21-.15-.12-.23-.26-.23-.44,0-.11.03-.2.1-.27s.15-.11.24-.11c.07,0,.14.01.2.04.04.01.12.08.24.18.15.13.25.21.31.24.06.03.12.04.18.04.12,0,.24-.04.36-.12.12-.08.22-.2.3-.35.12-.21.21-.41.29-.6l.18-.43-1.45-3.25c-.1-.23-.19-.38-.26-.46-.07-.08-.14-.13-.21-.15-.04-.01-.16-.02-.36-.02v-.37Z"/>
      <path class="cls-1" d="M27.94,110.44h1.89l-.94-2.64-.95,2.64ZM28.71,107.01h.72l1.91,5.12c.09.26.19.43.28.51.1.08.22.12.39.12h.1v.37h-2.18v-.37c.07,0,.14,0,.21,0,.14,0,.23-.01.28-.04.09-.05.13-.12.13-.21,0-.06-.04-.21-.12-.45l-.41-1.19h-2.22l-.48,1.33c-.05.14-.07.23-.07.28,0,.06.01.11.05.15.03.04.07.08.12.1.05.02.14.03.25.03.08,0,.14,0,.19,0v.37h-1.83v-.37c.17,0,.29-.02.37-.05.07-.03.14-.09.2-.16.06-.08.13-.23.22-.47l1.91-5.08Z"/>
      <path class="cls-1" d="M32.13,108.9h2.01v.37h-.12c-.17,0-.27,0-.31.02-.06.02-.1.04-.13.08-.03.04-.04.08-.04.14,0,.07.03.19.1.36l1,2.5.97-2.5c.06-.16.09-.28.09-.35s-.03-.14-.09-.18c-.06-.04-.16-.06-.32-.06h-.21v-.37h1.74v.37c-.12,0-.22.02-.3.06-.08.04-.14.08-.19.14-.05.06-.11.19-.21.4l-1.4,3.28h-.53l-1.41-3.35c-.06-.14-.12-.25-.19-.34-.05-.05-.11-.1-.19-.13-.08-.03-.17-.05-.27-.05v-.37Z"/>
      <path class="cls-1" d="M39.32,109.22c-.33,0-.62.13-.85.4-.29.33-.44.8-.44,1.43s.12,1.06.37,1.38c.22.28.53.42.92.42.25,0,.47-.07.67-.2.19-.13.35-.34.47-.63.12-.29.18-.63.18-1.02s-.06-.72-.19-1.02c-.1-.24-.25-.43-.45-.56-.2-.13-.43-.2-.68-.2M39.35,108.8c.43,0,.8.09,1.12.27.31.18.56.44.74.78.18.34.27.73.27,1.17s-.09.83-.28,1.17c-.19.34-.44.6-.76.78-.32.18-.7.27-1.15.27-.71,0-1.24-.22-1.6-.66-.36-.44-.53-.96-.53-1.56,0-.44.09-.82.28-1.16.18-.34.44-.6.78-.79.33-.19.71-.28,1.13-.28"/>
      <path class="cls-1" d="M43.26,106.82c.14,0,.26.05.36.15.1.1.15.22.15.36s-.05.26-.15.36c-.1.1-.22.15-.36.15s-.26-.05-.36-.15c-.1-.1-.15-.22-.15-.36s.05-.26.15-.36c.1-.1.22-.15.36-.15M42.14,109.53v-.36c.24-.03.45-.07.61-.12.17-.05.35-.14.56-.25h.32v3.52c0,.12.02.22.05.28.04.06.08.11.15.13.06.03.18.04.35.04h.21v.37h-2.25v-.37h.18c.2,0,.33-.02.4-.05.07-.03.11-.08.14-.15.03-.06.04-.21.04-.45v-2.59h-.76Z"/>
      <path class="cls-1" d="M48.35,112.08v-1.66c0-.24-.04-.43-.13-.58-.09-.15-.24-.28-.44-.39-.2-.11-.41-.17-.63-.17-.25,0-.49.07-.71.21-.21.14-.38.34-.5.6-.12.26-.18.58-.18.95,0,.35.06.66.17.91.11.26.26.45.46.58.19.13.39.2.58.2s.42-.06.67-.17c.25-.11.49-.27.72-.48M47.61,107.44v-.37c.2-.02.38-.05.55-.1.16-.05.37-.14.62-.27h.33v5.33c0,.25,0,.4.02.45.03.11.08.19.15.23.07.04.21.07.41.07h.19v.37l-1.52.07v-.7c-.29.27-.57.45-.82.57-.26.11-.51.17-.77.17-.53,0-.97-.21-1.32-.64-.35-.43-.53-.94-.53-1.54,0-.43.09-.82.28-1.18.18-.35.43-.63.74-.82.3-.19.64-.28,1-.28.28,0,.54.05.77.15.24.1.45.24.65.43v-1.94h-.74Z"/>
      <path class="cls-1" d="M57.22,111.92l.28.23c-.55.74-1.21,1.1-1.98,1.1-.6,0-1.11-.21-1.52-.64-.41-.43-.62-.96-.62-1.59,0-.42.1-.81.29-1.15.19-.34.46-.6.8-.79.34-.19.73-.28,1.18-.28.5,0,.92.12,1.26.37.34.25.51.5.51.75,0,.14-.04.24-.12.31-.08.07-.17.11-.27.11-.05,0-.1-.01-.15-.04-.05-.03-.1-.07-.15-.13-.02-.03-.07-.11-.13-.25-.08-.17-.14-.28-.18-.34-.09-.12-.2-.21-.34-.28-.13-.07-.28-.1-.45-.1-.25,0-.48.07-.69.21s-.38.34-.51.61c-.12.27-.19.59-.19.96,0,.58.15,1.04.46,1.38.27.29.59.44.95.44.17,0,.34-.03.52-.09.18-.06.34-.14.49-.25.11-.08.3-.26.56-.54"/>
      <path class="cls-1" d="M57.64,108.9h2.13v.37h-.18c-.17,0-.27,0-.3.01-.04.01-.07.04-.1.07s-.04.08-.04.14c0,.08.04.21.12.4l1.02,2.4.94-2.29c.11-.27.17-.45.17-.54,0-.07-.02-.12-.07-.15-.05-.03-.16-.05-.34-.05h-.21v-.37h1.79v.37h-.11c-.18,0-.29.01-.34.04-.05.02-.1.07-.15.14-.05.07-.13.23-.24.49l-1.61,3.76c-.12.27-.25.52-.39.75-.14.23-.32.41-.54.53-.22.13-.46.19-.72.19-.3,0-.54-.07-.73-.21-.16-.12-.23-.26-.23-.44,0-.11.03-.2.1-.27.07-.07.15-.11.24-.11.07,0,.14.01.2.04.04.01.12.08.24.18.15.13.25.21.31.24.06.03.12.04.18.04.12,0,.24-.04.36-.12.12-.08.22-.2.3-.35.12-.21.21-.41.29-.6l.18-.43-1.45-3.25c-.1-.23-.19-.38-.26-.46-.07-.08-.14-.13-.21-.15-.04-.01-.16-.02-.36-.02v-.37Z"/>
      <path class="cls-1" d="M64.28,109.81v1.69c0,.27.02.45.06.56.04.11.12.22.24.33.12.11.26.2.42.27.16.07.32.1.49.1.26,0,.5-.07.71-.21s.38-.34.51-.61c.12-.27.18-.59.18-.97,0-.53-.13-.96-.39-1.27-.21-.26-.5-.4-.88-.4-.19,0-.39.04-.59.11-.2.07-.45.21-.75.4M62.79,107.43v-.36c.19-.01.38-.05.56-.1.18-.06.38-.14.61-.26h.32v2.68c.26-.19.52-.34.79-.43.27-.1.55-.15.84-.15.33,0,.63.09.91.26.28.18.5.43.66.74.16.32.24.7.24,1.14,0,.69-.2,1.25-.6,1.69-.37.41-.84.62-1.41.62-.34,0-.65-.07-.92-.22-.2-.1-.39-.27-.58-.49l-.24.6h-.41v-5.71h-.76Z"/>
      <path class="cls-1" d="M71.65,110.24c-.04-.27-.11-.47-.19-.6-.08-.13-.19-.23-.34-.31-.15-.08-.31-.11-.5-.11s-.36.04-.52.11c-.16.08-.3.18-.4.32s-.2.33-.28.59h2.23ZM72.22,112.01l.28.23c-.21.25-.42.46-.62.61-.2.15-.39.25-.57.31-.18.06-.39.09-.63.09-.43,0-.8-.09-1.1-.26-.35-.2-.61-.47-.79-.79-.18-.33-.28-.71-.28-1.15s.09-.86.27-1.19.43-.59.75-.78c.32-.19.69-.28,1.11-.28.31,0,.59.05.82.15.23.1.43.24.59.44.16.2.28.42.35.68.04.15.07.34.07.58h-3.11c0,.14-.01.25-.01.32,0,.37.07.7.19.99s.3.5.51.64c.21.14.45.21.72.21.23,0,.45-.05.66-.16.21-.11.47-.32.78-.63"/>
      <path class="cls-1" d="M73.13,109.53v-.36c.21-.02.4-.05.57-.11.17-.05.36-.14.57-.26h.33v.83c.21-.26.45-.46.73-.61.27-.15.52-.22.74-.22s.39.05.51.15c.13.1.19.23.19.37,0,.11-.04.2-.13.28-.08.08-.18.12-.3.12-.05,0-.1,0-.14-.02-.04-.01-.09-.05-.17-.1-.16-.11-.3-.16-.4-.16-.15,0-.31.06-.48.18-.22.16-.4.31-.52.47v2.03c0,.18,0,.29.03.36.02.06.05.12.1.16.04.05.1.08.16.1.07.02.18.03.34.03h.15v.37h-2.27v-.37h.19c.18,0,.29-.02.35-.05.08-.04.13-.1.17-.18.04-.08.05-.22.05-.42v-2.59h-.76Z"/>
      <path class="cls-1" d="M35.39,120.61v1.69c0,.27.02.45.06.56s.12.22.24.33c.12.11.26.2.42.27.16.07.32.1.49.1.26,0,.5-.07.71-.21.21-.14.38-.34.5-.61.12-.27.18-.59.18-.97,0-.53-.13-.96-.39-1.27-.21-.26-.5-.4-.88-.4-.19,0-.39.04-.59.11-.2.07-.45.21-.75.4M33.9,118.23v-.36c.19-.01.38-.05.56-.1.18-.06.38-.14.61-.26h.32v2.68c.26-.19.52-.34.79-.43.27-.1.55-.15.83-.15.33,0,.63.09.91.26.28.18.5.43.66.74.16.32.24.7.24,1.14,0,.69-.2,1.25-.6,1.69-.37.41-.84.62-1.42.62-.34,0-.65-.07-.92-.22-.2-.1-.39-.27-.58-.49l-.24.6h-.41v-5.71h-.76Z"/>
      <path class="cls-1" d="M39.33,119.7l1.66-.07v2.83c0,.25.04.45.1.59.07.15.17.26.32.34.14.08.31.12.5.12.23,0,.5-.06.8-.19.3-.13.59-.31.89-.56v-2.05c0-.22-.02-.36-.05-.43-.03-.07-.09-.12-.17-.16s-.21-.06-.39-.06h-.32v-.37l1.67-.07v3.28c0,.21.02.36.05.44.04.08.09.14.16.17.07.03.21.05.42.05h.14v.37l-1.46.07v-.81c-.4.32-.75.54-1.05.66-.3.12-.6.18-.91.18-.23,0-.43-.03-.6-.09-.17-.06-.32-.15-.44-.28-.13-.12-.22-.27-.29-.44-.07-.17-.1-.36-.1-.55v-2c0-.18-.02-.3-.05-.38-.03-.07-.09-.13-.16-.17-.08-.04-.18-.06-.31-.06h-.4v-.37Z"/>
      <path class="cls-1" d="M45.64,118.23v-.36c.4-.03.79-.15,1.16-.37h.33v5.41c0,.23.01.37.04.43.04.08.09.14.17.18.07.04.21.06.42.06h.14v.37h-2.26v-.37h.23c.14,0,.25-.02.32-.07.07-.04.12-.1.15-.18.03-.08.05-.23.05-.45v-4.65h-.75Z"/>
      <path class="cls-1" d="M48.34,118.23v-.36c.4-.03.79-.15,1.16-.37h.32v5.41c0,.23.01.37.04.43.04.08.09.14.17.18.07.04.21.06.42.06h.14v.37h-2.26v-.37h.23c.14,0,.25-.02.32-.07.07-.04.12-.1.15-.18.03-.08.05-.23.05-.45v-4.65h-.75Z"/>
      <path class="cls-1" d="M50.71,119.7h2.13v.37h-.18c-.17,0-.27,0-.3.01-.04.01-.07.04-.1.07s-.04.08-.04.14c0,.08.04.21.12.4l1.02,2.4.94-2.29c.11-.27.17-.45.17-.54,0-.07-.02-.12-.07-.15-.05-.03-.16-.05-.34-.05h-.21v-.37h1.79v.37h-.11c-.18,0-.29.01-.34.04-.05.02-.1.07-.15.14-.05.07-.13.23-.24.49l-1.61,3.76c-.12.27-.25.52-.39.75-.14.23-.32.41-.54.53-.22.13-.46.19-.72.19-.3,0-.54-.07-.72-.21-.16-.12-.23-.26-.23-.44,0-.11.03-.2.1-.27.07-.07.15-.11.24-.11.07,0,.14.01.2.04.04.01.12.08.24.18.15.13.25.21.31.24.06.03.12.04.18.04.12,0,.24-.04.36-.12.12-.08.22-.2.3-.35.12-.21.21-.41.29-.6l.18-.43-1.45-3.25c-.1-.23-.19-.38-.26-.46-.07-.08-.14-.13-.21-.15-.04-.01-.16-.02-.36-.02v-.37Z"/>
      <path class="cls-1" d="M57.02,117.62c.14,0,.26.05.36.15.1.1.15.22.15.36s-.05.26-.15.36c-.1.1-.22.15-.36.15s-.26-.05-.36-.15c-.1-.1-.15-.22-.15-.36s.05-.26.15-.36c.1-.1.22-.15.36-.15M55.91,120.33v-.36c.24-.03.45-.07.61-.12.17-.05.35-.14.57-.25h.32v3.52c0,.12.02.22.05.28.04.06.08.11.15.13.06.03.18.04.35.04h.21v.37h-2.25v-.37h.18c.2,0,.33-.02.4-.05.07-.03.11-.08.14-.15.03-.06.04-.21.04-.45v-2.59h-.76Z"/>
      <path class="cls-1" d="M58.65,120.33v-.36c.26-.03.46-.06.58-.1.13-.04.31-.13.56-.26h.32v.83c.39-.33.72-.54.99-.66.27-.11.55-.17.83-.17.24,0,.45.04.64.12.18.08.33.19.45.33.12.14.19.29.23.47.02.11.03.27.03.49v1.93c0,.23.02.38.05.45.03.07.09.11.16.14.07.03.25.04.54.04v.37h-2.26v-.37h.12c.21,0,.35-.02.43-.06s.13-.09.16-.17c.03-.07.05-.22.05-.45v-1.62c0-.33-.03-.57-.08-.7-.05-.13-.15-.23-.28-.31-.13-.08-.3-.12-.5-.12-.24,0-.49.06-.76.18-.27.12-.53.3-.78.54v2.03c0,.23.02.38.05.46s.09.13.16.17c.05.03.19.04.42.04h.13v.37h-2.27v-.37h.11c.22,0,.37-.02.45-.05.08-.04.13-.1.17-.2.02-.05.03-.21.03-.48v-2.51h-.75Z"/>
      <path class="cls-1" d="M66.65,120.01c-.29,0-.53.1-.73.31-.2.21-.3.46-.3.77,0,.21.05.39.14.56.09.16.22.29.38.39.16.1.34.14.52.14s.35-.05.52-.14c.17-.1.29-.23.38-.39.09-.16.13-.35.13-.55,0-.32-.1-.58-.29-.78-.2-.2-.45-.3-.76-.3M65.95,123.82c-.28.24-.47.43-.56.58-.09.15-.14.29-.14.43,0,.12.05.23.14.34.09.11.25.2.47.27.22.07.5.11.84.11.4,0,.74-.04,1.03-.13.29-.09.49-.2.61-.33.09-.11.14-.23.14-.37,0-.12-.04-.23-.11-.31-.07-.09-.21-.16-.42-.22-.21-.06-.4-.11-.58-.14l-1.42-.22ZM67.98,120.05c.13-.15.27-.27.4-.34s.26-.11.38-.11c.1,0,.19.03.27.09.07.06.11.14.11.23s-.03.17-.1.24c-.07.06-.15.1-.25.1-.04,0-.1,0-.17-.02-.08-.02-.15-.03-.21-.03-.07,0-.15.03-.23.1.18.22.27.48.27.77,0,.4-.17.76-.51,1.05-.34.3-.77.44-1.29.44-.29,0-.58-.06-.87-.18-.19.14-.3.22-.33.26-.04.05-.06.1-.06.16,0,.09.04.16.13.21.11.07.33.14.66.18l1.27.19c.28.04.56.12.85.22.29.1.49.23.62.4.13.16.19.36.19.59,0,.39-.18.7-.54.93-.46.3-1.13.44-2.02.44-.47,0-.85-.05-1.14-.15-.29-.1-.52-.24-.68-.42-.12-.13-.18-.27-.18-.41,0-.18.06-.36.18-.53.12-.17.39-.42.82-.74-.28-.07-.48-.15-.6-.25-.15-.12-.23-.26-.23-.41,0-.08.01-.15.04-.21.03-.07.07-.13.14-.2.06-.07.18-.16.35-.27.11-.07.18-.13.22-.16-.21-.15-.38-.32-.48-.51-.11-.19-.16-.39-.16-.62,0-.37.14-.7.43-.97.35-.34.82-.51,1.41-.51.26,0,.49.03.69.1.2.07.4.18.61.35"/>
      <path class="cls-1" d="M28.31,72.77h1.33c.13,0,.35-.02.66-.07.31-.05.53-.1.66-.17.19-.1.38-.26.56-.48.18-.22.32-.49.42-.8.1-.31.15-.66.15-1.06s-.05-.74-.15-1.03c-.1-.29-.25-.55-.44-.78-.2-.23-.42-.41-.66-.53-.24-.12-.51-.2-.81-.23-.16-.01-.43-.02-.81-.02h-.9v5.18ZM26.71,67.48v-.37h2.19c1,0,1.7.06,2.1.19.58.18,1.06.53,1.42,1.03.4.56.6,1.2.6,1.92,0,.49-.1.95-.3,1.37-.2.42-.46.76-.78,1.02-.27.22-.59.37-.96.46-.38.09-.75.13-1.13.13h-3.13v-.37h.34c.11,0,.2-.02.27-.06.07-.04.12-.1.15-.18.02-.06.03-.18.03-.39v-4.1c0-.23-.01-.38-.04-.45-.04-.09-.11-.16-.2-.19-.05-.02-.23-.03-.54-.03"/>
      <path class="cls-1" d="M35.99,69.32c-.33,0-.62.13-.85.4-.29.33-.44.81-.44,1.43s.12,1.06.37,1.38c.22.28.53.42.92.42.25,0,.47-.07.67-.2.19-.13.35-.34.47-.63.12-.29.18-.63.18-1.02s-.06-.72-.19-1.02c-.1-.24-.25-.43-.45-.56-.2-.13-.43-.2-.68-.2M36.03,68.89c.43,0,.8.09,1.12.27.31.18.56.44.74.78.18.34.27.73.27,1.17s-.09.83-.28,1.17c-.19.34-.44.6-.76.78-.32.18-.7.27-1.15.27-.71,0-1.24-.22-1.6-.66-.36-.44-.53-.96-.53-1.56,0-.44.09-.82.28-1.16.18-.34.44-.6.78-.79.33-.19.71-.28,1.13-.28"/>
      <path class="cls-1" d="M38.85,69.63v-.36c.26-.03.46-.06.58-.1.13-.04.31-.13.56-.26h.32v.83c.39-.33.72-.54.99-.66.27-.12.55-.17.83-.17.24,0,.45.04.64.12.18.08.33.19.45.33.12.14.19.29.23.47.02.11.03.27.03.49v1.93c0,.23.02.38.05.45.03.07.09.11.16.14.07.03.25.04.54.04v.37h-2.26v-.37h.12c.21,0,.36-.02.43-.06.08-.04.13-.09.17-.17.03-.07.05-.22.05-.45v-1.62c0-.33-.03-.57-.08-.7-.05-.13-.15-.23-.28-.31-.13-.08-.3-.12-.5-.12-.24,0-.49.06-.76.18-.27.12-.53.3-.78.54v2.03c0,.23.02.38.05.46s.09.13.17.17c.05.03.19.04.42.04h.13v.37h-2.27v-.37h.11c.22,0,.37-.02.45-.05.08-.04.14-.1.17-.2.02-.05.03-.21.03-.48v-2.51h-.75Z"/>
      <path class="cls-1" d="M45.44,69.38l-.24-.29c.6-.49.9-.9.9-1.23,0-.04,0-.08,0-.14-.05.02-.1.04-.15.05-.05.01-.09.02-.13.02-.14,0-.25-.05-.34-.14-.09-.09-.13-.21-.13-.35s.05-.26.15-.36c.1-.1.23-.15.37-.15.2,0,.37.08.51.24.14.16.21.37.21.62,0,.16-.03.33-.1.52-.07.18-.17.35-.29.5-.13.15-.38.39-.76.71"/>
      <path class="cls-1" d="M47.93,67.5h.31v1.49h1.3v.44h-1.3v2.65c0,.23.02.39.06.48.04.1.11.18.2.24.1.06.2.09.32.09.28,0,.59-.12.92-.37v.43c-.38.26-.77.39-1.17.39-.22,0-.43-.05-.61-.15-.18-.1-.3-.22-.37-.35-.07-.13-.1-.37-.1-.7v-2.7h-.77v-.37c.25-.05.45-.14.6-.26.15-.12.27-.27.37-.46.1-.19.17-.47.23-.85"/>
      <path class="cls-1" d="M53.04,69h.75v-.66c0-.45.15-.82.45-1.11.3-.29.69-.43,1.18-.43.32,0,.57.07.75.2.18.14.27.28.27.44,0,.1-.04.19-.11.27-.07.07-.16.11-.27.11-.1,0-.18-.02-.25-.05-.07-.04-.18-.12-.32-.26-.15-.15-.3-.22-.44-.22-.1,0-.18.03-.26.09-.08.06-.14.15-.18.26-.04.12-.06.29-.06.53v.84h.83v.45h-.83v2.85c0,.2.01.33.04.39.03.07.07.11.13.14.06.03.19.04.41.04h.18v.37h-2.26v-.37h.14c.23,0,.38-.01.44-.04.06-.03.11-.08.14-.14.03-.07.04-.22.04-.45v-2.79h-.75v-.45Z"/>
      <path class="cls-1" d="M59.15,70.33c-.04-.27-.11-.47-.19-.6-.08-.13-.19-.23-.34-.31-.15-.08-.31-.11-.5-.11s-.36.04-.52.11c-.16.08-.3.18-.4.32s-.2.33-.28.59h2.23ZM59.71,72.11l.28.23c-.21.25-.42.46-.62.61-.2.15-.39.25-.57.31-.18.06-.39.09-.63.09-.43,0-.8-.09-1.1-.26-.35-.2-.61-.47-.79-.79-.18-.33-.28-.71-.28-1.15s.09-.86.27-1.19.43-.59.75-.78c.32-.19.69-.28,1.11-.28.31,0,.59.05.82.15.23.1.43.24.59.44.16.2.28.42.35.68.04.15.07.34.07.58h-3.11c0,.14-.01.25-.01.32,0,.37.07.7.19.99s.3.5.51.64c.21.14.45.21.72.21.23,0,.45-.05.66-.16.21-.11.47-.32.78-.63"/>
      <path class="cls-1" d="M63.83,70.33c-.04-.27-.11-.47-.19-.6-.08-.13-.19-.23-.34-.31-.15-.08-.31-.11-.5-.11s-.36.04-.52.11c-.16.08-.3.18-.4.32s-.2.33-.28.59h2.23ZM64.39,72.11l.28.23c-.21.25-.42.46-.62.61-.2.15-.39.25-.57.31-.18.06-.39.09-.63.09-.43,0-.8-.09-1.1-.26-.35-.2-.61-.47-.79-.79-.18-.33-.28-.71-.28-1.15s.09-.86.27-1.19.43-.59.75-.78c.32-.19.69-.28,1.11-.28.31,0,.59.05.82.15.23.1.43.24.59.44.16.2.28.42.35.68.04.15.07.34.07.58h-3.11c0,.14-.01.25-.01.32,0,.37.07.7.19.99s.3.5.51.64c.21.14.45.21.72.21.23,0,.45-.05.66-.16.21-.11.47-.32.78-.63"/>
      <path class="cls-1" d="M68.78,72.18v-1.66c0-.24-.04-.43-.13-.58-.09-.15-.24-.28-.44-.39-.2-.11-.41-.17-.63-.17-.25,0-.49.07-.71.21-.21.14-.38.34-.51.6-.12.26-.18.58-.18.95,0,.35.06.66.17.91.11.26.26.45.46.58.19.13.39.2.58.2s.42-.06.67-.17c.25-.11.49-.27.72-.48M68.05,67.54v-.37c.2-.02.38-.05.55-.1.16-.05.37-.14.62-.27h.33v5.33c0,.25,0,.4.02.45.03.11.08.19.15.23.07.04.21.07.41.07h.19v.37l-1.52.07v-.7c-.29.27-.57.45-.82.57-.26.11-.51.17-.77.17-.53,0-.97-.21-1.32-.64-.35-.43-.53-.94-.53-1.54,0-.43.09-.82.28-1.18.18-.35.43-.63.74-.82.3-.19.64-.28,1-.28.28,0,.54.05.77.15.24.1.45.24.65.43v-1.94h-.74Z"/>
      <path class="cls-1" d="M32.54,78.3h.31v1.49h1.31v.44h-1.31v2.65c0,.23.02.39.06.48.04.1.11.18.2.24.1.06.2.09.32.09.28,0,.59-.12.92-.37v.43c-.38.26-.77.39-1.17.39-.22,0-.42-.05-.61-.15-.18-.1-.3-.22-.37-.35-.07-.13-.1-.37-.1-.7v-2.7h-.77v-.37c.25-.05.45-.14.6-.26.15-.12.28-.27.37-.46.1-.19.17-.47.23-.85"/>
      <path class="cls-1" d="M34.8,78.34v-.38c.28-.04.5-.08.66-.13.16-.05.32-.13.5-.23h.34v2.9c.33-.28.64-.48.94-.61.3-.13.58-.19.85-.19.39,0,.72.12.97.35.25.23.38.52.38.86v2.16c0,.21.02.35.05.42.03.07.09.11.17.15.08.03.26.05.53.05v.37h-2.27v-.37h.17c.21,0,.35-.02.42-.05.07-.03.12-.09.15-.17.03-.08.05-.24.05-.48v-1.5c0-.33-.01-.55-.04-.65-.04-.17-.13-.31-.27-.41-.14-.1-.31-.15-.53-.15-.24,0-.49.06-.75.18-.26.12-.53.3-.81.53v2.2c0,.16.01.27.04.33.03.06.08.1.14.12.07.03.2.04.4.04h.18v.37h-2.28v-.37h.14c.21,0,.37-.03.47-.08.05-.03.09-.08.11-.15.02-.08.04-.29.04-.63v-4.47h-.75Z"/>
      <path class="cls-1" d="M43.94,81.13c-.04-.27-.11-.47-.19-.6-.08-.13-.19-.23-.34-.31-.15-.08-.31-.11-.5-.11s-.36.04-.52.11c-.16.08-.3.18-.4.32-.11.14-.2.33-.28.59h2.23ZM44.5,82.91l.28.23c-.21.25-.42.46-.62.61-.2.15-.39.25-.57.31-.18.06-.39.09-.63.09-.43,0-.8-.09-1.1-.26-.35-.2-.61-.47-.8-.79-.18-.33-.28-.71-.28-1.15s.09-.86.27-1.19.43-.59.75-.78c.32-.19.69-.28,1.11-.28.31,0,.59.05.82.15.23.1.43.24.59.44.16.2.28.42.35.68.04.15.07.34.07.58h-3.11c0,.14-.01.25-.01.32,0,.37.07.7.19.99s.3.5.51.64c.21.14.45.21.72.21.23,0,.45-.05.66-.16.21-.11.47-.32.78-.63"/>
      <path class="cls-1" d="M49.46,78.3h.31v1.49h1.3v.44h-1.3v2.65c0,.23.02.39.06.48.04.1.11.18.2.24.1.06.2.09.32.09.28,0,.59-.12.92-.37v.43c-.38.26-.77.39-1.17.39-.22,0-.43-.05-.61-.15-.18-.1-.3-.22-.37-.35-.07-.13-.1-.37-.1-.7v-2.7h-.77v-.37c.25-.05.45-.14.6-.26.15-.12.27-.27.37-.46.09-.19.17-.47.23-.85"/>
      <path class="cls-1" d="M51.71,80.43v-.36c.21-.02.4-.05.57-.11.17-.05.36-.14.57-.26h.33v.83c.21-.26.45-.46.73-.61.27-.15.52-.22.74-.22s.39.05.51.15c.13.1.19.23.19.37,0,.11-.04.2-.13.28-.08.08-.18.12-.3.12-.05,0-.1,0-.14-.02-.04-.01-.09-.05-.17-.1-.16-.11-.3-.16-.4-.16-.15,0-.31.06-.48.18-.22.16-.4.31-.52.47v2.03c0,.18,0,.29.03.36.02.06.05.12.1.16.04.05.1.08.16.1.07.02.18.03.34.03h.15v.37h-2.27v-.37h.19c.18,0,.29-.02.35-.05.08-.04.13-.1.17-.18.04-.08.05-.22.05-.42v-2.59h-.76Z"/>
      <path class="cls-1" d="M57.86,80.12c-.33,0-.62.13-.85.4-.29.33-.44.8-.44,1.43s.12,1.06.37,1.38c.22.28.53.42.92.42.25,0,.47-.07.67-.2.19-.13.35-.34.47-.63.12-.29.18-.63.18-1.02s-.07-.72-.19-1.02c-.1-.24-.25-.43-.45-.56-.2-.13-.43-.2-.68-.2M57.9,79.69c.43,0,.8.09,1.12.27.31.18.56.44.74.78.18.34.27.73.27,1.17s-.09.83-.28,1.17c-.19.34-.44.6-.76.78-.32.18-.7.27-1.15.27-.71,0-1.24-.22-1.6-.66s-.53-.96-.53-1.56c0-.44.09-.82.28-1.16.18-.34.44-.6.78-.79.33-.19.71-.28,1.13-.28"/>
      <path class="cls-1" d="M60.67,78.33v-.36c.4-.03.79-.15,1.16-.37h.32v5.41c0,.23.01.37.04.43.04.08.09.14.17.18.07.04.21.06.42.06h.14v.37h-2.26v-.37h.23c.14,0,.25-.02.32-.07.07-.04.12-.1.15-.18.03-.08.04-.23.04-.45v-4.65h-.75Z"/>
      <path class="cls-1" d="M63.37,78.33v-.36c.4-.03.79-.15,1.16-.37h.32v5.41c0,.23.01.37.04.43.04.08.09.14.17.18.07.04.21.06.42.06h.14v.37h-2.26v-.37h.23c.14,0,.25-.02.32-.07.07-.04.12-.1.15-.18.03-.08.04-.23.04-.45v-4.65h-.75Z"/>
    </g>
  </g>
</svg>