<?xml version="1.0" encoding="UTF-8"?>
<svg id="Layer_2" data-name="Layer 2" xmlns="http://www.w3.org/2000/svg" viewBox="0 0 236.83 110.84">
  <defs>
    <style>
      .cls-1, .cls-2, .cls-3, .cls-4, .cls-5, .cls-6, .cls-7, .cls-8, .cls-9, .cls-10, .cls-11, .cls-12, .cls-13, .cls-14, .cls-15, .cls-16 {
        fill: none;
        stroke-linecap: round;
        stroke-linejoin: round;
        stroke-width: 1.5px;
      }

      .cls-1, .cls-5, .cls-9, .cls-11 {
        stroke-dasharray: .44 3.44;
      }

      .cls-1, .cls-8, .cls-10, .cls-15 {
        stroke: #be1e2d;
      }

      .cls-2, .cls-3, .cls-13, .cls-15 {
        stroke-dasharray: .11 3.11;
      }

      .cls-2, .cls-11, .cls-12, .cls-16 {
        stroke: #006838;
      }

      .cls-17 {
        fill: #231f20;
      }

      .cls-3, .cls-4, .cls-5, .cls-6 {
        stroke: #2b3990;
      }

      .cls-4, .cls-7, .cls-8, .cls-12 {
        stroke-dasharray: .03 3.03;
      }

      .cls-18 {
        fill: #006838;
      }

      .cls-18, .cls-19, .cls-20, .cls-21 {
        font-family: BookmanOldStyle-Bold, 'Bookman Old Style';
        font-size: 9px;
        font-weight: 700;
      }

      .cls-7, .cls-9, .cls-13, .cls-14 {
        stroke: #603913;
      }

      .cls-19 {
        fill: #be1e2d;
      }

      .cls-22 {
        fill: #da90be;
      }

      .cls-20 {
        fill: #2b3990;
      }

      .cls-21 {
        fill: #603913;
      }

      .cls-23 {
        fill: #27aae1;
      }
    </style>
  </defs>
  <g id="Layer_1-2" data-name="Layer 1">
    <rect class="cls-22" width="60.85" height="50.67"/>
    <rect class="cls-23" y="60.17" width="60.85" height="50.67"/>
    <line class="cls-2" x1="65.83" y1="2.33" x2="99.66" y2="2.33"/>
    <line class="cls-11" x1="101.27" y1="6" x2="101.27" y2="12.06"/>
    <line class="cls-12" x1="104.32" y1="14" x2="234.55" y2="14"/>
    <path class="cls-16" d="M236.06,14h.02M101.27,13.78v.22h.02M101.21,2.33h.06v.22M62.67,2.33h.05"/>
    <line class="cls-3" x1="65.83" y1="25.5" x2="99.66" y2="25.5"/>
    <line class="cls-5" x1="101.27" y1="29.17" x2="101.27" y2="35.22"/>
    <line class="cls-4" x1="104.32" y1="37.17" x2="234.55" y2="37.17"/>
    <path class="cls-6" d="M236.06,37.17h.02M101.27,36.94v.22h.02M101.21,25.5h.06v.22M62.67,25.5h.05"/>
    <line class="cls-13" x1="65.83" y1="48.67" x2="99.66" y2="48.67"/>
    <line class="cls-9" x1="101.27" y1="52.33" x2="101.27" y2="58.39"/>
    <line class="cls-7" x1="104.32" y1="60.33" x2="234.55" y2="60.33"/>
    <path class="cls-14" d="M236.06,60.33h.02M101.27,60.11v.22h.02M101.21,48.67h.06v.22M62.67,48.67h.05"/>
    <line class="cls-15" x1="65.83" y1="84.83" x2="99.66" y2="84.83"/>
    <line class="cls-1" x1="101.27" y1="88.5" x2="101.27" y2="94.55"/>
    <line class="cls-8" x1="104.32" y1="96.5" x2="234.55" y2="96.5"/>
    <path class="cls-10" d="M236.06,96.5h.02M101.27,96.28v.22h.02M101.21,84.83h.06v.22M62.67,84.83h.05"/>
    <path class="cls-17" d="M8.7,24.71v1.33c0,.19,0,.3.02.33.02.04.04.07.07.09.03.02.12.02.27.02h.45c.26,0,.48-.02.65-.07.17-.05.32-.15.44-.3.12-.15.18-.34.18-.55,0-.18-.04-.34-.13-.46-.09-.13-.21-.22-.38-.29-.17-.07-.43-.1-.78-.1h-.79ZM8.7,23.81h.67c.35,0,.61-.03.78-.09.17-.06.3-.15.38-.27.09-.12.13-.26.13-.41s-.04-.3-.12-.41c-.08-.11-.2-.2-.35-.24-.15-.05-.42-.07-.82-.07h-.67v1.49ZM6.46,22.17v-.85h3.48c.53,0,.95.06,1.26.19.31.12.54.3.7.54.16.23.25.49.25.77,0,.2-.04.39-.13.58-.09.18-.21.34-.38.48-.16.14-.38.25-.65.35.29.07.51.15.66.24.22.12.39.3.52.52.13.22.19.47.19.74,0,.32-.1.62-.29.9-.2.28-.47.48-.83.63-.36.14-.88.22-1.57.22h-3.21v-.85h.24c.16,0,.27-.01.33-.04.06-.03.1-.07.12-.12.02-.05.04-.17.04-.34v-3.42c0-.18-.01-.3-.04-.35-.02-.05-.06-.09-.12-.12-.06-.03-.17-.04-.33-.04h-.24Z"/>
    <path class="cls-17" d="M16.02,24.56c-.02-.17-.06-.31-.12-.41-.06-.1-.15-.18-.26-.24-.11-.06-.22-.09-.34-.09-.12,0-.24.03-.36.09-.11.06-.21.15-.28.25-.07.11-.11.24-.13.4h1.49ZM16.9,25.83l.6.61c-.35.4-.7.68-1.06.86-.36.18-.75.27-1.16.27-.67,0-1.23-.23-1.69-.68-.46-.45-.68-1-.68-1.64,0-.42.1-.81.31-1.16.21-.35.49-.62.85-.82.36-.2.77-.3,1.24-.3.29,0,.56.04.8.13.24.08.45.21.63.36.18.16.32.35.43.57.11.23.19.46.23.7.02.12.03.31.03.57h-2.96c0,.37.12.67.33.9.21.23.47.34.78.34.2,0,.41-.06.64-.18.23-.12.46-.3.69-.54"/>
    <path class="cls-17" d="M25.83,21.32l.53,2.06-.82.23c-.27-.49-.58-.85-.93-1.08-.35-.23-.71-.34-1.1-.34-.25,0-.45.05-.59.15-.15.1-.22.22-.22.34,0,.15.07.28.2.4.13.12.37.23.71.33l1.18.34c.65.19,1.12.44,1.4.75.28.31.41.68.41,1.09,0,.53-.21.98-.63,1.35-.47.41-1.06.61-1.76.61-.32,0-.62-.04-.9-.12-.27-.08-.56-.22-.85-.42l-.19.44h-.65l-.43-2.38.82-.2c.19.48.49.89.9,1.21.41.32.86.48,1.35.48.22,0,.4-.03.55-.08.15-.05.26-.13.33-.23.07-.1.11-.2.11-.31,0-.18-.09-.33-.26-.45-.17-.13-.47-.25-.9-.37l-1.02-.3c-.15-.04-.37-.13-.63-.25-.26-.12-.47-.25-.61-.38-.14-.13-.26-.3-.35-.51-.09-.21-.14-.42-.14-.65,0-.33.09-.62.27-.9.18-.27.45-.5.81-.67s.76-.26,1.2-.26c.53,0,1.01.14,1.44.41l.17-.31h.63Z"/>
    <path class="cls-17" d="M30.25,24.56c-.02-.17-.06-.31-.12-.41-.06-.1-.15-.18-.26-.24-.11-.06-.22-.09-.34-.09-.12,0-.24.03-.36.09-.11.06-.21.15-.28.25-.07.11-.11.24-.13.4h1.49ZM31.12,25.83l.6.61c-.35.4-.7.68-1.06.86-.36.18-.75.27-1.16.27-.67,0-1.23-.23-1.69-.68-.46-.45-.68-1-.68-1.64,0-.42.1-.81.31-1.16.21-.35.49-.62.85-.82.36-.2.77-.3,1.24-.3.29,0,.56.04.8.13.24.08.45.21.63.36.18.16.33.35.43.57.11.23.19.46.23.7.02.12.03.31.03.57h-2.96c0,.37.12.67.33.9.21.23.47.34.78.34.2,0,.41-.06.64-.18.23-.12.46-.3.69-.54"/>
    <path class="cls-17" d="M36.38,25.79l.65.57c-.35.42-.71.72-1.08.91-.37.19-.77.29-1.19.29-.68,0-1.25-.22-1.7-.66-.46-.44-.68-.98-.68-1.62,0-.43.11-.82.32-1.18.21-.36.5-.64.88-.83.37-.2.81-.3,1.31-.3.6,0,1.1.14,1.48.42.38.28.57.58.57.89,0,.13-.03.25-.09.35-.06.1-.15.19-.27.25-.12.07-.25.1-.39.1-.11,0-.21-.02-.3-.07-.09-.04-.16-.1-.22-.17-.03-.03-.08-.12-.15-.27-.1-.19-.17-.32-.22-.38-.05-.06-.12-.11-.19-.14-.07-.03-.16-.05-.25-.05-.15,0-.3.05-.44.15-.14.1-.25.25-.34.45-.09.2-.13.42-.13.67,0,.27.05.51.16.73.11.22.25.38.43.49.18.11.37.17.59.17s.41-.06.62-.17c.21-.11.43-.3.67-.58"/>
    <path class="cls-17" d="M37.48,23.07l2.05-.04v2.85c0,.2.01.34.04.4.02.07.07.12.14.16.07.04.15.06.25.06.15,0,.3-.03.47-.1.06-.03.24-.13.51-.31v-1.71c0-.15-.01-.25-.04-.31-.02-.06-.06-.1-.1-.12-.04-.03-.13-.04-.26-.04h-.26v-.85l2.06-.04v3.15c0,.17,0,.27.03.31.02.04.05.07.09.09.04.02.15.03.31.03h.23v.85l-1.93.05v-.52c-.26.19-.52.33-.78.43-.26.09-.52.14-.79.14-.21,0-.4-.03-.58-.1-.18-.07-.32-.16-.44-.28-.12-.12-.21-.25-.27-.41-.06-.15-.09-.35-.09-.6v-1.81c0-.17,0-.27-.03-.32-.02-.04-.05-.08-.1-.1-.04-.02-.14-.03-.28-.03h-.24v-.85Z"/>
    <path class="cls-17" d="M45.48,22.96v.64c.23-.25.44-.41.61-.5.17-.09.34-.13.5-.13.15,0,.27.03.39.1.11.07.2.16.27.28.07.12.1.26.1.4,0,.18-.06.35-.18.5-.12.15-.29.23-.51.23-.06,0-.11,0-.16-.01-.04,0-.14-.04-.29-.09-.08-.02-.14-.03-.19-.03-.08,0-.2.05-.38.15v1.72c0,.15.01.24.03.29.02.04.06.08.11.1.05.02.16.03.32.03h.19v.85h-2.71v-.85h.23c.16,0,.26-.01.3-.03.04-.02.07-.05.09-.09.02-.04.03-.14.03-.3v-2.02h-.65v-.84c.48-.03.97-.15,1.49-.37h.41Z"/>
    <path class="cls-17" d="M50.77,24.56c-.02-.17-.06-.31-.12-.41-.06-.1-.15-.18-.26-.24-.11-.06-.22-.09-.34-.09-.12,0-.24.03-.36.09-.11.06-.21.15-.28.25-.07.11-.11.24-.13.4h1.49ZM51.65,25.83l.6.61c-.35.4-.7.68-1.06.86-.36.18-.75.27-1.16.27-.67,0-1.23-.23-1.69-.68-.46-.45-.68-1-.68-1.64,0-.42.1-.81.31-1.16.21-.35.49-.62.85-.82.36-.2.77-.3,1.24-.3.29,0,.56.04.8.13.24.08.45.21.63.36.18.16.33.35.43.57.11.23.19.46.23.7.02.12.03.31.03.57h-2.96c0,.37.12.67.33.9.21.23.47.34.78.34.2,0,.41-.06.64-.18.23-.12.46-.3.69-.54"/>
    <path class="cls-17" d="M5.82,86.43v1.33c0,.19.01.3.02.33.01.04.04.07.07.08.03.02.12.03.27.03h.45c.26,0,.48-.03.65-.07.17-.05.32-.15.44-.3.12-.15.18-.33.18-.55,0-.18-.04-.34-.13-.46-.08-.13-.21-.22-.38-.28-.17-.07-.43-.1-.78-.1h-.79ZM5.82,85.53h.67c.35,0,.61-.03.78-.09.17-.06.29-.15.38-.27.08-.12.13-.26.13-.41s-.04-.3-.12-.41c-.08-.11-.2-.2-.35-.24-.15-.05-.43-.07-.82-.07h-.67v1.49ZM3.58,83.89v-.85h3.48c.53,0,.95.06,1.26.19.3.12.54.3.7.54.16.23.25.49.25.77,0,.2-.04.39-.13.58-.09.18-.21.34-.38.48-.16.14-.38.25-.65.34.29.07.51.15.66.24.22.12.39.29.52.52.13.22.19.47.19.74,0,.32-.1.62-.29.9-.2.27-.47.48-.83.63-.36.14-.88.22-1.57.22h-3.21v-.85h.24c.16,0,.27-.01.33-.04.06-.03.1-.07.12-.12.02-.05.04-.17.04-.35v-3.42c0-.18-.01-.3-.04-.35-.02-.05-.06-.09-.12-.12-.06-.03-.17-.04-.33-.04h-.24Z"/>
    <path class="cls-17" d="M13.15,86.28c-.02-.17-.06-.31-.12-.42-.06-.1-.15-.18-.26-.24-.11-.06-.22-.09-.34-.09-.12,0-.24.03-.36.09-.11.06-.21.15-.28.25-.07.11-.11.24-.13.4h1.49ZM14.03,87.55l.6.61c-.35.4-.7.68-1.06.86-.36.18-.75.27-1.16.27-.67,0-1.23-.23-1.69-.68-.46-.45-.68-1-.68-1.64,0-.42.1-.81.31-1.16.21-.35.49-.62.85-.82.36-.2.77-.3,1.24-.3.29,0,.56.04.8.13.24.09.45.21.63.36.18.16.33.35.43.57.11.23.19.46.23.7.02.12.03.31.03.57h-2.96c0,.37.12.67.33.9.21.23.47.35.78.35.2,0,.41-.06.64-.18.23-.12.46-.3.69-.54"/>
    <path class="cls-17" d="M20.58,84.05v1.59h.91c.36,0,.62-.03.8-.1.18-.07.31-.16.4-.28.09-.12.13-.27.13-.45,0-.16-.04-.3-.13-.41-.08-.12-.2-.2-.35-.26-.15-.06-.41-.08-.75-.08h-1.01ZM18.32,83.05h3.78c.24,0,.51.02.8.07.29.04.55.14.78.29.23.15.41.34.54.57.13.23.19.49.19.77,0,.47-.17.84-.5,1.13-.33.29-.73.48-1.18.57l1.26,1.47.05.07c.08.1.16.17.22.22.07.05.13.08.2.1.07.02.16.03.28.03h.26v.85h-1.96l-1.97-2.64h-.51v1.22c0,.21.01.34.04.4.02.06.06.1.11.13.05.03.15.04.31.04h.28v.85h-3v-.85h.27c.15,0,.25-.01.31-.05.06-.03.1-.08.13-.14.01-.04.02-.15.02-.33v-3.45c0-.13-.01-.23-.03-.29-.02-.06-.06-.09-.11-.11-.07-.03-.15-.05-.24-.05h-.12s-.23,0-.23,0v-.87Z"/>
    <path class="cls-17" d="M28.45,86.28c-.02-.17-.06-.31-.12-.42-.06-.1-.15-.18-.26-.24-.11-.06-.22-.09-.34-.09-.12,0-.24.03-.36.09-.11.06-.21.15-.28.25-.07.11-.11.24-.13.4h1.49ZM29.32,87.55l.6.61c-.35.4-.7.68-1.06.86-.36.18-.75.27-1.16.27-.67,0-1.23-.23-1.69-.68-.46-.45-.68-1-.68-1.64,0-.42.1-.81.31-1.16.21-.35.49-.62.85-.82.36-.2.77-.3,1.24-.3.29,0,.56.04.8.13.24.09.45.21.63.36.18.16.33.35.43.57.11.23.19.46.23.7.02.12.03.31.03.57h-2.96c0,.37.12.67.33.9.21.23.47.35.78.35.2,0,.41-.06.64-.18.23-.12.46-.3.69-.54"/>
    <path class="cls-17" d="M32.54,82.73v5.14c0,.17,0,.28.02.31.02.06.07.1.14.13.04.02.16.03.36.03h.15v.85h-2.72v-.85h.17c.18,0,.29-.01.34-.03.05-.02.09-.06.11-.1.02-.05.04-.16.04-.32v-3.92h-.65v-.85c.52-.04,1.07-.16,1.63-.37h.43Z"/>
    <path class="cls-17" d="M34.98,82.73c.22,0,.41.08.57.23.16.16.24.35.24.57s-.08.42-.24.57-.35.23-.57.23-.41-.08-.57-.23c-.16-.16-.24-.35-.24-.57s.08-.41.24-.57c.16-.16.35-.24.56-.24M35.69,84.69v3.25c0,.15,0,.25.03.28.02.04.05.06.1.08.04.02.15.03.31.03h.24v.85h-2.71v-.85h.23c.15,0,.25,0,.29-.02.04-.02.07-.04.09-.08.02-.04.03-.11.03-.23v-2.1h-.65v-.83c.23-.01.45-.04.66-.08.21-.04.4-.08.57-.14.11-.03.24-.09.4-.18h.42Z"/>
    <path class="cls-17" d="M39.52,87.25c-.38.05-.66.11-.81.17-.16.06-.27.13-.34.21-.07.09-.1.17-.1.27,0,.12.04.21.13.29.09.08.21.12.36.12.1,0,.21-.03.34-.07.13-.05.27-.12.43-.22v-.77ZM39.52,86.52v-.32c0-.19-.02-.33-.05-.4-.03-.07-.09-.13-.18-.18-.08-.05-.19-.07-.32-.07-.1,0-.18.02-.26.05-.08.03-.14.07-.19.12-.05.05-.1.15-.16.29-.08.18-.17.31-.28.39-.11.08-.24.12-.39.12-.19,0-.34-.06-.46-.18-.12-.12-.18-.26-.18-.43,0-.2.06-.37.18-.52.16-.2.41-.37.73-.5.32-.13.69-.19,1.1-.19s.75.07,1.04.2c.29.13.49.29.6.47.11.18.17.46.17.84v1.57c0,.19.01.32.03.37.02.05.07.1.13.14.07.04.14.06.22.06s.19-.02.33-.07v.86c-.25.08-.49.12-.72.12-.27,0-.5-.04-.69-.13-.19-.09-.35-.22-.48-.4-.29.19-.56.33-.8.41-.24.08-.47.12-.69.12-.42,0-.76-.12-1.01-.35-.26-.23-.39-.53-.39-.87,0-.2.04-.38.13-.54.09-.16.22-.31.4-.43.18-.12.45-.23.82-.33.37-.1.82-.16,1.35-.21"/>
    <path class="cls-17" d="M43.8,86.05v1.34c0,.27.02.46.06.56.04.1.12.18.22.25.11.07.23.1.38.1.24,0,.44-.1.58-.3.18-.25.27-.59.27-1.03,0-.41-.08-.73-.23-.96-.13-.18-.29-.27-.5-.27-.11,0-.24.03-.37.08-.13.05-.27.13-.42.24M43.8,82.73v2.37c.24-.15.46-.26.65-.32.19-.06.38-.09.57-.09.5,0,.91.18,1.24.54.38.42.57.98.57,1.69s-.19,1.29-.57,1.72c-.38.43-.84.65-1.38.65-.22,0-.43-.04-.63-.11-.2-.07-.41-.19-.63-.36l-.24.37h-.97v-5.23h-.64v-.85c.58-.04,1.12-.17,1.61-.37h.43Z"/>
    <path class="cls-17" d="M49.46,82.73v5.14c0,.17,0,.28.02.31.02.06.07.1.14.13.04.02.16.03.36.03h.15v.85h-2.72v-.85h.17c.18,0,.29-.01.34-.03.05-.02.09-.06.11-.1.02-.05.04-.16.04-.32v-3.92h-.65v-.85c.52-.04,1.07-.16,1.63-.37h.43Z"/>
    <path class="cls-17" d="M53.64,86.28c-.02-.17-.06-.31-.12-.42-.06-.1-.15-.18-.26-.24-.11-.06-.22-.09-.34-.09-.12,0-.24.03-.36.09-.11.06-.21.15-.28.25-.07.11-.11.24-.13.4h1.49ZM54.52,87.55l.6.61c-.35.4-.7.68-1.06.86-.36.18-.75.27-1.16.27-.67,0-1.23-.23-1.69-.68-.46-.45-.68-1-.68-1.64,0-.42.1-.81.31-1.16.21-.35.49-.62.85-.82.36-.2.77-.3,1.24-.3.29,0,.56.04.8.13.24.09.45.21.63.36.18.16.33.35.43.57.11.23.19.46.23.7.02.12.03.31.03.57h-2.96c0,.37.12.67.33.9.21.23.47.35.78.35.2,0,.41-.06.64-.18.23-.12.46-.3.69-.54"/>
    <text class="cls-18" transform="translate(104.34 10.88)"><tspan x="0" y="0">Choose password wisely</tspan></text>
    <text class="cls-20" transform="translate(104.34 34.8)"><tspan x="0" y="0">Know who you befriend</tspan></text>
    <text class="cls-21" transform="translate(104.34 57.96)"><tspan x="0" y="0">Beware of fake information</tspan></text>
    <text class="cls-19" transform="translate(104.34 93)"><tspan x="0" y="0">Think before you upload</tspan></text>
  </g>
</svg>