<?xml version="1.0" encoding="UTF-8"?>
<svg id="Layer_2" data-name="Layer 2" xmlns="http://www.w3.org/2000/svg" xmlns:xlink="http://www.w3.org/1999/xlink" viewBox="0 0 426.84 254.26">
  <defs>
    <style>
      .cls-1 {
        fill: #92278f;
      }

      .cls-2 {
        clip-path: url(#clippath-6);
      }

      .cls-3 {
        clip-path: url(#clippath-7);
      }

      .cls-4 {
        clip-path: url(#clippath-4);
      }

      .cls-5 {
        clip-path: url(#clippath-9);
      }

      .cls-6 {
        clip-path: url(#clippath-10);
      }

      .cls-7 {
        stroke: #71116e;
      }

      .cls-7, .cls-8, .cls-9, .cls-10 {
        fill: none;
      }

      .cls-7, .cls-9, .cls-10 {
        stroke-miterlimit: 10;
      }

      .cls-11 {
        clip-path: url(#clippath-11);
      }

      .cls-12 {
        font-family: BookmanOldStyle, 'Bookman Old Style';
        font-size: 10px;
      }

      .cls-12, .cls-13 {
        fill: #fff;
      }

      .cls-13 {
        font-family: BookmanOldStyle-Bold, 'Bookman Old Style';
        font-size: 11px;
        font-weight: 700;
      }

      .cls-14 {
        clip-path: url(#clippath-1);
      }

      .cls-15 {
        clip-path: url(#clippath-5);
      }

      .cls-16 {
        clip-path: url(#clippath-8);
      }

      .cls-9 {
        stroke: #6a0b67;
      }

      .cls-17 {
        clip-path: url(#clippath-3);
      }

      .cls-18 {
        fill: #009444;
      }

      .cls-10 {
        stroke: #009444;
        stroke-width: 2px;
      }

      .cls-19 {
        clip-path: url(#clippath-2);
      }

      .cls-20 {
        clip-path: url(#clippath);
      }
    </style>
    <clipPath id="clippath">
      <rect class="cls-8" width="426.83" height="254.26"/>
    </clipPath>
    <clipPath id="clippath-1">
      <rect class="cls-8" width="426.84" height="254.26"/>
    </clipPath>
    <clipPath id="clippath-2">
      <rect class="cls-8" width="426.83" height="254.26"/>
    </clipPath>
    <clipPath id="clippath-3">
      <rect class="cls-8" width="426.83" height="254.26"/>
    </clipPath>
    <clipPath id="clippath-4">
      <rect class="cls-8" width="426.84" height="254.26"/>
    </clipPath>
    <clipPath id="clippath-5">
      <rect class="cls-8" width="426.83" height="254.26"/>
    </clipPath>
    <clipPath id="clippath-6">
      <rect class="cls-8" width="426.84" height="254.26"/>
    </clipPath>
    <clipPath id="clippath-7">
      <rect class="cls-8" width="426.83" height="254.26"/>
    </clipPath>
    <clipPath id="clippath-8">
      <rect class="cls-8" width="426.84" height="254.26"/>
    </clipPath>
    <clipPath id="clippath-9">
      <rect class="cls-8" width="426.83" height="254.26"/>
    </clipPath>
    <clipPath id="clippath-10">
      <rect class="cls-8" width="426.83" height="254.26"/>
    </clipPath>
    <clipPath id="clippath-11">
      <rect class="cls-8" width="426.84" height="254.26"/>
    </clipPath>
  </defs>
  <g id="Layer_1-2" data-name="Layer 1">
    <g class="cls-20">
      <path class="cls-7" d="M32.89.5h76.74c8.36,0,15.15,6.79,15.15,15.15v95.85c0,8.36-6.79,15.15-15.15,15.15H32.89c-8.36,0-15.15-6.79-15.15-15.15V15.65C17.74,7.29,24.53.5,32.89.5Z"/>
    </g>
    <g class="cls-14">
      <path class="cls-1" d="M124.78,24.65H17.74v-9C17.74,7.28,24.53.5,32.89.5h76.74c8.37,0,15.15,6.78,15.15,15.15v9Z"/>
    </g>
    <g class="cls-19">
      <path class="cls-9" d="M124.78,24.65H17.74v-9C17.74,7.28,24.53.5,32.89.5h76.74c8.37,0,15.15,6.78,15.15,15.15v9Z"/>
    </g>
    <text class="cls-13" transform="translate(31.9 15.97)"><tspan x="0" y="0">Inventory</tspan></text>
    <g class="cls-17">
      <rect class="cls-7" x="147.76" y="116.61" width="107.04" height="137.15" rx="15.15" ry="15.15"/>
    </g>
    <g class="cls-4">
      <path class="cls-1" d="M254.8,140.76h-107.04v-9c0-8.37,6.78-15.15,15.15-15.15h76.74c8.37,0,15.15,6.78,15.15,15.15v9Z"/>
      <path class="cls-9" d="M254.8,140.76h-107.04v-9c0-8.37,6.78-15.15,15.15-15.15h76.74c8.37,0,15.15,6.78,15.15,15.15v9Z"/>
    </g>
    <text class="cls-12" transform="translate(31.9 38.92)"><tspan x="0" y="0">Car ID</tspan></text>
    <text class="cls-12" transform="translate(31.9 52.92)"><tspan x="0" y="0">CarName</tspan></text>
    <text class="cls-12" transform="translate(31.9 66.92)"><tspan x="0" y="0">Price</tspan></text>
    <text class="cls-12" transform="translate(31.9 80.92)"><tspan x="0" y="0">Model</tspan></text>
    <text class="cls-12" transform="translate(31.9 94.92)"><tspan x="0" y="0">YearManufacture</tspan></text>
    <text class="cls-12" transform="translate(31.9 108.92)"><tspan x="0" y="0">FuelType</tspan></text>
    <text class="cls-13" transform="translate(161.92 132.08)"><tspan x="0" y="0">Sale</tspan></text>
    <g class="cls-15">
      <path class="cls-7" d="M334.45,124.61h76.74c8.36,0,15.15,6.79,15.15,15.15v98.85c0,8.36-6.79,15.15-15.15,15.15h-76.74c-8.36,0-15.15-6.79-15.15-15.15v-98.85c0-8.36,6.79-15.15,15.15-15.15Z"/>
    </g>
    <g class="cls-2">
      <path class="cls-1" d="M426.33,148.76h-107.04v-9c0-8.37,6.78-15.15,15.15-15.15h76.74c8.37,0,15.15,6.78,15.15,15.15v9Z"/>
    </g>
    <g class="cls-3">
      <path class="cls-9" d="M426.33,148.76h-107.04v-9c0-8.37,6.78-15.15,15.15-15.15h76.74c8.37,0,15.15,6.78,15.15,15.15v9Z"/>
    </g>
    <text class="cls-12" transform="translate(333.46 163.02)"><tspan x="0" y="0">EmpID</tspan></text>
    <text class="cls-12" transform="translate(161.92 155.02)"><tspan x="0" y="0">InvoiceNo</tspan></text>
    <text class="cls-12" transform="translate(161.92 169.02)"><tspan x="0" y="0">CarID</tspan></text>
    <text class="cls-12" transform="translate(161.92 183.02)"><tspan x="0" y="0">CustID</tspan></text>
    <text class="cls-12" transform="translate(161.92 197.02)"><tspan x="0" y="0">SaleDate</tspan></text>
    <text class="cls-12" transform="translate(161.92 211.02)"><tspan x="0" y="0">PaymentMode</tspan></text>
    <text class="cls-12" transform="translate(161.92 225.02)"><tspan x="0" y="0">EmpID</tspan></text>
    <text class="cls-12" transform="translate(161.92 239.02)"><tspan x="0" y="0">SalePrice</tspan></text>
    <text class="cls-12" transform="translate(333.46 177.02)"><tspan x="0" y="0">EmpName</tspan></text>
    <text class="cls-12" transform="translate(333.46 191.02)"><tspan x="0" y="0">DOB</tspan></text>
    <text class="cls-12" transform="translate(333.46 205.02)"><tspan x="0" y="0">DOJ</tspan></text>
    <text class="cls-12" transform="translate(333.46 219.02)"><tspan x="0" y="0">Designation</tspan></text>
    <text class="cls-12" transform="translate(333.46 233.02)"><tspan x="0" y="0">Salary</tspan></text>
    <text class="cls-13" transform="translate(333.46 140.08)"><tspan x="0" y="0">Employee</tspan></text>
    <g class="cls-16">
      <path class="cls-1" d="M426.33,24.65h-107.04v-9c0-8.37,6.78-15.15,15.15-15.15h76.74c8.37,0,15.15,6.78,15.15,15.15v9Z"/>
    </g>
    <g class="cls-5">
      <path class="cls-9" d="M426.33,24.65h-107.04v-9c0-8.37,6.78-15.15,15.15-15.15h76.74c8.37,0,15.15,6.78,15.15,15.15v9Z"/>
      <path class="cls-7" d="M334.45.5h76.74c8.36,0,15.15,6.79,15.15,15.15v81.85c0,8.36-6.79,15.15-15.15,15.15h-76.74c-8.36,0-15.15-6.79-15.15-15.15V15.65c0-8.36,6.79-15.15,15.15-15.15Z"/>
    </g>
    <text class="cls-12" transform="translate(333.46 39.92)"><tspan x="0" y="0">CustID</tspan></text>
    <text class="cls-12" transform="translate(333.46 53.92)"><tspan x="0" y="0">CustName</tspan></text>
    <text class="cls-12" transform="translate(333.46 67.92)"><tspan x="0" y="0">CustAdd</tspan></text>
    <text class="cls-12" transform="translate(333.46 81.92)"><tspan x="0" y="0">Phone</tspan></text>
    <text class="cls-12" transform="translate(333.46 95.92)"><tspan x="0" y="0">Email</tspan></text>
    <text class="cls-13" transform="translate(333.46 15.97)"><tspan x="0" y="0">Customer</tspan></text>
    <g class="cls-6">
      <polyline class="cls-10" points="22.82 34.76 1 34.76 1 165.9 153.58 165.9"/>
    </g>
    <g class="cls-11">
      <polygon class="cls-18" points="21.36 29.77 30 34.76 21.36 39.74 21.36 29.77"/>
      <polygon class="cls-18" points="152.12 170.88 160.76 165.9 152.12 160.91 152.12 170.88"/>
      <polyline class="cls-10" points="206.57 180.26 284.39 180.26 284.39 34.76 323.21 34.76"/>
      <polygon class="cls-18" points="208.02 185.24 199.39 180.26 208.02 175.27 208.02 185.24"/>
      <polygon class="cls-18" points="321.76 39.74 330.39 34.76 321.76 29.77 321.76 39.74"/>
      <polyline class="cls-10" points="323.21 159.26 308.39 159.26 308.39 221.59 208.45 221.59"/>
      <polygon class="cls-18" points="321.76 154.27 330.39 159.26 321.76 164.24 321.76 154.27"/>
      <polygon class="cls-18" points="209.91 216.6 201.28 221.59 209.91 226.58 209.91 216.6"/>
    </g>
  </g>
</svg>