<?xml version="1.0" encoding="UTF-8"?>
<svg id="Layer_2" data-name="Layer 2" xmlns="http://www.w3.org/2000/svg" xmlns:xlink="http://www.w3.org/1999/xlink"
  viewBox="0 0 347.35 323.99">
  <defs>
    <style>
      .cls-1 {
        fill: #d8dce1;
      }

      .cls-2 {
        fill: #3a3c3f;
      }

      .cls-3 {
        fill: #2e3230;
      }

      .cls-4 {
        font-size: 9.06px;
      }

      .cls-4,
      .cls-5,
      .cls-6,
      .cls-7,
      .cls-8,
      .cls-9,
      .cls-10,
      .cls-11,
      .cls-12,
      .cls-13 {
        font-family: BookmanOldStyle-Bold, 'Bookman Old Style';
        font-weight: 700;
      }

      .cls-4,
      .cls-5,
      .cls-14,
      .cls-7,
      .cls-8,
      .cls-9,
      .cls-10,
      .cls-12,
      .cls-13 {
        fill: #fff;
      }

      .cls-15 {
        fill: #a8a8aa;
      }

      .cls-16 {
        letter-spacing: 0em;
      }

      .cls-5 {
        font-size: 9.07px;
      }

      .cls-6,
      .cls-11 {
        fill: #231f20;
      }

      .cls-6,
      .cls-13 {
        font-size: 9px;
      }

      .cls-17 {
        fill: #84878c;
      }

      .cls-7 {
        font-size: 9.16px;
      }

      .cls-8 {
        font-size: 9.16px;
      }

      .cls-18 {
        fill: none;
      }

      .cls-19 {
        fill: #545559;
      }

      .cls-20 {
        fill: #4a4a4d;
      }

      .cls-21 {
        fill: #5a5b5d;
      }

      .cls-22 {
        fill: #cdced3;
      }

      .cls-23 {
        fill: #b12a30;
      }

      .cls-24 {
        fill: #519fd7;
      }

      .cls-25 {
        fill: #515256;
      }

      .cls-26 {
        fill: #77767b;
      }

      .cls-27 {
        fill: #6d6e71;
      }

      .cls-28 {
        fill: #aeafb2;
      }

      .cls-29 {
        fill: #8dc63f;
      }

      .cls-30 {
        fill: #8b8d90;
      }

      .cls-31 {
        fill: #bbbec1;
      }

      .cls-32 {
        fill: #8d8f92;
      }

      .cls-9 {
        font-size: 9.08px;
      }

      .cls-10 {
        font-size: 9.1px;
      }

      .cls-11 {
        font-size: 5.25px;
      }

      .cls-33 {
        fill: #75767b;
      }

      .cls-34 {
        fill: #56606c;
      }

      .cls-35 {
        fill: #4c4d50;
      }

      .cls-36 {
        fill: #bcbec0;
      }

      .cls-37 {
        fill: #5a5a5f;
      }

      .cls-12 {
        font-size: 9.08px;
      }

      .cls-38 {
        clip-path: url(#clippath);
      }

      .cls-39 {
        fill: #a3a5a8;
      }

      .cls-40 {
        fill: #eff0f1;
      }
    </style>
    <clipPath id="clippath">
      <path class="cls-18"
        d="M4.83,154.44c0,16.06,12.75,29.09,28.47,29.09,2.32,0,4.57-.28,6.73-.82-.04-.49-.12-.98-.25-1.46-.06-3.79-.12-7.59-.17-11.39-.39-3.18-.39-6.36,0-9.55.46-5.5-.21-11.16,2.35-16.34.24-.49.59-.93.88-1.4h0c-.41-5.32-.71-10.65-1.21-15.96-2.63-.82-5.43-1.26-8.32-1.26-15.72,0-28.47,13.02-28.47,29.09" />
    </clipPath>
  </defs>
  <g id="Layer_1-2" data-name="Layer 1">
    <path class="cls-31"
      d="M292.89,311.74c0,6.77-57.29,12.26-127.97,12.26s-127.97-5.49-127.97-12.26,57.3-12.25,127.97-12.25,127.97,5.48,127.97,12.25" />
    <path class="cls-22"
      d="M315.02,307.94c0,8.86-70.52,16.05-157.51,16.05S0,316.81,0,307.94s70.52-16.05,157.51-16.05,157.51,7.18,157.51,16.05" />
    <path class="cls-28"
      d="M236.58,307.2c0,4.26-29.76,7.72-66.48,7.72s-66.48-3.46-66.48-7.72,29.76-7.72,66.48-7.72,66.48,3.46,66.48,7.72" />
    <path class="cls-14"
      d="M100.38,29.84c.6,2.84,1.66,5.47,3.93,7.3,1.86,1.5,1.72,2.72-.1,3.94-1.37.92-2.01,1.87-1.28,3.65.77,1.9-1.19,3.18-1.63,4.88-.46,1.75-.99,3.36-.83,5.21.22,2.68-1.06,4.17-3.67,4.79-3.37.81-6.69.29-9.93-.34-2.36-.46-3.13.63-3.37,2.46-.26,1.97-2.26,3.96.71,5.92,8.71,5.76,15.82,13.18,20.66,22.66,2.92,5.72,4.21,11.98,4.95,18.27.82,6.95,5.16,12.2,7.6,18.34.42,1.05,1.47.92,2.32,1.02,11.81,1.4,23.53,3.57,35.39,4.59,5.98.51,12.4.11,17.76,2.31,4.89,2.01,9.33.94,13.92,1.19,4.93.27,9.22,2.16,12.88,4.93,3.25,2.46,7.22,3.93,9.87,7.22-4.51,1.94-9.11.99-13.7.49-4.03-1.14-8-2.28-12.3-1.08-1.86.52-3.99.35-5.87-.43-1.6-.65-2.75-.07-3.85,1.02-1.49.73-3.07.37-4.61.36-8.56-.03-17.12.07-25.68-.05-2.04.09-4.08.02-6.12.02-2.81-.08-5.62-.29-8.41.29-12.67-.56-25.34-.13-38.01-.26-2.39-.02-4.59.75-6.83,1.37-.96.18-4.47,2.63-4.09,3.08.35.69.34,1.39.04,2.1-2.41,1.62-1.66.74-7.98,2.82-1.76,3.34-4.18,4.47-6.32,2.98-.75-3.7-.18-7.47-.5-11.2-.53-6.2-4.25-11.19-5.78-16.98-2.87-10.8-7.66-21.09-8.46-32.46-.22-3.14-.94-6.31.46-9.36.54-9.33,3.78-17.76,8.22-25.8,2.25-4.07,2.07-8.73,2.93-13.14.15-.78-.09-1.16-.69-1.65-6.89-5.68-10.95-13.13-12.85-21.88-.34-5.41.23-10.72,4.01-14.79,4.81-5.17,8.88-11.69,16.54-12.87,7.51-1.16,15.13-1.64,21.8,3.26,3.93,2.89,7.06,6.16,7.27,11.83.12,3.36,2.14,6.64,1.65,10.26.16,1.24.16,2.48-.05,3.72" />
    <path class="cls-36"
      d="M262.99,144.52c1.79-2.97,4.72-2.1,7.24-1.99,2.64.11,3.38-.69,3.36-3.41-.12-16.38-.17-32.76.02-49.13.04-3.7-2.16-3.1-4.27-3.5-2.41-.46-2.89.58-3.15,2.82-.75,6.31-1.77,12.59-2.8,18.87-.73,4.52-4.8,8.81-9.15,9.62-1.11.21-1.78.48-2.24,1.57-.54,1.29-1.63,2.12-2.8,2.83-1.59.96-3.51,1.8-5.03.84-1.37-.87-.12-2.72.08-4.1,2.13-14.83,4.24-29.66,6.6-44.45.23-1.44.13-2.14.14-3.23q.65-2.95.87-4.4c2.04-13.47,3.94-26.95,5.89-40.43.65.09,1.5-.07,1.93.3,4.76,4.05,10.95,6.64,13.09,13.4.4,1.27.39,2.45.2,3.68-1.2,8.08-2.32,16.17-3.71,24.21-.43,2.5.35,3.18,2.57,3.34,2.88.2,5.75.59,8.61.98,6.82.93,9.6,7.73,5.24,13.23-1.26,1.58-1.63,3.02-1.63,4.89.04,16.13.08,32.27-.04,48.4-.02,2.73.53,3.88,3.43,3.63,6.3-.53,11.89,2.41,17.7,4.2-.4,1.88-1.98,1.63-3.2,1.65-12.25.14-24.5.03-36.75.08-3.08.01-2.66-1.9-2.21-3.9" />
    <path class="cls-17"
      d="M262.99,144.52c-.34,2.51.6,3.02,3.11,2.97,11.88-.21,23.77-.07,35.65-.11,1.14,0,2.47.56,3.4-.7,2.6,1.94,5.61,1.51,8.53,1.51,10.02.01,20.04.09,30.06-.06,2.7-.04,3.73.62,3.6,3.56-.22,4.95-.04,4.95-4.73,4.99-.89,0-1.77.11-2.65.17l-.32-.03-.3.11c-1.29.45-2.63.38-3.96.38-49.61-.02-99.22,0-148.82,0-2.12,0-4.23-.01-6.32.37-10.89.6-21.78.21-32.68.23-2.38,0-3.81-1.15-3.82-3.69-.01-2.27-.46-4.51-.44-6.78,9.39-.36,18.78-.3,28.17.07.86.03,1.74.41,2.5-.3,6.3.33,12.61-.49,18.9.21.87.1,1.73.48,2.6-.03,4.65,1.4,9.39.88,14.11.61,16.92.05,33.84.02,50.76.23,3.2.04,1.45-2.75,2.66-3.72" />
    <path class="cls-19"
      d="M55.18,302.41c.3-2.34,1.65-3.99,3.39-5.38,11.29-1.83,22.57-3.76,33.89-5.45,6.17-.92,6.6-.78,6.12-6.91-1.03-13.23,3.1-26.15,1.93-39.35-.09-1.05.19-1.78,1.4-1.76.11.17.21.34.32.5-.12,5.44,0,10.89-.13,16.32-.06,2.71.99,3.55,3.54,3.54,5.17-.02,5.88-.63,5.94-6.05.04-3.63-.07-7.27.05-10.9.05-1.42-.11-3.05,1.67-3.72,2.1.04,2.12,1.7,2.21,3.13.2,3.05.06,6.11.08,9.17.03,3.38-.32,6.78,1.53,9.91.68,1.16.46,2.65.47,4.01.02,5.21-.02,10.42.02,15.63.03,4.38.31,4.68,4.66,5.3,2.53.36,5.05.73,7.55,1.27,1.13.24,2.52.18,2.95,1.74-1.72,2.19-4,3.08-6.7,3.16-11.31.31-22.62,1.12-33.83,2.34-9.9,1.07-19.93,1.49-29.69,3.85-2.43.59-5,1.39-7.37-.37" />
    <path class="cls-36"
      d="M39.6,160.32c.46-5.5-.21-11.16,2.35-16.34.24-.49.58-.93.88-1.4,1.9-.16,1.66,1.44,1.78,2.49,1.56,14.08,2.99,28.17,4.68,42.23.36,3.04-.26,6.12.28,9.15.43,5.54,2.36,10.18,7.34,13.07.76.44,1.34,1.14,1.77,1.95,1.52,5.09,5.11,6.58,10.01,6.56,24.6-.09,49.2-.05,73.8-.03.34,0,.68-.01,1.02-.02,1.54-.05,3.09-.1,4.47.91.1,3.4-2.39,3.72-4.71,3.86-4.42.26-8.86.11-13.29.08-1.7-.01-3.4,0-5.1.02-3.61.03-7.23.06-10.84-.15-.96-.1-1.88-.46-2.83-.61-.9-.06-1.8-.05-2.7-.07-.6,0-1.2,0-1.79,0-.79,0-1.59,0-2.38.02-.24,0-.48.02-.72.04-.61.05-1.23.1-1.82-.2-9.69-.02-19.39,0-29.08-.07-4.79-.04-9.53-.57-14.19-1.89-6.92-1.96-12.08-6.06-15.48-12.51-1.84-.79-1.36-2.75-1.99-4.14-.27-4.76-.54-9.52-.81-14.28-.62-2.55.21-5.19-.47-7.74-.06-3.8-.12-7.59-.17-11.39-.39-3.18-.39-6.37,0-9.55" />
    <path class="cls-30"
      d="M108.59,221.08c.88.02,1.76.04,2.64.06,1.68,2.98.6,6.22.82,9.33.34,4.86.41,9.64-1.28,14.42-1.28,3.63-.35,7.64-.49,11.49-.04.9,0,1.81,0,2.72-.05,5.41-1.45,6.48-6.74,5.4-1.76-.36-1.63-1.64-1.61-2.84.08-5.66-.31-11.33.23-16.98.04-.4-.18-.62-.37-.88l.14-.23c-.04-7.23-.07-14.45-.11-21.68.68-.3,1.26-.93,2.11-.74,1.06,1.22.96,2.72.97,4.18.04,4.18,0,8.37.02,12.55,0,1.02-.01,2.04.27,3.03.16.58.46,1.09,1.1,1.06.63-.03.89-.57,1.04-1.14.26-1,.24-2.02.25-3.03.01-4.18-.01-8.37.02-12.55.01-1.47-.05-2.97,1.01-4.17" />
    <path class="cls-20"
      d="M310.64,304.43c.14,5.63.14,5.58-5.28,5.64-23.03.24-46.05-.27-69.08.47-4.28,1.77-8.54,1.81-12.78-.16-2.51-6.61.9-12.08,7.72-12.34.88-.03,1.75-.17,2.62-.24,5.6.34,11.2.14,16.8.18,1.21,0,2.43.02,3.48-.73,1.42-2.34,3.55-3.01,6.05-2.47,7.02,1.51,14.2,1.1,21.29,1.68,1.91.16,2.43,1.45,3.6,2.21,6.7.15,13.39-.31,20.08.24,1.69.96,3.28,2.07,4.58,3.55.3.66.6,1.32.9,1.98" />
    <path class="cls-24"
      d="M48.81,197c-.64-12.88-2.56-25.64-3.82-38.46-.53-5.34-.76-10.74-2.16-15.96-.46-5.95-.78-11.92-1.4-17.86-1.13-10.93-2.44-21.84-3.67-32.76-.27-2.38.52-4.38,2.63-5.43,2.36-1.17,4.96-1.65,7.24.14,1.46,1.14,2.62,2.68,3.91,4.04.08,10.16,2.05,19.78,5.31,29.5,2.72,8.09,5.39,16.2,8.3,24.24,1.91,5.27,1.37,10.98,1.23,16.55-.13,1.49-1.08,2.39-2.12,3.29-5.85,5.02-9.25,11.45-10.66,19.1-.64,3.47-.09,6.76.64,10.09.26,1.19.94,2.35.35,3.63-2.29.74-3.82-.24-5.11-2.13-.28.21.19.65.08,1.04-.13.46-.31.81-.75.98" />
    <path class="cls-37"
      d="M284.57,298.93c-.84-.68-1.42-1.3-2.82-1.45-7.11-.77-14.34.02-21.37-1.75-2.34-.59-4.6-.55-5.29,2.59-1.6-1.8-1-3.98-1.01-6.06,0-1.23.04-2.45-.1-3.68-.07-31.19-.02-62.37-.03-93.56,0-6.94,0-13.89,0-20.83q0-5.94-5.97-5.95c-20.61,0-41.23,0-61.84,0-6.75,0-7.42-.76-7.06-7.75.06-1.25.07-2.52.99-3.52.88-1.3,2.22-.82,3.38-.82,50.83-.02,101.67-.02,152.5,0,1.15,0,2.49-.49,3.39.79-.27,3.36,1.41,7.86-.72,9.77-1.85,1.66-6.14.53-9.36.53-14.04.02-28.07.04-42.1-.03-2.03,0-2.93.33-2.92,2.75.09,40.85.09,81.7.12,122.55,0,.34.07.68.11,1.02-.25,1.6-.27,3.2.11,4.78.15.14.2.28.15.41-.05.14-.1.21-.15.21" />
    <path class="cls-1"
      d="M284.57,298.93c-.06-.21-.06-.41,0-.62,5.82,0,11.64-.02,17.45.02,1.06,0,2.22-.35,3.13.57-6.86.01-13.72.02-20.58.03" />
    <path class="cls-24"
      d="M130.13,148.18c2.95,1.41,5.73,2.98,6.79,6.47,1.03,3.4.4,4.36-2.97,4.4-7.32.09-14.65.16-21.97.24-.9.5-1.87.7-2.89.7-8.11-.03-16.23.2-24.34-.12-1.39-.21-2.64-.78-3.74-1.67-.89-.94-2-1.8-1.28-3.38.08-.67.15-1.35.23-2.02-.08-2.15,1.32-2.92,3.03-3.4,3.24-1.63,6.64-2.19,10.26-2.14,9.88.13,19.77.07,29.65.03,2.12,0,4.2.12,6.26.61.42-.26.74-.16.96.28" />
    <path class="cls-37"
      d="M79.73,154.82c-.02,1.18.72,1.97,1.39,2.79-1.17,2.31-3.68,2.11-5.55,3.1-.69.28-1.38.58-2.05.92-.39.22-.79.43-1.18.64-2.8,1.33-5.1,3.36-7.24,5.59-7.98,7.97-10.64,17.28-6.85,28.22.98,3.17,3.13,5.72,4.44,8.72-.31,1.68-1.42,2.24-2.96,2.21-3.24-2.48-4.86-5.88-5.38-9.9-2.74-8.46-2.23-16.63,2.05-24.48,1.97-3.61,4.63-6.62,7.72-9.22.87-.73,1.63-1.49,2.29-2.4,2.18-.19,3.62-1.87,5.44-2.79.26-.3.42-.29.91-.71,2.33-.9,4.65-1.8,6.98-2.69" />
    <path class="cls-40"
      d="M195.45,147.4c-.33.25-.66.72-.99.72-6.42.04-12.84.03-19.25.01-.61,0-1.02-.36-1.26-.92-.2-2.42,1.32-2.44,2.71-1.67,3.42,1.9,6.87,1.46,10.28.38,3.16-1,5.58,1.59,8.51,1.47" />
    <path class="cls-17"
      d="M130.13,148.18c-.32-.09-.64-.19-.96-.28,2.7-.91,5.46-.64,8.21-.46-2.35.91-4.85.32-7.26.74" />
    <path class="cls-39"
      d="M284.24,79.55c-.05,2.8-2.46,5.08-5.26,4.96-2.82-.12-4.68-2.14-4.67-5.08.01-2.72,2.19-5.03,4.77-5.06,2.62-.03,5.2,2.57,5.15,5.18" />
    <path class="cls-35"
      d="M125.28,302.47c-5.92-.31-11.67-2.28-17.61-2.08-9.73.33-19.34,2.02-29.01,3.11-2.64.3-5.27.91-7.9.86-2.38-.05-3.66.79-4.18,3.06-.36-2.38-.97.79-1.39-.06-.44-.04.09-.3-.28-.12-2.62,1.3-5.25.89-7.89.13-1.74-.22-.9-2.15-1.84-2.9,0-.68,0-1.37,0-2.06,6.07.55,11.73-2.02,17.71-2.4,7.59-.48,15.13-1.71,22.71-2.36,10.69-.9,21.38-1.85,32.11-2.07,2.01-.04,2.93-2.57,5.08-2.14,1.16-1.04,2.5-.77,3.83-.58,5.32.95,10.68,1.64,16.01,2.52,3.17.52,5.62,1.95,6.67,5.26.22.92.22,1.85-.04,2.76-.29.86-.88,1.48-1.55,2.05-.62.48-1.26.94-1.73,1.59-1.39,1.93-2.98,2.35-4.73.52-.7-.73-1.35-.6-2.09-.2-1.12-.24-1.66-1.54-2.87-1.58-5.99-.59-11.95-1.44-17.9-2.3-1.1-.16-2.23-.23-3.13-1.01" />
    <path class="cls-2"
      d="M65.18,307.21c.38-.48.76-.96,1.13-1.44.09.55.18,1.1.27,1.65-.87,3.56-2.25,4.49-6.83,4.63-3.25-1.11-4.71-3.52-4.8-6.92.08-.22.15-.44.23-.66,1.83.05.77,2.15,1.86,2.73,2.71,2.18,5.43,2.1,8.14,0" />
    <path class="cls-33"
      d="M113.34,221.86c-.34,7.24-.34,14.48,0,21.72-1.18.95-.76,2.29-.77,3.49-.04,4.43,0,8.86-.02,13.29,0,2.98-1.24,4.57-4.42,4.52-7.91-.11-6.92.49-6.87-6.85.03-4.74-.53-9.52.51-14.23,1.31.74.75,2.02.77,3.06.06,4.89.14,9.79-.02,14.68-.09,2.58,1.29,2.74,3.13,2.63,1.69-.1,3.75.55,3.6-2.5-.14-2.95-.05-5.92-.02-8.87.03-3.79-.52-7.65,1.44-11.21.79-1.43.54-3.1.56-4.69.04-5.26-.59-10.51,0-15.77.71.24,1.41.48,2.12.72" />
    <path class="cls-24"
      d="M173.2,207.26c-5.07,0-10.14.05-15.21,0-1.62-.02-2.19.22-1.99,2.23.63,6.4-1.65,8.96-8.11,9.67-18.81-.04-37.63-.08-56.44-.12-7.9-.01-15.81,0-23.72,0-6.76,0-8.59-1.5-10.04-8.22-.19-1.77-.05-3.37,1.88-4.12,1.1-.32,2.15-.7,2.47-2,1.08-2.24,3.24-2,5.12-2.24,3.28-.42,6.54.25,9.81.44,9.95,3.55,20.26,3.73,30.63,3.54,7.33-.14,14.67.1,22.01-.05,12.99-.27,25.98-.99,38.98-.62,1.62.04,3.62-.68,4.6,1.53" />
    <path class="cls-15"
      d="M108.59,221.08c0,6.37-.02,12.74,0,19.11,0,1.81.02,3.54-2.49,3.46-2.31-.08-2.22-1.74-2.22-3.39.01-6.37.02-12.74.03-19.1,1.56-.02,3.12-.05,4.68-.07" />
    <path class="cls-14"
      d="M72.9,161.72c-2.93,1.05-5.38,2.78-7.18,5.4-4.27,7.55-6.18,15.5-3.96,24.16,1.5,5.23,4.38,9.21,9.71,10.77,1.8.53,3.61,1.08,5.49,1.33,5.42,2.43,11.15,3.79,17.01,3.97,15.99.5,31.99.15,47.98-.17,10.64-.21,21.28-.84,31.93.07,3.08-.59,3.61-.12,4.15,3.84,2.52,18.3,5.7,36.5,9.4,54.6,1.39,6.82,2.79,13.64,4.2,20.53,5.23-2.42,5.11-2.4,6,3.13.27,1.65-.73,2.74-.82,4.15q.21,1.08-.72,4.79c.03,1.35.02,2.71.08,4.06.26,5.09,2.61,7.46,7.5,7.49,6.41.04,14.17.02,20.58.03.02-.57.06-1.13.07-1.7.09-7.06,1.7-8.81,8.42-9.24.51-.03,1.01-.33,1.52-.51-2.9-3.33-6.96-4.57-10.8-6.2-2.33-.89-5.49-2.59-7.4-4.11-1.6-1.27-2.24-6.2-1.01-6.29,2.68-.18,2.02-1.94,1.83-3.4-.47-3.6-1.05-7.18-1.62-10.76-2.81-17.7-5.56-35.4-7.12-53.28-.65-7.44.22-14.94-1.81-22.2-1.9-6.77-5.87-11.12-12.75-12.9-11.83-3.06-23.99-3.22-36-4.58-11.93-1.35-23.91-2.2-35.88-3.17-1.83-.15-2.7-.62-3-2.63-.44-2.99-1.79-5.65-4.49-7.19-1.05-.6-1.19-1.52-1.54-2.44-9.38-.6-18.77-.14-28.15-.24l-3.48-.85-8.11,3.52Z" />
    <path class="cls-24"
      d="M65.05,167.12c-1.23,5.8-4.48,11.08-4.02,17.33.17,2.38.62,4.7.83,7.06-.21,3.89-.93,4.75-4.22,5.09-4.5-9.91-.88-24.3,7.42-29.48" />
    <path class="cls-14"
      d="M115.27,138.46c.1.64-.17,1.34-.72,1.3-1.39-.09-1.89.13-2.06,1.82-.21,2.07-1.46,3.51-3.51,1.29-.6-.64-.75-.76-1.32.08-.64.95-1.67,1.41-2.79.51.09-1.34,1.82-.19,1.9-1.64-1.47-.29-3.05-1.06-2.18-2.97.77-1.68,2.71-.23,3.37-.47,1.91-.7,3.77.13,5.52-.53.76-.29,1.25.19,1.78.6l.02.02Z" />
    <path class="cls-25"
      d="M279.17,81.89c-1.66.06-2.53-.91-2.52-2.44,0-1.54,1.02-2.48,2.55-2.47,1.56,0,2.43,1.04,2.5,2.55.08,1.68-1.01,2.34-2.53,2.36" />
    <path class="cls-3"
      d="M158.68,303.8c.23,3.03.76,6.14-2.84,7.76-4.36,1.95-8.27-.95-8.53-6.4,1.53-.16,1.2,1.49,1.95,2.09.22,0,.45,0,.64.11,4.6,2.62,4.75,2.58,7.44-2.15.45-.47.89-.94,1.34-1.41" />
    <path class="cls-32"
      d="M65.18,307.21c-2.91,4.01-5.29,4.01-8.14,0,.12-.63-.2-1.49.54-1.8.57-.23,1.02.31,1.31.81,1.44,2.46,2.88,2.79,4.26-.03.27-.56.49-1.05,1.16-.91,1.12.23.68,1.24.88,1.94" />
    <path class="cls-26"
      d="M157.33,305.21c.4,2.26-.59,3.86-2.56,4.57-2.48.9-4.28-.33-5.53-2.53.24-.89.26-3.08,1.62-1.23,2.09,2.84,3.39,2.85,5.03-.15.21-.38.94-.44,1.44-.65" />
    <path class="cls-14" d="M110.46,138.1c1.15,1.89,1.09,3.14.19,4.87-1.25-1.59-.97-2.88-.19-4.87" />
    <text class="cls-13" transform="translate(123.87 26.43) scale(1 1.02)">
      <tspan x="0" y="0">Viewing Distance 19"-24"</tspan>
    </text>
    <text class="cls-13" transform="translate(139.32 129.39) scale(1 1.02)">
      <tspan x="0" y="0">Wrist Straight</tspan>
    </text>
    <text class="cls-6" transform="translate(117.26 140) scale(1 1.02)">
      <tspan x="0" y="0">90</tspan>
    </text>
    <text class="cls-11" transform="translate(129.15 136.93) scale(1 1.02)">
      <tspan x="0" y="0">0</tspan>
    </text>
    <text class="cls-6" transform="translate(87.27 185.28) scale(1 1.02)">
      <tspan x="0" y="0">Seat Back Angle 90</tspan>
    </text>
    <text class="cls-11" transform="translate(177.82 182.22) scale(1 1.02)">
      <tspan x="0" y="0">0</tspan>
    </text>
    <text class="cls-12" transform="translate(154.72 43.6) rotate(18.52) scale(1 1.02)">
      <tspan x="0" y="0">V</tspan>
    </text>
    <text class="cls-7" transform="translate(160.86 45.67) rotate(18.52)">
      <tspan x="0" y="0">i</tspan>
    </text>
    <text class="cls-9" transform="translate(163.94 46.74) rotate(18.52) scale(1 1.02)">
      <tspan x="0" y="0">e</tspan>
    </text>
    <text class="cls-4" transform="translate(168.89 48.44) rotate(18.52) scale(1 1.02)">
      <tspan x="0" y="0">w</tspan>
    </text>
    <text class="cls-7" transform="translate(175.7 50.74) rotate(18.52)">
      <tspan x="0" y="0">i</tspan>
    </text>
    <text class="cls-5" transform="translate(178.78 51.82) rotate(18.52) scale(1 1.02)">
      <tspan x="0" y="0">n</tspan>
    </text>
    <text class="cls-10" transform="translate(184.58 53.78) rotate(18.52) scale(1 1.01)">
      <tspan x="0" y="0">g</tspan>
    </text>
    <text class="cls-12" transform="translate(192.42 56.48) rotate(18.52) scale(1 1.02)">
      <tspan x="0" y="0">A</tspan>
    </text>
    <text class="cls-5" transform="translate(198.57 58.58) rotate(18.52) scale(1 1.02)">
      <tspan x="0" y="0">n</tspan>
    </text>
    <text class="cls-10" transform="translate(204.37 60.55) rotate(18.52) scale(1 1.01)">
      <tspan x="0" y="0">g</tspan>
    </text>
    <text class="cls-8" transform="translate(209.31 62.23) rotate(18.52)">
      <tspan x="0" y="0">l</tspan>
    </text>
    <text class="cls-9" transform="translate(212.22 63.24) rotate(18.52) scale(1 1.02)">
      <tspan x="0" y="0">e</tspan>
    </text>
    <text class="cls-6" transform="translate(167.03 205.67) scale(1 1.02)">
      <tspan x="0" y="0">Ang</tspan>
      <tspan class="cls-16" x="17.82" y="0">l</tspan>
      <tspan x="20.89" y="0">e</tspan>
    </text>
    <text class="cls-13" transform="translate(25.06 247.11) scale(1 1.02)">
      <tspan x="0" y="0">Adjustable</tspan>
    </text>
    <text class="cls-6" transform="translate(150.73 197.22) scale(1 1.02)">
      <tspan x="0" y="0">90</tspan>
    </text>
    <text class="cls-11" transform="translate(162.61 194.15) scale(1 1.02)">
      <tspan x="0" y="0">0</tspan>
    </text>
    <text class="cls-6" transform="translate(167.76 197.42) scale(1 1.02)">
      <tspan x="0" y="0">Knee </tspan>
    </text>
    <text class="cls-13" transform="translate(78.04 247.06) scale(1 1.02)">
      <tspan x="0" y="0">Seat</tspan>
    </text>
    <text class="cls-13" transform="translate(25.47 257.37) scale(1 1.02)">
      <tspan x="0" y="0">Height</tspan>
    </text>
    <text class="cls-13" transform="translate(132.33 256.66) scale(1 1.02)">
      <tspan x="0" y="0">23"-28"</tspan>
    </text>
    <polygon class="cls-29"
      points="253.55 29.05 98.57 29.05 248.03 82.37 248.36 81.41 104.47 30.07 253.55 30.07 253.55 29.05" />
    <rect class="cls-23" x="103.09" y="93.14" width="1" height="59.22" />
    <polyline class="cls-23" points="94.54 146.33 204.22 146.33 204.22 145.31 94.54 145.31" />
    <path class="cls-23"
      d="M110.26,143.19h-.5c0,1.82-.72,3.45-1.88,4.64-1.17,1.19-2.77,1.92-4.54,1.92-1.78,0-3.38-.73-4.54-1.92-1.16-1.19-1.88-2.83-1.88-4.64s.72-3.45,1.88-4.64c1.16-1.19,2.77-1.92,4.54-1.92s3.38.73,4.54,1.92c1.16,1.19,1.88,2.83,1.88,4.64h1c0-4.19-3.33-7.59-7.43-7.59-4.1,0-7.43,3.4-7.43,7.59,0,4.19,3.33,7.59,7.43,7.59,4.1,0,7.43-3.4,7.43-7.59h-.5Z" />
    <rect class="cls-23" x="76.07" y="168.88" width="1" height="142.84" />
    <polyline class="cls-23" points="51.83 188.98 221.47 188.98 221.47 187.96 51.83 187.96" />
    <path class="cls-23"
      d="M85.71,188.24h-.5c0,2.82-1.12,5.36-2.92,7.21-1.81,1.85-4.3,2.99-7.05,2.99s-5.25-1.14-7.06-2.99c-1.81-1.85-2.92-4.39-2.92-7.21s1.12-5.36,2.92-7.21c1.81-1.85,4.3-2.99,7.06-2.99s5.25,1.14,7.05,2.99c1.81,1.85,2.92,4.39,2.92,7.21h1c0-6.19-4.92-11.21-10.98-11.21-6.06,0-10.98,5.02-10.98,11.21s4.91,11.21,10.98,11.21c6.06,0,10.98-5.02,10.98-11.21h-.5Z" />
    <path class="cls-23"
      d="M204.16,188.24h-.5c0,1.58-.63,3.01-1.64,4.04-1.01,1.04-2.41,1.67-3.96,1.67s-2.94-.64-3.96-1.67c-1.01-1.04-1.64-2.46-1.64-4.04s.62-3.01,1.64-4.04c1.01-1.04,2.41-1.67,3.96-1.67s2.94.64,3.96,1.67c1.01,1.04,1.64,2.46,1.64,4.04h1c0-3.72-2.95-6.74-6.6-6.74s-6.6,3.02-6.6,6.74,2.95,6.74,6.6,6.74,6.6-3.02,6.6-6.74h-.5Z" />
    <rect class="cls-23" x="197.56" y="176.32" width="1" height="133.87" />
    <g class="cls-38">
      <rect class="cls-27" x="4.83" y="124.42" width="38" height="62.43" />
    </g>
    <path class="cls-21"
      d="M42.83,142.58h0c-.29.46-.64.91-.88,1.4-2.56,5.18-1.89,10.85-2.35,16.34-.39,3.18-.39,6.36,0,9.55.06,3.8.12,7.59.17,11.39.13.48.2.97.25,1.46,2.6-.64,5.07-1.65,7.33-2.97-.77-7.07-1.67-14.12-2.36-21.2-.53-5.34-.76-10.74-2.16-15.96" />
    <path class="cls-34"
      d="M41.62,126.62c.5,5.31.8,10.64,1.21,15.96,1.4,5.22,1.64,10.63,2.16,15.96.7,7.08,1.59,14.13,2.36,21.2,8.61-5,14.41-14.46,14.41-25.3,0-13.11-8.48-24.19-20.15-27.82" />
    <text class="cls-13" transform="translate(15.54 140.23) scale(1 1.02)">
      <tspan x="0" y="0">Lumber</tspan>
    </text>
    <text class="cls-13" transform="translate(15.54 151.26) scale(1 1.02)">
      <tspan x="0" y="0">Support </tspan>
    </text>
    <text class="cls-13" transform="translate(15.54 162.3) scale(1 1.02)">
      <tspan x="0" y="0">for Lower</tspan>
    </text>
    <text class="cls-13" transform="translate(15.54 173.33) scale(1 1.02)">
      <tspan x="0" y="0">Back</tspan>
    </text>
    <path class="cls-14"
      d="M221.34,248.93h5.07l.69,1.96-.8.28c-.13-.28-.25-.5-.37-.64-.12-.15-.26-.27-.42-.36-.16-.1-.34-.16-.52-.19-.13-.02-.35-.03-.67-.03h-.76v1.63h.39c.15,0,.26-.02.34-.07s.14-.1.18-.17c.04-.07.05-.19.05-.35v-.33h.79v2.74h-.79v-.4c0-.11-.01-.2-.03-.25-.03-.07-.06-.13-.11-.17-.05-.04-.1-.07-.16-.09-.06-.02-.17-.03-.33-.03h-.34v1.29c0,.16.01.26.04.31.03.05.07.09.13.12.06.03.17.04.34.04h.25v.85h-2.99v-.85h.2c.22,0,.37-.03.44-.09.07-.06.1-.17.1-.34v-3.52c0-.16-.01-.27-.04-.32s-.07-.09-.13-.12c-.06-.03-.18-.04-.37-.04h-.2v-.85ZM231.42,253.44l.6.61c-.35.4-.7.68-1.06.86-.36.18-.75.27-1.16.27-.67,0-1.23-.23-1.69-.68s-.69-1-.69-1.64c0-.42.1-.81.31-1.16.21-.35.49-.62.85-.82.36-.2.77-.3,1.23-.3.29,0,.56.04.8.13.24.09.45.21.63.36s.33.35.44.57.19.46.23.7c.02.12.03.31.03.57h-2.96c0,.37.11.67.33.9.21.23.47.34.78.34.2,0,.41-.06.64-.18.23-.12.46-.3.69-.54ZM230.54,252.17c-.02-.18-.06-.31-.13-.42s-.15-.18-.26-.24c-.11-.06-.22-.09-.34-.09-.12,0-.24.03-.36.09-.11.06-.21.15-.28.25-.07.11-.11.24-.13.4h1.49ZM236.64,253.44l.6.61c-.35.4-.7.68-1.06.86-.36.18-.75.27-1.16.27-.67,0-1.23-.23-1.69-.68s-.69-1-.69-1.64c0-.42.1-.81.31-1.16.21-.35.49-.62.85-.82.36-.2.77-.3,1.23-.3.29,0,.56.04.8.13.24.09.45.21.63.36s.33.35.44.57.19.46.23.7c.02.12.03.31.03.57h-2.96c0,.37.11.67.33.9.21.23.47.34.78.34.2,0,.41-.06.64-.18.23-.12.46-.3.69-.54ZM235.76,252.17c-.02-.18-.06-.31-.13-.42s-.15-.18-.26-.24c-.11-.06-.22-.09-.34-.09-.12,0-.24.03-.36.09-.11.06-.21.15-.28.25-.07.11-.11.24-.13.4h1.49ZM239.86,249.17v1.51h1.42v.94h-1.42v1.53c0,.35.02.57.05.67.04.1.1.18.2.24.13.08.28.12.45.12.3,0,.6-.1.9-.29v.94c-.25.12-.49.2-.69.25s-.43.07-.67.07c-.27,0-.51-.03-.72-.1-.21-.07-.39-.17-.54-.29-.15-.13-.25-.26-.31-.41-.06-.14-.09-.35-.09-.62v-2.09h-.66v-.84c.23-.08.44-.19.6-.33.17-.14.3-.31.4-.51.1-.2.17-.45.21-.76h.85ZM247.53,250.57c.5,0,.94.1,1.31.29.37.2.66.46.86.8.2.34.3.73.3,1.19,0,.69-.22,1.24-.67,1.67-.45.43-1.04.64-1.78.64s-1.36-.22-1.81-.65c-.43-.41-.65-.97-.65-1.67,0-.46.1-.86.3-1.19.2-.33.48-.6.86-.8.37-.2.8-.3,1.29-.3ZM247.54,251.53c-.17,0-.32.05-.47.15-.15.1-.26.25-.34.44-.08.19-.12.44-.12.74s.04.56.12.76.19.35.33.45c.14.1.29.15.46.15.26,0,.48-.11.66-.33.18-.22.28-.56.28-1.02s-.09-.78-.26-1-.39-.34-.66-.34ZM252.61,250.57v.58c.33-.23.61-.38.85-.46.24-.08.48-.12.72-.12.28,0,.54.06.75.18.22.12.38.27.48.45.1.18.15.44.15.77v1.83c0,.16.01.25.03.3s.06.08.1.1c.04.01.14.02.32.02h.22v.85h-2.58v-.85c.2,0,.31,0,.33-.01.07-.02.12-.05.15-.1.02-.05.04-.15.04-.3v-1.61c0-.21-.02-.34-.07-.4-.07-.1-.18-.15-.33-.15-.13,0-.26.03-.4.08-.14.06-.34.17-.58.34v1.74c0,.19.02.31.06.35.04.04.14.07.3.07h.14v.85h-2.55v-.85h.13c.2,0,.33,0,.38-.03s.08-.05.11-.09c.02-.04.04-.13.04-.26v-2.04h-.65v-.85c.53-.07,1.02-.19,1.48-.37h.41ZM259.83,250.68h.66c0-.29.02-.52.07-.69.07-.26.22-.5.44-.72s.49-.38.81-.49.71-.16,1.15-.16c.21,0,.43.01.67.03.33.03.55.04.69.04.14,0,.33-.02.55-.07h.44v5.12c0,.19,0,.3.03.34.02.05.06.09.11.11.05.02.15.04.31.04h.22v.85h-2.71v-.85h.22c.16,0,.26-.01.31-.03.05-.02.08-.06.1-.11.02-.05.03-.17.03-.35v-3.95l-.5-.18c-.16-.05-.31-.07-.46-.07-.22,0-.41.05-.58.14-.17.09-.29.2-.36.33-.07.13-.11.32-.11.57v.11h1.03v.94h-1.03v2.11c0,.2.01.33.04.37.02.05.07.08.15.1.06.01.21.02.47.02v.85h-2.71v-.85h.17c.17,0,.29-.01.34-.04.06-.02.1-.06.12-.1.02-.04.03-.15.03-.32v-2.14h-.66v-.94ZM268.95,250.57c.5,0,.94.1,1.31.29.37.2.66.46.86.8.2.34.3.73.3,1.19,0,.69-.22,1.24-.67,1.67-.45.43-1.04.64-1.78.64s-1.36-.22-1.81-.65c-.43-.41-.65-.97-.65-1.67,0-.46.1-.86.3-1.19.2-.33.48-.6.86-.8.37-.2.8-.3,1.29-.3ZM268.96,251.53c-.17,0-.32.05-.47.15-.15.1-.26.25-.34.44-.08.19-.12.44-.12.74s.04.56.12.76.19.35.33.45c.14.1.29.15.46.15.26,0,.48-.11.66-.33.18-.22.28-.56.28-1.02s-.09-.78-.26-1-.39-.34-.66-.34ZM274.53,250.57c.5,0,.94.1,1.31.29.37.2.66.46.86.8.2.34.3.73.3,1.19,0,.69-.22,1.24-.67,1.67-.45.43-1.04.64-1.78.64s-1.36-.22-1.81-.65c-.43-.41-.65-.97-.65-1.67,0-.46.1-.86.3-1.19.2-.33.48-.6.86-.8.37-.2.8-.3,1.29-.3ZM274.54,251.53c-.17,0-.32.05-.47.15-.15.1-.26.25-.34.44-.08.19-.12.44-.12.74s.04.56.12.76.19.35.33.45c.14.1.29.15.46.15.26,0,.48-.11.66-.33.18-.22.28-.56.28-1.02s-.09-.78-.26-1-.39-.34-.66-.34ZM279.61,250.57v.64c.23-.25.44-.41.61-.5.17-.09.34-.13.5-.13.14,0,.27.03.39.1.11.07.2.16.27.28s.1.25.1.4c0,.18-.06.35-.18.5-.12.15-.29.22-.51.22-.06,0-.11,0-.16-.01s-.14-.04-.29-.09c-.08-.02-.14-.04-.19-.04-.08,0-.2.05-.38.15v1.72c0,.15.01.24.03.29s.06.08.11.1c.05.02.16.03.33.03h.19v.85h-2.71v-.85h.23c.16,0,.26,0,.3-.03s.07-.05.09-.09c.02-.04.03-.14.03-.29v-2.02h-.65v-.84c.48-.03.97-.15,1.49-.37h.41Z" />
    <text class="cls-13" transform="translate(220.99 265.86)">
      <tspan x="0" y="0">footrest for</tspan>
    </text>
    <text class="cls-13" transform="translate(220.99 276.66)">
      <tspan x="0" y="0">shorter people</tspan>
    </text>
  </g>
</svg>