<?xml version="1.0" encoding="UTF-8"?>
<svg id="Layer_2" xmlns="http://www.w3.org/2000/svg" version="1.1" xmlns:xlink="http://www.w3.org/1999/xlink" viewBox="0 0 404 251.4">
  <!-- Generator: Adobe Illustrator 29.1.0, SVG Export Plug-In . SVG Version: 2.1.0 Build 142)  -->
  <defs>
    <style>
      .st0 {
        clip-path: url(#clippath-4);
      }

      .st1 {
        stroke: #fff;
      }

      .st1, .st2 {
        stroke-miterlimit: 10;
      }

      .st1, .st2, .st3 {
        fill: none;
      }

      .st4 {
        fill: #fff;
        font-family: BookmanOldStyle, 'Bookman Old Style';
      }

      .st4, .st5, .st6, .st7 {
        isolation: isolate;
      }

      .st4, .st6 {
        font-size: 10px;
      }

      .st2 {
        stroke: #009444;
      }

      .st8 {
        clip-path: url(#clippath-1);
      }

      .st6, .st7 {
        font-family: BookmanOldStyle-Bold, 'Bookman Old Style';
        font-weight: 700;
      }

      .st9 {
        clip-path: url(#clippath-5);
      }

      .st10 {
        clip-path: url(#clippath-3);
      }

      .st11 {
        fill: #009444;
      }

      .st12 {
        fill: #8cc6ec;
      }

      .st13 {
        clip-path: url(#clippath-2);
      }

      .st14 {
        clip-path: url(#clippath);
      }

      .st7 {
        font-size: 11px;
      }
    </style>
    <clipPath id="clippath">
      <rect class="st3" width="404" height="251.4"/>
    </clipPath>
    <clipPath id="clippath-1">
      <rect class="st3" width="404" height="251.4"/>
    </clipPath>
    <clipPath id="clippath-2">
      <rect class="st3" width="404" height="251.4"/>
    </clipPath>
    <clipPath id="clippath-3">
      <rect class="st3" width="404" height="251.4"/>
    </clipPath>
    <clipPath id="clippath-4">
      <rect class="st3" width="404" height="251.4"/>
    </clipPath>
    <clipPath id="clippath-5">
      <rect class="st3" width="404" height="251.4"/>
    </clipPath>
  </defs>
  <g id="Layer_1-2">
    <polyline class="st2" points="197.5 35.7 343 35.7 343 47.9"/>
    <polygon class="st11" points="339 46.7 343 53.7 347 46.7 339 46.7"/>
    <polyline class="st2" points="198 35.7 52.5 35.7 52.5 47.9"/>
    <polygon class="st11" points="48.5 46.7 52.5 53.7 56.5 46.7 48.5 46.7"/>
    <g class="st14">
      <rect class="st1" x=".5" y="59.1" width="121" height="86.5"/>
    </g>
    <rect class="st12" x=".5" y="59.1" width="121" height="24.1"/>
    <g class="st8">
      <rect class="st1" x=".5" y="59.1" width="121" height="24.1"/>
    </g>
    <g class="st5">
      <text class="st4" transform="translate(9.1 97.5)"><tspan x="0" y="0">POWER()</tspan></text>
    </g>
    <g class="st5">
      <text class="st4" transform="translate(9.1 113.5)"><tspan x="0" y="0">ROUND()</tspan></text>
    </g>
    <g class="st5">
      <text class="st4" transform="translate(9.1 129.5)"><tspan x="0" y="0">MOD()</tspan></text>
    </g>
    <g class="st5">
      <text class="st6" transform="translate(9.1 74.6)"><tspan x="0" y="0">Numeric Function</tspan></text>
    </g>
    <g class="st13">
      <rect class="st1" x="141.5" y="59.1" width="121" height="191.8"/>
    </g>
    <rect class="st12" x="141.5" y="59.1" width="121" height="24.1"/>
    <rect class="st1" x="141.5" y="59.1" width="121" height="24.1"/>
    <g class="st5">
      <text class="st4" transform="translate(150.1 97.5)"><tspan x="0" y="0">UCASE()</tspan></text>
    </g>
    <g class="st5">
      <text class="st4" transform="translate(150.1 113.5)"><tspan x="0" y="0">LCASE()</tspan></text>
    </g>
    <g class="st5">
      <text class="st4" transform="translate(150.1 129.5)"><tspan x="0" y="0">MID()</tspan></text>
    </g>
    <g class="st5">
      <text class="st4" transform="translate(150.1 145.5)"><tspan x="0" y="0">LENGTH()</tspan></text>
    </g>
    <g class="st5">
      <text class="st4" transform="translate(150.1 161.5)"><tspan x="0" y="0">LEFT()</tspan></text>
    </g>
    <g class="st5">
      <text class="st4" transform="translate(150.1 177.5)"><tspan x="0" y="0">RIGHT()</tspan></text>
    </g>
    <g class="st5">
      <text class="st4" transform="translate(150.1 193.5)"><tspan x="0" y="0">INSTR()</tspan></text>
    </g>
    <g class="st5">
      <text class="st4" transform="translate(150.1 209.5)"><tspan x="0" y="0">LTRIM()</tspan></text>
    </g>
    <g class="st5">
      <text class="st4" transform="translate(150.1 225.5)"><tspan x="0" y="0">RTRIM()</tspan></text>
    </g>
    <g class="st5">
      <text class="st4" transform="translate(150.1 241.5)"><tspan x="0" y="0">TRIM()</tspan></text>
    </g>
    <g class="st5">
      <text class="st6" transform="translate(150.1 74.6)"><tspan x="0" y="0">String Function</tspan></text>
    </g>
    <g class="st10">
      <rect class="st1" x="282.5" y="59.1" width="121" height="145.8"/>
    </g>
    <rect class="st12" x="282.5" y="59.1" width="121" height="24.1"/>
    <g class="st0">
      <rect class="st1" x="282.5" y="59.1" width="121" height="24.1"/>
    </g>
    <g class="st5">
      <text class="st6" transform="translate(291.1 74.6)"><tspan x="0" y="0">Date Function</tspan></text>
    </g>
    <line class="st2" x1="198" y1="47.9" x2="198" y2="21.6"/>
    <polygon class="st11" points="202 46.7 198 53.7 194 46.7 202 46.7"/>
    <rect class="st12" x="107.9" y=".5" width="178.2" height="24.1"/>
    <g class="st9">
      <rect class="st1" x="107.9" y=".5" width="178.2" height="24.1"/>
    </g>
    <g class="st5">
      <text class="st4" transform="translate(291.1 97.5)"><tspan x="0" y="0">NOW()</tspan></text>
    </g>
    <g class="st5">
      <text class="st4" transform="translate(291.1 113.5)"><tspan x="0" y="0">DATE()</tspan></text>
    </g>
    <g class="st5">
      <text class="st4" transform="translate(291.1 129.5)"><tspan x="0" y="0">MONTH()</tspan></text>
    </g>
    <g class="st5">
      <text class="st4" transform="translate(291.1 145.5)"><tspan x="0" y="0">MONTHNAME()</tspan></text>
    </g>
    <g class="st5">
      <text class="st4" transform="translate(291.1 161.5)"><tspan x="0" y="0">YEAR()</tspan></text>
    </g>
    <g class="st5">
      <text class="st4" transform="translate(291.1 177.5)"><tspan x="0" y="0">DAY()</tspan></text>
    </g>
    <g class="st5">
      <text class="st4" transform="translate(291.1 193.5)"><tspan x="0" y="0">DAYNAME()</tspan></text>
    </g>
    <g class="st5">
      <text class="st7" transform="translate(137.6 15.2)"><tspan x="0" y="0">Single Row Function</tspan></text>
    </g>
  </g>
</svg>