<?xml version="1.0" encoding="UTF-8"?>
<svg id="Layer_2" data-name="Layer 2" xmlns="http://www.w3.org/2000/svg" xmlns:xlink="http://www.w3.org/1999/xlink" viewBox="0 0 213.38 120.51">
  <defs>
    <style>
      .cls-1, .cls-2 {
        fill: none;
      }

      .cls-3 {
        fill: #231f20;
        font-family: BookmanOldStyle, 'Bookman Old Style';
        font-size: 12px;
      }

      .cls-2 {
        stroke: #231f20;
        stroke-miterlimit: 10;
      }

      .cls-4 {
        fill: #63b7e6;
      }

      .cls-5 {
        clip-path: url(#clippath);
      }
    </style>
    <clipPath id="clippath">
      <rect class="cls-1" y="0" width="213.38" height="120.51"/>
    </clipPath>
  </defs>
  <g id="Layer_1-2" data-name="Layer 1">
    <g class="cls-5">
      <path class="cls-4" d="M106.69,110.92c-10.97,5.73-24.37,9.1-38.83,9.1C30.66,120.01.5,97.71.5,70.22S30.66,20.43,67.87,20.43c14.46,0,27.86,3.37,38.83,9.1-17.27,9.02-28.54,23.88-28.54,40.7s11.28,31.68,28.54,40.7"/>
      <path class="cls-2" d="M106.69,110.92c-10.97,5.73-24.37,9.1-38.83,9.1C30.66,120.01.5,97.71.5,70.22S30.66,20.43,67.87,20.43c14.46,0,27.86,3.37,38.83,9.1-17.27,9.02-28.54,23.88-28.54,40.7s11.28,31.68,28.54,40.7Z"/>
      <path class="cls-4" d="M135.23,70.22c0,16.81-11.27,31.67-28.53,40.7-17.27-9.02-28.54-23.88-28.54-40.7s11.28-31.68,28.54-40.7c17.27,9.03,28.53,23.89,28.53,40.7"/>
      <path class="cls-2" d="M135.23,70.22c0,16.81-11.27,31.67-28.53,40.7-17.27-9.02-28.54-23.88-28.54-40.7s11.28-31.68,28.54-40.7c17.27,9.03,28.53,23.89,28.53,40.7Z"/>
      <path class="cls-4" d="M212.88,70.22c0,27.5-30.16,49.79-67.36,49.79-14.46,0-27.85-3.37-38.83-9.1,17.27-9.02,28.53-23.89,28.53-40.7s-11.27-31.67-28.53-40.7c10.97-5.73,24.37-9.1,38.83-9.1,37.2,0,67.36,22.3,67.36,49.79"/>
      <path class="cls-2" d="M212.88,70.22c0,27.5-30.16,49.79-67.36,49.79-14.46,0-27.85-3.37-38.83-9.1,17.27-9.02,28.53-23.89,28.53-40.7s-11.27-31.67-28.53-40.7c10.97-5.73,24.37-9.1,38.83-9.1,37.2,0,67.36,22.3,67.36,49.79Z"/>
    </g>
    <text class="cls-3" transform="translate(45.69 10.09)"><tspan x="0" y="0">Music</tspan></text>
    <text class="cls-3" transform="translate(126.67 10.09)"><tspan x="0" y="0">Dance</tspan></text>
  </g>
</svg>