<?xml version="1.0" encoding="UTF-8"?>
<svg id="Layer_2" xmlns="http://www.w3.org/2000/svg" version="1.1" xmlns:xlink="http://www.w3.org/1999/xlink" viewBox="0 0 247.6 159.4">
  <!-- Generator: Adobe Illustrator 29.1.0, SVG Export Plug-In . SVG Version: 2.1.0 Build 142)  -->
  <defs>
    <style>
      .st0 {
        clip-path: url(#clippath-76);
      }

      .st1 {
        clip-path: url(#clippath-51);
      }

      .st2 {
        clip-path: url(#clippath-34);
      }

      .st3 {
        fill: url(#linear-gradient2);
      }

      .st4 {
        fill: url(#linear-gradient36);
      }

      .st5 {
        clip-path: url(#clippath-38);
      }

      .st6 {
        clip-path: url(#clippath-21);
      }

      .st7 {
        fill: url(#linear-gradient39);
      }

      .st8 {
        clip-path: url(#clippath-6);
      }

      .st9 {
        clip-path: url(#clippath-7);
      }

      .st10 {
        clip-path: url(#clippath-17);
      }

      .st11 {
        clip-path: url(#clippath-80);
      }

      .st12 {
        clip-path: url(#clippath-31);
      }

      .st13 {
        clip-path: url(#clippath-79);
      }

      .st14 {
        fill: url(#linear-gradient34);
      }

      .st15 {
        clip-path: url(#clippath-75);
      }

      .st16 {
        clip-path: url(#clippath-15);
      }

      .st17 {
        clip-path: url(#clippath-33);
      }

      .st18 {
        clip-path: url(#clippath-61);
      }

      .st19 {
        clip-path: url(#clippath-18);
      }

      .st20 {
        clip-path: url(#clippath-47);
      }

      .st21 {
        clip-path: url(#clippath-4);
      }

      .st22 {
        clip-path: url(#clippath-71);
      }

      .st23 {
        fill: url(#linear-gradient33);
      }

      .st24 {
        fill: url(#linear-gradient10);
      }

      .st25 {
        clip-path: url(#clippath-22);
      }

      .st26 {
        clip-path: url(#clippath-23);
      }

      .st27, .st28 {
        font-family: BookmanOldStyle, 'Bookman Old Style';
        font-size: 9.7px;
      }

      .st27, .st28, .st29 {
        isolation: isolate;
      }

      .st27, .st30 {
        fill: #fff;
      }

      .st31 {
        fill: url(#linear-gradient32);
      }

      .st32 {
        clip-path: url(#clippath-82);
      }

      .st33 {
        fill: url(#linear-gradient21);
      }

      .st34 {
        clip-path: url(#clippath-54);
      }

      .st35 {
        clip-path: url(#clippath-66);
      }

      .st36 {
        fill: url(#linear-gradient37);
      }

      .st37 {
        fill: url(#linear-gradient27);
      }

      .st38 {
        clip-path: url(#clippath-9);
      }

      .st39 {
        clip-path: url(#clippath-70);
      }

      .st40 {
        clip-path: url(#clippath-10);
      }

      .st41 {
        clip-path: url(#clippath-42);
      }

      .st28, .st42 {
        fill: #231f20;
      }

      .st43 {
        fill: url(#linear-gradient35);
      }

      .st44 {
        clip-path: url(#clippath-59);
      }

      .st45 {
        clip-path: url(#clippath-43);
      }

      .st46 {
        clip-path: url(#clippath-64);
      }

      .st47 {
        fill: url(#linear-gradient26);
      }

      .st48 {
        fill: url(#linear-gradient1);
      }

      .st49 {
        clip-path: url(#clippath-25);
      }

      .st50 {
        clip-path: url(#clippath-27);
      }

      .st51 {
        fill: url(#linear-gradient9);
      }

      .st52 {
        fill: url(#linear-gradient18);
      }

      .st53 {
        clip-path: url(#clippath-60);
      }

      .st54 {
        fill: url(#linear-gradient23);
      }

      .st55 {
        clip-path: url(#clippath-93);
      }

      .st56 {
        fill: url(#linear-gradient43);
      }

      .st57 {
        clip-path: url(#clippath-11);
      }

      .st58 {
        clip-path: url(#clippath-57);
      }

      .st59 {
        fill: url(#linear-gradient8);
      }

      .st60 {
        clip-path: url(#clippath-88);
      }

      .st61 {
        fill: url(#linear-gradient11);
      }

      .st62 {
        fill: none;
      }

      .st63 {
        clip-path: url(#clippath-85);
      }

      .st64 {
        clip-path: url(#clippath-36);
      }

      .st65 {
        clip-path: url(#clippath-92);
      }

      .st66 {
        clip-path: url(#clippath-35);
      }

      .st67 {
        clip-path: url(#clippath-48);
      }

      .st68 {
        clip-path: url(#clippath-28);
      }

      .st69 {
        fill: url(#linear-gradient16);
      }

      .st70 {
        fill: url(#linear-gradient24);
      }

      .st71 {
        fill: url(#linear-gradient30);
      }

      .st72 {
        clip-path: url(#clippath-1);
      }

      .st73 {
        clip-path: url(#clippath-56);
      }

      .st74 {
        fill: url(#linear-gradient46);
      }

      .st75 {
        fill: url(#linear-gradient22);
      }

      .st76 {
        clip-path: url(#clippath-90);
      }

      .st77 {
        clip-path: url(#clippath-45);
      }

      .st78 {
        clip-path: url(#clippath-89);
      }

      .st79 {
        clip-path: url(#clippath-46);
      }

      .st80 {
        clip-path: url(#clippath-40);
      }

      .st81 {
        fill: url(#linear-gradient29);
      }

      .st82 {
        clip-path: url(#clippath-5);
      }

      .st83 {
        clip-path: url(#clippath-20);
      }

      .st84 {
        clip-path: url(#clippath-8);
      }

      .st85 {
        fill: url(#linear-gradient19);
      }

      .st86 {
        fill: url(#linear-gradient12);
      }

      .st87 {
        clip-path: url(#clippath-52);
      }

      .st88 {
        clip-path: url(#clippath-41);
      }

      .st89 {
        clip-path: url(#clippath-67);
      }

      .st90 {
        fill: url(#linear-gradient42);
      }

      .st91 {
        fill: url(#linear-gradient28);
      }

      .st92 {
        clip-path: url(#clippath-74);
      }

      .st93 {
        clip-path: url(#clippath-3);
      }

      .st94 {
        fill: url(#linear-gradient40);
      }

      .st95 {
        clip-path: url(#clippath-26);
      }

      .st96 {
        fill: url(#linear-gradient7);
      }

      .st97 {
        clip-path: url(#clippath-91);
      }

      .st98 {
        clip-path: url(#clippath-12);
      }

      .st99 {
        clip-path: url(#clippath-50);
      }

      .st100 {
        fill: url(#linear-gradient20);
      }

      .st101 {
        fill: url(#linear-gradient4);
      }

      .st102 {
        fill: url(#linear-gradient31);
      }

      .st103 {
        clip-path: url(#clippath-14);
      }

      .st104 {
        clip-path: url(#clippath-30);
      }

      .st105 {
        clip-path: url(#clippath-77);
      }

      .st106 {
        clip-path: url(#clippath-19);
      }

      .st107 {
        fill: url(#linear-gradient14);
      }

      .st108 {
        fill: url(#linear-gradient5);
      }

      .st109 {
        clip-path: url(#clippath-78);
      }

      .st110 {
        fill: url(#linear-gradient3);
      }

      .st111 {
        clip-path: url(#clippath-72);
      }

      .st112 {
        clip-path: url(#clippath-84);
      }

      .st113 {
        clip-path: url(#clippath-32);
      }

      .st114 {
        fill: url(#linear-gradient38);
      }

      .st115 {
        fill: url(#linear-gradient25);
      }

      .st116 {
        clip-path: url(#clippath-55);
      }

      .st117 {
        fill: url(#linear-gradient15);
      }

      .st118 {
        clip-path: url(#clippath-73);
      }

      .st119 {
        fill: url(#linear-gradient17);
      }

      .st120 {
        clip-path: url(#clippath-53);
      }

      .st121 {
        clip-path: url(#clippath-39);
      }

      .st122 {
        clip-path: url(#clippath-81);
      }

      .st123 {
        fill: url(#linear-gradient6);
      }

      .st124 {
        clip-path: url(#clippath-16);
      }

      .st125 {
        clip-path: url(#clippath-2);
      }

      .st126 {
        clip-path: url(#clippath-29);
      }

      .st127 {
        clip-path: url(#clippath-49);
      }

      .st128 {
        clip-path: url(#clippath-37);
      }

      .st129 {
        clip-path: url(#clippath-58);
      }

      .st130 {
        clip-path: url(#clippath-13);
      }

      .st131 {
        fill: url(#linear-gradient48);
      }

      .st132 {
        fill: url(#linear-gradient13);
      }

      .st133 {
        fill: url(#linear-gradient45);
      }

      .st134 {
        fill: url(#linear-gradient47);
      }

      .st135 {
        clip-path: url(#clippath-86);
      }

      .st136 {
        fill: url(#linear-gradient);
      }

      .st137 {
        clip-path: url(#clippath-63);
      }

      .st138 {
        fill: url(#linear-gradient44);
      }

      .st139 {
        clip-path: url(#clippath-24);
      }

      .st140 {
        clip-path: url(#clippath);
      }

      .st141 {
        fill: url(#linear-gradient41);
      }

      .st142 {
        clip-path: url(#clippath-87);
      }

      .st143 {
        clip-path: url(#clippath-68);
      }

      .st144 {
        clip-path: url(#clippath-83);
      }

      .st145 {
        clip-path: url(#clippath-65);
      }

      .st146 {
        clip-path: url(#clippath-44);
      }

      .st147 {
        clip-path: url(#clippath-62);
      }

      .st148 {
        clip-path: url(#clippath-69);
      }
    </style>
    <clipPath id="clippath">
      <path class="st62" d="M72.7,60c-3.6,5.1-5.9,12.2-5.9,20s2.3,14.9,5.9,20c3.2,4.5,7.5,7.5,12.2,8.1-8.2-2.8-14.3-14.4-14.3-28.1s6.1-25.3,14.3-28.1c-4.7.6-9,3.5-12.2,8.1M92.7,51.3h0ZM92.7,51.3h0M91.2,51.3h1.5-1.5M0,79.5c0,16.2,9,29.3,20.1,29.3h62.5c-4.2-1.2-7.9-4.1-10.8-8.1-3.8-5.3-6.1-12.6-6.1-20.7s2.3-15.4,6.1-20.7c2.9-4.1,6.7-7,10.9-8.1l-62.6-1c-11.1,0-20.1,13.1-20.1,29.3Z"/>
    </clipPath>
    <linearGradient id="linear-gradient" x1="-1770.1" y1="302.2" x2="-1769.1" y2="302.2" gradientTransform="translate(-28840.6 169247.4) rotate(90) scale(95.6 -95.6)" gradientUnits="userSpaceOnUse">
      <stop offset="0" stop-color="#afb1b4"/>
      <stop offset="0" stop-color="#a0a2a4"/>
      <stop offset="0" stop-color="#838386"/>
      <stop offset=".2" stop-color="#6a6a6d"/>
      <stop offset=".4" stop-color="#585759"/>
      <stop offset=".5" stop-color="#4a4a4c"/>
      <stop offset=".7" stop-color="#434244"/>
      <stop offset="1" stop-color="#414042"/>
    </linearGradient>
    <clipPath id="clippath-1">
      <path class="st62" d="M92.5,108.2c3.3-1,6.2-3.5,8.6-6.9-2.4,3.2-5.3,5.6-8.6,6.9M101.1,58.6c-2.4-3.4-5.3-5.8-8.6-6.9,3.3,1.3,6.2,3.7,8.6,6.9M86.7,51.8c-.6,0-1.2,0-1.8,0-8.2,2.8-14.3,14.4-14.3,28.1s6.1,25.3,14.3,28.1c.6,0,1.2.1,1.8.1,5.4,0,10.3-3.1,13.9-8.2s5.9-12.2,5.9-20-2.3-14.9-5.9-20-8.6-8.2-13.9-8.2Z"/>
    </clipPath>
    <linearGradient id="linear-gradient1" x1="-1743.4" y1="273.7" x2="-1742.4" y2="273.7" gradientTransform="translate(63539.1 11054.9) scale(36.4 -40.1)" gradientUnits="userSpaceOnUse">
      <stop offset="0" stop-color="#808285"/>
      <stop offset="0" stop-color="#808285"/>
      <stop offset="0" stop-color="#77797c"/>
      <stop offset="0" stop-color="#656669"/>
      <stop offset=".2" stop-color="#58595b"/>
      <stop offset=".2" stop-color="#515153"/>
      <stop offset=".4" stop-color="#4f4f51"/>
      <stop offset=".8" stop-color="#515153"/>
      <stop offset="1" stop-color="#58595b"/>
    </linearGradient>
    <clipPath id="clippath-2">
      <rect class="st62" width="247.6" height="159.4"/>
    </clipPath>
    <clipPath id="clippath-3">
      <path class="st62" d="M88.8,108.8h1.6-1.6M90.6,51.3h.6-.9.5M71.8,59.3c-3.8,5.3-6.1,12.6-6.1,20.7s2.3,15.4,6.1,20.7c2.8,4,6.6,6.9,10.8,8.1h6.3c-1.4,0-2.7-.2-3.9-.7-4.7-.6-9-3.5-12.2-8.1-3.6-5.1-5.9-12.2-5.9-20s2.3-14.9,5.9-20c3.2-4.5,7.5-7.5,12.2-8.1,1-.3,2-.6,3-.6h-5.2c-4.2,1.1-8,4-10.9,8.1h-.1Z"/>
    </clipPath>
    <linearGradient id="linear-gradient2" x1="-1770.1" y1="302.4" x2="-1769.1" y2="302.4" gradientTransform="translate(-28830.9 169224.9) rotate(90) scale(95.6 -95.6)" gradientUnits="userSpaceOnUse">
      <stop offset="0" stop-color="#dddedf"/>
      <stop offset="0" stop-color="#dadbdc"/>
      <stop offset=".2" stop-color="#c7c8ca"/>
      <stop offset=".4" stop-color="#b9bbbd"/>
      <stop offset=".6" stop-color="#b1b3b6"/>
      <stop offset="1" stop-color="#afb1b4"/>
    </linearGradient>
    <clipPath id="clippath-4">
      <rect class="st62" width="247.6" height="159.4"/>
    </clipPath>
    <clipPath id="clippath-5">
      <path class="st62" d="M87.9,51.2c-1,0-2,.3-3,.6.6,0,1.2-.1,1.8-.1,5.4,0,10.3,3.1,13.9,8.2s5.9,12.2,5.9,20-2.3,14.9-5.9,20c-3.6,5.1-8.6,8.2-13.9,8.2s-1.2,0-1.8,0c1.3.4,2.6.7,3.9.7s.6,0,.9,0c.9,0,1.9-.2,2.8-.5,3.3-1.3,6.2-3.7,8.6-6.9,3.7-5.3,6-12.9,6-21.3s-2.3-16.1-6-21.3c-2.4-3.2-5.3-5.6-8.6-6.9-.6-.2-1.2-.3-1.9-.4h-2.7v-.2Z"/>
    </clipPath>
    <linearGradient id="linear-gradient3" x1="-1743.4" y1="273.7" x2="-1742.4" y2="273.7" gradientTransform="translate(63539.1 11054.9) scale(36.4 -40.1)" gradientUnits="userSpaceOnUse">
      <stop offset="0" stop-color="#c9cbcc"/>
      <stop offset="0" stop-color="#c9cbcc"/>
      <stop offset="0" stop-color="#bec0c2"/>
      <stop offset=".2" stop-color="#b6b8ba"/>
      <stop offset=".4" stop-color="#b4b6b8"/>
      <stop offset=".9" stop-color="#b6b8ba"/>
      <stop offset="1" stop-color="#b7b9bc"/>
    </linearGradient>
    <clipPath id="clippath-6">
      <rect class="st62" width="247.6" height="159.4"/>
    </clipPath>
    <clipPath id="clippath-7">
      <path class="st62" d="M80.7,88.5c-1.1,2.1-3.3,6.3-4.8,9.5,1.4,2.5,3.1,4.5,5,5.9.5-1,1.2-2.5,2.2-4.4,2.7-4.9,4.1-9.5,4.1-9.5l-4.3-6.5s-.7,1.8-2.2,4.9h0Z"/>
    </clipPath>
    <linearGradient id="linear-gradient4" x1="-1760.4" y1="200.8" x2="-1759.4" y2="200.8" gradientTransform="translate(33508.6 3907.9) scale(19 -19)" gradientUnits="userSpaceOnUse">
      <stop offset="0" stop-color="#7d7f81"/>
      <stop offset=".5" stop-color="#fff"/>
      <stop offset="1" stop-color="#4c4c4e"/>
    </linearGradient>
    <clipPath id="clippath-8">
      <path class="st62" d="M71.5,79.5c0,14.8,7.2,26.8,16.2,26.8l60.5-3.8c-11.5-.2-18.5-5-18.4-22.9,0-20.3,9.1-20,15.9-19.8l-57.9-6.9c-8.9,0-16.2,12-16.2,26.8v-.2Z"/>
    </clipPath>
    <clipPath id="clippath-9">
      <path class="st62" d="M72.6,89c.8,3.5,2.1,6.7,3.7,9.3,1.8-3.9,2.6-7,2.6-7l-4.3-6.9s-.6,1.7-1.9,4.6h0Z"/>
    </clipPath>
    <linearGradient id="linear-gradient5" x1="-1731.1" y1="201.8" x2="-1730.1" y2="201.8" gradientTransform="translate(29872.5 3561.9) scale(17.2 -17.2)" gradientUnits="userSpaceOnUse">
      <stop offset="0" stop-color="#7d7f81"/>
      <stop offset=".5" stop-color="#fff"/>
      <stop offset="1" stop-color="#4c4c4e"/>
    </linearGradient>
    <clipPath id="clippath-10">
      <path class="st62" d="M71.5,79.5c0,14.8,7.2,26.8,16.2,26.8l60.5-3.8c-11.5-.2-18.5-5-18.4-22.9,0-20.3,9.1-20,15.9-19.8l-57.9-6.9c-8.9,0-16.2,12-16.2,26.8v-.2Z"/>
    </clipPath>
    <clipPath id="clippath-11">
      <path class="st62" d="M89.4,86.7c-1.4,3.1-6.2,10.6-6.2,12.8s5.3,5.4,5.3,5.4c0,0,.6-2.4,3.1-7.2,2.5-4.9,4.8-8.2,4.8-8.2l-5-7.7s-.6,1.8-2,4.9Z"/>
    </clipPath>
    <linearGradient id="linear-gradient6" x1="-1759.8" y1="199" x2="-1758.8" y2="199" gradientTransform="translate(32783.3 3794.2) scale(18.6 -18.6)" gradientUnits="userSpaceOnUse">
      <stop offset="0" stop-color="#7d7f81"/>
      <stop offset=".5" stop-color="#fff"/>
      <stop offset="1" stop-color="#4c4c4e"/>
    </linearGradient>
    <clipPath id="clippath-12">
      <path class="st62" d="M71.5,79.5c0,14.8,7.2,26.8,16.2,26.8l60.5-3.8c-11.5-.2-18.5-5-18.4-22.9,0-20.3,9.1-20,15.9-19.8l-57.9-6.9c-8.9,0-16.2,12-16.2,26.8v-.2Z"/>
    </clipPath>
    <clipPath id="clippath-13">
      <path class="st62" d="M81.1,103.9c2,1.5,4.2,2.3,6.6,2.3l2.8-.2c-3.5-2.8-7.5-6.2-7.5-6.2l-1.9,4.1Z"/>
    </clipPath>
    <linearGradient id="linear-gradient7" x1="-1670.1" y1="332.1" x2="-1669.1" y2="332.1" gradientTransform="translate(-4995.6 25667.7) rotate(90) scale(15.3 -15.3)" gradientUnits="userSpaceOnUse">
      <stop offset="0" stop-color="#7d7f81"/>
      <stop offset=".5" stop-color="#fff"/>
      <stop offset="1" stop-color="#4c4c4e"/>
    </linearGradient>
    <clipPath id="clippath-14">
      <path class="st62" d="M71.5,79.5c0,14.8,7.2,26.8,16.2,26.8l60.5-3.8c-11.5-.2-18.5-5-18.4-22.9,0-20.3,9.1-20,15.9-19.8l-57.9-6.9c-8.9,0-16.2,12-16.2,26.8v-.2Z"/>
    </clipPath>
    <clipPath id="clippath-15">
      <path class="st62" d="M96.4,89.5c-1.8,2.8-3.4,6.1-4.6,8.3-.5.8,5.3,5.4,5.3,5.4,0,0,.4-1.7,2.9-6.6,2.5-4.9,5.2-8,5.2-8l-4.1-6s-3.7,5.4-4.7,7h0Z"/>
    </clipPath>
    <linearGradient id="linear-gradient8" x1="-1758.3" y1="192.7" x2="-1757.3" y2="192.7" gradientTransform="translate(31259.5 3503.2) scale(17.7 -17.7)" gradientUnits="userSpaceOnUse">
      <stop offset="0" stop-color="#7d7f81"/>
      <stop offset=".5" stop-color="#fff"/>
      <stop offset="1" stop-color="#4c4c4e"/>
    </linearGradient>
    <clipPath id="clippath-16">
      <path class="st62" d="M71.5,79.5c0,14.8,7.2,26.8,16.2,26.8l60.5-3.8c-11.5-.2-18.5-5-18.4-22.9,0-20.3,9.1-20,15.9-19.8l-57.9-6.9c-8.9,0-16.2,12-16.2,26.8v-.2Z"/>
    </clipPath>
    <clipPath id="clippath-17">
      <path class="st62" d="M104.8,89.2c-1.8,2.8-3.5,5.6-4.7,7.8-.5.8,4.8,5,4.8,5,0,0,1.2-1.2,4-5.9,2.8-4.6,4.8-7.1,4.8-7.1l-4.1-6s-3.8,4.6-4.8,6.2Z"/>
    </clipPath>
    <linearGradient id="linear-gradient9" x1="-1757.2" y1="190.2" x2="-1756.2" y2="190.2" gradientTransform="translate(30137.4 3344.6) scale(17.1 -17.1)" gradientUnits="userSpaceOnUse">
      <stop offset="0" stop-color="#7d7f81"/>
      <stop offset=".5" stop-color="#fff"/>
      <stop offset="1" stop-color="#4c4c4e"/>
    </linearGradient>
    <clipPath id="clippath-18">
      <path class="st62" d="M71.5,79.5c0,14.8,7.2,26.8,16.2,26.8l60.5-3.8c-11.5-.2-18.5-5-18.4-22.9,0-20.3,9.1-20,15.9-19.8l-57.9-6.9c-8.9,0-16.2,12-16.2,26.8v-.2Z"/>
    </clipPath>
    <clipPath id="clippath-19">
      <path class="st62" d="M88.4,104.9s.6.5,1.4,1.2l10.2-.7c-3.3-2.7-8.5-7.3-8.5-7.3l-3.2,6.8h0Z"/>
    </clipPath>
    <linearGradient id="linear-gradient10" x1="-1659.9" y1="335.1" x2="-1658.9" y2="335.1" gradientTransform="translate(-4630.3 23519) rotate(90) scale(14.1 -14.1)" gradientUnits="userSpaceOnUse">
      <stop offset="0" stop-color="#7d7f81"/>
      <stop offset=".5" stop-color="#fff"/>
      <stop offset="1" stop-color="#4c4c4e"/>
    </linearGradient>
    <clipPath id="clippath-20">
      <path class="st62" d="M71.5,79.5c0,14.8,7.2,26.8,16.2,26.8l60.5-3.8c-11.5-.2-18.5-5-18.4-22.9,0-20.3,9.1-20,15.9-19.8l-57.9-6.9c-8.9,0-16.2,12-16.2,26.8v-.2Z"/>
    </clipPath>
    <clipPath id="clippath-21">
      <path class="st62" d="M97.1,102.8s1.3,1.4,2.7,2.6l9.5-.6c-3.4-2-9.7-7.3-9.7-7.3l-2.5,5.3Z"/>
    </clipPath>
    <linearGradient id="linear-gradient11" x1="-1656.1" y1="336.2" x2="-1655.1" y2="336.2" gradientTransform="translate(-4502.6 22802.2) rotate(90) scale(13.7 -13.7)" gradientUnits="userSpaceOnUse">
      <stop offset="0" stop-color="#7d7f81"/>
      <stop offset=".5" stop-color="#fff"/>
      <stop offset="1" stop-color="#4c4c4e"/>
    </linearGradient>
    <clipPath id="clippath-22">
      <path class="st62" d="M71.5,79.5c0,14.8,7.2,26.8,16.2,26.8l60.5-3.8c-11.5-.2-18.5-5-18.4-22.9,0-20.3,9.1-20,15.9-19.8l-57.9-6.9c-8.9,0-16.2,12-16.2,26.8v-.2Z"/>
    </clipPath>
    <clipPath id="clippath-23">
      <path class="st62" d="M112.8,89.2c-1.8,2.8-3.5,5.7-4.7,7.8l4.8,5s.8-1.5,3.6-6.1c2.8-4.6,5.5-9,5.5-9l-3.8-4.4s-4.3,5.2-5.4,6.8h0Z"/>
    </clipPath>
    <linearGradient id="linear-gradient12" x1="-1758" y1="192.7" x2="-1757" y2="192.7" gradientTransform="translate(30851.4 3465.2) scale(17.5 -17.5)" gradientUnits="userSpaceOnUse">
      <stop offset="0" stop-color="#7d7f81"/>
      <stop offset=".5" stop-color="#fff"/>
      <stop offset="1" stop-color="#4c4c4e"/>
    </linearGradient>
    <clipPath id="clippath-24">
      <path class="st62" d="M71.5,79.5c0,14.8,7.2,26.8,16.2,26.8l60.5-3.8c-11.5-.2-18.5-5-18.4-22.9,0-20.3,9.1-20,15.9-19.8l-57.9-6.9c-8.9,0-16.2,12-16.2,26.8v-.2Z"/>
    </clipPath>
    <clipPath id="clippath-25">
      <path class="st62" d="M104.9,102s2,1.9,3.9,2.9l7.4-.5c-2.8-1.6-8.2-7.4-8.2-7.4l-3.2,4.9h0Z"/>
    </clipPath>
    <linearGradient id="linear-gradient13" x1="-1635.9" y1="342.5" x2="-1634.9" y2="342.5" gradientTransform="translate(-3965.2 19572.6) rotate(90) scale(11.9 -11.9)" gradientUnits="userSpaceOnUse">
      <stop offset="0" stop-color="#7d7f81"/>
      <stop offset=".5" stop-color="#fff"/>
      <stop offset="1" stop-color="#4c4c4e"/>
    </linearGradient>
    <clipPath id="clippath-26">
      <path class="st62" d="M71.5,79.5c0,14.8,7.2,26.8,16.2,26.8l60.5-3.8c-11.5-.2-18.5-5-18.4-22.9,0-20.3,9.1-20,15.9-19.8l-57.9-6.9c-8.9,0-16.2,12-16.2,26.8v-.2Z"/>
    </clipPath>
    <clipPath id="clippath-27">
      <path class="st62" d="M121.3,88c-2,3.2-3.8,6.3-5.1,8.7l5.3,5.6s1.3-1.4,4.4-6.6c2.1-3.6,3.8-6,4.7-7.1-.1-.7-.2-1.4-.4-2.2l-3.5-5.3s-4.2,5.2-5.3,7h-.1Z"/>
    </clipPath>
    <linearGradient id="linear-gradient14" x1="-1759.6" y1="197.6" x2="-1758.6" y2="197.6" gradientTransform="translate(32686.2 3747.1) scale(18.5 -18.5)" gradientUnits="userSpaceOnUse">
      <stop offset="0" stop-color="#7d7f81"/>
      <stop offset=".5" stop-color="#fff"/>
      <stop offset="1" stop-color="#4c4c4e"/>
    </linearGradient>
    <clipPath id="clippath-28">
      <path class="st62" d="M71.5,79.5c0,14.8,7.2,26.8,16.2,26.8l60.5-3.8c-11.5-.2-18.5-5-18.4-22.9,0-20.3,9.1-20,15.9-19.8l-57.9-6.9c-8.9,0-16.2,12-16.2,26.8v-.2Z"/>
    </clipPath>
    <clipPath id="clippath-29">
      <path class="st62" d="M126.4,94.8l4.8,5s.7-.8,2.4-3.4c-1.5-2.1-2.6-4.8-3.3-8.3-1.5,2.4-3,4.8-4,6.7h.1Z"/>
    </clipPath>
    <linearGradient id="linear-gradient15" x1="-1755.2" y1="183.8" x2="-1754.2" y2="183.8" gradientTransform="translate(28356.8 3053.6) scale(16.1 -16.1)" gradientUnits="userSpaceOnUse">
      <stop offset="0" stop-color="#7d7f81"/>
      <stop offset=".5" stop-color="#fff"/>
      <stop offset="1" stop-color="#4c4c4e"/>
    </linearGradient>
    <clipPath id="clippath-30">
      <path class="st62" d="M71.5,79.5c0,14.8,7.2,26.8,16.2,26.8l60.5-3.8c-11.5-.2-18.5-5-18.4-22.9,0-20.3,9.1-20,15.9-19.8l-57.9-6.9c-8.9,0-16.2,12-16.2,26.8v-.2Z"/>
    </clipPath>
    <clipPath id="clippath-31">
      <path class="st62" d="M123.2,62.1c-2.1,2.5-4.2,5.1-5.7,7l4.2,5.7s1.3-1,4.7-5.3c3.3-4.1,5.7-6.3,5.7-6.3l-2.8-5.5-1.5-.2c-1.4,1.3-3.8,3.6-4.6,4.6Z"/>
    </clipPath>
    <linearGradient id="linear-gradient16" x1="-1758.4" y1="194.6" x2="-1757.4" y2="194.6" gradientTransform="translate(31388.4 3530.3) scale(17.8 -17.8)" gradientUnits="userSpaceOnUse">
      <stop offset="0" stop-color="#7d7f81"/>
      <stop offset=".5" stop-color="#fff"/>
      <stop offset="1" stop-color="#4c4c4e"/>
    </linearGradient>
    <clipPath id="clippath-32">
      <path class="st62" d="M71.5,79.5c0,14.8,7.2,26.8,16.2,26.8l60.5-3.8c-11.5-.2-18.5-5-18.4-22.9,0-20.3,9.1-20,15.9-19.8l-57.9-6.9c-8.9,0-16.2,12-16.2,26.8v-.2Z"/>
    </clipPath>
    <clipPath id="clippath-33">
      <path class="st62" d="M131.8,63.7c-2,2.3-3.9,4.5-5.3,6.3l3.5,4.5c.9-9.1,4.1-12.7,7.9-14.1l-.9-1.6s-4.1,3.6-5.2,4.9Z"/>
    </clipPath>
    <linearGradient id="linear-gradient17" x1="-1755.2" y1="183.3" x2="-1754.2" y2="183.3" gradientTransform="translate(28383.8 3018.2) scale(16.1 -16.1)" gradientUnits="userSpaceOnUse">
      <stop offset="0" stop-color="#7d7f81"/>
      <stop offset=".5" stop-color="#fff"/>
      <stop offset="1" stop-color="#4c4c4e"/>
    </linearGradient>
    <clipPath id="clippath-34">
      <path class="st62" d="M71.5,79.5c0,14.8,7.2,26.8,16.2,26.8l60.5-3.8c-11.5-.2-18.5-5-18.4-22.9,0-20.3,9.1-20,15.9-19.8l-57.9-6.9c-8.9,0-16.2,12-16.2,26.8v-.2Z"/>
    </clipPath>
    <clipPath id="clippath-35">
      <path class="st62" d="M145.4,59.6h0Z"/>
    </clipPath>
    <linearGradient id="linear-gradient18" x1="-1751.2" y1="174.6" x2="-1751.2" y2="174.6" gradientTransform="translate(20883.3 -16558.6) rotate(-44.4) scale(15.1 -15.1)" gradientUnits="userSpaceOnUse">
      <stop offset="0" stop-color="#7d7f81"/>
      <stop offset=".5" stop-color="#fff"/>
      <stop offset="1" stop-color="#4c4c4e"/>
    </linearGradient>
    <clipPath id="clippath-36">
      <path class="st62" d="M71.5,79.5c0,14.8,7.2,26.8,16.2,26.8l60.5-3.8c-11.5-.2-18.5-5-18.4-22.9,0-20.3,9.1-20,15.9-19.8l-57.9-6.9c-8.9,0-16.2,12-16.2,26.8v-.2Z"/>
    </clipPath>
    <clipPath id="clippath-37">
      <path class="st62" d="M114.5,61c-2.1,2.5-4.2,5.1-5.7,7l4.2,5.7s1.3-1.1,4.7-5.3c3.3-4.1,5.7-6.3,5.7-6.3l-2.7-5.4-1.6-.2c-1.4,1.3-3.7,3.5-4.5,4.5h0Z"/>
    </clipPath>
    <linearGradient id="linear-gradient19" x1="-1758.4" y1="194.7" x2="-1757.4" y2="194.7" gradientTransform="translate(31379.9 3529.8) scale(17.8 -17.8)" gradientUnits="userSpaceOnUse">
      <stop offset="0" stop-color="#7d7f81"/>
      <stop offset=".5" stop-color="#fff"/>
      <stop offset="1" stop-color="#4c4c4e"/>
    </linearGradient>
    <clipPath id="clippath-38">
      <path class="st62" d="M71.5,79.5c0,14.8,7.2,26.8,16.2,26.8l60.5-3.8c-11.5-.2-18.5-5-18.4-22.9,0-20.3,9.1-20,15.9-19.8l-57.9-6.9c-8.9,0-16.2,12-16.2,26.8v-.2Z"/>
    </clipPath>
    <clipPath id="clippath-39">
      <path class="st62" d="M105.8,60.1c-2.1,2.5-4.2,5.1-5.7,7l4.2,5.7s1.3-1,4.7-5.3c3.3-4.1,5.3-6.4,5.3-6.4l-2.5-5.6-1.2-.2c-1.3,1.2-3.9,3.7-4.8,4.7h0Z"/>
    </clipPath>
    <linearGradient id="linear-gradient20" x1="-1758.4" y1="194.7" x2="-1757.4" y2="194.7" gradientTransform="translate(31371.5 3530.1) scale(17.8 -17.8)" gradientUnits="userSpaceOnUse">
      <stop offset="0" stop-color="#7d7f81"/>
      <stop offset=".5" stop-color="#fff"/>
      <stop offset="1" stop-color="#4c4c4e"/>
    </linearGradient>
    <clipPath id="clippath-40">
      <path class="st62" d="M71.5,79.5c0,14.8,7.2,26.8,16.2,26.8l60.5-3.8c-11.5-.2-18.5-5-18.4-22.9,0-20.3,9.1-20,15.9-19.8l-57.9-6.9c-8.9,0-16.2,12-16.2,26.8v-.2Z"/>
    </clipPath>
    <clipPath id="clippath-41">
      <path class="st62" d="M96.6,59.5c-2.1,2.5-4.2,5.1-5.7,7l4.2,5.6s1.3-1,4.7-5.3c3.3-4.1,5.4-6.7,5.4-6.7l-2.8-5.8h-.6c-1.1,1-4.2,3.9-5.2,5v.2Z"/>
    </clipPath>
    <linearGradient id="linear-gradient21" x1="-1758.4" y1="194.7" x2="-1757.4" y2="194.7" gradientTransform="translate(31361.8 3528.3) scale(17.8 -17.8)" gradientUnits="userSpaceOnUse">
      <stop offset="0" stop-color="#7d7f81"/>
      <stop offset=".5" stop-color="#fff"/>
      <stop offset="1" stop-color="#4c4c4e"/>
    </linearGradient>
    <clipPath id="clippath-42">
      <path class="st62" d="M71.5,79.5c0,14.8,7.2,26.8,16.2,26.8l60.5-3.8c-11.5-.2-18.5-5-18.4-22.9,0-20.3,9.1-20,15.9-19.8l-57.9-6.9c-8.9,0-16.2,12-16.2,26.8v-.2Z"/>
    </clipPath>
    <clipPath id="clippath-43">
      <path class="st62" d="M87.4,58.7c-2.1,2.5-4.2,5.1-5.7,7l4.2,5.7s1.3-1.1,4.7-5.3c3.3-4.1,5.7-6.3,5.7-6.3l-3.2-6.4h-.2c-.8.7-4.4,4-5.4,5.3h0Z"/>
    </clipPath>
    <linearGradient id="linear-gradient22" x1="-1758.4" y1="194.6" x2="-1757.4" y2="194.6" gradientTransform="translate(31352.3 3526.8) scale(17.8 -17.8)" gradientUnits="userSpaceOnUse">
      <stop offset="0" stop-color="#7d7f81"/>
      <stop offset=".5" stop-color="#fff"/>
      <stop offset="1" stop-color="#4c4c4e"/>
    </linearGradient>
    <clipPath id="clippath-44">
      <path class="st62" d="M71.5,79.5c0,14.8,7.2,26.8,16.2,26.8l60.5-3.8c-11.5-.2-18.5-5-18.4-22.9,0-20.3,9.1-20,15.9-19.8l-57.9-6.9c-8.9,0-16.2,12-16.2,26.8v-.2Z"/>
    </clipPath>
    <clipPath id="clippath-45">
      <path class="st62" d="M113,102.1s1.9,1.5,3.7,2.3l7.1-.5c.4,0,1-.2,1.6-.3-2.3-.4-9.2-6.5-9.2-6.5l-3.2,4.9h0Z"/>
    </clipPath>
    <linearGradient id="linear-gradient23" x1="-1624.5" y1="347.4" x2="-1623.5" y2="347.4" gradientTransform="translate(-3737.3 18093.9) rotate(90) scale(11.1 -11.1)" gradientUnits="userSpaceOnUse">
      <stop offset="0" stop-color="#7d7f81"/>
      <stop offset=".5" stop-color="#fff"/>
      <stop offset="1" stop-color="#4c4c4e"/>
    </linearGradient>
    <clipPath id="clippath-46">
      <path class="st62" d="M71.5,79.5c0,14.8,7.2,26.8,16.2,26.8l60.5-3.8c-11.5-.2-18.5-5-18.4-22.9,0-20.3,9.1-20,15.9-19.8l-57.9-6.9c-8.9,0-16.2,12-16.2,26.8v-.2Z"/>
    </clipPath>
    <clipPath id="clippath-47">
      <path class="st62" d="M131,100.5s1.5,1.5,4.7,1.7c4.1.3,4,0,6.4-.5-3.5-.8-6.3-2.4-8.4-5.2l-2.7,4Z"/>
    </clipPath>
    <linearGradient id="linear-gradient24" x1="-1625.1" y1="345" x2="-1624.1" y2="345" gradientTransform="translate(-3692.5 18168.9) rotate(90) scale(11.1 -11.1)" gradientUnits="userSpaceOnUse">
      <stop offset="0" stop-color="#7d7f81"/>
      <stop offset=".5" stop-color="#fff"/>
      <stop offset="1" stop-color="#4c4c4e"/>
    </linearGradient>
    <clipPath id="clippath-48">
      <path class="st62" d="M71.5,79.5c0,14.8,7.2,26.8,16.2,26.8l60.5-3.8c-11.5-.2-18.5-5-18.4-22.9,0-20.3,9.1-20,15.9-19.8l-57.9-6.9c-8.9,0-16.2,12-16.2,26.8v-.2Z"/>
    </clipPath>
    <clipPath id="clippath-49">
      <path class="st62" d="M121.5,101.8s1.1,1.5,4.3,1.7c2.5,0,4.2-.4,8.5-1.5-2.1.5-7.9-7.1-7.9-7.1l-4.9,6.8h0Z"/>
    </clipPath>
    <linearGradient id="linear-gradient25" x1="-1617.2" y1="347.8" x2="-1616.2" y2="347.8" gradientTransform="translate(-3559 17254.6) rotate(90) scale(10.6 -10.6)" gradientUnits="userSpaceOnUse">
      <stop offset="0" stop-color="#7d7f81"/>
      <stop offset=".5" stop-color="#fff"/>
      <stop offset="1" stop-color="#4c4c4e"/>
    </linearGradient>
    <clipPath id="clippath-50">
      <path class="st62" d="M71.5,79.5c0,14.8,7.2,26.8,16.2,26.8l60.5-3.8c-11.5-.2-18.5-5-18.4-22.9,0-20.3,9.1-20,15.9-19.8l-57.9-6.9c-8.9,0-16.2,12-16.2,26.8v-.2Z"/>
    </clipPath>
    <clipPath id="clippath-51">
      <path class="st62" d="M81.7,54.6c-1.4,1.4-3.2,3.1-4.9,5.2-.9,1.4-1.7,3-2.4,4.7.5,2.1,1.6,6,2.9,6.8,0,0,7.8-11,10.6-13l.9-1.3s-1.7-2.6-2.6-4.2c-1.6.2-3,.9-4.4,1.8h0Z"/>
    </clipPath>
    <linearGradient id="linear-gradient26" x1="-1761.3" y1="203.2" x2="-1760.3" y2="203.2" gradientTransform="translate(34612.5 4044.4) scale(19.6 -19.6)" gradientUnits="userSpaceOnUse">
      <stop offset="0" stop-color="#7d7f81"/>
      <stop offset=".5" stop-color="#fff"/>
      <stop offset="1" stop-color="#4c4c4e"/>
    </linearGradient>
    <clipPath id="clippath-52">
      <path class="st62" d="M71.5,79.5c0,14.8,7.2,26.8,16.2,26.8l60.5-3.8c-11.5-.2-18.5-5-18.4-22.9,0-20.3,9.1-20,15.9-19.8l-57.9-6.9c-8.9,0-16.2,12-16.2,26.8v-.2Z"/>
    </clipPath>
    <clipPath id="clippath-53">
      <path class="st62" d="M78,58l4.2-3.7c-1.5.9-2.9,2.1-4.2,3.7Z"/>
    </clipPath>
    <linearGradient id="linear-gradient27" x1="-1762.5" y1="207.1" x2="-1761.5" y2="207.1" gradientTransform="translate(36212.6 4302.1) scale(20.5 -20.5)" gradientUnits="userSpaceOnUse">
      <stop offset="0" stop-color="#7d7f81"/>
      <stop offset=".5" stop-color="#fff"/>
      <stop offset="1" stop-color="#4c4c4e"/>
    </linearGradient>
    <clipPath id="clippath-54">
      <path class="st62" d="M71.5,79.5c0,14.8,7.2,26.8,16.2,26.8l60.5-3.8c-11.5-.2-18.5-5-18.4-22.9,0-20.3,9.1-20,15.9-19.8l-57.9-6.9c-8.9,0-16.2,12-16.2,26.8v-.2Z"/>
    </clipPath>
    <clipPath id="clippath-55">
      <path class="st62" d="M71.6,76.8v.2c2.9,6.8,7.5,13.6,7.5,13.6l3.7-7.7c-3.7-4.1-7.3-15.1-8.4-18.7-1.5,3.6-2.5,7.9-2.8,12.5h0Z"/>
    </clipPath>
    <linearGradient id="linear-gradient28" x1="-1850.4" y1="259" x2="-1849.4" y2="259" gradientTransform="translate(6941 -48926.7) rotate(-90) scale(26.5 -26.5)" gradientUnits="userSpaceOnUse">
      <stop offset="0" stop-color="#7d7f81"/>
      <stop offset=".5" stop-color="#fff"/>
      <stop offset="1" stop-color="#4c4c4e"/>
    </linearGradient>
    <clipPath id="clippath-56">
      <path class="st62" d="M71.5,79.5c0,14.8,7.2,26.8,16.2,26.8l60.5-3.8c-11.5-.2-18.5-5-18.4-22.9,0-20.3,9.1-20,15.9-19.8l-57.9-6.9c-8.9,0-16.2,12-16.2,26.8v-.2Z"/>
    </clipPath>
    <clipPath id="clippath-57">
      <path class="st62" d="M86.1,71.1c3,7.8,10.3,18.1,10.3,18.1l4.7-6.7c-2.7-5.9-10.4-16.3-10.4-16.3l-4.6,5h0Z"/>
    </clipPath>
    <linearGradient id="linear-gradient29" x1="-1860" y1="252.9" x2="-1859" y2="252.9" gradientTransform="translate(5884.6 -42505.7) rotate(-90) scale(22.9 -22.9)" gradientUnits="userSpaceOnUse">
      <stop offset="0" stop-color="#7d7f81"/>
      <stop offset=".5" stop-color="#fff"/>
      <stop offset="1" stop-color="#4c4c4e"/>
    </linearGradient>
    <clipPath id="clippath-58">
      <path class="st62" d="M71.5,79.5c0,14.8,7.2,26.8,16.2,26.8l60.5-3.8c-11.5-.2-18.5-5-18.4-22.9,0-20.3,9.1-20,15.9-19.8l-57.9-6.9c-8.9,0-16.2,12-16.2,26.8v-.2Z"/>
    </clipPath>
    <clipPath id="clippath-59">
      <path class="st62" d="M95.8,71.6c2.8,7.3,9.5,16.8,9.5,16.8l4.4-6.3c-2.5-5.5-9.7-15.2-9.7-15.2,0,0-4.2,4.7-4.2,4.7Z"/>
    </clipPath>
    <linearGradient id="linear-gradient30" x1="-1865.3" y1="249.2" x2="-1864.3" y2="249.2" gradientTransform="translate(5410.3 -39672.6) rotate(-90) scale(21.3 -21.3)" gradientUnits="userSpaceOnUse">
      <stop offset="0" stop-color="#7d7f81"/>
      <stop offset=".5" stop-color="#fff"/>
      <stop offset="1" stop-color="#4c4c4e"/>
    </linearGradient>
    <clipPath id="clippath-60">
      <path class="st62" d="M71.5,79.5c0,14.8,7.2,26.8,16.2,26.8l60.5-3.8c-11.5-.2-18.5-5-18.4-22.9,0-20.3,9.1-20,15.9-19.8l-57.9-6.9c-8.9,0-16.2,12-16.2,26.8v-.2Z"/>
    </clipPath>
    <clipPath id="clippath-61">
      <path class="st62" d="M104.4,72.6c3.5,7,9,16.1,9,16.1l4.7-6.3c-3.1-4.8-9.8-14.3-9.8-14.3l-4,4.5h.1Z"/>
    </clipPath>
    <linearGradient id="linear-gradient31" x1="-1868.7" y1="247.4" x2="-1867.7" y2="247.4" gradientTransform="translate(5158 -38042.9) rotate(-90) scale(20.4 -20.4)" gradientUnits="userSpaceOnUse">
      <stop offset="0" stop-color="#7d7f81"/>
      <stop offset=".5" stop-color="#fff"/>
      <stop offset="1" stop-color="#4c4c4e"/>
    </linearGradient>
    <clipPath id="clippath-62">
      <path class="st62" d="M71.5,79.5c0,14.8,7.2,26.8,16.2,26.8l60.5-3.8c-11.5-.2-18.5-5-18.4-22.9,0-20.3,9.1-20,15.9-19.8l-57.9-6.9c-8.9,0-16.2,12-16.2,26.8v-.2Z"/>
    </clipPath>
    <clipPath id="clippath-63">
      <path class="st62" d="M113.1,73.5c2.6,6.2,8.9,13.4,8.9,13.4l4.6-5.8c-3.1-3.7-9-12.3-9-12.3l-4.5,4.7Z"/>
    </clipPath>
    <linearGradient id="linear-gradient32" x1="-1879.7" y1="240" x2="-1878.7" y2="240" gradientTransform="translate(4415.5 -33600.4) rotate(-90) scale(17.9 -17.9)" gradientUnits="userSpaceOnUse">
      <stop offset="0" stop-color="#7d7f81"/>
      <stop offset=".5" stop-color="#fff"/>
      <stop offset="1" stop-color="#4c4c4e"/>
    </linearGradient>
    <clipPath id="clippath-64">
      <path class="st62" d="M71.5,79.5c0,14.8,7.2,26.8,16.2,26.8l60.5-3.8c-11.5-.2-18.5-5-18.4-22.9,0-20.3,9.1-20,15.9-19.8l-57.9-6.9c-8.9,0-16.2,12-16.2,26.8v-.2Z"/>
    </clipPath>
    <clipPath id="clippath-65">
      <path class="st62" d="M122,73.9c2,4.7,6.3,10,8.1,12.1-.2-2-.4-4.1-.4-6.5s0-3.7.2-5.3c-1.9-2.6-3.5-4.8-3.5-4.8l-4.5,4.6h0Z"/>
    </clipPath>
    <linearGradient id="linear-gradient33" x1="-1882" y1="240.4" x2="-1881" y2="240.4" gradientTransform="translate(4333.2 -32796.9) rotate(-90) scale(17.5 -17.5)" gradientUnits="userSpaceOnUse">
      <stop offset="0" stop-color="#7d7f81"/>
      <stop offset=".5" stop-color="#fff"/>
      <stop offset="1" stop-color="#4c4c4e"/>
    </linearGradient>
    <clipPath id="clippath-66">
      <path class="st62" d="M71.5,79.5c0,14.8,7.2,26.8,16.2,26.8l60.5-3.8c-11.5-.2-18.5-5-18.4-22.9,0-20.3,9.1-20,15.9-19.8l-57.9-6.9c-8.9,0-16.2,12-16.2,26.8v-.2Z"/>
    </clipPath>
    <clipPath id="clippath-67">
      <path class="st62" d="M77.2,71.3c1.5,8.1,10.4,18.3,10.4,18.3l3.7-7.7c-2.4-7.1-10-16.2-10-16.2l-4,5.6h0Z"/>
    </clipPath>
    <linearGradient id="linear-gradient34" x1="-1857.1" y1="254.8" x2="-1856.1" y2="254.8" gradientTransform="translate(6175 -44284.8) rotate(-90) scale(23.9 -23.9)" gradientUnits="userSpaceOnUse">
      <stop offset="0" stop-color="#7d7f81"/>
      <stop offset=".5" stop-color="#fff"/>
      <stop offset="1" stop-color="#4c4c4e"/>
    </linearGradient>
    <clipPath id="clippath-68">
      <path class="st62" d="M71.5,79.5c0,14.8,7.2,26.8,16.2,26.8l60.5-3.8c-11.5-.2-18.5-5-18.4-22.9,0-20.3,9.1-20,15.9-19.8l-57.9-6.9c-8.9,0-16.2,12-16.2,26.8v-.2Z"/>
    </clipPath>
    <clipPath id="clippath-69">
      <path class="st62" d="M82.8,45.4c-2.1,1.1-5.6,3.9-5.6,3.9,0,0,4.5,4.2,4.4,5.2s5.5-6.3,11.6-6.8c0,0-6-2.4-9.1-2.4s-.9,0-1.2.2h-.1Z"/>
    </clipPath>
    <clipPath id="clippath-70">
      <path class="st62" d="M87.7,106.2c-8.9,0-16.2-12-16.2-26.8s7.2-26.8,16.2-26.8l57.9,6.9c-6.8,0-15.9-.4-15.9,19.8s7,22.8,18.4,22.9l-60.5,3.8v.2Z"/>
    </clipPath>
    <clipPath id="clippath-71">
      <rect class="st62" x="81.6" y="54.2" width=".7" height=".5"/>
    </clipPath>
    <linearGradient id="linear-gradient35" x1="-1784.4" y1="134.6" x2="-1783.4" y2="134.6" gradientTransform="translate(21156.9 1643) scale(11.8 -11.8)" gradientUnits="userSpaceOnUse">
      <stop offset="0" stop-color="#7d7f81"/>
      <stop offset=".5" stop-color="#fff"/>
      <stop offset="1" stop-color="#4c4c4e"/>
    </linearGradient>
    <clipPath id="clippath-72">
      <path class="st62" d="M71.5,79.5c0,14.8,7.2,26.8,16.2,26.8l60.5-3.8c-11.5-.2-18.5-5-18.4-22.9,0-20.3,9.1-20,15.9-19.8l-57.9-6.9c-8.9,0-16.2,12-16.2,26.8v-.2Z"/>
    </clipPath>
    <clipPath id="clippath-73">
      <path class="st62" d="M86.1,52.8l2.8,3.9s1.8-1.7,3.9-3.4l-5.2-.6c-.5,0-1.1,0-1.6.1h0Z"/>
    </clipPath>
    <linearGradient id="linear-gradient36" x1="-1784.2" y1="128.6" x2="-1783.2" y2="128.6" gradientTransform="translate(20229.4 1507.5) scale(11.3 -11.3)" gradientUnits="userSpaceOnUse">
      <stop offset="0" stop-color="#7d7f81"/>
      <stop offset=".5" stop-color="#fff"/>
      <stop offset="1" stop-color="#4c4c4e"/>
    </linearGradient>
    <clipPath id="clippath-74">
      <path class="st62" d="M71.5,79.5c0,14.8,7.2,26.8,16.2,26.8l60.5-3.8c-11.5-.2-18.5-5-18.4-22.9,0-20.3,9.1-20,15.9-19.8l-57.9-6.9c-8.9,0-16.2,12-16.2,26.8v-.2Z"/>
    </clipPath>
    <clipPath id="clippath-75">
      <path class="st62" d="M105.5,59.8s2-2.3,4.2-4.5l-7.6-.9,3.3,5.4h0Z"/>
    </clipPath>
    <linearGradient id="linear-gradient37" x1="-1784.2" y1="126.8" x2="-1783.2" y2="126.8" gradientTransform="translate(20302.5 1489.9) scale(11.3 -11.3)" gradientUnits="userSpaceOnUse">
      <stop offset="0" stop-color="#7d7f81"/>
      <stop offset=".5" stop-color="#fff"/>
      <stop offset="1" stop-color="#4c4c4e"/>
    </linearGradient>
    <clipPath id="clippath-76">
      <path class="st62" d="M71.5,79.5c0,14.8,7.2,26.8,16.2,26.8l60.5-3.8c-11.5-.2-18.5-5-18.4-22.9,0-20.3,9.1-20,15.9-19.8l-57.9-6.9c-8.9,0-16.2,12-16.2,26.8v-.2Z"/>
    </clipPath>
    <clipPath id="clippath-77">
      <path class="st62" d="M114.5,60.9s2-2.3,4.3-4.5l-7.2-.8,2.9,5.4h0Z"/>
    </clipPath>
    <linearGradient id="linear-gradient38" x1="-1784.6" y1="142" x2="-1783.6" y2="142" gradientTransform="translate(22053.7 1805.2) scale(12.3 -12.3)" gradientUnits="userSpaceOnUse">
      <stop offset="0" stop-color="#7d7f81"/>
      <stop offset=".5" stop-color="#fff"/>
      <stop offset="1" stop-color="#4c4c4e"/>
    </linearGradient>
    <clipPath id="clippath-78">
      <path class="st62" d="M71.5,79.5c0,14.8,7.2,26.8,16.2,26.8l60.5-3.8c-11.5-.2-18.5-5-18.4-22.9,0-20.3,9.1-20,15.9-19.8l-57.9-6.9c-8.9,0-16.2,12-16.2,26.8v-.2Z"/>
    </clipPath>
    <clipPath id="clippath-79">
      <path class="st62" d="M123.4,61.6s1.9-2.1,4.1-4.2l-7.1-.8,2.9,5h0Z"/>
    </clipPath>
    <linearGradient id="linear-gradient39" x1="-1784.4" y1="132.2" x2="-1783.4" y2="132.2" gradientTransform="translate(20829.4 1592.1) scale(11.6 -11.6)" gradientUnits="userSpaceOnUse">
      <stop offset="0" stop-color="#7d7f81"/>
      <stop offset=".5" stop-color="#fff"/>
      <stop offset="1" stop-color="#4c4c4e"/>
    </linearGradient>
    <clipPath id="clippath-80">
      <path class="st62" d="M71.5,79.5c0,14.8,7.2,26.8,16.2,26.8l60.5-3.8c-11.5-.2-18.5-5-18.4-22.9,0-20.3,9.1-20,15.9-19.8l-57.9-6.9c-8.9,0-16.2,12-16.2,26.8v-.2Z"/>
    </clipPath>
    <clipPath id="clippath-81">
      <path class="st62" d="M132.2,62.4s2.2-2,4.8-3.9l-7.8-.9,3.1,4.8h-.1Z"/>
    </clipPath>
    <linearGradient id="linear-gradient40" x1="-1784.6" y1="141" x2="-1783.6" y2="141" gradientTransform="translate(21882.9 1779.8) scale(12.2 -12.2)" gradientUnits="userSpaceOnUse">
      <stop offset="0" stop-color="#7d7f81"/>
      <stop offset=".5" stop-color="#fff"/>
      <stop offset="1" stop-color="#4c4c4e"/>
    </linearGradient>
    <clipPath id="clippath-82">
      <path class="st62" d="M71.5,79.5c0,14.8,7.2,26.8,16.2,26.8l60.5-3.8c-11.5-.2-18.5-5-18.4-22.9,0-20.3,9.1-20,15.9-19.8l-57.9-6.9c-8.9,0-16.2,12-16.2,26.8v-.2Z"/>
    </clipPath>
    <clipPath id="clippath-83">
      <path class="st62" d="M136.9,59.3l.8,1.2c2.5-.9,5.2-.9,7.6-.8l-7.6-.9c-.5.4-.8.6-.8.6h0Z"/>
    </clipPath>
    <linearGradient id="linear-gradient41" x1="-1785" y1="155.7" x2="-1784" y2="155.7" gradientTransform="translate(24007.6 2146.2) scale(13.4 -13.4)" gradientUnits="userSpaceOnUse">
      <stop offset="0" stop-color="#7d7f81"/>
      <stop offset=".5" stop-color="#fff"/>
      <stop offset="1" stop-color="#4c4c4e"/>
    </linearGradient>
    <clipPath id="clippath-84">
      <path class="st62" d="M71.5,79.5c0,14.8,7.2,26.8,16.2,26.8l60.5-3.8c-11.5-.2-18.5-5-18.4-22.9,0-20.3,9.1-20,15.9-19.8l-57.9-6.9c-8.9,0-16.2,12-16.2,26.8v-.2Z"/>
    </clipPath>
    <clipPath id="clippath-85">
      <path class="st62" d="M145,59.6h.6-.6Z"/>
    </clipPath>
    <linearGradient id="linear-gradient42" x1="-1784.8" y1="149.3" x2="-1783.8" y2="149.3" gradientTransform="translate(23166.3 1985) scale(12.9 -12.9)" gradientUnits="userSpaceOnUse">
      <stop offset="0" stop-color="#7d7f81"/>
      <stop offset=".5" stop-color="#fff"/>
      <stop offset="1" stop-color="#4c4c4e"/>
    </linearGradient>
    <clipPath id="clippath-86">
      <path class="st62" d="M71.5,79.5c0,14.8,7.2,26.8,16.2,26.8l60.5-3.8c-11.5-.2-18.5-5-18.4-22.9,0-20.3,9.1-20,15.9-19.8l-57.9-6.9c-8.9,0-16.2,12-16.2,26.8v-.2Z"/>
    </clipPath>
    <clipPath id="clippath-87">
      <path class="st62" d="M93,53.7l3.4,5.6s2.7-2.6,5.4-4.9l-8.3-1c-.2,0-.3.2-.5.3Z"/>
    </clipPath>
    <linearGradient id="linear-gradient43" x1="-1784.8" y1="144.6" x2="-1783.8" y2="144.6" gradientTransform="translate(22620.7 1877.7) scale(12.6 -12.6)" gradientUnits="userSpaceOnUse">
      <stop offset="0" stop-color="#7d7f81"/>
      <stop offset=".5" stop-color="#fff"/>
      <stop offset="1" stop-color="#4c4c4e"/>
    </linearGradient>
    <clipPath id="clippath-88">
      <path class="st62" d="M71.5,79.5c0,14.8,7.2,26.8,16.2,26.8l60.5-3.8c-11.5-.2-18.5-5-18.4-22.9,0-20.3,9.1-20,15.9-19.8l-57.9-6.9c-8.9,0-16.2,12-16.2,26.8v-.2Z"/>
    </clipPath>
    <clipPath id="clippath-89">
      <ellipse class="st62" cx="139.4" cy="81.2" rx="14.1" ry="22.1"/>
    </clipPath>
    <linearGradient id="linear-gradient44" x1="-1729.8" y1="267" x2="-1728.8" y2="267" gradientTransform="translate(48742.7 8303.2) scale(28.1 -30.8)" gradientUnits="userSpaceOnUse">
      <stop offset="0" stop-color="#808285"/>
      <stop offset="0" stop-color="#808285"/>
      <stop offset="0" stop-color="#77797c"/>
      <stop offset="0" stop-color="#656669"/>
      <stop offset=".2" stop-color="#58595b"/>
      <stop offset=".2" stop-color="#515153"/>
      <stop offset=".4" stop-color="#4f4f51"/>
      <stop offset=".8" stop-color="#515153"/>
      <stop offset="1" stop-color="#58595b"/>
    </linearGradient>
    <clipPath id="clippath-90">
      <path class="st62" d="M130.6,81.5c0,12,5.8,21.8,13,21.8l48.4-2.1c-9.2-.1-14.7-5-14.7-19.6s8.3-18.8,13.7-18.8l-47.4-3c-7.2,0-13,9.8-13,21.8h0Z"/>
    </clipPath>
    <linearGradient id="linear-gradient45" x1="-1761.5" y1="304.5" x2="-1760.5" y2="304.5" gradientTransform="translate(-19933.9 116349.6) rotate(90) scale(66 -66)" gradientUnits="userSpaceOnUse">
      <stop offset="0" stop-color="#77d2f7"/>
      <stop offset="0" stop-color="#6dc7ee"/>
      <stop offset="0" stop-color="#52a7d5"/>
      <stop offset=".3" stop-color="#3c8dc0"/>
      <stop offset=".4" stop-color="#2b79b0"/>
      <stop offset=".5" stop-color="#1f6aa4"/>
      <stop offset=".7" stop-color="#18629e"/>
      <stop offset="1" stop-color="#16609c"/>
    </linearGradient>
    <clipPath id="clippath-91">
      <ellipse class="st62" cx="189.7" cy="81.9" rx="13.4" ry="19.2"/>
    </clipPath>
    <linearGradient id="linear-gradient46" x1="-1726.7" y1="261.8" x2="-1725.7" y2="261.8" gradientTransform="translate(46317.6 7071.7) scale(26.7 -26.7)" gradientUnits="userSpaceOnUse">
      <stop offset="0" stop-color="#a8e0f9"/>
      <stop offset="0" stop-color="#a5ddf7"/>
      <stop offset="0" stop-color="#81bbda"/>
      <stop offset="0" stop-color="#619dc1"/>
      <stop offset="0" stop-color="#4683ab"/>
      <stop offset="0" stop-color="#306e9a"/>
      <stop offset=".2" stop-color="#1f5e8d"/>
      <stop offset=".2" stop-color="#135383"/>
      <stop offset=".3" stop-color="#0c4c7e"/>
      <stop offset=".5" stop-color="#0b4b7d"/>
      <stop offset="1" stop-color="#003058"/>
      <stop offset="1" stop-color="#003058"/>
    </linearGradient>
    <clipPath id="clippath-92">
      <path class="st62" d="M196.3,76.1c-4.3,0-7.8,3.2-7.8,7s3.5,7,7.8,7h38.5c4.3,0,7.8-3.1,7.8-7s-3.5-7-7.8-7h-38.5Z"/>
    </clipPath>
    <linearGradient id="linear-gradient47" x1="-1758.4" y1="279.9" x2="-1757.4" y2="279.9" gradientTransform="translate(95279 15227) scale(54.1 -54.1)" gradientUnits="userSpaceOnUse">
      <stop offset="0" stop-color="#da9237"/>
      <stop offset="0" stop-color="#da9237"/>
      <stop offset=".2" stop-color="#de9337"/>
      <stop offset=".2" stop-color="#ec963a"/>
      <stop offset=".2" stop-color="#f89a3c"/>
      <stop offset=".3" stop-color="#fbb363"/>
      <stop offset=".3" stop-color="#fdc67f"/>
      <stop offset=".4" stop-color="#fecd8a"/>
      <stop offset=".6" stop-color="#f9a54c"/>
      <stop offset=".7" stop-color="#f7912d"/>
      <stop offset=".8" stop-color="#c8731a"/>
      <stop offset=".9" stop-color="#a65d0c"/>
      <stop offset="1" stop-color="#9a5507"/>
    </linearGradient>
    <clipPath id="clippath-93">
      <ellipse class="st62" cx="234.1" cy="83.2" rx="8.6" ry="7"/>
    </clipPath>
    <linearGradient id="linear-gradient48" x1="-1691.7" y1="242.5" x2="-1690.7" y2="242.5" gradientTransform="translate(29170.3 4230.2) scale(17.1 -17.1)" gradientUnits="userSpaceOnUse">
      <stop offset="0" stop-color="#f9a13e"/>
      <stop offset=".2" stop-color="#f9a13e"/>
      <stop offset=".3" stop-color="#f9a342"/>
      <stop offset=".3" stop-color="#faab50"/>
      <stop offset=".4" stop-color="#fbb867"/>
      <stop offset=".5" stop-color="#fdcb86"/>
      <stop offset=".5" stop-color="#fecd8a"/>
      <stop offset=".5" stop-color="#fdca86"/>
      <stop offset=".6" stop-color="#faad59"/>
      <stop offset=".8" stop-color="#f79939"/>
      <stop offset=".9" stop-color="#f68c26"/>
      <stop offset="1" stop-color="#f6881f"/>
    </linearGradient>
  </defs>
  <g id="Layer_1-2">
    <g class="st140">
      <rect class="st136" x="-7.1" y="26" width="107" height="107" transform="translate(-42.6 56.1) rotate(-45)"/>
    </g>
    <g class="st72">
      <rect class="st48" x="70.7" y="51.8" width="35.8" height="56.5"/>
    </g>
    <g class="st125">
      <path class="st30" d="M91.1,51.3h-8.3c1.3-.4,2.6-.6,4-.6s3,.2,4.4.7M92.5,51.8c-.6-.2-1.2-.3-1.9-.4h.6c.4,0,.9.3,1.3.5M86.7,109.3c-1.4,0-2.8-.2-4.1-.6h7.9-.7c.9,0,1.9-.2,2.8-.5-1.8.7-3.8,1.1-5.8,1.1"/>
    </g>
    <g class="st93">
      <rect class="st3" x="49.1" y="50.6" width="58.8" height="58.8" transform="translate(-33.6 78.9) rotate(-45)"/>
    </g>
    <g class="st21">
      <path class="st30" d="M101.1,101.3c3.7-5.3,6-12.9,6-21.3s-2.3-16.1-6-21.3c.2.2.3.4.5.7,3.8,5.3,6.1,12.6,6.1,20.7s-2.3,15.4-6.1,20.7c-.2.2-.3.4-.5.7"/>
    </g>
    <g class="st82">
      <rect class="st110" x="84.9" y="51.2" width="22.2" height="57.6"/>
    </g>
    <g class="st29">
      <g class="st29">
        <text class="st28" transform="translate(31.6 133)"><tspan x="0" y="0">Protective</tspan></text>
      </g>
      <g class="st29">
        <text class="st27" transform="translate(31.6 133)"><tspan x="0" y="0">Protective</tspan></text>
      </g>
    </g>
    <g class="st29">
      <g class="st29">
        <text class="st28" transform="translate(16.7 144.6)"><tspan x="0" y="0">Plastic Covering</tspan></text>
      </g>
      <g class="st29">
        <text class="st27" transform="translate(16.7 144.6)"><tspan x="0" y="0">Plastic Covering</tspan></text>
      </g>
    </g>
    <g class="st29">
      <g class="st29">
        <text class="st28" transform="translate(137.2 134.9)"><tspan x="0" y="0">Insulating</tspan></text>
      </g>
      <g class="st29">
        <text class="st27" transform="translate(137.2 134.9)"><tspan x="0" y="0">Insulating</tspan></text>
      </g>
    </g>
    <g class="st29">
      <g class="st29">
        <text class="st28" transform="translate(141.8 146.5)"><tspan x="0" y="0">Material</tspan></text>
      </g>
      <g class="st29">
        <text class="st27" transform="translate(141.8 146.5)"><tspan x="0" y="0">Material</tspan></text>
      </g>
    </g>
    <g class="st29">
      <g class="st29">
        <text class="st28" transform="translate(202.3 39.2)"><tspan x="0" y="0">Copper</tspan></text>
      </g>
      <g class="st29">
        <text class="st27" transform="translate(202.3 39.2)"><tspan x="0" y="0">Copper</tspan></text>
      </g>
    </g>
    <g class="st29">
      <g class="st29">
        <text class="st28" transform="translate(208.3 50.8)"><tspan x="0" y="0">Core</tspan></text>
      </g>
      <g class="st29">
        <text class="st27" transform="translate(208.3 50.8)"><tspan x="0" y="0">Core</tspan></text>
      </g>
    </g>
    <g class="st29">
      <g class="st29">
        <text class="st28" transform="translate(90.7 12.6)"><tspan x="0" y="0">Braided</tspan></text>
      </g>
      <g class="st29">
        <text class="st27" transform="translate(90.7 12.6)"><tspan x="0" y="0">Braided</tspan></text>
      </g>
    </g>
    <g class="st29">
      <g class="st29">
        <text class="st28" transform="translate(70.1 24.2)"><tspan x="0" y="0">outer Conductor</tspan></text>
      </g>
      <g class="st29">
        <text class="st27" transform="translate(70.1 24.2)"><tspan x="0" y="0">outer Conductor</tspan></text>
      </g>
    </g>
    <g class="st8">
      <g>
        <polyline class="st30" points="160.8 104.8 160.8 123.9 161.8 123.9 161.8 104.8"/>
        <polygon class="st30" points="157.3 108 158.1 108.7 161.3 105.2 164.6 108.7 165.3 108 161.3 103.7 157.3 108"/>
        <polyline class="st30" points="110 53.7 110 24.8 109 24.8 109 53.7"/>
        <polygon class="st30" points="113.5 50.4 112.8 49.8 109.5 53.3 106.2 49.8 105.5 50.4 109.5 54.7 113.5 50.4"/>
        <polyline class="st30" points="54.2 109.6 54.2 122.9 55.1 122.9 55.1 109.6"/>
        <polygon class="st30" points="50.7 112.8 51.4 113.5 54.7 110 57.9 113.5 58.6 112.8 54.7 108.6 50.7 112.8"/>
        <polyline class="st30" points="219.7 75.3 219.7 55.2 218.8 55.2 218.8 75.3"/>
        <polygon class="st30" points="223.2 72.1 222.5 71.4 219.2 74.9 216 71.4 215.3 72.1 219.2 76.4 223.2 72.1"/>
        <path class="st42" d="M89.4,104.7c-1.9,0-3.7-.6-5.3-1.8-2.5-1.8-4.7-4.8-6.2-8.6-1.5-3.8-2.4-8.4-2.4-13.4s1.6-12.7,4.2-17c1.3-2.2,2.8-3.9,4.4-5,1.7-1.2,3.4-1.8,5.3-1.8v-1.1c-2.1,0-4.2.7-6,2-2.7,1.9-5,5.1-6.6,9.1-1.6,4-2.5,8.7-2.5,13.8s1.6,13,4.3,17.5c1.3,2.3,3,4.1,4.8,5.4s3.8,2,6,2v-1.1h0Z"/>
      </g>
    </g>
    <g class="st9">
      <rect class="st101" x="70.6" y="82.4" width="22.3" height="22.4" transform="translate(-42.2 84.1) rotate(-44.5)"/>
    </g>
    <g class="st84">
      <path class="st42" d="M87.3,90l-.5-.2v.2c-.3.9-1.7,4.9-4,9.2-2.8,4.9-3.1,6.8-3.2,6.9h.6c0,0,.2-.4.2-.4h-.2c-.5-.4-1.8-1.1-2.9-1.9-.6-.4-1.1-.9-1.4-1.3s-.5-.8-.5-1.1h0c0-.6.4-1.4.8-2.5,1.4-3.1,3.9-7.9,5.1-10.2,1.6-3.1,2.3-5,2.3-5l-.5-.2-.5.3,4.3,6.5.5-.3-.5-.2.5.2.5-.3-4.9-7.4-.4,1s0,0,0,.3c-.3.7-.9,2.2-2.1,4.6h0c-.8,1.5-2.2,4.2-3.4,6.7-.6,1.3-1.2,2.5-1.7,3.6s-.8,2-.9,2.6h0v.3c0,.8.4,1.4,1,2,.8.9,2,1.7,3,2.3,1,.6,1.7,1,1.8,1l.7.3v-.7c0,0,0,0,0,0h.2-.2.2s.4-1.8,3-6.5c2.8-5,4.2-9.6,4.2-9.6v-.5l-.5.3h-.5Z"/>
    </g>
    <g class="st38">
      <rect class="st108" x="69.6" y="83.7" width="12.3" height="15.2" transform="translate(-35.2 49.1) rotate(-29.5)"/>
    </g>
    <g class="st40">
      <g>
        <path class="st42" d="M78.9,91.3l-.6-.2v.2c-.3,1-1.7,5.3-4,9.8-2.8,5.3-3.1,7.3-3.2,7.4h.6l.3-.4h-.2c-.5-.4-1.8-1.1-2.9-2-.6-.4-1.1-.9-1.4-1.4-.4-.5-.6-.9-.5-1.2h0c0-.6.4-1.5.8-2.6,1.4-3.3,4-8.5,5.1-11,1.6-3.3,2.3-5.3,2.3-5.3l-.5-.2-.5.3,4.3,6.9.5-.3-.6-.2.6.2.5-.3-5-7.9-.4,1.1s0,0,0,.3c-.3.7-.9,2.4-2.1,4.9-.8,1.6-2.2,4.5-3.5,7.2-.6,1.4-1.2,2.7-1.7,3.8-.5,1.2-.8,2.1-.9,2.8h0v.3c0,.8.4,1.5,1,2.1.8,1,2,1.8,3,2.4s1.7,1,1.8,1l.7.4v-.8c0,0,0,0,0,0h0,0,0s.4-2,3-7c2.8-5.3,4.2-10.2,4.2-10.2v-.4l-.5.3h-.2Z"/>
        <path class="st42" d="M71.1,107.9l.4.4s.9-1,1.8-2.2c.4-.6.9-1.2,1.2-1.8.2-.3.3-.5.4-.8,0-.2.2-.5.2-.8v-.2h-.4.4-.4.4-.5l.4.4c0,0,.2-.3.2-.4h-.5l.4.4-.4-.4v.5s.2,0,.4-.2l-.4-.4v.5-.3.3q0,0,0,0v-.3.3c0,0,0,0,0,0,.4.3,1.2.9,2.2,1.7,1.5,1.2,3.4,2.8,5.3,4.1.9.7,1.9,1.3,2.7,1.7.9.5,1.7.8,2.4.9v-1.2s-.4,0-1,.2c-.9.2-2.4.6-3.8.9s-2.8.6-3.5.6h0c-.2,0-.4,0-.7-.2-1.1-.4-2.8-1.6-4.2-2.7-.7-.5-1.3-1-1.8-1.4-.2-.2-.4-.3-.5-.4l-.2-.2-.4.4.4.4-.4-.4-.4.4s1.4,1.3,3.2,2.5c.9.6,1.8,1.3,2.6,1.8.4.2.8.4,1.2.6s.8.2,1.2.3h0c1.1,0,3.2-.5,5.1-.9s3.5-.8,3.5-.8l2.9-.7-3-.4c-.7,0-1.9-.6-3.2-1.4-1.9-1.2-4.2-2.9-5.9-4.4-.9-.7-1.7-1.4-2.3-1.8-.3-.2-.6-.4-.8-.6s-.2,0-.3-.2h-.2s0,0-.2,0c0,0-.3,0-.4.2s-.2.3-.2.4h0c0,0,.2,0,.2,0h-.2.2-.2s0,.2,0,.3c-.3.7-1.1,1.8-1.9,2.7-.4.5-.7.9-1,1.2-.2.3-.4.5-.4.5l-.4.4.4.4.4-.4h0v.5Z"/>
        <path class="st42" d="M62.2,109.7l.4.4s.9-1,1.8-2.2c.4-.6.9-1.2,1.2-1.8.2-.3.3-.5.4-.8,0-.2.2-.5.2-.8v-.2h-.5.4-.4.4-.5l.4.4c0,0,.2-.3.2-.4h-.5l.4.4-.4-.4v.5s.2,0,.4-.2l-.4-.4v.5-.3.3q0,0,0,0v-.3.3c0,0,0,0,0,0,.4.3,1.2.9,2.2,1.7,1.5,1.2,3.4,2.8,5.3,4.1.9.7,1.9,1.3,2.7,1.7.9.5,1.7.8,2.4.9v-1.2s-.4,0-1,.2c-.9.2-2.4.6-3.8.9s-2.8.6-3.5.6h0c-.2,0-.4,0-.7-.2-1.1-.4-2.8-1.6-4.2-2.7-.7-.5-1.3-1-1.8-1.4-.2-.2-.4-.3-.5-.4s-.2-.2-.2-.2l-.4.4.4.4-.4-.4-.4.4s1.4,1.3,3.1,2.5c.9.6,1.8,1.3,2.6,1.8.4.2.8.4,1.2.6s.8.2,1.2.2h0c1.1,0,3.2-.5,5.1-.9s3.5-.8,3.5-.8l2.9-.7-3-.4c-.7,0-1.9-.6-3.2-1.4-1.9-1.2-4.2-2.9-5.9-4.4-.9-.7-1.7-1.4-2.3-1.8-.3-.2-.6-.4-.8-.6s-.2,0-.3-.2h-.2s0,0-.2,0-.3,0-.4.2-.2.3-.2.4h0c0,0,.2,0,.2,0h-.2.2-.2s0,.2,0,.3c-.3.7-1.1,1.8-1.9,2.7-.4.5-.7.9-1,1.2-.2.3-.4.5-.4.5l-.4.4.4.4.4-.4h0l.2.5Z"/>
      </g>
    </g>
    <g class="st57">
      <rect class="st123" x="77" y="80.5" width="25.6" height="25.7" transform="translate(-39.7 89.7) rotate(-44.5)"/>
    </g>
    <g class="st98">
      <path class="st42" d="M96.4,89.5l-.5-.3s-2.3,3.3-4.8,8.2-3.1,7.3-3.1,7.4h.6c0,0,.4-.3.4-.3,0,0-.3-.3-.8-.7-.8-.6-1.9-1.6-2.8-2.5-.5-.4-.9-.9-1.2-1.2,0-.2-.2-.3-.3-.4h0c0,0-.2,0-.2,0h.2-.2.2-.4.4-.4.4c0-.2,0-.5.2-.9.4-1.4,1.6-3.7,2.8-5.9,1.2-2.2,2.5-4.4,3.1-5.8,1.4-3.1,2.1-4.9,2.1-4.9l-.5-.2-.5.3,5,7.7.5-.3-.5-.3.5.3.5-.3-5.6-8.7-.4,1.1s0,0,0,.3c-.2.6-.8,2.2-1.9,4.5-.7,1.5-2.2,4.1-3.6,6.7-.7,1.3-1.3,2.5-1.8,3.6-.2.5-.4,1-.6,1.5,0,.4-.2.8-.2,1.2h0c0,.2,0,.3,0,.5.2.5.6.9,1.2,1.5,1.6,1.7,4.2,3.9,4.3,3.9l.7.6.2-.9h0c0-.2.7-2.6,3-7.1,1.2-2.4,2.4-4.4,3.3-5.9.4-.7.8-1.3,1.1-1.6,0-.2.2-.3.3-.4s0,0,0,0l.2-.3-.2-.3-.5.3h0l-.2-.3Z"/>
    </g>
    <g class="st130">
      <rect class="st96" x="80.2" y="97.3" width="11.2" height="11.2" transform="translate(-47.5 89.6) rotate(-44.5)"/>
    </g>
    <g class="st103">
      <path class="st42" d="M79.8,106.6l.5.2,3.2-6.8-.5-.2-.4.4s2.5,2.2,5.3,4.4c1.4,1.1,2.8,2.3,4.1,3.2s1.2.9,1.7,1.2c.5.3.9.6,1.2.7l.2-.5-.2-.6s-.3,0-.9.2c-.8.2-2.1.5-3.3.8-1.2.3-2.4.5-3,.6h0c0,0-.4,0-.7-.2-1.1-.4-2.9-1.4-4.3-2.4s-1.4-.9-1.8-1.2-.7-.5-.7-.5l-.3.4.5.2-.5-.2-.3.5s1.5,1.1,3.2,2.2c.9.6,1.8,1.1,2.7,1.6.4.2.8.4,1.2.5.4,0,.7.2,1.1.2h.2c1,0,2.8-.5,4.4-.9s3-.8,3-.8l1.5-.4-1.4-.7c-.2,0-.6-.3-1-.6-1.6-1.1-4.4-3.3-6.7-5.3-1.2-1-2.2-1.9-3-2.5-.8-.7-1.3-1.1-1.3-1.1l-.6-.5-3.7,7.9.4.3.3-.5h0v.4Z"/>
    </g>
    <g class="st16">
      <rect class="st59" x="86" y="80.5" width="24.4" height="24.5" transform="translate(-36.9 95.5) rotate(-44.5)"/>
    </g>
    <g class="st124">
      <path class="st42" d="M105.2,88.5l-.4-.4s-2.7,3.2-5.2,8.1-2.9,6.7-3,6.8h.6c0,0,.3-.3.3-.3,0,0-.3-.3-.8-.7-.8-.6-1.9-1.6-2.8-2.4-.5-.4-.9-.9-1.2-1.2,0-.2-.2-.3-.3-.4h0c0,0-.2,0-.2,0h.2-.2.2-.3l.3.2v-.2h-.3l.3.2c1.2-2.2,2.8-5.4,4.6-8.2.5-.8,1.7-2.6,2.7-4.1,1-1.6,1.9-2.9,1.9-2.9l-.5-.3-.5.3,4.1,6.1.5-.3-.4-.4.4.4.5-.3-4.6-6.7-.5.7s-3.7,5.4-4.7,7h0c-1.8,2.9-3.5,6.2-4.6,8.3v.4c0,.2,0,.3,0,.5.2.5.7,1,1.2,1.5,1.6,1.7,4.3,3.7,4.3,3.8l.7.5.2-.8h0c0-.2.6-1.9,2.9-6.5,1.2-2.4,2.5-4.4,3.5-5.8.5-.7.9-1.2,1.2-1.6,0-.2.2-.3.3-.4h0c0,0,.3-.4.3-.4l-.2-.4-.5.3h0l-.2-.3Z"/>
    </g>
    <g class="st10">
      <rect class="st51" x="95" y="80.6" width="23.5" height="23.5" transform="translate(-34.1 101.3) rotate(-44.5)"/>
    </g>
    <g class="st19">
      <path class="st42" d="M113.8,89l-.4-.4s-2.1,2.6-4.9,7.2c-1.4,2.3-2.4,3.8-3,4.7-.3.4-.6.7-.7.9,0,0,0,.2-.2.2h0c0,0,.4.4.4.4l.3-.4s-.3-.2-.8-.6c-.7-.6-1.7-1.4-2.5-2.2-.4-.4-.8-.8-1-1.1,0-.2-.2-.3-.3-.4h0c0,0,0,0,0,0h0,0,0-.3l.3.2v-.2h-.3l.3.2c1.2-2.1,2.9-4.9,4.7-7.8.5-.8,1.7-2.3,2.8-3.7.5-.7,1.1-1.3,1.4-1.8.4-.5.6-.8.6-.8l-.4-.4-.5.3,4.1,6.1.5-.3-.4-.4.4.4.5-.3-4.5-6.7-.5.6s-1,1.2-2.1,2.5c-1.1,1.4-2.3,2.9-2.8,3.8-1.8,2.8-3.5,5.7-4.7,7.8v.4c0,.3.2.6.3.8.3.4.7.9,1.2,1.4,1.5,1.5,3.6,3.1,3.6,3.1l.4.3.3-.4s1.2-1.3,4.1-6c1.4-2.3,2.6-4,3.4-5.2s.8-1.1,1-1.3c0-.2.2-.3.3-.3h0c0,0,.3-.4.3-.4l-.2-.3-.5.3h0l-.2-.2Z"/>
    </g>
    <g class="st106">
      <rect class="st24" x="87.3" y="95.2" width="13.9" height="13.8" transform="translate(-44.5 95.4) rotate(-44.5)"/>
    </g>
    <g class="st83">
      <path class="st42" d="M88.4,104.9l.5.2,3.2-6.8-.5-.2-.4.4s2.2,2,4.7,4.2c1.2,1.1,2.6,2.2,3.7,3.1s1.1.8,1.5,1.2.8.6,1.1.7l.2-.5-.2-.5s-.3,0-.8.3c-.8.3-2,.7-3.2,1.1s-2.3.7-2.9.7h0c0,0-.4,0-.7-.2-1-.4-2.5-1.4-3.7-2.3-.6-.5-1.1-.9-1.5-1.2l-.4-.4h-.2c0,0-.4.3-.4.3l.5.2-.5-.2-.4.4s1.2,1.1,2.7,2.2c.8.6,1.6,1.1,2.3,1.6.4.2.8.4,1.1.5.4,0,.7.2,1,.2h.2c.5,0,1.2-.2,2-.4,2.3-.6,5.3-1.7,5.3-1.7l1.3-.5-1.2-.6c-.2,0-.5-.3-.9-.6-1.5-1.1-3.9-3.2-6-5-1-.9-2-1.8-2.7-2.4s-1.1-1-1.1-1l-.6-.5-3.7,7.9.3.3.4-.4h0Z"/>
    </g>
    <g class="st6">
      <rect class="st61" x="96" y="94.4" width="14.2" height="14.2" transform="translate(-41.5 101.4) rotate(-44.5)"/>
    </g>
    <g class="st25">
      <path class="st42" d="M97.1,102.8l.5.2,2.5-5.3-.5-.2-.4.4s2.3,1.9,4.8,3.9c1.3,1,2.6,2,3.8,2.8.6.4,1.2.7,1.7,1s.9.4,1.3.5v-1.2s-.4,0-1,.2c-.9.2-2.2.5-3.6.8-1.3.3-2.6.5-3.2.6h0c-.2,0-.8-.2-1.4-.6-.9-.6-1.9-1.5-2.7-2.3l-1-1-.3-.3h0l-.4.3.5.2-.5-.2-.4.4s1,1.1,2.3,2.2c.6.6,1.3,1.1,2,1.6.7.4,1.3.8,2,.8h.2c1,0,2.9-.5,4.7-.9s3.2-.8,3.2-.8l2.6-.6-2.6-.5c-.2,0-.6-.2-1-.4-1.6-.8-4.1-2.7-6.3-4.4-1.1-.8-2-1.6-2.7-2.2s-1.1-.9-1.1-.9l-.6-.5-2.9,6.3.2.3.4-.4h0v.2Z"/>
    </g>
    <g class="st26">
      <rect class="st86" x="103.2" y="80.3" width="23.7" height="23.7" transform="translate(-31.6 107) rotate(-44.5)"/>
    </g>
    <g class="st139">
      <path class="st42" d="M122,86.9l-.5-.3s-2.8,4.5-5.5,9c-2.8,4.7-3.6,6.2-3.6,6.2l.5.3.4-.4-4.8-5-.4.4.5.3c1.2-2.1,2.9-4.9,4.7-7.8h0c.5-.7,1.8-2.5,3-3.9.6-.8,1.2-1.4,1.6-2s.7-.8.7-.8l-.4-.4-.4.4,3.8,4.4.4-.4-.5-.3.5.3.4-.4-4.3-4.9-.4.5s-1.1,1.3-2.3,2.8c-1.2,1.5-2.6,3.2-3.1,4.1h0c-1.8,2.8-3.5,5.7-4.7,7.8l-.2.4,5.7,5.9.4-.7h0c.2-.4,1.1-2,3.5-6.1,1.4-2.3,2.8-4.5,3.8-6.2s1.7-2.8,1.7-2.8l.2-.4-.3-.3-.4.4h0Z"/>
    </g>
    <g class="st49">
      <rect class="st132" x="103.7" y="94.1" width="13.6" height="13.5" transform="translate(-39 106.4) rotate(-44.5)"/>
    </g>
    <g class="st95">
      <path class="st42" d="M104.9,101.9l.5.3,3.2-4.9-.5-.3-.4.4s1.7,1.8,3.7,3.8c1,.9,2.1,1.9,3.1,2.7.5.4,1,.7,1.4,1s.8.4,1.2.5v-1.2s-1.1.2-2.4.3c-1.3.2-2.9.4-3.8.5h0c-.3,0-.8-.2-1.4-.5-.9-.5-1.9-1.2-2.7-1.9-.4-.3-.7-.6-1-.8,0,0-.2-.2-.3-.2h0l-.4.3.5.3-.5-.3-.4.4s1,.9,2.3,1.9c.6.5,1.3.9,2,1.3s1.3.6,2,.6h.2c1.9-.2,6.3-.8,6.3-.8l3.4-.5-3.4-.6c-.2,0-.5-.2-.9-.4-1.3-.8-3.3-2.6-5-4.2l-2.1-2.1c-.5-.6-.8-.9-.8-.9l-.5-.5-3.8,5.9.3.3.4-.4h-.2Z"/>
    </g>
    <g class="st50">
      <rect class="st107" x="110.8" y="79.1" width="25.1" height="25.1" transform="translate(-28.9 112.7) rotate(-44.5)"/>
    </g>
    <g class="st68">
      <path class="st42" d="M131.1,87.8l-.4-.4s-2.3,2.8-5.3,7.9c-1.5,2.6-2.6,4.2-3.3,5.2-.3.5-.6.8-.8,1,0,0,0,.2-.2.2h0l.4.3.4-.4-5.3-5.6-.4.4.5.3c1.3-2.4,3.2-5.5,5.1-8.6.5-.8,1.8-2.6,3-4.1.6-.8,1.1-1.5,1.6-2s.7-.8.7-.8l-.4-.3-.5.3,4.5,6.7.5-.3-.4-.4.4.4.5-.3-4.9-7.4-.5.6s-1,1.3-2.2,2.8-2.5,3.2-3.1,4.2c-2,3.2-3.8,6.3-5.2,8.7l-.2.4,5.9,6.3.4-.4s1.3-1.4,4.4-6.7c1.5-2.5,2.8-4.5,3.7-5.8.5-.7.8-1.2,1.1-1.5.1-.2.2-.3.3-.4h.1c0,0,.3-.4.3-.4l-.2-.3-.5.3h0Z"/>
    </g>
    <g class="st126">
      <rect class="st117" x="123.4" y="87.3" width="13.4" height="13.4" transform="translate(-28.6 118.1) rotate(-44.5)"/>
    </g>
    <g class="st104">
      <g>
        <path class="st42" d="M140.1,86.8l-.4-.4s-2.1,2.6-4.9,7.2h0c-1.4,2.3-2.4,3.8-3,4.7-.3.4-.6.7-.7.9,0,0-.1.2-.2.2h0c0,0,.4.4.4.4l.4-.4-4.8-5-.4.4.5.3c1.2-2.1,2.9-4.9,4.7-7.8.5-.8,1.6-2.2,2.6-3.4s.9-1.2,1.3-1.6.6-.7.6-.7l-.4-.4-.4.4,4.5,5.5.4-.4-.4-.4.4.4.4-.4-4.9-6.1-.4.5s-.9,1-1.9,2.3-2.1,2.7-2.6,3.5c-1.8,2.8-3.5,5.7-4.7,7.8l-.2.4,5.5,5.7.4-.4s1.2-1.3,4.1-6h0c1.4-2.3,2.6-4,3.4-5.2s.8-1.1,1-1.3c.1-.2.2-.3.3-.3h0c0,0,.3-.5.3-.5l-.3-.4-.4.4h-.2Z"/>
        <path class="st42" d="M147.9,87.4l-.4-.4s-1.9,2.3-4.4,6.6c-1.3,2.1-2.2,3.5-2.7,4.3-.3.4-.5.7-.6.8v.2h-.2.1-.1.1-.1l.4.4.4-.4-4.4-4.6-.4.4.5.3c1.1-1.9,2.6-4.5,4.2-7.1.4-.7,1.5-2.1,2.5-3.4.5-.6.9-1.2,1.3-1.6.3-.4.6-.7.6-.7l-.4-.4-.5.3,3.7,5.6.5-.3-.4-.4.4.4.5-.3-4.1-6.2-.5.6s-.9,1.1-1.9,2.3c-1,1.3-2.1,2.7-2.6,3.5-1.6,2.6-3.2,5.2-4.3,7.2l-.2.4,5.1,5.3.4-.4s1.1-1.2,3.7-5.5c1.2-2.1,2.3-3.7,3.1-4.8.4-.6.7-1,.9-1.2.1,0,.2-.2.2-.3h0l.3-.4-.2-.3-.5.3h0v-.2Z"/>
        <path class="st42" d="M156.6,87.5l-.4-.4s-2.1,2.2-4.9,6.1c-1.4,2-2.4,3.2-3.1,4-.3.4-.6.6-.7.8l-.2.2h0v.2c.1,0,0,0,0,0,0,0,.1,0,.1,0h-.1c0,0,.4.3.4.3l.4-.3-3.9-5-.4.3.5.3c1.2-1.8,3-4.3,4.8-6.7.5-.6,1.5-1.8,2.4-2.8.4-.5.9-.9,1.2-1.2s.5-.5.5-.5l-.4-.4-.4.3,3.9,5.2.4-.3-.4-.4.4.4.4-.3-4.3-5.7-.5.5s-.8.8-1.7,1.8-1.9,2.1-2.5,2.8c-1.8,2.4-3.6,4.9-4.9,6.7l-.2.3,4.6,5.8.4-.4s1.2-1.1,4.1-5.1c1.4-1.9,2.6-3.4,3.5-4.5.4-.5.8-.9,1-1.1.1,0,.2-.2.3-.3h0l.3-.4-.3-.4-.4.3h0Z"/>
      </g>
    </g>
    <g class="st12">
      <rect class="st69" x="113.6" y="54.8" width="22.5" height="22.5" transform="translate(-10.5 106.4) rotate(-44.5)"/>
    </g>
    <g class="st113">
      <path class="st42" d="M132.1,63.2l-.4-.4s-2.4,2.2-5.7,6.4h0c-1.7,2.1-2.8,3.4-3.6,4.2l-.8.8-.2.2h0c0,0,.3.5.3.5l.5-.3-4.2-5.7-.5.3.5.3c1.4-1.9,3.5-4.5,5.6-7,.6-.7,2-2,3.2-3.2.6-.6,1.2-1.2,1.6-1.5.4-.4.7-.7.7-.7l-.4-.4-.5.3,3.3,6.6.5-.3-.4-.4.4.4.5-.2-3.7-7.3-.6.5s-1.1,1-2.3,2.2c-1.2,1.2-2.6,2.6-3.3,3.3-2.1,2.5-4.2,5.1-5.7,7.1l-.2.3,4.8,6.5.5-.4s1.4-1.1,4.8-5.4c1.6-2.1,3.1-3.6,4.1-4.7.5-.5.9-.9,1.2-1.2.1,0,.2-.2.3-.3h.1l.3-.4-.2-.4-.5.2h0Z"/>
    </g>
    <g class="st17">
      <rect class="st119" x="122.7" y="57" width="19.1" height="19.2" transform="translate(-8.8 111.8) rotate(-44.5)"/>
    </g>
    <g class="st2">
      <path class="st42" d="M140.2,64.8l-.4-.4s-2.3,2-5.4,5.7c-1.6,1.9-2.7,3-3.4,3.7-.4.3-.6.6-.8.7h-.2v.2h0c0,0,0,0,0,0h0c0,0,0,0,0,0l.3.5.4-.3-4-5.1-.4.3.4.3c1.4-1.7,3.3-4,5.3-6.2h0c.5-.6,1.8-1.8,3-2.9.6-.5,1.1-1,1.5-1.4s.7-.6.7-.6l-.4-.4-.5.3,3.2,6,.5-.3-.4-.4.4.4.5-.3-3.5-6.6-.5.5s-1,.9-2.2,2-2.5,2.3-3.1,3h0c-2,2.3-4,4.5-5.3,6.3l-.3.3,4.6,5.9.4-.3s1.3-1,4.5-4.8c1.5-1.8,2.9-3.2,3.8-4.2.5-.5.8-.8,1.1-1.1.1,0,.2-.2.3-.3h.1l.3-.4-.2-.4-.5.3h.2Z"/>
    </g>
    <g class="st66">
      <polygon class="st52" points="145.4 59.7 145.4 59.7 145.4 59.7 145.4 59.7"/>
    </g>
    <g class="st64">
      <g>
        <path class="st42" d="M148.4,65.2l-.4-.4s-2.1,1.9-5,5.4c-1.4,1.8-2.5,2.9-3.1,3.5-.3.3-.6.5-.7.7h-.1v.2h0v.2c.1,0,0,0,0,0h.1c0,0-.1,0-.1,0l.3.4.4-.3-3.6-4.8-.4.3.4.3c1.2-1.6,3-3.8,4.9-5.9.5-.6,1.7-1.7,2.8-2.7.5-.5,1-1,1.4-1.3s.6-.5.6-.5l-.4-.4-.5.3,2.9,5.6.5-.3-.4-.4.4.4.5-.3-3.3-6.2-.5.5s-.9.9-2,1.9-2.3,2.2-2.9,2.8c-1.9,2.1-3.6,4.3-4.9,6l-.3.3,4.3,5.6.4-.3s1.2-.9,4.2-4.5c1.4-1.7,2.6-3.1,3.5-3.9.4-.4.8-.8,1-1,.1,0,.2-.2.3-.2h0l.3-.4-.2-.4-.5.3h0v-.4Z"/>
        <path class="st42" d="M156.9,65.4l-.4-.4s-2.1,1.9-5,5.4c-1.4,1.8-2.5,2.9-3.1,3.5-.3.3-.6.5-.7.7h-.1v.2h0v.2c.1,0,0,0,0,0h.1c0,0-.1,0-.1,0l.3.4.4-.3-3.6-4.8-.4.3.4.3c1.2-1.6,3-3.8,4.9-5.9h0c.5-.6,1.7-1.7,2.8-2.7.5-.5,1-1,1.4-1.3s.6-.5.6-.5l-.4-.4-.5.3,2.9,5.6.5-.3-.4-.4.4.4.5-.3-3.3-6.2-.5.5s-.9.9-2,1.9-2.3,2.2-2.9,2.8h0c-1.9,2.2-3.6,4.3-4.9,6l-.3.3,4.2,5.6.4-.3s1.2-.9,4.2-4.5c1.4-1.7,2.6-3.1,3.5-3.9.4-.4.8-.8,1-1,.1,0,.2-.2.3-.2h0l.3-.4-.2-.4-.5.3h0l.2-.4Z"/>
        <path class="st42" d="M156.8,65.3l-.4-.4s-2.1,1.9-5,5.4h0c-1.4,1.8-2.5,2.9-3.1,3.5-.3.3-.6.5-.7.7h-.1v.2h.1c0,0-.1,0-.1,0h.1c0,0-.1,0-.1,0l.3.4.4-.3-3.6-4.8-.4.3.4.3c1.2-1.6,3-3.8,4.9-5.9h0c.5-.6,1.5-1.5,2.4-2.3.5-.4.9-.8,1.2-1,.3-.3.5-.4.5-.4l-.3-.4-.4.3,3.6,4.7.4-.3-.4-.4.4.4.4-.3-3.9-5.2-.4.3s-.8.6-1.7,1.4c-.9.8-2,1.7-2.5,2.4h0c-1.9,2.1-3.6,4.3-4.9,6l-.2.3,4.2,5.6.4-.3s1.2-.9,4.2-4.5h0c1.4-1.7,2.6-3.1,3.5-3.9.4-.4.8-.8,1-1,.1,0,.2-.2.3-.2h0l.4-.4-.3-.4-.4.3h-.2Z"/>
      </g>
    </g>
    <g class="st128">
      <rect class="st85" x="104.9" y="53.8" width="22.4" height="22.5" transform="translate(-12.3 100) rotate(-44.5)"/>
    </g>
    <g class="st5">
      <path class="st42" d="M123.4,62.1l-.4-.4s-2.4,2.2-5.7,6.4c-1.7,2.1-2.8,3.4-3.6,4.2l-.8.8-.2.2h0c0,0,.3.5.3.5l.5-.3-4.2-5.7-.5.3.5.3c1.4-1.9,3.5-4.5,5.6-7,.6-.7,2-2,3.2-3.2.6-.6,1.2-1.2,1.6-1.5.4-.4.7-.7.7-.7l-.4-.4-.5.3,3.3,6.6.5-.3-.4-.4.4.4.5-.2-3.7-7.3-.6.5s-1.1,1-2.3,2.2c-1.2,1.2-2.6,2.6-3.3,3.3-2.1,2.5-4.2,5.1-5.7,7.1l-.2.3,4.8,6.5.5-.4s1.4-1.1,4.8-5.4c1.6-2.1,3.1-3.6,4.1-4.7.5-.5.9-.9,1.2-1.2,0,0,.2-.2.3-.3h0l.3-.4-.2-.4-.5.2h0Z"/>
    </g>
    <g class="st121">
      <rect class="st100" x="96" y="53" width="22.3" height="22.3" transform="translate(-14.2 93.5) rotate(-44.5)"/>
    </g>
    <g class="st80">
      <path class="st42" d="M114.2,61.2l-.4-.4s-2,2.3-5.3,6.4h0c-1.7,2.1-2.8,3.4-3.6,4.2l-.8.8-.2.2h0c0,0,.3.5.3.5l.5-.3-4.2-5.7-.5.3.5.3c1.4-1.9,3.5-4.5,5.6-7,.6-.7,2-2,3.2-3.2.6-.6,1.2-1.2,1.6-1.5.4-.4.7-.7.7-.7l-.4-.4-.5.2,2.9,6.5.5-.2-.4-.4.4.4.5-.2-3.2-7.2-.6.5s-1.1,1-2.3,2.2c-1.2,1.2-2.6,2.6-3.3,3.3-2.1,2.5-4.2,5.1-5.7,7.1l-.2.3,4.8,6.5.5-.4s1.4-1.1,4.8-5.4c1.7-2.1,3-3.7,3.9-4.7.4-.5.8-1,1-1.2.2-.3.3-.4.4-.4l.2-.3-.2-.3-.5.2h0Z"/>
    </g>
    <g class="st88">
      <rect class="st33" x="86.8" y="51.9" width="22.7" height="22.7" transform="translate(-16.2 86.9) rotate(-44.5)"/>
    </g>
    <g class="st41">
      <path class="st42" d="M105.3,60.2l-.4-.4s-2.1,2.6-5.4,6.7c-1.7,2.1-2.8,3.4-3.6,4.2l-.8.8-.2.2h0c0,0,.3.5.3.5l.5-.3-4.2-5.7-.5.3.5.3c1.4-1.9,3.5-4.5,5.6-7,.6-.7,2-2,3.2-3.2.6-.6,1.2-1.1,1.6-1.5s.7-.7.7-.7l-.4-.4-.5.2,3.1,6.2.5-.2-.4-.4.4.4.5-.2-3.4-6.9-.6.5s-1.1,1-2.3,2.2c-1.2,1.2-2.6,2.6-3.3,3.3-2.1,2.5-4.2,5.1-5.7,7.1l-.2.3,4.8,6.5.5-.4s1.4-1.1,4.8-5.4c1.7-2.1,3-3.7,3.9-4.9s1.5-1.8,1.5-1.8l.2-.3-.2-.3-.5.2h0Z"/>
    </g>
    <g class="st45">
      <rect class="st75" x="77.6" y="50.8" width="23" height="23.1" transform="translate(-18.1 80.3) rotate(-44.5)"/>
    </g>
    <g class="st146">
      <path class="st42" d="M96.3,59.8l-.4-.4s-2.4,2.2-5.7,6.4c-1.7,2.1-2.8,3.4-3.6,4.2l-.8.8-.2.2h0c0,0,.3.5.3.5l.5-.3-4.2-5.7-.5.3.5.3c1.4-1.9,3.5-4.5,5.6-7h0c.6-.7,2-2.1,3.2-3.2.6-.6,1.2-1.2,1.6-1.5.4-.4.7-.7.7-.7l-.4-.4-.5.3,3.3,6.6.5-.3-.4-.4.4.4.5-.3-3.7-7.3-.6.5s-1.1,1-2.3,2.2c-1.2,1.2-2.6,2.6-3.3,3.3-2.1,2.5-4.2,5.1-5.7,7.1l-.2.3,4.8,6.5.5-.4s1.4-1.1,4.8-5.4c1.6-2.1,3.1-3.6,4.1-4.7.5-.5.9-.9,1.2-1.2,0,0,.2-.2.3-.3h0l.3-.4-.2-.4-.5.3h0Z"/>
    </g>
    <g class="st77">
      <rect class="st54" x="112.3" y="93.8" width="13.9" height="13.8" transform="translate(-36.4 112.4) rotate(-44.5)"/>
    </g>
    <g class="st79">
      <g>
        <path class="st42" d="M113,102.1l.5.3,3.2-4.9-.5-.3-.4.4s1.7,1.5,3.8,3.1c1,.8,2.1,1.6,3.1,2.2s1.9,1.1,2.6,1.3v-1.2c-2,.3-2.9.6-3.7.8s-1.5.3-3.1.4h0c-.3,0-.8,0-1.4-.4-.8-.4-1.8-.9-2.5-1.4-.3-.2-.7-.4-.9-.6,0,0-.2,0-.2-.2h0l-.3.4.5.3-.5-.3-.3.4s.9.7,2.1,1.4c.6.3,1.2.7,1.8,1,.6.3,1.2.5,1.8.5h0c1.7,0,2.5-.2,3.3-.4.8-.2,1.7-.5,3.6-.8l3.4-.5-3.4-.6c-.4,0-1.3-.5-2.2-1.1-1.4-.9-3.1-2.2-4.4-3.3-.7-.5-1.2-1-1.6-1.4-.4-.3-.6-.6-.7-.6l-.5-.4-3.8,5.9.4.3.3-.4h0Z"/>
        <path class="st42" d="M140.1,99.6l.5.3,3.5-5.3-.5-.3-.4.3s1.3,1.6,3,3.2c.9.8,1.9,1.6,3,2.2s2.2,1,3.3,1.1h.7l-.2-1.1c-1.7.3-2.7.5-3.4.7s-1.1.2-2.1.2-1.5,0-2.7,0h0c-1.5,0-2.6-.5-3.3-.9-.4-.2-.6-.4-.8-.5l-.2-.2h-.1.1c0,0-.1,0-.1,0h.1c0,0-.4.3-.4.3l.5.3-.5-.3-.4.4s1.7,1.6,5.1,1.9h0c1.2,0,2.1,0,2.7,0,1,0,1.6,0,2.4-.3.7-.2,1.6-.4,3.3-.7l-.2-1.1h-.5c-.8,0-1.8-.3-2.8-.9-1.4-.8-2.9-2.1-3.9-3.2-.5-.5-1-1-1.3-1.4-.1-.2-.3-.3-.4-.4h-.1c0,0-.5-.7-.5-.7l-4.2,6.3.3.3.4-.4h0v.2Z"/>
      </g>
    </g>
    <g class="st20">
      <rect class="st70" x="130.5" y="93.5" width="12.1" height="12" transform="translate(-30.6 124.2) rotate(-44.5)"/>
    </g>
    <g class="st67">
      <path class="st42" d="M131,100.5l.5.3,4.2-6.1-.5-.3-.5.3s1.1,1.8,2.8,3.6c.8.9,1.8,1.8,2.8,2.5s2.1,1.2,3.3,1.2.4,0,.6,0l-.2-1.1c-1.7.3-2.7.5-3.4.7s-1.1.2-2.1.2-1.5,0-2.7,0c-1.5,0-2.6-.5-3.3-.9-.4-.2-.6-.4-.8-.5l-.2-.2h-.1.1c0,0-.1,0-.1,0h.1c0,0-.4.3-.4.3l.5.3-.5-.3-.4.4s1.7,1.6,5.1,1.9c1.2,0,2.1,0,2.8,0,1,0,1.6,0,2.4-.3s1.6-.4,3.3-.7l-.2-1.1h-.4c-.8,0-1.7-.4-2.6-1-1.4-.9-2.7-2.4-3.6-3.6-.5-.6-.9-1.2-1.1-1.5-.1-.2-.2-.3-.3-.5,0,0-.1-.2-.1-.2l-.5-.7-4.9,7.2.3.3.4-.4h0l-.3.2Z"/>
    </g>
    <g class="st127">
      <rect class="st115" x="120.3" y="91.6" width="15.2" height="15.2" transform="translate(-32.8 118.1) rotate(-44.5)"/>
    </g>
    <g class="st99">
      <g>
        <path class="st42" d="M121.5,101.8l.5.3,4.9-6.8-.5-.3-.4.3s1.4,1.8,3.1,3.6c.8.9,1.8,1.8,2.6,2.5.4.3.9.6,1.3.9.4.2.8.4,1.2.4h.4l-.3-1.1c-2,.5-3.4.8-4.6,1.1-1.2.2-2.1.4-3.2.4s-.4,0-.7,0c-1.5,0-2.5-.5-3.1-.8-.3-.2-.5-.3-.6-.5h0v-.2h0l-.2.2.3-.2h0l-.2.2.3-.2-.5.3.5.3-.5-.3-.5.3c0,0,1.3,1.8,4.7,1.9h.7c1.1,0,2.2,0,3.4-.4s2.6-.6,4.6-1.1l-.3-1.1h0c-.1,0-.4,0-.7-.2-.6-.3-1.3-.9-2-1.6-1.1-1-2.2-2.3-3.1-3.3-.4-.5-.8-.9-1.1-1.3-.3-.3-.4-.5-.4-.5l-.5-.6-5.6,7.8.2.3.5-.3h-.1Z"/>
        <path class="st42" d="M147.6,98.6l.4.4,5.1-5.8-.4-.4-.4.4s1.4,1.7,3.2,3.5c.9.9,1.9,1.8,2.8,2.6.9.8,1.8,1.4,2.6,1.6l.2-.5v-.6h-8c-.9,0-2.3-.5-3.4-.9-.5-.2-1-.4-1.4-.6-.2,0-.3-.2-.4-.2h-.1l-.3.5.4.4-.4-.4-.3.5s.9.5,2,.9c1.1.5,2.6.9,3.8,1h11.3l-3.2-1.1c-.5-.2-1.4-.7-2.2-1.4-1.3-1.1-2.8-2.6-4-3.8-.6-.6-1.1-1.2-1.4-1.5s-.5-.6-.5-.6l-.4-.5-6,6.8.6.3.3-.5h0Z"/>
      </g>
    </g>
    <g class="st1">
      <rect class="st47" x="69.9" y="50.4" width="23.2" height="23.2" transform="translate(-20.1 74.9) rotate(-44.5)"/>
    </g>
    <g class="st87">
      <path class="st42" d="M77.2,71.3l.5.3s.5-.7,1.3-1.7c1.2-1.6,3-4,4.8-6.2.9-1.1,1.8-2.2,2.6-3,.8-.9,1.5-1.5,1.9-1.8h0l1.1-1.8-.2-.3s-.8-1.2-1.6-2.5c-.4-.6-.8-1.3-1.1-1.8-.2-.3-.3-.5-.4-.7v-.2h-.2,0,0,0c0,0-.2-.3-.3-.3h-.3c-.2,0-.3,0-.4,0-.2,0-.4.2-.7.5-1,.7-2.6,2.1-4.5,4.1-1.9,1.9-4.1,4.3-6.2,7l-.2.2v.2s.4,1.8,1,3.7c.3,1,.6,2,1.1,2.8.4.9.8,1.6,1.5,2l.4.3.3-.4-.5-.3.3-.5c-.3-.2-.7-.7-1.1-1.5-.6-1.2-1-2.7-1.4-4-.2-.6-.3-1.2-.4-1.6,0-.4,0-.6,0-.6h-.6c0,0,.4.5.4.5,2.5-3.2,5.1-6.1,7.2-8.1,1.1-1,2-1.8,2.7-2.4.3-.3.6-.5.8-.6h.2v-.4.3h0v-.3.3-.5l-.2.4h.2v-.5l-.2.4.3-.5-.5.2s0,.2.2.3l.3-.5-.5.2v.2c0,.3.4.7.7,1.2,1,1.6,2.5,4,2.5,4l.5-.3-.5-.3-.9,1.3.5.3-.3-.5c-.8.6-1.8,1.6-3,3-3.4,4-7.8,10.1-7.8,10.1l.5.3.3-.5-.3.5h.2Z"/>
    </g>
    <g class="st120">
      <rect class="st37" x="77.3" y="53.3" width="5.6" height="5.6" transform="translate(-16.3 72.2) rotate(-44.5)"/>
    </g>
    <g class="st34">
      <path class="st42" d="M69.2,69.9l.5.3s.3-.5.8-1.4c.8-1.3,2.1-3.2,3.4-5.1s2.8-3.7,3.8-4.8l-.4-.4.4.4,5.3-4.7-6.1-5.9-.4.4s-2.4,2.3-5.1,5.1c-1.4,1.4-2.8,2.9-4,4.3-1.2,1.4-2.3,2.6-2.9,3.5-.4.6-.6,1.3-.6,1.9,0,.9.3,1.8.8,2.6,1.4,2.4,4.1,4.2,4.2,4.2l.5.3.3-.5-.5-.3.3-.5h0c-.2-.2-1.4-1-2.4-2.1-.5-.6-1-1.2-1.4-1.8-.4-.6-.6-1.3-.6-1.9s0-.9.4-1.3c.6-.8,1.6-2,2.8-3.4,1.8-2,4.1-4.4,5.9-6.2.9-.9,1.7-1.7,2.3-2.2l.9-.9-.4-.4-.4.4,4.8,4.7-4.4,3.9h0c-1.6,1.5-3.6,4.3-5.3,6.8-1.7,2.5-3,4.6-3,4.6l.5.3.3-.5-.3.5h0Z"/>
    </g>
    <g class="st116">
      <rect class="st91" x="65.8" y="63.2" width="22.7" height="28.5" transform="translate(-28.1 48) rotate(-29.5)"/>
    </g>
    <g class="st73">
      <path class="st42" d="M79.1,90.6l.5-.3s0-.2-.3-.5c-.8-1.2-2.8-4.3-4.7-7.9s-3.8-7.9-4.4-11.3h0l-.2-.6,4.6-6.5-.5-.3-.5.2s1.1,3.8,2.8,8.1c.8,2.2,1.8,4.5,2.8,6.7,1.1,2.1,2.2,4,3.3,5.3l.4-.4-.5-.2-3.7,7.7.5.2.5-.3-.5.3.5.2,3.9-8-.3-.3c-1.1-1.2-2.1-3-3.2-5-1.5-3.1-2.9-6.8-3.9-9.6-.5-1.4-.9-2.7-1.2-3.6-.3-.9-.4-1.4-.4-1.4l-.3-1.1-5.7,8,.5,1.1.5-.2h-.6c.8,4.3,3.2,9.3,5.4,13.3s4.3,7,4.3,7l.6.8.4-.9-.5-.2h0v-.3Z"/>
    </g>
    <g class="st58">
      <rect class="st81" x="81.4" y="63.8" width="24.4" height="27.5" transform="translate(-26.1 56.2) rotate(-29.5)"/>
    </g>
    <g class="st129">
      <path class="st42" d="M96.4,89.2l.5-.3s0-.2-.3-.4c-1.4-2.1-7.3-10.7-9.9-17.5l-.5.2.4.4,4.6-5-.4-.4-.5.3s.5.7,1.2,1.7c2.3,3.2,7.1,10.2,9.1,14.5l.5-.2-.5-.3-4.7,6.7.5.3.5-.3-.5.3.5.3,4.9-7v-.3c-1.5-3-4.1-7.1-6.4-10.5s-4.2-6-4.2-6l-.4-.6-5.2,5.8v.3c3.2,7.9,10.4,18.2,10.4,18.2l.5.7.5-.7-.5-.3h0Z"/>
    </g>
    <g class="st44">
      <rect class="st71" x="91.4" y="64.8" width="22.7" height="25.5" transform="translate(-24.9 60.7) rotate(-29.5)"/>
    </g>
    <g class="st53">
      <path class="st42" d="M105.2,88.4l.5-.3s0-.2-.3-.4c-1.3-1.9-6.8-10-9.2-16.3l-.5.2.4.4,4.2-4.7-.4-.4-.5.3s.4.6,1.2,1.6c2.1,3,6.6,9.5,8.4,13.5l.5-.2-.5-.3-4.4,6.3.5.3.5-.3-.5.3.5.3,4.5-6.5v-.3c-1.4-2.8-3.8-6.6-5.9-9.8s-3.9-5.6-3.9-5.6l-.4-.6-4.9,5.5v.3c2.9,7.4,9.7,16.9,9.7,16.9l.5.7.5-.7-.5-.3h0Z"/>
    </g>
    <g class="st18">
      <rect class="st102" x="100.2" y="66" width="22.1" height="24.7" transform="translate(-24.2 64.9) rotate(-29.5)"/>
    </g>
    <g class="st147">
      <path class="st42" d="M113.4,88.7l.5-.3s-.3-.6-.9-1.5c-1.7-2.9-5.5-9.3-8.1-14.5l-.5.2.4.4,4-4.5-.4-.4-.5.3s.4.6,1.1,1.6c2,2.9,6.3,9.2,8.7,12.8l.5-.3-.4-.3-4.7,6.3.4.3.5-.3-.5.3.4.3,5-6.6-.2-.3c-3.1-4.8-9.8-14.3-9.8-14.3l-.4-.6-4.7,5.3.2.3c3.5,7,9.1,16.2,9.1,16.2l.4.7.5-.7s-.4-.3-.5-.3h0Z"/>
    </g>
    <g class="st137">
      <rect class="st31" x="109.5" y="66.5" width="20.7" height="22.4" transform="translate(-22.7 69.1) rotate(-29.5)"/>
    </g>
    <g class="st46">
      <path class="st42" d="M122,86.9l.4-.4s0,0-.3-.3c-1.2-1.4-6.3-7.6-8.6-12.9l-.5.2.4.4,4.5-4.7-.4-.4-.5.3s6,8.5,9.1,12.3l.4-.4-.4-.3-4.6,5.8.4.3.4-.4-.4.4.4.3,4.9-6.2-.3-.3c-1.5-1.8-3.8-4.9-5.7-7.5-.9-1.3-1.8-2.5-2.4-3.3-.6-.9-1-1.4-1-1.4l-.4-.6-5.2,5.5v.3c2.8,6.4,9.2,13.5,9.2,13.5l.4.5.4-.5-.4-.3h.2Z"/>
    </g>
    <g class="st145">
      <rect class="st23" x="118.4" y="68.4" width="15.2" height="18.5" transform="translate(-21.9 72.1) rotate(-29.5)"/>
    </g>
    <g class="st35">
      <g>
        <path class="st42" d="M130.9,86.9l.4-.4-.3-.3c-1.2-1.4-6.3-7.4-8.5-12.5l-.5.2.4.4,4.5-4.6-.4-.4-.5.3s5.9,8.3,9,11.9l.4-.4-.4-.4-4.6,5.7.4.4.4-.4-.4.4.4.4,4.9-6-.3-.4c-1.5-1.8-3.8-4.8-5.6-7.3-.9-1.3-1.8-2.4-2.4-3.2-.6-.8-1-1.3-1-1.3l-.4-.6-5.2,5.3.2.3c2.7,6.2,8.9,13.1,9,13.1l.4.5.4-.5-.4-.4h0v.2Z"/>
        <path class="st42" d="M139.9,87.1l.4-.4-.3-.3c-1.2-1.4-6.1-7.2-8.2-12.3l-.5.2.4.4,4.3-4.5-.4-.4-.5.3s5.7,8.1,8.6,11.7l.4-.4-.4-.3-4.4,5.5.4.3.4-.4-.4.4.4.3,4.7-5.9-.3-.3c-1.4-1.8-3.6-4.7-5.4-7.1-.9-1.2-1.7-2.4-2.3-3.2-.6-.8-.9-1.3-.9-1.3l-.4-.6-5.1,5.2v.3c2.7,6.1,8.8,12.8,8.8,12.9l.4.5.4-.5-.4-.3h0l.3.2Z"/>
        <path class="st42" d="M148.1,87.3l.4-.4-.3-.3c-1.2-1.4-6.1-7.2-8.2-12.3l-.5.2.4.4,4.3-4.5-.4-.4-.5.3s5.7,8.1,8.7,11.7l.4-.4-.4-.3-4.4,5.5.4.3.4-.4-.4.4.4.3,4.7-5.9-.3-.3c-1.4-1.8-3.6-4.7-5.4-7.1-.9-1.2-1.7-2.4-2.3-3.2-.6-.8-.9-1.3-.9-1.3l-.4-.6-5.1,5.2v.3c2.7,6.1,8.8,12.8,8.8,12.9l.4.5.4-.5-.4-.3h0l.2.2Z"/>
        <path class="st42" d="M156.5,87.3l.4-.4-.3-.3c-1.2-1.4-6.1-7.2-8.2-12.3l-.5.2.4.4,4.3-4.5-.4-.4-.5.3s5.7,8.1,8.6,11.7l.4-.4-.4-.3-4.4,5.5.4.3.4-.4-.4.4.4.3,4.7-5.9-.3-.3c-1.4-1.8-3.6-4.7-5.4-7.1-.9-1.2-1.7-2.4-2.3-3.2-.6-.8-.9-1.3-.9-1.3l-.4-.6-5,5.2v.3c2.7,6.1,8.8,12.8,8.8,12.9l.4.5.4-.5-.4-.3h0l.2.2Z"/>
      </g>
    </g>
    <g class="st89">
      <rect class="st14" x="72.2" y="63.7" width="24" height="27.7" transform="translate(-27.3 51.5) rotate(-29.5)"/>
    </g>
    <g class="st143">
      <path class="st42" d="M87.6,89.5l.4-.4s0-.2-.4-.4c-.8-1-3-3.7-5.1-7s-4.1-7.2-4.7-10.6h-.6l.5.4,4-5.6-.5-.3-.4.4s0,0,.3.4c.7.9,2.6,3.3,4.6,6.2,2,2.9,4,6.4,5,9.4l.5-.2-.5-.2-3.7,7.7.5.2.4-.4-.4.4.5.2,3.8-7.9v-.2c-1.3-3.7-3.8-7.7-6.1-10.9-2.2-3.2-4.1-5.5-4.1-5.5l-.5-.6-4.6,6.4v.2c.8,4.2,3.4,8.8,5.9,12.4,2.4,3.6,4.7,6.2,4.7,6.2l.6.7.4-.8-.5-.2h0Z"/>
    </g>
    <g class="st148">
      <g class="st39">
        <g class="st22">
          <rect class="st43" x="81.6" y="54" width=".8" height=".8" transform="translate(-6.5 97.4) rotate(-59.5)"/>
        </g>
      </g>
    </g>
    <g class="st111">
      <g>
        <path class="st42" d="M77.2,49.3l-.4.4s.3.2.7.6c.6.6,1.5,1.5,2.3,2.3.4.4.7.8.9,1.2,0,.2.2.3.2.4h0c0,0,.2,0,.2,0h-.2.2-.2s0,.2,0,.4l.2.2h.5c0,0,.2,0,.3-.2.4-.3.9-.8,1.6-1.4,1.1-1,2.5-2.2,4.1-3.2s3.4-1.8,5.2-2l2.3-.2-2.2-.9s-1.5-.6-3.4-1.2c-1.9-.6-4.2-1.2-5.9-1.2s-1,0-1.5.3h0c-1.1.6-2.5,1.5-3.7,2.4s-2,1.5-2,1.5l-.5.4.5.5.4-.4.3.4s.2-.2.6-.5c1.1-.8,3.4-2.6,4.9-3.4h0c.2,0,.5-.2.9-.2,1.4,0,3.7.6,5.5,1.2s1.8.6,2.4.8c.3,0,.6.2.7.3h.3l.2-.5v-.6c-3.1.3-5.9,2.1-8,3.8-1.1.8-2,1.7-2.6,2.3-.3.3-.6.5-.8.7,0,0-.2,0-.2.2h0l.2.4v-.4h-.2l.2.4v-.4.5l.2-.5h-.2v.5l.2-.5-.2.5.5-.2s-.2-.2-.3-.3l-.2.5.5-.2-.4.2h.5v-.2l-.4.2h.5-.3.3-.3.3c0-.3,0-.5-.3-.8-.2-.4-.6-.9-1.1-1.4-1.3-1.5-3.2-3.3-3.2-3.3l-.4.4.3.4-.3-.4h.2Z"/>
        <path class="st42" d="M62.9,64.7l.5.3s.3-.5.8-1.3c.8-1.2,2-3,3.3-4.8s2.7-3.5,3.7-4.4l-.4-.4.4.4,5.2-4.4-5.9-5.6-.4.4s-2.3,2.2-4.9,4.8-2.7,2.7-3.9,4-2.2,2.4-2.8,3.3c-.4.6-.6,1.2-.6,1.8s.3,1.7.8,2.4c1.4,2.2,4,3.9,4,3.9l.5.3.3-.5-.5-.3.3-.5h0c-.2-.2-1.3-1-2.3-2s-1-1.1-1.3-1.7-.6-1.2-.5-1.7c0-.4,0-.8.4-1.2.5-.8,1.5-1.9,2.7-3.2,1.8-1.9,4-4.1,5.7-5.8.9-.8,1.6-1.6,2.2-2.1.5-.5.9-.8.9-.8l-.4-.4-.4.4,4.6,4.3-4.2,3.6h0c-1.5,1.4-3.4,4-5.1,6.4-1.6,2.3-2.9,4.3-2.9,4.3l.5.3.3-.5-.3.5h0l-.3.2Z"/>
        <path class="st42" d="M68.4,47.2l-.4.4s.3.2.7.6c.6.6,1.5,1.5,2.3,2.3.4.4.7.8.9,1.2,0,.2.2.3.2.4h0c0,0,.2,0,.2,0h-.2.2-.2s0,.2,0,.4l.2.2h.5c0,0,.2,0,.3-.2.4-.3.9-.8,1.6-1.4,1.1-1,2.5-2.2,4.1-3.2s3.4-1.8,5.2-2l2.3-.2-2.2-.9s-1.5-.6-3.4-1.2c-1.9-.6-4.2-1.2-5.8-1.2s-1,0-1.5.3c-1.1.6-2.5,1.5-3.7,2.4s-2,1.5-2,1.5l-.5.4.5.5.4-.4.3.4s.2-.2.6-.5c1.1-.8,3.4-2.6,4.9-3.4.2,0,.5-.2.9-.2,1.4,0,3.7.6,5.5,1.2s1.8.6,2.4.8c.3,0,.6.2.7.3h.3l.2-.5v-.6c-3.1.3-5.9,2.1-8,3.8-1.1.8-2,1.7-2.6,2.3-.3.3-.6.5-.8.7,0,0-.2,0-.2.2h0l.2.4v-.4h-.2l.2.4v-.4.5l.2-.5h-.2v.5l.2-.5-.2.5.5-.2s-.2-.2-.3-.3l-.2.5.5-.2-.4.2h.5v-.2l-.4.2h.5-.3.3-.3.3c0-.3,0-.5-.3-.8-.2-.4-.6-.9-1.1-1.4-1.3-1.5-3.2-3.3-3.2-3.3l-.4.4.3.4-.3-.4h.1Z"/>
      </g>
    </g>
    <g class="st118">
      <rect class="st4" x="86.1" y="50.7" width="6.8" height="7.8" transform="translate(-3 104) rotate(-59.5)"/>
    </g>
    <g class="st92">
      <path class="st42" d="M85.6,52.1l-.5.3,3.7,5.1.5-.4s0,0,.3-.3c.7-.7,2.6-2.3,4.5-3.8,1-.8,2-1.5,2.9-2s1.7-.8,2-.9l2.8-.2-2.6-.9s-1-.4-2.3-.8c-1.3-.4-2.8-.9-3.9-1h-.3c-.7,0-1.5.3-2.3.7-2.4,1.3-5.2,3.7-5.2,3.7l-.4.3.3.4.5-.3.4.4.2-.2c.5-.4,1.7-1.4,3-2.3.7-.5,1.3-.9,2-1.2.6-.3,1.2-.5,1.5-.5h0c.9.2,2.5.6,3.8,1,.6.2,1.2.4,1.6.5s.7.2.7.2l.2-.5v-.6c-.5,0-.9.2-1.4.4-1.7.8-3.9,2.5-5.8,4-1.8,1.5-3.3,2.9-3.3,2.9l.4.4.5-.3-3.3-4.6-.5.3.4.4-.4-.4h0v.2Z"/>
    </g>
    <g class="st15">
      <rect class="st36" x="101.6" y="52.5" width="8.4" height="9.2" transform="translate(2.9 119.3) rotate(-59.5)"/>
    </g>
    <g class="st0">
      <path class="st42" d="M101.8,53.9l-.5.3,4,6.5.5-.6s0,0,.3-.3c.6-.7,2.3-2.5,4-4.2.9-.8,1.8-1.6,2.6-2.2.4-.3.8-.5,1.1-.7.3-.2.6-.2.8-.2l4.2-.3-4.1-.8s-1.1-.2-2.4-.4c-1.4-.2-3-.4-4.3-.4h-.2c-.6,0-1.3.2-2,.5-2.1.8-4.3,2.4-4.3,2.4l-.4.3.3.5.5-.3.3.5h.2c.4-.4,1.4-1,2.5-1.6.6-.3,1.1-.6,1.7-.8.5-.2,1-.3,1.4-.3h0c1.1,0,2.8.2,4.1.4.7,0,1.3.2,1.7.3s.7,0,.7,0v-.5c0,0,0-.6,0-.6-.5,0-.9.2-1.4.5-1.6.9-3.6,2.7-5.3,4.4-1.6,1.7-2.9,3.1-2.9,3.1l.4.4.5-.3-3.6-5.8-.5.3.3.5-.3-.5h0v-.2Z"/>
    </g>
    <g class="st105">
      <rect class="st114" x="111" y="53.7" width="8.3" height="8.9" transform="translate(6.6 127.9) rotate(-59.5)"/>
    </g>
    <g class="st109">
      <path class="st42" d="M111,54.3l-.5.3,3.9,7.3.5-.6s0,0,.3-.3c.7-.8,2.5-2.8,4.4-4.5.9-.9,1.9-1.7,2.8-2.3.4-.3.8-.5,1.2-.7.3-.2.6-.2.8-.2h0l.2-1.1c-3-.7-4.7-.9-6.2-.9s-2.1,0-3.3.3c-1.2.2-2.3.8-3.2,1.3-.9.6-1.5,1.1-1.5,1.1l-.3.3.2.4.5-.3.4.4h0c0,0,.7-.6,1.5-1.1s1.7-1,2.5-1c1.2-.2,2.1-.3,3.2-.3s3,.2,5.9.8l.2-1.1h-.4c-.5,0-1,.2-1.5.4-1.8.9-3.9,2.9-5.7,4.7-1.8,1.8-3.1,3.4-3.2,3.4l.4.4.5-.3-3.5-6.6-.5.3.4.4-.4-.4h.3Z"/>
    </g>
    <g class="st13">
      <rect class="st7" x="120" y="54.8" width="7.9" height="8.6" transform="translate(10.1 135.9) rotate(-59.5)"/>
    </g>
    <g class="st11">
      <path class="st42" d="M119.9,55.8l-.5.3,3.8,6.5.5-.6s0,0,.3-.3c.7-.7,2.4-2.6,4.2-4.2.9-.8,1.9-1.6,2.7-2.2.4-.3.8-.5,1.1-.7s.6-.2.8-.2l4.8-.3-4.7-.8s-1.3-.2-2.9-.5c-1.6-.2-3.5-.5-4.6-.5h-.2c-.7,0-1.3.2-1.9.5-1.9.9-3.7,2.5-3.7,2.6l-.3.3.2.4.5-.3.4.4h0c.3-.4,1.1-1.1,2.1-1.7s1-.6,1.4-.8.9-.3,1.3-.3h.2c1,0,2.9.2,4.5.5.8,0,1.5.2,2,.3.5,0,.9,0,.9,0v-.6c.1,0,0-.6,0-.6-.5,0-.9.2-1.4.5-1.7.9-3.8,2.7-5.5,4.4s-3.1,3.2-3.1,3.2l.4.4.5-.3-3.4-5.8-.5.3.4.4-.4-.4h0Z"/>
    </g>
    <g class="st122">
      <rect class="st94" x="129" y="55.4" width="8.1" height="9.2" transform="translate(13.8 144.1) rotate(-59.5)"/>
    </g>
    <g class="st32">
      <path class="st42" d="M128.6,56.8l-.5.3,3.9,6.2.5-.4s.1,0,.4-.3c.8-.7,2.9-2.5,5.1-4.1s2.2-1.6,3.1-2.1.9-.5,1.3-.7.7-.2.9-.2l4-.3-3.9-.9s-1.4-.3-3.1-.6c-1.7-.3-3.6-.6-4.7-.7h-.1c-2.4,0-4.2.9-5.5,1.7-1.2.8-1.9,1.7-1.9,1.7l-.2.3.2.3.5-.3.4.3h0s.6-.8,1.8-1.6c1.1-.7,2.7-1.4,4.7-1.4h0c.9,0,2.9.3,4.5.6.8.2,1.6.3,2.1.4s.9.2.9.2v-.5c.1,0,0-.6,0-.6-.4,0-.9.2-1.4.4-1.8.8-4.3,2.6-6.3,4.2s-3.7,3-3.7,3l.4.4.5-.3-3.6-5.6-.5.3.4.3-.4-.3h0l.2.3Z"/>
    </g>
    <g class="st144">
      <rect class="st141" x="138.2" y="55.5" width="5.8" height="8.2" transform="translate(18.1 150.9) rotate(-59.5)"/>
    </g>
    <g class="st112">
      <path class="st42" d="M136.9,59.3l-.5.3,3.7,5.1.5-.4s.1,0,.4-.3c.9-.8,3.2-2.8,5.5-4.6s2.4-1.8,3.4-2.4c.5-.3,1-.6,1.4-.8s.7-.3.9-.3l5.6-.4-5.6-.8s-3.9-.5-6.6-.5-1.1,0-1.5,0c-.6,0-1.4.4-2.2.9-2.4,1.3-5.4,3.5-5.4,3.6l-.4.3.3.5.5-.3.3.5.2-.2c.5-.4,1.8-1.3,3.2-2.2s1.4-.9,2.1-1.2c.6-.3,1.2-.5,1.5-.6h1.4c1.3,0,2.9,0,4.2.3.6,0,1.2,0,1.6.2s.6,0,.6,0v-1.2c-.5,0-.9.2-1.5.5-1.9.9-4.5,2.9-6.8,4.7s-4,3.4-4,3.4l.4.4.5-.3-3.3-4.6-.5.3.3.5-.3-.5h.1Z"/>
    </g>
    <g class="st63">
      <rect class="st90" x="145.1" y="59.3" width=".4" height=".5" transform="translate(20.2 154.5) rotate(-59.5)"/>
    </g>
    <g class="st135">
      <path class="st42" d="M144.9,59.7l-.5.3,3.7,5.2.5-.5s.1,0,.4-.3c.8-.8,2.8-2.8,5-4.5,1.1-.9,2.2-1.7,3.1-2.3s.9-.5,1.3-.7.7-.2.9-.2h.1l.2-1.1c-1.5-.3-2.4-.5-3.1-.7s-1.3-.2-1.8-.2-1.4,0-2.6.2h0c-.6,0-1.4.4-2.2.8-2.4,1.3-5.4,3.6-5.4,3.6l-.4.3.3.5.5-.3.3.5.2-.2c.5-.4,1.8-1.4,3.2-2.2.7-.5,1.4-.9,2.1-1.2.6-.3,1.2-.5,1.5-.6h0c1.2-.2,1.8-.2,2.4-.2s.9,0,1.6.2c.7,0,1.7.4,3.1.7l.2-1.1h-.4c-.5,0-1,.2-1.5.4-1.9.9-4.3,2.9-6.3,4.7s-3.6,3.4-3.6,3.4l.4.4.5-.3-3.3-4.6-.5.3.3.5-.3-.5h0v-.3Z"/>
    </g>
    <g class="st142">
      <rect class="st56" x="92.7" y="51.1" width="9.5" height="10.6" transform="translate(-.6 111.7) rotate(-59.5)"/>
    </g>
    <g class="st60">
      <path class="st42" d="M93,53.7l-.5.3,3.7,6.2.5-.5s0,0,.4-.3c.8-.8,2.9-2.7,5-4.5,1.1-.9,2.2-1.7,3.1-2.3.5-.3.9-.5,1.3-.7s.7-.3.8-.3l3.3-.2-3.2-.9s-1.1-.3-2.6-.6-3.3-.6-4.9-.6-1.9,0-2.5.6h0c-.6.4-1,.7-1.2,1-.2.2-.3.3-.5.4-.2.2-.4.3-.8.7-.4.3-1.1.7-2.2,1.4l-.5.3.3.5.5-.3.3.5c2-1.2,2.6-1.7,3.1-2.1.2-.2.3-.3.6-.5s.6-.5,1.1-.9h0c.3-.2,1-.4,1.9-.3,1.4,0,3.2.3,4.7.6.7.2,1.4.3,1.8.4s.7.2.7.2l.2-.5v-.6c-.5,0-1,.2-1.5.5-1.8.9-4.2,2.9-6.2,4.6-2,1.8-3.6,3.3-3.6,3.3l.4.4.5-.3-3.4-5.6-.5.3.3.5-.3-.5h0v-.2Z"/>
    </g>
    <g class="st78">
      <rect class="st138" x="125.4" y="59" width="28.1" height="44.2"/>
    </g>
    <g class="st76">
      <rect class="st133" x="124.2" y="44.4" width="74.2" height="74.2" transform="translate(-10.4 137.9) rotate(-45)"/>
    </g>
    <g class="st97">
      <rect class="st74" x="176.3" y="62.7" width="26.7" height="38.4"/>
    </g>
    <g class="st65">
      <rect class="st134" x="188.5" y="76.1" width="54.1" height="14.1"/>
    </g>
    <g class="st55">
      <rect class="st131" x="225.5" y="76.1" width="17.1" height="14.1"/>
    </g>
  </g>
</svg>