<?xml version="1.0" encoding="UTF-8"?>
<svg id="Layer_2" data-name="Layer 2" xmlns="http://www.w3.org/2000/svg" viewBox="0 0 247.89 288.55">
  <defs>
    <style>
      .cls-1 {
        fill: #acb1aa;
      }

      .cls-2 {
        fill: #f7f6f5;
      }

      .cls-3 {
        fill: #686563;
      }

      .cls-4 {
        fill: #bdbdbb;
      }

      .cls-5 {
        fill: #e18443;
      }

      .cls-6 {
        fill: #6f706f;
      }

      .cls-7 {
        fill: #686461;
      }

      .cls-8 {
        fill: #4b4b4a;
      }

      .cls-9 {
        fill: #555554;
      }

      .cls-10 {
        fill: #f1f1f2;
      }

      .cls-11 {
        fill: #787f7c;
      }

      .cls-12 {
        fill: #cccac8;
      }

      .cls-13 {
        fill: #757371;
      }

      .cls-14 {
        fill: #246076;
      }

      .cls-15 {
        fill: #646562;
      }

      .cls-16 {
        fill: #878586;
      }

      .cls-17 {
        fill: #e4e5e3;
      }

      .cls-18 {
        fill: #b5b1ac;
      }

      .cls-19 {
        fill: #757772;
      }

      .cls-20 {
        fill: #82a4a7;
      }

      .cls-21 {
        fill: #7b7a79;
      }

      .cls-22 {
        fill: #abacab;
      }

      .cls-23 {
        fill: #dc8646;
      }

      .cls-24 {
        fill: #355c7b;
      }

      .cls-25 {
        fill: #888686;
      }

      .cls-26 {
        fill: #e3e2e2;
      }

      .cls-27 {
        fill: #fc7f24;
      }

      .cls-28 {
        fill: #02a2e7;
      }

      .cls-29 {
        fill: #eaebea;
      }

      .cls-30 {
        fill: #757473;
      }

      .cls-31 {
        fill: #525251;
      }

      .cls-32 {
        fill: #c6c6c5;
      }

      .cls-33 {
        fill: #e0803b;
      }
    </style>
  </defs>
  <g id="Layer_1-2" data-name="Layer 1">
    <path d="M176.55,166.84l9.35,44.69c-1.72,11.37-1.52,23.73-3.05,35.05-.58,4.28-1.42,9.29-2.1,13.64-.05.34.06.71,0,1.05-.36,2.08-1.68,6.53-3.88,7.13-5.15,1.51-9.33-1.01-13.96-1.88-4.1-2.22-2.93-4.63-3.15-8.39-.06-1.04.06-2.11-.01-3.15l-1.04.51c-1.98,1.52-2.19,5.35-3.14,6.83-.22.35-1.6.65-2.1,1.05-4.86-2.16-10.04-1.26-12.56-6.89l-2.13.59c.58-13.05,11.06-26.31,13.6-39.47.57-14.47-6.77-31.99-7.31-45.51-.01-.35-.01-.7,0-1.05.01-.28.98-.75,1.05-1.05,1.02.2,2.35.39,3.15,1.05,3.98,3.32,3.29,5.75,4.73,9.44l1.56-2.09-.5,4.2,4.19-5.27,1.56,5.26,1.07-6.29,2.1,4.19,1.93-3.41c-.96-2-1.86-4.14-2.99-6.03,2.37-.12,5.85-2.99,6.3-3.15,1.61-.56,5.62-1.54,7.34-1.05Z"/>
    <path class="cls-28" d="M86.32,98.64c1.56.5,1.68,1.83,2.1,2.1,10.51,6.87,10.01-.32,12.91.13,1.86.29,7.86,6.51,8.55,8.3.44,1.15,4.66,18.5,4.66,19.5,0,4.15-2.73,10.2-3.05,16.13-.53,10.13,1.7,19.36,2.1,29.38-7.42,2.95-16.58,5.61-24.55,4.74-1.55-.17-1.65.73-2.73-1.59-2.19-6.02-7.53-6.09-9.14-8.69-1.13-1.83-3.07-13.5-3.45-16.49-.54-4.3-2.46-10.17,1.03-13.12-1.04-2.28-4.35-1.12-5.22-1.57-2.23-1.15-5.2-6.24-8.39-6.3-.04-7.29,4.52-10.33,4.2-17.84,1.59-2.87,4.01-5.29,5.25-8.39.34-.05.71.07,1.05,0,.08-.02.69,1.09,1.39.9,1.96-.55,9.09-8.55,13.3-7.19ZM86.86,121.73c-2.41.39-3.87,10.73-5.8,13.2l2.64,4.6c2.49-1.85,1.04-4.84,2.11-7.31.66-1.52,3.14-1.98,3.66-4.77.36-1.89.14-6.17-2.61-5.72Z"/>
    <path d="M113.6,176.28c1.31,8.4,10.5,35.53,9.44,40.92-2.63-.27-4.75,2.54-6.3,3.15-3.18,1.25-17.49,5.2-18.74,1.43-.57-1.73.9-5.47-1.18-5.61l-2.23,6.74c-.7,1.2-1.78,1.43-3.03,1.65-.32.06-.71,0-1.05,0-8.48-.04-18.1-2.72-26.1-5.36l5.12-38.7,2.1-2.1c1.38,2.65,3.17,5.41,6.06,6.51l.23,6.08,6.83-1.07.51-2.08c-.02-.35.03-.7,0-1.05l1.05-2.1c.32.73-.37,2.48,1.05,3.15l1.04,1.05v-3.15c.15-.63-.13-1.47.01-2.1.2-.89-.16-2.16,0-3.15l25.19-4.19Z"/>
    <path d="M115.7,62.97l-2.1,1.05c.03-2.88-.42-6.3-2.62-8.37l-15.05,8.52-.17,6.14-3.92-1.95-4.49,3.59.98,5.01,5.37,2.33c.11,4.96-2.7,6.14-5.29,8.85-.23.25-1.62.31-2.1,1.05-4.47.86-7.79-2.1-10.49-5.25-.56-3.04-4.35-8.35-5.33-10.94-2.23-5.85,2.75-13.57,3.36-19.89l10.08-9.85c.74-.36,13.64-3.43,14.43-3.44,3.36-.04,8.96,3.11,13.12,2.69,7.85,7.47,6.6,11.17,4.21,20.44Z"/>
    <path d="M181.8,67.17l-2.1-1.05c-.12-.34.14-.81,0-1.05l-3.14-1.04c-.04,1.04.03,2.1,0,3.14h-1.05c-.06-1.87-3.22-15.29-3.83-15.83-7.92-4.5-17.34-4.61-25.55-.96-.71.32-1.39.73-2.1,1.05.01-.12-.96-.71-.85-2.27,1.35-20.09,35.97-22.37,41.48-1.08,2.08,8.04-.88,12.15-2.86,19.09Z"/>
    <path d="M101.01,98.64c9.17,1.94,11.54,12.97,13.12,20.97,1.99,10.08,2.07,15.73-2.63,25.19.31-5.93,3.05-11.97,3.05-16.13,0-1.01-4.22-18.35-4.66-19.5-.69-1.79-6.69-8.01-8.55-8.3-2.9-.45-2.41,6.73-12.91-.13l7.86,1.09,3.68-3.18h1.05Z"/>
    <path d="M3.44.02h8.39C21.61.02,31.43.02,41.21.02c6.28,0,12.6-.04,18.89,0,7.68.05,15.41-.04,23.09,0,.05.69-.04,1.4,0,2.1h-1.05L1.34,1.06c-.04,3.49.06,7.01,0,10.5H.29c.08-3.64-.02-7.31-.06-10.96L3.44.02Z"/>
    <path d="M245.8,6.31v1.05h-61.91s0,26.23,0,26.23l-1.05-27.28c20.81.76,42.22-1.01,62.96,0Z"/>
    <path class="cls-33" d="M146.13,166.84c-.27.61.2,2.24,0,3.15-.06.3-1.04.77-1.05,1.05l-3.15-1.05c-.15-.16-1.47.28-2.1-1.05h2.1c.32-.38-1.93-4.37-2.1-5.25-.12-.65.1-1.43,0-2.1-.53-3.47-2.17-8.79,0-11.54.3,1.57-.2,3.22.48,5.27,1.01,3.05,5.01,7.71,5.82,11.52Z"/>
    <path class="cls-5" d="M178.65,160.54c-1.63.44-1.56,3.85,0,4.2l-2.1,2.1c-1.73-.49-5.74.49-7.34,1.05l-6.3.58c-1.79-.85-1.51-2.76-2.09-3.73,3.88.79,14.09,1.75,15.53-2.86.53-1.82.09-3.71.21-5.53l1.05-2.1c.03,1.09,1.04,3.51,1.05,6.3Z"/>
    <path d="M246.85,33.59c-2.95,2.95-23.8-.29-29.38,1.05v-1.05c6.94-2.58,21.88-1.06,29.38,0Z"/>
    <path d="M183.9,33.59l26.22-1.04c.35,1.46-.47,2.07-1.04,3.14h-1.05l-24.13-2.1Z"/>
    <path d="M169.21,93.39c2.39,8.95,5.36,14.22,7.34,25.18-1.03.28-.95,1.22-1.05,2.1-2.21-7.65-2.32-15.81-5.33-23.28-.46-1.13-1.72-1.43-2.01-1.9-.26-.42-.67-.74-1.05-1.05v-1.05h2.1Z"/>
    <path d="M139.83,147.95c.13.64-.12,1.45,0,2.1-2.17,2.75-.53,8.07,0,11.54l-1.05,1.05c-1.79-8.47-2.59-16.47-2.1-25.18.98,3.57,2.3,6.24,3.15,10.49Z"/>
    <path d="M149.27,95.49v1.05c-.19.1.85,2.23-2.62,2.02-.55.66-.29,1.84-.53,2.18-3.03,4.38-5.03,9.51-6.3,14.69l-1.05-1.05c2.12-8.15,5.06-17.42,11.54-23.08l1.03.52-2.08,3.68Z"/>
    <path d="M83.18,38.84c-.09,1.04.09,2.11,0,3.15h-35.68c1.08,1.47,1.48,2.53,2.1,4.19-1.63-1.58-3.59-2.52-4.2-5.23l35.22.07,1.5-2.18h1.05Z"/>
    <path d="M114.65,81.85c1.4,3.56-1.71,4.14-1.8,4.4-.37.99,1.56,5.75-1.77,8.29l-9.01.95c.5-.72,1.54-1.34,2.1-2.1,1.67-.18,5.42.73,6.41-.61l1.01-3.93c-1.23-1.02-2.09-1.52-3.23-2.79l2.1-2.1,1.97.93c.25-1.94,1.15-2.73,2.23-4.08v1.05Z"/>
    <path class="cls-24" d="M113.6,176.28l-25.19,4.19c-.15.99.21,2.26,0,3.15-2.26-1.3-1.86-5.64-2.1-6.3,1.08,2.32,1.18,1.42,2.73,1.59,7.97.87,17.13-1.79,24.55-4.74v2.1Z"/>
    <path class="cls-17" d="M124.09,144.8c-5.08.21-.32-6.61.02-8.39,6.41.82,1.01,9.31,2.07,13.63-3.08.55-1.92-1.05-2.09-3.15v-6.29c-.06,1.39.06,2.8,0,4.19Z"/>
    <path d="M83.18,38.84h-1.05V2.12h1.05c.52,10.73.9,26.2,0,36.72Z"/>
    <path d="M105.21,264.41c.09,2.39-.29,4.82.15,7.2,4,1.98,6.51,1.35,10.34.15.54-.17,1.44.11,2.1,0,0,.45.92,1.44,1.05,2.1.02.1-1.01,1.27,0,2.1-5.59-2.36-3.71-.66-7.34-1.05-1.77-.19-2.97.04-3.15,0-.61-.13-3.78-1.71-4.2-2.1-.24-.22-.31-1.69-1.05-2.1.02-.35-.04-.71,0-1.05.3-2.44.1-2.76,0-5.25-.02-.48.48-1.09,1.05-1.05.07.48.56.92,1.05,1.05Z"/>
    <path d="M139.83,115.43c-1.45,5.97-2.8,15.84-3.15,22.03-2.08-7.6.11-15.43,2.1-23.08l1.05,1.05Z"/>
    <path d="M37.01,40.94v1.05c-11.01-.9-23.85,1.22-34.62,0v-1.05h34.62Z"/>
    <path d="M86.32,95.49c-.25,1.09-1.19,1.8,0,3.15-4.21-1.36-11.34,6.64-13.3,7.19-.7.2-1.31-.91-1.39-.9.76-.83,1.36-2.5,2.1-3.15.47-.41,1.46-.67,2.1-1.05,3.21-1.93,7.33-2.38,9.44-5.25h1.05Z"/>
    <path d="M176.55,118.58c.38,2.09.78,4.2,1.06,6.3,1.27.26,2.2-.76,3.14-1.05.32-.1.73.1,1.05,0l2.1,1.05c-2.39.87-4.61,2.02-7.24,2.2-.37.44-.21,4.96-.11,6.19h-1.05c-.16-4.59-.52-7.86,0-12.59.1-.88.02-1.82,1.05-2.1Z"/>
    <path d="M123.04,217.2c-1.49,7.6-.75,12.17-1.05,19.93h-1.05c.22-4.9.09-9.44-1.01-14.25-.61-2.68.97-2.89-3.19-2.54,1.54-.61,3.67-3.42,6.3-3.15Z"/>
    <path d="M168.16,86.05c.49.13.98.57,1.05,1.05.27,1.88-.42,4.71,0,6.3h-2.1l1.04-5.25c-4.24,2.01-9.1.71-13.63,1.05-.35.03-.7-.02-1.05,0v-1.05l1.05-1.05c3.97,2.04,9.94,1.07,13.64-1.05Z"/>
    <path d="M187.04,273.85c.24.16.81-.16,1.05,0,.86.58,2.63,1.65,3.15,2.1.55.49,1.69.69,2.1,1.6l-2.88,3.43c-1.11.46-2.3.12-3.41.22-.3-.99-1.21-1-2.1-1.05l6.29-2.08c-2.32-.99-5.3-2.76-7.34-4.21l1.05-1.05c.66.4,1.51.64,2.1,1.05Z"/>
    <path d="M119.9,273.85l1.05,1.05c4.03,2.28,8.09,4.96,12.59,6.3-.11.27.07.69,0,1.05-.07.32.01.71,0,1.05-5.39-1.46-9.6-5.19-14.69-7.34-1.01-.83.02-2,0-2.1h1.05Z"/>
    <path class="cls-32" d="M212.22,116.48c-.47-.43-1.66.77-.52,1.05.31.08.78-.82.52-1.05l2.07-1.57-1.02-1.57c.86.07,3.66.75,4.04,1.24.42.6.09,1.29.16,1.91l-2.62-.1-2.62,2.73c-.13.85,1.78.68,2.09.52-.78.98-1.38,2.12-2.1,3.15-.7.04-1.4-.02-2.1,0l1.05-2.1c.47.43,1.66-.77.52-1.05-.31-.08-.78.82-.52,1.05l-3.15-2.1c.33-.27.72-1.51,1.05-2.1.12-.21.75-.21,1.03-.52l-1.03-.53c.17-.12-.17-.86,0-1.05.33-.38,1.57-.61,2.1-1.05l1.05,3.15Z"/>
    <path d="M176.55,133.26c.11,1.41-.34,2.89.49,4.22l1.08.99c.49-.35,1-.81,1.57-1.02v1.05c-2.47,1.16-1.89,2.1-2.1,4.2-.22,2.21-.08,5.06,0,7.34h-1.05c-.26-5.79-.87-11.49-1.05-16.79h1.05Z"/>
    <path d="M245.8,6.31c.7.03,1.4-.06,2.1,0l-1.05,27.29-1.05-26.23v-1.05Z"/>
    <path d="M184.95,280.15c.89.05,1.8.06,2.1,1.05-5.72.5-12.04-.37-17.84,0-.92-.54-2.25-1.85-3.15-2.1v-1.05c6.93,1.71,11.95,1.73,18.89,2.1Z"/>
    <path d="M1.34,38.84H.29C-.25,30.31.1,20.21.29,11.56h1.05c-.14,8.51-.7,18.99,0,27.28Z"/>
    <path class="cls-23" d="M160.82,96.54c-2.45.02-4.96-.59-7.34-1.05-.98-.19-2.13-2.01-4.2,0l2.08-3.68-1.03-.52c.56-.49.87-1.89,2.1-2.1,1.28,4.64,4.78,5.23,8.39,7.34Z"/>
    <path d="M154.52,89.2c.98,5.12,8.16,5.59,12.59,5.25.38.31.79.63,1.05,1.05-2.46-.69-5.34,1.03-7.34,1.05-3.61-2.12-7.11-2.7-8.39-7.34h1.05c.35-.02.7.03,1.05,0Z"/>
    <path d="M145.08,58.77c-.61,4.76-1.05,8.37-1.05,13.64-2.35-6.39-.6-14.3,0-20.98.71-.32,1.39-.73,2.1-1.05-.74,2.75-.7,5.63-1.05,8.39Z"/>
    <path d="M154.52,87.1l-1.05,1.05c-4-.73-7.26-5.91-8.39-9.44l1.05-1.05c.59,2.6,6.11,7.65,8.39,9.44Z"/>
    <path class="cls-30" d="M217.47,116.48c.52,5.01-.28,4.36-2.1,7.34v-2.1c-1.09.24-1.99.98-3.15,1.05.72-1.02,1.32-2.17,2.1-3.15.29-.37,1.74-.7,2.08-1.58-1.08-1.17-1.72,1.4-2.08,1.58-.31.16-2.22.33-2.09-.52l2.62-2.73,2.62.1Z"/>
    <path class="cls-4" d="M199.63,124.87c.73,1.29,1.04,2.71,1.06,4.19,1.82.1,3.52-.57,5.23-1.04l1.05,1.05c-2.63.9-4.88,1.17-7.34,2.1v-2.1c-.34-.34-1.43.86-2.1,1.05.99-1.94.18-3.47,0-5.25.28-.34.98-.74,1.05-1.05.29.37.84.67,1.05,1.05Z"/>
    <path d="M191.24,133.26l1.05,1.05c-3.91,1.57-8.04,2.81-11.54,5.25-.07-.5-.43-1.18-1.05-1.05v-1.05c3.78-1.4,7.84-2.71,11.54-4.2Z"/>
    <path d="M49.6,50.38c-.33-.07-.71.06-1.05,0-.62-.12-1.41.06-2.1,0l-1.05-1.05-8.39-7.34v-1.05c3.15.51,9.71,7.06,12.59,9.44Z"/>
    <path d="M200.68,116.48c-1.76,1.72-1.65,3.18-2.1,5.25h-1.05c-2.04-2.21-5.04.35-7.34,1.05l-1.05-1.05c.99-.37,2.13-1.67,3.15-2.1,1.11-.46,2.73-.11,4.59-1.17,1.63-.94,2.04-2.48,2.75-3.02.41.2.81.98,1.05,1.05Z"/>
    <path d="M118.85,261.26c-.43,3.58-1.01,6.84-1.05,10.49-.66.11-1.56-.17-2.1,0-.18-3.81,1.57-8.03,2.1-11.54l1.05,1.05Z"/>
    <path d="M120.95,249.72c-.24,1.99-.77,4.08-1.05,6.3-.09.74-.81,2.33-1.05,4.2-.04.34.04.7,0,1.05l-1.05-1.05c.67-4.43,1.58-9.28,2.1-13.64l1.05,3.15Z"/>
    <path d="M137.73,265.46c.29.35,6.71,4.93,7.34,5.25l-1.05,1.05h-1.05l-7.36-8c-.1-1.57.97-2.08,1.06-2.49-.27,1.92-.2,2.69,1.05,4.2Z"/>
    <path class="cls-18" d="M128.29,141.66c.22-1.39.39-2.86,2.09-3.15l1.07,11c-2.02.81-2.97-3.43-3.16-4.71,1.57-.15,1.57-3,0-3.15Z"/>
    <path d="M175.5,78.71c-1.4,3.22-3,6.7-6.3,8.39-.07-.48-.56-.92-1.05-1.05,1.79-1.02,5.7-6.56,6.3-8.39l1.05,1.05Z"/>
    <path class="cls-26" d="M205.93,112.28l1.07,3.15,2.08-1.06c-.17.19.17.92,0,1.05s.17.9,0,1.05c-.3.26-4.76,1.58-5.76,2.11l.51-3.15c-.32-.39-1.4.98-2.09,1.05l4.2-4.2Z"/>
    <path d="M181.8,67.17c-.17.59.18,1.54,0,2.1v1.05c-.97,2.82-1.68,6.16-5.25,5.25.48-2.2-.05-2.22,0-3.15,3.8,2.28,4.26-3.09,3.15-6.3l2.1,1.05Z"/>
    <path class="cls-3" d="M215.37,123.82c-2.91,4.79-3.48,3.56-8.39,5.25l-1.05-1.05c2.69-.74,5.9-1.54,7.34-4.2.67-.1,1.42.06,2.1,0Z"/>
    <path d="M176.55,71.36c-.02.35.02.7,0,1.05-.05.93.48.95,0,3.15-.25,1.18-.58,2.06-1.05,3.15l-1.05-1.05c.75-2.33,1.13-7.88,1.05-10.49h1.05c-.04,1.4.06,2.8,0,4.2Z"/>
    <path d="M113.6,70.31l5.09,6.46c.32.58-.76,1.38-.89,1.93h-1.05c-1.28-2.44-3.82-4.47-4.2-7.34.36-.28.9-.64,1.05-1.05Z"/>
    <path d="M120.95,249.72l-1.05-3.15c.37-3.1.91-6.35,1.05-9.44h1.05c-.17,4.48-.52,8.18-1.05,12.59Z"/>
    <path d="M199.63,131.17c-2.5.94-4.89,2.16-7.34,3.15l-1.05-1.05c1.93-.77,3.08-2.24,6.3-3.15.67-.19,1.76-1.39,2.09-1.05v2.1Z"/>
    <path d="M145.08,69.26c-.07,2.13-1.05,4.98-1.05,5.25v-2.1c0-5.26.44-8.87,1.05-13.64-.08,3.49.12,7.01,0,10.49Z"/>
    <path class="cls-16" d="M204.88,112.28h1.05l-4.2,4.2c-.3.03-.78.07-1.05,0-.24-.06-.63-.85-1.05-1.05,1.31-1.01,1.69-2.55,4.2-3.15.33-.08.71.06,1.05,0Z"/>
    <path d="M113.6,70.31c-.15.41-.69.77-1.05,1.05-.39-2.94,1.03-5.21,1.05-7.34l2.1-1.05c-.61,2.35-1.28,5.09-2.1,7.34Z"/>
    <path d="M146.13,77.66l-1.05,1.05c-.36-1.13-1.04-3.15-1.05-4.2,0-.27.98-3.11,1.05-5.25,2.25,1.76.5,5.97,1.05,8.39Z"/>
    <path d="M139.83,163.69c.16.88,2.41,4.87,2.1,5.24h-2.1c-.48-1-.72-2.93-1.05-4.19l1.05-1.05Z"/>
    <path d="M209.08,35.69c-.52.97-3.62,5.2-4.2,5.25v-1.05c.74-1.84.71-3.39,3.15-4.2h1.05Z"/>
    <path d="M104.16,93.39c-.56.76-1.6,1.38-2.1,2.1-.73,1.07-1.45,1.51-1.05,3.15h-1.05c-.3-4.55.12-4.82,4.2-5.25Z"/>
    <path d="M52.75,48.28c.44.57.65,1.46,1.05,2.1-.31.05-.74.04-1.05,0-.58-.07-1.43-.84-2.1-1.05-.26-.71-.84-1.4-1.05-2.1l1.05-1.05c.73.64,1.5,1.33,2.1,2.1Z"/>
    <path d="M137.73,260.21v5.25c-1.25-1.51-1.32-2.27-1.05-4.2.33-1.41-.1-1.6,1.05-3.15v2.1Z"/>
    <path d="M119.9,256.02l1.04,4.19h-2.09c.24-1.86.96-3.45,1.05-4.19Z"/>
    <path d="M117.8,78.71c-.2.85.27,2.13-.03,3.11l-3.11.04v-1.05c.61-.77,1.42-1.39,2.1-2.1h1.05Z"/>
    <path class="cls-15" d="M124.09,146.9c-.06-.68-.03-1.42,0-2.1.06-1.39-.06-2.8.01-4.19v6.29Z"/>
    <path d="M177.6,154.25l-1.05,2.1c.13-2.02.09-4.26,0-6.3h1.05c.05,1.4-.04,2.8,0,4.2Z"/>
    <path d="M217.47,34.64c-.18.04-2.66,1.76-3.15,2.1h-1.05c1.28-.98,2.65-2.58,4.2-3.15v1.05Z"/>
    <path d="M208.03,41.99c-1.03.92-1.57,1.9-3.15,3.15v-1.05c.67-1.56,1.71-2.35,3.15-3.15v1.05Z"/>
    <path d="M50.65,50.38c.26.12,1.07,1.99,2.1,2.1.06.34-.05.71,0,1.05-1.4-.81-3.54-.57-4.2-3.15.34.06.72-.07,1.05,0,.36.08.8-.11,1.05,0Z"/>
    <path d="M213.27,37.79c-.53.35-1.5,2.03-3.15,3.15v-1.05c.99-.86,1.55-1.92,3.15-3.15v1.05Z"/>
    <path d="M202.78,46.18c-.36.22-.62,1.7-2.1,2.1l-1.05-1.05c.04-.88.63-1.42,1.05-2.1l2.1,1.05Z"/>
    <path class="cls-6" d="M213.27,113.33l1.02,1.57-2.07,1.57-1.05-3.15c.69.04,1.41-.05,2.1,0Z"/>
    <path d="M145.08,171.03c-.01.35-.01.7,0,1.05h-3.15c-.16-.6.19-1.9,0-2.1l3.15,1.05Z"/>
    <path d="M54.85,52.48c.47.52,2.47,2.85,2.1,3.14-1.88.75-2.49-.73-3.15-1.04,1.57.03.85-1.3,1.05-2.1Z"/>
    <path d="M178.65,164.74c-1.56-.34-1.63-3.76,0-4.2,0,1.4,0,2.8,0,4.2Z"/>
    <path d="M203.83,44.08v1.05c-.41.3-.73.85-1.05,1.05l-2.1-1.05,1.05-1.05c.25-.12.7.1,1.05,0,.32-.09.71.07,1.05,0Z"/>
    <path d="M2.39,40.94v1.05c-.68-.08-1.41.09-2.1,0-.09-1.04.06-2.11,0-3.15h1.05c.07.8.5,1.53,1.05,2.1Z"/>
    <path d="M139.83,163.69l-1.05,1.05c-.16-.59.13-1.46,0-2.1l1.05-1.05c.1.66-.12,1.45,0,2.1Z"/>
    <path d="M201.73,44.08c.27-.39-.59-2.19.54-2.11l1.56.02-1.05,2.09c-.35.1-.79-.12-1.05,0Z"/>
    <path d="M137.73,260.21v-2.1c.3-.4.66-.74,1.05-1.05-.05,1.16.32,2.62-1.05,3.15Z"/>
    <path class="cls-7" d="M128.29,144.8c-.12-.8-.13-2.36,0-3.15,1.57.15,1.57,3,0,3.15Z"/>
    <path d="M54.85,50.38v1.05h-2.1v-1.05c.31.04.74.05,1.05,0,.34-.05.7.04,1.05,0Z"/>
    <polygon points="200.68 48.28 198.59 48.27 199.63 47.23 200.68 48.28"/>
    <path d="M181.8,70.31v-1.05s.42-.18,0,1.05Z"/>
    <path d="M54.85,52.48c-.33-.36-.72-.68-1.05-1.05h1.05c-.06.34.08.72,0,1.05Z"/>
    <path d="M49.6,47.23c-.1-.33.11-.75,0-1.05.18.18.85-.17,1.05,0l-1.05,1.05Z"/>
    <path d="M202.78,46.18c.32-.19.64-.75,1.05-1.05l-1.05,1.05Z"/>
    <path d="M53.8,54.58c-.63-.3-.85-.93-1.05-1.05l1.05,1.05Z"/>
    <path d="M204.88,45.13c-.21.17-.82-.17-1.05,0v-1.05h1.05v1.05Z"/>
    <path d="M120.95,274.9l-1.05-1.05c.56.1.82.92,1.05,1.05Z"/>
    <path d="M200.68,45.13c.24-.4.78-.67,1.05-1.05l-1.05,1.05Z"/>
    <path d="M208.03,41.99v-1.05c.27-.15.81.16,1.05,0-.37.32-.68.72-1.05,1.05Z"/>
    <path d="M210.13,40.94c-.24.16-.81-.16-1.05,0,.37-.32.68-.73,1.05-1.05v1.05Z"/>
    <path d="M204.88,40.94l-1.03-.52c.08-.68,1.01-.47,1.03-.52v1.05Z"/>
    <path d="M213.27,37.79v-1.05h1.05c-.35.25-.63.78-1.05,1.05Z"/>
    <path d="M71.64,178.38l-2.1,2.1c-3.55-3.51-.83-8.95-4.2-12.59v-1.05c-2.69-5.7-3.87-11.82-5.25-17.84h1.05c2.04,8.24,6.64,21.94,10.49,29.38Z"/>
    <path d="M61.14,249.72v-1.05c.78-1.8,1.26-4.64,2.1-6.3.42-.82,1.44-1.91,2.1-3.15,1.45-2.72,3.01-4.06,4.2-7.34.35,0,.7,0,1.05,0-1.86,6.83-4.76,12.52-9.44,17.84Z"/>
    <path d="M70.59,228.74c.17-.92,1.68-2.48,1.06-4.19h1.03s-2.09,7.34-2.09,7.34c.16-.59-.14-1.47,0-2.1.07-.33-.06-.71,0-1.05Z"/>
    <path d="M71.64,273.85c2.49.77,3.31,1.62,5.25,3.15.26.98.77,1.97,1.05,3.15l-1.05,1.05c-1.25-2.57-6.48-4.75-7.15-5.47-.51-.55-.05-1.68-.2-1.87.88,1.09,2-.03,2.1,0Z"/>
    <path d="M69.54,284.34c-.24-.03-.69-.81-1.05-1.05.69-.02,1.54-.6,2.1-1.05,2.08.15,4.21-.11,6.3,0l1.05-2.1c.05.2,1.08.67,1.07,1.58l-1.04,2.12c-1.29.83-6.6.71-8.42.49Z"/>
    <path d="M131.44,287.49c-4.6.84-7.94.98-12.59,1.05-.7.01-1.4,0-2.1,0v-1.05c3.48.08,10.89-3.12,14.69,0Z"/>
    <path d="M158.72,273.85c.02.35-.03.7,0,1.05-1.88.29-4.65-.42-6.3,0l-8.39-3.15,1.05-1.05c3.98,1.99,9.16,3.14,13.64,3.15Z"/>
    <path d="M135.63,286.44h-2.1c1-1.16-.03-2.46,0-3.15.01-.34-.07-.73,0-1.05l2.1,4.2Z"/>
    <path d="M103.11,278.05c.26,1.99-.42,4.16.15,6.14.52.82,11.76,3.26,13.49,3.3v1.05c-3.7,0-6.79-1.04-10.49-1.05h-1.05c-2.79-1.19-3.57-2.13-4.2-5.25-.36-1.8.25-4.35,0-6.3h1.05c.03,1.81,1.03,1.98,1.05,2.1Z"/>
    <path d="M104.16,272.8l-1.05,5.25c-.02-.12-1.02-.29-1.05-2.1-.04-2.43.98-4.02,1.05-5.25.74.4.81,1.87,1.05,2.1Z"/>
    <path d="M163.96,278.05v1.05c-1.67-.51-3.45-.6-5.06-1.3-.54-.92-.1-1.98-.18-2.89-.03-.35.02-.7,0-1.05-.13-2.43.09-4.91,0-7.34.34.06.71-.06,1.05,0l.14,8.78c.33.93,3.09,2.44,4.06,2.76Z"/>
    <path d="M166.06,278.05v1.05c-.59-.17-1.53.17-2.1,0v-1.05c.54.18,1.48-.15,2.1,0Z"/>
    <path d="M70.59,282.25c-.56.45-1.4,1.03-2.1,1.05-5.32.16-10.89-2.72-14.69-6.3l1.05-1.05c4.48,3.4,10.08,5.88,15.74,6.3Z"/>
    <path d="M53.8,274.9c.37.32.65.75,1.05,1.05l-1.05,1.05c-.8-.75-1.37-.87-2.1-2.1h2.1Z"/>
    <path class="cls-10" d="M157.67,164.74c1.1,1.94,4.35,4.8,5.25,6.3,1.13,1.89,2.03,4.03,2.99,6.03l-1.93,3.41-2.1-4.19-1.07,6.29-1.56-5.26-4.19,5.27.5-4.2-1.56,2.09c-1.44-3.69-.74-6.12-4.73-9.44l-1.05-4.19,9.44-2.1Z"/>
    <path d="M159.77,162.64h-3.15s1.05,2.1,1.05,2.1l-9.44,2.1,1.05,4.19c-.79-.66-2.13-.85-3.15-1.05.2-.91-.27-2.54,0-3.15.33-.75,1.99-1.83,2.1-3.15l9.93-3.14c.88.45,1.12,1.36,1.61,2.09Z"/>
    <path d="M159.77,162.64c.31.47.61,1.37,1.05,2.1.58.96.3,2.87,2.09,3.73l6.3-.58c-.45.16-3.93,3.03-6.3,3.15-.9-1.5-4.14-4.36-5.25-6.3l-1.05-2.09h3.15Z"/>
    <path d="M162.91,266.51c-.95-.18-2.19.18-3.15,0-.34-.06-.71.06-1.05,0-4.92-.92-4.17-2.67-5.25-3.15.5-.39,1.88-.7,2.1-1.05-.6,2.23,1.4,2.33,3.14,3.15.66-.92-1.17-6.32,1.06-7.34.22,3.76-.95,6.17,3.15,8.39Z"/>
    <path d="M86.86,121.73c2.75-.45,2.96,3.83,2.61,5.72-.53,2.8-3,3.25-3.66,4.77-1.07,2.47.39,5.46-2.11,7.31l-2.64-4.6c1.93-2.47,3.39-12.81,5.8-13.2Z"/>
    <path d="M61.14,131.17h-1.05c-.76-.76-1.71-1.35-1.76-2.58,3.02-3.9,3.41-10.14,5.5-14.13.39-.75,1.4-.93,1.5-1.12.32,7.5-4.24,10.55-4.2,17.84Z"/>
    <path d="M73.73,152.15l-2.06-11.88c-.26-1.03-2.27-1.27-3.19-1.75l1.05-1.05c.88.45,4.19-.7,5.22,1.57-3.49,2.95-1.57,8.82-1.03,13.12Z"/>
    <path d="M69.54,137.46l-1.05,1.05c-.67-.36-1.3-.55-2.1-1.05.47.43,1.66-.77.52-1.05-.31-.08-.78.82-.52,1.05-1.26-.79-1.85-.98-3.15-2.1-.17-.15.3-1.36-.14-1.92l-1.96-.18v-1.05c0-.35,0-.7,0-1.05,3.2.06,6.17,5.15,8.39,6.3Z"/>
    <path d="M83.18,244.48c-.35-.35-.68-.72-1.05-1.05,3.33-6.45,7.74-11.16,8.39-18.89.34,0,.73.06,1.05,0-.27,7.25-3.79,14.44-8.39,19.93Z"/>
    <polygon class="cls-22" points="77.93 190.97 81.62 184.68 85.27 187.82 84.76 189.9 77.93 190.97"/>
    <path class="cls-22" d="M86.32,184.67l-1.05,2.1c-.06-.62-1.84-2.52-1.04-4.2,1.11.06,1.69,1.19,2.09,2.1Z"/>
    <path d="M88.42,88.15c-1.04,2.33-1.54,4.87-2.1,7.34h-1.05l1.05-6.3c.47-.74,1.86-.8,2.1-1.05Z"/>
    <path d="M61.14,135.36c.04,2.33-2.22,5.18-2.1,7.34h-1.05c-.11-3.1.79-5.67,2.1-8.39.63-.16,1.04.56,1.05,1.05Z"/>
    <path class="cls-19" d="M46.46,154.25l-1.04-8.39,3.05,7.94c0,.86-1.86.25-2.01.45Z"/>
    <path class="cls-11" d="M52.75,154.25h-1.05c-.68-2.25-2.1-5.03-.52-7.36,1.48,2.01,1.18,5.08,1.57,7.36Z"/>
    <path d="M61.14,149h-1.05c-.4-1.74-2.01-3.82-2.1-6.3h1.05c.02.33,1.73,4.8,2.1,6.3Z"/>
    <path class="cls-1" d="M52.75,154.25c.08.43,2.23,2.37.52,3.16-.75-.5-1.3-2.27-1.57-3.16h1.05Z"/>
    <path class="cls-20" d="M61.14,132.21c-.37-.33-.7-.7-1.05-1.05h1.05c0,.35,0,.7,0,1.05Z"/>
    <path d="M61.14,133.26l1.96.18c.44.56-.03,1.78.14,1.92h-2.1c0-.49-.42-1.21-1.05-1.05l1.05-1.05Z"/>
    <path d="M179.7,65.07h-2.1c-.55.79,1.05,5.48-1.05,6.3.06-1.39-.04-2.8,0-4.2.03-1.05-.03-2.1,0-3.14l3.14,1.04Z"/>
    <path d="M184.95,272.8l-1.05,1.05c-1.72-1.23-5.57-2.82-5.24-5.24,2.8-.41,4.73,3.25,6.29,4.19Z"/>
    <path d="M139.83,147.95l3.25,8.6,5.14,7.14c-.1,1.32-1.77,2.4-2.1,3.15-.81-3.81-4.81-8.47-5.82-11.52-.67-2.04-.17-3.69-.48-5.27-.12-.65.13-1.46,0-2.1Z"/>
    <path class="cls-27" d="M160.82,96.54c2.01-.02,4.88-1.74,7.34-1.05.29.47,1.55.77,2.01,1.9,3.01,7.47,3.12,15.63,5.33,23.28-.52,4.73-.16,8,0,12.59.18,5.3.79,11,1.05,16.79.09,2.03.13,4.27,0,6.3-.12,1.83.32,3.71-.21,5.53-1.44,4.61-11.65,3.65-15.53,2.86-.44-.73-.74-1.63-1.05-2.1-.49-.73-.74-1.64-1.61-2.09l-9.93,3.14-5.14-7.14-3.25-8.6c-.85-4.25-2.17-6.93-3.15-10.49.35-6.19,1.69-16.07,3.15-22.03,1.26-5.18,3.27-10.31,6.3-14.69l4.06-1.2.14-3,3.15-1.05c2.39.46,4.89,1.07,7.34,1.05Z"/>
    <path class="cls-29" d="M167.11,93.39v1.05c-4.43.35-11.61-.12-12.59-5.25,4.53-.34,9.39.96,13.63-1.05l-1.04,5.25Z"/>
    <path class="cls-23" d="M150.32,96.54l-.14,3-4.06,1.2c.24-.34-.02-1.52.53-2.18,3.47.22,2.43-1.92,2.62-2.02.28-.14.78.15,1.05,0Z"/>
    <path d="M153.47,95.49l-3.15,1.05c-.26.15-.77-.14-1.05,0v-1.05c2.06-2.01,3.22-.19,4.2,0Z"/>
    <path d="M110.45,83.95l-2.1,2.1c-.71-.8-2.52-1.38-3.14-2.64v-1.55s5.24,2.09,5.24,2.09Z"/>
    <path d="M105.21,264.41c-.49-.13-.98-.57-1.05-1.05-1.17-7.99-.36-24.37,0-33.06.05-1.28-.79-3.9,1.04-3.66.36,12.55-.45,25.22.01,37.76Z"/>
    <path d="M111.5,274.9h-3.15c.18.04,1.38-.19,3.15,0Z"/>
    <path d="M189.14,121.72l1.05,1.05c-2.1.64-4.23,1.35-6.3,2.1l-2.1-1.05c2.34-.73,5.52-1.42,7.34-2.1Z"/>
    <path class="cls-25" d="M201.73,116.48c.69-.06,1.77-1.44,2.09-1.05l-.51,3.15c1-.53,5.46-1.85,5.76-2.11-.33.58-.72,1.83-1.05,2.1-1.52,1.21-4.51,1.95-6.28,3.15v-5.25Z"/>
    <path class="cls-8" d="M209.08,116.48c.17-.15-.17-.93,0-1.05l1.03.53c-.28.31-.91.31-1.03.52Z"/>
    <path class="cls-21" d="M211.18,120.67c-.25-.23.21-1.13.52-1.05,1.13.28-.05,1.48-.52,1.05Z"/>
    <path class="cls-9" d="M212.22,116.48c.25.23-.21,1.13-.52,1.05-1.13-.28.05-1.48.52-1.05Z"/>
    <path class="cls-12" d="M215.37,123.82c-.68.06-1.43-.1-2.1,0-.34.05-.7-.02-1.05,0v-1.05c1.16-.06,2.06-.81,3.14-1.05v2.1Z"/>
    <path class="cls-2" d="M202.78,122.77l-1.05,2.09c1.55.69,2.75-1,3.15-1.04,2.41-.21,4.92.16,7.34,0,.35-.02.71.05,1.05,0-1.44,2.66-4.65,3.46-7.34,4.2-1.71.47-3.41,1.15-5.23,1.04-.03-1.48-.33-2.9-1.06-4.19.97-1.97,1.36-1.8,3.15-2.1Z"/>
    <path class="cls-31" d="M198.59,123.82c-.07.31-.77.71-1.05,1.05-.1-1.03.07-2.11,0-3.15h1.05c-.14.63.14,1.48,0,2.1Z"/>
    <path d="M52.75,50.38v1.05c.05.34-.06.71,0,1.05-1.03-.11-1.84-1.98-2.1-2.1v-1.05c.67.21,1.52.98,2.1,1.05Z"/>
    <path d="M54.85,52.48c-.2.8.52,2.13-1.05,2.1l-1.05-1.05c-.05-.34.06-.71,0-1.05s.05-.71,0-1.05h1.05c.32.37.72.69,1.05,1.05Z"/>
    <path d="M78.98,250.77c-.36.69-.71,1.4-1.05,2.1-.29.6-.77,1.68-1.05,2.1-.93,1.41-3.73,4.18-5.25,5.25h-1.05c2.24-3.37,3.32-5.72,6.3-9.44.51-.63.91-1.28,1.05-2.1h1.05c-.23.43.23,1.66,0,2.1Z"/>
    <path d="M71.64,273.85c-.1-.03-1.21,1.09-2.1,0-1.44-1.9-2.7-4.05-4.05-6.03-.63-2.81,1.58-2.77,1.95-3.41l4.2,9.44Z"/>
    <path d="M54.85,260.21c-.14.28.13.76,0,1.05-1.07,2.39-2.26,5.41-3.39,7.62-.67,1.31-1.78,3.4-1.86.24,1.32-2.36,1.53-8.98,5.26-8.91Z"/>
    <path d="M56.95,262.31l7.34,5.24c-3.7-.14-6.4-.95-8.39-4.19.49-.12.98-.57,1.05-1.05Z"/>
    <path d="M83.18,244.48c.17.17-.18.89,0,1.05-1.31.69-1.45,2.18-2.1,3.15-.58.88-1.06,1.68-2.1,2.1.23-.44-.23-1.67,0-2.1,1.07-1.95,2.32-3.63,3.15-5.25.37.33.7.7,1.05,1.05Z"/>
    <path d="M56.95,262.31c-.07.48-.56.93-1.05,1.05-.3-.5-.11-1.67-1.05-2.1.13-.29-.14-.77,0-1.05,1.41-2.95,1.55-2.89,3.15-5.25-.77,2.8-.67,4.76-1.05,7.34Z"/>
    <path d="M61.14,249.72c.34,2.92-2.29,3.98-3.15,5.25,1.22-4.45,2.32-4.38,3.15-6.3v1.05Z"/>
    <path d="M71.64,260.21v1.05c-.37.33-.72.68-1.05,1.05-.93,1.05-1.31,2.31-3.15,2.1,1.41-2.46,2.3-2.92,3.15-4.2h1.05Z"/>
    <path d="M53.8,274.9h-2.1c-.59-.99-1.59-1.37-1.04-3.15,1.67.18,2.23,2.37,3.14,3.15Z"/>
    <path d="M76.88,250.77l1.05-2.1c-.14.81-.54,1.47-1.05,2.1Z"/>
    <polygon points="76.88 282.25 76.88 281.2 77.93 280.15 76.88 282.25"/>
    <path d="M111.5,62.98l-.5,2.06c-3.02-2.42-4.89,1.01-7.88,1.07-.59-3.68,7.13-4.49,8.38-3.13Z"/>
    <polygon points="109.4 71.36 107.31 71.36 107.32 68.22 109.39 69.81 109.4 71.36"/>
    <path class="cls-14" d="M66.39,137.46c-.25-.23.21-1.13.52-1.05,1.13.28-.05,1.48-.52,1.05Z"/>
    <path d="M165.01,79.76l.05,3.52c-.46,1.06-1.68.48-2.15.68v-2.09c-1.47.01-2.79.8-4.2,1.05l-.54-1.04-1.56,1.04h-1.05c-.29-.36-1.21-1.98-1.05-2.09,3.45.81,6.51-.64,9.44-1.06.06,0-.16.87.52,1.03l.52-1.03Z"/>
    <path d="M152.42,70.31c-.26-1.97-.46-1.78-1.05-3.15-.36-.84-2.46-2.83-2.1-3.14l2.9-.2,2.34-4-2.09,10.49Z"/>
    <path d="M152.42,74.51l1.7,3.21,5.63-.05c.23,1.52-2.82,1.97-3.69,1.93-3.56-.16-4.24-1.9-4.7-5.09h1.05Z"/>
    <path d="M169.2,57.74v2.08s-8.39-1.06-8.39-1.06c1.56-3.65,5.63-1.7,8.39-1.02Z"/>
    <path d="M153.47,56.69c-.84,2.58-4.26,1.85-6.28,3.14l1.04-2.63,5.25-.51Z"/>
    <path d="M152.42,70.31c.18,1.34-.12,2.83,0,4.2h-1.05c-.32-2.26.22-5,0-7.34.59,1.36.79,1.18,1.05,3.15Z"/>
    <rect x="162.92" y="64.02" width="2.09" height="3.14"/>
    <path d="M162.91,83.95c-1.57.66-1.92,1.42-4.2,1.05l4.2-1.05Z"/>
    <path d="M165.01,79.76l-.52,1.03c-.69-.16-.47-1.04-.52-1.03h1.05Z"/>
    <path class="cls-13" d="M205.93,122.77c1.04-.08,2.1.03,3.15,0,.35-.01.7.01,1.05,0,.7-.02,1.4.04,2.1,0v1.05c-2.42.16-4.93-.21-7.34,0l-1.05-1.05c.69-.07,1.41.05,2.1,0Z"/>
    <path class="cls-4" d="M204.88,123.82c-.39.03-1.6,1.73-3.15,1.04l1.05-2.09c.34-.06.7.04,1.05,0l1.05,1.05Z"/>
    <path class="cls-32" d="M209.08,122.77c-1.04.03-2.11-.08-3.15,0,.15-1.57,3-1.57,3.15,0Z"/>
    <path d="M158.72,82.9c-.65.11-1.42-.08-2.1,0l1.56-1.04.54,1.04Z"/>
    <path d="M242.64,22.94c-.15.15-.23.33-.23.55s.08.39.23.54c.15.15.33.22.54.22s.39-.07.55-.22c.15-.15.23-.33.23-.54s-.07-.39-.22-.55c-.15-.15-.33-.22-.55-.22s-.4.08-.55.22M197.5,23.42c-.17-.09-.3-.2-.39-.35-.09-.15-.14-.3-.14-.46s.04-.31.12-.45c.08-.14.22-.27.41-.4.19-.12.51-.24.96-.34.23-.05.81-.15,1.77-.29v1.49c-.52.37-.95.62-1.29.74-.34.13-.64.19-.9.19-.19,0-.37-.04-.54-.13M197.47,18.32c-.41.17-.72.39-.92.65-.2.26-.3.53-.3.8,0,.18.05.33.15.44.1.11.23.16.4.16.29,0,.48-.19.57-.55.08-.3.13-.48.15-.52.05-.12.13-.23.23-.33.11-.1.24-.17.42-.23.17-.05.37-.08.6-.08.46,0,.82.1,1.08.29.26.2.38.52.38.97v.67c-1.01.11-1.79.23-2.36.36-.57.13-.98.28-1.24.46-.27.17-.46.37-.59.6-.13.22-.19.46-.19.71,0,.41.18.77.53,1.08.35.31.81.46,1.38.46.41,0,.81-.08,1.21-.23.4-.16.84-.43,1.33-.81.04.22.12.4.24.56.13.16.29.28.49.36.2.08.44.12.73.12.27,0,.58-.05.92-.15v-.54c-.26.09-.49.13-.68.13s-.33-.05-.44-.13c-.11-.09-.19-.22-.24-.4-.02-.1-.03-.32-.03-.66v-2.36c0-.55-.06-.93-.19-1.14-.18-.3-.45-.53-.82-.7-.38-.16-.82-.24-1.35-.24-.56,0-1.05.09-1.46.25M210.27,18.3c-.37.15-.77.42-1.2.8-.1-.23-.23-.42-.37-.55-.14-.14-.34-.25-.58-.34-.24-.09-.48-.14-.73-.14-.36,0-.75.1-1.15.29-.26.13-.63.38-1.1.74v-1.03h-.46c-.29.17-.56.29-.79.36-.23.07-.5.12-.81.15v.52h1.06v3.59c0,.31-.02.5-.05.57-.06.14-.15.23-.28.29-.09.05-.27.07-.56.07h-.17v.52h3.09v-.52h-.23c-.19,0-.34-.02-.45-.08-.11-.05-.19-.12-.24-.21-.05-.09-.08-.23-.08-.42v-3.16c.34-.31.71-.56,1.11-.76.27-.13.54-.2.81-.2.23,0,.42.05.59.14.17.1.28.21.34.35.06.13.09.4.09.78v2.62c0,.29-.02.49-.06.58-.06.12-.14.21-.24.27-.1.06-.27.08-.52.08h-.17v.52h3.03v-.52c-.33,0-.53,0-.61-.03-.08-.02-.16-.06-.22-.12-.06-.06-.11-.13-.14-.22-.02-.09-.04-.27-.04-.55v-2.93c.25-.27.59-.51,1.01-.72.32-.16.63-.23.92-.23.23,0,.43.04.59.13.16.09.27.2.33.33.06.13.09.37.09.71v2.71c0,.31-.02.52-.08.63-.05.11-.13.18-.23.23-.1.05-.33.07-.68.08v.52h3.08v-.52h-.2c-.23,0-.39-.01-.47-.04-.09-.03-.16-.08-.23-.15-.07-.07-.11-.14-.13-.22-.01-.05-.02-.22-.02-.52v-2.85c0-.43-.06-.77-.19-.99-.12-.23-.33-.41-.6-.56-.28-.15-.6-.23-.95-.23-.38,0-.75.08-1.12.23M224.59,18.07c-.3.16-.56.28-.79.35-.23.07-.52.13-.86.17v.51h1.06v3.62c0,.33-.02.54-.06.63-.04.09-.11.16-.2.21-.1.05-.28.07-.55.07h-.25v.52h3.15v-.52h-.29c-.23,0-.4-.02-.48-.06-.09-.04-.16-.1-.21-.19-.05-.09-.07-.22-.07-.39v-4.93h-.45ZM230.2,18.31c-.38.16-.84.47-1.38.93v-1.17h-.44c-.34.19-.6.31-.78.37-.18.06-.45.11-.82.15v.51h1.05v3.51c0,.39-.01.61-.04.68-.05.13-.12.22-.23.27-.11.05-.32.08-.62.08h-.15v.52h3.17v-.52h-.18c-.32,0-.52-.02-.59-.06-.11-.05-.18-.13-.23-.24-.05-.1-.07-.32-.07-.64v-2.83c.35-.33.72-.58,1.09-.76.38-.17.73-.25,1.06-.25.28,0,.51.05.69.17.18.11.31.26.39.44.08.18.11.51.11.97v2.26c0,.32-.02.53-.07.63-.05.1-.12.18-.23.23-.11.05-.31.08-.6.08h-.17v.52h3.16v-.52c-.4,0-.65-.02-.76-.06-.1-.04-.18-.11-.23-.2-.05-.09-.07-.3-.07-.62v-2.71c0-.31-.02-.54-.05-.69-.05-.25-.16-.47-.32-.66-.16-.19-.37-.34-.63-.46-.26-.11-.55-.17-.89-.17-.39,0-.78.08-1.17.24M236.83,19.26c.15-.19.34-.34.56-.44.23-.11.47-.16.73-.16s.49.05.7.16c.21.11.37.25.48.43.11.18.2.46.26.83h-3.12c.11-.36.24-.63.39-.82M236.58,18.47c-.45.27-.8.63-1.05,1.09-.25.46-.37,1.01-.37,1.66s.13,1.15.39,1.61c.26.46.63.82,1.11,1.11.42.24.93.37,1.54.37.34,0,.63-.04.88-.13.25-.08.51-.23.8-.44.28-.21.57-.49.87-.85l-.39-.32c-.43.44-.79.73-1.09.88-.3.15-.61.22-.93.22-.38,0-.72-.09-1.01-.28-.3-.19-.54-.49-.72-.89-.18-.41-.27-.87-.27-1.38,0-.1,0-.25.02-.45h4.35c0-.33-.04-.6-.1-.81-.1-.36-.27-.67-.49-.95s-.5-.48-.82-.62c-.32-.14-.7-.21-1.14-.21-.59,0-1.11.13-1.56.4M187.54,15.57v.52h.27c.24,0,.42.03.52.08.1.05.17.13.22.24.05.11.07.32.07.64v5.65c0,.3-.02.5-.07.61-.05.1-.12.18-.22.24-.1.05-.27.08-.52.08h-.27v.52h3.28v-.52h-.25c-.25,0-.42-.02-.52-.08-.1-.05-.17-.14-.23-.25-.05-.12-.08-.31-.08-.59v-5.53c0-.35.02-.59.07-.71.05-.12.13-.21.24-.28.11-.07.28-.1.51-.1h.25v-.52h-3.28ZM224,15.5c-.14.14-.21.3-.21.5s.07.36.21.5c.14.14.31.21.5.21s.36-.07.51-.21c.14-.14.21-.31.21-.5s-.07-.37-.21-.5c-.14-.14-.31-.21-.51-.21s-.36.07-.5.21M220.61,15.74c-.42.41-.63.92-.63,1.56v.92h-1.05v.63h1.05v3.9c0,.33-.01.54-.05.63-.04.09-.1.16-.19.2-.09.04-.29.06-.62.06h-.19v.52h3.17v-.52h-.25c-.3,0-.49-.02-.57-.05-.08-.04-.14-.1-.18-.19-.04-.09-.06-.28-.06-.55v-3.99h1.16v-.63h-1.16v-1.17c0-.34.03-.58.09-.75.06-.16.14-.28.25-.37.11-.08.23-.13.37-.13.2,0,.4.1.62.31.2.2.36.32.45.37.1.05.22.07.35.07.15,0,.28-.05.38-.15.1-.1.15-.22.15-.37,0-.22-.13-.42-.38-.61-.25-.19-.6-.28-1.05-.28-.68,0-1.23.2-1.65.6"/>
    <path d="M30.94,30.71c-.15.15-.22.33-.22.54s.07.39.23.54c.15.15.33.23.55.23s.39-.08.54-.23c.15-.15.23-.33.23-.54s-.08-.39-.22-.54c-.15-.15-.33-.22-.55-.22s-.4.08-.55.22M10.93,25.98v.52h.29c.25,0,.4.02.47.07.07.04.1.11.1.2,0,.12-.08.37-.23.75l-1.32,3.2-1.43-3.35c-.11-.26-.17-.45-.17-.56,0-.08.02-.14.06-.19.04-.05.08-.08.13-.1.04-.01.19-.02.42-.02h.25v-.52h-2.99v.52c.28,0,.45,0,.5.03.1.02.2.09.3.2.1.11.22.32.36.64l2.03,4.55-.25.61c-.11.26-.24.54-.41.84-.11.21-.25.37-.42.48-.16.11-.33.17-.5.17-.08,0-.16-.02-.25-.06-.08-.04-.23-.15-.43-.33-.17-.15-.28-.24-.33-.26-.09-.04-.18-.06-.28-.06-.13,0-.24.05-.33.15-.09.1-.14.23-.14.38,0,.25.11.45.33.62.25.19.59.29,1.01.29.36,0,.7-.09,1-.27.3-.18.56-.42.76-.75.2-.32.38-.67.55-1.05l2.25-5.26c.15-.36.26-.59.33-.68.07-.1.14-.17.21-.2.08-.03.23-.05.48-.05h.15v-.52h-2.51ZM25.24,25.98v.52h.45c.24,0,.42.03.54.09.11.06.19.13.24.23.04.09.07.29.07.6v2.87c-.41.35-.83.61-1.25.79-.42.18-.79.27-1.11.27-.27,0-.5-.06-.7-.17-.2-.11-.35-.27-.44-.47-.1-.21-.14-.48-.14-.83v-3.96l-2.33.09v.52h.56c.18,0,.32.03.43.09.1.06.18.14.22.24.04.1.07.28.07.53v2.8c0,.27.05.53.14.77.1.24.23.45.41.62.18.17.38.3.62.39.24.09.51.13.83.13.43,0,.85-.08,1.27-.26.42-.17.91-.48,1.47-.92v1.14l2.04-.11v-.52h-.19c-.29,0-.49-.02-.58-.07-.1-.05-.17-.13-.22-.24-.05-.11-.07-.32-.07-.61v-4.59l-2.33.09ZM15.62,30.92c-.35-.44-.52-1.09-.52-1.93s.2-1.54.61-2c.32-.37.72-.55,1.18-.55.35,0,.67.09.95.28.28.19.49.45.63.78.18.42.27.9.27,1.43s-.08,1.02-.25,1.42c-.17.4-.39.7-.66.88-.27.18-.58.28-.93.28-.54,0-.97-.2-1.29-.59M15.36,26.22c-.46.26-.83.63-1.08,1.1-.26.47-.39,1.01-.39,1.62,0,.84.25,1.56.75,2.18.5.62,1.24.93,2.23.93.62,0,1.16-.13,1.61-.38.45-.25.8-.62,1.06-1.1.26-.48.39-1.03.39-1.64s-.13-1.16-.38-1.64c-.25-.48-.6-.84-1.04-1.09-.44-.25-.96-.37-1.56-.37s-1.12.13-1.58.39M49.53,31.18c-.17-.09-.3-.21-.39-.35-.09-.15-.14-.3-.14-.47s.04-.31.12-.45c.08-.14.22-.27.41-.4.19-.12.51-.23.96-.34.23-.05.81-.15,1.77-.29v1.49c-.53.37-.96.62-1.29.74-.34.13-.64.19-.9.19-.19,0-.37-.04-.54-.13M49.5,26.09c-.41.17-.72.38-.92.65-.2.26-.3.52-.3.79,0,.18.05.33.15.44.1.11.23.16.4.16.29,0,.48-.18.57-.55.08-.3.13-.48.15-.52.05-.12.12-.23.23-.33.1-.1.24-.17.41-.23.17-.05.38-.08.6-.08.46,0,.82.1,1.08.29.25.19.38.52.38.97v.67c-1.01.1-1.79.22-2.36.35-.57.13-.98.28-1.24.46-.27.17-.46.37-.59.6-.13.23-.19.46-.19.71,0,.41.18.77.53,1.08.35.31.81.46,1.38.46.4,0,.81-.08,1.2-.23.4-.16.84-.43,1.33-.81.04.22.12.4.25.56.13.16.29.28.49.36.2.08.44.12.74.12.27,0,.57-.05.92-.15v-.54c-.26.09-.49.13-.68.13s-.33-.04-.44-.13c-.11-.09-.19-.22-.24-.4-.02-.1-.03-.32-.03-.66v-2.36c0-.55-.06-.93-.19-1.14-.18-.3-.45-.53-.82-.7-.38-.16-.82-.24-1.35-.24-.56,0-1.05.09-1.46.25M56.1,26.31c-.39.32-.58.68-.58,1.1,0,.34.12.64.35.9.24.26.66.5,1.27.72l1.42.52c.42.15.7.3.85.45.14.16.22.34.22.53,0,.23-.12.45-.35.64-.23.19-.53.29-.88.29-.54,0-1.04-.17-1.5-.52-.33-.24-.69-.66-1.06-1.25l-.55.22.77,2.01h.44l.13-.44c.49.39,1.08.59,1.77.59.44,0,.84-.08,1.18-.25.34-.16.61-.38.79-.66.18-.28.27-.56.27-.86,0-.35-.12-.67-.36-.95-.25-.28-.71-.53-1.38-.78l-1.2-.42c-.49-.18-.8-.34-.94-.47-.14-.14-.22-.3-.22-.49,0-.2.1-.38.3-.53.2-.15.45-.23.77-.23.41,0,.81.14,1.21.43.4.29.71.69.93,1.19l.55-.18-.55-1.88h-.43l-.16.37c-.24-.19-.48-.32-.73-.4-.24-.08-.52-.12-.83-.12-.6,0-1.09.16-1.48.48M63.46,30.92c-.35-.44-.52-1.09-.52-1.93s.21-1.54.61-2c.33-.37.72-.55,1.19-.55.35,0,.67.09.95.28.28.19.49.45.63.78.18.42.27.9.27,1.43s-.09,1.02-.25,1.42c-.17.4-.39.7-.66.88-.27.18-.58.28-.93.28-.54,0-.97-.2-1.28-.59M63.21,26.22c-.46.26-.83.63-1.08,1.1-.26.47-.39,1.01-.39,1.62,0,.84.25,1.56.75,2.18.5.62,1.24.93,2.23.93.62,0,1.16-.13,1.61-.38.45-.25.8-.62,1.06-1.1.26-.48.39-1.03.39-1.64s-.13-1.16-.38-1.64c-.25-.48-.6-.84-1.04-1.09-.44-.25-.96-.37-1.56-.37s-1.12.13-1.58.39M72.17,26.08c-.38.16-.84.47-1.38.92v-1.17h-.44c-.34.19-.6.31-.78.37-.18.06-.45.11-.82.15v.51h1.05v3.51c0,.38-.01.61-.04.67-.05.13-.12.22-.24.27-.11.05-.32.08-.62.08h-.15v.52h3.17v-.52h-.18c-.32,0-.52-.02-.59-.06-.11-.05-.18-.13-.23-.24-.05-.1-.07-.32-.07-.64v-2.83c.35-.33.71-.58,1.09-.75.38-.17.73-.25,1.07-.25.28,0,.51.06.69.17.18.11.31.26.39.44.07.18.11.5.11.97v2.26c0,.32-.02.52-.07.63-.05.1-.12.18-.23.23-.1.05-.31.08-.6.08h-.17v.52h3.16v-.52c-.4,0-.65-.02-.76-.06-.1-.04-.18-.11-.22-.2-.05-.09-.07-.3-.07-.62v-2.71c0-.31-.02-.54-.05-.69-.05-.24-.16-.46-.32-.66-.16-.19-.37-.34-.63-.46-.26-.11-.55-.17-.89-.17-.39,0-.78.08-1.16.24M43.6,23.34v.52h.2c.27,0,.46.02.56.08.1.05.18.13.23.23.05.11.07.31.07.62v4.48c0,.51-.07.9-.21,1.17-.14.27-.37.5-.7.68-.32.18-.69.27-1.1.27-.49,0-.89-.12-1.2-.37-.31-.25-.46-.52-.46-.83,0-.07.02-.2.06-.39.03-.18.05-.29.05-.35,0-.2-.05-.36-.16-.48-.11-.12-.25-.18-.41-.18-.21,0-.38.08-.52.25-.14.17-.21.41-.21.72,0,.61.27,1.15.8,1.62.53.46,1.23.7,2.11.7.65,0,1.23-.13,1.71-.38.49-.25.84-.57,1.06-.96.22-.39.33-.92.33-1.61v-4.53c0-.2.02-.35.07-.45.05-.1.12-.17.21-.22.09-.05.25-.07.47-.07h.33v-.52h-3.28ZM30.14,23.7c-.38.25-.57.53-.57.85,0,.1.03.2.08.29.04.07.1.12.2.18.1.05.19.08.29.08.14,0,.29-.05.43-.17.07-.06.2-.21.37-.46.18-.25.36-.43.57-.53s.44-.16.72-.16c.35,0,.68.09.99.27.31.18.56.43.74.76.19.33.28.66.28.99,0,.37-.1.7-.32,1-.21.3-.52.52-.92.66-.4.14-1.01.21-1.83.2v2.18h.64v-1.36c1.07,0,1.92-.23,2.57-.68.64-.45.96-1.07.96-1.88,0-.52-.13-.98-.39-1.39-.26-.41-.65-.74-1.16-.99-.51-.25-1.1-.37-1.76-.37-.74,0-1.37.17-1.89.51M31.16,10.87v.52h.23c.24,0,.41.03.5.1.09.07.13.16.13.27,0,.05,0,.1-.02.14,0,.03-.04.13-.1.31l-1.24,3.41-1.27-3.36c-.09-.22-.13-.39-.13-.51,0-.14.06-.25.17-.31.07-.04.21-.05.44-.05h.24v-.52h-2.82v.52c.22.01.38.06.49.14.17.13.32.36.44.69l.12.29-1.24,3.12-1.27-3.36c-.1-.26-.14-.44-.14-.55,0-.12.06-.21.18-.27.08-.04.24-.05.48-.05h.2v-.52h-2.83v.52c.16,0,.3.03.41.08.11.05.2.13.27.22.07.1.17.29.28.58l1.82,4.54h.73l1.4-3.54,1.42,3.54h.74l1.8-4.54c.12-.3.21-.49.28-.58.07-.09.15-.16.26-.21.11-.05.26-.09.43-.09v-.52h-2.38ZM18.89,15.81c-.35-.44-.52-1.09-.52-1.93s.21-1.54.62-2c.32-.37.72-.55,1.19-.55.35,0,.67.09.95.28.28.18.49.45.63.78.18.42.27.9.27,1.43s-.08,1.02-.25,1.42c-.17.4-.39.7-.66.88-.27.18-.58.28-.93.28-.54,0-.97-.2-1.29-.59M18.63,11.12c-.47.26-.83.63-1.09,1.1-.26.47-.39,1.01-.39,1.62,0,.84.25,1.56.75,2.18.5.62,1.24.93,2.24.93.62,0,1.16-.13,1.61-.38.45-.25.8-.62,1.06-1.1.26-.48.39-1.03.39-1.64s-.13-1.16-.38-1.64c-.25-.48-.6-.84-1.04-1.09-.44-.25-.96-.38-1.57-.38s-1.12.13-1.58.39M39.7,16.07c-.17-.09-.3-.2-.39-.35-.09-.15-.14-.3-.14-.46s.04-.31.12-.45c.08-.14.22-.27.41-.4.19-.12.51-.24.96-.34.22-.05.81-.15,1.76-.29v1.49c-.53.37-.96.61-1.29.74-.34.13-.64.19-.9.19-.19,0-.37-.04-.54-.13M39.68,10.98c-.41.17-.72.39-.92.64-.2.26-.3.53-.3.8,0,.18.05.33.15.44.1.11.23.16.4.16.29,0,.48-.18.57-.55.08-.3.13-.48.15-.52.05-.12.13-.23.23-.33.1-.1.24-.17.42-.23.17-.06.37-.08.6-.08.46,0,.82.1,1.08.29.25.19.38.52.38.97v.67c-1.01.11-1.79.22-2.36.36-.57.13-.98.28-1.25.46-.26.17-.46.37-.59.6-.13.23-.19.46-.19.71,0,.41.18.77.53,1.08.35.31.81.46,1.38.46.4,0,.81-.07,1.2-.23.4-.15.84-.43,1.34-.81.04.22.12.41.24.56.13.16.29.28.49.36.2.08.44.12.74.12.27,0,.58-.05.92-.15v-.54c-.26.09-.49.13-.68.13s-.33-.04-.44-.13c-.11-.09-.19-.22-.24-.4-.02-.1-.03-.32-.03-.66v-2.36c0-.55-.06-.93-.18-1.14-.18-.3-.45-.54-.82-.7-.37-.16-.82-.24-1.35-.24-.56,0-1.05.09-1.46.26M48.37,11.04c-.39.21-.72.49-1.01.85v-1.16h-.46c-.3.17-.56.29-.79.37-.24.07-.5.12-.8.15v.51h1.06v3.63c0,.28-.02.48-.07.59-.05.11-.13.19-.24.26-.08.04-.24.07-.49.07h-.26v.52h3.18v-.52h-.2c-.22,0-.38-.01-.47-.04-.09-.03-.16-.08-.23-.14-.06-.06-.1-.14-.13-.23-.03-.09-.04-.25-.04-.5v-2.83c.18-.21.42-.43.73-.65.24-.17.47-.26.67-.26.15,0,.34.08.57.22.1.07.18.12.23.14.05.02.12.03.19.03.16,0,.31-.05.42-.17.12-.11.18-.24.18-.39,0-.21-.09-.38-.26-.52-.18-.14-.42-.22-.72-.22s-.65.1-1.04.31M52.6,11.91c.15-.19.34-.34.56-.44.23-.11.47-.16.73-.16s.49.05.7.16.37.25.48.43c.11.18.2.46.26.84h-3.12c.11-.36.24-.64.39-.82M52.34,11.12c-.45.26-.8.62-1.05,1.08-.25.46-.37,1.01-.37,1.66s.13,1.16.39,1.61c.26.46.63.82,1.11,1.11.42.24.93.37,1.54.37.34,0,.63-.04.88-.13.25-.08.52-.23.79-.44.28-.21.57-.49.87-.85l-.39-.32c-.43.43-.79.73-1.09.88-.3.15-.61.22-.93.22-.38,0-.71-.09-1.01-.28-.3-.19-.54-.49-.72-.89-.18-.4-.27-.87-.27-1.38,0-.1,0-.25.02-.45h4.35c0-.33-.04-.6-.1-.81-.1-.36-.27-.67-.49-.95-.22-.27-.5-.48-.82-.62-.32-.14-.71-.21-1.14-.21-.59,0-1.11.13-1.56.4M12.78,8.23v.52h.34c.22,0,.39.03.49.1.11.07.18.17.21.3.02.07.03.26.03.58v2.33h-4.44v-2.39c0-.29.02-.48.06-.58.04-.12.12-.21.24-.26.11-.05.3-.07.56-.07h.23v-.52h-3.31v.52h.35c.21,0,.36.03.46.07.09.05.16.13.2.23.04.1.06.29.06.56v5.91c0,.25-.02.42-.07.52-.05.1-.11.17-.19.2-.08.03-.28.05-.6.05h-.21v.52h3.31v-.52c-.42,0-.68-.01-.77-.04-.12-.03-.21-.09-.25-.18-.04-.09-.06-.3-.06-.62v-2.73h4.44v2.67c0,.37-.01.58-.04.65-.03.09-.1.16-.2.2-.1.04-.3.06-.6.06h-.24v.52h3.28v-.52c-.42,0-.66-.01-.74-.04-.12-.04-.21-.1-.25-.19-.04-.09-.06-.29-.06-.62v-5.84c0-.29.02-.48.06-.57.04-.09.11-.16.2-.21.1-.05.26-.08.49-.08h.29v-.52h-3.28Z"/>
  </g>
</svg>