<?xml version="1.0" encoding="UTF-8"?>
<svg id="Layer_2" data-name="Layer 2" xmlns="http://www.w3.org/2000/svg" xmlns:xlink="http://www.w3.org/1999/xlink" viewBox="0 0 324 77.11">
  <defs>
    <style>
      .cls-1, .cls-2 {
        fill: #fff;
      }

      .cls-3 {
        fill: none;
      }

      .cls-4 {
        fill: #1f1a17;
      }

      .cls-5 {
        clip-path: url(#clippath-1);
      }

      .cls-2 {
        font-family: MyriadPro-Bold, 'Myriad Pro';
        font-size: 11.45px;
        font-weight: 700;
      }

      .cls-6 {
        fill: #39b54a;
      }

      .cls-7 {
        clip-path: url(#clippath);
      }
    </style>
    <clipPath id="clippath">
      <rect class="cls-3" width="324" height="77.11"/>
    </clipPath>
    <clipPath id="clippath-1">
      <rect class="cls-3" width="324" height="77.11"/>
    </clipPath>
  </defs>
  <g id="Layer_1-2" data-name="Layer 1">
    <g class="cls-7">
      <path class="cls-1" d="M176.57,28.51c0,.09-.07.16-.16.16h-.32c-.09,0-.16-.07-.16-.16s.07-.16.16-.16h.32c.09,0,.16.07.16.16"/>
      <path class="cls-4" d="M321.6,49.28c0,7.83-6.15,14.17-13.74,14.17H14.43c-7.59,0-13.74-6.35-13.74-14.17v-31.69C.69,9.76,6.85,3.41,14.43,3.41h293.42c7.59,0,13.74,6.35,13.74,14.17v31.69Z"/>
      <polyline class="cls-1" points=".69 17.52 321.91 17.52 321.91 15.55 .69 15.55"/>
      <polyline class="cls-1" points=".69 53.28 321.91 53.28 321.91 51.31 .69 51.31"/>
      <path class="cls-6" d="M38.83,30.74c2.25.91,3.85,3.17,3.85,5.81,0,1.72-.68,3.28-1.77,4.41-1.1,1.13-2.6,1.83-4.27,1.83s-3.18-.7-4.27-1.83c-1.1-1.13-1.77-2.68-1.77-4.41h0s-.61,0-.61,0h.61s-.61,0-.61,0h.61c0-2.18,1.08-4.09,2.72-5.21l-1.05-1.64c-2.16,1.46-3.58,3.99-3.58,6.85h0s0,0,0,0c0,4.53,3.56,8.2,7.95,8.2,4.39,0,7.95-3.67,7.95-8.2,0-3.48-2.1-6.45-5.06-7.64l-.69,1.83Z"/>
      <polyline class="cls-6" points="35.2 27.53 35.2 36.79 37.11 36.79 37.11 27.53"/>
      <path class="cls-6" d="M75.43,38.19v-.74h-9.62v-7.55h8.9v8.28h.72v-.74.74h.72v-9.02c0-.19-.08-.38-.21-.52-.13-.14-.32-.22-.51-.22h-10.34c-.19,0-.37.08-.51.22-.13.14-.21.33-.21.52v9.02c0,.19.08.38.21.52.13.14.32.22.51.22h10.34c.19,0,.37-.08.51-.22.13-.14.21-.33.21-.52h-.72Z"/>
      <polyline class="cls-6" points="63.82 41.72 76.23 41.72 76.23 40.24 63.82 40.24"/>
      <path class="cls-6" d="M103.26,38.19v-.74h-9.62v-7.55h8.9v8.28h.72v-.74.74h.72v-9.02c0-.19-.08-.38-.21-.52-.13-.14-.32-.22-.51-.22h-10.34c-.19,0-.37.08-.51.22-.13.14-.21.33-.21.52v9.02c0,.19.08.38.21.52.13.14.32.22.51.22h10.34c.19,0,.37-.08.51-.22.13-.14.21-.33.21-.52h-.72Z"/>
      <polyline class="cls-6" points="91.65 41.72 104.06 41.72 104.06 40.24 91.65 40.24"/>
      <path class="cls-6" d="M131.09,38.19v-.74h-9.62v-7.55h8.9v8.28h.72v-.74.74h.72v-9.02c0-.19-.08-.38-.21-.52-.13-.14-.32-.22-.51-.22h-10.34c-.19,0-.37.08-.51.22-.13.14-.21.33-.21.52v9.02c0,.19.08.38.21.52.13.14.32.22.51.22h10.34c.19,0,.37-.08.51-.22.13-.14.21-.33.21-.52h-.72Z"/>
      <polyline class="cls-6" points="119.48 41.72 131.88 41.72 131.88 40.24 119.48 40.24"/>
      <path class="cls-6" d="M158.92,38.19v-.74h-9.62v-7.55h8.9v8.28h.72v-.74.74h.72v-9.02c0-.19-.08-.38-.21-.52-.13-.14-.32-.22-.51-.22h-10.34c-.19,0-.37.08-.51.22-.13.14-.21.33-.21.52v9.02c0,.19.08.38.21.52.13.14.32.22.51.22h10.34c.19,0,.37-.08.51-.22.13-.14.21-.33.21-.52h-.72Z"/>
      <polyline class="cls-6" points="147.31 41.72 159.71 41.72 159.71 40.24 147.31 40.24"/>
      <path class="cls-6" d="M186.75,38.19v-.74h-9.62v-7.55h8.9v8.28h.72v-.74.74h.72v-9.02c0-.19-.08-.38-.21-.52-.13-.14-.32-.22-.51-.22h-10.33c-.19,0-.37.08-.51.22-.13.14-.21.33-.21.52v9.02c0,.19.08.38.21.52.13.14.32.22.51.22h10.33c.19,0,.37-.08.51-.22.13-.14.21-.33.21-.52h-.72Z"/>
      <polyline class="cls-6" points="175.14 41.72 187.54 41.72 187.54 40.24 175.14 40.24"/>
      <path class="cls-6" d="M214.57,38.19v-.74h-9.62v-7.55h8.9v8.28h.72v-.74.74h.72v-9.02c0-.19-.08-.38-.21-.52-.13-.14-.32-.22-.51-.22h-10.33c-.19,0-.37.08-.51.22-.13.14-.21.33-.21.52v9.02c0,.19.08.38.21.52.13.14.32.22.51.22h10.33c.19,0,.37-.08.51-.22.13-.14.21-.33.21-.52h-.72Z"/>
      <polyline class="cls-6" points="202.97 41.72 215.37 41.72 215.37 40.24 202.97 40.24"/>
      <path class="cls-6" d="M242.4,38.19v-.74h-9.62v-7.55h8.9v8.28h.72v-.74.74h.72v-9.02c0-.19-.08-.38-.21-.52-.13-.14-.32-.22-.51-.22h-10.33c-.19,0-.37.08-.51.22-.13.14-.21.33-.21.52v9.02c0,.19.08.38.21.52.13.14.32.22.51.22h10.33c.19,0,.37-.08.51-.22.13-.14.21-.33.21-.52h-.72Z"/>
      <polyline class="cls-6" points="230.79 41.72 243.2 41.72 243.2 40.24 230.79 40.24"/>
      <path class="cls-6" d="M270.23,38.19v-.74h-9.62v-7.55h8.9v8.28h.72v-.74.74h.72v-9.02c0-.19-.08-.38-.21-.52-.13-.14-.32-.22-.51-.22h-10.33c-.19,0-.37.08-.51.22-.13.14-.21.33-.21.52v9.02c0,.19.08.38.21.52.13.14.32.22.51.22h10.33c.19,0,.37-.08.51-.22.13-.14.21-.33.21-.52h-.72Z"/>
      <polyline class="cls-6" points="258.62 41.72 271.02 41.72 271.02 40.24 258.62 40.24"/>
    </g>
    <text class="cls-2" transform="translate(57.3 39.99) scale(1 1.03)"><tspan x="0" y="0">1</tspan></text>
    <text class="cls-2" transform="translate(84.5 39.99) scale(1 1.03)"><tspan x="0" y="0">2</tspan></text>
    <text class="cls-2" transform="translate(111.69 39.99) scale(1 1.03)"><tspan x="0" y="0">3</tspan></text>
    <text class="cls-2" transform="translate(138.88 39.99) scale(1 1.03)"><tspan x="0" y="0">4</tspan></text>
    <text class="cls-2" transform="translate(167.02 39.99) scale(1 1.03)"><tspan x="0" y="0">5</tspan></text>
    <text class="cls-2" transform="translate(194.22 39.99) scale(1 1.03)"><tspan x="0" y="0">6</tspan></text>
    <text class="cls-2" transform="translate(222.36 39.99) scale(1 1.03)"><tspan x="0" y="0">7</tspan></text>
    <text class="cls-2" transform="translate(250.5 39.99) scale(1 1.03)"><tspan x="0" y="0">8</tspan></text>
    <g class="cls-5">
      <rect class="cls-4" x="24.87" y="61.48" width="19.4" height="8.2"/>
      <rect class="cls-4" x="279.93" y="61.48" width="19.4" height="8.2"/>
    </g>
  </g>
</svg>