<?xml version="1.0" encoding="UTF-8"?>
<svg id="Layer_2" data-name="Layer 2" xmlns="http://www.w3.org/2000/svg" xmlns:xlink="http://www.w3.org/1999/xlink" viewBox="0 0 149.65 106.63">
  <defs>
    <style>
      .cls-1 {
        fill: #fcfbfb;
      }

      .cls-1, .cls-2, .cls-3, .cls-4, .cls-5, .cls-6, .cls-7, .cls-8, .cls-9, .cls-10, .cls-11, .cls-12, .cls-13, .cls-14, .cls-15, .cls-16, .cls-17, .cls-18, .cls-19, .cls-20, .cls-21, .cls-22, .cls-23, .cls-24, .cls-25, .cls-26, .cls-27, .cls-28, .cls-29, .cls-30, .cls-31, .cls-32, .cls-33, .cls-34, .cls-35, .cls-36, .cls-37, .cls-38, .cls-39, .cls-40, .cls-41, .cls-42 {
        fill-rule: evenodd;
      }

      .cls-2 {
        fill: #415ba9;
      }

      .cls-3 {
        fill: #fdfdfd;
      }

      .cls-4 {
        fill: #7f7b7c;
      }

      .cls-43 {
        clip-path: url(#clippath-4);
      }

      .cls-5 {
        fill: #fefdfd;
      }

      .cls-6 {
        fill: #393738;
      }

      .cls-7 {
        fill: #bdbabb;
      }

      .cls-8 {
        fill: #6ec28e;
      }

      .cls-9 {
        fill: #484546;
      }

      .cls-10 {
        fill: #424041;
      }

      .cls-44, .cls-45 {
        fill: #231f20;
      }

      .cls-11 {
        fill: #f3f2f1;
      }

      .cls-12 {
        fill: #afabac;
      }

      .cls-13 {
        fill: #415ba8;
      }

      .cls-14 {
        fill: #363435;
      }

      .cls-15, .cls-46 {
        fill: #c6835d;
      }

      .cls-16 {
        fill: #474545;
      }

      .cls-17 {
        fill: #726e6f;
      }

      .cls-18 {
        fill: #f4f2f1;
      }

      .cls-19 {
        fill: #fbfafa;
      }

      .cls-47, .cls-48 {
        fill: none;
      }

      .cls-20 {
        fill: #f6963a;
      }

      .cls-21 {
        fill: #282727;
      }

      .cls-22 {
        fill: #4c2d18;
      }

      .cls-23 {
        fill: #efedec;
      }

      .cls-49 {
        clip-path: url(#clippath-1);
      }

      .cls-24 {
        fill: #474546;
      }

      .cls-25 {
        fill: #0b0808;
      }

      .cls-26 {
        fill: #545050;
      }

      .cls-50 {
        clip-path: url(#clippath-5);
      }

      .cls-27 {
        fill: #eeecec;
      }

      .cls-28 {
        fill: #c98344;
      }

      .cls-29 {
        fill: #6fc18e;
      }

      .cls-30 {
        fill: #fefefe;
      }

      .cls-31 {
        fill: #9a9797;
      }

      .cls-51 {
        clip-path: url(#clippath-3);
      }

      .cls-32 {
        fill: #faf9f9;
      }

      .cls-33 {
        fill: #be724b;
      }

      .cls-45 {
        font-family: BookmanOldStyle, 'Bookman Old Style';
        font-size: 10px;
      }

      .cls-34 {
        fill: #0f0e0e;
      }

      .cls-35 {
        fill: #676364;
      }

      .cls-48 {
        stroke: #231f20;
        stroke-miterlimit: 10;
      }

      .cls-36 {
        fill: #474644;
      }

      .cls-37 {
        fill: #f9f8f8;
      }

      .cls-52 {
        clip-path: url(#clippath-2);
      }

      .cls-38 {
        fill: #f6f4f4;
      }

      .cls-39 {
        fill: #e4e1e1;
      }

      .cls-40 {
        fill: #8d898a;
      }

      .cls-53 {
        clip-path: url(#clippath);
      }

      .cls-41 {
        fill: #f7963a;
      }

      .cls-42 {
        fill: #fffefe;
      }
    </style>
    <clipPath id="clippath">
      <rect class="cls-47" y="0" width="149.65" height="101.94"/>
    </clipPath>
    <clipPath id="clippath-1">
      <rect class="cls-47" y="0" width="149.65" height="106.62"/>
    </clipPath>
    <clipPath id="clippath-2">
      <rect class="cls-47" y="0" width="149.65" height="101.94"/>
    </clipPath>
    <clipPath id="clippath-3">
      <rect class="cls-47" y="0" width="149.65" height="106.62"/>
    </clipPath>
    <clipPath id="clippath-4">
      <rect class="cls-47" y="0" width="149.65" height="101.94"/>
    </clipPath>
    <clipPath id="clippath-5">
      <rect class="cls-47" y="0" width="149.65" height="106.62"/>
    </clipPath>
  </defs>
  <g id="Layer_1-2" data-name="Layer 1">
    <g class="cls-53">
      <path class="cls-25" d="M137.43,101.34c-.03.76-.38.66-1.01.47-3.86-1.17-7.33-2.92-10.47-5.19-.31-.23-.62-.25-.97-.24-1.5.01-2.99.22-4.49.27-2.41.08-4.66-.4-6.85-1.17-3.01-1.06-5.7-2.56-8.03-4.55-.12-.11-.19-.19-.45-.15-4.11.66-7.78-.41-11.24-2.28-2.75-1.48-5.02-3.45-7.26-5.44-.39-.35-.75-.5-1.31-.51-3.43-.05-6.84-.32-10.01-1.52-2.32-.88-4.51-2-5.85-4.02-.19-.29-.43-.3-.79-.32-2.95-.1-5.83-.47-8.53-1.59-.4-.17-.64-.09-.94.09-1.88,1.13-3.95,1.54-6.24,1.53-17.31-.04-34.63-.02-51.94-.02-.35,0-.7-.03-1.05-.05v-.67c.5-.36,1.1-.23,1.67-.23,15.3,0,30.6,0,45.9,0,.38,0,.77.09,1.12-.08-.85-.72-1.89-1.24-2.62-2.07-.59-.67-1.17-1.33-1.57-2.1-.24-.47-.51-.93-.79-1.39-.23-.4-.43-.81-.6-1.23-.22-.55-.39-1.12-.59-1.68-.2-.51-.29-1.04-.43-1.56-.25-.87-.16-1.77-.35-2.65-.08-.34-.09-.68-.08-1.02,0-1.12.07-2.23.35-3.33.16-.57.28-1.15.43-1.72.23-.61.39-1.24.65-1.85.4-.8.78-1.6,1.22-2.39.64-.98,1.28-1.96,2.13-2.82.88-.87,2.04-1.43,3.17-2.12-16.01,0-31.93,0-47.85,0-.6,0-1.23.12-1.76-.26v-.51c17.7,0,35.39,0,53.09,0,3.45,0,6.24,1.25,8.42,3.55.38.4.62.39,1.14.22,2.16-.7,4.41-.85,6.7-.7.37.02.64.03.92-.25,2.04-2.08,4.7-3.26,7.59-4.21,3.12-1.02,6.33-1.31,9.51-.72,1.58.29,2.33-.17,3.31-.98,3.08-2.54,6.76-3.8,10.99-3.85,1.54-.02,3.07.07,4.56.41.51.11.81.06,1.19-.23,4.17-3.12,9.02-4.52,14.46-4.37,2.07.06,3.99.71,5.8,1.57.48.23.73.17,1.15-.09,1.88-1.15,3.58-2.52,5.58-3.53,2.03-1.01,4.27-1.43,6.51-1.86.44-.09.51.22.57.42.15.6.55.56,1.05.4.93-.29,1.86-.55,2.78-.86.42-.14.72-.31.93.26.21.57-.21.52-.56.63-.99.32-1.95.68-2.94.99-.57.18-.74.44-.46.95.34.61.49.98-.68,1.12-1.99.25-3.74,1.21-5.53,1.99-.74.32-1.42.73-2.3,1.19,2.32.34,4.36,1.19,6.63.87.64-.09.96.08.6.7-.39.65-.08.85.68.97,1.54.25,3.08.39,4.64.33,0,.79-.36,1.07-1.2,1.02-1.03-.05-2.01-.29-3.01-.47-1.33-.25-1.49-.17-1.49,1.02,0,.7-.37.49-.88.49-2.83-.02-5.62-.49-8.31-1.1-2.14-.48-3.77-.26-5.65.68-2.27,1.13-4.87,1.53-7.5,1.78-2.67.26-5.21-.04-7.76-.63-.76-.18-1.28,0-1.93.37-4,2.29-7.96,4.66-13.01,4.81-1.68.05-3.36.21-5.05.19-.48,0-.85.24-1.19.48-2.6,1.83-5.58,2.83-8.84,3.4-1.97.34-3.96,1.01-5.92.82-2.66-.26-3.79,1.38-5.29,2.68.81-.29,1.61-.59,2.42-.87,2.39-.81,4.84-1.46,7.41-1.46,2.39,0,4.79.15,7.06.93.24.08.49.13.72.22.86.35,1.53.33,2.48-.15,4.12-2.09,8.55-2.4,13.14-1.37,1.92.43,3.85.8,5.53,1.79.19.11.39.12.62.03,3.03-1.21,6.19-1.71,9.52-1.49,3.84.25,7.64.61,11.01,2.44.43.23.74.03,1.07-.08,2.27-.79,4.54-1.59,6.95-2.06,2.48-.48,4.95-.74,7.48-.19.64.14.83.26.51.79-.26.44-.08.59.49.65,1.01.1,2,.31,3.02.31.33,0,.85-.05.76.51-.08.51-.47.51-.92.46-.92-.11-1.84-.19-2.75-.32-.9-.12-1.2.32-1.03.95.18.66-.1.57-.61.47-3.04-.54-5.95-.07-9.04.89,2.24.69,4.22,1.52,6.36,1.92.8.15,1.58.41,2.44.4.6,0,.73.38.34.8-.52.56-.38.8.44.86.83.06,1.64.19,2.46.31.4.06.84.09,1.05.48.08.15.18.31.04.47-.14.18-.3.2-.57.15-1.08-.22-2.19-.37-3.27-.58-.46-.09-.79-.13-.76.44.02.27-.09.55-.14.83-.04.25-.17.29-.46.24-2.68-.38-5.24-1.12-7.82-1.81-2.06-.55-4.13-1.13-6.04-2.03-.57-.27-1.08-.12-1.63,0-2.27.54-4.56,1.05-6.91,1.26-2.46.23-4.83-.32-7.2-.75-1.55-.28-3.07-.71-4.59-1.11-.32-.09-.55,0-.8.09-4.74,1.73-9.66,2.04-14.66,1.25-1.48-.23-3.04-.35-4.38-1.06-.2-.11-.35-.07-.52.03-1.49.86-2.99,1.71-4.76,2.31,1.36.43,2.42,1.1,3.47,1.78.32.21.58.3,1.02.22,6.58-1.08,12.8-.03,18.71,2.62.45.2.98.4,1.26.74.58.69,1.2.52,1.98.36,3.09-.63,6.2-1.12,9.4-.71,2.49.32,4.79,1.1,7.01,2.1.25.12.54.21.75.37,1.27,1.04,2.62.63,3.99.22,3.08-.94,6.25-.97,9.46-.78,1.5.09,2.84.64,4.3.82.39.05.29.31.31.51.04.45.28.68.82.71.82.05,1.65.2,2.47.23.49.01.61.34.86.56.14.12.07.29-.11.33-.33.08-.57.32-1.04.11-.85-.38-1.85-.34-2.79-.46-.55-.07-.43.28-.46.53-.1.74-.3,1.08-1.39.87-2.82-.53-5.63-.14-8.55.38.62.62,1.36.81,2.04,1.04,2.19.77,4.46,1.31,6.81,1.58.56.06.79.29.57.79-.21.49.01.67.61.74.85.1,1.68.32,2.52.49.25.05.58.09.53.37-.05.29-.38.36-.68.32-.79-.11-1.57-.24-2.36-.37-.57-.09-1.06-.08-1.2.57-.18.8-.71.9-1.61.78-4.48-.64-8.49-2.31-12.44-4.14-.35-.16-.61-.19-.97-.1-3.32.75-6.72,1.13-10.14.99-2.54-.11-5.05-.57-7.29-1.77-1.14-.61-2.42-1-3.5-1.71-.2-.13-.36-.09-.6-.05-7.05,1.26-13.46-.12-19.34-3.62-.49-.29-.87-.34-1.46-.15-1.92.59-3.92.43-5.87.16-5.8-.83-10.82-3.18-15.42-6.28-.1-.07-.22-.11-.35-.18-.41.77-.62,1.34.48,1.95,2.13,1.19,3.49,3.1,5.11,4.76.24.24.35.46.83.32,3.9-1.14,7.6-.78,11.17,1.07,1.93,1,3.4,2.37,4.66,3.92.47.57,1,.72,1.7.61,5.3-.83,9.44,1.18,13.14,4.19,1.34,1.09,2.62,2.23,3.77,3.48.27.29.57.28.93.29,2.4.04,4.79-.09,7.2.14,4.22.4,7.95,1.76,11.15,4.19.65.49,1.17.67,2.07.5,2.72-.49,5.47-.29,8.19.13.88.14,1.75.29,2.63.41.72.1.94.45.69,1.01-.27.62.02.87.67.98.97.17,1.93.35,2.89.53.28.05.59.06.62.41.02.18.39.26.19.5-.21.24-.43.09-.67.02-1.15-.36-2.36-.51-3.55-.65-.91-.11-.71.68-.6,1,.37,1.03-.25.65-.8.53-1.76-.4-3.55-.68-5.37-.71-.15,0-.3.08-.63.17,2.12,1.22,4.09,2.45,6.52,2.87.65.11.52.41.32.69"/>
    </g>
    <g class="cls-49">
      <path class="cls-15" d="M138.8,92.33c-.27.62.02.87.67.98.97.17,1.93.36,2.89.53.28.05.59.06.62.41.02.18.39.26.19.5-.21.24-.43.09-.68.02-1.15-.36-2.36-.51-3.55-.65-.91-.11-.71.68-.6,1"/>
    </g>
    <g class="cls-52">
      <path class="cls-15" d="M144.66,79.32c-.21.49,0,.67.61.74.85.1,1.68.32,2.52.49.24.05.58.09.53.37-.05.29-.38.36-.68.32-.79-.11-1.57-.24-2.36-.37-.57-.09-1.06-.08-1.2.57"/>
      <path class="cls-15" d="M145.43,72.64c.04.45.28.68.82.71.82.05,1.65.2,2.47.23.49.01.61.34.86.56.14.11.07.29-.11.33-.33.08-.57.33-1.04.12-.85-.38-1.85-.34-2.79-.46-.55-.07-.43.28-.46.53"/>
    </g>
    <g class="cls-51">
      <path class="cls-15" d="M147.7,65.28c-1.08-.22-2.19-.37-3.27-.57"/>
      <path class="cls-15" d="M147.7,65.28c.27.05.43.03.57-.15.13-.16.04-.32-.04-.47-.21-.39-.64-.43-1.05-.48-.82-.12-1.64-.25-2.46-.31l-.57-.12-.27.92,3.83.6Z"/>
      <path class="cls-15" d="M145.7,56.61c1.01.1,1.99.31,3.02.31.33,0,.85-.05.76.51-.08.51-.47.51-.92.46-.92-.11-1.84-.19-2.75-.32"/>
      <path class="cls-15" d="M141.02,40.6c-.39.65-.08.85.68.97,1.54.25,3.08.39,4.64.33,0,.79-.36,1.07-1.2,1.02-1.03-.05-2.01-.29-3.01-.47-1.33-.25-1.49-.17-1.49,1.02"/>
    </g>
    <g class="cls-43">
      <path class="cls-15" d="M141.5,32.35c.15.6.55.56,1.05.4.93-.29,1.86-.55,2.78-.86.42-.14.72-.31.93.26.21.57-.21.51-.56.63-.99.32-1.95.68-2.94.99-.57.18-.74.43-.46.95"/>
      <path class="cls-33" d="M138.37,98.65c-.48.69-.17.96.62,1.14,1.04.24,2.06.58,3.09.84.59.15.51.51.42.86-.12.47-.52.2-.77.14-1.07-.26-2.16-.49-3.19-.86-.79-.28-1.09-.02-1.11.58"/>
    </g>
    <g class="cls-50">
      <path class="cls-21" d="M44.63,71.42c1.05,1.64,2.44,3,4.23,4.05,0,.28-.23.3-.46.32-.32.03-.64.02-.96.02-15.35,0-30.7,0-46.04,0-.47,0-.97.11-1.4-.16v-3.88c.53-.38,1.16-.27,1.76-.27,13.3,0,26.6,0,39.9,0,.99,0,1.99,0,2.98-.07"/>
      <path class="cls-26" d="M41.93,62.99c.32.88.2,1.8.38,2.69-1.02.28-2.08.27-3.13.27-12.37,0-24.73,0-37.1,0-.69,0-1.4.19-2.08-.09v-3.04c1.37-.5,2.8-.45,4.24-.37,1.72.09,3.44.06,5.15-.01.78-.03,1.53.16,2.29.11,2.42-.16,4.85-.02,7.27-.04,1.97-.02,3.96-.13,5.93.04.94.08,1.84-.17,2.77-.15,2.27.06,4.54.07,6.81.08,1.88.01,3.76.04,5.65.08.66.01,1.27.09,1.82.43"/>
      <path class="cls-7" d="M0,47.46c.38.01.77.03,1.15.03,16.13,0,32.25,0,48.38,0h.92c-1.52.77-2.84,1.7-4.07,2.72-.56-.25-1.14-.28-1.77-.22-1.5.15-3.01.17-4.5-.02-1.04-.13-2.04.11-3.06.1-3.33-.05-6.66.15-9.99-.13-.89-.07-1.78.2-2.68.13-3.22-.23-6.45.05-9.68-.1-2.09-.1-4.22.11-6.33.1-2.55-.02-5.1-.19-7.65-.04-.26.01-.51-.06-.71-.21v-2.36Z"/>
      <path class="cls-31" d="M44.45,52.77c-.38.77-.76,1.53-1.14,2.3-1.51-.6-3.13-.34-4.68-.39-2.81-.08-5.63.01-8.45.07-3.16.06-6.33.06-9.49-.04-4.92-.14-9.86-.21-14.79.07-1.66.09-3.33.03-5,.03-.32,0-.64-.05-.89-.26v-2.53c.34-.27.76-.27,1.18-.27,13.88,0,27.76,0,41.64,0,.39,0,.77.01,1.13.17.4.17.72.4.5.86"/>
      <path class="cls-12" d="M44.45,52.77c-.03-.55-.49-.68-.98-.75-.28-.04-.58-.01-.86-.01H0v-2.19c1.85-.37,3.74-.12,5.59-.1,2.17.03,4.35.17,6.51.05,2.08-.12,4.14.15,6.2.03,1.98-.12,3.94.02,5.91.02,4.12,0,8.23.1,12.34-.04,2.3-.08,4.58.08,6.87.06.71,0,1.38-.21,2.09-.19.47,0,.83.08.87.57-.64.85-1.28,1.7-1.92,2.56"/>
      <path class="cls-35" d="M41.93,62.99c-.04.07-.1.2-.12.2-2.21-.58-4.45-.67-6.72-.38-.62.08-1.2-.14-1.8-.15-2.11-.02-4.23-.12-6.34.02-2,.13-4,.17-5.98.08-2.09-.09-4.17.25-6.28-.06-.85-.12-1.84.22-2.75.1-1.74-.24-3.49-.1-5.21-.08-2.24.02-4.51-.26-6.75.1v-2.53c.37-.29.83-.27,1.28-.27,12.95,0,25.9,0,38.85,0,1.47,0,1.68.2,1.71,1.45,0,.17-.02.34.07.49,0,.34.01.69.02,1.03"/>
      <path class="cls-4" d="M42.68,56.9c-.13.56-.26,1.13-.4,1.69-.1.07-.22.14-.34.14-1.98-.07-3.96.17-5.94.07-3.3-.16-6.59-.12-9.88-.05-1.69.03-3.39,0-5.08-.01-2.46-.02-4.92.06-7.38-.02-.42-.01-.83-.03-1.25-.02-3.65.06-7.29-.02-10.94,0-.51,0-1.04.07-1.47-.26v-2.02c.37-.29.83-.27,1.28-.27,13.27,0,26.53,0,39.8,0,.69,0,1.38.01,1.6.77"/>
      <path class="cls-40" d="M42.68,56.9c-.37-.46-.9-.51-1.5-.51-13.73.01-27.45.01-41.18.01v-1.86c4.44.1,8.88-.27,13.33-.18,2.08.05,4.16-.04,6.24.02,2.01.06,4.01.19,6.03.16,4.36-.07,8.72-.11,13.08-.17,1.2-.02,2.39.36,3.6.01.63-.18.74.39,1.03.68-.21.61-.42,1.22-.63,1.83"/>
      <path class="cls-14" d="M44.63,71.42c-.15.56-.67.33-1.03.33-6.21.01-12.42.01-18.63.01H0v-1.86c.4-.31.9-.26,1.37-.26,2.33-.02,4.65.15,7,.03,2.04-.11,4.09-.06,6.14.11,1.78.15,3.58-.04,5.37-.12,2.75-.12,5.49.1,8.24.15.93.01,1.85-.17,2.78-.17,3.59,0,7.17,0,10.76,0,.77,0,1.55-.01,2.21.43.38.4.62.85.77,1.35"/>
      <path class="cls-17" d="M0,58.43h5.76c2.06,0,4.13,0,6.19,0s4.07-.08,6.1.02c2.44.12,4.89.04,7.32.05,2.31,0,4.63.03,6.95-.06,1.3-.05,2.6-.01,3.92.11,1.63.15,3.27-.22,4.92-.1.38.03.75.09,1.12.13-.25,1.11-.35,2.24-.37,3.37-.05-.07-.13-.14-.15-.21q-.23-1.46-1.88-1.46H0v-1.86Z"/>
      <path class="cls-10" d="M42.7,67.21c.28.54.48,1.1.6,1.69-.21.17-.46.16-.72.16-13.61-.12-27.22-.02-40.82-.06-.6,0-1.23.11-1.76-.27v-1.35c.29-.43.77-.46,1.26-.46,13.32.05,26.64,0,39.96.02.51,0,1.03,0,1.48.27"/>
      <path class="cls-9" d="M42.7,67.21c-13.52,0-27.03,0-40.55,0-.72,0-1.47-.19-2.16.17v-1.52c.52-.15,1.06-.17,1.61-.17,12.72,0,25.44,0,38.16.02.85,0,1.69-.39,2.54-.02.26.48.3,1.01.4,1.52"/>
      <path class="cls-6" d="M0,68.72c13.42,0,26.83,0,40.25,0,1.02,0,2.04-.05,3.05.17.19.39.38.79.56,1.18-4.12-.35-8.24-.11-12.36-.16-1.83-.02-3.67.07-5.5.17-.91.05-1.77-.19-2.67-.18-2.04.02-4.08.04-6.12.15-2.81.15-5.61-.32-8.42-.14-2.93.19-5.86-.06-8.79-.01v-1.18Z"/>
      <path class="cls-34" d="M0,75.64c15.89,0,31.78,0,47.67,0,.4,0,.84.14,1.19-.16.29.02.54.11.8.51H0v-.34Z"/>
      <path class="cls-36" d="M58.83,74.64c-3.15,2.1-7.27,1.82-10.49-.2-2.29-1.44-3.32-3.56-4.32-5.73-.87-1.89-1.41-3.87-1.42-5.87-.03-4.73.96-9.29,4.97-12.75,3.37-2.91,8.04-3.63,11.93-.45,2.39,1.95,2.29,1.26-.35,2.68-.39.21-.75.2-1.16,0-3.96-1.93-7.98.33-9.6,3.33-.93,1.73-1.48,3.51-1.58,5.4-.1,1.91.24,3.78,1.14,5.52.48.93.97,1.85,1.73,2.69,1.12,1.23,2.49,1.98,4.2,2.32.61.12,1.13.34,1.54.76.93.95,2.19,1.53,3.41,2.29"/>
      <path class="cls-41" d="M107.64,56.91c-1.13.53-2.24.81-3.23,1.33-.79.41-1.62.15-2.42-.04-4.11-1-7.82-.26-11.26,1.88-2.5,1.55-4.94,3.19-7.88,4.13-2.97.95-6,.97-9.07.76-1.97-.14-3.95-.39-5.83-.87-2.28-.58-4.56-1.27-6.62-2.37-.24-.13-.48-.23-.92-.44,1.89-.33,3.48-.86,4.89-1.77.2-.13.42-.07.64,0,.96.3,1.92.59,2.88.89,5.89,1.83,11.57,1.84,16.87-1.48,1.43-.9,2.82-1.88,4.36-2.6,4.3-2,8.81-2.07,13.41-.88,1.4.36,2.86.6,4.17,1.46"/>
      <path class="cls-22" d="M128.84,77.42c-1.01.48-2.05.67-3.02.71-2.07.1-4.12.52-6.2.38-2.75-.18-5.34-.72-7.89-1.78-2.98-1.24-5.26-3.24-7.93-4.81-.89-.52-1.82-.94-2.84-1.19-1.53-.38-3.16-.95-4.66-.75-2.92.4-4.93-.79-6.92-2.27-.28-.21-.87-.32-.76-.66.11-.33.7-.3,1.09-.34,1.29-.13,2.61-.38,3.89-.31,1.96.11,3.91.37,5.85.7,2.6.44,5.03,1.3,7.31,2.42,1.48.73,2.76,1.79,4.11,2.73,2.6,1.82,5.52,3.02,8.84,3.34.96.09,1.97-.09,2.93-.26.74-.13,1.4-.16,2.12.13,1.4.55,2.71,1.24,4.09,1.96"/>
      <path class="cls-2" d="M88.62,78.56c2.15-.21,4.18-.39,6.14.15,2.6.71,4.84,1.98,6.84,3.61,2.65,2.15,4.82,4.7,7.48,6.86,2.14,1.74,4.66,2.71,7.47,3.18,1.32.22,2.64.42,3.99.32.41-.03.76.09,1.03.35.98.92,1.94,1.85,2.93,2.79-1.67.19-3.45.53-5.29.35-6.95-.69-12.14-3.89-16.23-8.72-2.05-2.42-4.66-4.23-8.01-5.1-.58-.15-1.21-.31-1.79-.25-.88.09-1.39-.3-1.86-.81-.84-.9-1.96-1.6-2.71-2.73"/>
      <path class="cls-8" d="M106.37,41.08c-1.06.85-2.04,1.62-2.99,2.41-.31.25-.61.33-1.03.26-2.99-.48-5.53.41-7.85,1.98-1.58,1.06-3.01,2.26-4.45,3.46-2.64,2.18-5.88,3.29-9.34,4.02-2.14.45-4.27.95-6.49,1.01-.23,0-.56.15-.69-.11-.13-.24.18-.38.34-.54.04-.04.1-.07.14-.11.79-.81,1.45-1.78,2.42-2.37.94-.57,2.29-.24,3.41-.53,3.06-.8,5.88-1.97,8.26-3.91,1.59-1.3,3.18-2.6,4.96-3.71,2.5-1.56,5.31-2.3,8.34-2.38,1.65-.04,3.32-.07,4.97.54"/>
      <path class="cls-13" d="M53.88,64.27c1.91.52,3.68.48,5.31.83,2.22.46,4.32,1.38,6.15,2.66,2.2,1.54,3.97,3.42,5.45,5.49,2.65,3.7,6.53,5.45,11.39,5.75.26.02.5,0,.69.21.84.9,1.7,1.79,2.69,2.84-1.88.05-3.51-.13-5.13-.34-2.81-.36-5.46-1.04-7.83-2.52-1.59-.99-2.58-2.38-3.74-3.67-1.42-1.58-2.59-3.35-4.33-4.69-1.65-1.28-3.69-1.99-5.76-2.59-.73-.21-1.27-.51-1.77-1.04-.91-.97-1.95-1.83-3.13-2.92"/>
      <path class="cls-41" d="M109.5,61.35c1.09-.44,2.07-.84,3.05-1.25,1.11-.47,2.23-.56,3.43-.29,3.98.9,7.83.62,11.61-.85,3.03-1.17,6.07-2.34,9.29-3.1,2.18-.52,4.39-.65,6.63-.48.81.06,1.12.44.94,1.14-.14.58-.05,1.28-.4,1.71-.44.54-1.23.01-1.86.01-3.01.02-5.89.54-8.63,1.66-3.46,1.42-7.11,2.34-10.83,3.01-2.09.37-4.24.43-6.37,0-2.27-.46-4.58-.74-6.86-1.59"/>
      <path class="cls-42" d="M75.61,50.85c-.72.93-1.59,1.74-2.51,2.52-2.68,2.26-5.54,4.31-8.75,5.96-3.09,1.58-6.42,1.87-9.89,1.44-2.08-.26-4.17-.4-6.09-1.29-.5-.23-.55-.45-.47-.85.36-1.81.51-1.92,2.42-1.56,2.33.44,4.63,1.08,7.07.85,3.03-.28,5.84-1.05,8.22-2.79,1.48-1.08,2.73-2.34,3.86-3.71,1.14-1.39,2.54-2.59,4.24-3.48.39.02.54.3.67.54.44.78,1.03,1.49,1.22,2.37"/>
      <path class="cls-8" d="M110.29,43.91c2.05-1.26,3.67-2.68,6.48-2.31,3.8.5,7.35-.46,10.45-2.52,1.76-1.16,3.52-2.33,5.26-3.5,2.33-1.57,4.94-2.53,7.82-2.98.49-.08.8.03.91.49.14.56.3,1.12.5,1.67.14.39-.18.43-.43.5-3.79,1.04-7.15,2.75-10.34,4.81-2.74,1.78-5.65,3.41-9.02,4.13-3.81.81-7.64.91-11.63-.3"/>
      <path class="cls-42" d="M121.96,70.38c4,1,7.45,2.96,10.85,4.96,3.12,1.84,6.51,3,10.21,3.5.81.11,1.06.32.88,1.07-.45,1.85-.54,1.93-2.6,1.57-4.4-.76-8.35-2.47-12.15-4.45-2.64-1.37-5.31-2.62-8.31-3.25-.33-.35-.08-.7,0-1.04.15-.57.3-1.15.49-1.71.1-.29.16-.62.62-.65"/>
      <path class="cls-42" d="M79.42,65.44c.98-.17,1.79-.23,2.54-.45,1-.3,1.87-.05,2.74.32,1.8.77,3.23,1.99,4.76,3.08,4.17,2.97,8.96,4.36,14.31,4.37.3,0,.56.03.8.2.87.65,1.75,1.29,2.73,2.01-1.61.42-3.13.53-4.68.47-3.34-.12-6.57-.69-9.64-1.88-2.61-1.01-5.03-2.28-7.15-3.98-1.93-1.55-4.06-2.87-6.41-4.15"/>
      <path class="cls-42" d="M116.79,39.82c-2.86.8-5.14,2.44-7.46,4.02-3.35,2.27-6.93,4.21-11.04,5.16-2.33.54-4.77.53-7.26.36,1.39-.75,2.04-2.3,4.17-2.29,3.12.02,5.9-1.04,8.25-2.89,1.73-1.36,3.42-2.78,5.17-4.12,1.34-1.03,3-1.57,4.61-2.17.96-.36,1.91-.76,2.97-.87.57.87.79,1.8.59,2.8"/>
      <path class="cls-42" d="M68.79,76.23c-4.4-.2-8.37-.94-11.77-3.23-1.1-.74-1.98-1.66-2.71-2.7-1.34-1.91-2.92-3.59-5.4-4.45-.67-.23-1.41-1.85-1.2-2.4.08-.2.23-.13.38-.13.22,0,.48.04.67-.04,1.77-.76,3.05.13,4.22,1.06,1.68,1.32,3.27,2.71,4.54,4.41,1.83,2.45,4.51,3.86,7.85,4.22.35.04.68.1.92.37.78.91,1.57,1.82,2.5,2.9"/>
      <path class="cls-42" d="M120.97,88.48c1.93.51,3.29,1.75,4.75,2.87,2.14,1.65,4.12,3.47,6.55,4.81,1.47.82,2.98,1.6,4.64,2.1.66.2.95.46.58,1.07-.15.24-.21.52-.31.79-.49,1.32-.51,1.36-1.93.82-4.25-1.6-8.18-3.64-11.37-6.65-1.28-1.21-2.73-2.26-4.25-3.23.26-.93.53-1.87,1.35-2.58"/>
      <path class="cls-42" d="M88.48,79.35c2.29,2.27,4.71,4.4,7.75,5.91,1.2.6,2.49,1.1,3.85,1.1,1.26,0,1.8.71,2.42,1.37.77.81,1.4,1.72,2.36,2.52-1.9.33-3.69.19-5.48-.2-3.79-.83-6.86-2.71-9.64-5.04-1.38-1.16-2.85-2.24-3.94-3.63.65-.92,1.55-1.59,2.67-2.03"/>
      <path class="cls-22" d="M64.54,64.28c.71-.42,1.4-.29,2.08-.1,2.01.56,4.06.93,6.14,1.18.42.05.79.24,1.12.45,2.3,1.51,4.93,2.33,7.69,2.88.28.05.61.1.86.02.89-.3,1.5.08,2.11.56.59.47,1.2.92,1.81,1.38.46.35.33.51-.21.65-1.25.31-2.52.23-3.76.15-4.11-.27-7.85-1.53-11.43-3.28-2.27-1.11-4.34-2.43-6.41-3.89"/>
      <path class="cls-42" d="M107.38,61.47c-4.81,1.74-9.74,2-14.78.96-.84-.17-1.7-.2-2.5-.53-.58-.24-.72-.44-.12-.79.48-.28.94-.57,1.42-.85.77-.45,1.45-.83,2.56-.52,3.98,1.12,7.7.07,11.35-1.32.17-.07.36-.1.54-.14.84.94,1.38,1.99,1.53,3.19"/>
      <path class="cls-42" d="M112.01,56.09c2.09-.71,4.27-.57,6.42-.49,2.54.1,5.07.38,7.49,1.15,1.01.32,2.02.62,3.03,1.26-1.68.55-3.21,1.15-4.81,1.53-.83.19-1.65-.42-2.54-.54-2.73-.35-5.44-.6-8.13.2-1.05-.83-1.37-1.93-1.45-3.11"/>
      <path class="cls-42" d="M82.67,58.6c-2.14-.07-4.27-.1-6.38.31-1.4.28-2.78.64-4.03,1.24-.84.4-1.6.34-2.38.12-.99-.28-1.93-.69-3.02-1.08,5.14-2.45,10.32-4.29,16.26-3.24.35.95.03,1.82-.45,2.66"/>
      <path class="cls-8" d="M69.35,50.65c-.86,1.02-1.61,1.95-2.53,2.76-.26.23-.54.26-.86.29-2.95.3-5.55,1.23-7.51,3.26-.21.21-.44.3-.74.31-1.52.06-3.03.04-4.69-.32,3.41-2.36,6.57-4.79,10.66-5.98,1.83-.53,3.68-.37,5.67-.33"/>
      <path class="cls-22" d="M129.9,73.12c2.56-1.1,5.23-1.38,7.88-1.44,2.04-.05,4.14.08,6.13.64.52.14.88.47.74,1.02-.05.22-.12.43-.16.65-.23,1.13-.25,1.18-1.48.96-1.86-.33-3.68-.05-5.51.12-.92.09-1.83.22-2.7.51-.53.18-.93-.16-1.3-.39-1.14-.71-2.23-1.49-3.6-2.07"/>
      <path class="cls-42" d="M129.4,61.92c1.58-.54,3.05-1,4.47-1.53.47-.18.88-.21,1.33-.05,2.53.9,5.09,1.73,7.76,2.28.52.11.61.29.47.69-.12.37-.22.76-.29,1.14-.22,1.24-.24,1.33-1.52,1.05-4.01-.87-7.99-1.8-11.75-3.36-.14-.06-.27-.13-.48-.23"/>
      <path class="cls-42" d="M81.94,77.62c-1.35-.82-2.61-1.77-4.25-2.18-1.24-.31-2.43-.47-3.63.03-.36.15-.54.04-.72-.16-.57-.63-1.13-1.27-1.7-1.91-.4-.44.17-.51.36-.54,2.17-.42,4.34-.9,6.58-.36,2.31.55,4.37,1.49,6.16,2.88.06.28-.11.5-.33.65-.82.54-1.44,1.31-2.47,1.6"/>
      <path class="cls-13" d="M126.68,91.41c1.09-.36,2.09-.31,3.05-.38,2.6-.2,5.15.25,7.7.67.58.1.84.33.69.86-.05.16.02.36-.05.5-.32.62.03,1.52-.59,1.88-.58.34-1.38-.2-2.11-.25-1.33-.09-2.65-.37-3.99-.15-.27.04-.55.05-.82-.12-1.39-.85-2.48-1.99-3.87-3.01"/>
      <path class="cls-30" d="M51.63,62.65c.6-.38,1.23-.86,1.95-1.19.84-.38,1.74.08,2.62.08.4,0,.84.15,1.23.05,1.75-.46,3.14.29,4.55.99.82.4,1.67.75,2.69,1.02-4.56,1.08-8.94,1.56-13.04-.94"/>
      <path class="cls-30" d="M129.31,41.8c.55-.33,1.02-.5,1.32-.8,1.65-1.62,3.57-1.5,5.68-.86,1.12.34,2.32.59,3.55.41.35-.05.47.08.41.38-.03.14-.03.28-.03.42-.11,2-.12,2.12-2.37,1.86-2.71-.32-5.43-.63-8.08-1.27-.11-.03-.22-.06-.47-.14"/>
      <path class="cls-42" d="M121.96,70.38c-.66,1.06-.72,2.27-1.12,3.4-.96-.11-1.92-.26-2.89-.31-1.04-.06-2.08-.03-3.11.15-.25-.24-.29-.55-.27-.85.07-.95.02-1.92.43-2.83,2.36-.29,4.67-.06,6.96.45"/>
      <path class="cls-42" d="M112.01,56.09c.48,1.04.74,2.15,1.45,3.11-2.11.58-3.92,1.78-6.08,2.28-.51-1.06-1.02-2.13-1.53-3.19,2.06-.72,3.96-1.78,6.16-2.19"/>
      <path class="cls-42" d="M120.97,88.48c-.46.85-.76,1.77-1.35,2.58-1.85-.84-3.8-1.37-5.86-1.61-.2-.99-.15-1.94.54-2.79,2.36.22,4.63.69,6.67,1.83"/>
      <path class="cls-30" d="M79.37,45.81c2.91-.76,5.84-.65,8.97-.16-1.24.85-2.35,1.63-3.47,2.39-.26.17-.55.19-.9.15-1.21-.14-2.42-.07-3.61.2-.87-.7-.97-1.63-.99-2.59"/>
      <path class="cls-42" d="M81.94,77.62c.88-.8,2.04-1.33,2.8-2.24,1.25,1.32,2.49,2.65,3.74,3.97-.89.68-1.78,1.35-2.67,2.03-.75-.45-1.18-1.15-1.77-1.73-.7-.68-1.4-1.35-2.11-2.03"/>
      <path class="cls-42" d="M79.37,45.81c.37.85.49,1.78.99,2.59-1.76.56-3.37,1.33-4.75,2.45-.63-.97-1.26-1.93-1.89-2.9,1.71-1.06,3.73-1.51,5.65-2.14"/>
      <path class="cls-5" d="M114.31,86.65c-.18.93-.36,1.86-.54,2.79-.98-.02-1.96-.1-2.93.18-.19.06-.45.06-.62-.12-1.01-1.04-2.33-1.81-3.36-3.03,2.58-.03,5.01-.14,7.45.17"/>
      <path class="cls-42" d="M116.79,39.82c-.2-.93-.39-1.87-.59-2.8,1.67-.42,3.37-.57,5.11-.47.39,1.03.64,2.07.27,3.15-1.59.15-3.2-.21-4.79.12"/>
      <path class="cls-30" d="M121.58,39.7c-.03-1.05-.34-2.09-.27-3.15,2.22.04,4.27.6,6.23,1.54-1.76,1.27-3.49,2.5-5.97,1.61"/>
      <path class="cls-3" d="M83.65,59.43c-3.7,1.92-7.42,2.06-11.5,1.28,3.77-1.45,7.42-2.11,11.5-1.28"/>
      <path class="cls-20" d="M51.67,53.85c1.03.03,1.99.31,2.94.64.49.17.49.34.07.62-.7.48-1.42.92-2.06,1.48-.52.47-1.28-.02-1.89-.11-1.88-.29-1.95-.61-.82-1.98.46-.56,1.04-.69,1.76-.65"/>
      <path class="cls-5" d="M115,69.92c-.05,1.23-.11,2.46-.17,3.69-1.49-.16-2.49-1.12-3.67-1.79-.47-.27-.86-.64-1.38-1.03,1.75-.51,3.49-.63,5.21-.87"/>
      <path class="cls-19" d="M82.65,68.15c-3.05.01-5.64-1.12-8.24-2.49,2.87-.56,5.61.25,8.24,2.49"/>
      <path class="cls-42" d="M82.67,58.6c.15-.89.3-1.77.45-2.66,1.31.23,2.61.5,3.86.93.17.06.33.15.58.27-.96.61-1.84,1.22-2.77,1.75-.76.43-1.45,0-2.12-.29"/>
      <path class="cls-1" d="M82.23,78.54c-3.1-.11-5.53-1.24-7.97-2.41,1.57-1.07,4.5-.19,7.97,2.41"/>
      <path class="cls-29" d="M52.95,61.18c-1.48,1.16-3.17,1.42-4.91,1.62-.34.04-.48-.13-.49-.38-.04-.86-.13-1.72.15-2.61,1.64.8,3.33,1.2,5.24,1.38"/>
      <path class="cls-32" d="M111.48,90.2c1.85-.7,6.9.43,8.48,1.85-1.48.35-6.46-.57-8.48-1.85"/>
      <path class="cls-32" d="M93.82,59.17c1.9-1.06,6.29-1.25,8.45-.35-3.41,1.08-5.67,1.17-8.45.35"/>
      <path class="cls-32" d="M92.96,82.63c2.47.04,5.86,1.49,7.47,3.19-3.04-.14-5.14-1.69-7.47-3.19"/>
      <path class="cls-37" d="M102.25,44.2c-1.79,1.41-4.84,2.31-7.38,2.19,2.12-1.61,4.49-2.33,7.38-2.19"/>
      <path class="cls-19" d="M103.33,72.27c-3.12.03-5.95-.7-8.84-1.67,1.85-.57,7.33.47,8.84,1.67"/>
      <path class="cls-9" d="M58.13,68.51c1.42.4,2.61.86,3.78,1.37.61.27.54.61.3,1.02-.24.41-.54.59-1.04.26-1.11-.73-2.33-1.37-3.03-2.66"/>
      <path class="cls-18" d="M115.43,74.11c2.6-.35,4.86-.02,7.2.64-2.5.77-4.72.16-7.2-.64"/>
      <path class="cls-16" d="M60.47,64.9c1.15-.2,2.01-.36,2.89-.48.48-.07.86.3.97.56.16.39,0,.87-.24,1.26-.08.13-.27.11-.42.01-.89-.56-1.93-.85-3.19-1.35"/>
      <path class="cls-11" d="M115.94,40.86c2.07-.82,4.19-.4,6.31-.29-2.08.54-4.18.66-6.31.29"/>
      <path class="cls-24" d="M61.67,56.59c-.46-.07-.9-.12-1.01-.48-.09-.31.3-.44.58-.57.42-.19.84-.38,1.26-.56.33-.14.66-.4.9.12.19.42.21.73-.34.93-.49.18-.97.39-1.39.57"/>
      <path class="cls-38" d="M65.36,72.45c-1.09-.04-2.07-.31-3.03-.72.08-.1.13-.16.18-.23.75-1.11.88-1.12,1.93-.13.33.32.8.55.92,1.08"/>
      <path class="cls-27" d="M77.87,50.29c1.17-.96,3.21-1.52,5.21-1.46-1.66.94-3.46,1.12-5.21,1.46"/>
      <path class="cls-23" d="M122.42,59.74c-2.14.18-4.11.14-6.04-.36,1.81-.34,3.59-.24,6.04.36"/>
      <path class="cls-39" d="M65.73,54.26c-.52.42-.97.84-1.58,1.09q-.33-.78,1.58-1.09"/>
      <path class="cls-28" d="M60.5,56.92c-.58.1-1.01.18-1.7.3.65-.33.9-1.07,1.7-.3"/>
      <line class="cls-46" x1="91.37" y1="41.26" x2="77.33" y2="11.49"/>
      <line class="cls-48" x1="88.92" y1="36.07" x2="77.33" y2="11.49"/>
      <polygon class="cls-44" points="92.03 33.31 91.37 41.26 84.82 36.72 92.03 33.31"/>
    </g>
    <text class="cls-45" transform="translate(7.52 8.41)"><tspan x="0" y="0">Twisted Pair of Cables</tspan></text>
  </g>
</svg>