<?xml version="1.0" encoding="UTF-8"?>
<svg id="Layer_2" data-name="Layer 2" xmlns="http://www.w3.org/2000/svg" xmlns:xlink="http://www.w3.org/1999/xlink" viewBox="0 0 149.79 158.78">
  <defs>
    <style>
      .cls-1 {
        fill: #312c15;
      }

      .cls-1, .cls-2, .cls-3, .cls-4, .cls-5, .cls-6, .cls-7, .cls-8, .cls-9, .cls-10, .cls-11, .cls-12, .cls-13, .cls-14, .cls-15, .cls-16, .cls-17, .cls-18, .cls-19, .cls-20, .cls-21, .cls-22, .cls-23, .cls-24, .cls-25, .cls-26, .cls-27, .cls-28, .cls-29, .cls-30, .cls-31, .cls-32, .cls-33, .cls-34, .cls-35, .cls-36, .cls-37, .cls-38, .cls-39, .cls-40, .cls-41, .cls-42, .cls-43, .cls-44, .cls-45, .cls-46, .cls-47, .cls-48, .cls-49, .cls-50, .cls-51, .cls-52, .cls-53, .cls-54, .cls-55, .cls-56, .cls-57, .cls-58, .cls-59, .cls-60, .cls-61, .cls-62 {
        fill-rule: evenodd;
      }

      .cls-2 {
        fill: #404341;
      }

      .cls-3 {
        fill: #cd635c;
      }

      .cls-4 {
        fill: #242330;
      }

      .cls-5 {
        fill: #252525;
      }

      .cls-6 {
        fill: #484048;
      }

      .cls-7 {
        fill: #263034;
      }

      .cls-8 {
        fill: #22221e;
      }

      .cls-63 {
        stroke: #ed1c24;
      }

      .cls-63, .cls-64 {
        stroke-width: 2px;
      }

      .cls-63, .cls-64, .cls-65, .cls-66 {
        fill: none;
      }

      .cls-63, .cls-66 {
        stroke-miterlimit: 10;
      }

      .cls-67, .cls-68 {
        fill: #231f20;
      }

      .cls-9 {
        fill: #4d4343;
      }

      .cls-10 {
        fill: #474042;
      }

      .cls-11 {
        fill: #232323;
      }

      .cls-64 {
        stroke: #7dc242;
        stroke-linecap: round;
        stroke-linejoin: round;
      }

      .cls-12 {
        fill: #212026;
      }

      .cls-13 {
        fill: #c56665;
      }

      .cls-14 {
        fill: #be1e2d;
      }

      .cls-15 {
        fill: #444141;
      }

      .cls-16 {
        fill: #636267;
      }

      .cls-17 {
        fill: #3e453e;
      }

      .cls-18 {
        fill: #3d4b4d;
      }

      .cls-19 {
        fill: #242424;
      }

      .cls-20 {
        fill: #3f4545;
      }

      .cls-21 {
        fill: #493f44;
      }

      .cls-22 {
        fill: #474241;
      }

      .cls-23 {
        fill: #262625;
      }

      .cls-24 {
        fill: #635523;
      }

      .cls-25 {
        fill: #666166;
      }

      .cls-26 {
        fill: #44433f;
      }

      .cls-27 {
        fill: #636363;
      }

      .cls-28 {
        fill: #416864;
      }

      .cls-29 {
        fill: #34363a;
      }

      .cls-30 {
        fill: #3b4c3b;
      }

      .cls-31 {
        fill: #424347;
      }

      .cls-32 {
        fill: #404541;
      }

      .cls-33 {
        fill: #60675a;
      }

      .cls-34 {
        fill: #7dc242;
      }

      .cls-35 {
        fill: #3b4a4b;
      }

      .cls-36 {
        fill: #394546;
      }

      .cls-37 {
        fill: #feed59;
      }

      .cls-38 {
        fill: #1e2028;
      }

      .cls-39 {
        fill: #1b322e;
      }

      .cls-40 {
        fill: #444245;
      }

      .cls-41 {
        fill: #272727;
      }

      .cls-42 {
        fill: #232527;
      }

      .cls-68 {
        font-family: BookmanOldStyle, 'Bookman Old Style';
        font-size: 12px;
      }

      .cls-43 {
        fill: #252424;
      }

      .cls-44 {
        fill: #483d40;
      }

      .cls-45 {
        fill: #4c3d42;
      }

      .cls-46 {
        fill: #212024;
      }

      .cls-47 {
        fill: #1c1f2e;
      }

      .cls-48 {
        fill: #222124;
      }

      .cls-49 {
        fill: #232222;
      }

      .cls-50 {
        fill: #212221;
      }

      .cls-66 {
        stroke: #231f20;
      }

      .cls-51 {
        fill: #222;
      }

      .cls-52 {
        fill: #262626;
      }

      .cls-53 {
        fill: #484045;
      }

      .cls-54 {
        fill: #213337;
      }

      .cls-55 {
        fill: #453e4b;
      }

      .cls-56 {
        fill: #232328;
      }

      .cls-57 {
        fill: #3f4541;
      }

      .cls-58 {
        fill: #2a232d;
      }

      .cls-59 {
        fill: #593d3a;
      }

      .cls-69 {
        clip-path: url(#clippath);
      }

      .cls-60 {
        fill: #393e3c;
      }

      .cls-61 {
        fill: #211f2a;
      }

      .cls-62 {
        fill: #434343;
      }
    </style>
    <clipPath id="clippath">
      <rect class="cls-65" width="149.79" height="158.78"/>
    </clipPath>
  </defs>
  <g id="Layer_1-2" data-name="Layer 1">
    <line class="cls-66" x1="117.8" y1="58.82" x2="36.82" y2="58.82"/>
    <polygon class="cls-67" points="37.84 55.33 31.8 58.82 37.84 62.31 37.84 55.33"/>
    <line class="cls-66" x1="31.8" y1="39.82" x2="112.78" y2="39.82"/>
    <polygon class="cls-67" points="111.76 43.31 117.8 39.82 111.76 36.33 111.76 43.31"/>
    <line class="cls-66" x1="117.8" y1="145.82" x2="36.82" y2="145.82"/>
    <polygon class="cls-67" points="37.84 142.33 31.8 145.82 37.84 149.31 37.84 142.33"/>
    <line class="cls-66" x1="31.8" y1="126.82" x2="112.78" y2="126.82"/>
    <polygon class="cls-67" points="111.76 130.31 117.8 126.82 111.76 123.33 111.76 130.31"/>
    <g class="cls-69">
      <path class="cls-50" d="M22.37,127.32c.38-.19.63-.49.67-.91.11-1.13.12-2.27,0-3.41-.02-.19-.08-.44-.24-.52-1.13-.52-.84-1.53-.85-2.43,0-.9,0-1.8.1-2.7.13-1.38-.4-2.2-1.5-2.55-.6,0-1.68.28-1.7-.22-.04-1.14-.76-2.06-.78-3.09-.09-3.71-.01-7.42,0-11.14-.02-3.48-.75-6.92-.48-10.41.05-.71-.03-1.42.02-2.13.05-.74-.33-.88-.94-.79-.33.33-.16.75-.16,1.12-.02,2.28,0,4.56,0,6.84,0,.31.1.66-.06.93-.77,1.33-.33,2.74-.36,4.12.01,3.87,0,7.73.06,11.6,0,.64-.38.75-.74,1-.32.42-.19.91-.22,1.37-.02.43-.2.67-.65.64-1.33-.07-2.68.18-4-.21-.1,0-.2-.01-.3-.03-.08-.01-.15-.04-.23-.08-.02-.03-.04-.05-.06-.08-.23-.34-.09-.77-.2-1.14-.01-.04-.03-.08-.04-.11-.2-.43-.45-.82-.8-.09,0,.07.02.13.03.2,0,.02,0,.04,0,.05.04.16.07.32.06.49,0-.17-.04-.33-.08-.48,0-.02-.01-.04-.02-.06,0-.03-.02-.07-.02-.1,0-.13,0-.27-.09-.38,0-.01-.03-.03-.04-.04,0,0-.01,0-.02-.02-.66.19-.34.75-.44,1.09-.14-.3.25-.93-.45-1h0s-.07,0-.12,0c-.04.06-.07.12-.1.18-.02.04-.03.08-.04.12-.01.04-.02.08-.03.13,0,.05-.02.1-.03.15-.04.35,0,.71-.03,1.07,0,.02,0,.04-.01.06h0c-.02.09-.07.15-.12.2-.12.09-.3.13-.42.22-.41.2-.84.09-1.26.11-.96.04-1.95-.16-2.85.35-.14.09-.28.17-.42.26-.33.3-.33.76-.5,1.13,0,.01,0,.03,0,.04.01.86.15,1.7.25,2.55.03.16.07.31.12.47h0s.01.06.02.08c0,0,0,0,0,.01.01.04.03.09.04.14.14.42.32.83.54,1.22-.1-.14-.23-.24-.46-.19-.14.03-.21.14-.25.26-.01.04-.02.06-.03.09h0s0,.01,0,.02c-.01.07-.02.14-.03.21-.06.46-.05.93-.03,1.4.02.23.07.46.19.67.02.02.04.04.06.06.04.03.07.07.1.11.29.38.34.88.6,1.27.02.03.04.06.06.09.01.02.02.03.04.05.79.82,1.76,1.13,2.88,1.08,2.36-.11,4.73.13,7.12-.14.12-.11.29-.08.49-.06-.16.02-.32.04-.49.06-.05.04-.09.1-.11.18.02.03.04.05.06.07,0,0,0,0,.01.01.33.37.79.33,1.22.35t0,0h0c.11,0,.21.02.31.04.02,0,.04,0,.06-.01.59-.1,1.25-.09,1.34-.93,0-.03-.01-.04-.02-.07h0s-.02-.05-.04-.07c-.04-.05-.09-.08-.16-.1-.47.14-.89-.09-1.32-.21-.55-.09-1.1-.06-1.66-.06-2.13,0-4.27,0-6.4,0-.43,0-.89.09-.85-.62.09-1.86.02-3.72.04-5.57,0-.71.28-1.13,1.04-1.13,3.6-.03,7.2-.03,10.79,0,.63,0,.95.32.94.95-.03,2.13.16,4.27-.12,6.4-.04.13-.05.24-.04.35,0,.02,0,.04.01.06.04.15.14.26.33.35-1.54.06-1.93.19-2.46.78,0,0,0,0,0,0,.03.03.05.05.07.07,0,0,0,0,0,0,.05.05.11.09.17.13.07.04.15.08.23.11.08.03.16.05.24.08.47.09.9.3,1.36.45.04,0,.07.02.1.02,0,0,.02,0,.03.01.06.02.11.04.14.07.07.06.06.13.03.21-.07.17-.27.35-.15.49,0,.91-.02,1.82-.06,2.72,0,.42.02.83.04,1.25.01.27-.04.5-.14.7-.01.19-.02.37-.04.55.05.08.08.15.1.22h0s0,.02.01.04h0s0,.02,0,.03c.07.31-.14.51-.41.69-.01.01-.03.02-.04.02-.02.01-.04.03-.07.04-.06.19-.03.34.06.46.04.06.09.12.15.17.07.07.15.13.22.2.13.12.26.24.36.38.05.05.09.11.13.17.09.13.15.28.18.46.07,3.71.03,7.42.03,11.12,0,1.55-.24,1.77-1.81,1.78-3.32.01-6.63.02-9.94,0-1.69,0-1.97-.3-1.98-2.04-.01-3.24,0-6.47,0-9.71,0-.51-.02-1.02.19-1.51.03-.04.06-.08.09-.11.07-.08.16-.15.24-.2.42-.26.95-.22,1.41-.34h0c.11-.01.21-.02.32-.03,2.02-.18,4.05-.01,6.07-.08.37-.01.77.03,1.13-.13.05-.02.11-.05.16-.09,0,0,0,0,0,0,.09-.06.17-.13.26-.23-.48-.5-1.04-.45-1.58-.46-1.74-.01-3.48,0-5.22-.02-.34,0-.82.2-.98-.35,0,0,0-.01,0-.02,0-.02-.01-.04-.02-.05h0c-.14-.39-.51-.36-.84-.44-.36-.08-.75-.27-.75-.65-.02-1.49-.3-2.99.09-4.46.02-.16.04-.32.07-.48h0s0,0,0,0c.05-.03.11-.06.16-.08.06-.13.09-.26.08-.41h0s-.02-.05-.03-.07c-.1-.2-.24-.35-.41-.49-.02-.01-.04-.03-.06-.04-.02-.01-.03-.02-.05-.04-.45-.11-.71-.54-1.17-.66-.02.02-.04.04-.06.06-.19.17-.4.26-.65.18-.05-.02-.11-.05-.16-.08-.13-.01-.25,0-.35.09,0,0-.01,0-.02.02-.02.02-.04.04-.06.06-.01.12-.02.24-.02.35-.02-.13-.05-.26-.07-.39-.05-.23-.15-.48-.45-.44-.06,0-.1.03-.14.06-.1.08-.14.21-.17.34h0s0,.03-.01.04c-.1.34-.08.7-.08,1.06,0,.2,0,.4,0,.6v.14c0,1.36,0,2.72.02,4.07v.06c0,.46.02.91.03,1.37v.04s0,.05,0,.08h0c.04.21.11.4.24.57.02.02.04.04.06.06.11.11.22.24.26.37,0,0,0,.02,0,.02.03.07.03.16,0,.25,0,0,0,.01,0,.02,0,.03-.02.06-.04.09-.09.17-.16.34-.21.51v.05c-.23.78-.12,1.54-.13,2.34-.06,4.61.08,9.22-.07,13.84.25.76.92.67,1.48.67,5.2.01,10.41.06,15.62-.02h.07s.09,0,.14,0c.38,0,.77.02,1.15-.02h0c.05,0,.1,0,.15,0,.16,0,.32-.04.46-.09.03-.01.06-.03.09-.04.06-.03.11-.06.17-.1.14-.14.23-.29.29-.45.16-.43.08-.9.08-1.35.04-5.33-.05-10.66.05-16,.05-.12.11-.24.16-.36.07-.06.12-.12.18-.19.18-.22.32-.46.41-.72,0,0,0,0,0,0,.1-.3.14-.62.13-.96-.01-.33-.02-.65-.03-.98v-.02c-.01-.31-.03-.62-.07-.93h0c-.03-.29-.06-.56-.12-.84-.14-.24-.42-.33-.6-.53-.08-.18-.16-.35-.23-.54h0c-.14-.39-.22-.75.05-1.06.11-.12.27-.24.52-.34M4.7,134.27c-.12-1.33.04-2.67.04-4.01.03,1.33-.06,2.67-.04,4.01M4.63,128.63c.08.52.11,1.04.11,1.56-.01-.52-.05-1.04-.11-1.56M3.06,127.5c.06.14.17.27.35.37.04-.02.08-.04.12-.07.01,0,.02-.01.03-.02.28-.17.55-.4.88.01,0,0,0,.02.01.02,0,.01,0,.02.01.03h0c.07.14.13.27.16.41,0,.02,0,.03,0,.04.02.09.02.19,0,.3-.01-.1-.02-.19-.04-.28,0,0,0-.01-.01-.02,0-.01-.01-.02-.02-.03-.09-.13-.18-.25-.29-.35-.04-.04-.08-.07-.12-.1t0,0s0,0,0,0t0,0s0,0,0,0c-.06-.05-.1-.08-.17-.11-.15-.03-.28,0-.39.09h-.01s-.05.05-.07.08c-.11-.04-.16.71-.32.02-.03-.13-.06-.27-.08-.4-.07-.15-.09-.31-.09-.48.03.16.06.32.09.48"/>
      <path class="cls-62" d="M2.4,152.01c.09.78.71.48,1.1.48,5.32.03,10.63.02,15.94.03.24,1.69,1.53,2.08,2.92,2.35.08.16.08.32,0,.48-.43.39-.96.27-1.46.26-.61,0-1.17.05-1.4.73-.16.43.07.81.15,1.21.07.36.29.73-.13,1.03-.57.27-1.17.07-1.75.08-3.62.04-7.23-.03-10.85.1-1.37.05-2.74.07-4.08-.32-.2-.03-.39-.1-.53-.26-.09-.18-.08-.35.04-.51.13-.18.37-.32.27-.6-.15-.38-.46-.16-.71-.18-.73-.7-.62-1.55-.41-2.41.07-.1.16-.15.28-.16.29,0,.47.75.82.17.13-.22.52-.77-.28-.75-.34.06-.56-.17-.81-.33-.08-.06-.13-.15-.17-.24.11-.21.22-.41.32-.62.25-.59.34-1.2.34-1.84-.02-4.93-.02-9.86,0-14.79,0-.59-.25-1.16-.04-1.75.08-.14.21-.21.38-.2.01.16.03.32.04.48.17.23.28.48.26.77-.42,5.32-.07,10.64-.19,15.96,0,.28.04.55-.08.82"/>
      <path class="cls-54" d="M7.35,114.77c-.57.36-1.22.26-1.84.24-.9-.02-1.79.05-2.68.23.73-.72,1.65-.45,2.47-.38,1.24.1,1.87-.23,1.66-1.57-.03-.21.08-.45.13-.67.29-.14.51-.12.54.27-.19.62.17,1.32-.29,1.89"/>
      <path class="cls-18" d="M2.34,158.02c-.96-.7-1.18-1.7-1.14-2.8.02-.43-.02-.86-.04-1.29.07-.25-.03-.55.21-.74l.09.05c.29.35.3.76.21,1.17.06.81-.19,1.68.48,2.37.27.26.56.51.48.95-.09.1-.18.2-.27.3"/>
      <path class="cls-60" d="M8.75,112.66c-.52.66.07,1.52-.42,2.27-.62-.71.08-1.64-.48-2.27-.07-.04-.1-.08-.08-.13.02-.05.04-.07.06-.07.32,0,.64,0,.95,0,.06.05.07.1.04.14-.03.04-.05.05-.07.05"/>
      <path class="cls-31" d="M8.75,112.66c.02-.06.03-.13.03-.19.08-.03.16-.07.24-.1.39.01.77.03,1.16.04.02.08.02.15,0,.23-.48.64.08,1.5-.44,2.14-.46-.49-.12-1.11-.25-1.66-.13-.53-.29-.53-.44,0-.08.08-.16.08-.24,0-.01-.15-.02-.3-.04-.45"/>
      <path class="cls-40" d="M7.83,112.46c0,.07.01.14.02.2,0,.7-.02,1.4-.03,2.1-.72-.55-.26-1.25-.24-1.89-.1-.2-.29-.23-.48-.26.19-.31.47-.19.73-.16"/>
      <path class="cls-30" d="M1.23,122.89s-.02-.02-.03-.03c0,0,0,0,0,0-.16-.17-.25-.35-.3-.54,0-.23,0-.46,0-.69.02-.15.06-.29.09-.44-.1-.09-.2-.19-.31-.28,0-.07.02-.13.02-.2.07,0,.14-.01.21-.02.53-.04.67.26.75.61,0,.05.02.11.03.17,0,.06.02.13.03.19-.03.46.11.99-.5,1.23"/>
      <path class="cls-27" d="M18.98,136.12c.34.32.22.74.22,1.12,0,3.59,0,7.19,0,10.78,0,1.66-.25,1.9-1.93,1.9-3.55,0-7.11,0-10.66,0-1.46,0-1.86-.37-1.86-1.78,0-3.67,0-7.34,0-11.02,0-.47-.06-.96.44-1.26.45.11.91.2,1.32.39.06.05.11.1.13.11-.05-.05-.06-.11-.04-.21.32-.33.52-.81,1.06-.84,2.09,0,4.17,0,6.26,0,.43,0,.87.05,1.28-.14.34-.08.68-.08,1.03-.05.19.02.37.07.53.16.49.51-.06.74-.42,1.21.93-.67,1.78-.66,2.64-.36"/>
      <path class="cls-62" d="M15.89,125.7h-.12s-.12,0-.12,0c-.24.15-.48.19-.72,0-2.96,0-5.92-.03-8.88,0-.68,0-.92-.09-.88-.88.09-2.01.06-4.02.02-6.04-.02-.88.31-1.18,1.17-1.18,3.79.03,7.58.02,11.37,0,.64,0,1.04.09,1.02.89-.04,2.13-.01,4.26-.01,6.39,0,.36.02.74-.48.8-.14.15-.32.22-.51.26-.38.05-.77.04-1.16.03-.27-.01-.5-.11-.71-.29"/>
      <path class="cls-48" d="M15.42,135.36c-2.69.02-5.38.05-8.07.07-.18.12-.34.1-.47-.07,1.07-.41,2.18-.13,3.27-.17,1.51-.05,3.03-.01,4.54-.25-2.28,0-4.56,0-6.84,0-.39,0-.83.08-1.1-.28-.48-.63.19-.34.38-.43.17-.18.38-.29.62-.29,2.65-.02,5.3-.17,7.95.08.77.62.25.98-.27,1.35"/>
      <path class="cls-8" d="M19.18,126.09c0,.33-.22.45-.57.37-.87-.2-1.68.08-2.47.41.01.04.02.07.04.09,0,0,0,0,0,0,.04.09.1.12.17.13.16.02.37-.09.5.02.56-.1,1,.16,1.43.48.03.06.04.12.03.18,0,.02-.01.04-.02.06,0,0,0,0,0,0-.02.04-.06.08-.12.11-.08.03-.17.05-.25.06-.04-.05-.09-.1-.13-.15h0c-.31,0-.62,0-.93.01-.24,0-.49,0-.73,0-3.06-.02-6.13-.03-9.19-.05h0c-.13-.07-.25-.18-.35-.36,0-.02-.02-.03-.03-.05,0,0,0-.01,0-.02.11-.39.34-.54.61-.58,0,0,0,0,.01,0,.09-.02.19-.02.29-.02.01,0,.02,0,.04,0,.13,0,.27,0,.39,0,.9-.02,1.8-.02,2.71-.02.94,0,1.88,0,2.83,0,.28,0,.58.04.86,0t0,0h0c.14-.02.27-.05.41-.11.32-.41,1.21-.09,1.19-.94h.05c.22,0,.44,0,.67,0,.39.29.79.19,1.18,0,.14,0,.28,0,.42,0h.07c.13.07.25.17.39.2.19.04.52-.24.51.19"/>
      <path class="cls-1" d="M17.72,133.72c-.02.08-.04.14-.07.21h0c-.09.21-.21.35-.37.45h0s0,0,0,0c-.08.04-.16.07-.26.08-.28.04-.63-.04-1.1-.21h0s-.01,0-.02,0c-2.89,0-5.79,0-8.68,0h-.1c-.19-.28-.47-.21-.75-.21-.64.01-1.09-.36-1.12-.94-.07-1.46-.03-2.92-.02-4.39,0-.3.2-.5.45-.65.03.03.06.06.09.09,0,0,0,0,0,0h0c-.03.16-.05.32-.07.48-.17,1.37-.04,2.75-.04,4.13,0,.83.6,1,1.31,1,3.59-.02,7.17-.02,10.76-.03"/>
      <path class="cls-57" d="M22.73,153.05c-.03,1.49.28,3.01-.43,4.43-.31.24-.62.48-.93.71-.14.11-.3.11-.46.07-.22-.55.37-.68.53-1.04.07-.08.14-.15.22-.21.32-.23.36-.57.36-.93,0-.28.07-.54.28-.75v-.47c-.21-.19-.31-.44-.36-.71.14-.67-.96-.9-.58-1.65.39-.4.22-.9.22-1.35.01-5.21,0-10.41.02-15.62,0-.44-.23-.96.27-1.31-.02,5.86-.02,11.73-.07,17.59,0,.74.66.79.94,1.22"/>
      <path class="cls-8" d="M5.45,127.11c-.65.18-.91-.27-1.19-.71-.19.22-.43.28-.71.24h-.47c-.38-.55-.46-1.11,0-1.66,1.46,1.24,3.23.94,4.93.95,2.15.01,4.29,0,6.6,0-.57.44-1.19,0-1.56.47-.49.46-1.1.33-1.67.35-1.98.07-3.98-.21-5.92.37"/>
      <path class="cls-46" d="M5.45,127.11c.46-.67,1.17-.7,1.86-.7,1.91-.02,3.82,0,5.73,0,.56.02,1.14-.09,1.66.24-.11.66-.64.46-1.04.47-1.97.02-3.95,0-5.92.01-.38,0-.8-.13-1.11.24-.17.29-.36.49-.71.24-.31,0-.47-.17-.47-.48"/>
      <path class="cls-26" d="M2.31,126.25c-.02.16-.05.32-.06.49-.03.42,0,.85,0,1.27,0,.13-.03.25-.11.36-.03.02-.06.05-.09.06-.01,0-.02.02-.04.02-.04.02-.08.05-.12.06h0c-.06.03-.13.05-.19.07h0c-.06.02-.13.03-.2.04h-.02s-.04,0-.05,0c-.43-.08-.46-.43-.42-.78,0-.09.01-.17.02-.26h0c.02-.24.04-.47-.06-.7-.01-.02-.02-.05-.04-.08,0-.05,0-.1-.01-.16.03-.41.05-.82.09-1.22,0-.27-.05-.54-.09-.81v-1.19c.05-.2.14-.39.29-.57t0-.02c.36-.34.17-.79.23-1.19.1-.09.16-.24.24-.34.1-.15.22-.24.46-.12,0,0,0,0,.01,0,.02.02.03.02.05.03s.02.02.05.03c.1.52-.12,1.08.13,1.58,0,0,0,0,0,.02,0,.23,0,.47,0,.71.02.07.05.15.06.23.2.83,0,1.65-.12,2.47"/>
      <path class="cls-42" d="M2.13,128.3c.13-1.58-.25-3.18.23-4.75.96.11.66.86.72,1.42,0,.55,0,1.11,0,1.66-.01.46.1.88.47,1.18-.11.4-.22.81-.35,1.28-.35-.93-.19-1.9-.84-2.69v7.57h-.11s-.11,0-.11,0h-.01c-.4-.43-.34-.97-.34-1.49-.04-1-.04-2,0-3,.01-.42.02-.85.34-1.19"/>
      <path class="cls-42" d="M2.4,152.01c0-5.85,0-11.7,0-17.55.94.04.8.68.51,1.15-.32.52-.31,1.04-.31,1.58,0,4.53,0,9.05,0,13.58,0,.42.15.87-.19,1.24"/>
      <path class="cls-12" d="M4.74,128.3c.43,1.42.23,2.88.19,4.32-.01.53-.13.97.36,1.34.52.39.04.55-.21.76-.32.27-.62.2-.74-.18-.13-.44-.33-.98-.19-1.36.52-1.34.53-2.64,0-3.95-.18-.44.42-.55.34-.93.08-.06.16-.06.24,0"/>
      <path class="cls-32" d="M22.06,154.16c.28.17.23.45.24.71-1.57.32-3.33-.9-2.85-2.36h1.19c.41.61.54,1.45,1.42,1.64"/>
      <path class="cls-1" d="M17.83,127.78l-.05.06c-.31,0-.62.01-.93.01-.24,0-.49,0-.73,0-3.06-.02-6.13-.03-9.19-.05h-.18c-.31,0-.58.1-.84.24-.05.02-.11.05-.16.08,0,0,0,0,0,0h0s-.06-.06-.09-.09c.08-.15.17-.3.25-.45.02,0,.03-.01.05-.02.2-.06.39-.13.58-.19.03-.01.05-.02.08-.03.35.38.81.22,1.22.22,2.91.01,5.81,0,8.72.01.42,0,.87-.11,1.25.2"/>
      <path class="cls-2" d="M1.89,116.67h.24c.17.86.27,1.72.23,2.6.13.14.12.29.08.45-.36.3-.52-.6-.91-.16-.33-.12-.38-.41-.46-.69.04-.51-.1-1.02.09-1.52.06-.42.55-.39.73-.68"/>
      <path class="cls-16" d="M18.98,136.12c-.91.15-1.9-.03-2.68.68-.12.11-.41.07-.51-.14-.11-.22.07-.36.23-.47.31-.22.78-.25.82-.75.46-.47.94-.18,1.42-.04.32.16.58.38.72.72"/>
      <path class="cls-1" d="M18.27,133.99s-.02,0-.04.01h0s-.07.03-.1.04c-.15-.03-.26-.11-.32-.25l-.05-.08c.16-.16.3-.33.39-.52.1-.2.16-.43.14-.7-.02-.42-.03-.83-.04-1.25-.01-.59-.01-1.17-.02-1.76v-.72c.11-.36-.12-.56-.33-.77-.04-.05-.09-.1-.13-.15h0s.05-.07.05-.07c.14.02.29.03.44.04h0c.06,0,.11,0,.16,0,.25.04.2.24.08.47.19,1.91.14,3.81-.24,5.69"/>
      <path class="cls-42" d="M2.35,119.74c0-.15.01-.31.02-.46.39.63.42,1.42.93,1.99.21.24.28.47.03.72-.13.13-.27.33-.49.19-.32-.21-.08-.49-.07-.74,0-.1-.08-.2-.19-.43-.36.67-.13,1.27-.21,1.84-.44-.51-.14-1.12-.24-1.67-.14-.13-.17-.3-.16-.48.07-.34.1-.69.37-.96"/>
      <path class="cls-10" d="M22.06,154.16c-1.37.23-1.34-.76-1.42-1.65.24,0,.47,0,.71,0,.01.34.2.56.5.7.47.22.44.55.22.94"/>
      <path class="cls-25" d="M6.88,135.36c.16.02.31.05.47.07.16.61-.45.64-.71.93-.53-.04-1.15.18-1.45-.52.41-.67,1.12-.32,1.68-.48"/>
      <path class="cls-39" d="M22.53,129.74c.5,1.36.2,2.75.17,4.13,0,.45-.51.38-.86.38,1.2-.88.58-2.15.66-3.26.03-.41-.17-.84.03-1.25"/>
      <path class="cls-7" d="M9.72,114.77c.2-.7-.44-1.58.44-2.14.03.71.05,1.41.08,2.12-.17,0-.35.01-.52.02"/>
      <path class="cls-56" d="M18.26,135.4c-.47.01-.94.02-1.42.04-.15-.02-.31-.04-.46-.06.47-.25.35-1.46,1.35-.82.02.05.04.1.06.15-.04.36.32.46.47.7"/>
      <path class="cls-15" d="M8.78,113.11h.24c.39.49.21,1,.11,1.66-.59-.56-.26-1.15-.35-1.66"/>
      <path class="cls-39" d="M21.88,127.12c-.03.78-.06,1.56-.1,2.34-.25-.79-.85-1.6.1-2.34"/>
      <path class="cls-56" d="M18.26,133.99c.31.03.56.17.4.5-.17.36-.52.4-.87.21h0c-.33-.56.19-.56.48-.71h0Z"/>
      <path class="cls-29" d="M7.58,112.87c.12.62-.23,1.31.24,1.89-.15.26-.31.25-.47.01.1-.63-.23-1.31.23-1.9"/>
      <path class="cls-8" d="M4.03,127.82c-.16,0-.32,0-.48,0,.15-.74.74-.49,1.13-.42.21.04-.16.25-.18.42-.16.13-.31.15-.47,0"/>
      <path class="cls-42" d="M3.55,126.64c.17-.28.45-.23.71-.24-.03.25.07.59-.3.66-.31.06-.38-.18-.41-.42"/>
      <path class="cls-38" d="M16.84,127.11c-.25.08-.5.17-.76.22-.14.02-.34-.05-.3-.24.02-.09.23-.14.35-.22.26.01.54-.04.71.24"/>
      <path class="cls-47" d="M4.03,127.82c.16,0,.31,0,.47,0,.3.05.6.1.24.48-.08,0-.16,0-.24,0-.31-.01-.47-.16-.47-.48"/>
      <path class="cls-61" d="M3.55,119.22c-.1.07-.19.18-.25.16-.07-.02-.17-.14-.18-.22-.01-.16.08-.3.26-.24.07.02.1.17.16.3"/>
      <path class="cls-4" d="M14.94,125.7c.24,0,.48,0,.72,0-.24.36-.48.72-.72,0"/>
      <path class="cls-58" d="M18.51,128.3c-.01-.19-.05-.37-.24-.47,0-.08,0-.16,0-.24.14,0,.38-.06.4,0,.12.26.1.53-.17.72"/>
      <path class="cls-20" d="M18.57,157.14H7.52c0-.08,0-.16,0-.24h11.05c0,.08,0,.16,0,.24"/>
      <path class="cls-18" d="M20.88,158.19c.16,0,.33,0,.49.01-.4.49-.96.51-1.51.51-5.25,0-10.5,0-15.76,0-.57,0-1.1-.09-1.53-.5.69-.45,1.24.23,1.87.23,4.91,0,9.82,0,14.73-.02.17,0,.34-.15.51-.23.25-.25.55-.29.88-.21.12.04.22.11.31.2"/>
      <path class="cls-57" d="M20.64,158.19c-.32,0-.63,0-.95,0-.41-.59-.7-1.2-.24-1.89.36-.36.78-.59,1.27-.69,1.18.14,1.24.22.94,1.23-.25.18-.55.21-.84.23-.98.22.13.79-.19,1.12"/>
      <path class="cls-17" d="M2.13,153.69c.31-.12.36-.81.75-.55.41.28.23.87.12,1.3-.08.35-.19.86-.69.8-.45-.05-.42-.49-.42-.85-.24-.34-.08-.55.24-.71"/>
      <path class="cls-52" d="M17.52,155.14c0,.5-.31.67-.75.68-.43.01-.83-.09-.83-.59,0-.48.35-.76.82-.82.51-.06.63.35.75.72"/>
      <path class="cls-5" d="M7.77,155.09c-.14.53-.38.78-.87.73-.4-.04-.72-.18-.69-.63.04-.44.34-.74.78-.75.46-.02.65.35.78.66"/>
      <path class="cls-53" d="M20.64,155.82c-.37.21-.69.57-1.19.48-.18-.04-.46-.03-.53-.14-.17-.26.13-.24.28-.34.96-.66,2.05-.46,3.1-.47v.95c-.57-.08-.91-1-1.66-.47"/>
      <path class="cls-23" d="M12.57,155.07c-.04.5-.26.73-.68.74-.48,0-.73-.25-.72-.73,0-.42.25-.65.67-.66.49-.01.7.27.73.65"/>
      <path class="cls-44" d="M2.61,157.72c-.26-.27-.57-.5-.48-.95.13-.67.46-.41.69-.11.3.39.55.85-.21,1.06"/>
      <path class="cls-6" d="M2.13,153.69c-.08.24-.16.47-.24.71-.08,0-.16,0-.24,0-.39-.34-.19-.77-.21-1.18.34-.01.56.17.69.46"/>
      <path class="cls-35" d="M2.13,132.56c0,.47,0,.94.01,1.42-.65,0-.91-.49-1.2-.95.01-.15.03-.31.04-.46.22-.22.51-.04.74-.14.15-.02.29.01.4.14"/>
      <path class="cls-28" d="M1.16,117.36c0,.56,0,1.12.01,1.67-.06.08-.13.09-.2.02-.03-.48-.05-.96-.07-1.43.09-.09.18-.17.26-.26"/>
      <path class="cls-13" d="M1.08,127.48s-.04.07-.07.1h0s-.05.05-.09.06c0,.02-.02.02-.04.02,0-.03.02-.06.04-.09.01-.23.01-.46.03-.69-.02-.02-.02-.05-.04-.08,0-.05,0-.1-.02-.16l.06.02c.16.24.24.51.12.8"/>
      <path class="cls-13" d="M1.25,131.4h0c0,.07-.02.12-.02.19,0,.09-.02.17-.03.26-.01.07-.03.15-.05.22-.02.06-.05.12-.1.17-.01.02-.03.04-.06.05,0,0,0,0-.01.02,0-.71-.02-1.4-.02-2.1,0-.02-.01-.02-.01-.04,0,0,.01.02.01.02.04.02.07.03.1.06.02.05.05.1.07.16h0c.06.17.1.34.12.5.02.17.02.34,0,.5"/>
      <path class="cls-24" d="M.99,125.43c-.09-.08-.18-.15-.26-.23-.01-.07,0-.14.02-.21.13-.04.2-.11.16-.25v-.12c0-.4,0-.79,0-1.19,0-.37,0-.74,0-1.12,0-.23,0-.46,0-.69v-.44h.09c.4.51.1,1.11.21,1.66,0,0,0,.01,0,.01-.13.85.23,1.75-.22,2.57"/>
      <path class="cls-9" d="M1.66,132.56c-.22.28-.45-.07-.68,0-.04-.07-.07-.14-.08-.22l.07-.05c.15-.19.08-.62.53-.47.24.2.39.43.15.73"/>
      <path class="cls-36" d="M2.14,120.71c0,.16,0,.31,0,.47l-.71.47c.01-.42-.07-.78-.51-.96.03-.31.06-.61.09-.92.37-.08.5.5.91.34.33.11.41.3.23.6"/>
      <path class="cls-30" d="M1.66,120.23c-.52.28-.39-.38-.66-.45-.01-.24-.02-.48-.03-.72.07,0,.13-.01.2-.02.16.16.32.32.48.48.21.23.19.47.01.71"/>
      <path class="cls-34" d="M.75,124.99c-.19-.03-.45-.09-.45-.3-.01-1.1-.31-2.22.17-3.29.14-.07.29-.15.43-.22v.44c0,.23,0,.46,0,.69,0,.37,0,.74,0,1.12,0,.4,0,.79,0,1.19v.12c.05.15-.03.22-.16.25"/>
      <path class="cls-11" d="M11.98,140.16c-1.5,0-3,0-4.5,0-.34,0-.77.07-.77-.47,0-.54.43-.47.77-.47,3,0,6,0,9,0,.34,0,.77-.07.77.47,0,.54-.43.46-.77.47-1.5,0-3,0-4.5,0"/>
      <path class="cls-41" d="M11.98,148.49c-1.5,0-3,0-4.5,0-.3,0-.71.08-.76-.35-.05-.47.32-.59.7-.59,3.04,0,6.08,0,9.12,0,.39,0,.75.13.7.6-.05.44-.46.35-.76.35-1.5,0-3,0-4.5,0"/>
      <path class="cls-41" d="M12.02,145.59c1.46,0,2.92,0,4.38,0,.32,0,.81-.14.83.39.02.55-.46.55-.86.55-2.96,0-5.92,0-8.88,0-.37,0-.77-.04-.77-.52,0-.55.47-.42.8-.42,1.5-.01,3,0,4.5,0"/>
      <path class="cls-5" d="M12.03,143.46c1.46,0,2.92,0,4.38,0,.32,0,.8-.15.82.4.02.47-.37.54-.75.54H7.48c-.38,0-.77-.06-.76-.53.01-.56.49-.41.81-.41,1.5-.01,3,0,4.5,0"/>
      <path class="cls-43" d="M12.09,141.34c1.46,0,2.93,0,4.39,0,.34,0,.77-.07.78.47,0,.54-.43.47-.77.47-2.97,0-5.93,0-8.9,0-.38,0-.77-.02-.78-.5-.01-.55.46-.44.78-.45,1.5-.01,3,0,4.51,0"/>
      <path class="cls-5" d="M11.99,138.04c-1.5,0-2.99,0-4.49,0-.28,0-.72.13-.74-.34-.01-.4.26-.61.7-.61,3.03,0,6.06,0,9.09,0,.34,0,.67.08.68.49.02.56-.43.45-.76.46-1.5.01-2.99,0-4.49,0"/>
      <path class="cls-50" d="M18.27,133.99c-.14.25-.51.34-.48.71-.88-.65-.82.69-1.41.67-.32,0-.64,0-.96,0,.06-.42.62-.63.47-1.14.67-.04,1.37.1,1.92-.44.15.07.3.13.45.2"/>
      <path class="cls-33" d="M6.64,136.36c.21.03.51-.08.58.2.07.27-.21.26-.38.26-.4,0-.25-.25-.19-.46"/>
      <path class="cls-51" d="M11.86,119.28c1.46,0,2.92,0,4.38,0,.38,0,.91-.1.95.43.04.57-.49.51-.87.51-2.96,0-5.92,0-8.88,0-.35,0-.77.05-.76-.49.02-.53.46-.45.79-.45,1.46,0,2.92,0,4.38,0"/>
      <path class="cls-19" d="M12,123.54c1.5,0,2.99,0,4.49,0,.27,0,.73-.15.71.35-.01.4-.31.59-.74.59-2.99,0-5.98,0-8.97,0-.37,0-.77-.07-.77-.53,0-.55.48-.41.8-.41,1.49-.02,2.99,0,4.49,0"/>
      <path class="cls-49" d="M11.92,121.41c1.46,0,2.92,0,4.38,0,.35,0,.77-.03.74.51-.02.45-.38.43-.7.43-2.92,0-5.85,0-8.77,0-.4,0-.88-.01-.87-.55,0-.54.51-.38.82-.39,1.46-.02,2.92,0,4.38,0"/>
      <path class="cls-50" d="M17.79,125.7c-.39.36-.78.7-1.18,0,.39,0,.78,0,1.18,0"/>
      <path class="cls-34" d="M18.29,132.5c.01.27-.04.5-.14.7-.09.19-.23.35-.39.52h-.03c-3.58,0-7.17,0-10.76.02-.72,0-1.31-.17-1.31-1,0-1.38-.13-2.76.04-4.13.02-.16.04-.32.07-.48h0s0,0,0,0c.05-.03.11-.06.16-.08.26-.13.52-.24.83-.24h.18c3.06.02,6.12.04,9.19.05.24,0,.49,0,.73,0,.31,0,.62,0,.92-.01h0c.04.05.08.1.13.15.2.21.43.41.33.77v.72c.01.59.01,1.17.02,1.76,0,.42.02.83.04,1.25"/>
      <polyline class="cls-37" points="5.76 128.12 5.76 128.13 5.77 128.13 5.76 128.12"/>
      <path class="cls-62" d="M20.64,155.82c.78-.62,1.21-.06,1.66.47.02.41-.04.77-.48.95-.14-.13-.26-.27-.24-.47.32-.96-.32-.95-.95-.95"/>
      <path class="cls-45" d="M21.59,156.77c.19.1.23.28.23.47-.08,0-.15,0-.23,0-.27.33-.51.82-1.03.46-.41-.29-.38-.66.08-.93.32,0,.63,0,.95,0"/>
      <path class="cls-62" d="M20.64,156.77c-.13.28-.34.58.04.81.42.25.59-.26.91-.33.05.53-.48.63-.71.94h-.24c-.15-.47-1.49-.95,0-1.42"/>
      <path class="cls-22" d="M1.66,132.56c-.08-.24-.16-.47-.24-.71-.74-.79-.1-1.67-.18-2.5.21-.36.41-.72.66-1.05.08,0,.16,0,.24,0,0,1.42,0,2.85,0,4.27h-.47Z"/>
      <path class="cls-14" d="M.97,132.3s-.05.04-.07.06c-.56,0-.89-.22-.89-.83,0-1.36,0-2.72-.02-4.08,0-.62.35-.82.9-.79,0,.05.01.11.01.16.02.03.02.05.04.08-.01.23-.01.46-.03.69-.01.03-.03.05-.04.09.02,0,.03,0,.04-.02,0,.84.02,1.69.02,2.54,0,0,0,0-.02-.02,0,.02,0,.02.02.04,0,.7.01,1.39.02,2.1"/>
      <path class="cls-59" d="M1.24,130.9c-.02.17-.02.34,0,.5h0c.02.14.07.27.15.41,0,0,0,.02,0,.02,0,0,.02.02.02.02-.12.12-.25.25-.38.38-.02.02-.05.05-.07.07h0c0-.71-.01-1.41-.02-2.1,0-.02-.02-.02-.02-.04,0,0,.02.02.02.02,0-.85-.02-1.7-.02-2.54,0,.02-.02.02-.04.02,0-.03.02-.06.04-.09.01-.23.01-.46.03-.69,0-.07,0-.14,0-.21.45.18.51.5.34.92-.13.32-.21.66.11.93.03.03.05.07.08.1.03.05.05.11.07.16.02.15-.02.31-.14.46.15.55-.11,1.1-.18,1.65"/>
      <path class="cls-55" d="M1.42,129.25c0-.24,0-.48,0-.72.11-.19.29-.23.49-.23-.04.38.16.87-.48.95"/>
      <path class="cls-21" d="M1.66,120.23c0-.24,0-.47-.01-.71.06-.27-.12-.61.23-.83.47.21.05.83.46,1.05,0,.34.12.7-.21.97-.01-.3-.16-.47-.47-.48"/>
      <path class="cls-3" d="M.93,127.58v.06s-.02.02-.04.02c0-.03.02-.06.04-.09"/>
      <path class="cls-3" d="M.95,130.18v.02s-.02-.02-.02-.04c0,0,.02.02.02.02"/>
      <path class="cls-50" d="M22.37,40.32c.38-.19.63-.49.67-.91.11-1.13.12-2.27,0-3.41-.02-.2-.08-.44-.24-.52-1.13-.52-.84-1.53-.85-2.43,0-.9,0-1.8.1-2.7.13-1.38-.4-2.2-1.5-2.55-.6,0-1.68.28-1.7-.22-.04-1.14-.76-2.06-.78-3.09-.09-3.71-.01-7.42,0-11.14-.02-3.48-.75-6.92-.48-10.41.05-.71-.03-1.42.02-2.13.05-.74-.33-.88-.94-.79-.33.33-.16.75-.16,1.12-.02,2.28,0,4.56,0,6.84,0,.31.1.67-.06.93-.77,1.33-.33,2.74-.36,4.12.01,3.87,0,7.73.06,11.6,0,.64-.38.75-.74,1-.32.42-.19.91-.22,1.37-.02.42-.2.67-.65.64-1.33-.07-2.68.18-4-.21-.1,0-.2-.01-.3-.03-.08-.01-.15-.04-.23-.08-.02-.03-.04-.05-.06-.08-.23-.34-.09-.77-.2-1.14-.01-.04-.03-.08-.04-.11-.2-.43-.45-.82-.8-.09,0,.07.02.13.03.2,0,.02,0,.04,0,.05.04.16.07.32.06.49,0-.17-.04-.33-.08-.48,0-.02-.01-.04-.02-.06,0-.03-.02-.07-.02-.1,0-.13,0-.27-.09-.38,0-.01-.03-.03-.04-.04,0,0-.01,0-.02-.01-.66.19-.34.75-.44,1.09-.14-.3.25-.93-.45-1h0s-.07,0-.12,0c-.04.06-.07.12-.1.18-.02.04-.03.08-.04.12-.01.04-.02.08-.03.13,0,.05-.02.1-.03.15-.04.35,0,.72-.03,1.07,0,.02,0,.04-.01.06h0c-.02.09-.07.15-.12.2-.12.09-.3.13-.42.22-.41.2-.84.09-1.26.11-.96.04-1.95-.16-2.85.35-.14.09-.28.17-.42.26-.33.3-.33.76-.5,1.13,0,.01,0,.03,0,.04.01.86.15,1.7.25,2.55.03.16.07.31.12.47h0s.01.06.02.08c0,0,0,0,0,.01.01.04.03.09.04.14.14.42.32.83.54,1.22-.1-.14-.23-.24-.46-.19-.14.03-.21.14-.25.26-.01.04-.02.06-.03.09h0s0,.01,0,.02c-.01.07-.02.14-.03.21-.06.46-.05.93-.03,1.4.02.24.07.46.19.67.02.02.04.04.06.06.04.03.07.07.1.11.29.38.34.88.6,1.27.02.03.04.06.06.09.01.02.02.03.04.05.79.82,1.76,1.13,2.88,1.08,2.36-.11,4.73.13,7.12-.14.12-.11.29-.08.49-.06-.16.02-.32.04-.49.06-.05.04-.09.1-.11.18.02.03.04.05.06.07,0,0,0,0,.01.01.33.37.79.33,1.22.35t0,0h0c.11,0,.21.02.31.04.02,0,.04,0,.06-.01.59-.1,1.25-.09,1.34-.93,0-.03-.01-.04-.02-.07h0s-.02-.05-.04-.07c-.04-.05-.09-.08-.16-.1-.47.14-.89-.09-1.32-.21-.55-.09-1.1-.06-1.66-.06-2.13,0-4.27,0-6.4,0-.43,0-.89.09-.85-.62.09-1.86.02-3.72.04-5.57,0-.71.28-1.13,1.04-1.13,3.6-.03,7.2-.03,10.79,0,.63,0,.95.32.94.95-.03,2.13.16,4.27-.12,6.4-.04.13-.05.24-.04.35,0,.02,0,.04.01.06.04.14.14.26.33.35-1.54.06-1.93.19-2.46.78,0,0,0,0,0,0,.03.03.05.05.07.07,0,0,0,0,0,0,.05.05.11.09.17.13.07.04.15.08.23.11.08.03.16.05.24.08.47.09.9.3,1.36.45.04,0,.07.02.1.02,0,0,.02,0,.03.01.06.02.11.04.14.07.07.06.06.13.03.21-.07.17-.27.35-.15.49,0,.91-.02,1.82-.06,2.72,0,.42.02.83.04,1.25.01.27-.04.5-.14.7-.01.19-.02.37-.04.55.05.08.08.15.1.22h0s0,.02.01.04h0s0,.02,0,.03c.07.31-.14.51-.41.68-.01.01-.03.02-.04.03-.02.01-.04.03-.07.04-.06.19-.03.34.06.46.04.06.09.11.15.17.07.07.15.13.22.2.13.12.26.24.36.38.05.05.09.11.13.17.09.13.15.28.18.46.07,3.71.03,7.41.03,11.12,0,1.55-.24,1.77-1.81,1.78-3.32.01-6.63.02-9.94,0-1.69-.01-1.97-.3-1.98-2.04-.01-3.24,0-6.47,0-9.71,0-.51-.02-1.03.19-1.51.03-.04.06-.08.09-.11.07-.08.16-.15.24-.2.42-.26.95-.22,1.41-.34h0c.11-.01.21-.02.32-.03,2.02-.18,4.05-.01,6.07-.08.37-.01.77.03,1.13-.13.05-.02.11-.05.16-.09,0,0,0,0,0,0,.09-.06.17-.13.26-.22-.48-.5-1.04-.45-1.58-.46-1.74-.01-3.48,0-5.22-.02-.34,0-.82.2-.98-.35,0,0,0-.01,0-.02,0-.02-.01-.04-.02-.05h0c-.14-.39-.51-.36-.84-.44-.36-.08-.75-.27-.75-.65-.02-1.49-.3-2.99.09-4.46.02-.16.04-.32.07-.48h0s0,0,0,0c.05-.03.11-.06.16-.08.06-.13.09-.26.08-.41h0s-.02-.05-.03-.07c-.1-.2-.24-.35-.41-.49-.02-.01-.04-.03-.06-.04-.02-.01-.03-.02-.05-.04-.45-.11-.71-.54-1.17-.66-.02.02-.04.04-.06.06-.19.18-.4.27-.65.18-.05-.02-.11-.05-.16-.08-.13-.01-.25,0-.35.09,0,0-.01,0-.02.02-.02.02-.04.04-.06.06-.01.12-.02.24-.02.35-.02-.13-.05-.26-.07-.39-.05-.23-.15-.48-.45-.44-.06,0-.1.03-.14.06-.1.08-.14.21-.17.34h0s0,.03-.01.04c-.1.35-.08.7-.08,1.06,0,.2,0,.4,0,.6v.14c0,1.36,0,2.72.02,4.07v.06c0,.46.02.91.03,1.37v.05s0,.05,0,.08h0c.04.22.11.41.24.57.02.02.04.04.06.06.11.11.22.24.26.37,0,0,0,.02,0,.03.03.07.03.16,0,.25,0,0,0,.01,0,.02,0,.03-.02.06-.04.1-.09.17-.16.34-.21.51v.05c-.23.78-.12,1.54-.13,2.34-.06,4.61.08,9.23-.07,13.84.25.76.92.67,1.48.67,5.2.01,10.41.06,15.62-.02h.07s.09,0,.14,0c.38,0,.77.02,1.15-.02h0c.05,0,.1,0,.15,0,.16,0,.32-.04.46-.09.03-.01.06-.03.09-.04.06-.02.11-.06.17-.1.14-.14.23-.29.29-.45.16-.42.08-.9.08-1.35.04-5.33-.05-10.66.05-16,.05-.12.11-.24.16-.36.07-.06.12-.12.18-.19.18-.22.32-.46.41-.72,0,0,0,0,0-.01.1-.29.14-.62.13-.96-.01-.33-.02-.65-.03-.98v-.02c-.01-.31-.03-.62-.07-.93h0c-.03-.29-.06-.56-.12-.84-.14-.24-.42-.33-.6-.53-.08-.18-.16-.35-.23-.54h0c-.14-.39-.22-.75.05-1.06.11-.12.27-.24.52-.34M4.7,47.27c-.12-1.33.04-2.67.04-4.01.03,1.33-.06,2.67-.04,4.01M4.63,41.63c.08.52.11,1.04.11,1.56-.01-.52-.05-1.04-.11-1.56M3.06,40.5c.06.14.17.27.35.37.04-.02.08-.04.12-.07.01,0,.02-.01.03-.02.28-.17.55-.4.88.01,0,0,0,.02.01.02,0,.01,0,.02.01.03h0c.07.13.13.27.16.41,0,.01,0,.03,0,.04.02.09.02.19,0,.3-.01-.1-.02-.19-.04-.28,0,0,0-.01-.01-.02,0-.01-.01-.02-.02-.03-.09-.13-.18-.25-.29-.35-.04-.04-.08-.07-.12-.1t0,0s0,0,0,0t0,0s0,0,0,0c-.06-.04-.1-.08-.17-.11-.15-.03-.28,0-.39.09h-.01s-.05.05-.07.08c-.11-.04-.16.71-.32.02-.03-.13-.06-.27-.08-.4-.07-.15-.09-.31-.09-.48.03.16.06.32.09.48"/>
      <path class="cls-62" d="M2.4,65.01c.09.78.71.48,1.1.48,5.32.03,10.63.02,15.94.03.24,1.69,1.53,2.08,2.92,2.36.08.16.08.32,0,.48-.43.4-.96.27-1.46.27-.61,0-1.17.05-1.4.73-.16.43.07.81.15,1.21.07.36.29.73-.13,1.03-.57.27-1.17.07-1.75.08-3.62.04-7.23-.03-10.85.1-1.37.05-2.74.08-4.08-.32-.2-.03-.39-.09-.53-.26-.09-.18-.08-.35.04-.51.13-.18.37-.32.27-.6-.15-.38-.46-.16-.71-.18-.73-.7-.62-1.55-.41-2.41.07-.1.16-.15.28-.16.29,0,.47.75.82.17.13-.22.52-.77-.28-.75-.34.06-.56-.17-.81-.33-.08-.07-.13-.15-.17-.24.11-.21.22-.41.32-.62.25-.59.34-1.19.34-1.84-.02-4.93-.02-9.86,0-14.79,0-.59-.25-1.16-.04-1.75.08-.14.21-.21.38-.2.01.16.03.32.04.48.17.23.28.48.26.77-.42,5.32-.07,10.64-.19,15.96,0,.28.04.55-.08.82"/>
      <path class="cls-54" d="M7.35,27.77c-.57.36-1.22.26-1.84.24-.9-.02-1.79.05-2.68.23.73-.72,1.65-.45,2.47-.38,1.24.1,1.87-.23,1.66-1.57-.03-.21.08-.45.13-.67.29-.14.51-.12.54.27-.19.62.17,1.32-.29,1.89"/>
      <path class="cls-18" d="M2.34,71.02c-.96-.7-1.18-1.69-1.14-2.8.02-.43-.02-.86-.04-1.29.07-.25-.03-.55.21-.74l.09.05c.29.35.3.76.21,1.17.06.81-.19,1.68.48,2.37.27.26.56.51.48.95-.09.1-.18.2-.27.3"/>
      <path class="cls-60" d="M8.75,25.66c-.52.66.07,1.52-.42,2.27-.62-.71.08-1.64-.48-2.27-.07-.04-.1-.08-.08-.13.02-.05.04-.08.06-.08.32,0,.64,0,.95,0,.06.05.07.1.04.14-.03.04-.05.05-.07.05"/>
      <path class="cls-31" d="M8.75,25.66c.02-.06.03-.13.03-.19.08-.03.16-.07.24-.1.39.01.77.03,1.16.04.02.08.02.15,0,.23-.48.64.08,1.5-.44,2.14-.46-.49-.12-1.11-.25-1.66-.13-.53-.29-.53-.44,0-.08.08-.16.08-.24,0-.01-.15-.02-.3-.04-.45"/>
      <path class="cls-40" d="M7.83,25.46c0,.07.01.14.02.2,0,.7-.02,1.4-.03,2.1-.72-.55-.26-1.25-.24-1.89-.1-.2-.29-.23-.48-.26.19-.31.47-.19.73-.16"/>
      <path class="cls-30" d="M1.23,35.89s-.02-.02-.03-.03c0,0,0,0,0,0-.16-.17-.25-.35-.3-.54,0-.23,0-.46,0-.69.02-.15.06-.29.09-.44-.1-.09-.2-.19-.31-.28,0-.07.02-.13.02-.2.07,0,.14-.01.21-.02.53-.04.67.26.75.61,0,.05.02.11.03.17,0,.06.02.13.03.19-.03.46.11.99-.5,1.23"/>
      <path class="cls-27" d="M18.98,49.12c.34.32.22.74.22,1.12,0,3.59,0,7.19,0,10.78,0,1.66-.25,1.9-1.93,1.9-3.55,0-7.11,0-10.66,0-1.46,0-1.86-.37-1.86-1.78,0-3.67,0-7.34,0-11.02,0-.47-.06-.97.44-1.27.45.11.91.2,1.32.39.06.05.11.09.13.11-.05-.05-.06-.11-.04-.21.32-.33.52-.81,1.06-.84,2.09,0,4.17,0,6.26,0,.43,0,.87.05,1.28-.14.34-.08.68-.08,1.03-.05.19.02.37.07.53.16.49.51-.06.74-.42,1.21.93-.67,1.78-.66,2.64-.36"/>
      <path class="cls-62" d="M15.89,38.7h-.12s-.12,0-.12,0c-.24.15-.48.19-.72,0-2.96,0-5.92-.03-8.88,0-.68,0-.92-.09-.88-.88.09-2.01.06-4.03.02-6.04-.02-.88.31-1.18,1.17-1.18,3.79.03,7.58.02,11.37,0,.64,0,1.04.09,1.02.89-.04,2.13-.01,4.26-.01,6.39,0,.36.02.74-.48.8-.14.15-.32.22-.51.26-.38.05-.77.04-1.16.03-.27-.01-.5-.11-.71-.29"/>
      <path class="cls-48" d="M15.42,48.36c-2.69.02-5.38.05-8.07.07-.18.12-.34.1-.47-.07,1.07-.41,2.18-.14,3.27-.17,1.51-.05,3.03-.01,4.54-.25-2.28,0-4.56,0-6.84,0-.39,0-.83.08-1.1-.28-.48-.63.19-.34.38-.43.17-.18.38-.29.62-.29,2.65-.02,5.3-.17,7.95.08.77.62.25.98-.27,1.35"/>
      <path class="cls-8" d="M19.18,39.09c0,.33-.22.45-.57.37-.87-.2-1.68.08-2.47.41.01.04.02.07.04.09,0,0,0,0,0,0,.04.09.1.12.17.13.16.02.37-.09.5.02.56-.1,1,.16,1.43.48.03.06.04.12.03.17,0,.02-.01.04-.02.06,0,0,0,0,0,0-.02.04-.06.08-.12.11-.08.04-.17.06-.25.06-.04-.05-.09-.09-.13-.15h0c-.31,0-.62,0-.93.01-.24,0-.49,0-.73,0-3.06-.02-6.13-.03-9.19-.05h0c-.13-.07-.25-.18-.35-.36,0-.02-.02-.03-.03-.05,0,0,0-.01,0-.02.11-.39.34-.53.61-.58,0,0,0,0,.01,0,.09-.02.19-.02.29-.02.01,0,.02,0,.04,0,.13,0,.27,0,.39,0,.9-.02,1.8-.02,2.71-.02.94,0,1.88,0,2.83,0,.28,0,.58.04.86,0t0,0h0c.14-.02.27-.05.41-.12.32-.41,1.21-.09,1.19-.93h.05c.22,0,.44,0,.67,0,.39.29.79.19,1.18,0,.14,0,.28,0,.42,0h.07c.13.07.25.17.39.2.19.04.52-.23.51.19"/>
      <path class="cls-1" d="M17.72,46.71c-.02.08-.04.14-.07.21h0c-.09.21-.21.35-.37.45h0s0,0,0,0c-.08.04-.16.07-.26.08-.28.04-.63-.04-1.1-.21h0s-.01,0-.02,0c-2.89,0-5.79,0-8.68,0h-.1c-.19-.28-.47-.21-.75-.21-.64.01-1.09-.36-1.12-.94-.07-1.46-.03-2.92-.02-4.39,0-.3.2-.5.45-.65.03.03.06.06.09.09,0,0,0,0,0,0h0c-.03.16-.05.32-.07.48-.17,1.37-.04,2.75-.04,4.13,0,.83.6,1,1.31,1,3.59-.02,7.17-.02,10.76-.03"/>
      <path class="cls-57" d="M22.73,66.05c-.03,1.49.28,3.01-.43,4.43-.31.24-.62.48-.93.72-.14.11-.3.11-.46.07-.22-.55.37-.68.53-1.04.07-.08.14-.15.22-.21.32-.23.36-.57.36-.93,0-.28.07-.54.28-.75v-.47c-.21-.19-.31-.44-.36-.71.14-.67-.96-.9-.58-1.65.39-.4.22-.9.22-1.35.01-5.21,0-10.41.02-15.62,0-.44-.23-.96.27-1.31-.02,5.87-.02,11.73-.07,17.59,0,.74.66.8.94,1.22"/>
      <path class="cls-8" d="M5.45,40.11c-.65.18-.91-.27-1.19-.71-.19.22-.43.28-.71.24h-.47c-.38-.55-.46-1.11,0-1.66,1.46,1.24,3.23.94,4.93.95,2.15,0,4.29,0,6.6,0-.57.44-1.19,0-1.56.47-.49.46-1.1.32-1.67.35-1.98.07-3.98-.21-5.92.37"/>
      <path class="cls-46" d="M5.45,40.11c.46-.67,1.17-.7,1.86-.7,1.91-.02,3.82,0,5.73,0,.56.02,1.14-.09,1.66.24-.11.66-.64.46-1.04.47-1.97.02-3.95,0-5.92.01-.38,0-.8-.13-1.11.23-.17.3-.36.49-.71.24-.31,0-.47-.17-.47-.48"/>
      <path class="cls-26" d="M2.31,39.25c-.02.16-.05.32-.06.49-.03.42,0,.85,0,1.27,0,.13-.03.25-.11.36-.03.02-.06.05-.09.06-.01,0-.02.02-.04.02-.04.02-.08.05-.12.06h0c-.06.03-.13.06-.19.07h0c-.06.02-.13.03-.2.04h-.02s-.04,0-.05,0c-.43-.08-.46-.43-.42-.78,0-.09.01-.17.02-.26h0c.02-.24.04-.47-.06-.7-.01-.02-.02-.05-.04-.08,0-.05,0-.1-.01-.16.03-.41.05-.82.09-1.22,0-.27-.05-.54-.09-.81v-1.19c.05-.2.14-.39.29-.57t0-.02c.36-.34.17-.79.23-1.19.1-.09.16-.24.24-.35.1-.15.22-.24.46-.12,0,0,0,0,.01,0,.02.02.03.02.05.03s.02.02.05.03c.1.52-.12,1.08.13,1.58,0,0,0,0,0,.02,0,.24,0,.47,0,.71.02.07.05.15.06.23.2.83,0,1.65-.12,2.47"/>
      <path class="cls-42" d="M2.13,41.3c.13-1.58-.25-3.18.23-4.75.96.11.66.86.72,1.42,0,.55,0,1.11,0,1.66-.01.47.1.88.47,1.19-.11.4-.22.8-.35,1.28-.35-.93-.19-1.9-.84-2.69v7.57h-.11s-.11,0-.11,0h-.01c-.4-.44-.34-.97-.34-1.49-.04-1-.04-2,0-3,.01-.42.02-.85.34-1.19"/>
      <path class="cls-42" d="M2.4,65.01c0-5.85,0-11.7,0-17.55.94.04.8.68.51,1.15-.32.52-.31,1.04-.31,1.58,0,4.53,0,9.05,0,13.58,0,.42.15.87-.19,1.24"/>
      <path class="cls-12" d="M4.74,41.3c.43,1.42.23,2.88.19,4.32-.01.53-.13.97.36,1.34.52.39.04.55-.21.76-.32.27-.62.2-.74-.18-.13-.44-.33-.98-.19-1.36.52-1.34.53-2.64,0-3.95-.18-.44.42-.55.34-.93.08-.06.16-.06.24,0"/>
      <path class="cls-32" d="M22.06,67.16c.28.17.23.45.24.71-1.57.32-3.33-.9-2.85-2.36h1.19c.41.61.54,1.45,1.42,1.65"/>
      <path class="cls-1" d="M17.83,40.78l-.05.06c-.31,0-.62,0-.93.01-.24,0-.49,0-.73,0-3.06-.02-6.13-.03-9.19-.05h-.18c-.31,0-.58.1-.84.24-.05.03-.11.05-.16.08,0,0,0,0,0,0h0s-.06-.06-.09-.09c.08-.15.17-.3.25-.45.02,0,.03-.01.05-.02.2-.07.39-.13.58-.19.03,0,.05-.02.08-.03.35.38.81.22,1.22.22,2.91.01,5.81,0,8.72.01.42,0,.87-.11,1.25.2"/>
      <path class="cls-2" d="M1.89,29.67h.24c.17.86.27,1.73.23,2.6.13.14.12.29.08.46-.36.3-.52-.6-.91-.16-.33-.12-.38-.41-.46-.69.04-.51-.1-1.03.09-1.52.06-.42.55-.39.73-.68"/>
      <path class="cls-16" d="M18.98,49.12c-.91.15-1.9-.03-2.68.68-.12.11-.41.07-.51-.14-.11-.22.07-.36.23-.47.31-.21.78-.25.82-.75.46-.47.94-.18,1.42-.03.32.16.58.38.72.72"/>
      <path class="cls-1" d="M18.27,46.99s-.02,0-.04.02h0s-.07.03-.1.04c-.15-.03-.26-.11-.32-.25l-.05-.08c.16-.16.3-.33.39-.52.1-.2.16-.43.14-.7-.02-.42-.03-.83-.04-1.25-.01-.59-.01-1.17-.02-1.76v-.73c.11-.36-.12-.56-.33-.77-.04-.05-.09-.09-.13-.15h0s.05-.07.05-.07c.14.02.29.03.44.04h0c.06,0,.11,0,.16,0,.25.04.2.24.08.47.19,1.91.14,3.81-.24,5.69"/>
      <path class="cls-42" d="M2.35,32.74c0-.15.01-.31.02-.46.39.63.42,1.42.93,1.99.21.24.28.47.03.72-.13.13-.27.33-.49.19-.32-.21-.08-.49-.07-.74,0-.1-.08-.2-.19-.43-.36.67-.13,1.28-.21,1.84-.44-.51-.14-1.12-.24-1.67-.14-.13-.17-.3-.16-.48.07-.34.1-.69.37-.96"/>
      <path class="cls-10" d="M22.06,67.16c-1.37.23-1.34-.76-1.42-1.65.24,0,.47,0,.71,0,.01.34.2.56.5.71.47.22.44.55.22.94"/>
      <path class="cls-25" d="M6.88,48.36c.16.02.31.05.47.07.16.61-.45.64-.71.93-.53-.04-1.15.18-1.45-.52.41-.67,1.12-.32,1.68-.48"/>
      <path class="cls-39" d="M22.53,42.74c.5,1.36.2,2.75.17,4.13,0,.45-.51.38-.86.38,1.2-.88.58-2.15.66-3.25.03-.41-.17-.84.03-1.25"/>
      <path class="cls-7" d="M9.72,27.77c.2-.7-.44-1.58.44-2.14.03.71.05,1.41.08,2.12-.17,0-.35.01-.52.02"/>
      <path class="cls-56" d="M18.26,48.4c-.47.01-.94.02-1.42.04-.15-.02-.31-.04-.46-.06.47-.25.35-1.46,1.35-.82.02.05.04.1.06.15-.04.37.32.46.47.7"/>
      <path class="cls-15" d="M8.78,26.11h.24c.39.48.21,1,.11,1.66-.59-.56-.26-1.15-.35-1.66"/>
      <path class="cls-39" d="M21.88,40.13c-.03.78-.06,1.56-.1,2.34-.25-.79-.85-1.6.1-2.34"/>
      <path class="cls-56" d="M18.26,46.99c.31.03.56.17.4.5-.17.36-.52.4-.87.21h0c-.33-.56.19-.56.48-.71h0Z"/>
      <path class="cls-29" d="M7.58,25.87c.12.62-.23,1.31.24,1.89-.15.26-.31.25-.47.01.1-.63-.23-1.31.23-1.9"/>
      <path class="cls-8" d="M4.03,40.82c-.16,0-.32,0-.48,0,.15-.74.74-.49,1.13-.42.21.04-.16.25-.18.42-.16.13-.31.15-.47,0"/>
      <path class="cls-42" d="M3.55,39.63c.17-.28.45-.23.71-.24-.03.25.07.59-.3.66-.31.06-.38-.18-.41-.42"/>
      <path class="cls-38" d="M16.84,40.11c-.25.08-.5.17-.76.22-.14.03-.34-.05-.3-.24.02-.09.23-.15.35-.22.26.01.54-.04.71.24"/>
      <path class="cls-47" d="M4.03,40.82c.16,0,.31,0,.47,0,.3.05.6.1.24.48-.08,0-.16,0-.24,0-.31-.01-.47-.16-.47-.48"/>
      <path class="cls-61" d="M3.55,32.22c-.1.07-.19.18-.25.16-.07-.02-.17-.14-.18-.22-.01-.16.08-.3.26-.24.07.02.1.17.16.3"/>
      <path class="cls-4" d="M14.94,38.7c.24,0,.48,0,.72,0-.24.36-.48.72-.72,0"/>
      <path class="cls-58" d="M18.51,41.3c-.01-.19-.05-.37-.24-.48,0-.08,0-.16,0-.24.14,0,.38-.06.4,0,.12.26.1.53-.17.72"/>
      <path class="cls-20" d="M18.57,70.14H7.52c0-.08,0-.16,0-.24h11.05c0,.08,0,.16,0,.24"/>
      <path class="cls-18" d="M20.88,71.19c.16,0,.33,0,.49.01-.4.49-.96.51-1.51.51-5.25,0-10.5,0-15.76,0-.57,0-1.1-.09-1.53-.5.69-.45,1.24.23,1.87.23,4.91,0,9.82,0,14.73-.02.17,0,.34-.15.51-.23.25-.25.55-.28.88-.21.12.04.22.11.31.21"/>
      <path class="cls-57" d="M20.64,71.19c-.32,0-.63,0-.95,0-.41-.59-.7-1.2-.24-1.9.36-.35.78-.59,1.27-.69,1.18.14,1.24.22.94,1.23-.25.18-.55.21-.84.23-.98.22.13.79-.19,1.12"/>
      <path class="cls-17" d="M2.13,66.69c.31-.12.36-.81.75-.55.41.28.23.87.12,1.3-.08.35-.19.86-.69.8-.45-.05-.42-.49-.42-.85-.24-.34-.08-.56.24-.71"/>
      <path class="cls-52" d="M17.52,68.13c0,.5-.31.67-.75.68-.43.01-.83-.09-.83-.59,0-.48.35-.76.82-.82.51-.05.63.35.75.72"/>
      <path class="cls-5" d="M7.77,68.09c-.14.53-.38.78-.87.73-.4-.04-.72-.19-.69-.63.04-.44.34-.74.78-.76.46-.02.65.35.78.66"/>
      <path class="cls-53" d="M20.64,68.82c-.37.21-.69.57-1.19.48-.18-.04-.46-.03-.53-.14-.17-.26.13-.24.28-.34.96-.66,2.05-.46,3.1-.47v.95c-.57-.08-.91-1-1.66-.47"/>
      <path class="cls-23" d="M12.57,68.07c-.04.49-.26.73-.68.74-.48,0-.73-.25-.72-.73,0-.42.25-.65.67-.66.49-.01.7.27.73.65"/>
      <path class="cls-44" d="M2.61,70.72c-.26-.27-.57-.5-.48-.95.13-.67.46-.41.69-.11.3.39.55.84-.21,1.06"/>
      <path class="cls-6" d="M2.13,66.69c-.08.24-.16.47-.24.71-.08,0-.16,0-.24,0-.39-.34-.19-.77-.21-1.17.34-.01.56.16.69.46"/>
      <path class="cls-35" d="M2.13,45.56c0,.47,0,.94.01,1.41-.65,0-.91-.48-1.2-.94.01-.15.03-.31.04-.46.22-.22.51-.04.74-.15.15-.02.29.02.4.14"/>
      <path class="cls-28" d="M1.16,30.36c0,.56,0,1.12.01,1.67-.06.08-.13.09-.2.02-.03-.48-.05-.96-.07-1.43.09-.09.18-.17.26-.26"/>
      <path class="cls-13" d="M1.08,40.48s-.04.07-.07.1h0s-.05.05-.09.06c0,.02-.02.02-.04.02,0-.03.02-.06.04-.09.01-.23.01-.46.03-.69-.02-.02-.02-.05-.04-.08,0-.05,0-.1-.02-.16l.06.02c.16.24.24.51.12.8"/>
      <path class="cls-13" d="M1.25,44.4h0c0,.07-.02.12-.02.19,0,.09-.02.17-.03.26-.01.07-.03.15-.05.22-.02.06-.05.12-.1.16-.01.02-.03.04-.06.05,0,0,0,0-.01.02,0-.71-.02-1.4-.02-2.1,0-.02-.01-.02-.01-.04,0,0,.01.02.01.02.04.02.07.03.1.06.02.05.05.1.07.16h0c.06.17.1.34.12.5.02.17.02.34,0,.5"/>
      <path class="cls-24" d="M.99,38.43c-.09-.08-.18-.15-.26-.23-.01-.07,0-.14.02-.21.13-.04.2-.11.16-.25v-.12c0-.4,0-.79,0-1.19,0-.37,0-.74,0-1.12,0-.23,0-.46,0-.69v-.44h.09c.4.51.1,1.11.21,1.66,0,0,0,0,0,.01-.13.85.23,1.75-.22,2.57"/>
      <path class="cls-9" d="M1.66,45.56c-.22.28-.45-.07-.68,0-.04-.07-.07-.14-.08-.22l.07-.05c.15-.19.08-.62.53-.47.24.2.39.43.15.73"/>
      <path class="cls-36" d="M2.14,33.71c0,.16,0,.31,0,.46-.24.16-.47.31-.71.47.01-.42-.07-.78-.51-.95.03-.3.06-.61.09-.92.37-.08.5.5.91.34.33.11.41.3.23.6"/>
      <path class="cls-30" d="M1.66,33.23c-.52.28-.39-.38-.66-.45-.01-.24-.02-.48-.03-.72.07,0,.13-.01.2-.02.16.16.32.32.48.48.21.23.19.47.01.71"/>
      <path class="cls-34" d="M.75,37.99c-.19-.03-.45-.09-.45-.3-.01-1.1-.31-2.22.17-3.29.14-.07.29-.15.43-.22v.44c0,.23,0,.46,0,.69,0,.37,0,.74,0,1.12,0,.4,0,.79,0,1.19v.12c.05.15-.03.22-.16.25"/>
      <path class="cls-11" d="M11.98,53.16c-1.5,0-3,0-4.5,0-.34,0-.77.07-.77-.47,0-.54.43-.47.77-.47,3,0,6,0,9,0,.34,0,.77-.07.77.47,0,.54-.43.47-.77.47-1.5,0-3,0-4.5,0"/>
      <path class="cls-41" d="M11.98,61.49c-1.5,0-3,0-4.5,0-.3,0-.71.08-.76-.35-.05-.47.32-.59.7-.59,3.04,0,6.08,0,9.12,0,.39,0,.75.13.7.59-.05.44-.46.35-.76.35-1.5,0-3,0-4.5,0"/>
      <path class="cls-41" d="M12.02,58.59c1.46,0,2.92,0,4.38,0,.32,0,.81-.13.83.39.02.55-.46.55-.86.55-2.96,0-5.92,0-8.88,0-.37,0-.77-.04-.77-.52,0-.55.47-.42.8-.42,1.5-.01,3,0,4.5,0"/>
      <path class="cls-5" d="M12.03,56.46c1.46,0,2.92,0,4.38,0,.32,0,.8-.15.82.4.02.47-.37.54-.75.54-3,0-6,0-9.01,0-.38,0-.77-.06-.76-.53.01-.55.49-.41.81-.41,1.5-.01,3,0,4.5,0"/>
      <path class="cls-43" d="M12.09,54.34c1.46,0,2.93,0,4.39,0,.34,0,.77-.07.78.47,0,.54-.43.47-.77.47-2.97,0-5.93,0-8.9,0-.38,0-.77-.02-.78-.5-.01-.55.46-.44.78-.45,1.5-.01,3,0,4.51,0"/>
      <path class="cls-5" d="M11.99,51.04c-1.5,0-2.99,0-4.49,0-.28,0-.72.13-.74-.34-.01-.4.26-.61.7-.61,3.03,0,6.06,0,9.09,0,.34,0,.67.08.68.49.02.56-.43.45-.76.46-1.5.01-2.99,0-4.49,0"/>
      <path class="cls-50" d="M18.27,46.99c-.14.25-.51.34-.48.71-.88-.65-.82.69-1.41.67-.32,0-.64,0-.96,0,.06-.42.62-.63.47-1.14.67-.03,1.37.1,1.92-.43.15.07.3.13.45.2"/>
      <path class="cls-33" d="M6.64,49.36c.21.03.51-.08.58.2.07.27-.21.26-.38.26-.4,0-.25-.25-.19-.46"/>
      <path class="cls-51" d="M11.86,32.28c1.46,0,2.92,0,4.38,0,.38,0,.91-.1.95.43.04.57-.49.51-.87.51-2.96,0-5.92,0-8.88,0-.35,0-.77.05-.76-.49.02-.53.46-.45.79-.45,1.46,0,2.92,0,4.38,0"/>
      <path class="cls-19" d="M12,36.54c1.5,0,2.99,0,4.49,0,.27,0,.73-.15.71.35-.01.4-.31.6-.74.59-2.99,0-5.98,0-8.97,0-.37,0-.77-.07-.77-.53,0-.55.48-.41.8-.41,1.49-.02,2.99,0,4.49,0"/>
      <path class="cls-49" d="M11.92,34.41c1.46,0,2.92,0,4.38,0,.35,0,.77-.03.74.51-.02.45-.38.43-.7.43-2.92,0-5.85,0-8.77,0-.4,0-.88-.01-.87-.55,0-.54.51-.38.82-.39,1.46-.02,2.92,0,4.38,0"/>
      <path class="cls-50" d="M17.79,38.7c-.39.36-.78.7-1.18,0,.39,0,.78,0,1.18,0"/>
      <path class="cls-34" d="M18.29,45.5c.01.27-.04.5-.14.7-.09.19-.23.35-.39.52h-.03c-3.58,0-7.17,0-10.76.03-.72,0-1.31-.17-1.31-1,0-1.38-.13-2.76.04-4.13.02-.16.04-.32.07-.48h0s0,0,0,0c.05-.03.11-.06.16-.08.26-.13.52-.24.83-.24h.18c3.06.02,6.12.04,9.19.05.24,0,.49,0,.73,0,.31,0,.62,0,.92-.01h0c.04.05.08.1.13.15.2.21.43.41.33.77v.72c.01.59.01,1.17.02,1.76,0,.42.02.83.04,1.25"/>
      <polyline class="cls-37" points="5.76 41.12 5.76 41.13 5.77 41.13 5.76 41.12"/>
      <path class="cls-62" d="M20.64,68.82c.78-.62,1.21-.06,1.66.47.02.41-.04.77-.48.95-.14-.13-.26-.27-.24-.47.32-.96-.32-.95-.95-.95"/>
      <path class="cls-45" d="M21.59,69.77c.19.1.23.28.23.47-.08,0-.15,0-.23,0-.27.33-.51.82-1.03.46-.41-.29-.38-.66.08-.93.32,0,.63,0,.95,0"/>
      <path class="cls-62" d="M20.64,69.77c-.13.28-.34.58.04.81.42.25.59-.26.91-.34.05.53-.48.63-.71.94-.08,0-.16,0-.24,0-.15-.47-1.49-.95,0-1.42"/>
      <path class="cls-22" d="M1.66,45.56c-.08-.24-.16-.47-.24-.71-.74-.78-.1-1.67-.18-2.5.21-.36.41-.72.66-1.05.08,0,.16,0,.24,0,0,1.42,0,2.85,0,4.27h-.47Z"/>
      <path class="cls-14" d="M.97,45.3s-.05.04-.07.06c-.56,0-.89-.22-.89-.82,0-1.36,0-2.72-.02-4.08,0-.62.35-.82.9-.79,0,.05.01.11.01.16.02.03.02.06.04.08-.01.23-.01.46-.03.69-.01.03-.03.05-.04.09.02,0,.03,0,.04-.02,0,.84.02,1.69.02,2.54l-.02-.02s0,.02.02.04c0,.7.01,1.39.02,2.1"/>
      <path class="cls-59" d="M1.24,43.9c-.02.17-.02.34,0,.5h0c.02.14.07.27.15.41,0,0,0,.02,0,.02,0,0,.02.02.02.02-.12.12-.25.25-.38.38-.02.02-.05.05-.07.07h0c0-.72-.01-1.41-.02-2.1,0-.02-.02-.02-.02-.04,0,0,.02.02.02.02,0-.85-.02-1.7-.02-2.54,0,.02-.02.02-.04.02,0-.03.02-.06.04-.09.01-.23.01-.46.03-.69,0-.07,0-.14,0-.21.45.18.51.5.34.92-.13.32-.21.66.11.93.03.03.05.07.08.1.03.05.05.11.07.17.02.15-.02.31-.14.45.15.55-.11,1.1-.18,1.65"/>
      <path class="cls-55" d="M1.42,42.25c0-.24,0-.48,0-.72.11-.19.29-.23.49-.23-.04.38.16.87-.48.95"/>
      <path class="cls-21" d="M1.66,33.23c0-.24,0-.47-.01-.71.06-.27-.12-.61.23-.83.47.21.05.83.46,1.06,0,.34.12.7-.21.97-.01-.31-.16-.47-.47-.48"/>
      <path class="cls-3" d="M.93,40.58v.06s-.02.02-.04.02c0-.03.02-.06.04-.09"/>
      <path class="cls-3" d="M.95,43.18v.02s-.02-.02-.02-.04c0,0,.02.02.02.02"/>
      <path class="cls-50" d="M149.04,127.32c.38-.19.63-.49.67-.91.11-1.13.12-2.27,0-3.41-.02-.19-.08-.44-.24-.52-1.13-.52-.84-1.53-.85-2.43,0-.9.01-1.8.1-2.7.13-1.38-.4-2.2-1.5-2.55-.61,0-1.68.28-1.7-.22-.04-1.14-.75-2.06-.78-3.09-.09-3.71-.01-7.42,0-11.14-.02-3.48-.75-6.92-.48-10.41.06-.71-.02-1.42.02-2.13.05-.74-.33-.88-.94-.79-.33.33-.16.75-.16,1.12-.02,2.28,0,4.56,0,6.84,0,.31.1.66-.06.93-.77,1.33-.33,2.74-.36,4.12.01,3.87,0,7.73.06,11.6,0,.64-.38.75-.74,1-.32.42-.19.91-.22,1.37-.02.43-.2.67-.65.64-1.33-.07-2.68.18-3.99-.21-.1,0-.2-.01-.3-.03-.08-.01-.15-.04-.23-.08-.02-.03-.04-.05-.06-.08-.22-.34-.09-.77-.2-1.14-.01-.04-.02-.08-.04-.11-.2-.43-.45-.82-.8-.09,0,.07.02.13.03.2,0,.02,0,.04,0,.05.04.16.08.32.07.49,0-.17-.04-.33-.08-.48,0-.02-.01-.04-.02-.06,0-.03-.02-.07-.02-.1,0-.13,0-.27-.09-.38,0-.01-.03-.03-.04-.04,0,0-.01,0-.02-.02-.66.19-.34.75-.44,1.09-.13-.3.25-.93-.45-1h0s-.08,0-.12,0c-.04.06-.07.12-.09.18-.02.04-.03.08-.04.12-.01.04-.03.08-.03.13,0,.05-.02.1-.03.15-.04.35.01.71-.03,1.07,0,.02,0,.04-.01.06h0c-.02.09-.07.15-.12.2-.12.09-.3.13-.42.22-.4.2-.84.09-1.26.11-.96.04-1.95-.16-2.85.35-.14.09-.28.17-.42.26-.33.3-.33.76-.5,1.13,0,.01,0,.03,0,.04.01.86.15,1.7.25,2.55.03.16.07.31.12.47h0s.02.06.02.08c0,0,0,0,0,.01.01.04.03.09.04.14.13.42.31.83.54,1.22-.1-.14-.23-.24-.46-.19-.14.03-.21.14-.25.26-.01.04-.02.06-.03.09h0s0,.01,0,.02c-.01.07-.02.14-.03.21-.05.46-.05.93-.03,1.4.02.23.07.46.19.67.02.02.04.04.06.06.04.03.07.07.1.11.29.38.34.88.6,1.27.02.03.04.06.06.09.01.02.02.03.04.05.79.82,1.76,1.13,2.88,1.08,2.36-.11,4.73.13,7.12-.14.12-.11.29-.08.49-.06-.16.02-.32.04-.49.06-.05.04-.09.1-.11.18.02.03.04.05.06.07,0,0,0,0,.01.01.33.37.79.33,1.22.35t0,0h0c.11,0,.21.02.31.04.02,0,.04,0,.06-.01.59-.1,1.25-.09,1.34-.93,0-.03-.01-.04-.03-.07h0s-.02-.05-.04-.07c-.04-.05-.09-.08-.16-.1-.47.14-.89-.09-1.32-.21-.55-.09-1.1-.06-1.66-.06-2.13,0-4.27,0-6.4,0-.43,0-.89.09-.85-.62.09-1.86.02-3.72.04-5.57.01-.71.28-1.13,1.04-1.13,3.6-.03,7.2-.03,10.8,0,.63,0,.95.32.94.95-.03,2.13.16,4.27-.12,6.4-.04.13-.05.24-.04.35,0,.02,0,.04.01.06.04.15.14.26.33.35-1.54.06-1.94.19-2.46.78,0,0,0,0,0,0,.02.03.05.05.07.07,0,0,0,0,0,0,.05.05.11.09.17.13.07.04.15.08.23.11.08.03.16.05.24.08.47.09.9.3,1.36.45.04,0,.07.02.1.02,0,0,.02,0,.03.01.06.02.11.04.14.07.07.06.06.13.03.21-.07.17-.27.35-.15.49,0,.91-.02,1.82-.06,2.72,0,.42.02.83.04,1.25.01.27-.04.5-.14.7-.01.19-.02.37-.04.55.05.08.08.15.1.22h0s0,.02.01.04h0s0,.02,0,.03c.07.31-.14.51-.41.69-.01.01-.03.02-.04.02-.02.01-.04.03-.06.04-.07.19-.03.34.06.46.04.06.09.12.15.17.07.07.15.13.22.2.13.12.26.24.37.38.05.05.09.11.13.17.09.13.15.28.18.46.07,3.71.04,7.42.03,11.12,0,1.55-.24,1.77-1.81,1.78-3.31.01-6.63.02-9.94,0-1.69,0-1.97-.3-1.98-2.04-.01-3.24,0-6.47,0-9.71,0-.51-.02-1.02.2-1.51.03-.04.06-.08.09-.11.08-.08.16-.15.24-.2.42-.26.94-.22,1.41-.34h0c.11-.01.21-.02.32-.03,2.02-.18,4.05-.01,6.07-.08.37-.01.77.03,1.13-.13.05-.02.11-.05.16-.09,0,0,0,0,0,0,.09-.06.17-.13.26-.23-.48-.5-1.04-.45-1.58-.46-1.74-.01-3.48,0-5.22-.02-.34,0-.82.2-.98-.35,0,0,0-.01,0-.02,0-.02-.01-.04-.02-.05h0c-.14-.39-.51-.36-.84-.44-.36-.08-.75-.27-.75-.65-.02-1.49-.3-2.99.09-4.46.02-.16.04-.32.07-.48h0s0,0,0,0c.05-.03.11-.06.16-.08.06-.13.09-.26.08-.41h0s-.02-.05-.03-.07c-.1-.2-.24-.35-.41-.49-.02-.01-.04-.03-.06-.04-.02-.01-.03-.02-.05-.04-.45-.11-.72-.54-1.17-.66-.02.02-.04.04-.06.06-.19.17-.4.26-.65.18-.05-.02-.11-.05-.16-.08-.13-.01-.25,0-.35.09,0,0-.02,0-.02.02-.02.02-.04.04-.06.06-.01.12-.02.24-.02.35-.02-.13-.05-.26-.07-.39-.05-.23-.15-.48-.45-.44-.06,0-.1.03-.14.06-.1.08-.14.21-.17.34h0s0,.03-.01.04c-.1.34-.08.7-.08,1.06,0,.2,0,.4,0,.6v.14c0,1.36,0,2.72.02,4.07v.06c0,.46.02.91.03,1.37v.04s0,.05,0,.08h0c.04.21.11.4.24.57.02.02.04.04.06.06.11.11.22.24.26.37,0,0,0,.02,0,.02.03.07.03.16,0,.25,0,0,0,.01,0,.02-.01.03-.02.06-.04.09-.09.17-.16.34-.21.51v.05c-.23.78-.12,1.54-.13,2.34-.05,4.61.08,9.22-.07,13.84.25.76.92.67,1.48.67,5.21.01,10.41.06,15.62-.02h.08s.09,0,.14,0c.38,0,.77.02,1.15-.02h0s.1,0,.15,0c.16,0,.32-.04.46-.09.03-.01.06-.03.09-.04.06-.03.11-.06.17-.1.14-.14.23-.29.29-.45.16-.43.08-.9.08-1.35.04-5.33-.05-10.66.05-16,.05-.12.11-.24.16-.36.06-.06.12-.12.18-.19.18-.22.32-.46.41-.72,0,0,0,0,0,0,.1-.3.14-.62.13-.96-.01-.33-.02-.65-.03-.98v-.02c-.01-.31-.03-.62-.06-.93h0c-.03-.29-.06-.56-.12-.84-.14-.24-.42-.33-.6-.53-.08-.18-.16-.35-.23-.54h0c-.14-.39-.22-.75.05-1.06.11-.12.27-.24.52-.34M131.37,134.27c-.12-1.33.04-2.67.04-4.01.03,1.33-.06,2.67-.04,4.01M131.3,128.63c.08.52.11,1.04.11,1.56-.01-.52-.05-1.04-.11-1.56M129.73,127.5c.06.14.17.27.35.37.04-.02.08-.04.12-.07.01,0,.02-.01.03-.02.28-.17.55-.4.88.01,0,0,0,.02.01.02,0,.01.01.02.02.03h0c.07.14.13.27.16.41,0,.02,0,.03,0,.04.02.09.02.19,0,.3-.01-.1-.02-.19-.04-.28,0,0,0-.01-.01-.02,0-.01-.01-.02-.02-.03-.09-.13-.18-.25-.29-.35-.04-.04-.08-.07-.12-.1t0,0s0,0,0,0t0,0s0,0,0,0c-.06-.05-.1-.08-.17-.11-.15-.03-.28,0-.39.09h-.01s-.05.05-.07.08c-.11-.04-.16.71-.33.02-.03-.13-.06-.27-.08-.4-.07-.15-.09-.31-.09-.48.03.16.06.32.09.48"/>
      <path class="cls-62" d="M129.07,152.01c.09.78.71.48,1.11.48,5.31.03,10.63.02,15.94.03.24,1.69,1.53,2.08,2.92,2.35.08.16.08.32,0,.48-.43.39-.96.27-1.46.26-.61,0-1.17.05-1.4.73-.16.43.07.81.15,1.21.07.36.29.73-.13,1.03-.57.27-1.17.07-1.75.08-3.62.04-7.23-.03-10.85.1-1.37.05-2.74.07-4.08-.32-.2-.03-.39-.1-.53-.26-.09-.18-.08-.35.04-.51.13-.18.37-.32.27-.6-.15-.38-.46-.16-.71-.18-.73-.7-.62-1.55-.41-2.41.07-.1.16-.15.28-.16.29,0,.47.75.82.17.14-.22.52-.77-.28-.75-.34.06-.56-.17-.81-.33-.08-.06-.13-.15-.17-.24.11-.21.22-.41.33-.62.25-.59.34-1.2.34-1.84-.02-4.93-.02-9.86,0-14.79,0-.59-.25-1.16-.04-1.75.08-.14.21-.21.38-.2.01.16.03.32.04.48.17.23.28.48.26.77-.42,5.32-.07,10.64-.19,15.96,0,.28.04.55-.08.82"/>
      <path class="cls-54" d="M134.02,114.77c-.57.36-1.22.26-1.84.24-.9-.02-1.79.05-2.68.23.73-.72,1.65-.45,2.47-.38,1.24.1,1.87-.23,1.66-1.57-.03-.21.08-.45.13-.67.29-.14.51-.12.54.27-.19.62.17,1.32-.29,1.89"/>
      <path class="cls-18" d="M129,158.02c-.96-.7-1.18-1.7-1.14-2.8.02-.43-.02-.86-.04-1.29.07-.25-.03-.55.21-.74l.09.05c.29.35.3.76.21,1.17.06.81-.19,1.68.48,2.37.27.26.56.51.48.95-.09.1-.18.2-.27.3"/>
      <path class="cls-60" d="M135.41,112.66c-.52.66.07,1.52-.42,2.27-.62-.71.08-1.64-.48-2.27-.07-.04-.1-.08-.08-.13.02-.05.04-.07.06-.07.32,0,.64,0,.95,0,.06.05.07.1.04.14-.03.04-.05.05-.07.05"/>
      <path class="cls-31" d="M135.41,112.66c.02-.06.03-.13.03-.19.08-.03.16-.07.24-.1.39.01.77.03,1.16.04.02.08.02.15,0,.23-.48.64.08,1.5-.44,2.14-.46-.49-.12-1.11-.25-1.66-.13-.53-.29-.53-.44,0-.08.08-.16.08-.24,0-.01-.15-.02-.3-.04-.45"/>
      <path class="cls-40" d="M134.49,112.46c0,.07.01.14.02.2-.01.7-.02,1.4-.03,2.1-.72-.55-.26-1.25-.24-1.89-.1-.2-.29-.23-.48-.26.18-.31.46-.19.73-.16"/>
      <path class="cls-30" d="M127.9,122.89s-.02-.02-.03-.03c0,0,0,0,0,0-.16-.17-.25-.35-.3-.54,0-.23,0-.46,0-.69.02-.15.06-.29.09-.44-.1-.09-.2-.19-.31-.28,0-.07.02-.13.02-.2.07,0,.14-.01.21-.02.53-.04.67.26.75.61,0,.05.02.11.03.17,0,.06.02.13.03.19-.03.46.11.99-.5,1.23"/>
      <path class="cls-27" d="M145.65,136.12c.34.32.22.74.22,1.12,0,3.59,0,7.19,0,10.78,0,1.66-.24,1.9-1.93,1.9-3.55,0-7.11,0-10.66,0-1.46,0-1.86-.37-1.86-1.78,0-3.67,0-7.34,0-11.02,0-.47-.06-.96.44-1.26.45.11.91.2,1.33.39.06.05.11.1.13.11-.05-.05-.06-.11-.04-.21.32-.33.52-.81,1.06-.84,2.09,0,4.17,0,6.26,0,.43,0,.87.05,1.28-.14.34-.08.68-.08,1.03-.05.19.02.37.07.53.16.49.51-.06.74-.42,1.21.93-.67,1.78-.66,2.64-.36"/>
      <path class="cls-62" d="M142.56,125.7h-.12s-.12,0-.12,0c-.24.15-.48.19-.72,0-2.96,0-5.92-.03-8.88,0-.68,0-.92-.09-.88-.88.09-2.01.06-4.02.02-6.04-.02-.88.31-1.18,1.18-1.18,3.79.03,7.58.02,11.37,0,.65,0,1.04.09,1.02.89-.04,2.13-.01,4.26-.01,6.39,0,.36.02.74-.48.8-.14.15-.32.22-.51.26-.39.05-.77.04-1.16.03-.27-.01-.5-.11-.71-.29"/>
      <path class="cls-48" d="M142.09,135.36c-2.69.02-5.38.05-8.07.07-.18.12-.34.1-.47-.07,1.07-.41,2.18-.13,3.27-.17,1.51-.05,3.03-.01,4.54-.25-2.28,0-4.56,0-6.84,0-.39,0-.83.08-1.1-.28-.48-.63.19-.34.38-.43.17-.18.39-.29.62-.29,2.65-.02,5.3-.17,7.95.08.77.62.24.98-.27,1.35"/>
      <path class="cls-8" d="M145.84,126.09c0,.33-.22.45-.57.37-.88-.2-1.68.08-2.47.41.01.04.02.07.04.09,0,0,0,0,0,0,.04.09.1.12.17.13.16.02.37-.09.5.02.56-.1,1,.16,1.43.48.03.06.04.12.03.18,0,.02-.01.04-.02.06,0,0,0,0,0,0-.02.04-.06.08-.12.11-.08.03-.17.05-.25.06-.04-.05-.09-.1-.13-.15h0c-.31,0-.62,0-.92.01-.24,0-.49,0-.73,0-3.06-.02-6.13-.03-9.19-.05h0c-.13-.07-.25-.18-.35-.36,0-.02-.02-.03-.03-.05,0,0,0-.01,0-.02.11-.39.34-.54.61-.58,0,0,0,0,.01,0,.09-.02.19-.02.29-.02.01,0,.02,0,.04,0,.13,0,.27,0,.39,0,.9-.02,1.8-.02,2.7-.02.94,0,1.88,0,2.83,0,.28,0,.58.04.86,0t0,0h0c.14-.02.27-.05.41-.11.32-.41,1.21-.09,1.19-.94h.05c.22,0,.44,0,.67,0,.39.29.79.19,1.18,0,.14,0,.28,0,.42,0h.07c.13.07.25.17.39.2.19.04.52-.24.51.19"/>
      <path class="cls-1" d="M144.39,133.72c-.02.08-.04.14-.07.21h0c-.09.21-.21.35-.37.45h0s0,0,0,0c-.08.04-.16.07-.26.08-.28.04-.63-.04-1.1-.21h0s-.01,0-.02,0c-2.89,0-5.79,0-8.68,0h-.1c-.19-.28-.47-.21-.75-.21-.64.01-1.09-.36-1.12-.94-.07-1.46-.03-2.92-.02-4.39,0-.3.2-.5.45-.65.03.03.06.06.09.09,0,0,0,0,0,0h0c-.03.16-.05.32-.07.48-.17,1.37-.04,2.75-.04,4.13,0,.83.6,1,1.31,1,3.59-.02,7.17-.02,10.76-.03"/>
      <path class="cls-57" d="M149.4,153.05c-.03,1.49.28,3.01-.43,4.43-.31.24-.62.48-.93.71-.14.11-.3.11-.46.07-.22-.55.37-.68.53-1.04.07-.08.14-.15.22-.21.32-.23.36-.57.36-.93,0-.28.07-.54.28-.75v-.47c-.21-.19-.31-.44-.37-.71.14-.67-.96-.9-.58-1.65.39-.4.22-.9.22-1.35.01-5.21,0-10.41.02-15.62,0-.44-.23-.96.27-1.31-.02,5.86-.02,11.73-.07,17.59,0,.74.66.79.94,1.22"/>
      <path class="cls-8" d="M132.12,127.11c-.65.18-.91-.27-1.19-.71-.19.22-.43.28-.71.24h-.47c-.38-.55-.46-1.11,0-1.66,1.46,1.24,3.23.94,4.93.95,2.14.01,4.29,0,6.6,0-.57.44-1.19,0-1.56.47-.49.46-1.1.33-1.67.35-1.98.07-3.98-.21-5.92.37"/>
      <path class="cls-46" d="M132.12,127.11c.46-.67,1.17-.7,1.86-.7,1.91-.02,3.82,0,5.73,0,.56.02,1.14-.09,1.66.24-.11.66-.64.46-1.04.47-1.97.02-3.95,0-5.92.01-.38,0-.8-.13-1.11.24-.17.29-.36.49-.71.24-.31,0-.47-.17-.47-.48"/>
      <path class="cls-26" d="M128.97,126.25c-.03.16-.05.32-.06.49-.03.42,0,.85,0,1.27,0,.13-.03.25-.11.36-.03.02-.06.05-.09.06-.02,0-.02.02-.04.02-.04.02-.08.05-.12.06h0c-.06.03-.13.05-.19.07h0c-.06.02-.12.03-.2.04h-.02s-.04,0-.05,0c-.43-.08-.46-.43-.42-.78,0-.09.02-.17.02-.26h0c.02-.24.04-.47-.05-.7-.02-.02-.02-.05-.04-.08,0-.05,0-.1-.02-.16.03-.41.05-.82.09-1.22,0-.27-.05-.54-.09-.81v-1.19c.05-.2.14-.39.29-.57t0-.02c.36-.34.16-.79.23-1.19.09-.09.16-.24.23-.34.1-.15.22-.24.46-.12,0,0,0,0,.02,0,.01.02.03.02.05.03.01,0,.02.02.05.03.1.52-.12,1.08.13,1.58,0,0,0,0,0,.02,0,.23,0,.47,0,.71.02.07.05.15.06.23.2.83,0,1.65-.12,2.47"/>
      <path class="cls-42" d="M128.8,128.3c.13-1.58-.25-3.18.23-4.75.96.11.66.86.72,1.42,0,.55,0,1.11,0,1.66-.02.46.1.88.47,1.18-.11.4-.22.81-.35,1.28-.35-.93-.19-1.9-.84-2.69v7.57h-.11s-.11,0-.11,0h-.01c-.4-.43-.34-.97-.34-1.49-.04-1-.04-2,0-3,.01-.42.02-.85.34-1.19"/>
      <path class="cls-42" d="M129.07,152.01c0-5.85,0-11.7,0-17.55.94.04.8.68.51,1.15-.32.52-.31,1.04-.31,1.58,0,4.53,0,9.05,0,13.58,0,.42.15.87-.2,1.24"/>
      <path class="cls-12" d="M131.41,128.3c.43,1.42.23,2.88.19,4.32-.02.53-.13.97.35,1.34.52.39.04.55-.21.76-.32.27-.62.2-.73-.18-.13-.44-.33-.98-.19-1.36.52-1.34.53-2.64,0-3.95-.18-.44.42-.55.34-.93.08-.06.16-.06.24,0"/>
      <path class="cls-32" d="M148.73,154.16c.28.17.23.45.24.71-1.57.32-3.33-.9-2.85-2.36h1.19c.41.61.54,1.45,1.42,1.64"/>
      <path class="cls-1" d="M144.49,127.78l-.05.06c-.31,0-.62.01-.92.01-.24,0-.49,0-.73,0-3.06-.02-6.13-.03-9.19-.05h-.18c-.31,0-.58.1-.84.24-.05.02-.11.05-.16.08,0,0,0,0,0,0h0s-.06-.06-.08-.09c.08-.15.17-.3.25-.45.02,0,.03-.01.05-.02.19-.06.39-.13.58-.19.02-.01.05-.02.08-.03.35.38.81.22,1.22.22,2.91.01,5.81,0,8.72.01.42,0,.87-.11,1.25.2"/>
      <path class="cls-2" d="M128.56,116.67h.24c.17.86.27,1.72.23,2.6.13.14.12.29.08.45-.36.3-.52-.6-.91-.16-.33-.12-.38-.41-.46-.69.04-.51-.1-1.02.09-1.52.06-.42.55-.39.73-.68"/>
      <path class="cls-16" d="M145.65,136.12c-.91.15-1.9-.03-2.68.68-.12.11-.41.07-.51-.14-.11-.22.07-.36.23-.47.31-.22.78-.25.82-.75.46-.47.94-.18,1.42-.04.32.16.58.38.72.72"/>
      <path class="cls-1" d="M144.93,133.99s-.03,0-.04.01h0s-.07.03-.1.04c-.15-.03-.26-.11-.32-.25l-.05-.08c.16-.16.3-.33.39-.52.1-.2.16-.43.14-.7-.02-.42-.03-.83-.04-1.25-.01-.59-.01-1.17-.02-1.76v-.72c.11-.36-.12-.56-.33-.77-.05-.05-.09-.1-.13-.15h0s.05-.07.05-.07c.15.02.29.03.44.04h0c.06,0,.11,0,.16,0,.25.04.2.24.08.47.19,1.91.14,3.81-.24,5.69"/>
      <path class="cls-42" d="M129.01,119.74c0-.15.01-.31.02-.46.39.63.42,1.42.93,1.99.21.24.28.47.03.72-.13.13-.27.33-.49.19-.32-.21-.08-.49-.07-.74,0-.1-.08-.2-.19-.43-.36.67-.13,1.27-.21,1.84-.44-.51-.14-1.12-.23-1.67-.14-.13-.17-.3-.16-.48.07-.34.1-.69.37-.96"/>
      <path class="cls-10" d="M148.73,154.16c-1.37.23-1.33-.76-1.42-1.65.24,0,.47,0,.71,0,0,.34.2.56.5.7.47.22.44.55.22.94"/>
      <path class="cls-25" d="M133.54,135.36c.16.02.31.05.47.07.16.61-.45.64-.71.93-.53-.04-1.15.18-1.45-.52.41-.67,1.12-.32,1.68-.48"/>
      <path class="cls-39" d="M149.2,129.74c.5,1.36.2,2.75.17,4.13,0,.45-.51.38-.86.38,1.2-.88.58-2.15.66-3.26.03-.41-.17-.84.03-1.25"/>
      <path class="cls-7" d="M136.39,114.77c.2-.7-.44-1.58.44-2.14.03.71.05,1.41.08,2.12-.17,0-.35.01-.52.02"/>
      <path class="cls-56" d="M144.93,135.4c-.47.01-.95.02-1.42.04-.15-.02-.31-.04-.46-.06.47-.25.34-1.46,1.35-.82.02.05.04.1.06.15-.04.36.32.46.47.7"/>
      <path class="cls-15" d="M135.45,113.11h.24c.39.49.21,1,.11,1.66-.59-.56-.26-1.15-.35-1.66"/>
      <path class="cls-39" d="M148.54,127.12c-.03.78-.06,1.56-.1,2.34-.25-.79-.85-1.6.1-2.34"/>
      <path class="cls-56" d="M144.93,133.99c.31.03.56.17.4.5-.17.36-.52.4-.87.21h0c-.33-.56.19-.56.48-.71h0Z"/>
      <path class="cls-29" d="M134.25,112.87c.12.62-.23,1.31.24,1.89-.15.26-.31.25-.47.01.1-.63-.23-1.31.23-1.9"/>
      <path class="cls-8" d="M130.7,127.82c-.16,0-.32,0-.48,0,.15-.74.74-.49,1.13-.42.21.04-.16.25-.18.42-.16.13-.31.15-.47,0"/>
      <path class="cls-42" d="M130.22,126.64c.17-.28.45-.23.71-.24-.03.25.07.59-.3.66-.31.06-.38-.18-.41-.42"/>
      <path class="cls-38" d="M143.51,127.11c-.25.08-.5.17-.76.22-.14.02-.34-.05-.3-.24.02-.09.23-.14.35-.22.26.01.54-.04.71.24"/>
      <path class="cls-47" d="M130.7,127.82c.16,0,.31,0,.47,0,.3.05.6.1.24.48-.08,0-.16,0-.24,0-.3-.01-.47-.16-.47-.48"/>
      <path class="cls-61" d="M130.22,119.22c-.1.07-.19.18-.25.16-.08-.02-.17-.14-.18-.22-.01-.16.08-.3.26-.24.07.02.1.17.16.3"/>
      <path class="cls-4" d="M141.61,125.7c.24,0,.48,0,.72,0-.24.36-.48.72-.72,0"/>
      <path class="cls-58" d="M145.17,128.3c-.01-.19-.05-.37-.24-.47,0-.08,0-.16,0-.24.14,0,.38-.06.4,0,.12.26.1.53-.17.72"/>
      <path class="cls-20" d="M145.24,157.14h-11.05c0-.08,0-.16,0-.24h11.05c0,.08,0,.16,0,.24"/>
      <path class="cls-18" d="M147.54,158.19c.16,0,.33,0,.49.01-.4.49-.96.51-1.52.51-5.25,0-10.5,0-15.75,0-.57,0-1.1-.09-1.53-.5.69-.45,1.24.23,1.87.23,4.91,0,9.82,0,14.73-.02.17,0,.34-.15.51-.23.25-.25.55-.29.88-.21.12.04.23.11.31.2"/>
      <path class="cls-57" d="M147.3,158.19c-.32,0-.63,0-.95,0-.41-.59-.7-1.2-.24-1.89.36-.36.78-.59,1.27-.69,1.18.14,1.24.22.94,1.23-.25.18-.55.21-.84.23-.98.22.13.79-.19,1.12"/>
      <path class="cls-17" d="M128.8,153.69c.31-.12.36-.81.75-.55.42.28.23.87.12,1.3-.08.35-.2.86-.7.8-.45-.05-.42-.49-.42-.85-.24-.34-.08-.55.24-.71"/>
      <path class="cls-52" d="M144.18,155.14c0,.5-.31.67-.75.68-.42.01-.83-.09-.83-.59,0-.48.35-.76.82-.82.51-.06.63.35.75.72"/>
      <path class="cls-5" d="M134.44,155.09c-.14.53-.38.78-.87.73-.4-.04-.72-.18-.69-.63.04-.44.34-.74.78-.75.46-.02.65.35.78.66"/>
      <path class="cls-53" d="M147.31,155.82c-.37.21-.69.57-1.19.48-.18-.04-.46-.03-.53-.14-.17-.26.13-.24.27-.34.96-.66,2.05-.46,3.1-.47v.95c-.57-.08-.91-1-1.66-.47"/>
      <path class="cls-23" d="M139.23,155.07c-.04.5-.26.73-.68.74-.48,0-.73-.25-.72-.73.01-.42.25-.65.67-.66.49-.01.7.27.73.65"/>
      <path class="cls-44" d="M129.27,157.72c-.26-.27-.57-.5-.48-.95.13-.67.46-.41.69-.11.3.39.55.85-.21,1.06"/>
      <path class="cls-6" d="M128.8,153.69c-.08.24-.16.47-.24.71-.08,0-.16,0-.24,0-.39-.34-.19-.77-.21-1.18.34-.01.56.17.69.46"/>
      <path class="cls-35" d="M128.79,132.56c0,.47,0,.94.01,1.42-.65,0-.91-.49-1.2-.95.02-.15.03-.31.05-.46.21-.22.51-.04.74-.14.15-.02.29.01.4.14"/>
      <path class="cls-28" d="M127.83,117.36c0,.56,0,1.12.01,1.67-.06.08-.13.09-.2.02-.03-.48-.05-.96-.07-1.43.09-.09.18-.17.26-.26"/>
      <path class="cls-13" d="M127.75,127.48s-.04.07-.07.1h0s-.05.05-.09.06c0,.02-.02.02-.04.02,0-.03.02-.06.04-.09.01-.23.01-.46.03-.69-.02-.02-.02-.05-.04-.08,0-.05,0-.1-.02-.16l.06.02c.16.24.24.51.12.8"/>
      <path class="cls-13" d="M127.91,131.4h0c0,.07-.02.12-.02.19,0,.09-.02.17-.03.26-.01.07-.03.15-.05.22-.02.06-.05.12-.1.17-.01.02-.03.04-.05.05,0,0,0,0-.02.02,0-.71-.02-1.4-.02-2.1,0-.02-.02-.02-.02-.04,0,0,.02.02.02.02.04.02.07.03.1.06.02.05.05.1.07.16h0c.06.17.1.34.12.5.02.17.02.34,0,.5"/>
      <path class="cls-24" d="M127.65,125.43c-.09-.08-.18-.15-.26-.23-.01-.07,0-.14.02-.21.13-.04.2-.11.16-.25v-.12c0-.4,0-.79,0-1.19,0-.37,0-.74,0-1.12,0-.23,0-.46,0-.69v-.44h.09c.4.51.1,1.11.21,1.66,0,0,0,.01,0,.01-.13.85.23,1.75-.22,2.57"/>
      <path class="cls-9" d="M128.32,132.56c-.22.28-.45-.07-.68,0-.04-.07-.07-.14-.08-.22l.08-.05c.14-.19.08-.62.53-.47.24.2.39.43.15.73"/>
      <path class="cls-36" d="M128.8,120.71c0,.16,0,.31,0,.47-.24.16-.47.31-.71.47.01-.42-.07-.78-.51-.96.03-.31.06-.61.09-.92.37-.08.5.5.91.34.33.11.41.3.23.6"/>
      <path class="cls-30" d="M128.33,120.23c-.52.28-.39-.38-.66-.45-.01-.24-.02-.48-.02-.72.07,0,.13-.01.2-.02.16.16.32.32.48.48.21.23.19.47.01.71"/>
      <path class="cls-34" d="M127.41,124.99c-.19-.03-.45-.09-.45-.3-.01-1.1-.31-2.22.17-3.29.14-.07.29-.15.43-.22v.44c0,.23,0,.46,0,.69,0,.37,0,.74,0,1.12,0,.4,0,.79,0,1.19v.12c.05.15-.03.22-.16.25"/>
      <path class="cls-11" d="M138.65,140.16c-1.5,0-3,0-4.5,0-.34,0-.77.07-.77-.47,0-.54.43-.47.77-.47,3,0,6,0,9,0,.34,0,.77-.07.77.47,0,.54-.43.46-.78.47-1.5,0-3,0-4.5,0"/>
      <path class="cls-41" d="M138.65,148.49c-1.5,0-3,0-4.5,0-.3,0-.71.08-.76-.35-.05-.47.32-.59.7-.59,3.04,0,6.08,0,9.12,0,.39,0,.75.13.7.6-.05.44-.46.35-.76.35-1.5,0-3,0-4.5,0"/>
      <path class="cls-41" d="M138.69,145.59c1.46,0,2.92,0,4.38,0,.33,0,.82-.14.83.39.02.55-.46.55-.86.55-2.96,0-5.92,0-8.88,0-.37,0-.77-.04-.77-.52,0-.55.47-.42.8-.42,1.5-.01,3,0,4.5,0"/>
      <path class="cls-5" d="M138.7,143.46c1.46,0,2.92,0,4.38,0,.32,0,.8-.15.82.4.02.47-.37.54-.75.54h-9.01c-.38,0-.77-.06-.76-.53,0-.56.49-.41.81-.41,1.5-.01,3,0,4.5,0"/>
      <path class="cls-43" d="M138.76,141.34c1.46,0,2.93,0,4.39,0,.35,0,.77-.07.78.47,0,.54-.43.47-.77.47-2.96,0-5.93,0-8.89,0-.38,0-.77-.02-.78-.5-.02-.55.45-.44.78-.45,1.5-.01,3,0,4.51,0"/>
      <path class="cls-5" d="M138.65,138.04c-1.5,0-2.99,0-4.49,0-.28,0-.72.13-.74-.34-.02-.4.26-.61.7-.61,3.03,0,6.06,0,9.09,0,.34,0,.67.08.68.49.02.56-.43.45-.76.46-1.49.01-2.99,0-4.49,0"/>
      <path class="cls-50" d="M144.93,133.99c-.14.25-.51.34-.48.71-.89-.65-.82.69-1.41.67-.32,0-.64,0-.96,0,.06-.42.62-.63.47-1.14.67-.04,1.37.1,1.92-.44.15.07.3.13.46.2"/>
      <path class="cls-33" d="M133.31,136.36c.21.03.51-.08.58.2.07.27-.21.26-.38.26-.4,0-.25-.25-.19-.46"/>
      <path class="cls-51" d="M138.52,119.28c1.46,0,2.92,0,4.38,0,.38,0,.91-.1.95.43.04.57-.49.51-.87.51-2.96,0-5.92,0-8.88,0-.35,0-.77.05-.76-.49.02-.53.45-.45.79-.45,1.46,0,2.92,0,4.38,0"/>
      <path class="cls-19" d="M138.66,123.54c1.5,0,2.99,0,4.49,0,.27,0,.73-.15.71.35-.01.4-.31.59-.73.59-2.99,0-5.98,0-8.97,0-.37,0-.77-.07-.77-.53,0-.55.48-.41.8-.41,1.49-.02,2.99,0,4.49,0"/>
      <path class="cls-49" d="M138.59,121.41c1.46,0,2.92,0,4.38,0,.35,0,.77-.03.74.51-.02.45-.38.43-.7.43-2.92,0-5.85,0-8.77,0-.4,0-.88-.01-.87-.55,0-.54.51-.38.82-.39,1.46-.02,2.92,0,4.38,0"/>
      <path class="cls-50" d="M144.45,125.7c-.39.36-.78.7-1.18,0,.39,0,.78,0,1.18,0"/>
      <path class="cls-34" d="M144.96,132.5c.01.27-.04.5-.14.7-.09.19-.23.35-.39.52h-.04c-3.58,0-7.17,0-10.76.02-.72,0-1.31-.17-1.31-1,0-1.38-.13-2.76.04-4.13.02-.16.04-.32.07-.48h0s0,0,0,0c.05-.03.11-.06.16-.08.26-.13.52-.24.83-.24h.18c3.06.02,6.13.04,9.19.05.24,0,.49,0,.73,0,.31,0,.62,0,.92-.01h0c.04.05.08.1.13.15.2.21.43.41.33.77v.72c.01.59.01,1.17.02,1.76,0,.42.02.83.04,1.25"/>
      <polyline class="cls-37" points="132.43 128.12 132.43 128.13 132.43 128.13 132.43 128.12"/>
      <path class="cls-62" d="M147.31,155.82c.78-.62,1.21-.06,1.66.47.02.41-.04.77-.48.95-.14-.13-.26-.27-.23-.47.32-.96-.32-.95-.95-.95"/>
      <path class="cls-45" d="M148.25,156.77c.19.1.23.28.23.47-.08,0-.15,0-.23,0-.27.33-.51.82-1.03.46-.41-.29-.38-.66.08-.93.32,0,.63,0,.95,0"/>
      <path class="cls-62" d="M147.31,156.77c-.13.28-.34.58.04.81.42.25.59-.26.91-.33.05.53-.48.63-.71.94h-.24c-.15-.47-1.49-.95,0-1.42"/>
      <path class="cls-22" d="M128.32,132.56c-.08-.24-.16-.47-.24-.71-.74-.79-.1-1.67-.18-2.5.21-.36.41-.72.66-1.05.08,0,.16,0,.24,0,0,1.42,0,2.85,0,4.27h-.47Z"/>
      <path class="cls-14" d="M127.64,132.3s-.05.04-.07.06c-.56,0-.89-.22-.89-.83,0-1.36,0-2.72-.02-4.08,0-.62.35-.82.9-.79,0,.05.02.11.02.16.02.03.02.05.04.08-.02.23-.02.46-.03.69-.02.03-.03.05-.04.09.02,0,.03,0,.04-.02,0,.84.02,1.69.02,2.54,0,0,0,0-.01-.02,0,.02,0,.02.01.04,0,.7.02,1.39.02,2.1"/>
      <path class="cls-59" d="M127.91,130.9c-.02.17-.02.34,0,.5h0c.02.14.07.27.15.41,0,0,0,.02,0,.02,0,0,.02.02.02.02-.12.12-.25.25-.38.38-.02.02-.05.05-.07.07h0c0-.71-.02-1.41-.02-2.1,0-.02-.02-.02-.02-.04,0,0,.02.02.02.02,0-.85-.02-1.7-.02-2.54,0,.02-.02.02-.04.02,0-.03.02-.06.04-.09.02-.23.02-.46.03-.69,0-.07,0-.14,0-.21.45.18.51.5.34.92-.13.32-.21.66.11.93.03.03.05.07.08.1.03.05.05.11.07.16.02.15-.02.31-.14.46.15.55-.11,1.1-.18,1.65"/>
      <path class="cls-55" d="M128.08,129.25c0-.24,0-.48,0-.72.11-.19.29-.23.49-.23-.04.38.16.87-.48.95"/>
      <path class="cls-21" d="M128.33,120.23c0-.24,0-.47-.01-.71.06-.27-.12-.61.23-.83.47.21.05.83.46,1.05,0,.34.12.7-.21.97-.01-.3-.16-.47-.47-.48"/>
      <path class="cls-3" d="M127.59,127.58v.06s-.02.02-.04.02c0-.03.02-.06.04-.09"/>
      <path class="cls-3" d="M127.62,130.18v.02s-.02-.02-.02-.04c0,0,.02.02.02.02"/>
      <path class="cls-50" d="M149.04,40.32c.38-.19.63-.49.67-.91.11-1.13.12-2.27,0-3.41-.02-.2-.08-.44-.24-.52-1.13-.52-.84-1.53-.85-2.43,0-.9.01-1.8.1-2.7.13-1.38-.4-2.2-1.5-2.55-.61,0-1.68.28-1.7-.22-.04-1.14-.75-2.06-.78-3.09-.09-3.71-.01-7.42,0-11.14-.02-3.48-.75-6.92-.48-10.41.06-.71-.02-1.42.02-2.13.05-.74-.33-.88-.94-.79-.33.33-.16.75-.16,1.12-.02,2.28,0,4.56,0,6.84,0,.31.1.67-.06.93-.77,1.33-.33,2.74-.36,4.12.01,3.87,0,7.73.06,11.6,0,.64-.38.75-.74,1-.32.42-.19.91-.22,1.37-.02.42-.2.67-.65.64-1.33-.07-2.68.18-3.99-.21-.1,0-.2-.01-.3-.03-.08-.01-.15-.04-.23-.08-.02-.03-.04-.05-.06-.08-.22-.34-.09-.77-.2-1.14-.01-.04-.02-.08-.04-.11-.2-.43-.45-.82-.8-.09,0,.07.02.13.03.2,0,.02,0,.04,0,.05.04.16.08.32.07.49,0-.17-.04-.33-.08-.48,0-.02-.01-.04-.02-.06,0-.03-.02-.07-.02-.1,0-.13,0-.27-.09-.38,0-.01-.03-.03-.04-.04,0,0-.01,0-.02-.01-.66.19-.34.75-.44,1.09-.13-.3.25-.93-.45-1h0s-.08,0-.12,0c-.04.06-.07.12-.09.18-.02.04-.03.08-.04.12-.01.04-.03.08-.03.13,0,.05-.02.1-.03.15-.04.35.01.72-.03,1.07,0,.02,0,.04-.01.06h0c-.02.09-.07.15-.12.2-.12.09-.3.13-.42.22-.4.2-.84.09-1.26.11-.96.04-1.95-.16-2.85.35-.14.09-.28.17-.42.26-.33.3-.33.76-.5,1.13,0,.01,0,.03,0,.04.01.86.15,1.7.25,2.55.03.16.07.31.12.47h0s.02.06.02.08c0,0,0,0,0,.01.01.04.03.09.04.14.13.42.31.83.54,1.22-.1-.14-.23-.24-.46-.19-.14.03-.21.14-.25.26-.01.04-.02.06-.03.09h0s0,.01,0,.02c-.01.07-.02.14-.03.21-.05.46-.05.93-.03,1.4.02.24.07.46.19.67.02.02.04.04.06.06.04.03.07.07.1.11.29.38.34.88.6,1.27.02.03.04.06.06.09.01.02.02.03.04.05.79.82,1.76,1.13,2.88,1.08,2.36-.11,4.73.13,7.12-.14.12-.11.29-.08.49-.06-.16.02-.32.04-.49.06-.05.04-.09.1-.11.18.02.03.04.05.06.07,0,0,0,0,.01.01.33.37.79.33,1.22.35t0,0h0c.11,0,.21.02.31.04.02,0,.04,0,.06-.01.59-.1,1.25-.09,1.34-.93,0-.03-.01-.04-.03-.07h0s-.02-.05-.04-.07c-.04-.05-.09-.08-.16-.1-.47.14-.89-.09-1.32-.21-.55-.09-1.1-.06-1.66-.06-2.13,0-4.27,0-6.4,0-.43,0-.89.09-.85-.62.09-1.86.02-3.72.04-5.57.01-.71.28-1.13,1.04-1.13,3.6-.03,7.2-.03,10.8,0,.63,0,.95.32.94.95-.03,2.13.16,4.27-.12,6.4-.04.13-.05.24-.04.35,0,.02,0,.04.01.06.04.14.14.26.33.35-1.54.06-1.94.19-2.46.78,0,0,0,0,0,0,.02.03.05.05.07.07,0,0,0,0,0,0,.05.05.11.09.17.13.07.04.15.08.23.11.08.03.16.05.24.08.47.09.9.3,1.36.45.04,0,.07.02.1.02,0,0,.02,0,.03.01.06.02.11.04.14.07.07.06.06.13.03.21-.07.17-.27.35-.15.49,0,.91-.02,1.82-.06,2.72,0,.42.02.83.04,1.25.01.27-.04.5-.14.7-.01.19-.02.37-.04.55.05.08.08.15.1.22h0s0,.02.01.04h0s0,.02,0,.03c.07.31-.14.51-.41.68-.01.01-.03.02-.04.03-.02.01-.04.03-.06.04-.07.19-.03.34.06.46.04.06.09.11.15.17.07.07.15.13.22.2.13.12.26.24.37.38.05.05.09.11.13.17.09.13.15.28.18.46.07,3.71.04,7.41.03,11.12,0,1.55-.24,1.77-1.81,1.78-3.31.01-6.63.02-9.94,0-1.69-.01-1.97-.3-1.98-2.04-.01-3.24,0-6.47,0-9.71,0-.51-.02-1.03.2-1.51.03-.04.06-.08.09-.11.08-.08.16-.15.24-.2.42-.26.94-.22,1.41-.34h0c.11-.01.21-.02.32-.03,2.02-.18,4.05-.01,6.07-.08.37-.01.77.03,1.13-.13.05-.02.11-.05.16-.09,0,0,0,0,0,0,.09-.06.17-.13.26-.22-.48-.5-1.04-.45-1.58-.46-1.74-.01-3.48,0-5.22-.02-.34,0-.82.2-.98-.35,0,0,0-.01,0-.02,0-.02-.01-.04-.02-.05h0c-.14-.39-.51-.36-.84-.44-.36-.08-.75-.27-.75-.65-.02-1.49-.3-2.99.09-4.46.02-.16.04-.32.07-.48h0s0,0,0,0c.05-.03.11-.06.16-.08.06-.13.09-.26.08-.41h0s-.02-.05-.03-.07c-.1-.2-.24-.35-.41-.49-.02-.01-.04-.03-.06-.04-.02-.01-.03-.02-.05-.04-.45-.11-.72-.54-1.17-.66-.02.02-.04.04-.06.06-.19.18-.4.27-.65.18-.05-.02-.11-.05-.16-.08-.13-.01-.25,0-.35.09,0,0-.02,0-.02.02-.02.02-.04.04-.06.06-.01.12-.02.24-.02.35-.02-.13-.05-.26-.07-.39-.05-.23-.15-.48-.45-.44-.06,0-.1.03-.14.06-.1.08-.14.21-.17.34h0s0,.03-.01.04c-.1.35-.08.7-.08,1.06,0,.2,0,.4,0,.6v.14c0,1.36,0,2.72.02,4.07v.06c0,.46.02.91.03,1.37v.05s0,.05,0,.08h0c.04.22.11.41.24.57.02.02.04.04.06.06.11.11.22.24.26.37,0,0,0,.02,0,.03.03.07.03.16,0,.25,0,0,0,.01,0,.02-.01.03-.02.06-.04.1-.09.17-.16.34-.21.51v.05c-.23.78-.12,1.54-.13,2.34-.05,4.61.08,9.23-.07,13.84.25.76.92.67,1.48.67,5.21.01,10.41.06,15.62-.02h.08s.09,0,.14,0c.38,0,.77.02,1.15-.02h0s.1,0,.15,0c.16,0,.32-.04.46-.09.03-.01.06-.03.09-.04.06-.02.11-.06.17-.1.14-.14.23-.29.29-.45.16-.42.08-.9.08-1.35.04-5.33-.05-10.66.05-16,.05-.12.11-.24.16-.36.06-.06.12-.12.18-.19.18-.22.32-.46.41-.72,0,0,0,0,0-.01.1-.29.14-.62.13-.96-.01-.33-.02-.65-.03-.98v-.02c-.01-.31-.03-.62-.06-.93h0c-.03-.29-.06-.56-.12-.84-.14-.24-.42-.33-.6-.53-.08-.18-.16-.35-.23-.54h0c-.14-.39-.22-.75.05-1.06.11-.12.27-.24.52-.34M131.37,47.27c-.12-1.33.04-2.67.04-4.01.03,1.33-.06,2.67-.04,4.01M131.3,41.63c.08.52.11,1.04.11,1.56-.01-.52-.05-1.04-.11-1.56M129.73,40.5c.06.14.17.27.35.37.04-.02.08-.04.12-.07.01,0,.02-.01.03-.02.28-.17.55-.4.88.01,0,0,0,.02.01.02,0,.01.01.02.02.03h0c.07.13.13.27.16.41,0,.01,0,.03,0,.04.02.09.02.19,0,.3-.01-.1-.02-.19-.04-.28,0,0,0-.01-.01-.02,0-.01-.01-.02-.02-.03-.09-.13-.18-.25-.29-.35-.04-.04-.08-.07-.12-.1t0,0s0,0,0,0t0,0s0,0,0,0c-.06-.04-.1-.08-.17-.11-.15-.03-.28,0-.39.09h-.01s-.05.05-.07.08c-.11-.04-.16.71-.33.02-.03-.13-.06-.27-.08-.4-.07-.15-.09-.31-.09-.48.03.16.06.32.09.48"/>
      <path class="cls-62" d="M129.07,65.01c.09.78.71.48,1.11.48,5.31.03,10.63.02,15.94.03.24,1.69,1.53,2.08,2.92,2.36.08.16.08.32,0,.48-.43.4-.96.27-1.46.27-.61,0-1.17.05-1.4.73-.16.43.07.81.15,1.21.07.36.29.73-.13,1.03-.57.27-1.17.07-1.75.08-3.62.04-7.23-.03-10.85.1-1.37.05-2.74.08-4.08-.32-.2-.03-.39-.09-.53-.26-.09-.18-.08-.35.04-.51.13-.18.37-.32.27-.6-.15-.38-.46-.16-.71-.18-.73-.7-.62-1.55-.41-2.41.07-.1.16-.15.28-.16.29,0,.47.75.82.17.14-.22.52-.77-.28-.75-.34.06-.56-.17-.81-.33-.08-.07-.13-.15-.17-.24.11-.21.22-.41.33-.62.25-.59.34-1.19.34-1.84-.02-4.93-.02-9.86,0-14.79,0-.59-.25-1.16-.04-1.75.08-.14.21-.21.38-.2.01.16.03.32.04.48.17.23.28.48.26.77-.42,5.32-.07,10.64-.19,15.96,0,.28.04.55-.08.82"/>
      <path class="cls-54" d="M134.02,27.77c-.57.36-1.22.26-1.84.24-.9-.02-1.79.05-2.68.23.73-.72,1.65-.45,2.47-.38,1.24.1,1.87-.23,1.66-1.57-.03-.21.08-.45.13-.67.29-.14.51-.12.54.27-.19.62.17,1.32-.29,1.89"/>
      <path class="cls-18" d="M129,71.02c-.96-.7-1.18-1.69-1.14-2.8.02-.43-.02-.86-.04-1.29.07-.25-.03-.55.21-.74l.09.05c.29.35.3.76.21,1.17.06.81-.19,1.68.48,2.37.27.26.56.51.48.95-.09.1-.18.2-.27.3"/>
      <path class="cls-60" d="M135.41,25.66c-.52.66.07,1.52-.42,2.27-.62-.71.08-1.64-.48-2.27-.07-.04-.1-.08-.08-.13.02-.05.04-.08.06-.08.32,0,.64,0,.95,0,.06.05.07.1.04.14-.03.04-.05.05-.07.05"/>
      <path class="cls-31" d="M135.41,25.66c.02-.06.03-.13.03-.19.08-.03.16-.07.24-.1.39.01.77.03,1.16.04.02.08.02.15,0,.23-.48.64.08,1.5-.44,2.14-.46-.49-.12-1.11-.25-1.66-.13-.53-.29-.53-.44,0-.08.08-.16.08-.24,0-.01-.15-.02-.3-.04-.45"/>
      <path class="cls-40" d="M134.49,25.46c0,.07.01.14.02.2-.01.7-.02,1.4-.03,2.1-.72-.55-.26-1.25-.24-1.89-.1-.2-.29-.23-.48-.26.18-.31.46-.19.73-.16"/>
      <path class="cls-30" d="M127.9,35.89s-.02-.02-.03-.03c0,0,0,0,0,0-.16-.17-.25-.35-.3-.54,0-.23,0-.46,0-.69.02-.15.06-.29.09-.44-.1-.09-.2-.19-.31-.28,0-.07.02-.13.02-.2.07,0,.14-.01.21-.02.53-.04.67.26.75.61,0,.05.02.11.03.17,0,.06.02.13.03.19-.03.46.11.99-.5,1.23"/>
      <path class="cls-27" d="M145.65,49.12c.34.32.22.74.22,1.12,0,3.59,0,7.19,0,10.78,0,1.66-.24,1.9-1.93,1.9-3.55,0-7.11,0-10.66,0-1.46,0-1.86-.37-1.86-1.78,0-3.67,0-7.34,0-11.02,0-.47-.06-.97.44-1.27.45.11.91.2,1.33.39.06.05.11.09.13.11-.05-.05-.06-.11-.04-.21.32-.33.52-.81,1.06-.84,2.09,0,4.17,0,6.26,0,.43,0,.87.05,1.28-.14.34-.08.68-.08,1.03-.05.19.02.37.07.53.16.49.51-.06.74-.42,1.21.93-.67,1.78-.66,2.64-.36"/>
      <path class="cls-62" d="M142.56,38.7h-.12s-.12,0-.12,0c-.24.15-.48.19-.72,0-2.96,0-5.92-.03-8.88,0-.68,0-.92-.09-.88-.88.09-2.01.06-4.03.02-6.04-.02-.88.31-1.18,1.18-1.18,3.79.03,7.58.02,11.37,0,.65,0,1.04.09,1.02.89-.04,2.13-.01,4.26-.01,6.39,0,.36.02.74-.48.8-.14.15-.32.22-.51.26-.39.05-.77.04-1.16.03-.27-.01-.5-.11-.71-.29"/>
      <path class="cls-48" d="M142.09,48.36c-2.69.02-5.38.05-8.07.07-.18.12-.34.1-.47-.07,1.07-.41,2.18-.14,3.27-.17,1.51-.05,3.03-.01,4.54-.25-2.28,0-4.56,0-6.84,0-.39,0-.83.08-1.1-.28-.48-.63.19-.34.38-.43.17-.18.39-.29.62-.29,2.65-.02,5.3-.17,7.95.08.77.62.24.98-.27,1.35"/>
      <path class="cls-8" d="M145.84,39.09c0,.33-.22.45-.57.37-.88-.2-1.68.08-2.47.41.01.04.02.07.04.09,0,0,0,0,0,0,.04.09.1.12.17.13.16.02.37-.09.5.02.56-.1,1,.16,1.43.48.03.06.04.12.03.17,0,.02-.01.04-.02.06,0,0,0,0,0,0-.02.04-.06.08-.12.11-.08.04-.17.06-.25.06-.04-.05-.09-.09-.13-.15h0c-.31,0-.62,0-.92.01-.24,0-.49,0-.73,0-3.06-.02-6.13-.03-9.19-.05h0c-.13-.07-.25-.18-.35-.36,0-.02-.02-.03-.03-.05,0,0,0-.01,0-.02.11-.39.34-.53.61-.58,0,0,0,0,.01,0,.09-.02.19-.02.29-.02.01,0,.02,0,.04,0,.13,0,.27,0,.39,0,.9-.02,1.8-.02,2.7-.02.94,0,1.88,0,2.83,0,.28,0,.58.04.86,0t0,0h0c.14-.02.27-.05.41-.12.32-.41,1.21-.09,1.19-.93h.05c.22,0,.44,0,.67,0,.39.29.79.19,1.18,0,.14,0,.28,0,.42,0h.07c.13.07.25.17.39.2.19.04.52-.23.51.19"/>
      <path class="cls-1" d="M144.39,46.71c-.02.08-.04.14-.07.21h0c-.09.21-.21.35-.37.45h0s0,0,0,0c-.08.04-.16.07-.26.08-.28.04-.63-.04-1.1-.21h0s-.01,0-.02,0c-2.89,0-5.79,0-8.68,0h-.1c-.19-.28-.47-.21-.75-.21-.64.01-1.09-.36-1.12-.94-.07-1.46-.03-2.92-.02-4.39,0-.3.2-.5.45-.65.03.03.06.06.09.09,0,0,0,0,0,0h0c-.03.16-.05.32-.07.48-.17,1.37-.04,2.75-.04,4.13,0,.83.6,1,1.31,1,3.59-.02,7.17-.02,10.76-.03"/>
      <path class="cls-57" d="M149.4,66.05c-.03,1.49.28,3.01-.43,4.43-.31.24-.62.48-.93.72-.14.11-.3.11-.46.07-.22-.55.37-.68.53-1.04.07-.08.14-.15.22-.21.32-.23.36-.57.36-.93,0-.28.07-.54.28-.75v-.47c-.21-.19-.31-.44-.37-.71.14-.67-.96-.9-.58-1.65.39-.4.22-.9.22-1.35.01-5.21,0-10.41.02-15.62,0-.44-.23-.96.27-1.31-.02,5.87-.02,11.73-.07,17.59,0,.74.66.8.94,1.22"/>
      <path class="cls-8" d="M132.12,40.11c-.65.18-.91-.27-1.19-.71-.19.22-.43.28-.71.24h-.47c-.38-.55-.46-1.11,0-1.66,1.46,1.24,3.23.94,4.93.95,2.14,0,4.29,0,6.6,0-.57.44-1.19,0-1.56.47-.49.46-1.1.32-1.67.35-1.98.07-3.98-.21-5.92.37"/>
      <path class="cls-46" d="M132.12,40.11c.46-.67,1.17-.7,1.86-.7,1.91-.02,3.82,0,5.73,0,.56.02,1.14-.09,1.66.24-.11.66-.64.46-1.04.47-1.97.02-3.95,0-5.92.01-.38,0-.8-.13-1.11.23-.17.3-.36.49-.71.24-.31,0-.47-.17-.47-.48"/>
      <path class="cls-26" d="M128.97,39.25c-.03.16-.05.32-.06.49-.03.42,0,.85,0,1.27,0,.13-.03.25-.11.36-.03.02-.06.05-.09.06-.02,0-.02.02-.04.02-.04.02-.08.05-.12.06h0c-.06.03-.13.06-.19.07h0c-.06.02-.12.03-.2.04h-.02s-.04,0-.05,0c-.43-.08-.46-.43-.42-.78,0-.09.02-.17.02-.26h0c.02-.24.04-.47-.05-.7-.02-.02-.02-.05-.04-.08,0-.05,0-.1-.02-.16.03-.41.05-.82.09-1.22,0-.27-.05-.54-.09-.81v-1.19c.05-.2.14-.39.29-.57t0-.02c.36-.34.16-.79.23-1.19.09-.09.16-.24.23-.35.1-.15.22-.24.46-.12,0,0,0,0,.02,0,.01.02.03.02.05.03.01,0,.02.02.05.03.1.52-.12,1.08.13,1.58,0,0,0,0,0,.02,0,.24,0,.47,0,.71.02.07.05.15.06.23.2.83,0,1.65-.12,2.47"/>
      <path class="cls-42" d="M128.8,41.3c.13-1.58-.25-3.18.23-4.75.96.11.66.86.72,1.42,0,.55,0,1.11,0,1.66-.02.47.1.88.47,1.19-.11.4-.22.8-.35,1.28-.35-.93-.19-1.9-.84-2.69v7.57h-.11s-.11,0-.11,0h-.01c-.4-.44-.34-.97-.34-1.49-.04-1-.04-2,0-3,.01-.42.02-.85.34-1.19"/>
      <path class="cls-42" d="M129.07,65.01c0-5.85,0-11.7,0-17.55.94.04.8.68.51,1.15-.32.52-.31,1.04-.31,1.58,0,4.53,0,9.05,0,13.58,0,.42.15.87-.2,1.24"/>
      <path class="cls-12" d="M131.41,41.3c.43,1.42.23,2.88.19,4.32-.02.53-.13.97.35,1.34.52.39.04.55-.21.76-.32.27-.62.2-.73-.18-.13-.44-.33-.98-.19-1.36.52-1.34.53-2.64,0-3.95-.18-.44.42-.55.34-.93.08-.06.16-.06.24,0"/>
      <path class="cls-32" d="M148.73,67.16c.28.17.23.45.24.71-1.57.32-3.33-.9-2.85-2.36h1.19c.41.61.54,1.45,1.42,1.65"/>
      <path class="cls-1" d="M144.49,40.78l-.05.06c-.31,0-.62,0-.92.01-.24,0-.49,0-.73,0-3.06-.02-6.13-.03-9.19-.05h-.18c-.31,0-.58.1-.84.24-.05.03-.11.05-.16.08,0,0,0,0,0,0h0s-.06-.06-.08-.09c.08-.15.17-.3.25-.45.02,0,.03-.01.05-.02.19-.07.39-.13.58-.19.02,0,.05-.02.08-.03.35.38.81.22,1.22.22,2.91.01,5.81,0,8.72.01.42,0,.87-.11,1.25.2"/>
      <path class="cls-2" d="M128.56,29.67h.24c.17.86.27,1.73.23,2.6.13.14.12.29.08.46-.36.3-.52-.6-.91-.16-.33-.12-.38-.41-.46-.69.04-.51-.1-1.03.09-1.52.06-.42.55-.39.73-.68"/>
      <path class="cls-16" d="M145.65,49.12c-.91.15-1.9-.03-2.68.68-.12.11-.41.07-.51-.14-.11-.22.07-.36.23-.47.31-.21.78-.25.82-.75.46-.47.94-.18,1.42-.03.32.16.58.38.72.72"/>
      <path class="cls-1" d="M144.93,46.99s-.03,0-.04.02h0s-.07.03-.1.04c-.15-.03-.26-.11-.32-.25l-.05-.08c.16-.16.3-.33.39-.52.1-.2.16-.43.14-.7-.02-.42-.03-.83-.04-1.25-.01-.59-.01-1.17-.02-1.76v-.73c.11-.36-.12-.56-.33-.77-.05-.05-.09-.09-.13-.15h0s.05-.07.05-.07c.15.02.29.03.44.04h0c.06,0,.11,0,.16,0,.25.04.2.24.08.47.19,1.91.14,3.81-.24,5.69"/>
      <path class="cls-42" d="M129.01,32.74c0-.15.01-.31.02-.46.39.63.42,1.42.93,1.99.21.24.28.47.03.72-.13.13-.27.33-.49.19-.32-.21-.08-.49-.07-.74,0-.1-.08-.2-.19-.43-.36.67-.13,1.28-.21,1.84-.44-.51-.14-1.12-.23-1.67-.14-.13-.17-.3-.16-.48.07-.34.1-.69.37-.96"/>
      <path class="cls-10" d="M148.73,67.16c-1.37.23-1.33-.76-1.42-1.65.24,0,.47,0,.71,0,0,.34.2.56.5.71.47.22.44.55.22.94"/>
      <path class="cls-25" d="M133.54,48.36c.16.02.31.05.47.07.16.61-.45.64-.71.93-.53-.04-1.15.18-1.45-.52.41-.67,1.12-.32,1.68-.48"/>
      <path class="cls-39" d="M149.2,42.74c.5,1.36.2,2.75.17,4.13,0,.45-.51.38-.86.38,1.2-.88.58-2.15.66-3.25.03-.41-.17-.84.03-1.25"/>
      <path class="cls-7" d="M136.39,27.77c.2-.7-.44-1.58.44-2.14.03.71.05,1.41.08,2.12-.17,0-.35.01-.52.02"/>
      <path class="cls-56" d="M144.93,48.4c-.47.01-.95.02-1.42.04-.15-.02-.31-.04-.46-.06.47-.25.34-1.46,1.35-.82.02.05.04.1.06.15-.04.37.32.46.47.7"/>
      <path class="cls-15" d="M135.45,26.11h.24c.39.48.21,1,.11,1.66-.59-.56-.26-1.15-.35-1.66"/>
      <path class="cls-39" d="M148.54,40.13c-.03.78-.06,1.56-.1,2.34-.25-.79-.85-1.6.1-2.34"/>
      <path class="cls-56" d="M144.93,46.99c.31.03.56.17.4.5-.17.36-.52.4-.87.21h0c-.33-.56.19-.56.48-.71h0Z"/>
      <path class="cls-29" d="M134.25,25.87c.12.62-.23,1.31.24,1.89-.15.26-.31.25-.47.01.1-.63-.23-1.31.23-1.9"/>
      <path class="cls-8" d="M130.7,40.82c-.16,0-.32,0-.48,0,.15-.74.74-.49,1.13-.42.21.04-.16.25-.18.42-.16.13-.31.15-.47,0"/>
      <path class="cls-42" d="M130.22,39.63c.17-.28.45-.23.71-.24-.03.25.07.59-.3.66-.31.06-.38-.18-.41-.42"/>
      <path class="cls-38" d="M143.51,40.11c-.25.08-.5.17-.76.22-.14.03-.34-.05-.3-.24.02-.09.23-.15.35-.22.26.01.54-.04.71.24"/>
      <path class="cls-47" d="M130.7,40.82c.16,0,.31,0,.47,0,.3.05.6.1.24.48-.08,0-.16,0-.24,0-.3-.01-.47-.16-.47-.48"/>
      <path class="cls-61" d="M130.22,32.22c-.1.07-.19.18-.25.16-.08-.02-.17-.14-.18-.22-.01-.16.08-.3.26-.24.07.02.1.17.16.3"/>
      <path class="cls-4" d="M141.61,38.7c.24,0,.48,0,.72,0-.24.36-.48.72-.72,0"/>
      <path class="cls-58" d="M145.17,41.3c-.01-.19-.05-.37-.24-.48,0-.08,0-.16,0-.24.14,0,.38-.06.4,0,.12.26.1.53-.17.72"/>
      <path class="cls-20" d="M145.24,70.14h-11.05c0-.08,0-.16,0-.24h11.05c0,.08,0,.16,0,.24"/>
      <path class="cls-18" d="M147.54,71.19c.16,0,.33,0,.49.01-.4.49-.96.51-1.52.51-5.25,0-10.5,0-15.75,0-.57,0-1.1-.09-1.53-.5.69-.45,1.24.23,1.87.23,4.91,0,9.82,0,14.73-.02.17,0,.34-.15.51-.23.25-.25.55-.28.88-.21.12.04.23.11.31.21"/>
      <path class="cls-57" d="M147.3,71.19c-.32,0-.63,0-.95,0-.41-.59-.7-1.2-.24-1.9.36-.35.78-.59,1.27-.69,1.18.14,1.24.22.94,1.23-.25.18-.55.21-.84.23-.98.22.13.79-.19,1.12"/>
      <path class="cls-17" d="M128.8,66.69c.31-.12.36-.81.75-.55.42.28.23.87.12,1.3-.08.35-.2.86-.7.8-.45-.05-.42-.49-.42-.85-.24-.34-.08-.56.24-.71"/>
      <path class="cls-52" d="M144.18,68.13c0,.5-.31.67-.75.68-.42.01-.83-.09-.83-.59,0-.48.35-.76.82-.82.51-.05.63.35.75.72"/>
      <path class="cls-5" d="M134.44,68.09c-.14.53-.38.78-.87.73-.4-.04-.72-.19-.69-.63.04-.44.34-.74.78-.76.46-.02.65.35.78.66"/>
      <path class="cls-53" d="M147.31,68.82c-.37.21-.69.57-1.19.48-.18-.04-.46-.03-.53-.14-.17-.26.13-.24.27-.34.96-.66,2.05-.46,3.1-.47v.95c-.57-.08-.91-1-1.66-.47"/>
      <path class="cls-23" d="M139.23,68.07c-.04.49-.26.73-.68.74-.48,0-.73-.25-.72-.73.01-.42.25-.65.67-.66.49-.01.7.27.73.65"/>
      <path class="cls-44" d="M129.27,70.72c-.26-.27-.57-.5-.48-.95.13-.67.46-.41.69-.11.3.39.55.84-.21,1.06"/>
      <path class="cls-6" d="M128.8,66.69c-.08.24-.16.47-.24.71-.08,0-.16,0-.24,0-.39-.34-.19-.77-.21-1.17.34-.01.56.16.69.46"/>
      <path class="cls-35" d="M128.79,45.56c0,.47,0,.94.01,1.41-.65,0-.91-.48-1.2-.94.02-.15.03-.31.05-.46.21-.22.51-.04.74-.15.15-.02.29.02.4.14"/>
      <path class="cls-28" d="M127.83,30.36c0,.56,0,1.12.01,1.67-.06.08-.13.09-.2.02-.03-.48-.05-.96-.07-1.43.09-.09.18-.17.26-.26"/>
      <path class="cls-13" d="M127.75,40.48s-.04.07-.07.1h0s-.05.05-.09.06c0,.02-.02.02-.04.02,0-.03.02-.06.04-.09.01-.23.01-.46.03-.69-.02-.02-.02-.05-.04-.08,0-.05,0-.1-.02-.16l.06.02c.16.24.24.51.12.8"/>
      <path class="cls-13" d="M127.91,44.4h0c0,.07-.02.12-.02.19,0,.09-.02.17-.03.26-.01.07-.03.15-.05.22-.02.06-.05.12-.1.16-.01.02-.03.04-.05.05,0,0,0,0-.02.02,0-.71-.02-1.4-.02-2.1,0-.02-.02-.02-.02-.04,0,0,.02.02.02.02.04.02.07.03.1.06.02.05.05.1.07.16h0c.06.17.1.34.12.5.02.17.02.34,0,.5"/>
      <path class="cls-24" d="M127.65,38.43c-.09-.08-.18-.15-.26-.23-.01-.07,0-.14.02-.21.13-.04.2-.11.16-.25v-.12c0-.4,0-.79,0-1.19,0-.37,0-.74,0-1.12,0-.23,0-.46,0-.69v-.44h.09c.4.51.1,1.11.21,1.66,0,0,0,0,0,.01-.13.85.23,1.75-.22,2.57"/>
      <path class="cls-9" d="M128.32,45.56c-.22.28-.45-.07-.68,0-.04-.07-.07-.14-.08-.22l.08-.05c.14-.19.08-.62.53-.47.24.2.39.43.15.73"/>
      <path class="cls-36" d="M128.8,33.71c0,.16,0,.31,0,.46-.24.16-.47.31-.71.47.01-.42-.07-.78-.51-.95.03-.3.06-.61.09-.92.37-.08.5.5.91.34.33.11.41.3.23.6"/>
      <path class="cls-30" d="M128.33,33.23c-.52.28-.39-.38-.66-.45-.01-.24-.02-.48-.02-.72.07,0,.13-.01.2-.02.16.16.32.32.48.48.21.23.19.47.01.71"/>
      <path class="cls-34" d="M127.41,37.99c-.19-.03-.45-.09-.45-.3-.01-1.1-.31-2.22.17-3.29.14-.07.29-.15.43-.22v.44c0,.23,0,.46,0,.69,0,.37,0,.74,0,1.12,0,.4,0,.79,0,1.19v.12c.05.15-.03.22-.16.25"/>
      <path class="cls-11" d="M138.65,53.16c-1.5,0-3,0-4.5,0-.34,0-.77.07-.77-.47,0-.54.43-.47.77-.47,3,0,6,0,9,0,.34,0,.77-.07.77.47,0,.54-.43.47-.78.47-1.5,0-3,0-4.5,0"/>
      <path class="cls-41" d="M138.65,61.49c-1.5,0-3,0-4.5,0-.3,0-.71.08-.76-.35-.05-.47.32-.59.7-.59,3.04,0,6.08,0,9.12,0,.39,0,.75.13.7.59-.05.44-.46.35-.76.35-1.5,0-3,0-4.5,0"/>
      <path class="cls-41" d="M138.69,58.59c1.46,0,2.92,0,4.38,0,.33,0,.82-.13.83.39.02.55-.46.55-.86.55-2.96,0-5.92,0-8.88,0-.37,0-.77-.04-.77-.52,0-.55.47-.42.8-.42,1.5-.01,3,0,4.5,0"/>
      <path class="cls-5" d="M138.7,56.46c1.46,0,2.92,0,4.38,0,.32,0,.8-.15.82.4.02.47-.37.54-.75.54-3,0-6,0-9.01,0-.38,0-.77-.06-.76-.53,0-.55.49-.41.81-.41,1.5-.01,3,0,4.5,0"/>
      <path class="cls-43" d="M138.76,54.34c1.46,0,2.93,0,4.39,0,.35,0,.77-.07.78.47,0,.54-.43.47-.77.47-2.96,0-5.93,0-8.89,0-.38,0-.77-.02-.78-.5-.02-.55.45-.44.78-.45,1.5-.01,3,0,4.51,0"/>
      <path class="cls-5" d="M138.65,51.04c-1.5,0-2.99,0-4.49,0-.28,0-.72.13-.74-.34-.02-.4.26-.61.7-.61,3.03,0,6.06,0,9.09,0,.34,0,.67.08.68.49.02.56-.43.45-.76.46-1.49.01-2.99,0-4.49,0"/>
      <path class="cls-50" d="M144.93,46.99c-.14.25-.51.34-.48.71-.89-.65-.82.69-1.41.67-.32,0-.64,0-.96,0,.06-.42.62-.63.47-1.14.67-.03,1.37.1,1.92-.43.15.07.3.13.46.2"/>
      <path class="cls-33" d="M133.31,49.36c.21.03.51-.08.58.2.07.27-.21.26-.38.26-.4,0-.25-.25-.19-.46"/>
      <path class="cls-51" d="M138.52,32.28c1.46,0,2.92,0,4.38,0,.38,0,.91-.1.95.43.04.57-.49.51-.87.51-2.96,0-5.92,0-8.88,0-.35,0-.77.05-.76-.49.02-.53.45-.45.79-.45,1.46,0,2.92,0,4.38,0"/>
      <path class="cls-19" d="M138.66,36.54c1.5,0,2.99,0,4.49,0,.27,0,.73-.15.71.35-.01.4-.31.6-.73.59-2.99,0-5.98,0-8.97,0-.37,0-.77-.07-.77-.53,0-.55.48-.41.8-.41,1.49-.02,2.99,0,4.49,0"/>
      <path class="cls-49" d="M138.59,34.41c1.46,0,2.92,0,4.38,0,.35,0,.77-.03.74.51-.02.45-.38.43-.7.43-2.92,0-5.85,0-8.77,0-.4,0-.88-.01-.87-.55,0-.54.51-.38.82-.39,1.46-.02,2.92,0,4.38,0"/>
      <path class="cls-50" d="M144.45,38.7c-.39.36-.78.7-1.18,0,.39,0,.78,0,1.18,0"/>
      <path class="cls-34" d="M144.96,45.5c.01.27-.04.5-.14.7-.09.19-.23.35-.39.52h-.04c-3.58,0-7.17,0-10.76.03-.72,0-1.31-.17-1.31-1,0-1.38-.13-2.76.04-4.13.02-.16.04-.32.07-.48h0s0,0,0,0c.05-.03.11-.06.16-.08.26-.13.52-.24.83-.24h.18c3.06.02,6.13.04,9.19.05.24,0,.49,0,.73,0,.31,0,.62,0,.92-.01h0c.04.05.08.1.13.15.2.21.43.41.33.77v.72c.01.59.01,1.17.02,1.76,0,.42.02.83.04,1.25"/>
      <polyline class="cls-37" points="132.43 41.12 132.43 41.13 132.43 41.13 132.43 41.12"/>
      <path class="cls-62" d="M147.31,68.82c.78-.62,1.21-.06,1.66.47.02.41-.04.77-.48.95-.14-.13-.26-.27-.23-.47.32-.96-.32-.95-.95-.95"/>
      <path class="cls-45" d="M148.25,69.77c.19.1.23.28.23.47-.08,0-.15,0-.23,0-.27.33-.51.82-1.03.46-.41-.29-.38-.66.08-.93.32,0,.63,0,.95,0"/>
      <path class="cls-62" d="M147.31,69.77c-.13.28-.34.58.04.81.42.25.59-.26.91-.34.05.53-.48.63-.71.94-.08,0-.16,0-.24,0-.15-.47-1.49-.95,0-1.42"/>
      <path class="cls-22" d="M128.32,45.56c-.08-.24-.16-.47-.24-.71-.74-.78-.1-1.67-.18-2.5.21-.36.41-.72.66-1.05.08,0,.16,0,.24,0,0,1.42,0,2.85,0,4.27h-.47Z"/>
      <path class="cls-14" d="M127.64,45.3s-.05.04-.07.06c-.56,0-.89-.22-.89-.82,0-1.36,0-2.72-.02-4.08,0-.62.35-.82.9-.79,0,.05.02.11.02.16.02.03.02.06.04.08-.02.23-.02.46-.03.69-.02.03-.03.05-.04.09.02,0,.03,0,.04-.02,0,.84.02,1.69.02,2.54,0,0,0,0-.01-.02,0,.02,0,.02.01.04,0,.7.02,1.39.02,2.1"/>
      <path class="cls-59" d="M127.91,43.9c-.02.17-.02.34,0,.5h0c.02.14.07.27.15.41,0,0,0,.02,0,.02,0,0,.02.02.02.02-.12.12-.25.25-.38.38-.02.02-.05.05-.07.07h0c0-.72-.02-1.41-.02-2.1,0-.02-.02-.02-.02-.04,0,0,.02.02.02.02,0-.85-.02-1.7-.02-2.54,0,.02-.02.02-.04.02,0-.03.02-.06.04-.09.02-.23.02-.46.03-.69,0-.07,0-.14,0-.21.45.18.51.5.34.92-.13.32-.21.66.11.93.03.03.05.07.08.1.03.05.05.11.07.17.02.15-.02.31-.14.45.15.55-.11,1.1-.18,1.65"/>
      <path class="cls-55" d="M128.08,42.25c0-.24,0-.48,0-.72.11-.19.29-.23.49-.23-.04.38.16.87-.48.95"/>
      <path class="cls-21" d="M128.33,33.23c0-.24,0-.47-.01-.71.06-.27-.12-.61.23-.83.47.21.05.83.46,1.06,0,.34.12.7-.21.97-.01-.31-.16-.47-.47-.48"/>
      <path class="cls-3" d="M127.59,40.58v.06s-.02.02-.04.02c0-.03.02-.06.04-.09"/>
      <path class="cls-3" d="M127.62,43.18v.02s-.02-.02-.02-.04c0,0,.02.02.02.02"/>
      <path class="cls-63" d="M65.38,64.65l18.83-12.17M65.38,52.49l18.83,12.17M65.38,132.99l18.83-12.17M65.38,120.82l18.83,12.17"/>
      <path class="cls-64" d="M59.3,41.49l5.67,6.33s1.67.33,4.33-1.67c2.67-2,17.33-12.67,21-12M59.3,147.82l5.67,6.33s1.67.33,4.33-1.67c2.67-2,17.33-12.67,21-12"/>
    </g>
    <text class="cls-68" transform="translate(65.68 94.99)"><tspan x="0" y="0">OR</tspan></text>
  </g>
</svg>