<?xml version="1.0" encoding="UTF-8"?>
<svg id="Layer_2" data-name="Layer 2" xmlns="http://www.w3.org/2000/svg" xmlns:xlink="http://www.w3.org/1999/xlink" viewBox="0 0 279.54 169.16">
  <defs>
    <style>
      .cls-1 {
        fill: #39b54a;
      }

      .cls-1, .cls-2, .cls-3, .cls-4, .cls-5, .cls-6, .cls-7, .cls-8, .cls-9 {
        fill-rule: evenodd;
      }

      .cls-10 {
        clip-path: url(#clippath-6);
      }

      .cls-11 {
        clip-path: url(#clippath-7);
      }

      .cls-12 {
        clip-path: url(#clippath-15);
      }

      .cls-13 {
        clip-path: url(#clippath-4);
      }

      .cls-14 {
        fill: url(#linear-gradient-2);
      }

      .cls-2 {
        fill: #feee00;
      }

      .cls-15 {
        clip-path: url(#clippath-9);
      }

      .cls-16 {
        clip-path: url(#clippath-10);
      }

      .cls-17 {
        clip-path: url(#clippath-11);
      }

      .cls-18, .cls-19 {
        fill: none;
      }

      .cls-20 {
        fill: url(#linear-gradient-4);
      }

      .cls-3 {
        fill: #0093d8;
      }

      .cls-4 {
        fill: #ab3f97;
      }

      .cls-21 {
        fill: url(#linear-gradient-3);
      }

      .cls-22 {
        clip-path: url(#clippath-1);
      }

      .cls-19 {
        stroke: #6d6e71;
        stroke-miterlimit: 10;
        stroke-width: .81px;
      }

      .cls-23 {
        fill: url(#linear-gradient-5);
      }

      .cls-24 {
        clip-path: url(#clippath-5);
      }

      .cls-5 {
        fill: #00b07d;
      }

      .cls-25 {
        clip-path: url(#clippath-8);
      }

      .cls-26 {
        fill: url(#linear-gradient-8);
      }

      .cls-27 {
        clip-path: url(#clippath-3);
      }

      .cls-28 {
        clip-path: url(#clippath-12);
      }

      .cls-29 {
        clip-path: url(#clippath-14);
      }

      .cls-6 {
        fill: #2b3990;
      }

      .cls-30 {
        fill: url(#linear-gradient-7);
      }

      .cls-31 {
        fill: url(#linear-gradient-9);
      }

      .cls-32 {
        fill: url(#linear-gradient-6);
      }

      .cls-33 {
        clip-path: url(#clippath-2);
      }

      .cls-34 {
        clip-path: url(#clippath-13);
      }

      .cls-7 {
        fill: #00aca5;
      }

      .cls-35 {
        fill: url(#linear-gradient);
      }

      .cls-36 {
        clip-path: url(#clippath);
      }

      .cls-8 {
        fill: #f7941d;
      }

      .cls-9 {
        fill: #ffd400;
      }
    </style>
    <clipPath id="clippath">
      <path class="cls-18" d="M45.46,55.75c0,1.22,3.53,2.21,7.89,2.21s7.89-.99,7.89-2.21-3.53-2.2-7.89-2.2-7.89.99-7.89,2.2"/>
    </clipPath>
    <linearGradient id="linear-gradient" x1="-265.62" y1="269.13" x2="-264.62" y2="269.13" gradientTransform="translate(3176.86 -787.95) rotate(-60) scale(8.24 -8.48) skewX(-2.79)" gradientUnits="userSpaceOnUse">
      <stop offset="0" stop-color="#fff"/>
      <stop offset=".08" stop-color="#ddd"/>
      <stop offset=".2" stop-color="#acabab"/>
      <stop offset=".33" stop-color="#828080"/>
      <stop offset=".46" stop-color="#605d5d"/>
      <stop offset=".59" stop-color="#454142"/>
      <stop offset=".73" stop-color="#322e2f"/>
      <stop offset=".86" stop-color="#262223"/>
      <stop offset="1" stop-color="#231f20"/>
    </linearGradient>
    <clipPath id="clippath-1">
      <path class="cls-18" d="M136.68,53.55c0,1.22,3.53,2.2,7.89,2.2s7.89-.99,7.89-2.2-3.53-2.2-7.89-2.2-7.89.99-7.89,2.2"/>
    </clipPath>
    <linearGradient id="linear-gradient-2" y1="269.13" y2="269.13" gradientTransform="translate(3267.98 -790.13) rotate(-60) scale(8.24 -8.48) skewX(-2.79)" xlink:href="#linear-gradient"/>
    <clipPath id="clippath-2">
      <path class="cls-18" d="M213.15,61.15c0,1.22,3.53,2.2,7.89,2.2s7.89-.99,7.89-2.2-3.53-2.21-7.89-2.21-7.89.99-7.89,2.21"/>
    </clipPath>
    <linearGradient id="linear-gradient-3" y1="269.13" y2="269.13" gradientTransform="translate(3344.54 -782.55) rotate(-60) scale(8.24 -8.48) skewX(-2.79)" xlink:href="#linear-gradient"/>
    <clipPath id="clippath-3">
      <path class="cls-18" d="M163.91,86.9c0,1.22,3.53,2.2,7.89,2.2s7.89-.99,7.89-2.2-3.53-2.2-7.89-2.2-7.89.99-7.89,2.2"/>
    </clipPath>
    <linearGradient id="linear-gradient-4" y1="269.13" y2="269.13" gradientTransform="translate(3295.21 -756.77) rotate(-60) scale(8.24 -8.48) skewX(-2.79)" xlink:href="#linear-gradient"/>
    <clipPath id="clippath-4">
      <path class="cls-18" d="M178.21,130.49c0,1.22,3.53,2.2,7.89,2.2s7.89-.99,7.89-2.2-3.53-2.2-7.89-2.2-7.89.99-7.89,2.2"/>
    </clipPath>
    <linearGradient id="linear-gradient-5" y1="269.13" y2="269.13" gradientTransform="translate(3309.56 -713.2) rotate(-60) scale(8.24 -8.48) skewX(-2.79)" xlink:href="#linear-gradient"/>
    <clipPath id="clippath-5">
      <path class="cls-18" d="M86.13,165.22c0,1.22,3.53,2.2,7.89,2.2s7.89-.99,7.89-2.2-3.53-2.2-7.89-2.2-7.89.99-7.89,2.2"/>
    </clipPath>
    <linearGradient id="linear-gradient-6" y1="269.13" y2="269.13" gradientTransform="translate(3217.57 -678.49) rotate(-60) scale(8.24 -8.48) skewX(-2.79)" xlink:href="#linear-gradient"/>
    <clipPath id="clippath-6">
      <path class="cls-18" d="M4.75,104.43c0,1.22,3.53,2.2,7.89,2.2s7.89-.99,7.89-2.2-3.53-2.2-7.89-2.2-7.89.99-7.89,2.2"/>
    </clipPath>
    <linearGradient id="linear-gradient-7" y1="269.13" y2="269.13" gradientTransform="translate(3136.1 -739.26) rotate(-60) scale(8.24 -8.48) skewX(-2.79)" xlink:href="#linear-gradient"/>
    <clipPath id="clippath-7">
      <path class="cls-18" d="M76.55,88.23c0,1.22,3.53,2.2,7.89,2.2s7.89-.99,7.89-2.2-3.53-2.2-7.89-2.2-7.89.99-7.89,2.2"/>
    </clipPath>
    <linearGradient id="linear-gradient-8" y1="269.13" y2="269.13" gradientTransform="translate(3207.86 -755.45) rotate(-60) scale(8.24 -8.48) skewX(-2.79)" xlink:href="#linear-gradient"/>
    <clipPath id="clippath-8">
      <path class="cls-18" d="M257.11,119.58c0,1.22,3.53,2.2,7.89,2.2s7.89-.99,7.89-2.2-3.53-2.21-7.89-2.21-7.89.99-7.89,2.21"/>
    </clipPath>
    <linearGradient id="linear-gradient-9" y1="269.13" y2="269.13" gradientTransform="translate(3388.46 -724.11) rotate(-60) scale(8.24 -8.48) skewX(-2.79)" xlink:href="#linear-gradient"/>
    <clipPath id="clippath-9">
      <rect class="cls-18" width="279.54" height="169.16"/>
    </clipPath>
    <clipPath id="clippath-10">
      <rect class="cls-18" width="276.66" height="167.42"/>
    </clipPath>
    <clipPath id="clippath-11">
      <rect class="cls-18" width="279.54" height="169.16"/>
    </clipPath>
    <clipPath id="clippath-12">
      <rect class="cls-18" width="276.66" height="167.42"/>
    </clipPath>
    <clipPath id="clippath-13">
      <rect class="cls-18" width="279.54" height="169.16"/>
    </clipPath>
    <clipPath id="clippath-14">
      <rect class="cls-18" width="276.66" height="167.42"/>
    </clipPath>
    <clipPath id="clippath-15">
      <rect class="cls-18" width="279.54" height="169.16"/>
    </clipPath>
  </defs>
  <g id="Layer_1-2" data-name="Layer 1">
    <path class="cls-19" d="M262.15,118.9l-92.75-32.96-22.62-31.05M93.16,154.37l-7.34-64.01-30.37-33.16M140.86,54.9l-56.22,34.18,99.03,39.21M217.71,61.22l-48.11,26.7h-84.39L9.79,104.43M224.64,60.2l-80.08-7.54-89.93,2.04L9.79,104.43l86.02,61.76,89.69-35.06,79.5-10.8-40.36-60.13Z"/>
    <g class="cls-36">
      <polygon class="cls-35" points="43.5 56.94 49.09 47.27 63.21 54.56 57.62 64.23 43.5 56.94"/>
    </g>
    <g class="cls-22">
      <polygon class="cls-14" points="134.72 54.74 140.3 45.07 154.42 52.35 148.84 62.02 134.72 54.74"/>
    </g>
    <g class="cls-33">
      <polygon class="cls-21" points="211.19 62.34 216.77 52.67 230.89 59.96 225.31 69.63 211.19 62.34"/>
    </g>
    <g class="cls-27">
      <polygon class="cls-20" points="161.95 88.09 167.53 78.42 181.65 85.71 176.07 95.38 161.95 88.09"/>
    </g>
    <g class="cls-13">
      <polygon class="cls-23" points="176.25 131.68 181.83 122.01 195.95 129.29 190.37 138.96 176.25 131.68"/>
    </g>
    <g class="cls-24">
      <polygon class="cls-32" points="84.17 166.41 89.75 156.74 103.87 164.02 98.29 173.69 84.17 166.41"/>
    </g>
    <g class="cls-10">
      <polygon class="cls-30" points="2.79 105.62 8.38 95.95 22.5 103.24 16.91 112.91 2.79 105.62"/>
    </g>
    <g class="cls-11">
      <polygon class="cls-26" points="74.59 89.42 80.17 79.75 94.3 87.04 88.71 96.71 74.59 89.42"/>
    </g>
    <g class="cls-25">
      <polygon class="cls-31" points="255.15 120.77 260.73 111.1 274.86 118.38 269.27 128.05 255.15 120.77"/>
    </g>
    <g class="cls-15">
      <path class="cls-6" d="M59.1,21.44c-.01.21-.03.42-.03.62,0,10.82,0,21.65,0,32.48,0,.71-.15,1.35-.65,1.88-.69.72-1.53.92-2.46.68-1.02-.26-1.62-.96-1.78-1.99-.09-.55-.1-1.12-.1-1.69,0-5.99,0-11.97-.01-17.96,0-.23-.08-.63-.18-.65-.38-.07-.79-.04-1.18,0-.06,0-.13.25-.14.39-.02.32,0,.63,0,.95,0,6.07,0,12.14-.01,18.21,0,.48-.09,1.01-.28,1.45-.47,1.06-1.61,1.58-2.73,1.34-1.11-.24-1.89-1.15-1.95-2.3-.03-.53-.02-1.06-.02-1.59,0-10.11,0-20.22,0-30.33,0-.46,0-.92-.11-1.42-.06.15-.13.3-.16.45-.65,3.31-1.29,6.62-1.95,9.93-.19.95-.69,1.65-1.71,1.85-1.07.21-2.11-.59-2.14-1.68-.01-.58.04-1.16.14-1.73.65-3.63,1.33-7.26,1.99-10.88.13-.72.25-1.44.38-2.16.24-1.24,1.09-1.92,2.21-2.27.58-.18,1.21-.27,1.81-.28,3.58-.03,7.15-.02,10.73,0,1.06,0,2.06.25,2.94.93.78.61.96,1.47,1.12,2.36.58,3.26,1.18,6.51,1.77,9.76.2,1.13.43,2.25.61,3.38.06.35.05.74-.02,1.09-.2.99-.87,1.51-1.83,1.5-.97,0-1.76-.67-1.98-1.72-.46-2.23-.89-4.46-1.33-6.7-.21-1.08-.42-2.15-.63-3.23-.04-.23-.11-.45-.17-.67-.04,0-.09,0-.14,0"/>
      <path class="cls-6" d="M58.05,8.88c.11,2.61-2.13,4.88-4.87,4.82-2.62-.06-4.73-2.19-4.68-4.88.05-2.74,2.23-4.81,4.97-4.73,2.41.07,4.7,2.17,4.58,4.8"/>
    </g>
    <g class="cls-16">
      <path class="cls-3" d="M150.4,17.36c-.01.21-.03.42-.03.62,0,10.82,0,21.65,0,32.48,0,.71-.15,1.35-.65,1.88-.69.72-1.53.92-2.46.68-1.02-.26-1.62-.96-1.78-1.99-.09-.55-.1-1.12-.1-1.69,0-5.99,0-11.97-.01-17.96,0-.23-.08-.63-.18-.65-.38-.07-.79-.04-1.18,0-.06,0-.13.25-.14.39-.02.32,0,.63,0,.95,0,6.07,0,12.14-.01,18.21,0,.49-.09,1.01-.28,1.45-.47,1.06-1.61,1.58-2.73,1.34-1.11-.24-1.89-1.15-1.95-2.3-.03-.53-.02-1.06-.02-1.6,0-10.11,0-20.22,0-30.33,0-.46,0-.92-.11-1.42-.06.15-.13.3-.16.45-.65,3.31-1.29,6.62-1.95,9.93-.19.95-.69,1.66-1.71,1.85-1.07.21-2.11-.59-2.13-1.68-.01-.58.04-1.16.14-1.73.65-3.63,1.33-7.26,1.99-10.88.13-.72.24-1.44.38-2.16.24-1.24,1.09-1.92,2.21-2.27.58-.18,1.21-.27,1.81-.28,3.58-.03,7.15-.02,10.73,0,1.06,0,2.07.25,2.94.93.78.61.96,1.47,1.12,2.36.58,3.26,1.18,6.51,1.77,9.76.2,1.13.43,2.25.61,3.38.06.35.05.74-.02,1.09-.2.99-.87,1.51-1.83,1.5-.97,0-1.76-.67-1.98-1.72-.46-2.23-.89-4.46-1.33-6.7-.21-1.08-.42-2.15-.63-3.23-.04-.23-.11-.45-.17-.67-.05,0-.09,0-.14,0"/>
      <path class="cls-3" d="M149.34,4.8c.11,2.61-2.13,4.88-4.87,4.82-2.62-.06-4.73-2.19-4.68-4.88.05-2.74,2.23-4.81,4.97-4.73,2.41.07,4.7,2.17,4.58,4.8"/>
    </g>
    <g class="cls-17">
      <path class="cls-5" d="M227.28,25.9c-.01.21-.03.42-.03.62,0,10.83,0,21.65,0,32.48,0,.71-.15,1.35-.65,1.88-.69.72-1.53.92-2.46.68-1.02-.26-1.62-.96-1.78-1.99-.09-.55-.1-1.12-.1-1.69,0-5.99,0-11.97-.01-17.96,0-.23-.08-.63-.18-.65-.38-.07-.79-.04-1.18,0-.06,0-.13.25-.14.39-.02.32,0,.63,0,.95,0,6.07,0,12.14-.01,18.21,0,.48-.09,1.01-.28,1.45-.47,1.06-1.61,1.58-2.73,1.34-1.11-.24-1.89-1.15-1.95-2.3-.03-.53-.02-1.06-.02-1.59,0-10.11,0-20.22,0-30.33,0-.46,0-.92-.11-1.42-.06.15-.13.3-.16.45-.65,3.31-1.29,6.62-1.95,9.93-.19.95-.69,1.65-1.71,1.85-1.07.21-2.11-.59-2.13-1.68-.01-.58.04-1.16.14-1.73.65-3.63,1.33-7.26,1.99-10.88.13-.72.25-1.44.38-2.16.24-1.24,1.09-1.92,2.21-2.27.58-.18,1.21-.27,1.81-.28,3.58-.03,7.15-.02,10.73,0,1.06,0,2.07.25,2.94.93.78.61.96,1.47,1.12,2.36.58,3.26,1.18,6.51,1.77,9.76.2,1.13.43,2.25.61,3.38.06.35.05.74-.02,1.09-.2.99-.87,1.51-1.83,1.5-.97-.01-1.76-.67-1.98-1.72-.46-2.23-.89-4.46-1.33-6.7-.21-1.08-.42-2.15-.63-3.23-.04-.23-.11-.45-.17-.67-.05,0-.09,0-.14,0"/>
      <path class="cls-5" d="M226.23,13.34c.11,2.61-2.13,4.88-4.87,4.82-2.62-.06-4.73-2.19-4.68-4.88.05-2.74,2.23-4.81,4.97-4.74,2.41.07,4.7,2.17,4.58,4.8"/>
      <path class="cls-8" d="M177.55,51.65c-.01.21-.03.42-.03.62,0,10.82,0,21.65,0,32.48,0,.71-.15,1.35-.65,1.88-.69.72-1.53.92-2.46.68-1.02-.26-1.62-.96-1.78-1.99-.09-.55-.1-1.12-.1-1.69,0-5.99,0-11.97-.01-17.96,0-.23-.08-.63-.18-.65-.38-.07-.79-.04-1.18,0-.06,0-.13.25-.14.39-.02.32,0,.63,0,.95,0,6.07,0,12.14-.01,18.21,0,.49-.09,1.01-.28,1.45-.47,1.06-1.61,1.58-2.73,1.34-1.11-.24-1.89-1.15-1.95-2.3-.03-.53-.02-1.06-.02-1.59,0-10.11,0-20.22,0-30.33,0-.46,0-.92-.11-1.42-.06.15-.13.3-.16.45-.65,3.31-1.29,6.62-1.95,9.93-.19.95-.69,1.65-1.71,1.85-1.07.21-2.11-.59-2.13-1.68-.01-.58.04-1.16.14-1.73.65-3.63,1.33-7.26,1.99-10.88.13-.72.25-1.44.38-2.16.24-1.24,1.09-1.92,2.21-2.27.58-.18,1.21-.27,1.81-.28,3.58-.02,7.15-.02,10.73,0,1.06,0,2.07.25,2.94.93.78.61.96,1.47,1.12,2.36.58,3.26,1.18,6.51,1.77,9.76.2,1.13.43,2.25.61,3.38.06.35.05.74-.02,1.09-.2.99-.87,1.51-1.83,1.5-.97,0-1.76-.67-1.98-1.72-.46-2.23-.89-4.46-1.33-6.7-.21-1.08-.42-2.15-.63-3.23-.04-.23-.11-.45-.17-.67-.05,0-.09,0-.14,0"/>
    </g>
    <g class="cls-28">
      <path class="cls-8" d="M176.49,39.09c.11,2.61-2.13,4.88-4.87,4.82-2.62-.06-4.73-2.19-4.68-4.88.05-2.74,2.23-4.81,4.97-4.74,2.41.07,4.7,2.17,4.58,4.8"/>
      <path class="cls-2" d="M270.53,84.77c-.01.21-.03.42-.03.62,0,10.83,0,21.65,0,32.48,0,.71-.15,1.35-.65,1.88-.69.72-1.53.92-2.46.68-1.02-.26-1.62-.96-1.78-1.99-.09-.55-.1-1.13-.1-1.69,0-5.99,0-11.97-.01-17.96,0-.23-.08-.63-.18-.65-.38-.07-.79-.04-1.18,0-.06,0-.13.25-.14.39-.02.31,0,.63,0,.95,0,6.07,0,12.14-.01,18.21,0,.48-.09,1.01-.28,1.45-.47,1.06-1.61,1.58-2.73,1.34-1.11-.24-1.89-1.15-1.95-2.3-.03-.53-.02-1.06-.02-1.59,0-10.11,0-20.22,0-30.33,0-.46,0-.93-.11-1.42-.06.15-.13.3-.16.45-.65,3.31-1.29,6.62-1.95,9.93-.19.95-.69,1.66-1.71,1.85-1.07.21-2.11-.59-2.13-1.68-.01-.58.04-1.16.14-1.73.65-3.63,1.33-7.26,1.99-10.88.13-.72.24-1.44.38-2.16.24-1.24,1.09-1.92,2.21-2.27.58-.18,1.21-.27,1.81-.28,3.57-.03,7.15-.02,10.73,0,1.06,0,2.07.25,2.94.93.78.61.96,1.47,1.12,2.36.58,3.26,1.18,6.51,1.77,9.76.21,1.13.43,2.25.61,3.38.06.35.05.74-.02,1.09-.2.99-.87,1.51-1.83,1.5-.97-.01-1.76-.67-1.98-1.72-.46-2.23-.89-4.46-1.33-6.7-.21-1.07-.42-2.15-.63-3.23-.04-.22-.11-.44-.17-.67-.05,0-.09,0-.14,0"/>
    </g>
    <g class="cls-34">
      <path class="cls-2" d="M269.48,72.21c.11,2.61-2.13,4.88-4.87,4.82-2.62-.06-4.73-2.19-4.68-4.88.05-2.74,2.23-4.81,4.97-4.74,2.41.07,4.7,2.17,4.58,4.8"/>
      <path class="cls-4" d="M191.85,94.96c-.01.21-.03.42-.03.62,0,10.83,0,21.65,0,32.48,0,.71-.15,1.35-.65,1.88-.69.72-1.53.92-2.46.68-1.02-.26-1.62-.96-1.78-1.99-.09-.55-.1-1.13-.1-1.69,0-5.99,0-11.97-.01-17.96,0-.23-.08-.63-.18-.65-.38-.07-.79-.03-1.18,0-.06,0-.13.25-.14.39-.02.32,0,.63,0,.95,0,6.07,0,12.14-.01,18.21,0,.48-.09,1.01-.28,1.45-.47,1.06-1.61,1.58-2.73,1.34-1.11-.24-1.89-1.15-1.95-2.29-.03-.53-.02-1.06-.02-1.59,0-10.11,0-20.22,0-30.33,0-.46,0-.92-.11-1.42-.06.15-.13.3-.16.45-.65,3.31-1.29,6.62-1.95,9.93-.19.95-.69,1.65-1.71,1.85-1.07.21-2.11-.59-2.13-1.68-.01-.58.04-1.16.14-1.73.65-3.63,1.33-7.26,1.99-10.88.13-.72.25-1.44.38-2.16.24-1.24,1.09-1.92,2.21-2.27.58-.18,1.21-.27,1.81-.28,3.58-.02,7.15-.02,10.73,0,1.06,0,2.07.25,2.94.93.78.61.96,1.47,1.12,2.36.58,3.26,1.18,6.51,1.77,9.76.2,1.13.43,2.25.61,3.38.06.35.05.74-.02,1.09-.2.99-.87,1.51-1.83,1.5-.97-.01-1.76-.67-1.98-1.72-.46-2.23-.89-4.46-1.33-6.7-.21-1.08-.42-2.15-.63-3.23-.04-.23-.11-.45-.17-.67-.05,0-.09,0-.14,0"/>
      <path class="cls-4" d="M190.79,82.4c.11,2.6-2.13,4.88-4.87,4.82-2.62-.06-4.73-2.19-4.68-4.88.05-2.74,2.23-4.81,4.97-4.74,2.41.07,4.7,2.17,4.58,4.8"/>
      <path class="cls-7" d="M99.76,130.36c-.01.21-.03.42-.03.62,0,10.83,0,21.65,0,32.47,0,.71-.15,1.35-.65,1.88-.69.72-1.53.92-2.46.68-1.02-.26-1.62-.96-1.78-1.99-.09-.55-.1-1.13-.1-1.69,0-5.99,0-11.97-.01-17.96,0-.23-.08-.63-.18-.65-.38-.07-.79-.04-1.18,0-.06,0-.13.25-.14.39-.02.32,0,.63,0,.95,0,6.07,0,12.14-.01,18.21,0,.48-.09,1.01-.28,1.45-.47,1.06-1.61,1.58-2.73,1.34-1.11-.25-1.89-1.15-1.95-2.3-.03-.53-.02-1.06-.02-1.59,0-10.11,0-20.22,0-30.33,0-.46,0-.92-.11-1.42-.05.15-.13.3-.16.45-.65,3.31-1.29,6.62-1.95,9.93-.19.95-.69,1.65-1.71,1.85-1.07.21-2.11-.59-2.14-1.68-.01-.58.04-1.16.14-1.73.65-3.63,1.33-7.26,1.99-10.88.13-.72.24-1.44.38-2.16.24-1.24,1.09-1.92,2.21-2.27.58-.18,1.21-.27,1.81-.28,3.58-.03,7.15-.02,10.73,0,1.06,0,2.07.25,2.94.93.78.61.96,1.47,1.12,2.36.58,3.26,1.18,6.51,1.77,9.76.2,1.13.43,2.25.61,3.38.06.35.05.74-.02,1.09-.2.99-.87,1.51-1.83,1.5-.97-.01-1.76-.67-1.98-1.72-.46-2.23-.89-4.46-1.33-6.7-.21-1.08-.42-2.15-.63-3.23-.04-.23-.11-.45-.17-.67-.05,0-.09,0-.14,0"/>
    </g>
    <g class="cls-29">
      <path class="cls-7" d="M98.71,117.8c.11,2.6-2.13,4.88-4.87,4.82-2.61-.06-4.73-2.19-4.68-4.88.05-2.74,2.23-4.81,4.97-4.73,2.41.07,4.7,2.17,4.58,4.8"/>
      <path class="cls-9" d="M17.61,69.81c-.01.21-.03.42-.03.62,0,10.83,0,21.65,0,32.48,0,.71-.15,1.35-.65,1.88-.69.72-1.53.92-2.46.68-1.02-.26-1.62-.96-1.78-1.99-.09-.55-.1-1.13-.1-1.69,0-5.99,0-11.97-.01-17.96,0-.23-.08-.63-.18-.65-.38-.07-.79-.04-1.18,0-.06,0-.13.25-.14.39-.02.32,0,.63,0,.95,0,6.07,0,12.14-.01,18.21,0,.48-.09,1.01-.28,1.45-.47,1.06-1.61,1.58-2.73,1.34-1.11-.24-1.89-1.15-1.95-2.29-.03-.53-.02-1.06-.02-1.59,0-10.11,0-20.22,0-30.33,0-.46,0-.92-.11-1.42-.06.15-.13.3-.16.45-.65,3.31-1.29,6.62-1.95,9.93-.19.95-.69,1.65-1.71,1.85-1.07.21-2.11-.59-2.14-1.68-.01-.58.04-1.16.14-1.73.65-3.63,1.33-7.26,1.99-10.88.13-.72.25-1.44.38-2.16.24-1.24,1.09-1.92,2.21-2.27.58-.18,1.21-.27,1.81-.28,3.58-.02,7.15-.02,10.73,0,1.06,0,2.06.25,2.94.93.78.61.96,1.47,1.12,2.36.58,3.26,1.18,6.51,1.77,9.76.2,1.13.43,2.25.61,3.38.06.35.05.74-.02,1.09-.2.99-.87,1.51-1.83,1.5-.97-.01-1.76-.67-1.98-1.72-.46-2.23-.89-4.46-1.33-6.7-.21-1.08-.42-2.15-.63-3.23-.04-.23-.11-.45-.17-.67-.04,0-.09,0-.14,0"/>
    </g>
    <g class="cls-12">
      <path class="cls-9" d="M16.56,57.26c.11,2.61-2.13,4.88-4.87,4.82-2.62-.06-4.73-2.19-4.68-4.88.05-2.74,2.23-4.81,4.97-4.74,2.41.07,4.7,2.17,4.58,4.8"/>
      <path class="cls-1" d="M90.19,53.3c-.01.21-.03.42-.03.62,0,10.83,0,21.65,0,32.48,0,.71-.15,1.35-.65,1.88-.69.72-1.53.92-2.46.68-1.02-.26-1.62-.96-1.78-1.99-.09-.55-.1-1.13-.1-1.69,0-5.99,0-11.97-.01-17.96,0-.23-.08-.63-.18-.65-.38-.07-.79-.04-1.18,0-.06,0-.13.25-.14.39-.02.32,0,.63,0,.95,0,6.07,0,12.14-.01,18.21,0,.48-.09,1.01-.28,1.45-.47,1.06-1.61,1.58-2.73,1.34-1.11-.24-1.89-1.15-1.95-2.29-.03-.53-.02-1.06-.02-1.59,0-10.11,0-20.22,0-30.33,0-.46,0-.92-.11-1.42-.05.15-.13.3-.16.45-.65,3.31-1.29,6.62-1.95,9.93-.19.95-.69,1.65-1.71,1.85-1.07.21-2.11-.59-2.14-1.68-.01-.58.04-1.16.14-1.73.65-3.63,1.32-7.26,1.99-10.88.13-.72.24-1.44.38-2.16.23-1.24,1.09-1.92,2.21-2.27.58-.18,1.21-.27,1.81-.28,3.58-.02,7.15-.02,10.73,0,1.06,0,2.07.25,2.94.93.78.61.96,1.47,1.12,2.36.58,3.26,1.18,6.51,1.77,9.76.2,1.13.43,2.25.61,3.38.06.35.05.74-.02,1.09-.2.99-.87,1.51-1.83,1.5-.98-.01-1.76-.67-1.98-1.72-.46-2.23-.89-4.46-1.33-6.7-.21-1.08-.42-2.15-.63-3.23-.04-.23-.11-.45-.17-.67-.04,0-.09,0-.14,0"/>
      <path class="cls-1" d="M89.13,40.74c.11,2.61-2.13,4.88-4.87,4.82-2.62-.06-4.73-2.19-4.68-4.88.05-2.74,2.23-4.81,4.97-4.74,2.41.07,4.7,2.17,4.58,4.8"/>
    </g>
  </g>
</svg>