<?xml version="1.0" encoding="UTF-8"?>
<svg id="Layer_2" data-name="Layer 2" xmlns="http://www.w3.org/2000/svg" xmlns:xlink="http://www.w3.org/1999/xlink" viewBox="0 0 324 237.95">
  <defs>
    <style>
      .cls-1 {
        fill: #83b93b;
      }

      .cls-2 {
        fill: #2f262b;
      }

      .cls-2, .cls-3, .cls-4, .cls-5, .cls-6, .cls-7, .cls-8, .cls-9, .cls-10, .cls-11, .cls-12, .cls-13, .cls-14, .cls-15, .cls-16 {
        fill-rule: evenodd;
      }

      .cls-17 {
        clip-path: url(#clippath-6);
      }

      .cls-18 {
        clip-path: url(#clippath-7);
      }

      .cls-19 {
        font-size: 7.33px;
      }

      .cls-19, .cls-20, .cls-21, .cls-22, .cls-23, .cls-24, .cls-25, .cls-26, .cls-27, .cls-28, .cls-29, .cls-30, .cls-31, .cls-32, .cls-33, .cls-34, .cls-35, .cls-36, .cls-37, .cls-38, .cls-39, .cls-40, .cls-41, .cls-42, .cls-43, .cls-44, .cls-45, .cls-46, .cls-47, .cls-48, .cls-49, .cls-50, .cls-51, .cls-52, .cls-53, .cls-54, .cls-55, .cls-56, .cls-57, .cls-58, .cls-59, .cls-60, .cls-61, .cls-62, .cls-63, .cls-64, .cls-65, .cls-66, .cls-67, .cls-68, .cls-69, .cls-70, .cls-71, .cls-72, .cls-73, .cls-74, .cls-75, .cls-76, .cls-77, .cls-78, .cls-79, .cls-80, .cls-81, .cls-82, .cls-83, .cls-84, .cls-85, .cls-86, .cls-87 {
        fill: #df284f;
      }

      .cls-19, .cls-20, .cls-21, .cls-22, .cls-23, .cls-24, .cls-25, .cls-26, .cls-27, .cls-28, .cls-29, .cls-30, .cls-31, .cls-32, .cls-33, .cls-34, .cls-35, .cls-36, .cls-37, .cls-38, .cls-39, .cls-40, .cls-41, .cls-42, .cls-43, .cls-44, .cls-45, .cls-46, .cls-47, .cls-48, .cls-49, .cls-50, .cls-51, .cls-52, .cls-53, .cls-54, .cls-55, .cls-56, .cls-57, .cls-58, .cls-59, .cls-60, .cls-61, .cls-63, .cls-64, .cls-65, .cls-66, .cls-67, .cls-68, .cls-69, .cls-70, .cls-71, .cls-72, .cls-73, .cls-74, .cls-75, .cls-76, .cls-77, .cls-78, .cls-79, .cls-80, .cls-81, .cls-82, .cls-83, .cls-84, .cls-85, .cls-86, .cls-87 {
        font-family: MyriadPro-Regular, 'Myriad Pro';
      }

      .cls-3 {
        fill: #f5b895;
      }

      .cls-88 {
        clip-path: url(#clippath-15);
      }

      .cls-89 {
        clip-path: url(#clippath-4);
      }

      .cls-20 {
        font-size: 7.33px;
      }

      .cls-21 {
        font-size: 7.33px;
      }

      .cls-22 {
        font-size: 7.33px;
      }

      .cls-23 {
        font-size: 7.33px;
      }

      .cls-90 {
        fill: url(#linear-gradient-2);
      }

      .cls-24 {
        font-size: 7.33px;
      }

      .cls-25 {
        font-size: 7.33px;
      }

      .cls-91 {
        fill: #f1f2f2;
      }

      .cls-92 {
        fill: url(#linear-gradient-10);
      }

      .cls-93 {
        fill: url(#linear-gradient-12);
      }

      .cls-26 {
        font-size: 7.33px;
      }

      .cls-27 {
        font-size: 7.33px;
      }

      .cls-94 {
        fill: #f7bc82;
      }

      .cls-95 {
        clip-path: url(#clippath-9);
      }

      .cls-28 {
        font-size: 7.33px;
      }

      .cls-29 {
        font-size: 7.33px;
      }

      .cls-96 {
        clip-path: url(#clippath-10);
      }

      .cls-30 {
        font-size: 7.33px;
      }

      .cls-31 {
        font-size: 7.33px;
      }

      .cls-32 {
        font-size: 7.33px;
      }

      .cls-33 {
        font-size: 7.33px;
      }

      .cls-34 {
        font-size: 7.33px;
      }

      .cls-35 {
        font-size: 7.33px;
      }

      .cls-4 {
        fill: #fff;
      }

      .cls-36 {
        font-size: 7.33px;
      }

      .cls-97 {
        stroke: #df284f;
        stroke-width: 1.05px;
      }

      .cls-97, .cls-98, .cls-99 {
        fill: none;
      }

      .cls-97, .cls-99 {
        stroke-miterlimit: 10;
      }

      .cls-100 {
        clip-path: url(#clippath-11);
      }

      .cls-37 {
        font-size: 7.33px;
      }

      .cls-101 {
        fill: url(#linear-gradient-4);
      }

      .cls-5 {
        fill: #d4a088;
      }

      .cls-38 {
        font-size: 7.33px;
      }

      .cls-39 {
        font-size: 7.33px;
      }

      .cls-102 {
        fill: #808285;
      }

      .cls-40 {
        font-size: 7.33px;
      }

      .cls-41 {
        font-size: 7.33px;
      }

      .cls-6 {
        fill: #432e27;
      }

      .cls-42 {
        font-size: 7.33px;
      }

      .cls-103 {
        fill: url(#linear-gradient-3);
      }

      .cls-7 {
        fill: #efedec;
      }

      .cls-43 {
        font-size: 7.33px;
      }

      .cls-104 {
        clip-path: url(#clippath-1);
      }

      .cls-44 {
        font-size: 7.33px;
      }

      .cls-45 {
        font-size: 7.33px;
      }

      .cls-105 {
        fill: url(#linear-gradient-5);
      }

      .cls-8 {
        fill: #daae99;
      }

      .cls-9 {
        fill: #f3b896;
      }

      .cls-10 {
        fill: #333132;
      }

      .cls-46 {
        font-size: 7.33px;
      }

      .cls-47 {
        font-size: 7.33px;
      }

      .cls-48 {
        font-size: 7.33px;
      }

      .cls-106 {
        clip-path: url(#clippath-5);
      }

      .cls-107 {
        clip-path: url(#clippath-8);
      }

      .cls-108 {
        fill: url(#linear-gradient-8);
      }

      .cls-49 {
        font-size: 7.33px;
      }

      .cls-109 {
        clip-path: url(#clippath-3);
      }

      .cls-11 {
        fill: #363436;
      }

      .cls-12 {
        fill: #5f403b;
      }

      .cls-50 {
        font-size: 7.33px;
      }

      .cls-51 {
        font-size: 7.33px;
      }

      .cls-52 {
        font-size: 7.33px;
      }

      .cls-53 {
        font-size: 7.33px;
      }

      .cls-110 {
        clip-path: url(#clippath-12);
      }

      .cls-111 {
        fill: #d1d3d4;
      }

      .cls-54 {
        font-size: 7.33px;
      }

      .cls-112 {
        clip-path: url(#clippath-14);
      }

      .cls-55 {
        font-size: 7.33px;
      }

      .cls-113 {
        fill: url(#linear-gradient-7);
      }

      .cls-114 {
        fill: url(#linear-gradient-9);
      }

      .cls-56 {
        font-size: 7.33px;
      }

      .cls-13, .cls-115 {
        fill: #006838;
      }

      .cls-116 {
        fill: #432d15;
      }

      .cls-57 {
        font-size: 7.33px;
      }

      .cls-117 {
        fill: url(#linear-gradient-11);
      }

      .cls-58 {
        font-size: 7.33px;
      }

      .cls-59 {
        font-size: 7.33px;
      }

      .cls-60 {
        font-size: 7.33px;
      }

      .cls-61 {
        font-size: 7.33px;
      }

      .cls-63 {
        font-size: 7.33px;
      }

      .cls-118 {
        fill: url(#linear-gradient-6);
      }

      .cls-64 {
        font-size: 7.33px;
      }

      .cls-65 {
        font-size: 7.33px;
      }

      .cls-66 {
        font-size: 7.33px;
      }

      .cls-67 {
        font-size: 7.33px;
      }

      .cls-119 {
        fill: #fad3a8;
      }

      .cls-14 {
        fill: #8b5e3c;
      }

      .cls-68 {
        font-size: 7.33px;
      }

      .cls-69 {
        font-size: 7.33px;
      }

      .cls-70 {
        font-size: 7.33px;
      }

      .cls-71 {
        font-size: 7.33px;
      }

      .cls-72 {
        font-size: 7.33px;
      }

      .cls-73 {
        font-size: 7.33px;
      }

      .cls-74 {
        font-size: 7.33px;
      }

      .cls-99 {
        stroke: #414042;
        stroke-width: 1.2px;
      }

      .cls-75 {
        font-size: 7.33px;
      }

      .cls-15 {
        fill: #2d2a2b;
      }

      .cls-76 {
        font-size: 7.33px;
      }

      .cls-77 {
        font-size: 7.33px;
      }

      .cls-120 {
        clip-path: url(#clippath-2);
      }

      .cls-78 {
        font-size: 7.33px;
      }

      .cls-79 {
        font-size: 7.33px;
      }

      .cls-121 {
        clip-path: url(#clippath-13);
      }

      .cls-80 {
        font-size: 7.33px;
      }

      .cls-81 {
        font-size: 7.33px;
      }

      .cls-82 {
        font-size: 7.33px;
      }

      .cls-83 {
        font-size: 7.33px;
      }

      .cls-122 {
        fill: url(#linear-gradient);
      }

      .cls-84 {
        font-size: 7.33px;
      }

      .cls-85 {
        font-size: 7.33px;
      }

      .cls-123 {
        fill: #371d00;
      }

      .cls-124 {
        clip-path: url(#clippath);
      }

      .cls-16 {
        fill: #dfb19a;
      }

      .cls-125 {
        fill: #414042;
      }

      .cls-86 {
        font-size: 7.33px;
      }

      .cls-87 {
        font-size: 7.33px;
      }
    </style>
    <clipPath id="clippath">
      <path class="cls-98" d="M35.2,227.83c-.17.14-.26.29-.31.43v.48c.14.41.69.79,1.59,1.18,4.3,1.83,16.64,3.15,31.23,3.15s26.93-1.32,31.25-3.15c1.06-.46,1.63-.91,1.63-1.42,0-.21-.12-.45-.36-.67-2.33-2.21-16.02-3.92-32.52-3.92s-30.17,1.71-32.5,3.92"/>
    </clipPath>
    <linearGradient id="linear-gradient" x1="-81.05" y1="501.6" x2="-80.05" y2="501.6" gradientTransform="translate(5359.56 33182.44) scale(65.7 -65.7)" gradientUnits="userSpaceOnUse">
      <stop offset="0" stop-color="#4f4f51"/>
      <stop offset=".14" stop-color="#545456"/>
      <stop offset=".32" stop-color="#626365"/>
      <stop offset=".52" stop-color="#7a7c7f"/>
      <stop offset=".56" stop-color="#808285"/>
      <stop offset=".59" stop-color="#747578"/>
      <stop offset=".65" stop-color="#626365"/>
      <stop offset=".72" stop-color="#565658"/>
      <stop offset=".81" stop-color="#4f4f51"/>
      <stop offset="1" stop-color="#4d4d4f"/>
    </linearGradient>
    <clipPath id="clippath-1">
      <path class="cls-98" d="M98.96,229.92c-4.33,1.83-16.67,3.15-31.25,3.15s-26.93-1.32-31.23-3.15c-.89-.38-1.44-.77-1.59-1.18v2.86c.41,1.18,3.99,2.21,9.56,2.98,5.96.84,14.17,1.34,23.25,1.34s17.29-.51,23.25-1.34c5.96-.82,9.63-1.95,9.63-3.22v-2.86c0,.51-.58.96-1.63,1.42"/>
    </clipPath>
    <linearGradient id="linear-gradient-2" x1="-81.05" y1="501.6" x2="-80.05" y2="501.6" gradientTransform="translate(5359.56 33186.17) scale(65.7 -65.7)" gradientUnits="userSpaceOnUse">
      <stop offset="0" stop-color="#393839"/>
      <stop offset=".09" stop-color="#3e3d3e"/>
      <stop offset=".21" stop-color="#4c4c4d"/>
      <stop offset=".33" stop-color="#656567"/>
      <stop offset=".47" stop-color="#86878a"/>
      <stop offset=".56" stop-color="#a3a5a8"/>
      <stop offset=".58" stop-color="#909295"/>
      <stop offset=".62" stop-color="#747577"/>
      <stop offset=".67" stop-color="#5d5d5f"/>
      <stop offset=".71" stop-color="#4b4a4c"/>
      <stop offset=".77" stop-color="#3f3d3f"/>
      <stop offset=".85" stop-color="#383638"/>
      <stop offset="1" stop-color="#363436"/>
    </linearGradient>
    <clipPath id="clippath-2">
      <rect class="cls-98" x="58.85" y="211.16" width="17.87" height="15.76"/>
    </clipPath>
    <linearGradient id="linear-gradient-3" x1="-81.05" y1="501.6" x2="-80.05" y2="501.6" gradientTransform="translate(1506.85 9180.61) scale(17.87 -17.87)" gradientUnits="userSpaceOnUse">
      <stop offset="0" stop-color="#dadbdc"/>
      <stop offset=".03" stop-color="#c5c6c7"/>
      <stop offset=".1" stop-color="#a5a6a7"/>
      <stop offset=".17" stop-color="#898a8b"/>
      <stop offset=".25" stop-color="#737375"/>
      <stop offset=".34" stop-color="#626264"/>
      <stop offset=".46" stop-color="#555557"/>
      <stop offset=".61" stop-color="#4e4e50"/>
      <stop offset="1" stop-color="#4d4d4f"/>
    </linearGradient>
    <clipPath id="clippath-3">
      <path class="cls-98" d="M3.46,116.43h127.6c1.91,0,3.46,1.55,3.46,3.46v88.87c0,1.91-1.55,3.46-3.46,3.46H3.46c-1.91,0-3.46-1.55-3.46-3.46v-88.87c0-1.91,1.55-3.46,3.46-3.46Z"/>
    </clipPath>
    <linearGradient id="linear-gradient-4" x1="-81.05" y1="501.6" x2="-80.05" y2="501.6" gradientTransform="translate(10902.59 67639.64) scale(134.52 -134.52)" gradientUnits="userSpaceOnUse">
      <stop offset="0" stop-color="#4f4f51"/>
      <stop offset="1" stop-color="#231f20"/>
    </linearGradient>
    <clipPath id="clippath-4">
      <path class="cls-98" d="M7.06,118.53h119.65c1.91,0,3.46,1.55,3.46,3.46v83.91c0,1.91-1.55,3.46-3.46,3.46H7.06c-1.91,0-3.46-1.55-3.46-3.46v-83.92c0-1.91,1.55-3.46,3.46-3.46Z"/>
    </clipPath>
    <linearGradient id="linear-gradient-5" x1="-81.05" y1="501.6" x2="-80.05" y2="501.6" gradientTransform="translate(10261.29 63647.99) scale(126.56 -126.56)" gradientUnits="userSpaceOnUse">
      <stop offset="0" stop-color="#a5a7aa"/>
      <stop offset=".99" stop-color="#545456"/>
      <stop offset="1" stop-color="#545456"/>
    </linearGradient>
    <clipPath id="clippath-5">
      <path class="cls-98" d="M11.42,123.18h110.49c1.91,0,3.46,1.55,3.46,3.46v75.51c0,1.91-1.55,3.46-3.46,3.46H11.42c-1.91,0-3.46-1.55-3.46-3.46v-75.51c0-1.91,1.55-3.46,3.46-3.46Z"/>
    </clipPath>
    <linearGradient id="linear-gradient-6" x1="-81.05" y1="501.6" x2="-80.05" y2="501.6" gradientTransform="translate(9523.42 59054.86) scale(117.41 -117.41)" gradientUnits="userSpaceOnUse">
      <stop offset="0" stop-color="#2484c6"/>
      <stop offset="1" stop-color="#77d2f7"/>
    </linearGradient>
    <clipPath id="clippath-6">
      <rect class="cls-98" width="324" height="237.95"/>
    </clipPath>
    <clipPath id="clippath-7">
      <path class="cls-98" d="M224.68,227.83c-.17.14-.26.29-.31.43v.48c.14.41.7.79,1.59,1.18,4.3,1.83,16.65,3.15,31.23,3.15s26.93-1.32,31.25-3.15c1.06-.46,1.63-.91,1.63-1.42,0-.21-.12-.45-.36-.67-2.33-2.21-16.02-3.92-32.52-3.92s-30.17,1.71-32.5,3.92"/>
    </clipPath>
    <linearGradient id="linear-gradient-7" x1="-81.05" x2="-80.05" gradientTransform="translate(5549.04 33182.44) scale(65.7 -65.7)" xlink:href="#linear-gradient"/>
    <clipPath id="clippath-8">
      <path class="cls-98" d="M288.44,229.92c-4.32,1.83-16.67,3.15-31.25,3.15s-26.93-1.32-31.23-3.15c-.89-.38-1.44-.77-1.59-1.18v2.86c.41,1.18,3.99,2.21,9.56,2.98,5.96.84,14.17,1.34,23.25,1.34s17.29-.51,23.25-1.34c5.96-.82,9.63-1.95,9.63-3.22v-2.86c0,.51-.58.96-1.63,1.42"/>
    </clipPath>
    <linearGradient id="linear-gradient-8" x1="-81.05" x2="-80.05" gradientTransform="translate(5549.04 33186.17) scale(65.7 -65.7)" xlink:href="#linear-gradient-2"/>
    <clipPath id="clippath-9">
      <rect class="cls-98" width="324" height="237.95"/>
    </clipPath>
    <clipPath id="clippath-10">
      <rect class="cls-98" x="248.33" y="211.16" width="17.86" height="15.76"/>
    </clipPath>
    <linearGradient id="linear-gradient-9" x1="-81.05" x2="-80.05" gradientTransform="translate(1696.33 9180.61) scale(17.87 -17.87)" xlink:href="#linear-gradient-3"/>
    <clipPath id="clippath-11">
      <path class="cls-98" d="M192.94,116.43c-1.91,0-3.46,1.55-3.46,3.46v88.87c0,1.91,1.55,3.46,3.46,3.46h127.61c1.78,0,3.25-1.35,3.44-3.08v-89.63c-.19-1.73-1.66-3.08-3.44-3.08h-127.61Z"/>
    </clipPath>
    <linearGradient id="linear-gradient-10" x1="-81.05" x2="-80.05" gradientTransform="translate(11092.07 67639.64) scale(134.52 -134.52)" xlink:href="#linear-gradient-4"/>
    <clipPath id="clippath-12">
      <path class="cls-98" d="M196.54,118.53h119.65c1.91,0,3.46,1.55,3.46,3.46v83.91c0,1.91-1.55,3.46-3.46,3.46h-119.65c-1.91,0-3.46-1.55-3.46-3.46v-83.91c0-1.91,1.55-3.46,3.46-3.46Z"/>
    </clipPath>
    <linearGradient id="linear-gradient-11" x1="-81.05" x2="-80.05" gradientTransform="translate(10450.77 63647.99) scale(126.56 -126.56)" xlink:href="#linear-gradient-5"/>
    <clipPath id="clippath-13">
      <path class="cls-98" d="M200.89,123.18h110.49c1.91,0,3.46,1.55,3.46,3.46v75.5c0,1.91-1.55,3.46-3.46,3.46h-110.49c-1.91,0-3.46-1.55-3.46-3.46v-75.51c0-1.91,1.55-3.46,3.46-3.46Z"/>
    </clipPath>
    <linearGradient id="linear-gradient-12" x1="-81.05" x2="-80.05" gradientTransform="translate(9712.9 59054.86) scale(117.41 -117.41)" xlink:href="#linear-gradient-6"/>
    <clipPath id="clippath-14">
      <rect class="cls-98" width="324" height="237.95"/>
    </clipPath>
    <clipPath id="clippath-15">
      <rect class="cls-98" width="324" height="237.95"/>
    </clipPath>
  </defs>
  <g id="Layer_1-2" data-name="Layer 1">
    <g class="cls-124">
      <rect class="cls-122" x="34.89" y="223.91" width="65.7" height="9.15"/>
    </g>
    <g class="cls-104">
      <rect class="cls-90" x="34.89" y="228.5" width="65.7" height="7.42"/>
    </g>
    <rect class="cls-125" x="56.45" y="211.16" width="17.87" height="15.76"/>
    <g class="cls-120">
      <rect class="cls-103" x="58.85" y="211.16" width="17.87" height="15.76"/>
    </g>
    <g class="cls-109">
      <rect class="cls-101" y="116.43" width="134.52" height="95.78"/>
    </g>
    <g class="cls-89">
      <rect class="cls-105" x="3.6" y="118.53" width="126.56" height="90.83"/>
    </g>
    <g class="cls-106">
      <rect class="cls-118" x="7.96" y="123.18" width="117.4" height="82.42"/>
    </g>
    <g class="cls-17">
      <path class="cls-99" d="M11.42,123.18h110.49c1.91,0,3.46,1.55,3.46,3.46v75.51c0,1.91-1.55,3.46-3.46,3.46H11.42c-1.91,0-3.46-1.55-3.46-3.46v-75.5c0-1.91,1.55-3.46,3.46-3.46Z"/>
      <path class="cls-111" d="M109.91,207.59c0,.5-.4.9-.9.9s-.9-.4-.9-.9.4-.9.9-.9.9.4.9.9"/>
      <path class="cls-102" d="M113.13,207.59c0,.5-.4.9-.9.9s-.9-.4-.9-.9.4-.9.9-.9.9.4.9.9"/>
      <path class="cls-91" d="M116.34,207.59c0,.5-.4.9-.9.9s-.9-.4-.9-.9.4-.9.9-.9.9.4.9.9"/>
    </g>
    <g class="cls-18">
      <rect class="cls-113" x="224.37" y="223.91" width="65.7" height="9.15"/>
    </g>
    <g class="cls-107">
      <rect class="cls-108" x="224.37" y="228.5" width="65.7" height="7.42"/>
    </g>
    <g class="cls-95">
      <rect class="cls-125" x="245.93" y="211.16" width="17.87" height="15.76"/>
    </g>
    <g class="cls-96">
      <rect class="cls-114" x="248.33" y="211.16" width="17.86" height="15.76"/>
    </g>
    <g class="cls-100">
      <rect class="cls-92" x="189.48" y="116.43" width="134.5" height="95.78"/>
    </g>
    <g class="cls-110">
      <rect class="cls-117" x="193.08" y="118.53" width="126.56" height="90.83"/>
    </g>
    <g class="cls-121">
      <rect class="cls-93" x="197.44" y="123.18" width="117.4" height="82.42"/>
    </g>
    <g class="cls-112">
      <path class="cls-99" d="M200.9,123.18h110.49c1.91,0,3.46,1.55,3.46,3.46v75.51c0,1.91-1.55,3.46-3.46,3.46h-110.49c-1.91,0-3.46-1.55-3.46-3.46v-75.5c0-1.91,1.55-3.46,3.46-3.46Z"/>
      <path class="cls-111" d="M299.39,207.59c0,.5-.4.9-.9.9s-.9-.4-.9-.9.4-.9.9-.9.9.4.9.9"/>
      <path class="cls-102" d="M302.61,207.59c0,.5-.4.9-.9.9s-.9-.4-.9-.9.4-.9.9-.9.9.4.9.9"/>
      <path class="cls-91" d="M305.82,207.59c0,.5-.4.9-.9.9s-.9-.4-.9-.9.4-.9.9-.9.9.4.9.9"/>
      <path class="cls-62" d="M282.55,198.97s-1.88-21.52-11.65-24.29c-9.77-2.76-29.42-1.48-33.96-.79-4.54.69-10.37-1.58-15.01,17.57l-1.78,7.6s14.51,3.36,29.62,4.05c15.11.69,32.78-4.15,32.78-4.15"/>
      <path class="cls-94" d="M244.76,167.24c-.02-2.21,13.49-.49,13.49-.49l.53,7.64s-2.37,3.16-7.24,3.16-6.98-2.63-6.98-2.63c0,0,.2-6.83.2-7.68"/>
      <path class="cls-119" d="M264.58,140.62s5.53,8.59,4.74,14.51c-.79,5.92-5.33,9.68-7.5,11.16-2.17,1.48-7.11,3.55-11.16,3.16-4.05-.39-14.19-5.95-14.81-13.03-.64-7.31-.6-12.46.39-13.92.68-.99,3.26-4.15,8.79-1.78,5.53,2.37,6.75.95,9.31-1.12,2.57-2.07,7.47-3.13,10.24,1.02"/>
      <path class="cls-123" d="M235.78,157.18s-.4-13.04,1.18-14.49c1.58-1.45,4.08-1.97,7.24,0,3.16,1.98,3.95,6.71,8.69,1.84,4.74-4.87,9.21-7.11,9.87-5.27.66,1.84,3.69,5,3.42,8.82-.26,3.82,3.16,4.61,3.29,5.4.13.79,1.71,1.45,1.05-4.48-.66-5.92.66-13.69-9.48-17.38-10.14-3.69-10.79-3.55-11.45-3.42-.66.13-.53-2.11-.53-2.11,0,0-.79.4-.79,1.45s-.53.26-1.71-.39c-1.18-.66-1.71-.92-1.71-.92,0,0,.66.39.92,1.45.26,1.05.79,1.71.79,1.71,0,0,1.45.53-1.84,1.32-3.29.79-5.79.92-8.69,5.66-2.9,4.74-3.95,5.14-3.16,10.93.79,5.79,2.77,8.04,2.9,9.88"/>
      <path class="cls-1" d="M94.51,197.33s-1.58-18.09-9.79-20.42c-8.22-2.32-24.73-1.24-28.55-.66-3.82.58-8.71-1.33-12.62,14.77l-1.49,6.39s12.2,2.82,24.9,3.4c12.7.58,27.55-3.49,27.55-3.49"/>
      <path class="cls-116" d="M57.12,180.74c.86-2.21,15.37-9.26,20.96-3.3,1.36,1.45,1.77,2.43,1.77,2.43,0,0,3.21-4.87,5.31-11.4,2.1-6.53,3.21-9.41,2.77-17.6-.44-8.19-5.09-21.14-16.93-20.81-11.84.33-22.57,6.09-22.35,19.15.22,13.06,2.1,24.12,3.65,30.43,1.55,6.31-.81,19.4-.81,19.4,0,0,3.4,3.63,5.09-1.84.75-2.42.3-15.86.54-16.47"/>
      <path class="cls-94" d="M62.75,170.66c-.02-1.85,11.34-.41,11.34-.41l.44,6.42s-1.99,2.65-6.09,2.65-5.87-2.21-5.87-2.21c0,0,.17-5.74.17-6.45"/>
      <path class="cls-119" d="M76.09,141.03s2.43,7.19,4.65,13.5c2.21,6.31-.88,13.06-5.42,15.38-4.54,2.32-4.98,2.32-5.98,2.1-.6-.13-3.73-.27-6.59-1.36-1.86-.71-3.61-1.83-4.48-3.62-2.21-4.54-3.43-11.51-2.1-8.74,1.33,2.77,2.32,6.09,2.32,1.77s-.55-11.73,3.98-14.94c4.54-3.21,13.61-4.1,13.61-4.1"/>
      <path class="cls-115" d="M89.87,159.71c11.08-.28,22.48,3.51,32.38,8.2,5.23,2.47,10.26,5.51,14.62,9.31,3.93,3.42,6.35,7.56,8.73,12.12,5.45,10.46,19.14,7.62,27.7,2.86,9.63-5.35,16.01-14.2,23.3-22.16,3.77-4.13,7.93-8.01,13.01-10.46,5.82-2.8,12.27-2.43,18.27-.42.8.27,1.14-.99.35-1.26-9.77-3.28-18.72-1.18-26.55,5.34-7.83,6.52-13.38,15.33-20.97,22.11-8.15,7.28-26.91,16.57-33.98,3.32-2.29-4.29-4.48-8.17-8.03-11.56-3.88-3.7-8.53-6.59-13.25-9.07-10.64-5.59-23.43-9.95-35.58-9.65-.84.02-.85,1.33,0,1.31"/>
      <path class="cls-4" d="M234.74,162.07c-.99.02-1.99.03-2.98.05-.27,0-.54.02-.82.03-.38-.02-.41-.38-.57-.61,0-.03,0-.05-.04-.07-.05-.13-.1-.26-.14-.4-.02-.06-.04-.11-.07-.17-.03-.1-.06-.2-.08-.3,0-.03,0-.05-.03-.07-.02-.1-.05-.19-.07-.29-.11-.45-.22-.9-.33-1.34-.01-.03-.02-.06-.03-.09-.27-1.85-.59-3.69-.52-5.57.03-.77-.1-1.58.38-2.28.76.03,1.45-.3,2.17-.44.53-.1,1.03-.34,1.58-.34-.11,1.17-.12,2.35-.03,3.52.22,2.85.57,5.67,1.59,8.36"/>
      <path class="cls-13" d="M230.75,162.28c-1-.03-2-.06-3-.09-.98.01-1.97.09-2.95-.11-.51-1.14-.8-2.34-1.01-3.56-.16-.93-.33-1.86-.29-2.82,0-.06,0-.13-.01-.19-.04-.2-.07-.39-.02-.59-.05-.36-.04-.71.01-1.07-.02-.1-.04-.21.02-.3-.03-.2-.02-.4.06-.59.01-.13.03-.26.04-.38.49-.29,1.07-.35,1.6-.51.61-.19,1.24-.34,1.86-.5.12-.03.25-.06.37-.09.58-.26,1.24-.28,1.81-.59.03-.02.11.05.17.07-.48.7-.35,1.51-.38,2.28-.07,1.88.25,3.72.52,5.57.01.03.02.06.03.09.11.44.22.89.33,1.33,0,0,0,0,0,.01.04.26.44,1.26.43,1.29.16.23.19.58.57.6-.06.05-.09.13-.19.12"/>
      <path class="cls-4" d="M224.81,162.08c-1.41.02-2.82.02-4.23-.06-.55-.04-.7-.57-.84-.96-.66-1.91-1.02-3.88-.83-5.91.14-1.57.36-1.31,1.56-1.67,1.04-.31,2.1-.59,3.14-.88-.01.13-.03.26-.05.38-.08.19-.09.39-.06.59-.06.1-.05.2-.02.3-.06.36-.06.71-.01,1.07-.05.2-.02.39.02.59,0,.06,0,.13.01.19-.03.95.13,1.89.3,2.82.21,1.22.5,2.42,1.01,3.56"/>
      <path class="cls-13" d="M231.82,150.48c.22-.06.34,0,.43.36.35,1.29.58,2.6.85,3.91.24,1.22.31,2.44.44,3.66.12,1.14.13,2.28.1,3.42,0,.33-.21.19-.33.26.1.32.27.42.5.4.17-.02.35-.02.52,0,.25.05.39-.07.42-.41.12-2.84-.25-5.66-.71-8.47-.19-1.16-.45-2.3-.79-3.41-.13-.37-.31-.51-.59-.35-.14.08-.31.1-.48.12-.23.03-.34.2-.36.5"/>
      <path class="cls-4" d="M86.26,151c.95.27,1.91.54,2.87.81.26.07.53.13.79.2.36.13.28.48.38.74-.01.03-.01.06.01.08,0,.14.02.28.02.42,0,.06,0,.12.01.18,0,.11,0,.21,0,.31-.01.03-.01.05.01.07,0,.1,0,.2-.01.3-.02.46-.04.92-.07,1.38,0,.03,0,.07,0,.1-.27,1.85-.49,3.71-1.09,5.49-.25.73-.35,1.54-1.01,2.07-.72-.25-1.47-.13-2.21-.2-.54-.05-1.08.03-1.61-.13.44-1.09.79-2.21,1.03-3.36.6-2.79,1.07-5.6.87-8.47"/>
      <path class="cls-13" d="M90.13,151.94c.95.32,1.9.63,2.85.94.94.27,1.91.47,2.79.94.17,1.24.1,2.47-.05,3.7-.11.94-.22,1.88-.52,2.78-.01.06-.03.12-.04.19-.02.2-.05.39-.15.57-.06.36-.16.7-.32,1.02,0,.11-.02.21-.11.28-.03.2-.09.39-.22.54-.05.12-.1.24-.15.36-.56.14-1.12.03-1.68.03-.64,0-1.29-.03-1.93-.05-.13,0-.26-.01-.39-.02-.63.08-1.27-.08-1.9.05-.04,0-.09-.08-.14-.12.66-.53.76-1.34,1.01-2.07.6-1.78.82-3.64,1.09-5.49,0-.03,0-.07,0-.1.02-.46.04-.91.06-1.37,0,0,0,0,0-.01.04-.26-.06-1.33-.05-1.36-.09-.27-.02-.61-.38-.74.07-.03.12-.1.22-.07"/>
      <path class="cls-4" d="M95.78,153.82c1.36.39,2.71.78,4.03,1.27.52.19.51.74.53,1.16.08,2.02-.13,4.01-.89,5.91-.58,1.46-.72,1.15-1.97,1.15-1.09,0-2.18-.03-3.26-.05.05-.12.1-.24.15-.35.13-.16.19-.34.23-.54.09-.07.1-.18.11-.28.15-.33.26-.67.32-1.02.11-.17.13-.37.15-.57.01-.06.03-.12.04-.19.3-.9.41-1.85.52-2.78.15-1.23.22-2.46.05-3.7"/>
      <path class="cls-13" d="M85.74,162.94c-.23,0-.32-.1-.31-.47.03-1.33.18-2.66.31-3.99.11-1.24.4-2.43.62-3.63.21-1.13.52-2.23.89-3.31.1-.32.26-.12.39-.16,0-.33-.14-.48-.37-.53-.17-.04-.34-.07-.49-.16-.23-.12-.4-.05-.52.27-.93,2.69-1.38,5.5-1.74,8.32-.15,1.16-.22,2.33-.22,3.49.02.39.15.58.47.51.16-.04.33,0,.49.02.23.04.39-.09.49-.37"/>
      <path class="cls-15" d="M181.4,65.97c.14.06.28.11.42.17.14.06.28.11.42.17,5.5.9,8.71,4.52,8.85,9.97.13,5.24-.76,10.36-1.71,15.47-.15.83-.43,1.11-1.3,1.11-11.84-.03-23.68-.02-35.52,0-.79,0-1.19-.16-1.37-1.06-.96-4.74-1.8-9.49-2.1-14.32-.45-7.32,2.36-10.51,9.94-11.52,1.68-.55,2.74.64,3.88,1.46,2.69,1.94,3.08,5.17,4.39,7.89.54,1.11-.91-42.52,2.4,2.93.31.96-.03,2.1.82,2.98.16-.78.31-1.5.46-2.21.97.11,1.22-.55,1.5-1.29.85-2.3,1.75-4.58,2.64-6.87,1.11-2.88,3.63-4.84,6.27-4.88"/>
      <path class="cls-15" d="M154.26,38.51c-.3.02-.6.03-.9.05-1.64,0-3.29-.02-4.94-.02-1.36-.37-1.13-1.11-.38-1.86,1.16-1.15,2.57-1.97,4.07-2.54,1.23-.47,1.78-1.26,2.19-2.46,1.13-3.27,2.46-6.45,4.15-9.49,1.1-1.99,2.67-2.77,4.88-2.58,2.78.23,5.55.44,8.34.61,2.36.14,4.71-.12,7.04-.44,2.02-.28,3.27.56,4.16,2.31,1.6,3.16,2.78,6.47,3.74,9.86.37,1.29.92,2.19,2.21,2.69,1.04.4,1.96,1.05,2.77,1.84.35.34.79.72.57,1.27-.21.51-.75.63-1.24.64-1.55.04-3.1.03-4.64.04-2.65.16-5.27-.7-7.94-.3-5.77-.82-11.54-.51-17.31-.02-1.8-.17-3.54.18-5.29.55-.49-.04-.98-.08-1.47-.11"/>
      <path class="cls-9" d="M154.26,38.51c.49.04.98.07,1.47.11.13.12.27.24.41.36.63,1.74.22,3.54.33,5.31.05.84-.12,1.76.88,2.23l-.02-.02c-.11.35-.07.65.3.82v-.02c-.04.35.02.64.42.74l-.04-.04c.14.14.29.27.43.41.1-.01.19.02.26.11.08.42.32.67.75.66,2.16-.03,4.34.28,6.46-.37.5-.15,1.16-.14,1.17-.93h.04c.27.07.39-.04.39-.32l.1.1-.11-.09c1.22-.18,1.04-1.35,1.45-2.09.35-.62.58-1.49,1.5-1.35.75.12,1.27.61,1.34,1.51.05.6.27,1.21,1.04,1.33v.03c.04.32.14.59.5.67,1.51.8,3.14,1.09,4.83,1.15,4.52.14,5.22-.49,5.6-5.07.02-.16.04-.33.06-.49.04-.62.07-1.25.11-1.88.52-1.05.48-2.56,2.17-2.64,1.7,1.24,1.2,3.08,1.28,4.75.09,1.74-.32,3.42-.82,5.08-.18.59-.42,1.39-1.01,1.47-1.91.26-1.8,1.67-1.91,2.99-.13,1.6-1.51,2.77-1.51,4.41-2.29,1.27-4.58,2.54-6.86,3.81-1.16.65-2.06,1.51-2.37,2.86-1.63.59-3.34.27-5.01.4-.07-.05-.09-.11-.03-.18-.06-.2-.12-.4-.19-.6-.3-1.09-1.07-1.78-2-2.3-2.25-1.26-4.52-2.51-6.77-3.76-.83-2.17-2.13-4.19-2.09-6.64.01-.7-.54-.73-1.06-.7-1.31.07-1.65-.83-1.89-1.85-.79-3.36-.94-6.69.4-9.96"/>
      <path class="cls-11" d="M172.91,64.11c.31-1.35,1.21-2.21,2.37-2.86,2.29-1.27,4.58-2.54,6.86-3.81.68-.28,1.35-.57,2.29-.96-.69,3.42-1.12,6.67-3.03,9.49-2.64.04-5.16,1.99-6.27,4.88-.88,2.29-1.78,4.57-2.64,6.87-.27.74-.53,1.4-1.5,1.29.38-3.49.76-6.97,1.13-10.46.26-1.48.52-2.95.78-4.43"/>
      <path class="cls-11" d="M158.9,57.66c2.26,1.25,4.52,2.5,6.77,3.76.94.52,1.71,1.22,2.01,2.3.06.2.12.4.19.6-.05.07-.04.14.03.19.2,1.34.41,2.68.61,4.03.4,3.23.8,6.47,1.2,9.7-2.06.08-1.86-1.81-2.4-2.93-1.31-2.73-1.7-5.96-4.39-7.89-1.15-.82-2.2-2.01-3.88-1.46-1.32-2.96-2.27-6.01-2.69-9.51,1.02.49,1.79.85,2.55,1.22"/>
      <path class="cls-14" d="M186.09,38.75c-1.69.08-1.65,1.59-2.17,2.64-1.08-1.03-2.41-1.19-3.82-1.1-.27-.53-.64-.96-1.13-1.29-.12-.13-.24-.26-.36-.38-.09-.17-.19-.34-.28-.51,2.67-.4,5.28.46,7.94.3-.06.12-.12.23-.18.35"/>
      <path class="cls-2" d="M182.24,66.31c-.14-.06-.28-.11-.42-.17.14.06.28.11.42.17"/>
      <path class="cls-7" d="M169.72,78.24c-.4-3.23-.8-6.47-1.2-9.7,1.2,0,2.41,0,3.61,0-.38,3.49-.76,6.97-1.13,10.46-.15.72-.3,1.43-.46,2.21-.85-.87-.51-2.02-.82-2.98"/>
      <path class="cls-16" d="M178.33,38.1c.09.17.19.34.28.51-.06.05-.11.11-.17.17-.54-.12-1.08-.36-1.62-.36-4.7-.03-9.4-.02-14.1-.02-.65,0-1.38.11-1.31.92.06.8.85.47,1.35.57,1.75.34,3.7-.17,5.22,1.2-.24,0-.48-.01-.72-.02-.24-.04-.48-.07-.72-.11-1.84-.51-3.72-.62-5.61-.47-.18-.06-.36-.12-.54-.19.21-.74.43-1.49.64-2.23,5.77-.48,11.54-.8,17.31.02"/>
      <path class="cls-14" d="M161.02,38.08c-.21.75-.42,1.49-.64,2.24-1.08-.25-2.08.24-3.13.34-.19-.68-.38-1.36-1.12-1.67-.14-.12-.27-.24-.41-.36,1.74-.36,3.49-.72,5.29-.55"/>
      <path class="cls-10" d="M183.92,41.38c-.03.63-.07,1.25-.11,1.88-.02.16-.04.33-.06.49-.38,4.58-1.08,5.21-5.6,5.07-1.68-.06-3.32-.35-4.83-1.15-.16-.22-.32-.45-.48-.67v-.03c-.56-1.09-.39-2.49-1.48-3.34-.62-.02-1.24-.03-1.85-.05-.65-.04-.75.41-.85.92-.2,1.09-.65,2.09-1.16,3.06,0,0,0,0,0,0-.12.1-.25.19-.37.29h-.04c-2.73,1.04-5.53,1.26-8.38.65-.07-.08-.15-.12-.26-.1-.13-.13-.26-.25-.4-.38-.13-.24-.27-.47-.41-.71-.1-.27-.21-.54-.31-.82l.02.02c-.24-1.95-.96-3.9-.09-5.87,1.04-.1,2.05-.59,3.13-.34.18.06.36.13.54.19,1.9-.15,3.77-.04,5.61.47.24.04.48.07.72.11.24,0,.48.02.72.02.13.1.26.19.39.29,0,.12.02.24.04.35.1.13.22.26.32.4.13.04.27.08.4.12.74-.26,1.49-.28,2.24-.04.52,0,.76-.29.81-.78l-.03.02c.12-.13.24-.27.36-.4,2.53-.25,5.06-.5,7.59-.76,1.41-.1,2.73.07,3.82,1.09"/>
      <path class="cls-10" d="M167.6,47.67l-.11-.09s0,0,0,0h0s.1.09.1.09Z"/>
      <path class="cls-5" d="M172.13,68.54c-1.2,0-2.41,0-3.61,0-.2-1.34-.41-2.68-.61-4.03,1.67-.13,3.37.19,5.01-.4-.26,1.48-.52,2.95-.78,4.43"/>
      <path class="cls-8" d="M167.49,47.58c.52-.97.96-1.98,1.17-3.06.1-.51.19-.96.85-.92.62.01,1.23.03,1.85.04,1.09.85.92,2.25,1.47,3.34-.76-.12-.99-.73-1.04-1.33-.07-.9-.59-1.39-1.34-1.51-.92-.14-1.15.72-1.5,1.35-.42.74-.23,1.91-1.45,2.09"/>
      <path class="cls-8" d="M158.7,48.52c2.86.61,5.65.39,8.38-.63-.02.78-.67.77-1.17.92-2.12.65-4.3.34-6.46.37-.43,0-.68-.24-.75-.66"/>
      <path class="cls-8" d="M157.26,40.65c-.88,1.97-.15,3.92.09,5.87-.99-.47-.82-1.39-.88-2.23-.11-1.77.29-3.57-.33-5.31.74.31.93.99,1.12,1.67"/>
      <path class="cls-8" d="M157.32,46.51c.1.27.2.55.3.82-.37-.17-.41-.47-.3-.82"/>
      <path class="cls-8" d="M172.84,47.01c.16.22.32.45.49.67-.36-.08-.46-.35-.49-.67"/>
      <path class="cls-8" d="M157.62,47.3c.14.25.29.49.43.74-.4-.1-.46-.39-.43-.74"/>
      <path class="cls-12" d="M183.75,43.75c.02-.16.04-.33.06-.49-.02.17-.04.33-.06.49"/>
      <path class="cls-8" d="M167.11,47.87c.13-.1.26-.2.39-.3,0,.27-.11.39-.39.3"/>
      <path class="cls-8" d="M158.01,48c.14.14.29.28.43.41-.14-.14-.29-.28-.43-.41"/>
      <path class="cls-5" d="M167.87,64.33c-.06-.2-.12-.4-.19-.6.06.2.12.4.19.6"/>
      <path class="cls-16" d="M180.1,40.29c-2.53.25-5.06.51-7.59.76,1.6-1.03,3.39-1.11,5.21-1.18.39-.02,1.44.57,1.09-.71.05-.05.1-.1.16-.15.49.33.86.76,1.13,1.29"/>
      <path class="cls-16" d="M178.61,38.61c.12.13.24.26.36.39-.05.05-.11.1-.16.15-.12-.12-.25-.25-.37-.37.06-.06.11-.11.17-.17"/>
      <path class="cls-3" d="M178.44,38.78c.12.12.25.25.37.37.35,1.28-.7.7-1.09.71-1.82.07-3.62.15-5.21,1.18l.02-.02c-.12.14-.25.28-.38.42l.03-.02c-1.27-.02-2.54-.03-3.81-.05-.13-.1-.26-.19-.39-.29-1.52-1.37-3.46-.86-5.22-1.2-.5-.1-1.29.23-1.35-.57-.06-.82.66-.93,1.31-.93,4.7,0,9.4-.01,14.1.02.54,0,1.08.23,1.62.36"/>
      <path class="cls-16" d="M171.37,42.21c-.75-.23-1.5-.21-2.24.05-.13-.04-.27-.08-.4-.12-.11-.13-.22-.27-.33-.4h0c-.02-.11-.03-.23-.04-.34,1.27.02,2.54.03,3.81.05-.05.49-.29.78-.81.78"/>
      <path class="cls-16" d="M172.15,41.45c.12-.14.25-.28.38-.42-.12.14-.25.28-.38.42"/>
      <path class="cls-6" d="M168.4,41.73c.11.14.22.27.33.41-.11-.14-.22-.27-.33-.41"/>
    </g>
    <text class="cls-69" transform="translate(166.55 104.3) rotate(-173.89)"><tspan x="0" y="0">1</tspan></text>
    <text class="cls-37" transform="translate(162.84 103.9) rotate(-169.46)"><tspan x="0" y="0">0</tspan></text>
    <text class="cls-50" transform="translate(159.16 103.22) rotate(-164.99)"><tspan x="0" y="0">1</tspan></text>
    <text class="cls-49" transform="translate(155.55 102.25) rotate(-160.51)"><tspan x="0" y="0">0</tspan></text>
    <text class="cls-64" transform="translate(152.03 101.01) rotate(-156.03)"><tspan x="0" y="0">1</tspan></text>
    <text class="cls-52" transform="translate(148.62 99.49) rotate(-151.57)"><tspan x="0" y="0">0</tspan></text>
    <text class="cls-70" transform="translate(145.33 97.72) rotate(-147.12)"><tspan x="0" y="0">1</tspan></text>
    <text class="cls-34" transform="translate(142.18 95.68) rotate(-142.67)"><tspan x="0" y="0">0</tspan></text>
    <text class="cls-46" transform="translate(139.22 93.42) rotate(-138.26)"><tspan x="0" y="0">1</tspan></text>
    <text class="cls-63" transform="translate(136.43 90.93) rotate(-133.83)"><tspan x="0" y="0">0</tspan></text>
    <text class="cls-39" transform="translate(133.83 88.23) rotate(-129.4)"><tspan x="0" y="0">1</tspan></text>
    <text class="cls-76" transform="translate(131.47 85.35) rotate(-124.99)"><tspan x="0" y="0">1</tspan></text>
    <text class="cls-30" transform="translate(129.32 82.29) rotate(-120.56)"><tspan x="0" y="0">1</tspan></text>
    <text class="cls-73" transform="translate(127.42 79.07) rotate(-116.1)"><tspan x="0" y="0">1</tspan></text>
    <text class="cls-75" transform="translate(125.78 75.72) rotate(-111.65)"><tspan x="0" y="0">1</tspan></text>
    <text class="cls-59" transform="translate(124.4 72.24) rotate(-107.17)"><tspan x="0" y="0">1</tspan></text>
    <text class="cls-43" transform="translate(123.29 68.67) rotate(-102.69)"><tspan x="0" y="0">1</tspan></text>
    <text class="cls-31" transform="translate(122.47 65.04) rotate(-98.24)"><tspan x="0" y="0">0</tspan></text>
    <text class="cls-32" transform="translate(121.94 61.33) rotate(-93.77)"><tspan x="0" y="0">0</tspan></text>
    <text class="cls-21" transform="translate(121.69 57.61) rotate(-89.38)"><tspan x="0" y="0">0</tspan></text>
    <text class="cls-24" transform="translate(121.73 53.87) rotate(-85.01)"><tspan x="0" y="0">0</tspan></text>
    <text class="cls-31" transform="translate(122.05 50.13) rotate(-80.58)"><tspan x="0" y="0">0</tspan></text>
    <text class="cls-58" transform="translate(122.66 46.45) rotate(-76.12)"><tspan x="0" y="0">1</tspan></text>
    <text class="cls-20" transform="translate(123.56 42.83) rotate(-71.66)"><tspan x="0" y="0">1</tspan></text>
    <text class="cls-72" transform="translate(124.73 39.29) rotate(-67.18)"><tspan x="0" y="0">1</tspan></text>
    <text class="cls-45" transform="translate(126.18 35.84) rotate(-62.71)"><tspan x="0" y="0">1</tspan></text>
    <text class="cls-54" transform="translate(127.89 32.52) rotate(-58.25)"><tspan x="0" y="0">1</tspan></text>
    <text class="cls-61" transform="translate(129.86 29.34) rotate(-53.81)"><tspan x="0" y="0">1</tspan></text>
    <text class="cls-19" transform="translate(132.06 26.33) rotate(-49.39)"><tspan x="0" y="0">0</tspan></text>
    <text class="cls-22" transform="translate(134.5 23.49) rotate(-44.96)"><tspan x="0" y="0">0</tspan></text>
    <text class="cls-35" transform="translate(137.14 20.84) rotate(-40.54)"><tspan x="0" y="0">1</tspan></text>
    <text class="cls-57" transform="translate(139.98 18.41) rotate(-36.12)"><tspan x="0" y="0">1</tspan></text>
    <text class="cls-79" transform="translate(143 16.21) rotate(-31.7)"><tspan x="0" y="0">1</tspan></text>
    <text class="cls-72" transform="translate(146.18 14.24) rotate(-27.25)"><tspan x="0" y="0">0</tspan></text>
    <text class="cls-49" transform="translate(149.5 12.53) rotate(-22.79)"><tspan x="0" y="0">0</tspan></text>
    <text class="cls-56" transform="translate(152.95 11.08) rotate(-18.31)"><tspan x="0" y="0">1</tspan></text>
    <text class="cls-51" transform="translate(156.5 9.91) rotate(-13.83)"><tspan x="0" y="0">1</tspan></text>
    <text class="cls-41" transform="translate(160.12 9.02) rotate(-9.36)"><tspan x="0" y="0">0</tspan></text>
    <text class="cls-80" transform="translate(163.81 8.41) rotate(-4.91)"><tspan x="0" y="0">0</tspan></text>
    <text class="cls-58" transform="translate(167.53 8.09) rotate(-.5)"><tspan x="0" y="0">1</tspan></text>
    <text class="cls-77" transform="translate(171.27 8.05) rotate(3.88)"><tspan x="0" y="0">0</tspan></text>
    <text class="cls-74" transform="translate(175 8.3) rotate(8.28)"><tspan x="0" y="0">0</tspan></text>
    <text class="cls-60" transform="translate(178.7 8.84) rotate(12.73)"><tspan x="0" y="0">0</tspan></text>
    <text class="cls-65" transform="translate(182.35 9.67) rotate(17.21)"><tspan x="0" y="0">1</tspan></text>
    <text class="cls-78" transform="translate(185.92 10.77) rotate(21.69)"><tspan x="0" y="0">1</tspan></text>
    <text class="cls-53" transform="translate(189.38 12.15) rotate(26.16)"><tspan x="0" y="0">1</tspan></text>
    <text class="cls-36" transform="translate(192.74 13.8) rotate(30.62)"><tspan x="0" y="0">1</tspan></text>
    <text class="cls-68" transform="translate(195.95 15.69) rotate(35.05)"><tspan x="0" y="0">1</tspan></text>
    <text class="cls-26" transform="translate(199.02 17.85) rotate(39.5)"><tspan x="0" y="0">1</tspan></text>
    <text class="cls-23" transform="translate(201.89 20.22) rotate(43.91)"><tspan x="0" y="0">1</tspan></text>
    <text class="cls-35" transform="translate(204.59 22.81) rotate(48.33)"><tspan x="0" y="0">0</tspan></text>
    <text class="cls-24" transform="translate(207.07 25.6) rotate(52.75)"><tspan x="0" y="0">0</tspan></text>
    <text class="cls-83" transform="translate(209.34 28.58) rotate(57.19)"><tspan x="0" y="0">0</tspan></text>
    <text class="cls-67" transform="translate(211.37 31.72) rotate(61.63)"><tspan x="0" y="0">0</tspan></text>
    <text class="cls-48" transform="translate(213.14 35.01) rotate(66.08)"><tspan x="0" y="0">0</tspan></text>
    <text class="cls-84" transform="translate(214.66 38.42) rotate(70.55)"><tspan x="0" y="0">0</tspan></text>
    <text class="cls-33" transform="translate(215.9 41.93) rotate(75.01)"><tspan x="0" y="0">0</tspan></text>
    <text class="cls-82" transform="translate(216.87 45.55) rotate(79.49)"><tspan x="0" y="0">1</tspan></text>
    <text class="cls-66" transform="translate(217.55 49.23) rotate(83.96)"><tspan x="0" y="0">0</tspan></text>
    <text class="cls-47" transform="translate(217.95 52.95) rotate(88.39)"><tspan x="0" y="0">1</tspan></text>
    <text class="cls-79" transform="translate(218.06 56.67) rotate(93)"><tspan x="0" y="0">0</tspan></text>
    <text class="cls-25" transform="translate(217.87 60.41) rotate(97.15)"><tspan x="0" y="0">1</tspan></text>
    <text class="cls-44" transform="translate(217.41 64.12) rotate(101.6)"><tspan x="0" y="0">0</tspan></text>
    <text class="cls-73" transform="translate(216.66 67.78) rotate(106.06)"><tspan x="0" y="0">1</tspan></text>
    <text class="cls-29" transform="translate(215.62 71.38) rotate(110.55)"><tspan x="0" y="0">0</tspan></text>
    <text class="cls-27" transform="translate(214.31 74.87) rotate(115.02)"><tspan x="0" y="0">1</tspan></text>
    <text class="cls-85" transform="translate(212.74 78.25) rotate(119.47)"><tspan x="0" y="0">1</tspan></text>
    <text class="cls-19" transform="translate(210.9 81.51) rotate(123.93)"><tspan x="0" y="0">1</tspan></text>
    <text class="cls-42" transform="translate(208.82 84.61) rotate(128.36)"><tspan x="0" y="0">1</tspan></text>
    <text class="cls-77" transform="translate(206.5 87.54) rotate(132.78)"><tspan x="0" y="0">1</tspan></text>
    <text class="cls-55" transform="translate(203.96 90.28) rotate(137.2)"><tspan x="0" y="0">1</tspan></text>
    <text class="cls-38" transform="translate(201.22 92.82) rotate(141.62)"><tspan x="0" y="0">1</tspan></text>
    <text class="cls-86" transform="translate(198.29 95.14) rotate(146.04)"><tspan x="0" y="0">1</tspan></text>
    <text class="cls-28" transform="translate(195.19 97.23) rotate(150.48)"><tspan x="0" y="0">1</tspan></text>
    <text class="cls-40" transform="translate(191.94 99.07) rotate(154.93)"><tspan x="0" y="0">0</tspan></text>
    <text class="cls-71" transform="translate(188.54 100.66) rotate(159.41)"><tspan x="0" y="0">0</tspan></text>
    <text class="cls-82" transform="translate(185.05 101.97) rotate(163.88)"><tspan x="0" y="0">0</tspan></text>
    <text class="cls-87" transform="translate(181.46 103.01) rotate(168.35)"><tspan x="0" y="0">0</tspan></text>
    <text class="cls-81" transform="translate(177.81 103.77) rotate(172.82)"><tspan x="0" y="0">1</tspan></text>
    <g class="cls-88">
      <path class="cls-62" d="M169.82,85.95c0,5.28-.03,10.55,0,15.83.04,5.54.75,11.06.63,16.61-.11,5.35-1.71,10.43-2.86,15.61-1.15,5.2-1.17,10.51-1.46,15.8-.26,4.68-.6,9.65-1.98,14.15-1.31,4.27-3.66,7.92-4.58,12.36-1.17,5.67-3.34,14.24,1.53,18.8.62.58,1.54-.35.93-.92-2.71-2.54-2.67-6.53-2.42-9.97.26-3.59.99-7.35,2-10.8,1.24-4.22,3.7-7.84,4.57-12.21.87-4.37,1.15-8.96,1.37-13.4.27-5.51.65-10.81,1.94-16.19,1.14-4.76,2.19-9.32,2.3-14.23.11-5.21-.54-10.41-.65-15.62-.11-5.27,0-10.55,0-15.83,0-.84-1.31-.84-1.31,0"/>
      <path class="cls-97" d="M153.81,44.15c-1.22,1.13-2.76,3.49-1.57,7.69,1.83,6.46,9.95,34.63,18.23,33.06,8.29-1.57,17.97-26.7,18.76-31.67.59-3.76-1.06-6.93-2.58-8.24"/>
      <path class="cls-62" d="M152.83,42.94c.7-.51,1.69-.35,2.2.35.51.7.35,1.69-.35,2.2-.7.51-1.69.35-2.2-.35-.51-.7-.35-1.69.35-2.2"/>
      <path class="cls-62" d="M187.42,43.64c-.78-.39-1.72-.08-2.12.7-.39.78-.08,1.72.7,2.12.77.39,1.72.08,2.11-.7.39-.78.08-1.72-.69-2.12"/>
    </g>
  </g>
</svg>