<?xml version="1.0" encoding="UTF-8"?>
<svg id="Layer_2" data-name="Layer 2" xmlns="http://www.w3.org/2000/svg" xmlns:xlink="http://www.w3.org/1999/xlink" viewBox="0 0 247.61 159.38">
  <defs>
    <style>
      .cls-1 {
        clip-path: url(#clippath-76);
      }

      .cls-2 {
        clip-path: url(#clippath-51);
      }

      .cls-3 {
        clip-path: url(#clippath-34);
      }

      .cls-4 {
        fill: url(#linear-gradient-15);
      }

      .cls-5 {
        fill: url(#linear-gradient-13);
      }

      .cls-6 {
        fill: url(#linear-gradient-28);
      }

      .cls-7 {
        clip-path: url(#clippath-38);
      }

      .cls-8 {
        clip-path: url(#clippath-21);
      }

      .cls-9 {
        clip-path: url(#clippath-6);
      }

      .cls-10 {
        clip-path: url(#clippath-7);
      }

      .cls-11 {
        clip-path: url(#clippath-17);
      }

      .cls-12 {
        fill: url(#linear-gradient-42);
      }

      .cls-13 {
        clip-path: url(#clippath-80);
      }

      .cls-14 {
        clip-path: url(#clippath-31);
      }

      .cls-15 {
        fill: url(#linear-gradient-46);
      }

      .cls-16 {
        clip-path: url(#clippath-79);
      }

      .cls-17 {
        clip-path: url(#clippath-75);
      }

      .cls-18 {
        clip-path: url(#clippath-15);
      }

      .cls-19 {
        clip-path: url(#clippath-33);
      }

      .cls-20 {
        clip-path: url(#clippath-61);
      }

      .cls-21 {
        clip-path: url(#clippath-18);
      }

      .cls-22 {
        clip-path: url(#clippath-47);
      }

      .cls-23 {
        clip-path: url(#clippath-4);
      }

      .cls-24 {
        clip-path: url(#clippath-71);
      }

      .cls-25 {
        fill: url(#linear-gradient-2);
      }

      .cls-26 {
        clip-path: url(#clippath-22);
      }

      .cls-27 {
        clip-path: url(#clippath-23);
      }

      .cls-28 {
        fill: url(#linear-gradient-43);
      }

      .cls-29 {
        fill: url(#linear-gradient-25);
      }

      .cls-30 {
        fill: url(#linear-gradient-10);
      }

      .cls-31 {
        fill: url(#linear-gradient-12);
      }

      .cls-32 {
        fill: url(#linear-gradient-40);
      }

      .cls-33 {
        fill: url(#linear-gradient-27);
      }

      .cls-34, .cls-35 {
        fill: #231f20;
      }

      .cls-36 {
        clip-path: url(#clippath-82);
      }

      .cls-37 {
        clip-path: url(#clippath-54);
      }

      .cls-38 {
        clip-path: url(#clippath-66);
      }

      .cls-39 {
        fill: url(#linear-gradient-37);
      }

      .cls-40 {
        clip-path: url(#clippath-9);
      }

      .cls-41 {
        clip-path: url(#clippath-70);
      }

      .cls-42 {
        clip-path: url(#clippath-10);
      }

      .cls-43 {
        clip-path: url(#clippath-42);
      }

      .cls-44 {
        clip-path: url(#clippath-59);
      }

      .cls-45 {
        fill: #fff;
      }

      .cls-46 {
        fill: url(#linear-gradient-39);
      }

      .cls-47 {
        clip-path: url(#clippath-43);
      }

      .cls-48 {
        clip-path: url(#clippath-64);
      }

      .cls-49 {
        clip-path: url(#clippath-25);
      }

      .cls-50 {
        clip-path: url(#clippath-27);
      }

      .cls-51 {
        clip-path: url(#clippath-60);
      }

      .cls-52 {
        fill: url(#linear-gradient-47);
      }

      .cls-53 {
        fill: url(#linear-gradient-26);
      }

      .cls-54 {
        clip-path: url(#clippath-93);
      }

      .cls-55 {
        clip-path: url(#clippath-11);
      }

      .cls-56 {
        clip-path: url(#clippath-57);
      }

      .cls-57 {
        clip-path: url(#clippath-88);
      }

      .cls-58 {
        fill: none;
      }

      .cls-59 {
        fill: url(#linear-gradient-4);
      }

      .cls-60 {
        clip-path: url(#clippath-85);
      }

      .cls-61 {
        fill: url(#linear-gradient-35);
      }

      .cls-62 {
        fill: url(#linear-gradient-30);
      }

      .cls-63 {
        clip-path: url(#clippath-36);
      }

      .cls-64 {
        clip-path: url(#clippath-92);
      }

      .cls-65 {
        clip-path: url(#clippath-35);
      }

      .cls-66 {
        clip-path: url(#clippath-48);
      }

      .cls-67 {
        clip-path: url(#clippath-28);
      }

      .cls-68 {
        fill: url(#linear-gradient-44);
      }

      .cls-69 {
        fill: url(#linear-gradient-49);
      }

      .cls-70 {
        fill: url(#linear-gradient-3);
      }

      .cls-71 {
        fill: url(#linear-gradient-34);
      }

      .cls-72 {
        clip-path: url(#clippath-1);
      }

      .cls-73 {
        clip-path: url(#clippath-56);
      }

      .cls-74 {
        fill: url(#linear-gradient-5);
      }

      .cls-75 {
        fill: url(#linear-gradient-38);
      }

      .cls-76 {
        fill: url(#linear-gradient-22);
      }

      .cls-77 {
        fill: url(#linear-gradient-24);
      }

      .cls-78 {
        clip-path: url(#clippath-90);
      }

      .cls-79 {
        clip-path: url(#clippath-45);
      }

      .cls-80 {
        clip-path: url(#clippath-89);
      }

      .cls-81 {
        clip-path: url(#clippath-46);
      }

      .cls-82 {
        clip-path: url(#clippath-40);
      }

      .cls-83 {
        clip-path: url(#clippath-5);
      }

      .cls-84 {
        clip-path: url(#clippath-20);
      }

      .cls-85 {
        fill: url(#linear-gradient-33);
      }

      .cls-86 {
        clip-path: url(#clippath-8);
      }

      .cls-87 {
        fill: url(#linear-gradient-8);
      }

      .cls-88 {
        clip-path: url(#clippath-52);
      }

      .cls-89 {
        clip-path: url(#clippath-41);
      }

      .cls-90 {
        clip-path: url(#clippath-67);
      }

      .cls-91 {
        clip-path: url(#clippath-74);
      }

      .cls-92 {
        clip-path: url(#clippath-3);
      }

      .cls-93 {
        clip-path: url(#clippath-26);
      }

      .cls-94 {
        clip-path: url(#clippath-91);
      }

      .cls-95 {
        clip-path: url(#clippath-12);
      }

      .cls-35 {
        font-family: BookmanOldStyle, 'Bookman Old Style';
        font-size: 9.7px;
      }

      .cls-96 {
        clip-path: url(#clippath-50);
      }

      .cls-97 {
        fill: url(#linear-gradient-14);
      }

      .cls-98 {
        clip-path: url(#clippath-14);
      }

      .cls-99 {
        fill: url(#linear-gradient-29);
      }

      .cls-100 {
        fill: url(#linear-gradient-20);
      }

      .cls-101 {
        fill: url(#linear-gradient-17);
      }

      .cls-102 {
        fill: url(#linear-gradient-7);
      }

      .cls-103 {
        clip-path: url(#clippath-30);
      }

      .cls-104 {
        clip-path: url(#clippath-77);
      }

      .cls-105 {
        clip-path: url(#clippath-19);
      }

      .cls-106 {
        fill: url(#linear-gradient-9);
      }

      .cls-107 {
        clip-path: url(#clippath-78);
      }

      .cls-108 {
        fill: url(#linear-gradient-11);
      }

      .cls-109 {
        clip-path: url(#clippath-72);
      }

      .cls-110 {
        clip-path: url(#clippath-84);
      }

      .cls-111 {
        clip-path: url(#clippath-32);
      }

      .cls-112 {
        fill: url(#linear-gradient-19);
      }

      .cls-113 {
        fill: url(#linear-gradient-6);
      }

      .cls-114 {
        clip-path: url(#clippath-55);
      }

      .cls-115 {
        clip-path: url(#clippath-73);
      }

      .cls-116 {
        clip-path: url(#clippath-53);
      }

      .cls-117 {
        clip-path: url(#clippath-39);
      }

      .cls-118 {
        fill: url(#linear-gradient-36);
      }

      .cls-119 {
        fill: url(#linear-gradient-21);
      }

      .cls-120 {
        fill: url(#linear-gradient-45);
      }

      .cls-121 {
        clip-path: url(#clippath-81);
      }

      .cls-122 {
        clip-path: url(#clippath-16);
      }

      .cls-123 {
        clip-path: url(#clippath-2);
      }

      .cls-124 {
        clip-path: url(#clippath-29);
      }

      .cls-125 {
        fill: url(#linear-gradient-48);
      }

      .cls-126 {
        clip-path: url(#clippath-49);
      }

      .cls-127 {
        fill: url(#linear-gradient-32);
      }

      .cls-128 {
        clip-path: url(#clippath-37);
      }

      .cls-129 {
        fill: url(#linear-gradient-41);
      }

      .cls-130 {
        clip-path: url(#clippath-58);
      }

      .cls-131 {
        clip-path: url(#clippath-13);
      }

      .cls-132 {
        fill: url(#linear-gradient-16);
      }

      .cls-133 {
        clip-path: url(#clippath-86);
      }

      .cls-134 {
        fill: url(#linear-gradient);
      }

      .cls-135 {
        clip-path: url(#clippath-63);
      }

      .cls-136 {
        clip-path: url(#clippath-24);
      }

      .cls-137 {
        fill: url(#linear-gradient-23);
      }

      .cls-138 {
        fill: url(#linear-gradient-31);
      }

      .cls-139 {
        clip-path: url(#clippath);
      }

      .cls-140 {
        clip-path: url(#clippath-87);
      }

      .cls-141 {
        clip-path: url(#clippath-68);
      }

      .cls-142 {
        clip-path: url(#clippath-83);
      }

      .cls-143 {
        clip-path: url(#clippath-65);
      }

      .cls-144 {
        clip-path: url(#clippath-44);
      }

      .cls-145 {
        fill: url(#linear-gradient-18);
      }

      .cls-146 {
        clip-path: url(#clippath-62);
      }

      .cls-147 {
        clip-path: url(#clippath-69);
      }
    </style>
    <clipPath id="clippath">
      <path class="cls-58" d="M72.73,59.95c-3.61,5.1-5.87,12.19-5.87,20.03,0,7.84,2.26,14.94,5.87,20.04,3.22,4.54,7.48,7.49,12.18,8.09-8.16-2.85-14.26-14.36-14.26-28.12s6.1-25.26,14.26-28.12c-4.7.6-8.96,3.54-12.18,8.08M92.69,51.3s-.03,0-.04,0h.04ZM92.65,51.3h-.05s.03,0,.05,0M91.2,51.31c.29,0,.57-.01.86-.01.18,0,.37,0,.55,0l-1.5-.02s.07.02.1.03M0,79.48c0,16.19,9,29.31,20.1,29.31h62.45c-4.18-1.17-7.9-4.07-10.75-8.11-3.76-5.32-6.07-12.63-6.07-20.69,0-8.06,2.31-15.37,6.07-20.69,2.89-4.09,6.67-7.02,10.92-8.15l-62.62-.98c-11.1,0-20.1,13.12-20.1,29.31"/>
    </clipPath>
    <linearGradient id="linear-gradient" x1="-119.24" y1="296.58" x2="-118.24" y2="296.58" gradientTransform="translate(-28302.7 11433.79) rotate(90) scale(95.59 -95.59)" gradientUnits="userSpaceOnUse">
      <stop offset="0" stop-color="#afb1b4"/>
      <stop offset=".04" stop-color="#a0a2a4"/>
      <stop offset=".14" stop-color="#838386"/>
      <stop offset=".25" stop-color="#6a6a6d"/>
      <stop offset=".37" stop-color="#585759"/>
      <stop offset=".51" stop-color="#4a4a4c"/>
      <stop offset=".68" stop-color="#434244"/>
      <stop offset="1" stop-color="#414042"/>
    </linearGradient>
    <clipPath id="clippath-1">
      <path class="cls-58" d="M92.49,108.21c3.27-1.04,6.21-3.47,8.59-6.88-2.38,3.16-5.32,5.57-8.59,6.88M101.08,58.64c-2.38-3.41-5.32-5.84-8.59-6.88,3.28,1.32,6.21,3.72,8.59,6.88M86.68,51.76c-.6,0-1.19.04-1.77.11-8.16,2.85-14.26,14.36-14.26,28.12s6.1,25.27,14.26,28.12c.58.07,1.18.11,1.77.11h0c5.4,0,10.33-3.09,13.95-8.2,3.61-5.1,5.87-12.19,5.87-20.04,0-7.84-2.26-14.93-5.87-20.03-3.62-5.1-8.55-8.2-13.95-8.2h0Z"/>
    </clipPath>
    <linearGradient id="linear-gradient-2" x1="-119.24" y1="296.63" x2="-118.24" y2="296.63" gradientTransform="translate(4412.72 11979.15) scale(36.41 -40.11)" gradientUnits="userSpaceOnUse">
      <stop offset="0" stop-color="#808285"/>
      <stop offset=".07" stop-color="#808285"/>
      <stop offset=".08" stop-color="#77797c"/>
      <stop offset=".13" stop-color="#656669"/>
      <stop offset=".18" stop-color="#58595b"/>
      <stop offset=".25" stop-color="#515153"/>
      <stop offset=".38" stop-color="#4f4f51"/>
      <stop offset=".79" stop-color="#515153"/>
      <stop offset="1" stop-color="#58595b"/>
    </linearGradient>
    <clipPath id="clippath-2">
      <rect class="cls-58" width="247.61" height="159.38"/>
    </clipPath>
    <clipPath id="clippath-3">
      <path class="cls-58" d="M88.85,108.79h1.57c-.24,0-.47-.02-.71-.03-.29.02-.58.03-.87.03M90.63,51.33c.19,0,.38-.01.57-.02-.03,0-.07-.02-.1-.03h-.95c.16,0,.32.03.49.05M71.81,59.3c-3.76,5.32-6.07,12.63-6.07,20.69,0,8.06,2.31,15.37,6.07,20.69,2.85,4.03,6.57,6.94,10.75,8.11h6.3c-1.36,0-2.68-.23-3.95-.68-4.7-.6-8.96-3.54-12.18-8.09-3.61-5.1-5.87-12.19-5.87-20.04,0-7.84,2.26-14.93,5.87-20.03,3.22-4.54,7.48-7.49,12.18-8.08.98-.34,1.99-.56,3.02-.64l-5.21-.08c-4.25,1.14-8.03,4.06-10.92,8.15"/>
    </clipPath>
    <linearGradient id="linear-gradient-3" x1="-119.24" y1="296.82" x2="-118.24" y2="296.82" gradientTransform="translate(-28292.94 11411.22) rotate(90) scale(95.59 -95.59)" gradientUnits="userSpaceOnUse">
      <stop offset="0" stop-color="#dddedf"/>
      <stop offset=".02" stop-color="#dadbdc"/>
      <stop offset=".18" stop-color="#c7c8ca"/>
      <stop offset=".36" stop-color="#b9bbbd"/>
      <stop offset=".59" stop-color="#b1b3b6"/>
      <stop offset="1" stop-color="#afb1b4"/>
    </linearGradient>
    <clipPath id="clippath-4">
      <rect class="cls-58" width="247.61" height="159.38"/>
    </clipPath>
    <clipPath id="clippath-5">
      <path class="cls-58" d="M87.93,51.23c-1.03.08-2.04.3-3.02.64.58-.07,1.17-.11,1.77-.11h0c5.4,0,10.33,3.09,13.95,8.2,3.61,5.1,5.87,12.19,5.87,20.03,0,7.84-2.26,14.94-5.87,20.04-3.62,5.1-8.55,8.2-13.95,8.2h0c-.6,0-1.19-.04-1.77-.11,1.27.44,2.59.68,3.95.68.29,0,.58-.01.87-.03.94-.07,1.86-.25,2.76-.54,3.28-1.32,6.21-3.72,8.59-6.88,3.68-5.27,5.98-12.88,5.98-21.34s-2.31-16.07-5.99-21.34c-2.38-3.16-5.32-5.56-8.59-6.88-.61-.19-1.23-.34-1.86-.44-.16-.02-.32-.05-.49-.06-.43-.05-.86-.07-1.29-.07-.31,0-.62.01-.92.04"/>
    </clipPath>
    <linearGradient id="linear-gradient-4" x1="-119.24" y1="296.63" x2="-118.24" y2="296.63" gradientTransform="translate(4412.72 11979.15) scale(36.41 -40.11)" gradientUnits="userSpaceOnUse">
      <stop offset="0" stop-color="#c9cbcc"/>
      <stop offset=".07" stop-color="#c9cbcc"/>
      <stop offset=".13" stop-color="#bec0c2"/>
      <stop offset=".22" stop-color="#b6b8ba"/>
      <stop offset=".38" stop-color="#b4b6b8"/>
      <stop offset=".93" stop-color="#b6b8ba"/>
      <stop offset="1" stop-color="#b7b9bc"/>
    </linearGradient>
    <clipPath id="clippath-6">
      <rect class="cls-58" width="247.61" height="159.38"/>
    </clipPath>
    <clipPath id="clippath-7">
      <path class="cls-58" d="M80.74,88.45c-1.07,2.13-3.34,6.33-4.77,9.45,1.42,2.47,3.12,4.49,5.01,5.92.46-1.05,1.16-2.48,2.21-4.36,2.74-4.91,4.13-9.48,4.13-9.48l-4.34-6.46s-.69,1.82-2.24,4.92"/>
    </clipPath>
    <linearGradient id="linear-gradient-5" x1="-119.24" y1="296.67" x2="-118.24" y2="296.67" gradientTransform="translate(2334.94 5726.92) scale(18.99 -18.99)" gradientUnits="userSpaceOnUse">
      <stop offset="0" stop-color="#7d7f81"/>
      <stop offset=".49" stop-color="#fff"/>
      <stop offset="1" stop-color="#4c4c4e"/>
    </linearGradient>
    <clipPath id="clippath-8">
      <path class="cls-58" d="M71.51,79.46c0,14.78,7.24,26.77,16.18,26.77l60.48-3.83c-11.47-.15-18.46-4.99-18.44-22.94.02-20.26,9.13-19.96,15.89-19.84l-57.93-6.92c-8.94,0-16.18,11.98-16.18,26.76"/>
    </clipPath>
    <clipPath id="clippath-9">
      <path class="cls-58" d="M72.58,89.03c.82,3.52,2.07,6.69,3.65,9.32,1.75-3.92,2.63-7.03,2.63-7.03l-4.34-6.9s-.6,1.7-1.94,4.62"/>
    </clipPath>
    <linearGradient id="linear-gradient-6" y1="296.82" y2="296.82" gradientTransform="translate(2116.8 5207.96) scale(17.24 -17.24)" xlink:href="#linear-gradient-5"/>
    <clipPath id="clippath-10">
      <path class="cls-58" d="M71.51,79.46c0,14.78,7.24,26.77,16.18,26.77l60.48-3.83c-11.47-.15-18.46-4.99-18.44-22.94.02-20.26,9.13-19.96,15.89-19.84l-57.93-6.92c-8.94,0-16.18,11.98-16.18,26.76"/>
    </clipPath>
    <clipPath id="clippath-11">
      <path class="cls-58" d="M89.4,86.68c-1.41,3.08-6.17,10.57-6.21,12.78-.02.98,5.35,5.41,5.35,5.41,0,0,.59-2.36,3.08-7.25,2.49-4.89,4.78-8.15,4.78-8.15l-4.96-7.68s-.62,1.82-2.03,4.9"/>
    </clipPath>
    <linearGradient id="linear-gradient-7" y1="296.64" y2="296.64" gradientTransform="translate(2294.43 5600.85) scale(18.57 -18.57)" xlink:href="#linear-gradient-5"/>
    <clipPath id="clippath-12">
      <path class="cls-58" d="M71.51,79.46c0,14.78,7.24,26.77,16.18,26.77l60.48-3.83c-11.47-.15-18.46-4.99-18.44-22.94.02-20.26,9.13-19.96,15.89-19.84l-57.93-6.92c-8.94,0-16.18,11.98-16.18,26.76"/>
    </clipPath>
    <clipPath id="clippath-13">
      <path class="cls-58" d="M81.1,103.91c2.01,1.49,4.24,2.32,6.59,2.32l2.84-.18c-3.48-2.77-7.53-6.22-7.53-6.22l-1.9,4.09Z"/>
    </clipPath>
    <linearGradient id="linear-gradient-8" y1="296.78" y2="296.78" gradientTransform="translate(-4459.93 1925.2) rotate(90) scale(15.32 -15.32)" xlink:href="#linear-gradient-5"/>
    <clipPath id="clippath-14">
      <path class="cls-58" d="M71.51,79.46c0,14.78,7.24,26.77,16.18,26.77l60.48-3.83c-11.47-.15-18.46-4.99-18.44-22.94.02-20.26,9.13-19.96,15.89-19.84l-57.93-6.92c-8.94,0-16.18,11.98-16.18,26.76"/>
    </clipPath>
    <clipPath id="clippath-15">
      <path class="cls-58" d="M96.4,89.47c-1.8,2.83-3.43,6.13-4.62,8.27-.46.84,5.35,5.41,5.35,5.41,0,0,.43-1.74,2.91-6.62,2.49-4.89,5.15-8.04,5.15-8.04l-4.11-6.05s-3.65,5.43-4.67,7.03"/>
    </clipPath>
    <linearGradient id="linear-gradient-9" y1="296.66" y2="296.66" gradientTransform="translate(2206.7 5359.45) scale(17.75 -17.75)" xlink:href="#linear-gradient-5"/>
    <clipPath id="clippath-16">
      <path class="cls-58" d="M71.51,79.46c0,14.78,7.24,26.77,16.18,26.77l60.48-3.83c-11.47-.15-18.46-4.99-18.44-22.94.02-20.26,9.13-19.96,15.89-19.84l-57.93-6.92c-8.94,0-16.18,11.98-16.18,26.76"/>
    </clipPath>
    <clipPath id="clippath-17">
      <path class="cls-58" d="M104.79,89.16c-1.8,2.83-3.53,5.65-4.73,7.79-.46.83,4.84,5,4.84,5,0,0,1.19-1.23,4.01-5.9,2.76-4.57,4.85-7.09,4.85-7.09l-4.12-6.05s-3.83,4.65-4.85,6.25"/>
    </clipPath>
    <linearGradient id="linear-gradient-10" y1="296.65" y2="296.65" gradientTransform="translate(2136.83 5163.68) scale(17.09 -17.09)" xlink:href="#linear-gradient-5"/>
    <clipPath id="clippath-18">
      <path class="cls-58" d="M71.51,79.46c0,14.78,7.24,26.77,16.18,26.77l60.48-3.83c-11.47-.15-18.46-4.99-18.44-22.94.02-20.26,9.13-19.96,15.89-19.84l-57.93-6.92c-8.94,0-16.18,11.98-16.18,26.76"/>
    </clipPath>
    <clipPath id="clippath-19">
      <path class="cls-58" d="M88.42,104.9s.57.51,1.4,1.18l10.22-.65c-3.34-2.67-8.46-7.34-8.46-7.34l-3.16,6.81Z"/>
    </clipPath>
    <linearGradient id="linear-gradient-11" y1="296.76" y2="296.76" gradientTransform="translate(-4094.77 1780.58) rotate(90) scale(14.12 -14.12)" xlink:href="#linear-gradient-5"/>
    <clipPath id="clippath-20">
      <path class="cls-58" d="M71.51,79.46c0,14.78,7.24,26.77,16.18,26.77l60.48-3.83c-11.47-.15-18.46-4.99-18.44-22.94.02-20.26,9.13-19.96,15.89-19.84l-57.93-6.92c-8.94,0-16.18,11.98-16.18,26.76"/>
    </clipPath>
    <clipPath id="clippath-21">
      <path class="cls-58" d="M97.08,102.85s1.26,1.39,2.69,2.61l9.46-.6c-3.45-2.02-9.7-7.3-9.7-7.3l-2.46,5.3Z"/>
    </clipPath>
    <linearGradient id="linear-gradient-12" y1="296.73" y2="296.73" gradientTransform="translate(-3966.93 1731.78) rotate(90) scale(13.72 -13.72)" xlink:href="#linear-gradient-5"/>
    <clipPath id="clippath-22">
      <path class="cls-58" d="M71.51,79.46c0,14.78,7.24,26.77,16.18,26.77l60.48-3.83c-11.47-.15-18.46-4.99-18.44-22.94.02-20.26,9.13-19.96,15.89-19.84l-57.93-6.92c-8.94,0-16.18,11.98-16.18,26.76"/>
    </clipPath>
    <clipPath id="clippath-23">
      <path class="cls-58" d="M112.78,89.24c-1.8,2.82-3.54,5.65-4.73,7.79l4.84,5s.75-1.46,3.57-6.13c2.76-4.57,5.53-9.04,5.53-9.04l-3.85-4.43s-4.34,5.21-5.36,6.81"/>
    </clipPath>
    <linearGradient id="linear-gradient-13" y1="296.65" y2="296.65" gradientTransform="translate(2191.17 5278.04) scale(17.48 -17.48)" xlink:href="#linear-gradient-5"/>
    <clipPath id="clippath-24">
      <path class="cls-58" d="M71.51,79.46c0,14.78,7.24,26.77,16.18,26.77l60.48-3.83c-11.47-.15-18.46-4.99-18.44-22.94.02-20.26,9.13-19.96,15.89-19.84l-57.93-6.92c-8.94,0-16.18,11.98-16.18,26.76"/>
    </clipPath>
    <clipPath id="clippath-25">
      <path class="cls-58" d="M104.9,101.95s2.04,1.86,3.89,2.93l7.42-.47c-2.84-1.59-8.15-7.38-8.15-7.38l-3.15,4.92Z"/>
    </clipPath>
    <linearGradient id="linear-gradient-14" y1="296.74" y2="296.74" gradientTransform="translate(-3423.37 1516.49) rotate(90) scale(11.91 -11.91)" xlink:href="#linear-gradient-5"/>
    <clipPath id="clippath-26">
      <path class="cls-58" d="M71.51,79.46c0,14.78,7.24,26.77,16.18,26.77l60.48-3.83c-11.47-.15-18.46-4.99-18.44-22.94.02-20.26,9.13-19.96,15.89-19.84l-57.93-6.92c-8.94,0-16.18,11.98-16.18,26.76"/>
    </clipPath>
    <clipPath id="clippath-27">
      <path class="cls-58" d="M121.33,87.99c-1.96,3.15-3.84,6.29-5.14,8.67l5.26,5.56s1.29-1.37,4.36-6.57c2.09-3.55,3.83-5.99,4.69-7.13-.13-.68-.25-1.4-.35-2.15l-3.54-5.33s-4.16,5.18-5.27,6.95"/>
    </clipPath>
    <linearGradient id="linear-gradient-15" y1="296.66" y2="296.66" gradientTransform="translate(2322.59 5584.73) scale(18.52 -18.52)" xlink:href="#linear-gradient-5"/>
    <clipPath id="clippath-28">
      <path class="cls-58" d="M71.51,79.46c0,14.78,7.24,26.77,16.18,26.77l60.48-3.83c-11.47-.15-18.46-4.99-18.44-22.94.02-20.26,9.13-19.96,15.89-19.84l-57.93-6.92c-8.94,0-16.18,11.98-16.18,26.76"/>
    </clipPath>
    <clipPath id="clippath-29">
      <path class="cls-58" d="M126.43,94.84l4.84,5s.74-.77,2.44-3.39c-1.51-2.07-2.62-4.77-3.27-8.27-1.53,2.44-2.97,4.8-4,6.65"/>
    </clipPath>
    <linearGradient id="linear-gradient-16" y1="296.62" y2="296.62" gradientTransform="translate(2042.88 4860.25) scale(16.07 -16.07)" xlink:href="#linear-gradient-5"/>
    <clipPath id="clippath-30">
      <path class="cls-58" d="M71.51,79.46c0,14.78,7.24,26.77,16.18,26.77l60.48-3.83c-11.47-.15-18.46-4.99-18.44-22.94.02-20.26,9.13-19.96,15.89-19.84l-57.93-6.92c-8.94,0-16.18,11.98-16.18,26.76"/>
    </clipPath>
    <clipPath id="clippath-31">
      <path class="cls-58" d="M123.24,62.06c-2.14,2.54-4.2,5.09-5.65,7.03l4.18,5.66s1.33-1.05,4.7-5.27c3.3-4.12,5.68-6.32,5.68-6.32l-2.77-5.49-1.54-.18c-1.36,1.28-3.75,3.57-4.6,4.57"/>
    </clipPath>
    <linearGradient id="linear-gradient-17" y1="296.63" y2="296.63" gradientTransform="translate(2235.49 5336.95) scale(17.77 -17.77)" xlink:href="#linear-gradient-5"/>
    <clipPath id="clippath-32">
      <path class="cls-58" d="M71.51,79.46c0,14.78,7.24,26.77,16.18,26.77l60.48-3.83c-11.47-.15-18.46-4.99-18.44-22.94.02-20.26,9.13-19.96,15.89-19.84l-57.93-6.92c-8.94,0-16.18,11.98-16.18,26.76"/>
    </clipPath>
    <clipPath id="clippath-33">
      <path class="cls-58" d="M131.76,63.72c-2.01,2.26-3.95,4.54-5.31,6.28l3.5,4.48c.85-9.15,4.11-12.71,7.91-14.07l-.85-1.58s-4.12,3.61-5.25,4.9"/>
    </clipPath>
    <linearGradient id="linear-gradient-18" y1="296.71" y2="296.71" gradientTransform="translate(2044.77 4843.47) scale(16.1 -16.1)" xlink:href="#linear-gradient-5"/>
    <clipPath id="clippath-34">
      <path class="cls-58" d="M71.51,79.46c0,14.78,7.24,26.77,16.18,26.77l60.48-3.83c-11.47-.15-18.46-4.99-18.44-22.94.02-20.26,9.13-19.96,15.89-19.84l-57.93-6.92c-8.94,0-16.18,11.98-16.18,26.76"/>
    </clipPath>
    <clipPath id="clippath-35">
      <path class="cls-58" d="M145.44,59.61s0,0,0,0h0s0,0,0,0"/>
    </clipPath>
    <linearGradient id="linear-gradient-19" y1="296.85" y2="296.85" gradientTransform="translate(1937.86 4540.03) rotate(-.09) scale(15.1 -15.1)" xlink:href="#linear-gradient-5"/>
    <clipPath id="clippath-36">
      <path class="cls-58" d="M71.51,79.46c0,14.78,7.24,26.77,16.18,26.77l60.48-3.83c-11.47-.15-18.46-4.99-18.44-22.94.02-20.26,9.13-19.96,15.89-19.84l-57.93-6.92c-8.94,0-16.18,11.98-16.18,26.76"/>
    </clipPath>
    <clipPath id="clippath-37">
      <path class="cls-58" d="M114.46,60.95c-2.14,2.54-4.2,5.09-5.65,7.04l4.18,5.66s1.33-1.05,4.7-5.27c3.29-4.13,5.68-6.32,5.68-6.32l-2.74-5.44-1.62-.19c-1.37,1.29-3.72,3.53-4.55,4.52"/>
    </clipPath>
    <linearGradient id="linear-gradient-20" y1="296.63" y2="296.63" gradientTransform="translate(2226.95 5336.43) scale(17.77 -17.77)" xlink:href="#linear-gradient-5"/>
    <clipPath id="clippath-38">
      <path class="cls-58" d="M71.51,79.46c0,14.78,7.24,26.77,16.18,26.77l60.48-3.83c-11.47-.15-18.46-4.99-18.44-22.94.02-20.26,9.13-19.96,15.89-19.84l-57.93-6.92c-8.94,0-16.18,11.98-16.18,26.76"/>
    </clipPath>
    <clipPath id="clippath-39">
      <path class="cls-58" d="M105.76,60.13c-2.14,2.54-4.2,5.09-5.65,7.04l4.18,5.65s1.33-1.05,4.7-5.27c3.29-4.13,5.26-6.41,5.26-6.41l-2.49-5.58-1.24-.15c-1.33,1.25-3.88,3.67-4.75,4.72"/>
    </clipPath>
    <linearGradient id="linear-gradient-21" y1="296.64" y2="296.64" gradientTransform="translate(2218.47 5336.58) scale(17.77 -17.77)" xlink:href="#linear-gradient-5"/>
    <clipPath id="clippath-40">
      <path class="cls-58" d="M71.51,79.46c0,14.78,7.24,26.77,16.18,26.77l60.48-3.83c-11.47-.15-18.46-4.99-18.44-22.94.02-20.26,9.13-19.96,15.89-19.84l-57.93-6.92c-8.94,0-16.18,11.98-16.18,26.76"/>
    </clipPath>
    <clipPath id="clippath-41">
      <path class="cls-58" d="M96.64,59.49c-2.14,2.54-4.2,5.09-5.65,7.04l4.18,5.65s1.33-1.05,4.7-5.27c3.29-4.13,5.43-6.68,5.43-6.68l-2.85-5.78-.63-.08c-1.11,1.04-4.19,3.94-5.17,5.11"/>
    </clipPath>
    <linearGradient id="linear-gradient-22" y1="296.64" y2="296.64" gradientTransform="translate(2208.89 5334.96) scale(17.77 -17.77)" xlink:href="#linear-gradient-5"/>
    <clipPath id="clippath-42">
      <path class="cls-58" d="M71.51,79.46c0,14.78,7.24,26.77,16.18,26.77l60.48-3.83c-11.47-.15-18.46-4.99-18.44-22.94.02-20.26,9.13-19.96,15.89-19.84l-57.93-6.92c-8.94,0-16.18,11.98-16.18,26.76"/>
    </clipPath>
    <clipPath id="clippath-43">
      <path class="cls-58" d="M87.44,58.66c-2.14,2.54-4.2,5.08-5.65,7.03l4.18,5.65s1.33-1.05,4.7-5.26c3.3-4.13,5.68-6.32,5.68-6.32l-3.25-6.43-.23-.03c-.78.72-4.36,4.07-5.43,5.35"/>
    </clipPath>
    <linearGradient id="linear-gradient-23" y1="296.64" y2="296.64" gradientTransform="translate(2199.41 5333.44) scale(17.77 -17.77)" xlink:href="#linear-gradient-5"/>
    <clipPath id="clippath-44">
      <path class="cls-58" d="M71.51,79.46c0,14.78,7.24,26.77,16.18,26.77l60.48-3.83c-11.47-.15-18.46-4.99-18.44-22.94.02-20.26,9.13-19.96,15.89-19.84l-57.93-6.92c-8.94,0-16.18,11.98-16.18,26.76"/>
    </clipPath>
    <clipPath id="clippath-45">
      <path class="cls-58" d="M113.04,102.12s1.92,1.48,3.68,2.26l7.07-.45c.45-.09.99-.18,1.63-.28-2.35-.43-9.22-6.45-9.22-6.45l-3.15,4.92Z"/>
    </clipPath>
    <linearGradient id="linear-gradient-24" y1="296.76" y2="296.76" gradientTransform="translate(-3164.41 1415.53) rotate(90) scale(11.06 -11.06)" xlink:href="#linear-gradient-5"/>
    <clipPath id="clippath-46">
      <path class="cls-58" d="M71.51,79.46c0,14.78,7.24,26.77,16.18,26.77l60.48-3.83c-11.47-.15-18.46-4.99-18.44-22.94.02-20.26,9.13-19.96,15.89-19.84l-57.93-6.92c-8.94,0-16.18,11.98-16.18,26.76"/>
    </clipPath>
    <clipPath id="clippath-47">
      <path class="cls-58" d="M131.02,100.51s1.51,1.49,4.72,1.7c4.13.27,3.96.06,6.4-.47-3.47-.8-6.3-2.41-8.38-5.22l-2.74,3.99Z"/>
    </clipPath>
    <linearGradient id="linear-gradient-25" y1="296.66" y2="296.66" gradientTransform="translate(-3169.26 1423.71) rotate(90) scale(11.14 -11.14)" xlink:href="#linear-gradient-5"/>
    <clipPath id="clippath-48">
      <path class="cls-58" d="M71.51,79.46c0,14.78,7.24,26.77,16.18,26.77l60.48-3.83c-11.47-.15-18.46-4.99-18.44-22.94.02-20.26,9.13-19.96,15.89-19.84l-57.93-6.92c-8.94,0-16.18,11.98-16.18,26.76"/>
    </clipPath>
    <clipPath id="clippath-49">
      <path class="cls-58" d="M121.46,101.79s1.08,1.54,4.3,1.69c2.53.12,4.23-.41,8.54-1.47-2.07.51-7.95-7.07-7.95-7.07l-4.89,6.85Z"/>
    </clipPath>
    <linearGradient id="linear-gradient-26" y1="296.8" y2="296.8" gradientTransform="translate(-3023.49 1361.2) rotate(90) scale(10.62 -10.62)" xlink:href="#linear-gradient-5"/>
    <clipPath id="clippath-50">
      <path class="cls-58" d="M71.51,79.46c0,14.78,7.24,26.77,16.18,26.77l60.48-3.83c-11.47-.15-18.46-4.99-18.44-22.94.02-20.26,9.13-19.96,15.89-19.84l-57.93-6.92c-8.94,0-16.18,11.98-16.18,26.76"/>
    </clipPath>
    <clipPath id="clippath-51">
      <path class="cls-58" d="M81.65,54.62c-1.44,1.36-3.16,3.13-4.93,5.16-.91,1.39-1.73,2.96-2.43,4.66.49,2.1,1.57,6.01,2.91,6.82,0,0,7.8-10.97,10.64-12.95l.86-1.33s-1.68-2.58-2.64-4.15c-1.55.25-3.03.87-4.41,1.79"/>
    </clipPath>
    <linearGradient id="linear-gradient-27" y1="296.59" y2="296.59" gradientTransform="translate(2411.85 5881.98) scale(19.62 -19.62)" xlink:href="#linear-gradient-5"/>
    <clipPath id="clippath-52">
      <path class="cls-58" d="M71.51,79.46c0,14.78,7.24,26.77,16.18,26.77l60.48-3.83c-11.47-.15-18.46-4.99-18.44-22.94.02-20.26,9.13-19.96,15.89-19.84l-57.93-6.92c-8.94,0-16.18,11.98-16.18,26.76"/>
    </clipPath>
    <clipPath id="clippath-53">
      <path class="cls-58" d="M78.03,57.99l4.22-3.7-.02-.02c-1.51.9-2.93,2.16-4.19,3.73"/>
    </clipPath>
    <linearGradient id="linear-gradient-28" y1="296.51" y2="296.51" gradientTransform="translate(2509 6139.73) scale(20.52 -20.52)" xlink:href="#linear-gradient-5"/>
    <clipPath id="clippath-54">
      <path class="cls-58" d="M71.51,79.46c0,14.78,7.24,26.77,16.18,26.77l60.48-3.83c-11.47-.15-18.46-4.99-18.44-22.94.02-20.26,9.13-19.96,15.89-19.84l-57.93-6.92c-8.94,0-16.18,11.98-16.18,26.76"/>
    </clipPath>
    <clipPath id="clippath-55">
      <path class="cls-58" d="M71.6,76.77v.25c2.89,6.81,7.53,13.61,7.53,13.61l3.69-7.65c-3.69-4.07-7.32-15.08-8.45-18.7-1.51,3.62-2.49,7.88-2.77,12.49"/>
    </clipPath>
    <linearGradient id="linear-gradient-29" y1="296.61" y2="296.61" gradientTransform="translate(7930.24 -3067.18) rotate(-90) scale(26.48 -26.48)" xlink:href="#linear-gradient-5"/>
    <clipPath id="clippath-56">
      <path class="cls-58" d="M71.51,79.46c0,14.78,7.24,26.77,16.18,26.77l60.48-3.83c-11.47-.15-18.46-4.99-18.44-22.94.02-20.26,9.13-19.96,15.89-19.84l-57.93-6.92c-8.94,0-16.18,11.98-16.18,26.76"/>
    </clipPath>
    <clipPath id="clippath-57">
      <path class="cls-58" d="M86.12,71.11c2.98,7.82,10.26,18.05,10.26,18.05l4.7-6.73c-2.7-5.89-10.41-16.35-10.41-16.35l-4.55,5.02Z"/>
    </clipPath>
    <linearGradient id="linear-gradient-30" y1="296.64" y2="296.64" gradientTransform="translate(6886.35 -2641.54) rotate(-90) scale(22.9 -22.9)" xlink:href="#linear-gradient-5"/>
    <clipPath id="clippath-58">
      <path class="cls-58" d="M71.51,79.46c0,14.78,7.24,26.77,16.18,26.77l60.48-3.83c-11.47-.15-18.46-4.99-18.44-22.94.02-20.26,9.13-19.96,15.89-19.84l-57.93-6.92c-8.94,0-16.18,11.98-16.18,26.76"/>
    </clipPath>
    <clipPath id="clippath-59">
      <path class="cls-58" d="M95.75,71.6c2.76,7.28,9.51,16.83,9.51,16.83l4.36-6.27c-2.5-5.49-9.65-15.25-9.65-15.25l-4.22,4.69Z"/>
    </clipPath>
    <linearGradient id="linear-gradient-31" y1="296.64" y2="296.64" gradientTransform="translate(6430.59 -2455.41) rotate(-90) scale(21.33 -21.33)" xlink:href="#linear-gradient-5"/>
    <clipPath id="clippath-60">
      <path class="cls-58" d="M71.51,79.46c0,14.78,7.24,26.77,16.18,26.77l60.48-3.83c-11.47-.15-18.46-4.99-18.44-22.94.02-20.26,9.13-19.96,15.89-19.84l-57.93-6.92c-8.94,0-16.18,11.98-16.18,26.76"/>
    </clipPath>
    <clipPath id="clippath-61">
      <path class="cls-58" d="M104.36,72.59c3.5,6.99,9.04,16.11,9.04,16.11l4.74-6.27c-3.12-4.79-9.77-14.33-9.77-14.33l-4.01,4.49Z"/>
    </clipPath>
    <linearGradient id="linear-gradient-32" y1="296.65" y2="296.65" gradientTransform="translate(6165.87 -2345.36) rotate(-90) scale(20.41 -20.41)" xlink:href="#linear-gradient-5"/>
    <clipPath id="clippath-62">
      <path class="cls-58" d="M71.51,79.46c0,14.78,7.24,26.77,16.18,26.77l60.48-3.83c-11.47-.15-18.46-4.99-18.44-22.94.02-20.26,9.13-19.96,15.89-19.84l-57.93-6.92c-8.94,0-16.18,11.98-16.18,26.76"/>
    </clipPath>
    <clipPath id="clippath-63">
      <path class="cls-58" d="M113.06,73.48c2.62,6.23,8.94,13.39,8.94,13.39l4.61-5.83c-3.07-3.74-9.04-12.28-9.04-12.28l-4.52,4.72Z"/>
    </clipPath>
    <linearGradient id="linear-gradient-33" y1="296.64" y2="296.64" gradientTransform="translate(5442.19 -2052.73) rotate(-90) scale(17.94 -17.94)" xlink:href="#linear-gradient-5"/>
    <clipPath id="clippath-64">
      <path class="cls-58" d="M71.51,79.46c0,14.78,7.24,26.77,16.18,26.77l60.48-3.83c-11.47-.15-18.46-4.99-18.44-22.94.02-20.26,9.13-19.96,15.89-19.84l-57.93-6.92c-8.94,0-16.18,11.98-16.18,26.76"/>
    </clipPath>
    <clipPath id="clippath-65">
      <path class="cls-58" d="M122.01,73.91c2.04,4.74,6.33,10.03,8.09,12.09-.25-1.96-.37-4.14-.37-6.55,0-1.96.09-3.72.25-5.31-1.93-2.62-3.49-4.81-3.49-4.81l-4.48,4.58Z"/>
    </clipPath>
    <linearGradient id="linear-gradient-34" y1="296.76" y2="296.76" gradientTransform="translate(5303.85 -1992.45) rotate(-90) scale(17.45 -17.45)" xlink:href="#linear-gradient-5"/>
    <clipPath id="clippath-66">
      <path class="cls-58" d="M71.51,79.46c0,14.78,7.24,26.77,16.18,26.77l60.48-3.83c-11.47-.15-18.46-4.99-18.44-22.94.02-20.26,9.13-19.96,15.89-19.84l-57.93-6.92c-8.94,0-16.18,11.98-16.18,26.76"/>
    </clipPath>
    <clipPath id="clippath-67">
      <path class="cls-58" d="M77.21,71.26c1.46,8.07,10.37,18.26,10.37,18.26l3.69-7.65c-2.4-7.12-10.02-16.22-10.02-16.22l-4.04,5.6Z"/>
    </clipPath>
    <linearGradient id="linear-gradient-35" y1="296.64" y2="296.64" gradientTransform="translate(7170.6 -2759) rotate(-90) scale(23.89 -23.89)" xlink:href="#linear-gradient-5"/>
    <clipPath id="clippath-68">
      <path class="cls-58" d="M71.51,79.46c0,14.78,7.24,26.77,16.18,26.77l60.48-3.83c-11.47-.15-18.46-4.99-18.44-22.94.02-20.26,9.13-19.96,15.89-19.84l-57.93-6.92c-8.94,0-16.18,11.98-16.18,26.76"/>
    </clipPath>
    <clipPath id="clippath-69">
      <path class="cls-58" d="M82.85,45.44c-2.12,1.08-5.61,3.88-5.61,3.88,0,0,4.51,4.18,4.36,5.17-.15.99,5.54-6.26,11.55-6.84,0,0-6.04-2.43-9.08-2.43-.5,0-.91.06-1.21.21"/>
    </clipPath>
    <clipPath id="clippath-70">
      <path class="cls-58" d="M87.69,106.22c-8.94,0-16.18-11.98-16.18-26.77s7.24-26.76,16.18-26.76l57.93,6.92c-6.76-.12-15.87-.42-15.89,19.84-.02,17.95,6.97,22.78,18.44,22.94l-60.48,3.83"/>
    </clipPath>
    <clipPath id="clippath-71">
      <rect class="cls-58" x="81.61" y="54.17" width=".7" height=".47"/>
    </clipPath>
    <linearGradient id="linear-gradient-36" y1="296.61" y2="296.61" gradientTransform="translate(1491.11 3560.34) scale(11.82 -11.82)" xlink:href="#linear-gradient-5"/>
    <clipPath id="clippath-72">
      <path class="cls-58" d="M71.51,79.46c0,14.78,7.24,26.77,16.18,26.77l60.48-3.83c-11.47-.15-18.46-4.99-18.44-22.94.02-20.26,9.13-19.96,15.89-19.84l-57.93-6.92c-8.94,0-16.18,11.98-16.18,26.76"/>
    </clipPath>
    <clipPath id="clippath-73">
      <path class="cls-58" d="M86.13,52.81l2.8,3.86s1.78-1.66,3.9-3.37l-5.15-.61c-.53,0-1.05.04-1.56.12"/>
    </clipPath>
    <linearGradient id="linear-gradient-37" y1="296.67" y2="296.67" gradientTransform="translate(1432.1 3400.01) scale(11.28 -11.28)" xlink:href="#linear-gradient-5"/>
    <clipPath id="clippath-74">
      <path class="cls-58" d="M71.51,79.46c0,14.78,7.24,26.77,16.18,26.77l60.48-3.83c-11.47-.15-18.46-4.99-18.44-22.94.02-20.26,9.13-19.96,15.89-19.84l-57.93-6.92c-8.94,0-16.18,11.98-16.18,26.76"/>
    </clipPath>
    <clipPath id="clippath-75">
      <path class="cls-58" d="M105.47,59.78s2-2.34,4.23-4.46l-7.55-.9,3.32,5.36Z"/>
    </clipPath>
    <linearGradient id="linear-gradient-38" y1="296.62" y2="296.62" gradientTransform="translate(1455.12 3419.54) scale(11.34 -11.34)" xlink:href="#linear-gradient-5"/>
    <clipPath id="clippath-76">
      <path class="cls-58" d="M71.51,79.46c0,14.78,7.24,26.77,16.18,26.77l60.48-3.83c-11.47-.15-18.46-4.99-18.44-22.94.02-20.26,9.13-19.96,15.89-19.84l-57.93-6.92c-8.94,0-16.18,11.98-16.18,26.76"/>
    </clipPath>
    <clipPath id="clippath-77">
      <path class="cls-58" d="M114.48,60.94s2-2.34,4.29-4.54l-7.15-.85,2.86,5.39Z"/>
    </clipPath>
    <linearGradient id="linear-gradient-39" y1="296.62" y2="296.62" gradientTransform="translate(1578.12 3703.9) scale(12.29 -12.29)" xlink:href="#linear-gradient-5"/>
    <clipPath id="clippath-78">
      <path class="cls-58" d="M71.51,79.46c0,14.78,7.24,26.77,16.18,26.77l60.48-3.83c-11.47-.15-18.46-4.99-18.44-22.94.02-20.26,9.13-19.96,15.89-19.84l-57.93-6.92c-8.94,0-16.18,11.98-16.18,26.76"/>
    </clipPath>
    <clipPath id="clippath-79">
      <path class="cls-58" d="M123.37,61.61s1.9-2.13,4.09-4.17l-7.05-.84,2.95,5.01Z"/>
    </clipPath>
    <linearGradient id="linear-gradient-40" y1="296.62" y2="296.62" gradientTransform="translate(1505.99 3503.08) scale(11.61 -11.61)" xlink:href="#linear-gradient-5"/>
    <clipPath id="clippath-80">
      <path class="cls-58" d="M71.51,79.46c0,14.78,7.24,26.77,16.18,26.77l60.48-3.83c-11.47-.15-18.46-4.99-18.44-22.94.02-20.26,9.13-19.96,15.89-19.84l-57.93-6.92c-8.94,0-16.18,11.98-16.18,26.76"/>
    </clipPath>
    <clipPath id="clippath-81">
      <path class="cls-58" d="M132.16,62.44s2.23-1.95,4.76-3.87l-7.83-.93,3.07,4.8Z"/>
    </clipPath>
    <linearGradient id="linear-gradient-41" y1="296.66" y2="296.66" gradientTransform="translate(1582.5 3672.37) scale(12.18 -12.18)" xlink:href="#linear-gradient-5"/>
    <clipPath id="clippath-82">
      <path class="cls-58" d="M71.51,79.46c0,14.78,7.24,26.77,16.18,26.77l60.48-3.83c-11.47-.15-18.46-4.99-18.44-22.94.02-20.26,9.13-19.96,15.89-19.84l-57.93-6.92c-8.94,0-16.18,11.98-16.18,26.76"/>
    </clipPath>
    <clipPath id="clippath-83">
      <path class="cls-58" d="M136.91,59.28l.84,1.16c2.47-.92,5.17-.88,7.6-.84,0,0,.02-.02.03-.02l-7.64-.91c-.51.37-.83.61-.83.61"/>
    </clipPath>
    <linearGradient id="linear-gradient-42" y1="296.76" y2="296.76" gradientTransform="translate(1728.3 4019.96) scale(13.35 -13.35)" xlink:href="#linear-gradient-5"/>
    <clipPath id="clippath-84">
      <path class="cls-58" d="M71.51,79.46c0,14.78,7.24,26.77,16.18,26.77l60.48-3.83c-11.47-.15-18.46-4.99-18.44-22.94.02-20.26,9.13-19.96,15.89-19.84l-57.93-6.92c-8.94,0-16.18,11.98-16.18,26.76"/>
    </clipPath>
    <clipPath id="clippath-85">
      <path class="cls-58" d="M145.02,59.6c.2,0,.4,0,.6.01l-.53-.06s-.05.04-.07.05"/>
    </clipPath>
    <linearGradient id="linear-gradient-43" y1="297.02" y2="297.02" gradientTransform="translate(1680.34 3889.76) scale(12.9 -12.9)" xlink:href="#linear-gradient-5"/>
    <clipPath id="clippath-86">
      <path class="cls-58" d="M71.51,79.46c0,14.78,7.24,26.77,16.18,26.77l60.48-3.83c-11.47-.15-18.46-4.99-18.44-22.94.02-20.26,9.13-19.96,15.89-19.84l-57.93-6.92c-8.94,0-16.18,11.98-16.18,26.76"/>
    </clipPath>
    <clipPath id="clippath-87">
      <path class="cls-58" d="M93.04,53.7l3.36,5.56s2.66-2.59,5.44-4.87l-8.3-.99c-.16.1-.32.2-.5.31"/>
    </clipPath>
    <linearGradient id="linear-gradient-44" y1="296.66" y2="296.66" gradientTransform="translate(1602.2 3807.46) scale(12.64 -12.64)" xlink:href="#linear-gradient-5"/>
    <clipPath id="clippath-88">
      <path class="cls-58" d="M71.51,79.46c0,14.78,7.24,26.77,16.18,26.77l60.48-3.83c-11.47-.15-18.46-4.99-18.44-22.94.02-20.26,9.13-19.96,15.89-19.84l-57.93-6.92c-8.94,0-16.18,11.98-16.18,26.76"/>
    </clipPath>
    <clipPath id="clippath-89">
      <path class="cls-58" d="M125.37,81.15c0,12.21,6.29,22.11,14.06,22.11s14.06-9.9,14.06-22.11-6.3-22.11-14.06-22.11-14.06,9.9-14.06,22.11"/>
    </clipPath>
    <linearGradient id="linear-gradient-45" x1="-119.24" y1="296.63" x2="-118.24" y2="296.63" gradientTransform="translate(3477.3 9214.96) scale(28.11 -30.79)" xlink:href="#linear-gradient-2"/>
    <clipPath id="clippath-90">
      <path class="cls-58" d="M130.62,81.48c0,12.03,5.8,21.78,12.96,21.78l48.4-2.14c-9.19-.13-14.73-5.04-14.71-19.64.02-16.49,8.29-18.85,13.71-18.76l-47.4-3.02c-7.16,0-12.96,9.75-12.96,21.78"/>
    </clipPath>
    <linearGradient id="linear-gradient-46" x1="-119.24" y1="296.6" x2="-118.24" y2="296.6" gradientTransform="translate(-19427.01 7926.21) rotate(90) scale(66.04 -66.04)" gradientUnits="userSpaceOnUse">
      <stop offset="0" stop-color="#77d2f7"/>
      <stop offset=".03" stop-color="#6dc7ee"/>
      <stop offset=".14" stop-color="#52a7d5"/>
      <stop offset=".26" stop-color="#3c8dc0"/>
      <stop offset=".38" stop-color="#2b79b0"/>
      <stop offset=".53" stop-color="#1f6aa4"/>
      <stop offset=".7" stop-color="#18629e"/>
      <stop offset="1" stop-color="#16609c"/>
    </linearGradient>
    <clipPath id="clippath-91">
      <path class="cls-58" d="M176.3,81.93c0,10.6,5.99,19.2,13.37,19.2s13.37-8.6,13.37-19.2-5.99-19.2-13.37-19.2-13.37,8.6-13.37,19.2"/>
    </clipPath>
    <linearGradient id="linear-gradient-47" x1="-119.24" y1="296.63" x2="-118.24" y2="296.63" gradientTransform="translate(3365.19 8014.57) scale(26.74 -26.74)" gradientUnits="userSpaceOnUse">
      <stop offset="0" stop-color="#a8e0f9"/>
      <stop offset="0" stop-color="#a5ddf7"/>
      <stop offset=".03" stop-color="#81bbda"/>
      <stop offset=".05" stop-color="#619dc1"/>
      <stop offset=".08" stop-color="#4683ab"/>
      <stop offset=".11" stop-color="#306e9a"/>
      <stop offset=".15" stop-color="#1f5e8d"/>
      <stop offset=".2" stop-color="#135383"/>
      <stop offset=".27" stop-color="#0c4c7e"/>
      <stop offset=".45" stop-color="#0b4b7d"/>
      <stop offset=".99" stop-color="#003058"/>
      <stop offset="1" stop-color="#003058"/>
    </linearGradient>
    <clipPath id="clippath-92">
      <path class="cls-58" d="M196.31,76.12c-4.29,0-7.76,3.15-7.76,7.02s3.48,7.02,7.76,7.02h38.54c4.29,0,7.76-3.15,7.76-7.02s-3.48-7.02-7.76-7.02h-38.54Z"/>
    </clipPath>
    <linearGradient id="linear-gradient-48" x1="-119.24" y1="296.63" x2="-118.24" y2="296.63" gradientTransform="translate(6635.35 16120.14) scale(54.06 -54.06)" gradientUnits="userSpaceOnUse">
      <stop offset="0" stop-color="#da9237"/>
      <stop offset=".1" stop-color="#da9237"/>
      <stop offset=".15" stop-color="#de9337"/>
      <stop offset=".21" stop-color="#ec963a"/>
      <stop offset=".25" stop-color="#f89a3c"/>
      <stop offset=".3" stop-color="#fbb363"/>
      <stop offset=".35" stop-color="#fdc67f"/>
      <stop offset=".38" stop-color="#fecd8a"/>
      <stop offset=".56" stop-color="#f9a54c"/>
      <stop offset=".66" stop-color="#f7912d"/>
      <stop offset=".81" stop-color="#c8731a"/>
      <stop offset=".93" stop-color="#a65d0c"/>
      <stop offset="1" stop-color="#9a5507"/>
    </linearGradient>
    <clipPath id="clippath-93">
      <path class="cls-58" d="M225.49,83.15c0,3.88,3.83,7.02,8.56,7.02s8.56-3.15,8.56-7.02-3.83-7.02-8.56-7.02-8.56,3.15-8.56,7.02"/>
    </clipPath>
    <linearGradient id="linear-gradient-49" x1="-119.24" y1="296.63" x2="-118.24" y2="296.63" gradientTransform="translate(2266.61 5160.62) scale(17.12 -17.12)" gradientUnits="userSpaceOnUse">
      <stop offset="0" stop-color="#f9a13e"/>
      <stop offset=".2" stop-color="#f9a13e"/>
      <stop offset=".26" stop-color="#f9a342"/>
      <stop offset=".32" stop-color="#faab50"/>
      <stop offset=".38" stop-color="#fbb867"/>
      <stop offset=".45" stop-color="#fdcb86"/>
      <stop offset=".45" stop-color="#fecd8a"/>
      <stop offset=".47" stop-color="#fdca86"/>
      <stop offset=".64" stop-color="#faad59"/>
      <stop offset=".79" stop-color="#f79939"/>
      <stop offset=".91" stop-color="#f68c26"/>
      <stop offset="1" stop-color="#f6881f"/>
    </linearGradient>
  </defs>
  <g id="Layer_1-2" data-name="Layer 1">
    <g class="cls-139">
      <rect class="cls-134" x="-7.15" y="25.98" width="106.99" height="106.99" transform="translate(-42.62 56.05) rotate(-45)"/>
    </g>
    <g class="cls-72">
      <rect class="cls-25" x="70.65" y="51.76" width="35.85" height="56.46"/>
    </g>
    <g class="cls-123">
      <path class="cls-45" d="M91.1,51.28h-.95c-.43-.06-.86-.09-1.29-.09-.31,0-.62.01-.92.04l-5.21-.08c1.28-.34,2.6-.52,3.96-.52,1.52,0,3,.23,4.42.65M92.49,51.76c-.61-.19-1.23-.34-1.86-.44.19,0,.38-.01.57-.02.43.13.86.29,1.29.46M86.68,109.35c-1.41,0-2.79-.2-4.12-.57h7.87c-.24,0-.47-.02-.71-.03.94-.07,1.86-.25,2.76-.54-1.84.74-3.79,1.14-5.8,1.14"/>
    </g>
    <g class="cls-92">
      <rect class="cls-70" x="49.08" y="50.58" width="58.76" height="58.76" transform="translate(-33.56 78.9) rotate(-45)"/>
    </g>
    <g class="cls-23">
      <path class="cls-45" d="M101.08,101.33c3.68-5.27,5.98-12.88,5.98-21.34s-2.31-16.07-5.99-21.34c.16.21.32.43.48.65,3.77,5.32,6.07,12.63,6.07,20.69,0,8.06-2.31,15.37-6.07,20.69-.16.22-.32.44-.48.65"/>
    </g>
    <g class="cls-83">
      <rect class="cls-59" x="84.91" y="51.19" width="22.15" height="57.59"/>
    </g>
    <text class="cls-35" transform="translate(31.56 132.96)"><tspan x="0" y="0">Protective</tspan></text>
    <text class="cls-35" transform="translate(16.72 144.61)"><tspan x="0" y="0">Plastic Covering</tspan></text>
    <text class="cls-35" transform="translate(137.24 134.9)"><tspan x="0" y="0">Insulating</tspan></text>
    <text class="cls-35" transform="translate(141.8 146.55)"><tspan x="0" y="0">Material</tspan></text>
    <text class="cls-35" transform="translate(202.26 39.18)"><tspan x="0" y="0">Copper</tspan></text>
    <text class="cls-35" transform="translate(208.28 50.83)"><tspan x="0" y="0">Core</tspan></text>
    <text class="cls-35" transform="translate(90.7 12.58)"><tspan x="0" y="0">Braided</tspan></text>
    <text class="cls-35" transform="translate(70.13 24.22)"><tspan x="0" y="0">outer Conductor</tspan></text>
    <g class="cls-9">
      <polyline class="cls-34" points="160.82 104.79 160.82 123.91 161.79 123.91 161.79 104.79"/>
      <polygon class="cls-34" points="157.34 108 158.05 108.66 161.31 105.16 164.57 108.66 165.28 108 161.31 103.74 157.34 108"/>
      <polyline class="cls-34" points="109.99 53.66 109.99 24.83 109.02 24.83 109.02 53.66"/>
      <polygon class="cls-34" points="113.48 50.44 112.77 49.78 109.51 53.28 106.25 49.78 105.54 50.44 109.51 54.71 113.48 50.44"/>
      <polyline class="cls-34" points="54.16 109.64 54.16 122.94 55.13 122.94 55.13 109.64"/>
      <polygon class="cls-34" points="50.68 112.85 51.39 113.51 54.65 110.01 57.91 113.51 58.62 112.85 54.65 108.59 50.68 112.85"/>
      <polyline class="cls-34" points="219.73 75.32 219.73 55.23 218.76 55.23 218.76 75.32"/>
      <polygon class="cls-34" points="223.21 72.11 222.5 71.45 219.25 74.95 215.99 71.45 215.28 72.11 219.25 76.38 223.21 72.11"/>
      <path class="cls-34" d="M89.43,104.65c-1.87,0-3.66-.63-5.32-1.81-2.49-1.76-4.65-4.77-6.19-8.58-1.54-3.82-2.44-8.44-2.44-13.42,0-6.64,1.61-12.65,4.17-16.95,1.28-2.15,2.8-3.88,4.45-5.05,1.66-1.18,3.45-1.81,5.32-1.81v-1.13c-2.14,0-4.17.73-5.98,2.02-2.72,1.94-4.99,5.12-6.58,9.08-1.6,3.97-2.52,8.73-2.52,13.84,0,6.83,1.64,13.01,4.33,17.53,1.35,2.26,2.96,4.11,4.77,5.4,1.81,1.29,3.84,2.02,5.98,2.02v-1.13Z"/>
    </g>
    <g class="cls-10">
      <rect class="cls-74" x="70.49" y="82.46" width="22.32" height="22.43" transform="translate(-42.24 84.05) rotate(-44.48)"/>
    </g>
    <g class="cls-86">
      <path class="cls-34" d="M87.32,89.98l-.54-.16s-.02.07-.06.2c-.3.92-1.65,4.92-4.02,9.17-2.76,4.95-3.14,6.82-3.16,6.91l.56.11.25-.51s-.08-.04-.22-.11c-.5-.26-1.77-.95-2.88-1.78-.56-.42-1.07-.87-1.43-1.3-.36-.43-.54-.83-.53-1.09v-.11s0,0,0,0c.07-.44.38-1.31.83-2.35,1.36-3.13,3.95-7.91,5.12-10.25,1.56-3.12,2.26-4.96,2.26-4.97l-.53-.2-.47.32,4.34,6.46.47-.32-.54-.16.54.16.47-.32-4.95-7.37-.39,1.03s-.04.11-.13.32c-.26.65-.93,2.24-2.09,4.55h0c-.77,1.53-2.19,4.18-3.45,6.72-.63,1.27-1.23,2.51-1.7,3.58-.46,1.08-.8,1.96-.91,2.62h0c-.02.1-.02.19-.02.29.01.78.45,1.44.99,2.04.83.9,1.99,1.7,2.96,2.29.97.59,1.74.97,1.75.97l.67.33.14-.73-.19-.04.19.04h0s-.19-.04-.19-.04l.19.04s.4-1.85,3.03-6.57c2.77-4.97,4.17-9.57,4.18-9.59l.08-.26-.15-.22-.47.32Z"/>
    </g>
    <g class="cls-40">
      <rect class="cls-113" x="69.56" y="83.77" width="12.33" height="15.22" transform="translate(-35.17 49.1) rotate(-29.48)"/>
    </g>
    <g class="cls-42">
      <path class="cls-34" d="M78.86,91.32l-.55-.15s-.02.07-.06.21c-.3.98-1.65,5.27-4.03,9.82-2.76,5.29-3.14,7.29-3.15,7.38l.56.1.26-.5s-.08-.04-.22-.12c-.5-.28-1.77-1.01-2.88-1.91-.56-.45-1.08-.93-1.43-1.4-.37-.47-.55-.9-.54-1.21v-.13s.01,0,.01,0h0c.07-.48.38-1.42.84-2.53,1.36-3.35,3.96-8.47,5.13-10.96,1.56-3.33,2.26-5.3,2.27-5.32l-.53-.19-.48.3,4.34,6.9.48-.3-.55-.15.55.15.48-.3-4.97-7.89-.39,1.1s-.04.11-.13.35c-.26.69-.94,2.4-2.1,4.87-.77,1.64-2.19,4.48-3.46,7.19-.63,1.36-1.23,2.69-1.7,3.83-.46,1.15-.8,2.1-.91,2.79h0c-.02.1-.02.2-.02.3,0,.8.43,1.5.98,2.14.82.96,1.99,1.81,2.96,2.45.97.63,1.74,1.04,1.75,1.04l.68.36.14-.76-.14-.02.14.03h0s-.14-.03-.14-.03l.14.03s.4-1.99,3.04-7.05c2.77-5.32,4.17-10.23,4.18-10.25l.07-.24-.13-.21-.48.3Z"/>
      <path class="cls-34" d="M71.13,107.94l.43.37s.89-1.03,1.77-2.2c.45-.58.89-1.2,1.24-1.75.17-.28.32-.54.43-.78.11-.25.2-.47.2-.75v-.17s-.45.08-.45.08h.44v-.08s-.44.08-.44.08h.44-.52l.36.37c.14-.13.16-.3.16-.37h-.52l.36.37-.36-.37v.52c.07,0,.23-.02.36-.15l-.36-.37v.52-.33l-.13.31s.02.02.13.02v-.33l-.13.31s.09.05.2.12c.42.27,1.23.93,2.23,1.73,1.5,1.21,3.45,2.78,5.34,4.1.94.66,1.87,1.26,2.74,1.72.86.46,1.65.79,2.37.89l.08-.56-.14-.55s-.4.1-1.03.25c-.95.23-2.42.57-3.84.87-1.42.3-2.8.56-3.5.61h-.05c-.15,0-.42-.05-.74-.18-1.13-.43-2.85-1.62-4.23-2.69-.69-.54-1.31-1.04-1.76-1.41-.22-.19-.4-.34-.52-.44-.12-.11-.19-.16-.19-.16l-.38.42.43.37-.43-.37-.38.43s1.44,1.27,3.15,2.54c.86.64,1.78,1.28,2.64,1.77.43.24.85.45,1.25.6.4.15.77.25,1.15.26h.14c1.09-.1,3.19-.53,5.07-.95,1.87-.42,3.48-.81,3.48-.81l2.91-.71-2.97-.4c-.71-.09-1.89-.64-3.17-1.45-1.93-1.21-4.15-2.95-5.94-4.39-.9-.72-1.69-1.36-2.3-1.83-.31-.24-.56-.43-.78-.57-.11-.07-.2-.13-.3-.18l-.16-.07c-.06-.02-.13-.04-.25-.05-.1,0-.28.03-.43.18-.15.15-.18.33-.18.44v.12s.21-.04.21-.04h-.2s0,.04,0,.04l.2-.04h-.2s.03,0,.03,0h-.03s0,0,0,0h.03-.03s-.04.16-.13.34c-.31.66-1.14,1.8-1.87,2.72-.37.47-.71.89-.96,1.19-.25.31-.41.49-.41.49l-.36.43.42.37.38-.43Z"/>
      <path class="cls-34" d="M62.22,109.68l.43.37s.89-1.03,1.78-2.2c.44-.58.89-1.2,1.24-1.75.17-.28.32-.54.43-.78.11-.25.2-.47.2-.75v-.16s-.01,0-.01,0l-.44.08h.44v-.08s-.44.08-.44.08h.44-.52l.36.37c.14-.13.16-.3.16-.37h-.52l.36.37-.36-.37v.52c.07,0,.23-.02.36-.15l-.36-.37v.52-.33l-.13.31s.02.02.13.02v-.33l-.13.31s.09.04.2.12c.42.27,1.23.93,2.23,1.73,1.5,1.21,3.45,2.78,5.34,4.1.95.66,1.87,1.26,2.74,1.71.86.46,1.65.79,2.37.89l.07-.56-.13-.55s-.4.1-1.03.25c-.95.22-2.42.57-3.84.87-1.42.3-2.8.56-3.5.61h-.05c-.15,0-.42-.05-.74-.18-1.13-.43-2.85-1.62-4.23-2.69-.69-.54-1.31-1.04-1.76-1.41-.22-.19-.4-.34-.52-.44-.12-.11-.19-.16-.19-.16l-.38.42.43.37-.43-.37-.38.43s1.44,1.27,3.15,2.54c.86.64,1.78,1.28,2.64,1.77.43.24.85.45,1.25.6.4.15.77.25,1.15.25h.14c1.09-.09,3.19-.53,5.07-.95,1.87-.42,3.48-.81,3.48-.81l2.91-.71-2.97-.4c-.71-.09-1.89-.64-3.17-1.45-1.93-1.21-4.15-2.95-5.94-4.39-.9-.72-1.69-1.36-2.3-1.83-.3-.24-.56-.43-.78-.57-.11-.07-.2-.13-.3-.18l-.16-.07c-.06-.02-.13-.04-.25-.04-.1,0-.28.03-.43.18-.15.15-.18.33-.18.44v.12s.01,0,.01,0l.2-.04h-.2v.04s.2-.04.2-.04h-.2.04-.04s0,0,0,0h.04-.04s-.04.16-.13.34c-.31.66-1.14,1.8-1.87,2.72-.37.47-.71.89-.96,1.19-.25.31-.41.49-.41.49l-.36.42.42.37.38-.43Z"/>
    </g>
    <g class="cls-55">
      <rect class="cls-102" x="76.99" y="80.46" width="25.61" height="25.73" transform="translate(-39.67 89.66) rotate(-44.48)"/>
    </g>
    <g class="cls-95">
      <path class="cls-34" d="M96.4,89.47l-.46-.32s-2.32,3.3-4.82,8.22c-2.5,4.92-3.11,7.32-3.12,7.37l.55.14.36-.44s-.33-.27-.83-.7c-.75-.64-1.87-1.62-2.79-2.53-.46-.45-.87-.88-1.16-1.23-.14-.17-.25-.32-.31-.43l-.06-.11h0s-.15.04-.15.04h.16v-.04s-.16.04-.16.04h.16-.38.38s0,0,0,0h-.38.38s0,0,0,0h0c0-.18.06-.5.19-.89.45-1.39,1.63-3.65,2.85-5.86,1.22-2.22,2.48-4.41,3.11-5.8,1.42-3.1,2.05-4.93,2.06-4.95l-.54-.18-.48.31,4.96,7.68.48-.31-.46-.32.46.32.48-.31-5.59-8.66-.38,1.1s-.04.11-.12.32c-.24.64-.85,2.23-1.9,4.52-.68,1.49-2.22,4.14-3.6,6.68-.69,1.27-1.34,2.52-1.82,3.61-.24.54-.44,1.04-.59,1.49-.14.45-.24.85-.25,1.22h0s0,.01,0,.01c0,.19.05.33.11.46.22.46.64.94,1.18,1.51,1.61,1.68,4.25,3.86,4.26,3.87l.69.57.22-.87v-.02c.07-.23.72-2.56,3.03-7.11,1.24-2.43,2.42-4.45,3.3-5.87.44-.71.8-1.26,1.05-1.64.13-.19.22-.33.29-.43.07-.1.1-.14.1-.14l.22-.31-.21-.32-.48.31Z"/>
    </g>
    <g class="cls-131">
      <rect class="cls-87" x="80.21" y="97.43" width="11.21" height="11.17" transform="translate(-47.6 89.65) rotate(-44.48)"/>
    </g>
    <g class="cls-98">
      <path class="cls-34" d="M79.84,106.63l.51.24,3.16-6.81-.51-.24-.37.43s2.54,2.16,5.33,4.44c1.39,1.14,2.85,2.31,4.09,3.25.62.47,1.18.89,1.66,1.23.48.33.86.58,1.17.73l.24-.51-.15-.55s-.34.09-.87.23c-.8.21-2.06.54-3.27.82-1.21.29-2.41.53-3.03.59h-.05c-.14,0-.4-.05-.71-.16-1.12-.38-2.87-1.43-4.29-2.37-.71-.47-1.36-.92-1.82-1.25-.46-.33-.74-.53-.74-.53l-.34.45.51.24-.51-.24-.34.46s1.5,1.12,3.25,2.23c.88.56,1.82,1.12,2.68,1.55.43.22.84.4,1.23.53.38.13.74.22,1.09.22h.15c1-.1,2.81-.52,4.41-.91,1.6-.4,2.96-.77,2.96-.77l1.48-.41-1.39-.65c-.18-.08-.55-.31-1.01-.63-1.6-1.11-4.36-3.34-6.71-5.27-1.17-.97-2.24-1.86-3.02-2.52-.78-.65-1.26-1.07-1.26-1.07l-.57-.48-3.66,7.9.37.28.34-.46Z"/>
    </g>
    <g class="cls-18">
      <rect class="cls-106" x="86.05" y="80.54" width="24.41" height="24.5" transform="translate(-36.87 95.44) rotate(-44.48)"/>
    </g>
    <g class="cls-122">
      <path class="cls-34" d="M105.19,88.49l-.43-.37s-2.7,3.2-5.22,8.14c-2.5,4.91-2.94,6.68-2.96,6.75l.55.13.35-.44s-.33-.26-.83-.67c-.75-.62-1.88-1.56-2.8-2.45-.46-.44-.88-.87-1.16-1.21-.14-.17-.25-.32-.31-.43l-.06-.12h0s-.16.02-.16.02h.16v-.03s-.16.03-.16.03h.16-.34l.29.16.04-.16h-.34l.29.16c1.2-2.16,2.82-5.45,4.6-8.24.5-.79,1.67-2.55,2.71-4.1,1.04-1.56,1.95-2.91,1.95-2.91l-.47-.32-.47.32,4.11,6.05.47-.32-.43-.37.43.37.47-.32-4.59-6.74-.47.7s-3.65,5.43-4.68,7.04h0s0,0,0,0c-1.82,2.86-3.46,6.18-4.64,8.3-.07.13-.1.27-.1.39,0,.19.05.33.11.46.22.48.65.96,1.19,1.53,1.62,1.66,4.28,3.74,4.29,3.75l.69.54.21-.85h0c.04-.16.55-1.95,2.87-6.5,1.23-2.41,2.5-4.4,3.46-5.78.48-.69.89-1.23,1.17-1.59.14-.18.25-.32.33-.41.07-.09.11-.14.11-.14l.28-.33-.24-.36-.47.32Z"/>
    </g>
    <g class="cls-11">
      <rect class="cls-30" x="94.96" y="80.68" width="23.45" height="23.51" transform="translate(-34.2 101.24) rotate(-44.48)"/>
    </g>
    <g class="cls-21">
      <path class="cls-34" d="M113.76,88.96l-.44-.36s-2.13,2.56-4.9,7.16c-1.4,2.32-2.39,3.79-3.03,4.66-.32.44-.55.73-.7.91-.07.09-.13.15-.16.19l-.03.04h0s.07.08.07.08l-.07-.07h0s.07.07.07.07l-.07-.07.41.39.35-.45s-.3-.24-.75-.61c-.68-.56-1.7-1.42-2.53-2.23-.42-.4-.79-.79-1.04-1.11-.12-.16-.22-.3-.27-.4l-.05-.11h0s-.14.01-.14.01h.14v-.03s-.14.03-.14.03h.14-.32l.28.15.04-.15h-.32l.28.15c1.18-2.12,2.91-4.94,4.71-7.76.48-.75,1.69-2.32,2.77-3.67.54-.68,1.05-1.31,1.43-1.77.37-.46.61-.75.61-.75l-.44-.36-.47.32,4.12,6.05.47-.32-.44-.36.44.36.47-.32-4.54-6.68-.48.58s-.96,1.17-2.05,2.53c-1.09,1.37-2.3,2.93-2.84,3.77-1.8,2.83-3.54,5.66-4.74,7.82-.07.13-.1.28-.1.4.01.35.15.57.3.82.28.43.7.89,1.2,1.38,1.48,1.47,3.58,3.11,3.59,3.12l.4.32.35-.37s1.25-1.31,4.08-6c1.37-2.27,2.57-4.03,3.43-5.22.43-.59.77-1.05,1.01-1.35.12-.15.21-.26.27-.34l.09-.11.27-.33-.24-.35-.47.32Z"/>
    </g>
    <g class="cls-105">
      <rect class="cls-108" x="87.29" y="95.17" width="13.89" height="13.84" transform="translate(-44.53 95.29) rotate(-44.48)"/>
    </g>
    <g class="cls-84">
      <path class="cls-34" d="M88.42,104.9l.51.24,3.16-6.81-.51-.24-.38.42s2.24,2.04,4.72,4.2c1.24,1.08,2.55,2.19,3.67,3.09.56.45,1.08.85,1.53,1.17.45.32.82.56,1.13.71l.24-.51-.2-.53s-.33.12-.85.31c-.78.28-2,.7-3.18,1.06-1.18.36-2.35.67-2.94.72h-.05c-.13,0-.37-.04-.65-.15-.99-.37-2.49-1.4-3.69-2.33-.6-.47-1.14-.91-1.52-1.23-.19-.16-.35-.29-.45-.39-.1-.09-.16-.14-.16-.14l-.38.42.51.24-.51-.24-.38.42s1.25,1.11,2.74,2.23c.75.56,1.56,1.12,2.33,1.55.38.21.76.4,1.11.53.36.13.7.22,1.04.22h.15c.53-.05,1.22-.21,1.99-.42,2.3-.63,5.27-1.73,5.27-1.74l1.27-.47-1.22-.57c-.18-.08-.53-.3-.95-.6-1.48-1.06-3.95-3.17-6.03-4.99-1.04-.91-1.99-1.76-2.68-2.38-.69-.62-1.11-1-1.11-1.01l-.57-.52-3.66,7.89.31.28.38-.42Z"/>
    </g>
    <g class="cls-8">
      <rect class="cls-31" x="96.06" y="94.43" width="14.21" height="14.16" transform="translate(-41.56 101.37) rotate(-44.48)"/>
    </g>
    <g class="cls-26">
      <path class="cls-34" d="M97.08,102.85l.51.24,2.46-5.3-.51-.24-.36.43s2.26,1.91,4.83,3.88c1.28.99,2.64,1.99,3.83,2.77.6.39,1.16.74,1.65,1,.5.26.92.45,1.33.52l.1-.56-.14-.55s-.37.09-.96.24c-.88.21-2.25.54-3.57.82-1.31.29-2.59.53-3.22.59h-.05c-.25.01-.81-.2-1.41-.6-.9-.58-1.94-1.5-2.72-2.26-.4-.38-.73-.73-.97-.98-.12-.12-.21-.22-.28-.29l-.1-.1-.42.38.51.24-.51-.24-.42.38s1.02,1.12,2.28,2.25c.63.56,1.33,1.13,2.01,1.57.69.43,1.33.77,2.02.78h.15c1-.1,2.94-.51,4.68-.91,1.74-.4,3.24-.77,3.24-.77l2.56-.64-2.59-.47c-.18-.03-.56-.17-1-.41-1.58-.83-4.13-2.72-6.26-4.39-1.07-.84-2.03-1.62-2.73-2.19-.7-.57-1.12-.93-1.12-.93l-.57-.48-2.93,6.31.25.28.42-.38Z"/>
    </g>
    <g class="cls-27">
      <rect class="cls-5" x="103.18" y="80.36" width="23.68" height="23.75" transform="translate(-31.67 107.03) rotate(-44.48)"/>
    </g>
    <g class="cls-136">
      <path class="cls-34" d="M121.99,86.87l-.48-.3s-2.78,4.47-5.54,9.04c-2.82,4.68-3.58,6.15-3.59,6.17l.5.26.41-.39-4.84-5-.41.39.5.28c1.18-2.12,2.91-4.94,4.71-7.76h0c.47-.74,1.82-2.46,3.02-3.95.61-.75,1.18-1.45,1.6-1.96.42-.51.69-.84.69-.84l-.43-.36-.43.37,3.85,4.43.43-.37-.48-.3.48.3.43-.37-4.29-4.94-.43.51s-1.09,1.31-2.3,2.81c-1.22,1.51-2.55,3.2-3.1,4.06h0c-1.8,2.83-3.54,5.66-4.74,7.82l-.21.37,5.68,5.87.36-.7.03-.07c.18-.33,1.05-1.95,3.52-6.03,1.38-2.28,2.76-4.54,3.8-6.23,1.04-1.69,1.73-2.8,1.73-2.8l.22-.36-.27-.32-.43.37Z"/>
    </g>
    <g class="cls-49">
      <rect class="cls-97" x="103.77" y="94.2" width="13.57" height="13.52" transform="translate(-39.06 106.4) rotate(-44.48)"/>
    </g>
    <g class="cls-93">
      <path class="cls-34" d="M104.9,101.95l.48.31,3.15-4.92-.48-.31-.42.38s1.7,1.85,3.69,3.75c1,.95,2.07,1.92,3.06,2.68.49.38.97.72,1.4.98.44.26.84.45,1.25.53l.1-.56-.08-.56s-1.1.16-2.42.34c-1.32.18-2.88.38-3.78.46h-.07c-.29.01-.85-.18-1.45-.5-.91-.48-1.93-1.24-2.72-1.87-.39-.32-.73-.6-.97-.81-.12-.1-.21-.18-.28-.24l-.1-.09-.38.42.48.31-.48-.31-.38.42s1.02.93,2.28,1.87c.63.47,1.33.94,2.01,1.3.68.36,1.33.63,1.99.64h.17c1.87-.17,6.26-.82,6.27-.82l3.41-.5-3.39-.62c-.18-.03-.5-.16-.88-.39-1.34-.78-3.35-2.6-4.98-4.2-.82-.8-1.55-1.55-2.08-2.1-.53-.55-.84-.9-.84-.9l-.5-.54-3.81,5.94.35.32.38-.42Z"/>
    </g>
    <g class="cls-50">
      <rect class="cls-4" x="110.83" y="79.06" width="25.05" height="25.13" transform="translate(-28.86 112.69) rotate(-44.48)"/>
    </g>
    <g class="cls-67">
      <path class="cls-34" d="M131.08,87.77l-.44-.36s-2.31,2.84-5.32,7.95c-1.52,2.59-2.6,4.21-3.3,5.19-.35.49-.6.81-.76,1.01-.08.1-.14.17-.18.21l-.04.04h0s.04.04.04.04l-.04-.04h0s.04.04.04.04l-.04-.04.41.39.41-.39-5.26-5.56-.41.39.5.27c1.29-2.36,3.17-5.5,5.12-8.64.52-.84,1.84-2.59,3.02-4.09.59-.76,1.14-1.46,1.55-1.97s.66-.83.67-.83l-.44-.35-.47.31,4.47,6.73.47-.31-.44-.36.44.36.47-.31-4.9-7.38-.49.6s-1.04,1.3-2.23,2.82c-1.19,1.52-2.5,3.25-3.09,4.19-1.96,3.15-3.85,6.3-5.16,8.7l-.2.36,5.95,6.29.41-.44s1.35-1.45,4.43-6.67c1.49-2.52,2.8-4.48,3.73-5.8.47-.66.84-1.17,1.1-1.5.13-.17.23-.29.29-.38l.1-.12.26-.32-.23-.35-.47.31Z"/>
    </g>
    <g class="cls-124">
      <rect class="cls-132" x="123.39" y="87.31" width="13.36" height="13.41" transform="translate(-28.6 118.08) rotate(-44.48)"/>
    </g>
    <g class="cls-103">
      <path class="cls-34" d="M140.13,86.85l-.44-.36s-2.12,2.56-4.9,7.16h0c-1.4,2.33-2.39,3.79-3.03,4.66-.32.44-.55.73-.7.91-.07.09-.13.15-.16.19l-.03.04h0s.08.08.08.08l-.08-.07h0s.08.07.08.07l-.08-.07.41.39.41-.39-4.84-5-.41.39.49.28c1.18-2.12,2.91-4.94,4.71-7.77.48-.75,1.59-2.18,2.57-3.4.49-.61.95-1.17,1.29-1.58.34-.41.55-.66.55-.66l-.43-.36-.44.36,4.51,5.52.44-.36-.44-.36.44.36.44-.36-4.95-6.05-.44.53s-.86,1.03-1.85,2.27c-.99,1.24-2.11,2.66-2.65,3.51-1.8,2.83-3.54,5.66-4.74,7.82l-.21.37,5.54,5.73.41-.42s1.25-1.31,4.08-6h0c1.37-2.27,2.57-4.03,3.43-5.22.43-.6.77-1.05,1.01-1.35.12-.15.21-.26.27-.34l.09-.11.3-.36-.3-.36-.44.36Z"/>
      <path class="cls-34" d="M147.9,87.45l-.44-.36s-1.92,2.35-4.42,6.58c-1.26,2.13-2.16,3.48-2.73,4.28-.29.4-.49.67-.63.83l-.14.17-.03.04h0s.11.1.11.1l-.11-.1h0s.11.1.11.1l-.11-.1.41.39.41-.39-4.36-4.59-.41.39.5.27c1.06-1.95,2.62-4.54,4.24-7.13.43-.68,1.52-2.13,2.5-3.37.49-.62.95-1.2,1.28-1.62.34-.42.55-.69.55-.69l-.44-.36-.47.31,3.71,5.56.47-.31-.44-.36.44.36.47-.31-4.13-6.2-.48.6s-.87,1.07-1.85,2.33c-.98,1.26-2.07,2.69-2.56,3.47-1.63,2.6-3.2,5.2-4.28,7.19l-.2.36,5.05,5.32.41-.43s1.13-1.21,3.69-5.52c1.23-2.08,2.32-3.7,3.09-4.79.39-.55.7-.96.91-1.24.11-.14.19-.24.24-.31l.08-.1.26-.32-.23-.35-.47.31Z"/>
      <path class="cls-34" d="M156.59,87.52l-.41-.4s-2.11,2.15-4.95,6.11c-1.44,2-2.44,3.25-3.08,3.99-.32.37-.55.62-.69.76l-.16.16-.03.03h0s.1.12.1.12l-.1-.12h0s.1.12.1.12l-.1-.12.37.43.45-.35-3.95-5-.44.35.47.31c1.22-1.84,3-4.26,4.83-6.68.49-.64,1.53-1.79,2.43-2.75.45-.48.87-.92,1.18-1.24.31-.32.5-.52.5-.52l-.41-.4-.45.34,3.9,5.18.45-.34-.41-.4.41.4.45-.34-4.3-5.71-.46.47s-.78.8-1.7,1.77c-.92.98-1.95,2.11-2.51,2.84-1.84,2.43-3.62,4.86-4.87,6.73l-.23.34,4.58,5.79.45-.39s1.23-1.09,4.14-5.13c1.4-1.95,2.62-3.45,3.48-4.46.43-.51.77-.89,1.01-1.14.12-.13.21-.22.27-.29l.09-.09.34-.35-.29-.39-.45.34Z"/>
    </g>
    <g class="cls-14">
      <rect class="cls-101" x="113.63" y="54.86" width="22.48" height="22.52" transform="translate(-10.55 106.44) rotate(-44.48)"/>
    </g>
    <g class="cls-111">
      <path class="cls-34" d="M132.15,63.16l-.38-.42s-2.43,2.23-5.74,6.38h0c-1.68,2.1-2.84,3.4-3.58,4.18-.37.39-.63.64-.8.8l-.18.16-.04.03h0s.07.1.07.1l-.07-.09h0s.07.09.07.09l-.07-.09.35.45.46-.34-4.18-5.65-.46.34.46.34c1.43-1.93,3.5-4.47,5.63-7.01.56-.67,1.97-2.05,3.2-3.24.62-.59,1.2-1.15,1.63-1.55.43-.4.7-.65.7-.65l-.38-.42-.51.26,3.33,6.6.51-.26-.38-.42.38.42.5-.25-3.67-7.27-.55.51s-1.1,1.02-2.34,2.21c-1.25,1.2-2.64,2.57-3.28,3.33-2.14,2.54-4.21,5.1-5.67,7.06l-.25.34,4.78,6.46.46-.36c.05-.04,1.4-1.12,4.79-5.36,1.64-2.05,3.05-3.62,4.05-4.67.5-.53.9-.93,1.17-1.19.14-.13.24-.23.31-.3l.1-.1.32-.29-.19-.38-.5.25Z"/>
    </g>
    <g class="cls-19">
      <rect class="cls-145" x="122.6" y="57.07" width="19.11" height="19.17" transform="translate(-8.83 111.7) rotate(-44.48)"/>
    </g>
    <g class="cls-3">
      <path class="cls-34" d="M140.21,64.78l-.37-.43s-2.29,1.99-5.41,5.7c-1.57,1.87-2.67,3.03-3.36,3.72-.35.34-.6.57-.75.71l-.17.14-.04.03h0s.09.13.09.13l-.09-.12h0s.09.12.09.12l-.09-.12.34.46.45-.35-4-5.12-.45.35.45.35c1.35-1.72,3.28-3.99,5.29-6.25h0c.52-.6,1.84-1.83,3.01-2.89.58-.53,1.13-1.02,1.54-1.38.4-.36.66-.58.66-.58l-.37-.43-.5.27,3.2,5.96.5-.27-.37-.43.37.43.5-.27-3.54-6.58-.54.47s-1.03.9-2.21,1.97c-1.18,1.07-2.49,2.29-3.1,2.98h0c-2.01,2.27-3.96,4.54-5.33,6.3l-.27.35,4.61,5.9.44-.33c.05-.04,1.33-1,4.52-4.79,1.54-1.83,2.86-3.23,3.8-4.16.47-.47.84-.82,1.1-1.06.13-.12.23-.21.29-.27l.1-.08.34-.3-.21-.4-.5.27Z"/>
    </g>
    <g class="cls-65">
      <rect class="cls-112" x="145.43" y="59.6" width=".01" height=".01" transform="translate(-.18 118.78) rotate(-44.4)"/>
    </g>
    <g class="cls-63">
      <path class="cls-34" d="M148.36,65.2l-.38-.42s-2.11,1.89-4.98,5.39c-1.45,1.77-2.46,2.87-3.1,3.52-.32.32-.55.54-.69.67l-.15.13-.03.03h0s.11.15.11.15l-.11-.14h0s.11.14.11.14l-.11-.14.34.45.45-.34-3.65-4.8-.45.34.45.34c1.23-1.63,3.02-3.77,4.87-5.91.48-.56,1.7-1.73,2.77-2.72.54-.5,1.04-.96,1.41-1.3.37-.34.61-.55.61-.55l-.38-.42-.5.26,2.92,5.59.5-.26-.38-.42.38.42.5-.26-3.26-6.24-.54.49s-.95.86-2.03,1.87c-1.09,1.01-2.29,2.16-2.85,2.81-1.85,2.15-3.65,4.3-4.91,5.97l-.26.34,4.26,5.6.45-.35c.05-.04,1.23-.95,4.16-4.53,1.42-1.73,2.64-3.05,3.5-3.93.43-.44.78-.78,1.01-1,.12-.11.21-.2.27-.25l.09-.08.33-.29-.2-.39-.5.26Z"/>
      <path class="cls-34" d="M156.89,65.38l-.38-.42s-2.11,1.89-4.98,5.39c-1.45,1.77-2.46,2.87-3.1,3.52-.32.32-.55.54-.69.67l-.15.14-.03.03h0s.11.15.11.15l-.11-.14h0s.11.14.11.14l-.11-.14.34.45.45-.34-3.65-4.8-.45.34.45.34c1.23-1.63,3.02-3.77,4.87-5.91h0s0,0,0,0c.48-.56,1.69-1.73,2.76-2.72.54-.5,1.04-.96,1.41-1.3.37-.34.61-.55.61-.55l-.38-.42-.5.26,2.92,5.59.5-.26-.38-.42.38.42.5-.26-3.26-6.24-.54.49s-.95.86-2.03,1.87c-1.09,1.01-2.29,2.16-2.85,2.81h0c-1.86,2.15-3.65,4.3-4.92,5.96l-.26.34,4.25,5.6.45-.35c.05-.04,1.23-.95,4.17-4.53,1.42-1.72,2.64-3.05,3.5-3.93.43-.44.78-.78,1.01-1,.12-.11.21-.2.27-.25l.09-.08.33-.29-.2-.39-.5.26Z"/>
      <path class="cls-34" d="M156.78,65.29l-.36-.4s-2.11,1.88-4.98,5.39h0c-1.45,1.77-2.46,2.87-3.1,3.52-.32.32-.55.54-.69.67l-.15.14-.03.03h0s.1.13.1.13l-.1-.12h0s.1.12.1.12l-.1-.12.33.43.43-.32-3.65-4.8-.43.32.43.33c1.24-1.63,3.02-3.78,4.87-5.91h0c.48-.56,1.52-1.5,2.43-2.28.46-.39.88-.75,1.19-1,.31-.26.5-.41.5-.41l-.34-.42-.43.32,3.57,4.74.43-.32-.36-.4.36.4.43-.32-3.91-5.18-.43.35s-.79.64-1.71,1.44c-.92.8-1.97,1.74-2.54,2.4h0c-1.85,2.14-3.65,4.3-4.91,5.96l-.25.32,4.22,5.55.43-.33c.05-.04,1.23-.95,4.16-4.53h0c1.42-1.73,2.64-3.05,3.5-3.93.43-.44.78-.78,1.01-1,.12-.11.21-.2.27-.25l.09-.08.37-.33-.3-.4-.43.32Z"/>
    </g>
    <g class="cls-128">
      <rect class="cls-100" x="104.86" y="53.8" width="22.45" height="22.49" transform="translate(-12.31 99.98) rotate(-44.48)"/>
    </g>
    <g class="cls-7">
      <path class="cls-34" d="M123.37,62.06l-.38-.42s-2.43,2.23-5.74,6.38c-1.68,2.1-2.84,3.4-3.58,4.18-.37.39-.63.64-.8.8l-.18.16-.04.03h0s.07.1.07.1l-.07-.09h0s.07.09.07.09l-.07-.09.35.44.46-.34-4.18-5.66-.46.34.46.34c1.43-1.93,3.5-4.48,5.63-7.01.56-.67,1.96-2.05,3.2-3.24.62-.59,1.2-1.15,1.63-1.55.43-.4.7-.65.7-.65l-.38-.42-.51.26,3.33,6.6.51-.26-.38-.42.38.42.5-.25-3.67-7.27-.55.51s-1.1,1.02-2.34,2.21c-1.25,1.2-2.64,2.57-3.28,3.33-2.14,2.55-4.21,5.1-5.67,7.07l-.25.34,4.78,6.46.46-.36c.05-.04,1.4-1.12,4.79-5.36,1.64-2.05,3.05-3.62,4.05-4.67.5-.53.89-.93,1.17-1.19.14-.13.24-.23.31-.3l.1-.1.32-.29-.19-.38-.5.25Z"/>
    </g>
    <g class="cls-117">
      <rect class="cls-119" x="96.04" y="52.96" width="22.28" height="22.33" transform="translate(-14.22 93.48) rotate(-44.48)"/>
    </g>
    <g class="cls-82">
      <path class="cls-34" d="M114.25,61.15l-.43-.37s-1.97,2.29-5.27,6.43h0c-1.68,2.1-2.84,3.4-3.58,4.18-.37.39-.63.64-.8.8l-.18.16-.04.03h0s.07.09.07.09l-.07-.09h0s.07.09.07.09l-.07-.09.35.44.46-.34-4.18-5.65-.46.34.46.34c1.43-1.94,3.5-4.48,5.63-7.01.57-.67,1.96-2.05,3.2-3.24.62-.6,1.2-1.15,1.63-1.55.43-.4.7-.65.7-.65l-.39-.41-.52.23,2.91,6.51.52-.23-.43-.37.43.37.52-.23-3.23-7.23-.58.54s-1.1,1.02-2.34,2.21c-1.25,1.2-2.64,2.57-3.29,3.33-2.14,2.55-4.21,5.1-5.67,7.07l-.25.34,4.77,6.46.46-.36c.05-.04,1.4-1.12,4.79-5.36,1.65-2.06,2.96-3.66,3.86-4.74.45-.54.8-.96,1.03-1.23.24-.28.35-.42.36-.42l.24-.27-.15-.33-.52.23Z"/>
    </g>
    <g class="cls-89">
      <rect class="cls-76" x="86.8" y="51.92" width="22.68" height="22.73" transform="translate(-16.22 86.9) rotate(-44.48)"/>
    </g>
    <g class="cls-43">
      <path class="cls-34" d="M105.3,60.23l-.44-.36s-2.14,2.56-5.44,6.69c-1.68,2.1-2.84,3.4-3.58,4.18-.37.39-.63.64-.8.8l-.18.16-.04.03h0s.07.1.07.1l-.07-.09h0s.07.09.07.09l-.07-.09.35.44.46-.34-4.18-5.65-.46.34.46.34c1.43-1.93,3.5-4.48,5.63-7.01.56-.67,1.96-2.05,3.2-3.24.62-.6,1.2-1.14,1.63-1.55.43-.4.7-.65.7-.65l-.38-.42-.51.25,3.08,6.23.51-.25-.44-.36.44.36.51-.25-3.41-6.91-.56.52s-1.1,1.02-2.35,2.21c-1.25,1.2-2.64,2.56-3.28,3.33-2.14,2.55-4.21,5.1-5.67,7.07l-.25.34,4.77,6.46.46-.36c.05-.04,1.41-1.12,4.79-5.36,1.65-2.06,3-3.73,3.95-4.88.95-1.15,1.48-1.79,1.48-1.79l.24-.28-.16-.33-.51.25Z"/>
    </g>
    <g class="cls-47">
      <rect class="cls-137" x="77.55" y="50.79" width="23.03" height="23.07" transform="translate(-18.15 80.27) rotate(-44.48)"/>
    </g>
    <g class="cls-144">
      <path class="cls-34" d="M96.35,59.77l-.38-.42s-2.43,2.23-5.74,6.38c-1.68,2.1-2.84,3.4-3.58,4.18-.37.39-.63.64-.8.8l-.18.16-.04.03h0s.07.1.07.1l-.07-.09h0s.07.09.07.09l-.07-.09.35.45.46-.34-4.18-5.65-.46.34.46.34c1.43-1.93,3.5-4.47,5.63-7.01h0s0,0,0,0c.56-.67,1.96-2.06,3.2-3.24.62-.59,1.2-1.15,1.63-1.55.43-.4.7-.65.7-.65l-.38-.42-.51.26,3.33,6.6.51-.26-.38-.42.38.42.51-.26-3.67-7.27-.55.51s-1.1,1.02-2.35,2.21c-1.25,1.2-2.64,2.57-3.28,3.33-2.14,2.54-4.21,5.1-5.67,7.06l-.25.34,4.77,6.46.46-.36c.05-.04,1.4-1.12,4.79-5.36,1.64-2.05,3.05-3.62,4.05-4.67.5-.53.9-.93,1.17-1.19.14-.13.24-.23.31-.3l.1-.1.32-.29-.19-.38-.51.26Z"/>
    </g>
    <g class="cls-79">
      <rect class="cls-77" x="112.3" y="93.9" width="13.86" height="13.79" transform="translate(-36.46 112.43) rotate(-44.48)"/>
    </g>
    <g class="cls-81">
      <path class="cls-34" d="M113.04,102.12l.48.31,3.15-4.92-.48-.31-.37.43s1.73,1.51,3.76,3.09c1.01.79,2.1,1.59,3.1,2.23,1.01.64,1.88,1.12,2.64,1.27l.1-.56-.08-.56c-1.96.29-2.92.57-3.74.77-.82.2-1.5.35-3.11.41h-.05c-.33,0-.85-.14-1.4-.38-.84-.36-1.76-.92-2.46-1.39-.35-.23-.65-.44-.86-.6-.1-.08-.19-.14-.24-.18l-.08-.06-.35.45.48.31-.48-.31-.35.45s.9.7,2.05,1.4c.57.35,1.21.7,1.84.97.63.27,1.25.47,1.85.47h.09c1.66-.07,2.49-.23,3.34-.45.85-.21,1.71-.47,3.63-.75l3.4-.5-3.38-.61c-.42-.07-1.29-.5-2.23-1.11-1.43-.92-3.12-2.22-4.44-3.3-.66-.54-1.23-1.02-1.64-1.36-.41-.34-.64-.55-.65-.55l-.49-.43-3.79,5.91.41.32.35-.45Z"/>
      <path class="cls-34" d="M140.15,99.6l.47.31,3.53-5.31-.47-.31-.44.35s1.27,1.59,3.04,3.18c.89.8,1.9,1.6,2.97,2.21,1.07.61,2.2,1.04,3.33,1.05.23,0,.45-.02.67-.06l-.19-1.12c-1.74.3-2.67.54-3.36.7-.7.16-1.15.24-2.12.24-.63,0-1.46-.04-2.67-.11h0c-1.52-.1-2.62-.5-3.34-.87-.36-.18-.62-.36-.79-.48l-.18-.15-.04-.04h0s-.12.12-.12.12l.12-.12h0s-.12.12-.12.12l.12-.12-.4.4.47.31-.47-.31-.4.4c.06.06,1.7,1.63,5.08,1.86h0c1.22.08,2.08.12,2.74.12,1.03,0,1.65-.1,2.38-.27.73-.17,1.59-.4,3.3-.69l-.19-1.12c-.16.03-.32.04-.48.04-.83,0-1.8-.34-2.77-.9-1.45-.83-2.89-2.12-3.95-3.19-.53-.54-.97-1.02-1.27-1.37-.15-.18-.27-.32-.35-.41-.08-.1-.12-.14-.12-.14l-.48-.61-4.22,6.35.33.33.4-.4Z"/>
    </g>
    <g class="cls-22">
      <rect class="cls-29" x="130.52" y="93.48" width="12.11" height="12.04" transform="translate(-30.58 124.21) rotate(-44.48)"/>
    </g>
    <g class="cls-66">
      <path class="cls-34" d="M131.02,100.51l.47.32,4.19-6.09-.47-.32-.48.3s1.12,1.79,2.75,3.58c.81.9,1.76,1.8,2.77,2.49,1.01.69,2.11,1.19,3.26,1.19.2,0,.41-.02.61-.05l-.19-1.12c-1.74.3-2.66.54-3.36.7-.7.16-1.15.24-2.11.24-.63,0-1.46-.04-2.68-.12-1.52-.1-2.62-.5-3.34-.87-.36-.18-.62-.36-.79-.48l-.18-.15-.04-.03h0s-.12.12-.12.12l.12-.12h0s-.12.12-.12.12l.12-.12-.4.4.47.32-.47-.32-.4.4c.06.06,1.7,1.64,5.08,1.86,1.23.08,2.08.12,2.75.12,1.03,0,1.64-.1,2.37-.27.73-.17,1.59-.4,3.3-.69l-.19-1.12c-.14.02-.28.03-.42.03-.8,0-1.71-.37-2.62-.99-1.36-.93-2.68-2.37-3.64-3.58-.48-.6-.87-1.15-1.14-1.54-.14-.2-.24-.35-.31-.46-.07-.11-.11-.16-.11-.16l-.46-.73-4.95,7.19.34.33.4-.4Z"/>
    </g>
    <g class="cls-126">
      <rect class="cls-53" x="120.26" y="91.68" width="15.23" height="15.18" transform="translate(-32.91 118.05) rotate(-44.48)"/>
    </g>
    <g class="cls-96">
      <path class="cls-34" d="M121.46,101.78l.46.33,4.89-6.85-.46-.33-.45.35s1.39,1.79,3.07,3.59c.84.9,1.75,1.8,2.62,2.5.43.35.85.64,1.26.86.41.22.81.37,1.24.37.11,0,.23-.01.35-.04l-.27-1.1c-1.96.48-3.38.85-4.57,1.1-1.18.25-2.12.37-3.17.37-.21,0-.43,0-.65-.02-1.52-.07-2.49-.47-3.09-.82-.3-.18-.5-.35-.62-.47l-.13-.13-.02-.03h0s-.25.18-.25.18l.26-.18h0s-.25.18-.25.18l.26-.18-.46.33.46.33-.46-.33-.46.33c.06.11,1.34,1.78,4.73,1.93.24.01.48.02.71.02,1.14,0,2.18-.14,3.4-.4,1.22-.26,2.64-.63,4.6-1.11l-.27-1.1h-.08c-.13.01-.39-.06-.71-.23-.56-.3-1.28-.87-2.01-1.55-1.1-1.03-2.25-2.3-3.12-3.32-.43-.51-.8-.95-1.05-1.27-.26-.32-.4-.5-.4-.5l-.47-.6-5.57,7.8.23.33.46-.33Z"/>
      <path class="cls-34" d="M147.64,98.61l.43.38,5.07-5.75-.43-.38-.43.37s1.45,1.7,3.24,3.51c.89.91,1.87,1.84,2.8,2.61.94.77,1.81,1.38,2.61,1.64l.17-.54v-.57c-2.3.06-3.46.09-4.47.09s-1.83-.03-3.46-.08c-.92-.03-2.28-.47-3.36-.91-.54-.22-1.02-.44-1.37-.61-.17-.08-.31-.15-.4-.2-.09-.05-.14-.07-.14-.07l-.26.5.43.38-.43-.38-.26.5s.87.46,2.01.93c1.15.46,2.55.95,3.75,1,1.63.05,2.49.08,3.49.08s2.2-.03,4.48-.09l3.33-.09-3.17-1.01c-.52-.16-1.35-.71-2.23-1.44-1.33-1.1-2.81-2.6-3.96-3.82-.57-.61-1.06-1.15-1.4-1.54-.34-.39-.54-.62-.54-.62l-.42-.5-5.98,6.78.64.34.26-.5Z"/>
    </g>
    <g class="cls-2">
      <rect class="cls-33" x="69.9" y="50.42" width="23.2" height="23.25" transform="translate(-20.12 74.89) rotate(-44.48)"/>
    </g>
    <g class="cls-88">
      <path class="cls-34" d="M77.21,71.26l.46.33s.49-.68,1.26-1.74c1.16-1.58,2.97-4.01,4.75-6.22.89-1.1,1.77-2.15,2.55-3.01.78-.86,1.48-1.53,1.94-1.85l.09-.06,1.11-1.74-.2-.31s-.78-1.2-1.58-2.45c-.4-.63-.8-1.27-1.12-1.78-.16-.26-.29-.48-.39-.65l-.11-.21-.03-.06h0s-.13.04-.13.04l.13-.04h0s-.13.04-.13.04l.13-.04h0c-.04-.12-.15-.27-.28-.33-.13-.07-.24-.08-.32-.08-.21,0-.31.06-.42.11-.21.1-.43.25-.72.45-.98.71-2.6,2.13-4.51,4.06-1.91,1.92-4.09,4.35-6.16,7.05l-.15.2.05.25s.34,1.78.92,3.71c.29.97.64,1.97,1.05,2.83.42.86.85,1.58,1.5,1.99l.45.27.3-.43-.46-.33.29-.48c-.28-.15-.7-.73-1.06-1.5-.55-1.16-1.03-2.74-1.36-4.02-.17-.64-.3-1.2-.38-1.61-.09-.4-.13-.64-.13-.64l-.56.11.45.34c2.48-3.24,5.14-6.08,7.25-8.11,1.06-1.01,1.98-1.82,2.66-2.37.34-.27.63-.48.83-.61.1-.07.18-.11.23-.13h.03s0-.03,0-.03v.02h0v-.02s0,.02,0,.02l-.09-.34v.35h.09s-.09-.35-.09-.35v.35-.49l-.24.43c.11.06.2.07.24.07v-.49l-.24.43.26-.45-.5.17c.03.1.13.23.24.29l.26-.45-.5.17c.03.09.06.14.1.22.14.27.4.7.73,1.23.98,1.59,2.52,3.96,2.52,3.96l.48-.31-.48-.31-.86,1.34.48.3-.32-.46c-.8.56-1.81,1.63-2.96,2.96-3.42,3.96-7.81,10.12-7.81,10.13l.46.33.29-.48-.29.48Z"/>
    </g>
    <g class="cls-116">
      <rect class="cls-6" x="77.33" y="53.32" width="5.62" height="5.61" transform="translate(-16.36 72.24) rotate(-44.48)"/>
    </g>
    <g class="cls-37">
      <path class="cls-34" d="M69.22,69.9l.48.3s.32-.53.85-1.36c.8-1.26,2.06-3.21,3.4-5.1,1.33-1.89,2.75-3.74,3.8-4.75l-.39-.41.37.43,5.34-4.69-6.09-5.93-.4.38s-2.42,2.34-5.13,5.12c-1.36,1.39-2.78,2.89-4.03,4.26-1.24,1.37-2.29,2.61-2.91,3.52-.42.61-.6,1.28-.6,1.93,0,.92.34,1.79.82,2.58,1.43,2.36,4.12,4.16,4.15,4.19l.49.34.31-.51-.48-.3.32-.47-.05-.03c-.24-.17-1.39-1-2.45-2.11-.53-.56-1.04-1.18-1.4-1.82-.37-.64-.58-1.28-.58-1.87,0-.45.12-.87.41-1.3.55-.82,1.58-2.04,2.81-3.4,1.84-2.03,4.12-4.37,5.93-6.19.91-.91,1.7-1.7,2.26-2.25.57-.56.9-.88.9-.88l-.39-.41-.4.41,4.82,4.69-4.43,3.89h0c-1.55,1.5-3.58,4.34-5.26,6.83-1.67,2.49-2.98,4.62-2.98,4.62l.48.3.32-.47-.32.47Z"/>
    </g>
    <g class="cls-114">
      <rect class="cls-99" x="65.84" y="63.23" width="22.74" height="28.46" transform="translate(-28.12 48.03) rotate(-29.48)"/>
    </g>
    <g class="cls-73">
      <path class="cls-34" d="M79.12,90.63l.47-.32s-.12-.18-.35-.52c-.78-1.18-2.76-4.27-4.69-7.92-1.93-3.65-3.82-7.89-4.44-11.31v-.06s-.24-.54-.24-.54l4.6-6.53-.46-.33-.54.16s1.1,3.76,2.75,8.14c.83,2.19,1.79,4.53,2.84,6.65,1.05,2.12,2.17,4,3.34,5.3l.42-.38-.51-.25-3.69,7.65.51.25.47-.32-.47.32.51.25,3.86-8-.26-.28c-1.05-1.15-2.14-2.97-3.16-5.04-1.53-3.1-2.92-6.76-3.91-9.64-.5-1.44-.9-2.68-1.18-3.57-.28-.88-.43-1.4-.43-1.4l-.33-1.13-5.65,8.01.46,1.06.52-.23-.56.1c.76,4.16,3.17,9.17,5.39,13.18,2.22,4.01,4.26,6.99,4.26,7l.55.81.43-.88-.51-.25Z"/>
    </g>
    <g class="cls-56">
      <rect class="cls-62" x="81.41" y="63.9" width="24.38" height="27.45" transform="translate(-26.08 56.12) rotate(-29.48)"/>
    </g>
    <g class="cls-130">
      <path class="cls-34" d="M96.37,89.16l.46-.33s-.11-.16-.32-.45c-1.42-2.05-7.31-10.74-9.87-17.48l-.53.2.42.38,4.55-5.03-.42-.38-.46.34s.48.65,1.24,1.72c2.29,3.2,7.13,10.2,9.11,14.53l.51-.24-.47-.32-4.7,6.73.46.32.46-.33-.46.33.46.33,4.88-6.99-.13-.29c-1.38-3.01-3.99-7.1-6.26-10.46-2.27-3.36-4.2-5.98-4.21-5.99l-.41-.56-5.24,5.8.12.32c3.03,7.93,10.31,18.16,10.32,18.18l.47.66.46-.66-.46-.33Z"/>
    </g>
    <g class="cls-44">
      <rect class="cls-138" x="91.35" y="64.9" width="22.66" height="25.55" transform="translate(-24.93 60.6) rotate(-29.48)"/>
    </g>
    <g class="cls-51">
      <path class="cls-34" d="M105.25,88.43l.46-.33s-.1-.15-.29-.42c-1.32-1.91-6.77-10.01-9.15-16.28l-.53.2.42.38,4.22-4.69-.42-.38-.46.34s.44.6,1.15,1.6c2.12,2.99,6.6,9.51,8.44,13.54l.51-.24-.46-.32-4.36,6.27.47.32.46-.33-.46.33.47.32,4.54-6.53-.13-.29c-1.28-2.81-3.7-6.62-5.81-9.76-2.11-3.14-3.89-5.58-3.9-5.58l-.41-.56-4.91,5.46.12.32c2.81,7.4,9.56,16.93,9.57,16.95l.47.66.46-.66-.47-.32Z"/>
    </g>
    <g class="cls-20">
      <rect class="cls-127" x="100.18" y="66.04" width="22.14" height="24.72" transform="translate(-24.18 64.91) rotate(-29.48)"/>
    </g>
    <g class="cls-146">
      <path class="cls-34" d="M113.4,88.7l.48-.29s-.35-.57-.92-1.53c-1.72-2.89-5.49-9.33-8.1-14.54l-.51.25.42.38,4.01-4.49-.42-.38-.46.32s.42.6,1.09,1.57c2.02,2.9,6.34,9.17,8.68,12.75l.47-.31-.45-.34-4.74,6.27.45.34.48-.29-.48.29.45.34,4.98-6.59-.22-.33c-3.13-4.81-9.78-14.34-9.78-14.35l-.41-.59-4.74,5.31.17.35c3.51,7.02,9.06,16.15,9.07,16.15l.43.71.5-.66-.45-.34Z"/>
    </g>
    <g class="cls-135">
      <rect class="cls-85" x="109.48" y="66.59" width="20.71" height="22.44" transform="translate(-22.78 69.06) rotate(-29.48)"/>
    </g>
    <g class="cls-48">
      <path class="cls-34" d="M121.99,86.87l.42-.38s-.1-.11-.27-.31c-1.23-1.43-6.34-7.59-8.57-12.92l-.52.22.41.39,4.52-4.72-.41-.39-.46.32s5.96,8.54,9.06,12.32l.44-.36-.44-.35-4.61,5.83.44.35.42-.38-.42.38.44.35,4.9-6.19-.29-.35c-1.52-1.85-3.78-4.92-5.65-7.51-.93-1.3-1.78-2.48-2.38-3.34-.61-.86-.98-1.39-.98-1.39l-.4-.57-5.25,5.49.14.34c2.69,6.37,9.02,13.52,9.04,13.54l.45.51.42-.53-.44-.35Z"/>
    </g>
    <g class="cls-143">
      <rect class="cls-71" x="118.43" y="68.42" width="15.25" height="18.49" transform="translate(-21.9 72.1) rotate(-29.48)"/>
    </g>
    <g class="cls-38">
      <path class="cls-34" d="M130.88,86.9l.42-.38s-.09-.1-.27-.3c-1.22-1.39-6.29-7.37-8.5-12.53l-.52.22.41.4,4.48-4.58-.41-.4-.46.33s5.91,8.28,8.99,11.95l.43-.36-.44-.36-4.57,5.65.44.36.42-.38-.42.38.44.36,4.87-6.01-.3-.36c-1.51-1.79-3.75-4.77-5.6-7.29-.93-1.26-1.76-2.41-2.36-3.24-.6-.83-.97-1.35-.97-1.35l-.39-.55-5.21,5.33.15.35c2.67,6.18,8.95,13.11,8.97,13.14l.44.49.42-.52-.44-.36Z"/>
      <path class="cls-34" d="M139.95,87.12l.42-.38s-.09-.1-.26-.3c-1.17-1.36-6.05-7.21-8.17-12.26l-.52.22.41.39,4.31-4.48-.41-.39-.46.32s5.69,8.11,8.65,11.7l.44-.36-.44-.35-4.4,5.53.44.35.42-.38-.42.38.44.35,4.69-5.9-.29-.35c-1.45-1.75-3.61-4.66-5.39-7.13-.89-1.23-1.7-2.36-2.27-3.17-.58-.82-.93-1.32-.93-1.32l-.4-.56-5.05,5.25.15.34c2.57,6.05,8.61,12.84,8.63,12.87l.45.5.42-.53-.44-.35Z"/>
      <path class="cls-34" d="M148.06,87.26l.42-.38s-.09-.1-.26-.3c-1.17-1.36-6.05-7.21-8.18-12.26l-.52.22.41.39,4.31-4.48-.41-.39-.46.33s5.69,8.11,8.66,11.7l.44-.36-.44-.35-4.4,5.53.44.35.42-.38-.42.38.44.35,4.69-5.89-.29-.35c-1.45-1.75-3.61-4.66-5.39-7.13-.89-1.23-1.7-2.36-2.28-3.17-.58-.82-.93-1.32-.93-1.32l-.4-.56-5.05,5.25.15.34c2.57,6.05,8.62,12.84,8.63,12.87l.45.5.42-.53-.44-.35Z"/>
      <path class="cls-34" d="M156.51,87.26l.42-.38s-.09-.1-.26-.3c-1.17-1.36-6.05-7.21-8.17-12.26l-.52.22.41.39,4.31-4.48-.41-.39-.46.33s5.69,8.11,8.65,11.69l.44-.36-.44-.35-4.4,5.53.44.35.42-.38-.42.38.44.35,4.69-5.9-.29-.35c-1.45-1.75-3.6-4.66-5.39-7.13-.89-1.23-1.7-2.36-2.27-3.17-.58-.82-.93-1.32-.93-1.32l-.4-.56-5.04,5.25.15.34c2.57,6.05,8.61,12.84,8.63,12.87l.45.5.42-.53-.44-.35Z"/>
    </g>
    <g class="cls-90">
      <rect class="cls-61" x="72.25" y="63.74" width="23.99" height="27.7" transform="translate(-27.28 51.51) rotate(-29.48)"/>
    </g>
    <g class="cls-141">
      <path class="cls-34" d="M87.58,89.53l.43-.37s-.13-.15-.38-.44c-.85-1.02-3.02-3.69-5.12-6.97-2.1-3.28-4.13-7.18-4.74-10.58l-.56.1.46.33,4.04-5.6-.46-.33-.43.36s.11.14.33.4c.74.91,2.63,3.29,4.59,6.22,1.96,2.92,3.99,6.39,5,9.42l.54-.18-.51-.25-3.69,7.65.51.25.43-.37-.43.37.51.25,3.79-7.86-.07-.22c-1.23-3.66-3.76-7.73-5.98-10.92-2.22-3.18-4.13-5.47-4.14-5.48l-.47-.56-4.61,6.39.04.24c.76,4.19,3.39,8.78,5.82,12.38,2.43,3.59,4.67,6.15,4.68,6.16l.56.65.37-.77-.51-.25Z"/>
    </g>
    <g class="cls-147">
      <g class="cls-41">
        <g class="cls-24">
          <rect class="cls-118" x="81.58" y="53.99" width=".76" height=".84" transform="translate(-6.53 97.38) rotate(-59.48)"/>
        </g>
      </g>
    </g>
    <g class="cls-109">
      <path class="cls-34" d="M77.24,49.32l-.39.42s.27.25.67.64c.61.59,1.52,1.49,2.27,2.34.37.42.71.83.93,1.16.11.17.2.31.25.42l.05.12v.02s.07-.01.07-.01h-.06,0s.06,0,.06,0h-.06.22l-.21-.03v.03s.21,0,.21,0l-.21-.03h0s-.01.12-.01.12c0,.09,0,.22.13.39.06.08.15.15.24.19.09.04.18.05.25.05.16,0,.24-.04.3-.07.12-.06.21-.12.31-.2.36-.28.89-.79,1.6-1.43,1.06-.96,2.5-2.19,4.13-3.22,1.63-1.03,3.44-1.85,5.22-2.02l2.32-.22-2.16-.87s-1.53-.62-3.44-1.23c-1.92-.61-4.2-1.24-5.86-1.24-.55,0-1.03.06-1.47.28h0c-1.12.57-2.53,1.55-3.68,2.39-1.15.84-2.02,1.55-2.03,1.55l-.51.41.48.45.39-.42.35.44s.21-.17.57-.45c1.07-.83,3.43-2.6,4.94-3.37h0c.16-.09.51-.16.95-.15,1.38,0,3.65.59,5.51,1.19.93.3,1.78.6,2.39.83.3.11.55.21.72.27.17.07.26.1.26.1l.21-.53-.05-.56c-3.01.3-5.81,2.1-7.96,3.79-1.07.85-1.98,1.67-2.64,2.28-.33.3-.6.55-.8.72-.1.08-.17.14-.21.17h-.02s0,.02,0,.02h0s0,0,0,0h0s.18.35.18.35v-.4c-.14,0-.17.03-.18.04l.18.36v-.4.52l.21-.48-.21-.04v.52l.21-.48-.21.49.48-.22c-.04-.1-.15-.22-.27-.27l-.21.49.48-.22-.44.2h.48s0-.1-.04-.2l-.44.2h.48-.34l.33.05v-.05s-.33,0-.33,0l.33.05h0s.01-.14.01-.14c0-.32-.12-.55-.26-.81-.25-.44-.63-.93-1.07-1.44-1.32-1.54-3.21-3.28-3.21-3.28l-.38.42.35.44-.35-.44Z"/>
      <path class="cls-34" d="M62.89,64.7l.48.3s.31-.49.82-1.27c.76-1.17,1.98-2.99,3.26-4.76,1.28-1.76,2.65-3.49,3.65-4.42l-.39-.41.37.43,5.17-4.4-5.9-5.58-.39.37s-2.32,2.19-4.93,4.78c-1.3,1.3-2.68,2.69-3.87,3.97-1.19,1.28-2.2,2.43-2.8,3.29-.4.58-.59,1.21-.59,1.83,0,.87.34,1.69.79,2.43,1.38,2.21,3.98,3.89,4,3.92l.48.32.31-.49-.48-.3.31-.47-.04-.03c-.23-.16-1.33-.93-2.35-1.97-.51-.52-.99-1.1-1.34-1.69-.35-.59-.56-1.18-.55-1.72,0-.41.11-.79.38-1.18.53-.76,1.52-1.9,2.7-3.16,1.77-1.89,3.96-4.07,5.7-5.77.87-.85,1.63-1.58,2.18-2.1.54-.52.87-.82.87-.82l-.39-.41-.39.41,4.6,4.35-4.22,3.59h0c-1.49,1.4-3.44,4.05-5.06,6.37-1.61,2.32-2.86,4.3-2.86,4.31l.48.3.31-.47-.31.47Z"/>
      <path class="cls-34" d="M68.36,47.15l-.39.42s.27.25.67.64c.61.59,1.52,1.5,2.27,2.34.37.42.71.83.93,1.16.11.17.2.31.25.42l.05.12v.02s.07-.01.07-.01h-.07s.07,0,.07,0h-.07.22l-.22-.03v.03s.22,0,.22,0l-.22-.03h0s0,.12,0,.12c0,.09,0,.23.13.39.06.08.15.15.24.19.09.04.18.05.24.05.16,0,.24-.04.3-.07.13-.06.21-.12.31-.2.36-.28.89-.79,1.6-1.43,1.06-.96,2.5-2.19,4.13-3.22,1.63-1.03,3.44-1.85,5.22-2.02l2.31-.22-2.16-.87s-1.53-.62-3.44-1.23c-1.92-.61-4.2-1.24-5.85-1.24-.54,0-1.04.06-1.46.28-1.12.57-2.53,1.55-3.68,2.39-1.15.84-2.02,1.55-2.03,1.55l-.51.41.48.45.39-.42.35.44s.21-.17.57-.45c1.07-.83,3.43-2.61,4.94-3.37.16-.09.51-.16.95-.15,1.38,0,3.65.59,5.51,1.19.93.3,1.78.6,2.39.83.3.11.55.21.72.27.17.07.26.1.26.1l.21-.53-.05-.56c-3,.3-5.81,2.1-7.95,3.79-1.07.85-1.98,1.67-2.64,2.28-.33.3-.61.55-.8.72-.1.08-.17.14-.21.17h-.02s0,.02,0,.02h0s0,0,0,0h0s.18.35.18.35v-.39c-.14,0-.17.03-.18.04l.18.36v-.39.52l.21-.48-.21-.04v.52l.21-.48-.21.49.48-.22c-.04-.1-.15-.22-.27-.27l-.21.49.48-.22-.44.2h.48s0-.1-.05-.2l-.44.2h.48-.33l.33.05v-.05s-.33,0-.33,0l.33.05h0s.01-.14.01-.14c0-.32-.12-.55-.26-.81-.25-.44-.63-.93-1.07-1.44-1.32-1.54-3.2-3.28-3.21-3.28l-.38.42.35.44-.35-.44Z"/>
    </g>
    <g class="cls-115">
      <rect class="cls-39" x="86.07" y="50.78" width="6.84" height="7.8" transform="translate(-3.06 104.01) rotate(-59.48)"/>
    </g>
    <g class="cls-91">
      <path class="cls-34" d="M85.59,52.06l-.46.33,3.72,5.13.47-.44s.11-.11.32-.29c.73-.66,2.59-2.32,4.54-3.83.98-.75,1.98-1.47,2.86-1.99.87-.53,1.66-.85,2.04-.86l2.75-.18-2.59-.92s-1.04-.37-2.34-.78c-1.3-.41-2.84-.87-3.91-1.05-.1-.02-.21-.02-.31-.02-.72,0-1.47.32-2.28.74-2.39,1.27-5.16,3.72-5.18,3.73l-.39.34.3.42.46-.33.37.43s.07-.07.21-.18c.48-.41,1.71-1.43,3.04-2.35.66-.46,1.35-.89,1.97-1.19.61-.31,1.17-.48,1.48-.47h.13c.94.16,2.48.61,3.75,1.02.64.2,1.21.4,1.63.54.42.14.67.23.67.23l.19-.53-.04-.57c-.44.03-.9.18-1.39.4-1.71.78-3.93,2.48-5.79,4.01-1.85,1.52-3.28,2.86-3.29,2.87l.39.41.46-.33-3.34-4.62-.46.33.37.43-.37-.43Z"/>
    </g>
    <g class="cls-17">
      <rect class="cls-75" x="101.7" y="52.48" width="8.45" height="9.23" transform="translate(2.95 119.36) rotate(-59.48)"/>
    </g>
    <g class="cls-1">
      <path class="cls-34" d="M101.85,53.94l-.48.3,4.03,6.49.5-.59s.1-.12.28-.32c.63-.72,2.26-2.54,4-4.18.87-.82,1.77-1.6,2.57-2.16.4-.28.78-.51,1.1-.67.33-.16.6-.24.78-.25l4.21-.27-4.14-.85s-1.07-.22-2.43-.44c-1.37-.22-3.03-.44-4.29-.44h-.15c-.63.01-1.31.22-2,.49-2.06.83-4.29,2.41-4.31,2.42l-.44.31.28.46.48-.3.33.46s.06-.04.17-.11c.38-.26,1.38-.91,2.48-1.5.55-.29,1.13-.57,1.67-.77.53-.2,1.02-.32,1.36-.32h.13c1.13,0,2.78.21,4.12.43.67.11,1.27.21,1.7.29.43.08.69.13.69.13l.11-.55-.04-.57c-.46.03-.9.2-1.37.45-1.63.86-3.62,2.72-5.26,4.39-1.63,1.67-2.88,3.13-2.89,3.14l.43.37.48-.3-3.62-5.83-.48.3.33.46-.33-.46Z"/>
    </g>
    <g class="cls-104">
      <rect class="cls-46" x="111.06" y="53.8" width="8.27" height="8.9" transform="translate(6.52 127.91) rotate(-59.48)"/>
    </g>
    <g class="cls-107">
      <path class="cls-34" d="M110.98,54.34l-.5.27,3.89,7.33.54-.63s.11-.13.3-.35c.69-.79,2.47-2.77,4.36-4.53.95-.88,1.92-1.71,2.79-2.31.43-.3.84-.54,1.19-.69.35-.16.64-.23.82-.23h.13s.25-1.09.25-1.09c-2.96-.65-4.69-.87-6.16-.87-1.14,0-2.1.13-3.32.28-1.17.15-2.3.76-3.17,1.31-.87.56-1.47,1.08-1.49,1.1l-.34.29.21.4.5-.27.37.43.02-.02c.12-.1.71-.59,1.49-1.08.77-.49,1.74-.95,2.54-1.04,1.24-.15,2.14-.27,3.19-.27,1.35,0,2.99.2,5.91.85l.25-1.11c-.13-.03-.25-.04-.38-.04-.49,0-.97.17-1.48.41-1.75.87-3.91,2.88-5.7,4.69-1.78,1.8-3.14,3.4-3.15,3.41l.43.37.5-.27-3.5-6.6-.5.27.37.43-.37-.43Z"/>
    </g>
    <g class="cls-16">
      <rect class="cls-32" x="120" y="54.8" width="7.89" height="8.61" transform="translate(10.09 135.87) rotate(-59.48)"/>
    </g>
    <g class="cls-13">
      <path class="cls-34" d="M119.95,55.81l-.49.29,3.81,6.47.52-.58s.1-.12.3-.33c.67-.73,2.39-2.57,4.22-4.23.91-.83,1.85-1.62,2.69-2.19.42-.29.81-.52,1.14-.68.34-.16.62-.24.79-.25l4.8-.31-4.74-.82s-1.32-.23-2.92-.46c-1.6-.23-3.47-.46-4.63-.46h-.24s0,0,0,0c-.65.02-1.29.25-1.92.55-1.88.9-3.68,2.55-3.7,2.56l-.34.31.24.4.49-.29.38.42s.04-.04.13-.12c.31-.27,1.12-.95,2.06-1.56.47-.31.97-.59,1.44-.8.47-.21.92-.33,1.27-.34h.21c1.03,0,2.9.22,4.47.45.79.11,1.51.22,2.04.31.52.08.85.14.85.14l.1-.56-.04-.57c-.46.03-.91.2-1.39.45-1.66.86-3.75,2.74-5.47,4.43-1.72,1.68-3.05,3.17-3.05,3.17l.42.38.49-.29-3.42-5.8-.49.29.38.42-.38-.42Z"/>
    </g>
    <g class="cls-121">
      <rect class="cls-129" x="128.95" y="55.45" width="8.11" height="9.18" transform="translate(13.75 144.13) rotate(-59.48)"/>
    </g>
    <g class="cls-36">
      <path class="cls-34" d="M128.56,56.81l-.48.31,3.94,6.18.5-.43s.13-.11.37-.32c.83-.71,2.93-2.48,5.11-4.08,1.09-.8,2.19-1.56,3.15-2.12.48-.28.92-.51,1.3-.67.38-.16.69-.24.87-.25l3.98-.26-3.9-.86s-1.42-.31-3.09-.63c-1.68-.32-3.59-.64-4.7-.65h-.1c-2.39,0-4.24.86-5.48,1.71-1.24.85-1.89,1.7-1.91,1.74l-.24.31.21.33.48-.31.45.34h0c.05-.06.65-.82,1.76-1.56,1.1-.73,2.69-1.44,4.74-1.44h.09c.93,0,2.86.32,4.5.63.83.16,1.59.31,2.15.43.56.12.91.19.91.19l.12-.55-.04-.57c-.45.03-.91.19-1.43.42-1.8.81-4.27,2.62-6.33,4.24-2.06,1.62-3.69,3.04-3.7,3.04l.37.43.48-.31-3.59-5.62-.48.3.45.34-.45-.34Z"/>
    </g>
    <g class="cls-142">
      <rect class="cls-12" x="138.23" y="55.46" width="5.83" height="8.2" transform="translate(18.17 150.92) rotate(-59.48)"/>
    </g>
    <g class="cls-110">
      <path class="cls-34" d="M136.91,59.28l-.46.33,3.71,5.12.47-.42s.14-.13.4-.35c.9-.79,3.19-2.78,5.53-4.58,1.17-.9,2.35-1.75,3.37-2.38.51-.31.98-.57,1.37-.75.39-.18.71-.27.88-.28l5.6-.36-5.56-.77s-3.89-.54-6.56-.54c-.58,0-1.1.02-1.54.09-.64.1-1.36.44-2.17.87-2.4,1.29-5.37,3.55-5.38,3.56l-.44.34.33.45.46-.33.34.45s.08-.06.23-.17c.51-.38,1.83-1.34,3.23-2.24.7-.45,1.42-.88,2.06-1.21.64-.33,1.21-.55,1.53-.6.34-.05.82-.08,1.37-.08,1.26,0,2.88.13,4.16.26.64.07,1.21.13,1.61.18.4.05.64.08.64.08l.08-.56-.04-.57c-.46.03-.94.21-1.48.47-1.87.9-4.52,2.93-6.75,4.74-2.23,1.81-4,3.41-4.01,3.41l.38.42.46-.33-3.34-4.61-.46.33.34.45-.34-.45Z"/>
    </g>
    <g class="cls-60">
      <rect class="cls-28" x="145.14" y="59.3" width=".36" height=".55" transform="translate(20.2 154.52) rotate(-59.48)"/>
    </g>
    <g class="cls-133">
      <path class="cls-34" d="M144.85,59.73l-.46.33,3.74,5.16.47-.48s.12-.13.35-.35c.8-.79,2.84-2.77,4.98-4.55,1.07-.89,2.16-1.72,3.12-2.32.48-.3.93-.54,1.31-.7.38-.16.7-.24.89-.23h.13s.23-1.1.23-1.1c-1.46-.3-2.41-.52-3.14-.66-.73-.14-1.26-.22-1.84-.22-.67,0-1.37.09-2.55.25h0c-.65.09-1.38.42-2.19.85-2.4,1.29-5.37,3.57-5.39,3.58l-.44.34.32.45.46-.33.34.45s.08-.06.23-.17c.51-.38,1.83-1.36,3.23-2.25.7-.45,1.42-.88,2.05-1.2.63-.33,1.21-.54,1.52-.58h0c1.18-.16,1.84-.24,2.4-.24.48,0,.92.06,1.62.19.7.14,1.66.36,3.13.66l.23-1.11c-.12-.02-.24-.04-.36-.04-.49,0-.99.17-1.53.41-1.86.86-4.3,2.87-6.33,4.68-2.02,1.81-3.6,3.41-3.6,3.41l.4.4.46-.33-3.34-4.61-.46.33.34.45-.34-.45Z"/>
    </g>
    <g class="cls-140">
      <rect class="cls-68" x="92.68" y="51.04" width="9.52" height="10.56" transform="translate(-.56 111.67) rotate(-59.48)"/>
    </g>
    <g class="cls-57">
      <path class="cls-34" d="M93.04,53.7l-.49.29,3.74,6.17.51-.5s.13-.12.36-.34c.81-.77,2.86-2.7,4.99-4.45,1.06-.87,2.15-1.7,3.09-2.31.47-.3.9-.55,1.27-.72.37-.17.68-.26.85-.27l3.33-.22-3.21-.89s-1.11-.31-2.6-.62c-1.49-.31-3.34-.62-4.89-.62-.99,0-1.87.1-2.53.56h0c-.61.43-.97.72-1.24.95-.2.17-.33.31-.46.43-.19.18-.37.34-.79.65-.43.3-1.09.73-2.21,1.41l-.49.29.29.49.49-.29.29.49c2-1.21,2.62-1.67,3.05-2.07.21-.19.35-.34.57-.54.22-.2.55-.46,1.14-.87h0c.26-.2.98-.36,1.88-.35,1.4,0,3.22.3,4.66.6.72.15,1.36.3,1.81.41.45.11.72.19.72.19l.15-.55-.04-.57c-.46.03-.92.21-1.44.46-1.78.89-4.2,2.86-6.22,4.63-2.02,1.76-3.61,3.32-3.61,3.32l.4.4.49-.29-3.37-5.56-.48.29.29.49-.29-.49Z"/>
    </g>
    <g class="cls-80">
      <rect class="cls-120" x="125.37" y="59.05" width="28.11" height="44.21"/>
    </g>
    <g class="cls-78">
      <rect class="cls-15" x="124.21" y="44.39" width="74.19" height="74.19" transform="translate(-10.37 137.92) rotate(-45)"/>
    </g>
    <g class="cls-94">
      <rect class="cls-52" x="176.3" y="62.73" width="26.74" height="38.4"/>
    </g>
    <g class="cls-64">
      <rect class="cls-125" x="188.54" y="76.12" width="54.06" height="14.05"/>
    </g>
    <g class="cls-54">
      <rect class="cls-69" x="225.49" y="76.12" width="17.12" height="14.05"/>
    </g>
  </g>
</svg>