<?xml version="1.0" encoding="UTF-8"?>
<svg id="Layer_2" xmlns="http://www.w3.org/2000/svg" version="1.1" viewBox="0 0 449.7 165.4">
  <!-- Generator: Adobe Illustrator 29.1.0, SVG Export Plug-In . SVG Version: 2.1.0 Build 142)  -->
  <defs>
    <style>
      .st0 {
        fill: #c8c6e0;
      }

      .st1 {
        stroke-width: 1px;
      }

      .st1, .st2, .st3 {
        fill: none;
        stroke: #231f20;
        stroke-miterlimit: 10;
      }

      .st4 {
        font-family: BookmanOldStyle, 'Bookman Old Style';
        font-size: 12px;
        isolation: isolate;
      }

      .st4, .st5 {
        fill: #231f20;
      }

      .st2 {
        stroke-width: 1px;
      }

      .st6 {
        fill: #a7a9ac;
      }

      .st7 {
        fill: #fff9ae;
      }

      .st8 {
        fill: #47c8f5;
      }

      .st9 {
        fill: #b9d989;
      }
    </style>
  </defs>
  <rect class="st8" x="313.7" y=".5" width="54.3" height="14.7"/>
  <rect class="st3" x="313.7" y=".5" width="54.3" height="14.7"/>
  <rect class="st8" x="390.5" y="69.5" width="58.7" height="14.7"/>
  <rect class="st2" x="390.5" y="69.5" width="58.7" height="14.7"/>
  <rect class="st9" x=".5" y="65.5" width="54.3" height="14.7"/>
  <rect class="st3" x=".5" y="65.5" width="54.3" height="14.7"/>
  <rect class="st6" x="61.8" y="28.8" width="317.3" height="86"/>
  <rect class="st3" x="61.8" y="28.8" width="317.3" height="86"/>
  <rect class="st7" x="62.2" y="54.8" width="317.3" height="38"/>
  <rect class="st3" x="62.2" y="54.8" width="317.3" height="38"/>
  <line class="st1" x1="71.2" y1="54.9" x2="98.9" y2="88.4"/>
  <polygon class="st5" points="95.7 89.8 102 92.1 100.8 85.5 95.7 89.8"/>
  <line class="st1" x1="101.6" y1="92.1" x2="129.4" y2="58.6"/>
  <polygon class="st5" points="131.3 61.5 132.4 54.9 126.2 57.2 131.3 61.5"/>
  <line class="st1" x1="56.5" y1="72.2" x2="67.7" y2="58.6"/>
  <polygon class="st5" points="69.7 61.5 70.8 54.9 64.5 57.2 69.7 61.5"/>
  <line class="st1" x1="130.9" y1="54.9" x2="158.6" y2="88.4"/>
  <polygon class="st5" points="155.4 89.8 161.6 92.1 160.5 85.5 155.4 89.8"/>
  <line class="st1" x1="161.3" y1="92.1" x2="189.1" y2="58.6"/>
  <polygon class="st5" points="191 61.5 192.1 54.9 185.9 57.2 191 61.5"/>
  <line class="st1" x1="190.5" y1="54.9" x2="218.3" y2="88.4"/>
  <polygon class="st5" points="215.1 89.8 221.3 92.1 220.2 85.5 215.1 89.8"/>
  <line class="st1" x1="221" y1="92.1" x2="248.7" y2="58.6"/>
  <polygon class="st5" points="250.7 61.5 251.8 54.9 245.5 57.2 250.7 61.5"/>
  <line class="st1" x1="250.2" y1="54.9" x2="277.9" y2="88.4"/>
  <polygon class="st5" points="274.7 89.8 281 92.1 279.9 85.5 274.7 89.8"/>
  <line class="st1" x1="280.7" y1="92.1" x2="308.4" y2="58.6"/>
  <polygon class="st5" points="310.4 61.5 311.5 54.9 305.2 57.2 310.4 61.5"/>
  <line class="st1" x1="309.9" y1="54.9" x2="337.6" y2="88.4"/>
  <polygon class="st5" points="334.4 89.8 340.7 92.1 339.6 85.5 334.4 89.8"/>
  <line class="st1" x1="370.6" y1="54.9" x2="384.4" y2="71.5"/>
  <polygon class="st5" points="381.2 72.9 387.5 75.2 386.4 68.6 381.2 72.9"/>
  <line class="st1" x1="340.4" y1="92.1" x2="368.1" y2="58.6"/>
  <polygon class="st5" points="370 61.5 371.2 54.9 364.9 57.2 370 61.5"/>
  <line class="st1" x1="339.8" y1="15.2" x2="339.8" y2="62.5"/>
  <polygon class="st5" points="337.4 60.6 339.8 61.7 342.3 60.6 339.8 66.5 337.4 60.6"/>
  <line class="st1" x1="126.2" y1="132.2" x2="126.2" y2="108.8"/>
  <polygon class="st5" points="128.6 110.7 126.2 109.7 123.7 110.7 126.2 104.8 128.6 110.7"/>
  <text class="st4" transform="translate(6.5 76.5)"><tspan x="0" y="0">Sender</tspan></text>
  <text class="st4" transform="translate(324.6 11.2)"><tspan x="0" y="0">Glass</tspan></text>
  <text class="st4" transform="translate(396.2 80.2)"><tspan x="0" y="0">Receiver</tspan></text>
  <rect class="st0" x="84.5" y="130.8" width="105.3" height="34"/>
  <rect class="st2" x="84.5" y="130.8" width="105.3" height="34"/>
  <text class="st4" transform="translate(91.5 145.2)"><tspan x="0" y="0">Cladding of less</tspan></text>
  <text class="st4" transform="translate(91.5 159.6)"><tspan x="0" y="0">dense material</tspan></text>
</svg>