<?xml version="1.0" encoding="UTF-8"?>
<svg id="Layer_2" data-name="Layer 2" xmlns="http://www.w3.org/2000/svg" viewBox="0 0 309.14 133.82">
  <defs>
    <style>
      .cls-1 {
        fill: #2a292a;
      }

      .cls-2 {
        fill: #2a2727;
      }

      .cls-3 {
        fill: #28afe3;
      }

      .cls-4 {
        fill: #231f20;
      }

      .cls-5 {
        fill: #aeada9;
      }

      .cls-6, .cls-7 {
        fill: #fff;
      }

      .cls-8 {
        fill: #c54b48;
      }

      .cls-9 {
        fill: #bd5950;
      }

      .cls-10 {
        fill: #0b94b3;
      }

      .cls-11 {
        fill: #babbb7;
      }

      .cls-12 {
        fill: #9b9896;
      }

      .cls-13 {
        fill: #05839c;
      }

      .cls-14 {
        fill: #5a646e;
      }

      .cls-15 {
        fill: #299dd6;
      }

      .cls-16 {
        fill: #595857;
      }

      .cls-17 {
        fill: #4f9fd4;
      }

      .cls-18 {
        fill: #979ba0;
      }

      .cls-19 {
        fill: #00877e;
      }

      .cls-20 {
        fill: #b8afad;
      }

      .cls-21 {
        fill: #3f3f3e;
      }

      .cls-22 {
        fill: #34bee9;
      }

      .cls-23 {
        fill: #474b48;
      }

      .cls-24 {
        fill: #8e8c8c;
      }

      .cls-25 {
        fill: #757a83;
      }

      .cls-26 {
        fill: #2d2b28;
      }

      .cls-27 {
        fill: #d27c3a;
      }

      .cls-28 {
        fill: #444544;
      }

      .cls-29 {
        fill: #464647;
      }

      .cls-30 {
        fill: #5075b6;
      }

      .cls-31 {
        fill: #868484;
      }

      .cls-32 {
        fill: #3e3d3d;
      }

      .cls-33 {
        fill: #181817;
      }

      .cls-34 {
        fill: #307dbe;
      }

      .cls-35 {
        fill: #110f0e;
      }

      .cls-36 {
        fill: #7e7b77;
      }

      .cls-37 {
        fill: #383532;
      }

      .cls-7 {
        font-family: BookmanOldStyle-Bold, 'Bookman Old Style';
        font-size: 7px;
        font-weight: 700;
      }

      .cls-38 {
        fill: #c88131;
      }

      .cls-39 {
        fill: #504e4d;
      }

      .cls-40 {
        fill: #4e4b4a;
      }
    </style>
  </defs>
  <g id="Layer_2-2" data-name="Layer 2">
    <polygon class="cls-6" points="260.35 92.73 264.84 74.47 282.34 78.29 276.92 97.95 260.35 92.73"/>
    <g>
      <path class="cls-13" d="M69.34,71.52c0-.11-1.28-1.06.72-1.42,5.46-.97,13.62.71,19.38,0v19.44h-9.09c-.42-.75-1.54-.3-2.27-.61s-4.19-2.13-5.17-2.69c-1.55-.88-2.35-2.45-4.05-2.87,0-1.89-.05-3.8,0-5.69.48,2.54,4.43,1.88,6.34,1.3,2.33-.7,2.38-3.06,6.35-2.26,1.43.29.93,1.19,1.45,1.88,1.34,1.77,2.13-.84,2.83-1.41.98-.79,2.46-.79,2.67-2.14.11-.68-.97-3.96-1.28-4.05-6.01.49-12.04-1.47-17.89.5Z"/>
      <path class="cls-28" d="M90.88,89.54h-1.44v-19.44c-5.76.71-13.92-.96-19.38,0-2.01.36-.72,1.31-.72,1.42,0,2.08-.42,4.01-.48,6.17-.05,1.89,0,3.8,0,5.69v6.17h-1.44l.05-22.24c5.44-.94,11.39-1.36,16.93-.99,1.42.09,5.73.41,6.23,1.42l.24,21.82Z"/>
      <path class="cls-38" d="M68.86,83.38c1.7.42,2.5,1.99,4.05,2.87.98.56,4.43,2.37,5.17,2.69s1.85-.14,2.27.61h-11.49v-6.17Z"/>
      <path class="cls-10" d="M69.34,71.52c5.86-1.98,11.89-.01,17.89-.5.3.08,1.38,3.37,1.28,4.05-.21,1.34-1.7,1.35-2.67,2.14-.71.57-1.49,3.18-2.83,1.41-.52-.69-.02-1.59-1.45-1.88-3.97-.81-4.03,1.56-6.35,2.26-1.91.58-5.86,1.24-6.34-1.3.06-2.15.48-4.08.48-6.17Z"/>
    </g>
    <g>
      <path class="cls-23" d="M68.86,89.28v5.22c0,4.26,0,8.55,0,12.81,4.94-.05,9.9.06,14.84,0,1.91-.02,3.84.02,5.75,0l-.48-16.13c.14-.64.33-1.26.48-1.9h1.44c-.64,3.37.93,20.61-.22,22.31-1.26,1.86-15,1.61-17.75,1.42-.84-.06-4.82-.48-5.02-1.29l-.47-22.44h1.44Z"/>
      <path class="cls-27" d="M89.44,89.28c-.15.63-.34,1.26-.48,1.9-.28,1.29-.55,2.54-.96,3.79-2.15-.81-3.16.37-5,.52-2.46.19-4.92-.76-7.68-.51-1.28.12-2.98.96-3.88.93-1.15-.03-.89-1.99-2.58-1.42v-5.22h20.58Z"/>
      <path class="cls-9" d="M68.86,94.5c1.7-.58,1.43,1.38,2.58,1.42.9.03,2.61-.82,3.88-.93,2.76-.26,5.22.7,7.68.51,1.84-.14,2.85-1.32,5-.52-1.33,4.13-3.36,8.06-4.31,12.33-4.94.06-9.9-.05-14.84,0,0-4.26,0-8.55,0-12.81Z"/>
      <path class="cls-19" d="M88.96,91.18l.48,16.13c-1.91.01-3.84-.03-5.75,0,.95-4.27,2.98-8.2,4.31-12.33.41-1.26.68-2.5.96-3.79Z"/>
    </g>
    <g>
      <path class="cls-11" d="M180.28,130.95l.89,1.37-5.21,1.5h-.96c-.94-.68-3.24-1.3-4.32-1.44.57-2.13-3.05-.22-3.36-.48-.07-.06.19-.92-.27-.97-.63-.06-2.17.79-3.31,0l-.25.97c-.96-.14-1.91-.33-2.88-.48.39-.75,1.27-1.2-.24-1.43-2.16-.32-4.33-.61-6.47-.97-.17-.26-1.02-.38-.96-.95,8.63.86,17.25,2,25.76,3.7l1.57-.83Z"/>
      <path class="cls-26" d="M189.4,101.73c1.42.09,1.81,1.79,3.35,1.44-.34-1.93,1.02-3.38,2.04-4.91.43-.65,1.23-1.37,1.8-.84.27.26-2.38,5.3-2.78,6.08-.82,1.61-3.46,3.68-2.01,5.89l-11.51,21.55-1.57.83c-8.51-1.7-17.13-2.84-25.76-3.7-.06.57.78.7.96.95.09.14-.06.68,0,.96-.82-.12-1.6-.36-2.4-.48-.02-.32.03-.64,0-.96s.03-.64,0-.96c-3.34-.31-6.7-.87-10.07-1.44-1.14-.19-2.23-.3-3.36-.48-.42-.06-1.08-.35-1.92-.48-1.83-.28-3.62-.25-5.27-.48-.16-.02-.32.02-.48,0-.97-3.97,3.11-1.77,2.88-4.79.86.17,3.35.45,3.84.96.16.16-.31.82.27.96,1.05.26,1.99.15,1.65-.96,4.83-.01,14.29,2.73,17.9,1.91.38-.09.4-.92.56-.96,1.89-.53.95,1.18,1.2,1.45.81.88,1.08-.94,1.19-.97,2.12-.61.6,1.35.72,1.44,1.17.92,1.37-.87,1.46-.92,1.12-.64.87.94,1.18.94.76.01,1.59-1.37,2.14-.97.1.07.11.98.47,1.22.78.51,1.69-.36,1.89-.18.15.14-.03.78.06.86.11.1,1.24-.9,2.61-.99,2.96-.19,5.02,2.7,7.38-.75.8-1.17.76-2.49,1.32-3.48,3.33-5.92,7.08-11.83,10.26-17.77Z"/>
      <path class="cls-37" d="M181.24,93.11c6.07.28,12.2.53,18.21,1.45.55.8-6.69,13.02-7.66,14.83-1.45-2.22,1.19-4.29,2.01-5.89.4-.78,3.05-5.82,2.78-6.08-.56-.53-1.37.19-1.8.84-1.02,1.53-2.38,2.98-2.04,4.91-1.54.35-1.94-1.35-3.35-1.44.67-1.24,1.64-2.38,1.44-3.83-1.42-.1-2.91.13-4.32,0,.57-1.52-2.91-1.25-3.84-.48-.63-.03-1.28,0-1.92,0-.16,0-.32,0-.48,0,.47-1.39-1.59-1.31-2.4-.48-.33-.1-.99.03-1.44,0-.48-.03-.97.04-1.44,0,.13-2.92,2.64-2.21,4.83-2.63.8-.15,1.68-.04,1.41-1.2Z"/>
      <path class="cls-37" d="M109.8,116.58c1.73-.76,2.35,1.36,2.7,1.42.55.09,1.99-.39,2.58-.46,2.04-.25,5.34,1.08,6.46.98.29-.03,0-1.31,1.44-.99.19.04.19,1.07,1.53,1.34,2.73.55,5.91.52,8.78,1.07.23,3.02-3.85.82-2.88,4.79-3.12-.42-6.26-1.7-9.59-1.44-.41-.64-.4-.37-.96-.48-3.61-.7-7.42-.81-11.03-1.44-.48-.08-.73-.41-.96-.48l-.48-1.92c.2-.33.87-.38.96-.48,1.77,2.49,4.14-.06.96-.96.2-.26.27-.7.48-.96Z"/>
      <path class="cls-40" d="M127.54,95.99c.91-.25,1.52.41.66,1-.8.55-2.29.3-2.1,2.35.66.71,3.26-3.53,2.87,0-4.38,5.2-8.14,11.09-12.81,16.18-.57.62-1.4.66-1.09,2.02-.59.07-2.02.55-2.58.46-.35-.06-.97-2.18-2.7-1.42,5.57-7.11,11.7-13.88,17.74-20.6Z"/>
      <path class="cls-12" d="M168.3,93.11c-.58.17-5,1.81-5.22,1.98-.18.15-.06.62-.06.89-4.96-.37-9.9-.65-14.86-.96l.96-1.91c-.45-.32-5.26.26-6.45.03-.58-.11.05-1.39-.53-1.5-1.95-.38-5.2.26-7.41.03-.27-1.45.73-.92,1.66-.96,7.57-.3,15.06.92,22.56,1.43,2.97.2,6.98-.83,9.35.96Z"/>
      <path class="cls-40" d="M181.24,93.11c.27,1.16-.6,1.05-1.41,1.2-2.19.42-4.69-.29-4.83,2.63-3.98-.35-8-.66-11.99-.96,0-.27-.12-.74.06-.89.22-.18,4.64-1.81,5.22-1.98,3.57-1.05,9.06-.18,12.95,0Z"/>
      <path class="cls-12" d="M109.8,123.29c-.21-1.57.55-.82,1.44-.73,2.37.26,4.74.84,7.1,1.07.92.09,1.76.69,1.53-.82.55.11.55-.16.96.48.11.18-.31.85.28.98,1.43.31,4.01.25,5.69.5,1.58.24,2.79.23,4.11.43,1.78.27,2.94.78,5.27.96s-.36.27,0,1.44c-8.47-1.36-18.12-2.41-26.37-4.31Z"/>
      <path class="cls-36" d="M134.73,91.67c2.21.23,5.46-.41,7.41-.03.58.11-.05,1.39.53,1.5,1.19.23,6-.35,6.45-.03l-.96,1.91c-4.06-.25-8.49-1.18-12.47-.96.3-1.78-2.02-.02-1.44-2.39.15.02.32-.02.48,0Z"/>
      <path class="cls-36" d="M131.85,91.67c1.37-.35.97,1.59,1.92,2.39-.28.11-2.14,2.81-2.63,3.36-.64.72-1.72,1.38-2.16,1.91.38-3.54-2.22.7-2.87,0-.2-2.05,1.3-1.8,2.1-2.35.86-.59.25-1.25-.66-1,1.84-2.05,2.12-2.59,4.32-4.31Z"/>
      <path class="cls-5" d="M119.87,122.81c.23,1.51-.61.91-1.53.82-2.36-.22-4.73-.81-7.1-1.07-.89-.1-1.65-.84-1.44.73-.73-.17-.81-.22-1.44-.48l.48-1.44c3.61.63,7.42.74,11.03,1.44Z"/>
      <path class="cls-12" d="M141.44,126.16c-.43,1.46,2.56,1.22,3.84,1.44-.17,1.42.19.78.96.96.46.11,1.2-.21,1.44.48-2.45-.37-5.03-.54-7.67-.96v-.66c.42-.53,1.14-.02.96-.77-1.34-.19-3.26.67-2.87-.96,1.13.17,2.21.29,3.36.48Z"/>
      <path class="cls-11" d="M141.44,126.16c3.37.57,6.73,1.13,10.07,1.44.03.31-.03.64,0,.96-.31-.04-.69.06-.96,0-1.09-.26-2.69-1.34-2.4.48-.16-.02-.32.02-.48,0-.23-.69-.98-.37-1.44-.48.16-1.37-.12-.81-.96-.96-1.28-.22-4.27.03-3.84-1.44Z"/>
      <path class="cls-5" d="M153.91,129.03c2.15.36,4.31.65,6.47.97,1.51.22.63.68.24,1.43-2.24-.35-4.52-1.11-6.71-1.44-.06-.28.09-.82,0-.96Z"/>
      <path class="cls-36" d="M138.09,125.68c-.38,1.64,1.53.77,2.87.96.18.75-.54.25-.97.77v.66c-1.24-.2-2.56-.28-3.82-.48-.36-1.16,2.29-1.27,0-1.44v-.96c.84.13,1.5.41,1.92.48Z"/>
      <path class="cls-12" d="M134.25,91.67c-.59,2.37,1.73.62,1.44,2.39-.53.03-1.6-.13-1.92,0-.95-.81-.55-2.74-1.92-2.39.06-.05-.19-.99.26-.99.77,0,1.49.89,2.14.99Z"/>
      <path class="cls-40" d="M109.32,117.54c3.18.9.81,3.45-.96.96.48-.57.91-.89.96-.96Z"/>
      <path class="cls-5" d="M163.5,131.91l.25-.97c1.14.79,2.68-.06,3.31,0,.46.04.21.91.27.97v.48c-1.27-.16-2.57-.29-3.84-.48Z"/>
      <path class="cls-5" d="M150.55,128.56v.96c-.91-.14-1.74-.38-2.4-.48-.3-1.82,1.31-.73,2.4-.48Z"/>
      <path class="cls-11" d="M107.88,120.89c.23.07.48.4.96.48l-.48,1.44c-.64-.27-1.25-.18-1.72-.98-.38-.65.27-.85.28-.93.3.05.71-.08.96,0Z"/>
      <path class="cls-12" d="M167.34,131.91c.31.26,3.92-1.66,3.36.48-1.06-.13-2.3.13-3.36,0v-.48Z"/>
      <path class="cls-40" d="M107.88,120.89c-.25-.08-.66.05-.96,0,.1-.71.09-1.26.48-1.92l.48,1.92Z"/>
      <path class="cls-40" d="M151.51,128.56c.03.31-.02.64,0,.96-.3-.05-.65.05-.96,0v-.96c.27.06.65-.04.96,0Z"/>
      <path class="cls-35" d="M135.69,94.07c3.98-.22,8.41.7,12.47.96,4.96.31,9.91.58,14.86.96,3.99.3,8,.61,11.99.96.47.04.96-.03,1.44,0,.06,1.69.29,1.31-1.17,1.44-2.05.17-4.03-.09-6.02-.47-.15.73.53.23.94.84.19.28-.08.96.01,1.07l-.96,1.43c.93-.14,2.23.23,3.06.03.57-.14.23-.91.3-.98,1.24-1.15,4.54-2.65,3.2.35-.05.12-.69.12-.79.46-.42,1.45.17,2.03,1.63,1.62.5-.14.22-1.64,1-1.94.15-.06.68,2.67,1.19-.96l-.95.49c-.28-.94.53-2.13.48-2.88h1.44c-.29,1.42,1.22,1.5.96,0,.64,0,1.29-.03,1.92,0,1.46.08,2.57.36,3.84.48,1.41.13,2.9-.1,4.32,0,.2,1.45-.77,2.58-1.44,3.83-3.19,5.94-6.93,11.84-10.26,17.77-.55.98-.52,2.31-1.32,3.48-2.36,3.45-4.42.55-7.38.75-1.37.09-2.5,1.09-2.61.99-.09-.08.09-.72-.06-.86-.2-.19-1.11.69-1.89.18-.37-.24-.37-1.15-.47-1.22-.55-.41-1.38.98-2.14.97-.31,0-.06-1.58-1.18-.94-.09.05-.29,1.84-1.46.92-.13-.1,1.39-2.06-.72-1.44-.12.03-.38,1.85-1.19.97-.25-.27.68-1.98-1.2-1.45-.16.04-.18.87-.56.96-3.6.82-13.07-1.92-17.9-1.91-.64,0-1.28,0-1.92,0-.49-.51-2.97-.79-3.84-.96-2.87-.55-6.05-.52-8.78-1.07-1.34-.27-1.34-1.3-1.53-1.34-1.45-.32-1.16.97-1.44.99-1.13.1-4.42-1.23-6.46-.98-.31-1.36.53-1.41,1.09-2.02,4.68-5.09,8.43-10.98,12.81-16.18.44-.53,1.52-1.19,2.16-1.91.49-.55,2.35-3.25,2.63-3.36.32-.13,1.39.03,1.92,0ZM141.44,96.94c.23-.38,1.01-1.55.71-1.92-.97.05-4.52.85-2.15,1.92-1.33.19-1.6.55-1.44,1.91,2.37.33,2.11-.61,2.87-1.91ZM145.76,97.42c-1.5-.29-1.89,1.27-2.54,1.78-.43.34-1.45-.26-1.29.6,2.76.36,3.4.85,3.83-2.39ZM151.51,97.9c-1.28-.08-2.99-.25-2.87,1.43,1.28.08,2.99.25,2.87-1.43ZM167.34,98.86c-.59.44-3.6-1.1-3.35,1.91.47-.03.97.06,1.44,0,.49-.06.68-.36.96-.48,1.81-.78.61-.95.96-1.44.06-.08,1.98.06.96-.96s-.88.9-.96.96ZM158.71,100.29c.82.34,3.35-.36,3.34-1.19-.01-1.32-3.77-.73-3.34,1.19ZM139.04,100.3c-.82-.33-3.35.35-3.34,1.19,0,1.35,3.87.38,3.34-1.19ZM140.49,104.61c.03-.48-.02-.96,0-1.44l1.91.48v-2.87c-.36-.48-3.13,2.74-2.39,3.83-2.97.42-2.36,2.14.2,1.45.54-.15.25-.93.28-1.45ZM147.81,102.85c.36-.47,1.48-.43,1.31-1.35-.38-2.06-4.62.76-3.83,2.62,3.16.47,1.93-.51,2.52-1.28ZM151.04,103.65c.35.34,3.32.23,2.87-1.67-.38-1.58-3.98.59-2.87,1.67ZM156.31,103.65c.79.66,3.64.19,3.35-1.19-.31-1.45-3.7-.63-3.35,1.19ZM170.7,103.18c-2.01-.46-2.6-.8-3.36,1.43,1.8,0,2.9.6,3.36-1.43ZM133.77,105.56c-1.01.21-1.31.26-2.4,0,.63,1.5,2.61.85,3.84.95.2-.12-.49-.79-.48-.95.01-.27.91-.53.97-.74.66-2.08-2.48-1.35-1.93.74ZM151.51,105.09c-3.41-.86-4.04,3.11-.96,1.67.57-.27,1.1-.98.96-1.67ZM156.79,105.57c-.18-.18-2.24.18-2.59.44-2.04,1.51,3.13,2.78,2.59-.44ZM168.77,106.53c-2.08.03-3.8-.74-3.83,1.91,1.62.14,3.75.19,3.83-1.91ZM133.29,108.43c.78-1.1-1.78-1.81-2.35-.9-1.23,1.92,2.02,1.37,2.35.9ZM138.09,107.48c-.27-.25-3.14.33-2.39,1.43.9.5,3.16-.71,2.39-1.43ZM174.05,107.48h-2.88c-.88,2.97,3.95.92,2.88,0ZM143.84,108.44l-3.35,1.43c1.51.29,2.62-.11,3.35-1.43ZM149.59,108.44c-2.32.37-3.32-.17-4.31,2.39l3.31-.07,1.01-2.32ZM161.58,108.44c-.95.26-3.41-.62-3.83.47.95-.26,3.41.62,3.83-.47ZM166.86,108.92h-2.87s0,.47,0,.47l2.87.48v-.95ZM152.32,109.47c-.52.14-.88.77-1.27,1.12,1.07,1.63,4.1.38,2.14-1.2-.29-.08-.58,0-.87.07ZM130.89,110.84c-3.37-1.64-4.87,3.58-1.17,1.46.25-.14,1.3-1.3,1.17-1.46ZM165.9,110.84c-.95-.26-2.18-.69-3.07-.03-1.83,1.36,3.19,3.78,3.07.03ZM172.13,110.84c-2-.09-3.29-.5-3.35,1.91,1.49.19,3.32-.05,3.35-1.91ZM139.89,111.48c-1.31-.76-2.05,1.06-2.28,2.22,2.02.16,2.94.25,3.82-1.68-1.75.56-1.3-.4-1.55-.55ZM146.72,112.75c-1.64.09-3.4-1.06-3.83,1.19,1.32,1.51,3.48.57,3.83-1.19ZM151.99,113.23c-2-.09-3.3-.5-3.35,1.91,1.87.25,2.79-.09,3.35-1.91ZM156.66,113.39c-1.97-.78-2.21.49-2.26,2.23,1.02.17,3.93.13,3.31-1.39-.03-.06-.98-.82-1.05-.84ZM159.67,116.1c-.4,2.23,2.17,2.02,1.92.48.27.01.81.06.96,0,.67-.28,1.04-1.74,1.44-2.39-1.9-.1-3.89-.42-4.32,1.91ZM169.25,115.15h-2.87s0,1.91,0,1.91c1.35.2,2.9-.32,2.87-1.91Z"/>
      <path class="cls-11" d="M130.42,124.72c.16.02.32-.02.48,0v.48c-1.32-.2-2.52-.18-4.11-.43-1.68-.26-4.26-.19-5.69-.5-.59-.13-.17-.8-.28-.98,3.33-.26,6.47,1.01,9.59,1.44Z"/>
      <path class="cls-5" d="M136.17,125.2v.96c-2.33-.17-3.49-.69-5.27-.96v-.48c1.66.23,3.44.2,5.27.48Z"/>
      <path class="cls-37" d="M139.05,120.89c.33,1.11-.61,1.23-1.65.96-.58-.15-.11-.8-.27-.96.64,0,1.28,0,1.92,0Z"/>
      <path class="cls-26" d="M177.89,96.94c.33.1.44-.03.48.48.06.74-.76,1.93-.48,2.88l.95-.49c-.51,3.63-1.04.9-1.19.96-.77.3-.5,1.8-1,1.94-1.46.41-2.05-.17-1.63-1.62.1-.33.73-.33.79-.46,1.35-3-1.95-1.5-3.2-.35-.45-.3-2.32-.38-2.4-.48-.09-.11.18-.8-.01-1.07-.41-.6-1.09-.11-.94-.84,1.99.39,3.97.64,6.02.47,1.46-.12,1.23.25,1.17-1.44.45.03,1.1-.1,1.44,0Z"/>
      <path class="cls-40" d="M182.68,97.42c.92-.77,4.41-1.04,3.84.48-1.27-.12-2.38-.4-3.84-.48Z"/>
      <path class="cls-40" d="M177.89,96.94c.81-.83,2.86-.91,2.4.48h-1.92c-.04-.5-.15-.38-.48-.48Z"/>
      <path class="cls-26" d="M180.76,97.42c.27,1.5-1.25,1.42-.96,0h.48c.16,0,.32,0,.48,0Z"/>
      <path class="cls-5" d="M145.28,127.6c.84.14,1.11-.41.96.96-.77-.18-1.13.46-.96-.96Z"/>
      <path class="cls-37" d="M147.81,102.85c-.59.76.64,1.75-2.52,1.28-.79-1.86,3.45-4.68,3.83-2.62.17.91-.95.88-1.31,1.35Z"/>
      <path class="cls-12" d="M156.66,113.39c.06.02,1.02.78,1.05.84.62,1.53-2.29,1.56-3.31,1.39.06-1.74.3-3.02,2.26-2.23Z"/>
      <path class="cls-5" d="M149.59,108.44l-1.01,2.32-3.31.07c.99-2.56,1.99-2.02,4.31-2.39Z"/>
      <path class="cls-11" d="M165.9,110.84c.12,3.76-4.9,1.33-3.07-.03.89-.67,2.12-.23,3.07.03Z"/>
      <path class="cls-36" d="M168.77,106.53c-.08,2.1-2.21,2.05-3.83,1.91.04-2.65,1.75-1.88,3.83-1.91Z"/>
      <path class="cls-8" d="M146.72,112.75c-.35,1.75-2.51,2.7-3.83,1.19.43-2.24,2.19-1.1,3.83-1.19Z"/>
      <path class="cls-36" d="M156.31,103.65c-.35-1.81,3.05-2.64,3.35-1.19s-2.56,1.84-3.35,1.19Z"/>
      <path class="cls-40" d="M139.89,111.48c.25.14-.2,1.11,1.55.55-.88,1.93-1.81,1.84-3.82,1.68.23-1.17.97-2.98,2.28-2.22Z"/>
      <path class="cls-40" d="M172.13,110.84c-.03,1.86-1.86,2.1-3.35,1.91.06-2.41,1.35-2,3.35-1.91Z"/>
      <path class="cls-36" d="M159.67,116.1c.42-2.33,2.42-2.01,4.32-1.91-.4.65-.77,2.11-1.44,2.39l-.97-1.91c-.69-.18-.55.84-.95,1.43-.25-.08-.66.05-.96,0Z"/>
      <path class="cls-5" d="M151.04,103.65c-1.11-1.08,2.49-3.25,2.87-1.67.45,1.9-2.52,2.01-2.87,1.67Z"/>
      <path class="cls-40" d="M145.76,97.42c-.43,3.24-1.07,2.74-3.83,2.39-.16-.86.86-.26,1.29-.6.65-.51,1.04-2.07,2.54-1.78Z"/>
      <path class="cls-5" d="M130.89,110.84c.13.16-.92,1.31-1.17,1.46-3.7,2.12-2.2-3.09,1.17-1.46Z"/>
      <path class="cls-36" d="M151.99,113.23c-.56,1.82-1.48,2.16-3.35,1.91.06-2.41,1.35-2,3.35-1.91Z"/>
      <path class="cls-37" d="M140.01,104.61c-.73-1.09,2.04-4.31,2.39-3.83v2.87s-1.91-.48-1.91-.48c-.03.47.02.96,0,1.44h-.48Z"/>
      <path class="cls-36" d="M156.79,105.57c.54,3.21-4.63,1.94-2.59.44.35-.26,2.42-.61,2.59-.44Z"/>
      <path class="cls-40" d="M167.34,98.86c-.35.48.85.65-.96,1.44-.98-.61-1.04-.8-.96.48-.47.06-.97-.03-1.44,0-.25-3.01,2.77-1.47,3.35-1.91Z"/>
      <path class="cls-36" d="M158.71,100.29c-.43-1.93,3.33-2.51,3.34-1.19,0,.84-2.52,1.53-3.34,1.19Z"/>
      <path class="cls-8" d="M140.01,96.94c.46-.06.97.04,1.44,0-.76,1.3-.5,2.24-2.87,1.91-.16-1.36.1-1.73,1.44-1.91Z"/>
      <path class="cls-40" d="M139.04,100.3c.52,1.58-3.34,2.55-3.34,1.19,0-.84,2.52-1.53,3.34-1.19Z"/>
      <path class="cls-40" d="M151.51,105.09c.14.69-.4,1.4-.96,1.67-3.08,1.45-2.45-2.52.96-1.67Z"/>
      <path class="cls-8" d="M170.7,103.18c-.46,2.02-1.55,1.43-3.36,1.43.75-2.22,1.35-1.88,3.36-1.43Z"/>
      <path class="cls-12" d="M169.25,115.15c.03,1.6-1.53,2.12-2.87,1.91v-1.91s2.87,0,2.87,0Z"/>
      <path class="cls-5" d="M152.32,109.47c.28-.08.57-.15.87-.07,1.96,1.58-1.07,2.82-2.14,1.2.39-.35.75-.98,1.27-1.12Z"/>
      <path class="cls-11" d="M172.61,100.3c-.07.07.27.84-.3.98-.83.2-2.13-.16-3.06-.03l.96-1.43c.08.09,1.95.18,2.4.48Z"/>
      <path class="cls-26" d="M140.01,96.94c-2.37-1.07,1.19-1.87,2.15-1.92.29.37-.49,1.54-.71,1.92-.47.04-.98-.06-1.44,0Z"/>
      <path class="cls-40" d="M174.05,107.48c1.07.92-3.76,2.97-2.88,0h2.88Z"/>
      <path class="cls-12" d="M151.51,97.9c.11,1.68-1.59,1.51-2.87,1.43-.11-1.68,1.59-1.51,2.87-1.43Z"/>
      <path class="cls-40" d="M133.29,108.43c-.34.47-3.58,1.02-2.35-.9.58-.9,3.14-.19,2.35.9Z"/>
      <path class="cls-11" d="M143.84,108.44c-.74,1.32-1.84,1.71-3.35,1.43l3.35-1.43Z"/>
      <path class="cls-12" d="M133.77,105.56c-.55-2.09,2.6-2.82,1.93-.74-.07.21-.96.47-.97.74-.31.04-.68-.06-.96,0Z"/>
      <path class="cls-26" d="M133.77,105.56c.28-.06.65.04.96,0,0,.16.68.83.48.95-1.22-.1-3.21.56-3.84-.95,1.09.26,1.39.21,2.4,0Z"/>
      <path class="cls-11" d="M140.49,104.61c-.03.51.25,1.3-.28,1.45-2.55.7-3.16-1.03-.2-1.45h.48Z"/>
      <path class="cls-40" d="M138.09,107.48c.77.72-1.49,1.93-2.39,1.43-.74-1.11,2.12-1.68,2.39-1.43Z"/>
      <path class="cls-12" d="M160.62,116.1c.4-.59.26-1.61.95-1.43l.97,1.91c-.15.06-.69.01-.96,0-.46-.02-.73-.41-.96-.48Z"/>
      <path class="cls-37" d="M160.62,116.1c.23.07.5.46.96.48.25,1.54-2.32,1.75-1.92-.48.3.05.71-.08.96,0Z"/>
      <polygon class="cls-37" points="166.86 108.92 166.86 109.87 163.98 109.39 163.98 108.92 166.86 108.92"/>
      <path class="cls-26" d="M161.58,108.44c-.42,1.09-2.88.2-3.83.47.42-1.09,2.88-.2,3.83-.47Z"/>
      <path class="cls-26" d="M167.34,98.86c.08-.06-.07-1.97.96-.96s-.9.88-.96.96Z"/>
      <path class="cls-26" d="M166.38,100.3c-.28.12-.47.42-.96.48-.08-1.28-.02-1.09.96-.48Z"/>
    </g>
    <g>
      <path class="cls-33" d="M256.53,101.18c-.29,1.35,1.81,1.52,2.86,1.91.83.31,2.47.45,3.34.96.63.37.58.62,2.39,1.43,3.61,1.64,7.24,3.4,10.75,5.26l.87-.95.08-.97c-1.61-.86-3.36-1.42-5.02-2.17-.39-.17-1.35-.11-.96-.92.27-.56,9.81-5.51,10.97-5.98,2.7-1.09,2.13.29,3.03.56,1.55.47,3.46.71,5.08.87v7.65c-1.19.35-.83,1.3-.96,2.15-.37,2.43-.16,7.77-1.71,9.28-3.24,1.09-11.33,8.72-13.91,9.07-.65.09-4.47-2.23-5.5-2.81-.32-.18-.31-.94-.64-.97-.95-.11-2.71,1.17-4,1.46-.44-1.78-2.61-3.85-4.46-3.36-.5.14-.27.94-.32.97-.12.07-1.17-.06-1.86.27-3.6,1.7-7.01,4.11-10.55,5.95h-.95l-14.32-12.91v-.96c.46.06,1.01-.08,1.43,0,.24.05.7.33.95.48,3.3,1.93,7.76,7.54,11.22,10.04.52.37.99.91,1.7.73l20.96-11.26c1.02-1.44-5.88-3.67-6.79-4.32-.54-.39-.29-.8-.37-.93-1.44-.32-1.55-.64-2.39-.96v-.95c1.99-.33,1.79.97,2.39,1.91,1.56.34,2.65.35,4.12,1.13,1.72.91,1.53,1.87,4.27,2.19.99.12.56,0,.68-.69.38-2.29-.59-1.44-2.1-2.19-5.57-2.8-15.45-9.05-20.8-10.73-1.64-.51-2.11.16-1.21,1.69.63,1.07,6.66,4.01,8.19,4.73.83.39,1.41-.49,1.12,1.49-1.01-.15-8.1,2.28-9.55,2.87-.45-.65-1.07-2.36-1.56-2.75-.29-.23-.73-.05-.82-.11-.8-.55-1.66-.35-1.91-1.67-.42-2.2-.24-10.65,0-13.15,5.53,1.69,10.62,5.49,16.23,6.69Z"/>
      <path class="cls-31" d="M280.88,94.96c-.57.51.03,1.24,0,1.43-.07.56-.89,1.81-.46,2.38.11.15.8-.09.93,0,.43.29.58.34.48.96-1.17.47-10.7,5.42-10.97,5.98-.4.82.57.75.96.92,1.66.74,3.41,1.31,5.02,2.17l-.08.97-.87.95c-3.51-1.85-7.14-3.61-10.75-5.26-.24-1.45.63-.97,1.55-.83,1.82.28,1.37,1.15,2.74,1.3.18-.19-1.03-3.6-.94-4.52.11-1.02,1.66-3.29,1.46-4.75-.08-.54-1.21.04-.99-.76l2.38-.48c.87.29,4.46,1.5,4.92,1.45.08,0,1.15-.98,1.17-1.06.11-.38-.37-.92-.37-1.34,1.2.15,2.67.24,3.82.48Z"/>
      <path class="cls-33" d="M253.67,88.75c.5.1,1.25.33,1.91.48.11.02.41.39.95.48.23.82.73.82,1.43.96.27.05.65,0,.95,0s.64,0,.95,0c-.04.31.04.65,0,.96-.37,3.07-1.84,6.2-.95,9.56-.15-.03-.32.03-.48,0s-.32.03-.48,0c.22-1.03-.54-1.05-1.18-1.42-4.75-2.79-10.31-4.34-15.05-7.18.2-.16.34-.2.48-.48l1.43-.48c2.16.12,2.77-.95,4.3-1.43,1.23-.39,3.25,0,4.3-1.43.46.05,1.02-.08,1.43,0Z"/>
      <path class="cls-16" d="M271.33,95.44l-2.38.48c-.21.8.92.22.99.76.2,1.46-1.35,3.74-1.46,4.75-.1.92,1.12,4.33.94,4.52-1.38-.15-.92-1.02-2.74-1.3-.92-.14-1.79-.62-1.55.83-1.8-.82-1.76-1.07-2.39-1.43,1.87.16.58-.91,0-1.91-1.69-2.91-.25-1.34,0-2.24.63-2.37-.54-3.42,2.87-4.7l-2.38-.72.95-1.43c2.27.79,4.81,1.6,7.16,2.39Z"/>
      <path class="cls-20" d="M277.06,94.48c.01-1.32.93-.86.91-1.17-.17-2.17.52-2.44.52-4.77,0-.29.8-.19.94-.62.36-1.12.48-4.59.58-4.82.06-.12,1.59-.73,1.59-2,.36,1.09,2.53.85,2.63.96.29.28-1.78,6.74-2.05,7.76-.16.61.17,1.25.1,1.48-.11.37-2.03,1.91-.91,3.66-.15-.03-.32.03-.48,0-1.15-.24-2.62-.33-3.82-.48Z"/>
      <path class="cls-21" d="M261.78,91.62c.37,0,1.28-.08,1.43,0,.08.04-.02,1.1.95,1.43l-.95,1.43,2.38.72c-3.41,1.28-2.23,2.33-2.87,4.7-.24.9-1.69-.68,0,2.24-1.4.32-2.72-.77-3.82-.96-.89-3.36.58-6.5.95-9.56.78.67,1.7,0,1.91,0Z"/>
      <path class="cls-31" d="M241.74,92.57c4.74,2.84,10.3,4.39,15.05,7.18.64.38,1.4.39,1.18,1.42-.43-.08-1.01.09-1.43,0-5.61-1.21-10.7-5-16.23-6.69.23-2.36.62-1.27,1.43-1.91Z"/>
      <path class="cls-20" d="M262.26,87.79c-.05-.37-.8-1.15-.48-1.92l-1.91.48c.12-.69,2.2-6.75,2.49-7.3.9-1.7,2.43-1.76,2.07.15-.51,2.69-1.35,5.96-2.18,8.59Z"/>
      <path class="cls-16" d="M242.21,109.31c.09.06.53-.12.82.11.49.39,1.11,2.11,1.56,2.75-1.75.71-3.96,2.6-6.55,3.24-.98.24-1.83.47-1.56-.84,1.15.29,1.77-.69,2.39-.96.58-.26,1.65-.87,1.91-.96.98-.35,3.79.5.96-1.75v-.64c.4-.27.53-.44.47-.96ZM243.41,112.18v.48c.31-.16.31-.32,0-.48Z"/>
      <path class="cls-31" d="M259.87,86.36l1.91-.48c-.32.77.43,1.54.48,1.92.13.88-.09,1.95,0,2.87-.15,0-.45.03-.48,0-.18-.18.38-1.5-1.91-.96.03-.31-.03-.64,0-.96.08-.76-.12-1.68,0-2.39Z"/>
      <path class="cls-31" d="M241.74,110.26v.64c2.84,2.24.02,1.4-.95,1.75l-.94-.23c.48-1.86.95-1.52,1.9-2.16Z"/>
      <path class="cls-16" d="M235.06,115.04l.95.72v.71s-2.86.96-2.86.96c-.25-.15-.72-.43-.95-.48.31-1.22,2.62-.98,2.86-1.91Z"/>
      <polygon class="cls-20" points="283.22 79.62 281.59 80.13 282.31 78.23 280.4 77.75 282.8 77.48 283.22 79.62"/>
      <rect class="cls-20" x="278.01" y="77.28" width="1.9" height=".47"/>
      <path class="cls-21" d="M254.15,109.31c.29-1.98-.29-1.11-1.12-1.49-1.53-.72-7.55-3.66-8.19-4.73-.91-1.53-.43-2.2,1.21-1.69,5.35,1.68,15.22,7.93,20.8,10.73,1.51.76,2.48-.1,2.1,2.19-.12.69.31.81-.68.69-2.74-.32-2.55-1.28-4.27-2.19-1.47-.78-2.57-.79-4.12-1.13-.6-.94-.39-2.24-2.38-1.91v.95c-.86-.33-2.88-1.36-3.34-1.43Z"/>
      <path class="cls-31" d="M263.22,127c-1.99.46-3.68-.69-4.77-2.39.04-.03-.19-.83.32-.97,1.85-.5,4.01,1.57,4.46,3.36Z"/>
      <path class="cls-31" d="M262.74,102.13c.58,1,1.87,2.08,0,1.91-.87-.51-2.51-.65-3.34-.96l-.95-1.91c.15.03.32-.03.48,0,1.1.19,2.42,1.28,3.82.96Z"/>
      <path class="cls-16" d="M257.97,101.18c.15.03.32-.03.48,0l.95,1.91c-1.06-.39-3.15-.57-2.86-1.91.42.09,1-.08,1.43,0Z"/>
      <path class="cls-16" d="M259.87,89.7c2.29-.54,1.73.77,1.91.96v.96c-.21,0-1.13.67-1.91,0,.04-.31-.04-.65,0-.96s-.03-.64,0-.96Z"/>
      <path class="cls-33" d="M243.41,112.18c.31.16.31.32,0,.48v-.48Z"/>
    </g>
    <g>
      <path class="cls-18" d="M72.02,57.16v2.87h-.96v-1.43c0-.46.08-1.04,0-1.43h.96Z"/>
      <path class="cls-2" d="M63.86,22.24h-.96v5.02l.48.24c-.09.19-.09,4.11,0,4.3l-.48.24v5.74l.48.24c-.05.14-.05.82,0,.96l-.48.24c.15.46-.15.66-.48.96v.72c-4.4.18-9.02-.01-13.44,0v-.96c2.07.04,4.17-.06,6.24,0,1.24.03,2.34-.25,3.36.48.07-.43-.12-1.13,0-1.43.01-.03.57.07.48-.48.16-.02.32.01.48,0,1.23-.37.91-1.21.96-2.15.22-4.11.16-9.03,0-13.15-.02-.39.01-.8,0-1.2l-.48-.24c.03-.79-.02-1.6,0-2.39l.48-.24v-1.91l-.48-.24c0-.32,0-.64,0-.96.55.08.42-.39.48-.48.07-.1.8-.16.48-1.2l-.48-.24v-2.87l.48-.24v-1.91l-.48-.24c-.03-1.99.57-4.08-1.2-5.26-3.28-.01-6.57.02-9.84,0-.35-.91-1.86-.36-2.64-.48-.18-.03-.3-.45-.48-.48-7.08-1.21-17.53-.52-25.21-.48-2.07.01-4.17-.02-6.24,0-1.51.02-3.04-.01-4.56,0l-.72.72v36.35l.72.72c5.68.03,11.37-.04,17.05,0,1.62.01,9.97-.28,10.56,0,.37.17.14.43,1.44.48.48.02.96-.01,1.44,0v.48h-.48c-2.71,0-5.45,0-8.16,0H11.04c-.43-.2-2.1.36-2.4-.72-.11-.4.1-1.01,0-1.43-.04-.19-.45-.3-.48-.48-1.13-7.72.85-18.06,0-26.07.83-.31.47-1.88.48-2.63.01-1.9-.1-3.84,0-5.74.06-1.05.22-1.66.48-2.63,17.04-.67,34.52.5,51.62,0l1.44-.48,1.68,1.2c-.09,6.77.11,13.56,0,20.33Z"/>
      <path class="cls-14" d="M15.37,53.81l.24.48.24-.48c1.11-.02,2.25.01,3.36,0v.48l.72.48.24-.48v-.48c.96,0,1.93,0,2.88,0v.48l1.2.48.24-.48v-.48c1.12,0,2.25,0,3.36,0l.24.48.24-.48c.8,0,1.61-.01,2.4,0-.08.55.39.42.48.48.02.02-.09.37.24.48.43.14,1.05-.25,1.44.48l-.24-.96.48-.48c.64.01,1.29-.02,1.92,0v.48l1.2.48.24-.48v-.48c2.67.19,3.97.12,6.72,0l.24.48.24-.48c1.11-.04,2.25.02,3.36,0v.48l1.2.48.24-.48v-.48c.48,0,.96,0,1.44,0l1.92,1.43-.96-.72,1.92-.72c.8,0,1.6,0,2.4,0l.24.48.24-.48c.32,0,.64,0,.96,0l.24.48h.48l.24-.48c.48,0,.96,0,1.44,0v.48l1.2.48.24-.48v-.48c1.43.02,2.89-.03,4.32,0v.96h.96l.48,1.91h-3.12l-.24.48h-.48c-.09-.22.09-.48-.48-.48-.56-.09-.45.47-.48.48-.13.04-.31-.02-.48,0l-.24-.48h-2.88l-.24.48v.48c-.48,0-.96,0-1.44,0,.05-.41-.11-.45-.48-.48l-.24-.48c-.88-.19-3.02.27-3.6,0-.05-.02.08-.67-.72-.48-.33.08-.22.47-.24.48-.58.27-2.72-.19-3.6,0l-.24.48.24.48h2.88l.24-.48h.48v.48c.31.82,1.89.47,2.64.48,4.8.03,9.6-.04,14.4,0,.75,0,2.33-.35,2.64.48-3.12-.29-5.75.81-8.88.48-6.3-.67-16.24-.32-23.29-.48-.27-1.44.74-.95,1.68-.96,1.76-.02,3.52.02,5.28,0l.24-.48c.04-.16-.05-.36,0-.48,1.15-.1,1.99.05,1.92-1.43-.85-.14-1.59.65-1.92,1.43-.16.01-.32,0-.48,0-7.89.3-16.18-.47-24.01,0-.16,0-.32,0-.48,0l-.24-.48h-1.2v-.96h-.96v.96l.96.48h-3.12l-.24.48c-.48-.04-.84-.51-.96-.96-.07-.26.03-.65,0-.96h-1.44v-1.43c.63-.04,1.29.02,1.92,0ZM20.89,54.77c-.31,0-.31.48,0,.48s.31-.48,0-.48ZM56.9,54.77c-.31,0-.31.48,0,.48s.31-.48,0-.48ZM23.05,55.24h-.96v.96h.96v-.96ZM31.69,55.24h-1.44v.96h1.44v-.96ZM43.69,55.24h-.96v.96h.96v-.96ZM57.14,56.2h-.96v.48h.96v-.48Z"/>
      <path class="cls-2" d="M31.69,58.59c2.23.02,4.49-.05,6.72,0,7.05.16,16.99-.19,23.29.48,3.14.33,5.76-.77,8.88-.48h.48v1.43c-21.81,0-44.02.52-65.78,0v-1.43c8.79,0,17.62-.08,26.41,0Z"/>
      <path class="cls-18" d="M5.76,54.29v.72c-.61.72-1.62,1.16-1.44,2.15.32,0,.64-.01.96,0,1.19.05,2.4-.03,3.6,0,.33-.08.19-.36.24-.48.31.02.65-.03.96,0,.03,0-.18.37.48.48.59.1,2.6.12,3.12,0,.32-.08.22-.46.24-.48.22-.16.68-.41.96-.48.12.45.48.92.96.96,1.1-.08,2.28.11,3.36,0,.43-.04.54-.43,1.44-.48.16,0,.32,0,.48,0,.31.82,1.89.47,2.64.48,2.64.02,5.29,0,7.92,0v1.43c-8.79-.08-17.62,0-26.41,0H1.92c-.06-.34-.03-.53-.48-.48.05-.38-.09-.88,0-1.2.17-.58,3.36-3.29,4.08-3.11.33.08.22.47.24.48Z"/>
      <path class="cls-2" d="M40.33,41.37c.15,1.77-.43,3.73.48,5.26v.96c-1.34.32-2.37-.76-3.6-.48-.19.04-.3.45-.48.48-2.4.35-4.4-.65-6.48,0v-.96c.89.11,1.39.02,1.92-.72v-4.54h8.16Z"/>
      <path class="cls-29" d="M30.25,46.64v.96c2.09-.65,4.08.35,6.48,0,.18-.03.29-.43.48-.48,1.23-.29,2.26.8,3.6.48v-.96c2.52-.31,4.57.51,6.96.48.55.76,1.95.19,2.16,1.43-.43.07-1.18-.12-1.44,0h-.72l-.24.48c-.29.05-.67-.05-.96,0-.31-.82-1.9-.48-2.64-.48-.88,0-1.76,0-2.64,0v.96c-.87.37-1.59-.48-1.68-.48h-8.64c-.16,0-.31-.46-.48-.48-1.33-.12-2.74.08-4.08,0v.96c-.97-.1-2.15-.28-3.12-.48-.19-.04-.34-.58-.72-.48.1-.47.42-.65.72-.96l2.88-.96h4.08Z"/>
      <path class="cls-14" d="M26.41,49.5v-.96c1.34.08,2.75-.12,4.08,0,.17.02.32.48.48.48h8.64c.09,0,.81.84,1.68.48v-.96c.88,0,1.76,0,2.64,0,.74,0,2.33-.34,2.64.48-1.41.26-3.47.89-4.8,1.43-.25.1-1.13.47-1.2.48-1.2.21-2.81-.15-4.08,0,.02-.01-.09-.4.24-.48l3.12-.48h-6.72c-.09.92,1.08.34,1.68.48.33.08.22.47.24.48-1.59-.04-3.21.06-4.8,0v-.96c-.88.36-1.52-.45-1.68-.48-.66-.11-1.47.07-2.16,0Z"/>
      <path class="cls-29" d="M71.06,57.16c.08.39,0,.97,0,1.43h-.48c-.31-.82-1.89-.47-2.64-.48-4.8-.04-9.6.03-14.4,0-.75,0-2.33.35-2.64-.48.32,0,.64,0,.96,0,1.43.04,2.89.01,4.32,0,.48,0,.96,0,1.44,0,1.04-.02,2.08.01,3.12,0l.24-.48c.17-.02.35.04.48,0l.48-.48c.57,0,.39.26.48.48.05.11-.09.36.24.48.24.02.48-.02.72,0,.71.06,1.44-.04,2.16,0,.32-.07.22-.46.24-.48.07-.05.56.07.48-.48l-.48-1.91h-.96v-.96c1.03.02,2.08-.01,3.12,0,.62.89,2.93,2.45,3.12,3.35Z"/>
      <path class="cls-29" d="M40.81,38.98c4.23,0,8.49-.05,12.72,0,.95.01,1.95-.49,1.68.96-2.07-.06-4.17.04-6.24,0v.96c-2.71,0-5.45,0-8.16,0v-1.91Z"/>
      <path class="cls-14" d="M11.04,54.29l.24.48h1.2v.96h.96v.96h-2.64l-.24.48c-.66-.11-.45-.48-.48-.48l-.72-.48c-.33.08-.19.36-.24.48-1.19-.08-2.41.06-3.6,0l-.24.48c-.32-.01-.64,0-.96,0-.18-.99.83-1.44,1.44-2.15v-.72c.85.4,1.59-.46,1.68-.48,1.57-.24,2.44.36,3.6.48Z"/>
      <path class="cls-14" d="M9.12,1.2c-.26.97-.43,1.58-.48,2.63-.1,1.9.01,3.84,0,5.74,0,.75.35,2.32-.48,2.63-.2.05-.43-.03-.48-.24-.23-.94-.19-8.44,0-9.57.03-.19.74-.43.48-1.2.32,0,.64.01.96,0Z"/>
      <path class="cls-2" d="M26.41,49.5c.69.07,1.5-.11,2.16,0,.16.03.8.84,1.68.48v.96c-1.88-.07-4.15-.21-6-.48-.15-.02-.84-.85-1.68-.48.05-.46-.09-1.01,0-1.43.38-.11.53.44.72.48.97.2,2.15.37,3.12.48Z"/>
      <path class="cls-2" d="M49.94,48.55c.25,1.51-1.02,1.22-1.68,1.43-.2.06-.3.44-.48.48-.83.17-1.86-.37-2.4.48l-3.6-.48c1.33-.54,3.39-1.18,4.8-1.43.29-.05.67.05.96,0,1.11-.21.9-.45.96-.48.26-.12,1.01.07,1.44,0Z"/>
      <path class="cls-29" d="M63.38,38.03l-.48-.24v-5.74l.48-.24c.84,1.77.68,4.44,0,6.22Z"/>
      <path class="cls-29" d="M63.86,22.24c-.03,2.04.29,3.63-.48,5.26l-.48-.24v-5.02h.96Z"/>
      <path class="cls-29" d="M5.28,58.59v1.43c-1.62-.04-2.04.14-3.36-.48-.03-.31.05-.67,0-.96h3.36Z"/>
      <path class="cls-29" d="M13.44,53.81v1.43h1.44c.03.31-.07.7,0,.96-.28.07-.74.32-.96.48h-.48v-.96h-.96v-.96h-1.2l-.24-.48c.14.01.36.03.48,0,.66-.19.45-.47.48-.48.27-.11.99.03,1.44,0Z"/>
      <path class="cls-25" d="M35.05,50.94s.09-.4-.24-.48c-.6-.14-1.77.45-1.68-.48h6.72l-3.12.48c-.33.08-.22.47-.24.48-.12.06-1.32.06-1.44,0Z"/>
      <path class="cls-18" d="M40.33,40.9v.48h-8.16v-.48c2.71,0,5.45,0,8.16,0Z"/>
      <path class="cls-25" d="M52.82,53.81l-1.92.72.96.72-1.92-1.43c.96,0,1.93,0,2.88,0Z"/>
      <path class="cls-2" d="M1.44,58.11c.45-.05.42.14.48.48.05.28-.03.64,0,.96-.26-.12-1.01.07-1.44,0v-1.43h.96Z"/>
      <path class="cls-29" d="M63.38,38.98s.4-.09.48.24l-.48,1.67c-.32,0-.64-.01-.96,0v-.72c.33-.29.63-.5.48-.96l.48-.24Z"/>
      <path class="cls-18" d="M14.4,40.9l-.24.48c-.87-.13-2.11.19-2.88,0-.33-.08-.22-.47-.24-.48h3.36Z"/>
      <path class="cls-18" d="M33.13,53.81l-.48.48h-1.44c-.09-.06-.56.07-.48-.48.8.01,1.61-.02,2.4,0Z"/>
      <path class="cls-18" d="M36.49,53.81v.48h-1.44v-.48c.48.02.97-.03,1.44,0Z"/>
      <path class="cls-25" d="M48.5,53.81v.48h-1.44v-.48c.48,0,.96,0,1.44,0Z"/>
      <path class="cls-25" d="M60.5,53.81v.48h-1.44v-.48c.48,0,.96,0,1.44,0Z"/>
      <path class="cls-18" d="M24.49,53.81v.48h-1.44v-.48c.48,0,.96,0,1.44,0Z"/>
      <path class="cls-25" d="M57.62,53.81l-.24.48h-.48l-.24-.48c.32,0,.64,0,.96,0Z"/>
      <path class="cls-18" d="M20.17,53.81v.48h-.96v-.48c.32,0,.64,0,.96,0Z"/>
      <path class="cls-18" d="M15.37,53.81c.16,0,.32,0,.48,0l-.24.48-.24-.48Z"/>
      <path class="cls-18" d="M11.52,54.29l.48-.48s.18.29-.48.48Z"/>
      <path class="cls-25" d="M43.21,53.81c.16,0,.32,0,.48,0l-.24.48-.24-.48Z"/>
      <path class="cls-18" d="M27.85,53.81c.16,0,.32,0,.48,0l-.24.48-.24-.48Z"/>
      <path class="cls-25" d="M55.22,53.81c.16,0,.32,0,.48,0l-.24.48-.24-.48Z"/>
      <path class="cls-22" d="M60.02,31.81c.05,1.98-.04,3.99,0,5.98l-.48.72c-.16.01-.32-.02-.48,0s-.32-.01-.48,0c-11.99-.08-24.02.11-36.01,0-2.66-.03-7.01.41-9.36,0-.18-.03-.28-.42-.48-.48-.23-.07-.49.04-.72,0v-7.65l4.56.96c5.29-.84,11.28-.21,16.81,0,8.38.31,16.19-.62,24.49-.48l2.16.96Z"/>
      <path class="cls-34" d="M16.81,3.59c10.87-.04,21.78-.06,32.65,0,3.27.02,6.56-.01,9.84,0,1.77,1.18,1.17,3.27,1.2,5.26.01.79,0,1.6,0,2.39v4.3c-.06.09.07.56-.48.48,0-1.11,0-2.24,0-3.35,0-1.43,0-2.88,0-4.3-.84.37-1.53-.46-1.68-.48-1.32-.19-3.87-.1-5.28,0-5.9.4-11.92-.2-18.25,0-6.89.22-13.76,1.18-20.65.48-.74-.08-.93-.62-1.44-.48-.49.4-.63.56-.72,1.2-.16,1.19.02,2.79,0,4.07-.01.95,0,1.92,0,2.87h-.48c-.06-4.14.04-8.3,0-12.44,1.76,0,3.53,0,5.28,0Z"/>
      <path class="cls-22" d="M60.02,16.98c0,.79.02,1.6,0,2.39s.03,1.6,0,2.39c-.01.32.02.64,0,.96-1.32-.23-2.73-.96-3.6-1.91-13.73-3.41-26.28,4.18-40.33,1.43-.89-.18-1.85-.3-2.88-.48-.19-.03-.43-.74-1.2-.48,0-1.11,0-2.24,0-3.35l2.64-.96c7.86,1.15,15.54-.6,23.53,0,4.55.34,9.49-.46,14.4,0,1.41.13,3.15,1.27,4.8-.48l2.64.48Z"/>
      <path class="cls-3" d="M60.02,12.68c0,1.11,0,2.24,0,3.35,0,.32,0,.64,0,.96l-2.64-.48c-1.66,1.75-3.39.61-4.8.48-4.92-.46-9.85.34-14.4,0-7.98-.6-15.67,1.15-23.53,0l-2.64.96c0-.63,0-1.28,0-1.91,0-.95-.01-1.92,0-2.87,1,.1,2.16-.14,3.12,0,.19.03.73.76,1.92.48,1.29-.3,6.57-1.16,7.68-.96,8.39,1.53,22.59.73,31.21,0,1.33-.11,2.74.08,4.08,0Z"/>
      <path class="cls-18" d="M14.88,2.15l.24.48c2,.01,4.01-.02,6,0,.56,0,1.12-.01,1.68,0,.59.01,1.79-.36,1.68.48-1.67,0-3.36-.01-5.04,0-.75,0-2.33-.35-2.64.48-1.76,0-3.53,0-5.28,0,.04,4.14-.06,8.3,0,12.44.01,1.01-.21,4.83,0,5.26-.27.97-.42,1.59-.48,2.63-.2,3.4-.07,7.32,0,10.76.02,1.03-.01,2.07,0,3.11l1.2,1.2c3.44.01,6.89-.02,10.32,0,1.59,0,3.21,0,4.8,0v.96c-5.67-.04-11.37.03-17.05,0l-.72-.72V2.87l.72-.72c1.52-.01,3.05.02,4.56,0Z"/>
      <path class="cls-14" d="M49.46,3.59c-10.87-.06-21.78-.04-32.65,0,.31-.82,1.89-.47,2.64-.48,1.68-.01,3.37,0,5.04,0,.11-.84-1.09-.46-1.68-.48s-1.13,0-1.68,0v-.48c7.68-.04,18.13-.74,25.21.48.18.03.3.45.48.48.78.12,2.29-.43,2.64.48Z"/>
      <path class="cls-14" d="M58.58,38.5v.48c-.12.3.07,1,0,1.43-1.02-.73-2.12-.44-3.36-.48.27-1.44-.73-.95-1.68-.96-4.24-.05-8.49,0-12.72,0-.48,0-.96,0-1.44,0s-.96,0-1.44,0c-3.51,0-7.05.02-10.56,0-1.59,0-3.21,0-4.8,0v-.48c11.99.11,24.02-.08,36.01,0Z"/>
      <path class="cls-25" d="M37.93,38.98v.96c-.59-.28-8.94.01-10.56,0v-.96c3.51.02,7.05,0,10.56,0Z"/>
      <path class="cls-29" d="M59.54,38.5l.48-.72c-.04-1.99.05-3.99,0-5.98s-.68-5.42-.48-6.7c.08-.54.41-.85.48-1.91h.48c.16,4.13.22,9.04,0,13.15-.05.94.27,1.79-.96,2.15Z"/>
      <path class="cls-25" d="M21.13,2.15v.48c-1.99-.02-4,.01-6,0l-.24-.48c2.07-.02,4.17.01,6.24,0Z"/>
      <path class="cls-29" d="M39.37,38.98v1.43c-1.3-.05-1.07-.31-1.44-.48v-.96c.48,0,.96,0,1.44,0Z"/>
      <path class="cls-25" d="M40.81,38.98v1.43c-.48-.01-.97.02-1.44,0v-1.43c.48,0,.96,0,1.44,0Z"/>
      <path class="cls-29" d="M60.5,11.24c0-.79.01-1.6,0-2.39l.48.24v1.91l-.48.24Z"/>
      <path class="cls-34" d="M60.02,19.37c.02-.79,0-1.6,0-2.39l.48.24v1.91l-.48.24Z"/>
      <path class="cls-29" d="M60.5,15.55v-1.43l.48.24c.32,1.04-.41,1.1-.48,1.2Z"/>
      <path class="cls-34" d="M60.5,23.2h-.48c.01-.16-.01-.32,0-.48.02-.31-.01-.64,0-.96l.48.24c.01.4-.02.8,0,1.2Z"/>
      <path class="cls-29" d="M58.58,38.98v-.48c.16-.01.32.02.48,0,.09.55-.47.45-.48.48Z"/>
      <path class="cls-2" d="M45.14,56.68v.48c-4.47,0-8.97,0-13.44,0-2.63,0-5.28.02-7.92,0-.75,0-2.33.35-2.64-.48,7.83-.47,16.12.3,24.01,0Z"/>
      <path class="cls-25" d="M55.7,57.16c.37.03.53.07.48.48-1.43.01-2.89.04-4.32,0v-.48c1.27.07,2.58-.1,3.84,0Z"/>
      <path class="cls-29" d="M45.62,56.68c.34-.78,1.07-1.58,1.92-1.43.07,1.48-.77,1.34-1.92,1.43Z"/>
      <path class="cls-29" d="M45.62,57.16h-.48v-.48c.16,0,.32.01.48,0-.05.12.04.32,0,.48Z"/>
      <path class="cls-2" d="M50.9,56.68v.48h-3.84l.24-.48c.88-.19,3.02.27,3.6,0Z"/>
      <path class="cls-29" d="M55.7,57.16c-1.26-.1-2.57.07-3.84,0v-.48c.58.27,2.72-.19,3.6,0l.24.48Z"/>
      <path class="cls-2" d="M19.21,56.68v.48c-1.08.11-2.26-.08-3.36,0l.24-.48h3.12Z"/>
      <path class="cls-2" d="M60.98,57.16c-1.07.12-2.27-.08-3.36,0l.24-.48h2.88l.24.48Z"/>
      <path class="cls-2" d="M66.26,56.68c.08.55-.41.42-.48.48h-2.88l.24-.48h3.12Z"/>
      <path class="cls-25" d="M60.98,57.16l-.24.48c-1.04.01-2.09-.02-3.12,0v-.48c1.09-.08,2.29.12,3.36,0Z"/>
      <rect class="cls-29" x="30.25" y="55.24" width="1.44" height=".96"/>
      <path class="cls-18" d="M51.86,56.68v.96c-.32,0-.64,0-.96,0v-.96s-.09-.4.24-.48c.8-.2.67.46.72.48Z"/>
      <path class="cls-29" d="M19.21,56.68l-.96-.48v-.96h.96v.96h1.2l.24.48c-.9.05-1.01.43-1.44.48v-.48Z"/>
      <rect class="cls-29" x="22.09" y="55.24" width=".96" height=".96"/>
      <rect class="cls-29" x="42.73" y="55.24" width=".96" height=".96"/>
      <polygon class="cls-29" points="24.49 54.29 24.25 54.77 23.05 54.29 24.49 54.29"/>
      <path class="cls-29" d="M32.65,54.29l.24.96c-.39-.73-1.01-.34-1.44-.48-.33-.11-.22-.46-.24-.48h1.44Z"/>
      <polygon class="cls-29" points="36.49 54.29 36.25 54.77 35.05 54.29 36.49 54.29"/>
      <polygon class="cls-29" points="48.5 54.29 48.26 54.77 47.06 54.29 48.5 54.29"/>
      <polygon class="cls-29" points="60.5 54.29 60.26 54.77 59.06 54.29 60.5 54.29"/>
      <rect class="cls-2" x="56.18" y="56.2" width=".96" height=".48"/>
      <polygon class="cls-29" points="20.17 54.29 19.93 54.77 19.21 54.29 20.17 54.29"/>
      <path class="cls-25" d="M63.38,57.16v.48c-.24-.02-.48.02-.72,0-.33-.12-.19-.37-.24-.48h.96Z"/>
      <path class="cls-29" d="M56.9,54.77c.31,0,.31.48,0,.48s-.31-.48,0-.48Z"/>
      <path class="cls-29" d="M20.89,54.77c.31,0,.31.48,0,.48s-.31-.48,0-.48Z"/>
      <path class="cls-25" d="M61.46,57.16s-.08-.56.48-.48l-.48.48Z"/>
      <path class="cls-25" d="M45.14,57.16h.48l-.24.48c-1.76.02-3.52-.02-5.28,0-.94.01-1.95-.49-1.68.96-2.23-.05-4.49.02-6.72,0v-1.43c4.47,0,8.97,0,13.44,0Z"/>
      <path class="cls-2" d="M9.12,56.68c-.05.12.09.4-.24.48-1.2-.03-2.41.05-3.6,0l.24-.48c1.19.06,2.42-.08,3.6,0Z"/>
      <path class="cls-2" d="M13.44,56.68h.48s.08.4-.24.48c-.52.12-2.53.1-3.12,0l.24-.48h2.64Z"/>
      <path class="cls-29" d="M10.08,56.68c-.31-.03-.65.02-.96,0,.05-.12-.09-.4.24-.48l.72.48Z"/>
      <path class="cls-14" d="M48.5,48.55c-.06.03.15.27-.96.48l.24-.48h.72Z"/>
      <path class="cls-14" d="M65.78,57.16s.08.4-.24.48c-.72-.04-1.45.06-2.16,0v-.48h2.4Z"/>
      <path class="cls-3" d="M59.54,25.11c-.2,1.28.43,4.76.48,6.7l-2.16-.96c-8.3-.14-16.1.79-24.49.48-5.53-.21-11.52-.84-16.81,0l-4.56-.96c0-1.43.02-2.88,0-4.3,1.22.5,1.76-.85,2.16-.96,1.46-.39,4,.09,5.28.48.94.28,1.31-.45,1.44-.48,6.06-1.08,15.49.62,22.09,0,3.43-.32,8.91-.42,12.48.48.42.11.64.65,1.92.48,1.04-.14,1.1-1.12,2.16-.96Z"/>
      <path class="cls-34" d="M12,26.07c.02,1.43,0,2.88,0,4.3v7.65c-.2-.03-.41.05-.48-.24v-2.87l-.48-.24c-.07-3.44-.2-7.36,0-10.76.06-1.04.21-1.66.48-2.63.74,1.56.45,2.84.48,4.78Z"/>
      <path class="cls-25" d="M12,38.03c.23.04.49-.07.72,0,.2.06.3.45.48.48,2.36.41,6.71-.03,9.36,0v.48c-3.43-.02-6.88.01-10.32,0l-1.2-1.2c-.01-1.04.02-2.08,0-3.11l.48.24v2.87c.07.29.28.21.48.24Z"/>
      <path class="cls-15" d="M12,13.15c.02-1.28-.16-2.87,0-4.07.09-.64.23-.8.72-1.2.51-.14.7.4,1.44.48,6.89.7,13.75-.26,20.65-.48,6.33-.2,12.35.4,18.25,0,1.41-.1,3.96-.19,5.28,0,.15.02.84.85,1.68.48,0,1.43,0,2.88,0,4.3-1.34.08-2.75-.11-4.08,0-8.62.73-22.82,1.53-31.21,0-1.11-.2-6.39.66-7.68.96-1.19.28-1.73-.45-1.92-.48-.96-.14-2.12.1-3.12,0Z"/>
      <path class="cls-15" d="M12,17.94c0,1.11,0,2.24,0,3.35.77-.26,1.01.45,1.2.48,1.03.18,1.99.3,2.88.48,14.05,2.75,26.61-4.85,40.33-1.43.88.95,2.28,1.68,3.6,1.91-.01.16.01.32,0,.48-.07,1.06-.4,1.38-.48,1.91-1.06-.16-1.12.81-2.16.96-1.28.17-1.5-.37-1.92-.48-3.57-.9-9.05-.8-12.48-.48-6.6.62-16.03-1.08-22.09,0-.14.02-.5.76-1.44.48-1.28-.39-3.82-.86-5.28-.48-.4.11-.94,1.46-2.16.96-.03-1.94.26-3.22-.48-4.78-.21-.43.01-4.25,0-5.26h.48c0,.63,0,1.28,0,1.91Z"/>
      <polygon class="cls-25" points="50.42 57.16 50.18 57.64 47.3 57.64 47.06 57.16 50.42 57.16"/>
    </g>
    <path class="cls-4" d="M67.66,27.15h-1.4v1.38h1.4v-1.38ZM71.86,27.15h-1.4v1.38h1.4v-1.38ZM76.05,27.15h-1.4v1.38h1.4v-1.38ZM80.25,27.15h-1.4v1.38h1.4v-1.38ZM84.45,27.15h-1.4v1.38h1.4v-1.38ZM88.65,27.15h-1.4v1.38h1.4v-1.38ZM92.84,27.15h-1.4v1.38h1.4v-1.38ZM97.04,27.15h-1.4v1.38h1.4v-1.38ZM101.24,27.15h-1.4v1.38h1.4v-1.38ZM105.44,27.15h-1.4v1.38h1.4v-1.38ZM109.64,27.15h-1.4v1.38h1.4v-1.38ZM113.83,27.15h-1.4v1.38h1.4v-1.38ZM118.03,27.15h-1.4v1.38h1.4v-1.38ZM122.23,27.15h-1.4v1.38h1.4v-1.38ZM126.43,27.15h-1.4v1.38h1.4v-1.38ZM130.62,27.15h-1.4v1.38h1.4v-1.38ZM134.82,27.15h-1.4v1.38h1.4v-1.38Z"/>
    <path d="M165.13,0l1.43,19.21h12.91c1.43-4.7,4.9-8.37,7.57-12.32.89-1.31,1.47-3.01,2.34-4.36.44-.67,1.11-1.03,1.56-.61.69.66-7.94,15.16-8.6,17.05.99.52,2.06-.1,3.14.68,1.29.93,4.68,13.08,4.93,15.22.12.99.38,5.95-.67,5.95h-50.69c-1.05,0-1.21-3.15-1.15-4.01.13-1.94,3.94-16.12,4.85-16.99.99-.94,3.6-.03,3.22-1.31-.63-1.83-9.28-15.94-8.6-16.58,1.34-1.25,3.77,4.54,4.39,5.44,2.55,3.74,6.02,7.35,7.09,11.85h14.82l.96-19.21h.48Z"/>
    <g>
      <path class="cls-1" d="M284.83,3.36c.84,6.55.5,13.38.48,20.02-.79.73-.8,3.06,0,3.81-.02.79.06,1.6,0,2.38,0,.05-.67.45-.47.95.3.05.69-.06.95,0,1.29.34,2.52.57,3.81.95-1.77,1.76-4.31,2.82-6.31,4.31-3.27,2.43-5.98,5.55-9.28,7.99-4,2.97-8.92,5.8-13.5,7.72l11.41,6.94c.68.62,1.78.45,2.41.68.16.06.23,1.1,1.55.89,1.17-.19,5.68-1.98,7.03-2.57,1.02-.45,7.5-3.86,7.64-4.28-1.8-.54-.49-.86-.48-1.19,3.3.57,7.23-3.97,8.58-6.67-1.3-.04-2.59-1.48-3.81-1.44.23-1.09-.1-1.28-.94-1.75v-.63c.31-.31.62-.63.94-.95,1.56-1.57,3.44-3.31,3.81-5.72,1,.47,1.13.91,1.55,1.09,2.78,1.18,6.1,1.55,8.94,2.72v2.86l-26.22,25.74h-1.43c-.3-.78-.91-1.11-1.57-1.52-5.95-3.67-16.16-10.55-22.27-12.77l-4.5-4.8c-.74-5.44-5.18-12.44-5.9-17.49-.5-3.57,2.65-3.19,2.8-3.73.29-1.03-.49-1.79-.51-2.1-.26-3.33-.67-6.62-.89-9.94l34.74-11.5h1.43ZM251.45,20.04c.15,1.72.26,3.54.48,5.24.85,6.56,2.51,13.07,2.93,19.71l.64.78c1.58-.25,2.84-2.38,3.58-2.85,3.23-2.04,7.33-3.75,10.65-5.8,4.92-3.05,9.19-6.73,14.55-9.05l.08-5.17c.12-.86-.04-1.94,0-2.86.07-1.74-.01-3.5,0-5.24.02-2.54-.01-5.09,0-7.63l.47-.23-.47-.24-32.29,10.38c-1.64.56-.73,1.68-.61,2.96ZM282.44,31.48c-.63-.55-10.26,5.97-11.49,6.87-.25.19-1.73.5-.9,1.23.51.44,10.38-6.08,11.5-6.86.27-.19,1.71-.53.89-1.23ZM273.38,41.01c.97-.53,5.75-2.79,6.1-3.43.18-.33.33-1.61-.13-1.81-1.39.66-2.31,1.96-3.58,2.38-.23.08-.65-.07-.95,0v.95c-.48.3-.8.63-1.43.95-1.04.53-3.07.78-3.81,2.38,3.36,1.16,1.85.06,2.5-.81.09-.12.95-.42,1.31-.61ZM264.32,42.92c-1.69.15-3.86,1.47-4.77,2.85l2.06-.55,2.7-2.3ZM261.47,48.16c2.47,1.07,5.18-3.02,2.35-2.18-.37.11-2.73,1.28-2.35,2.18Z"/>
      <path class="cls-24" d="M249.54,24.81c.02.31.8,1.08.51,2.1-.15.53-3.31.16-2.8,3.73.71,5.04,5.16,12.05,5.9,17.49l4.5,4.8s-.29.44-.63.37c-.73-.15-3.45-1.87-4.65-2.12-1.93-6.2-5.05-12.64-6.78-18.84-1.17-4.16-.79-6.76,3.96-7.53Z"/>
      <path class="cls-17" d="M284.35,14.8c-.01,1.74.07,3.51,0,5.24h-.48c.27-1.42-.74-.95-1.65-.96-2.48-.03-6.52.28-9.01.55-1.55.17-3.99.27-4.59,1.84,2.16-.59,4.55.15,6.44.05.98-.05,1.81-.45,2.62-.52-.47,2.35,1.43,1.02,2.85,1.68,1.28.59,3.21,4.63,3.82.23l-.08,5.17c-5.36,2.32-9.63,6-14.55,9.05-3.32,2.06-7.41,3.76-10.65,5.8-.42-1.54-2.22-2.42-2.38-4.09-.36-3.78,2.59-10.17,5.22-12.84,2.11-2.14,5.06-1.84,6.69-4.03l-7.84.5-8.85,2.83c-.22-1.7-.32-3.52-.48-5.24,5.9.1,11.26-2.7,17.07-3.67,5.09-.85,10.67-1.15,15.83-1.57Z"/>
      <path class="cls-39" d="M291.98,32.43c-.87.4.46,2.65.57,2.74.53.46,3.11.1,3.7,1.33.59,1.35-2.3,2.34-3.32,2.61l1.91,1.42c-.32.32-.63.64-.95.95-1.02.99-6.25,4.86-6.57,5.36-.28.44-.05.9-.11,1.31-.02.15,0,.33,0,.48-2-.49-2.43,1.13-3.59,1.92-2.64,1.81-5.87,3-7.15,6.18-1.81,0,1.74-3.03-.94-3.33l-1.67,1.67,1.42,1.19-1.9-.47c-.53,1.88.52,1.98.95,3.33-.63-.23-1.73-.07-2.41-.68l-11.41-6.94c4.58-1.92,9.5-4.75,13.5-7.72,3.3-2.45,6.01-5.56,9.28-7.99,2-1.49,4.54-2.54,6.31-4.31,1.02.3,1.56.64,2.38.95ZM290.67,41.39c-.32-.56-.09-1.22-.13-1.81-.78-.1-1.55,1.39-1.76,1.43-1.21.22-2.37-.61-3.17-.5-.29.04-.29.74-.46.81-.25.11-3.86,1.11-2.71,2.06.1.08.91-.16,1.28.12.39.3.45,1.09.87,1.31.58.31,3.07-2.78,4.03-3.13,2.01-.73.92,1.12,2.88.75.44-1.24-.7-.82-.83-1.05ZM282.2,41.01v.48c.31-.16.31-.32,0-.48ZM289.12,44.82v-1.9c-3.48,1.16-.62,2.52,0,1.9Z"/>
      <path class="cls-30" d="M284.35,6.7v.48c-.01,2.54.02,5.09,0,7.63-5.16.42-10.74.72-15.83,1.57-5.81.97-11.17,3.77-17.07,3.67-.12-1.29-1.02-2.4.61-2.96l32.29-10.38Z"/>
      <path class="cls-30" d="M251.93,25.28l8.85-2.83,7.84-.5c-1.63,2.19-4.58,1.89-6.69,4.03-2.64,2.67-5.58,9.07-5.22,12.84.16,1.67,1.96,2.56,2.38,4.09-.73.46-2,2.6-3.58,2.85l-.64-.78c-.42-6.64-2.08-13.15-2.93-19.71Z"/>
      <path class="cls-32" d="M287.21,48.64c.03.5-.17,1.6.05,1.85.19.21,2.87.32,2.81,1.49-.02.33-1.33.65.48,1.19-.14.42-6.62,3.83-7.64,4.28-1.35.59-5.85,2.38-7.03,2.57-1.32.21-1.39-.83-1.55-.89-.43-1.35-1.48-1.45-.95-3.33l1.9.47-1.42-1.19,1.67-1.67c2.67.3-.87,3.32.94,3.33,1.28-3.18,4.51-4.37,7.15-6.18,1.16-.79,1.59-2.4,3.59-1.92Z"/>
      <path class="cls-24" d="M294.84,43.87c1.23-.05,2.51,1.4,3.81,1.44-1.35,2.69-5.28,7.23-8.58,6.67.06-1.17-2.62-1.28-2.81-1.49-.22-.24-.03-1.35-.05-1.85,0-.15-.02-.33,0-.48,2.92-.21,4.84-4.18,7.63-4.29Z"/>
      <path class="cls-32" d="M291.98,32.43c1.5.57.79.8,2.86.95v.95c.48.18.89-.47.95-.47,1.23-.06,1.86.48,2.86.95-.38,2.41-2.26,4.15-3.81,5.72l-1.91-1.42c1.02-.27,3.91-1.26,3.32-2.61-.59-1.23-3.17-.87-3.7-1.33-.11-.09-1.44-2.34-.57-2.74Z"/>
      <path class="cls-30" d="M283.87,20.04h.48c-.04.92.12,2,0,2.86-.61,4.4-2.54.36-3.82-.23-1.42-.65-3.33.68-2.85-1.68,2.11-.19,4.17-.28,6.2-.95Z"/>
      <path class="cls-32" d="M293.89,41.49v.63c.85.47,1.19.67.95,1.75-2.79.11-4.71,4.08-7.63,4.29.05-.41-.17-.87.11-1.31.32-.5,5.55-4.37,6.57-5.36Z"/>
      <path class="cls-39" d="M282.44,31.48c.82.71-.62,1.04-.89,1.23-1.11.78-10.99,7.3-11.5,6.86-.83-.72.65-1.04.9-1.23,1.23-.9,10.86-7.42,11.49-6.87Z"/>
      <path class="cls-24" d="M275.77,38.15c1.27-.42,2.19-1.72,3.58-2.38.46.19.32,1.48.13,1.81-.35.64-5.13,2.91-6.1,3.43v-.95c.63-.32.95-.65,1.43-.95.27-.17,1.26.4.95-.95Z"/>
      <path class="cls-32" d="M273.38,40.06v.95c-.36.19-1.22.49-1.31.61-.66.87.85,1.97-2.5.81.75-1.6,2.78-1.85,3.81-2.38Z"/>
      <path class="cls-24" d="M261.47,48.16c-.38-.9,1.98-2.07,2.35-2.18,2.83-.83.12,3.25-2.35,2.18Z"/>
      <path class="cls-39" d="M264.32,42.92l-2.7,2.3-2.06.55c.91-1.38,3.07-2.7,4.77-2.85Z"/>
      <path class="cls-39" d="M285.3,27.19c-.8-.75-.79-3.08,0-3.81,0,1.27.03,2.55,0,3.81Z"/>
      <path class="cls-39" d="M285.78,30.53c-.26-.07-.65.05-.95,0-.19-.5.47-.9.47-.95l.48.95Z"/>
      <path class="cls-32" d="M275.77,38.15c.31,1.36-.68.79-.95.95v-.95c.3-.07.72.08.95,0Z"/>
      <polygon class="cls-39" points="284.35 7.17 284.35 6.7 284.82 6.94 284.35 7.17"/>
      <path class="cls-39" d="M295.79,33.86c-.06,0-.47.66-.95.47v-.95c.4.03.83,0,.95.48Z"/>
      <path class="cls-32" d="M290.67,41.39c.13.23,1.27-.19.83,1.05-1.96.37-.87-1.48-2.88-.75-.95.35-3.44,3.44-4.03,3.13-.42-.22-.48-1.01-.87-1.31s-1.18-.04-1.28-.12c-1.16-.96,2.46-1.96,2.71-2.06.17-.07.17-.77.46-.81.8-.11,1.96.72,3.17.5.21-.04.99-1.54,1.76-1.43.03.59-.19,1.26.13,1.81Z"/>
      <path class="cls-32" d="M289.12,44.82c-.62.62-3.48-.74,0-1.9v1.9Z"/>
      <path class="cls-32" d="M282.2,41.01c.31.16.31.32,0,.48v-.48Z"/>
    </g>
    <text class="cls-7" transform="translate(143.53 26.84)"><tspan x="0" y="0">Networking </tspan></text>
    <text class="cls-7" transform="translate(153.33 33.84)"><tspan x="0" y="0">Device</tspan></text>
    <path class="cls-4" d="M252.96,44.03l1.37.11.11-1.38-1.36-.11-.11,1.38ZM248.86,43.69l1.37.11.11-1.38-1.37-.11-.11,1.38M244.76,43.36l1.36.11.11-1.38-1.36-.11-.11,1.38M240.67,43.02l1.37.11.11-1.38-1.37-.11-.11,1.38M236.57,42.69l1.37.11.11-1.38-1.37-.11-.11,1.38M232.48,42.35l1.37.11.11-1.38-1.36-.11-.11,1.38M228.38,42.01l1.37.11.11-1.38-1.37-.11-.11,1.38M224.28,41.68l1.36.11.11-1.38-1.36-.11-.11,1.38M220.18,41.34l1.37.11.11-1.38-1.37-.11-.11,1.38M216.09,41.01l1.36.11.11-1.38-1.37-.11-.11,1.38M211.99,40.67l1.36.11.11-1.38-1.36-.11-.11,1.38M207.9,40.34l1.37.11.11-1.38-1.37-.11-.11,1.38M203.8,40l1.36.11.11-1.38-1.36-.11-.11,1.38M199.7,39.67l1.37.11.11-1.38-1.37-.11-.11,1.38M195.61,39.33l1.36.11.11-1.38-1.37-.11-.11,1.38"/>
    <path class="cls-4" d="M237.58,96.26l1.03.9.91-1.04-1.03-.9-.91,1.04ZM234.49,93.57l1.03.9.91-1.04-1.03-.9-.91,1.04M231.39,90.87l1.03.9.91-1.04-1.03-.9-.91,1.04M228.29,88.18l1.03.9.91-1.04-1.03-.9-.91,1.04M225.2,85.48l1.03.9.91-1.04-1.03-.9-.91,1.04M222.1,82.79l1.03.9.91-1.04-1.03-.9-.91,1.04M219.01,80.09l1.03.9.91-1.04-1.03-.9-.91,1.04M215.91,77.39l1.03.9.91-1.04-1.03-.9-.91,1.04M212.82,74.7l1.03.9.91-1.04-1.03-.9-.91,1.04M209.72,72l1.03.9.91-1.04-1.03-.9-.91,1.04M206.62,69.31l1.03.9.91-1.04-1.03-.9-.91,1.04M203.53,66.61l1.03.9.91-1.04-1.03-.9-.91,1.04M200.43,63.92l1.03.9.91-1.04-1.03-.9-.91,1.04M197.34,61.22l1.03.9.91-1.04-1.03-.9-.91,1.04M194.24,58.53l1.03.9.91-1.04-1.03-.9-.91,1.04M191.14,55.83l1.03.9.91-1.04-1.03-.9-.91,1.04M188.05,53.13l1.03.9.91-1.04-1.03-.9-.91,1.04M184.95,50.44l1.03.9.91-1.04-1.03-.9-.91,1.04M181.86,47.74l1.03.9.91-1.04-1.03-.9-.91,1.04M178.76,45.05l1.03.9.91-1.04-1.03-.9-.91,1.04M175.67,42.35l1.03.9.91-1.04-1.03-.9-.91,1.04"/>
    <path class="cls-4" d="M160.98,84.51l-.08,1.38,1.38.08.08-1.38-1.38-.08ZM161.24,80.36l-.08,1.38,1.38.08.09-1.38-1.38-.08ZM161.49,76.21l-.08,1.38,1.38.08.08-1.38-1.38-.08ZM161.74,72.06l-.08,1.38,1.38.08.08-1.38-1.38-.08ZM162,67.91l-.08,1.38,1.38.08.08-1.38-1.38-.08ZM162.25,63.75l-.08,1.38,1.38.08.08-1.38-1.38-.08ZM162.5,59.6l-.09,1.38,1.38.08.08-1.38-1.38-.08ZM162.76,55.45l-.08,1.38,1.38.08.08-1.38-1.38-.08ZM163.01,51.3l-.08,1.38,1.38.08.09-1.38-1.38-.08ZM163.26,47.15l-.08,1.38,1.38.08.08-1.38-1.38-.08Z"/>
    <path class="cls-4" d="M94.09,80.53l-1.07.87.88,1.07,1.07-.87-.88-1.07ZM97.29,77.91l-1.07.87.88,1.07,1.07-.87-.88-1.07ZM100.49,75.29l-1.07.87.88,1.07,1.07-.87-.88-1.07ZM103.69,72.67l-1.07.87.88,1.07,1.07-.87-.88-1.07ZM106.89,70.05l-1.07.87.88,1.07,1.07-.87-.88-1.07ZM110.09,67.43l-1.07.87.88,1.07,1.07-.87-.88-1.07ZM113.29,64.8l-1.07.87.88,1.07,1.07-.87-.88-1.07ZM116.49,62.18l-1.07.87.88,1.07,1.07-.87-.88-1.07ZM119.7,59.56l-1.07.87.88,1.07,1.07-.87-.88-1.07ZM122.9,56.94l-1.07.87.88,1.07,1.07-.87-.88-1.07ZM126.1,54.32l-1.07.87.88,1.07,1.07-.87-.88-1.07ZM129.3,51.7l-1.07.87.88,1.07,1.07-.87-.88-1.07ZM132.5,49.08l-1.07.87.88,1.07,1.07-.87-.88-1.07ZM135.7,46.46l-1.07.87.88,1.07,1.07-.87-.88-1.07ZM138.9,43.83l-1.07.87.88,1.07,1.07-.87-.88-1.07Z"/>
  </g>
</svg>