<?xml version="1.0" encoding="UTF-8"?>
<svg id="Layer_1" xmlns="http://www.w3.org/2000/svg" version="1.1" viewBox="0 0 149.6 106.6">
  <!-- Generator: Adobe Illustrator 29.1.0, SVG Export Plug-In . SVG Version: 2.1.0 Build 142)  -->
  <defs>
    <style>
      .st0 {
        fill: #474546;
      }

      .st0, .st1, .st2, .st3, .st4, .st5, .st6, .st7, .st8, .st9, .st10, .st11, .st12, .st13, .st14, .st15, .st16, .st17, .st18, .st19, .st20, .st21, .st22, .st23, .st24, .st25, .st26, .st27, .st28, .st29 {
        fill-rule: evenodd;
      }

      .st1 {
        fill: #c6835d;
      }

      .st2 {
        fill: #7f7b7c;
      }

      .st3 {
        fill: #424041;
      }

      .st4 {
        fill: #afabac;
      }

      .st5 {
        fill: #0b0808;
      }

      .st6 {
        fill: #fffefe;
      }

      .st30, .st31 {
        fill: #fff;
      }

      .st7 {
        fill: #9a9797;
      }

      .st8 {
        fill: #fefefe;
      }

      .st32 {
        fill: none;
        stroke: #fff;
        stroke-miterlimit: 10;
      }

      .st31 {
        font-family: BookmanOldStyle, 'Bookman Old Style';
        font-size: 10px;
      }

      .st31, .st33 {
        isolation: isolate;
      }

      .st9 {
        fill: #f7963a;
      }

      .st10 {
        fill: #c98344;
      }

      .st11 {
        fill: #0f0e0e;
      }

      .st12 {
        fill: #415ba8;
      }

      .st13 {
        fill: #474545;
      }

      .st14 {
        fill: #8d898a;
      }

      .st15 {
        fill: #676364;
      }

      .st16 {
        fill: #f6963a;
      }

      .st17 {
        fill: #4c2d18;
      }

      .st18 {
        fill: #484546;
      }

      .st19 {
        fill: #282727;
      }

      .st20 {
        fill: #363435;
      }

      .st21 {
        fill: #474644;
      }

      .st22 {
        fill: #6fc18e;
      }

      .st23 {
        fill: #415ba9;
      }

      .st24 {
        fill: #6ec28e;
      }

      .st25 {
        fill: #393738;
      }

      .st26 {
        fill: #bdbabb;
      }

      .st27 {
        fill: #545050;
      }

      .st28 {
        fill: #726e6f;
      }

      .st29 {
        fill: #be724b;
      }
    </style>
  </defs>
  <g id="Wire">
    <path class="st5" d="M149.6,74.1c-.2-.2-.4-.5-.9-.6-.8,0-1.7-.2-2.5-.2-.5,0-.8-.3-.8-.7,0-.2,0-.5-.3-.5-1.5-.2-2.8-.7-4.3-.8-3.2-.2-6.4-.2-9.5.8-1.4.4-2.7.8-4-.2-.2-.2-.5-.2-.8-.4-2.2-1-4.5-1.8-7-2.1-3.2-.4-6.3,0-9.4.7-.8.2-1.4.3-2-.4-.3-.3-.8-.5-1.3-.7-5.9-2.6-12.1-3.7-18.7-2.6-.4,0-.7,0-1-.2-1-.7-2.1-1.4-3.5-1.8,1.8-.6,3.3-1.5,4.8-2.3.2,0,.3-.1.5,0,1.3.7,2.9.8,4.4,1.1,5,.8,9.9.5,14.7-1.2.2,0,.5-.2.8,0,1.5.4,3,.8,4.6,1.1,2.4.4,4.7,1,7.2.8,2.4-.2,4.6-.7,6.9-1.3.5-.1,1.1-.3,1.6,0,1.9.9,4,1.5,6,2,2.6.7,5.1,1.4,7.8,1.8.3,0,.4,0,.5-.2,0-.3.2-.6.1-.8,0-.6.3-.5.8-.4,1.1.2,2.2.4,3.3.6.3,0,.4,0,.6-.2.1-.2,0-.3,0-.5-.2-.4-.6-.4-1-.5-.8-.1-1.6-.2-2.5-.3-.8,0-1-.3-.4-.9.4-.4.3-.8-.3-.8-.9,0-1.6-.2-2.4-.4-2.1-.4-4.1-1.2-6.4-1.9,3.1-1,6-1.4,9-.9.5.1.8.2.6-.5-.2-.6.1-1.1,1-1,.9.1,1.8.2,2.8.3.5,0,.8,0,.9-.5,0-.6-.4-.5-.8-.5-1,0-2-.2-3-.3-.6,0-.8-.2-.5-.6.3-.5.1-.7-.5-.8-2.5-.5-5-.3-7.5.2-2.4.5-4.7,1.3-6.9,2.1-.3.1-.6.3-1.1,0-3.4-1.8-7.2-2.2-11-2.4-3.3-.2-6.5.3-9.5,1.5-.2,0-.4,0-.6,0-1.7-1-3.6-1.4-5.5-1.8-4.6-1-9-.7-13.1,1.4-1,.5-1.6.5-2.5.1-.2,0-.5-.1-.7-.2-2.3-.8-4.7-.9-7.1-.9s-5,.6-7.4,1.5c-.8.3-1.6.6-2.4.9,1.5-1.3,2.6-2.9,5.3-2.7,2,.2,3.9-.5,5.9-.8,3.3-.6,6.2-1.6,8.8-3.4.3-.2.7-.5,1.2-.5,1.7,0,3.4-.1,5.1-.2,5-.1,9-2.5,13-4.8.7-.4,1.2-.5,1.9-.4,2.5.6,5.1.9,7.8.6,2.6-.2,5.2-.6,7.5-1.8,1.9-.9,3.5-1.2,5.7-.7,2.7.6,5.5,1.1,8.3,1.1.5,0,.9.2.9-.5,0-1.2.2-1.3,1.5-1,1,.2,2,.4,3,.5.8,0,1.2-.2,1.2-1-1.6,0-3.1,0-4.6-.3-.8-.1-1.1-.3-.7-1,.4-.6,0-.8-.6-.7-2.3.3-4.3-.5-6.6-.9.9-.5,1.6-.9,2.3-1.2,1.8-.8,3.5-1.7,5.5-2,1.2-.1,1-.5.7-1.1-.3-.5-.1-.8.5-1,1-.3,2-.7,2.9-1,.3-.1.8,0,.6-.6s-.5-.4-.9-.3c-.9.3-1.9.6-2.8.9-.5.2-.9.2-1-.4,0-.2-.1-.5-.6-.4-2.2.4-4.5.9-6.5,1.9-2,1-3.7,2.4-5.6,3.5-.4.3-.7.3-1.2,0-1.8-.9-3.7-1.5-5.8-1.6-5.4-.2-10.3,1.2-14.5,4.4-.4.3-.7.3-1.2.2-1.5-.3-3-.4-4.6-.4-4.2,0-7.9,1.3-11,3.8-1,.8-1.7,1.3-3.3,1-3.2-.6-6.4-.3-9.5.7-2.9,1-5.5,2.1-7.6,4.2-.3.3-.6.3-.9.2-2.3-.1-4.5,0-6.7.7-.5.2-.8.2-1.1-.2-2.2-2.3-5-3.5-8.4-3.5H0v.5c.5.4,1.2.3,1.8.3h47.8c-1.1.7-2.3,1.2-3.2,2.1-.8.9-1.5,1.8-2.1,2.8-.4.8-.8,1.6-1.2,2.4-.3.6-.4,1.2-.7,1.8-.2.6-.3,1.2-.4,1.7-.3,1.1-.4,2.2-.4,3.3,0,.3,0,.7,0,1,.2.9.1,1.8.4,2.7.1.5.2,1,.4,1.6.2.6.4,1.1.6,1.7.2.4.4.8.6,1.2.3.5.5.9.8,1.4.4.8,1,1.4,1.6,2.1.7.8,1.8,1.3,2.6,2.1-.3.2-.7,0-1.1,0H1.7c-.6,0-1.2-.1-1.7.2v.7c.3,0,.7,0,1,0,17.3,0,34.6,0,51.9,0,2.3,0,4.4-.4,6.2-1.5.3-.2.5-.3.9,0,2.7,1.1,5.6,1.5,8.5,1.6.4,0,.6,0,.8.3,1.3,2,3.5,3.1,5.9,4,3.2,1.2,6.6,1.5,10,1.5.6,0,.9.2,1.3.5,2.2,2,4.5,4,7.3,5.4,3.5,1.9,7.1,2.9,11.2,2.3.3,0,.3,0,.5.1,2.3,2,5,3.5,8,4.5,2.2.8,4.4,1.2,6.8,1.2,1.5,0,3-.3,4.5-.3.4,0,.7,0,1,.2,3.1,2.3,6.6,4,10.5,5.2.6.2,1,.3,1-.5l1-2.7c.2-.3.3-.6-.3-.7-2.4-.4-4.4-1.7-6.5-2.9.3,0,.5-.2.6-.2,1.8,0,3.6.3,5.4.7.5.1,1.2.5.8-.5-.1-.3-.3-1.1.6-1,1.2.1,2.4.3,3.5.7.2,0,.5.2.7,0,.2-.2-.2-.3-.2-.5,0-.3-.3-.4-.6-.4-1-.2-1.9-.4-2.9-.5-.6-.1-.9-.4-.7-1,.2-.6,0-.9-.7-1-.9-.1-1.8-.3-2.6-.4-2.7-.4-5.5-.6-8.2-.1-.9.2-1.4,0-2.1-.5-3.2-2.4-6.9-3.8-11.1-4.2-2.4-.2-4.8-.1-7.2-.1-.4,0-.7,0-.9-.3-1.2-1.2-2.4-2.4-3.8-3.5-3.7-3-7.8-5-13.1-4.2-.7.1-1.2,0-1.7-.6-1.3-1.5-2.7-2.9-4.7-3.9-3.6-1.8-7.3-2.2-11.2-1.1-.5.1-.6,0-.8-.3-1.6-1.7-3-3.6-5.1-4.8-1.1-.6-.9-1.2-.5-1.9.1,0,.2.1.3.2,4.6,3.1,9.6,5.4,15.4,6.3,2,.3,4,.4,5.9-.2.6-.2,1-.1,1.5.1,5.9,3.5,12.3,4.9,19.3,3.6.2,0,.4,0,.6,0,1.1.7,2.4,1.1,3.5,1.7,2.2,1.2,4.8,1.7,7.3,1.8,3.4.1,6.8-.2,10.1-1,.4,0,.6,0,1,0,3.9,1.8,8,3.5,12.4,4.1.9.1,1.4,0,1.6-.8.1-.6.6-.7,1.2-.6.8.1,1.6.3,2.4.4.3,0,.6,0,.7-.3,0-.3-.3-.3-.5-.4-.8-.2-1.7-.4-2.5-.5-.6,0-.8-.2-.6-.7.2-.5,0-.7-.6-.8-2.4-.3-4.6-.8-6.8-1.6-.7-.2-1.4-.4-2-1,2.9-.5,5.7-.9,8.6-.4,1.1.2,1.3-.1,1.4-.9,0-.2,0-.6.5-.5.9.1,1.9,0,2.8.5.5.2.7,0,1-.1.2,0,.2-.2.1-.3ZM122.4,59.7c-2.1.2-4.1.1-6-.4,1.8-.3,3.6-.2,6,.4ZM102.3,58.8c-3.4,1.1-5.7,1.2-8.5.3,1.9-1.1,6.3-1.2,8.5-.3ZM122.2,40.6c-2.1.5-4.2.7-6.3.3,2.1-.8,4.2-.4,6.3-.3ZM102.2,44.2c-1.8,1.4-4.8,2.3-7.4,2.2,2.1-1.6,4.5-2.3,7.4-2.2ZM83.1,48.8c-1.7.9-3.5,1.1-5.2,1.5,1.2-1,3.2-1.5,5.2-1.5ZM120,92c-1.5.4-6.5-.6-8.5-1.8,1.9-.7,6.9.4,8.5,1.8ZM100.4,85.8c-3-.1-5.1-1.7-7.5-3.2,2.5,0,5.9,1.5,7.5,3.2ZM82.2,78.5c-3.1-.1-5.5-1.2-8-2.4,1.6-1.1,4.5-.2,8,2.4ZM65.4,72.5c-1.1,0-2.1-.3-3-.7,0,0,.1-.2.2-.2.8-1.1.9-1.1,1.9-.1.3.3.8.5.9,1.1ZM64.2,55.4c-.2-.5.3-.9,1.6-1.1-.5.4-1,.8-1.6,1.1ZM74.4,65.7c2.9-.6,5.6.2,8.2,2.5-3.1,0-5.6-1.1-8.2-2.5ZM72.2,60.7c3.8-1.5,7.4-2.1,11.5-1.3-3.7,1.9-7.4,2.1-11.5,1.3ZM94.5,70.6c1.9-.6,7.3.5,8.8,1.7-3.1,0-6-.7-8.8-1.7ZM115.4,74.1c2.6-.3,4.9,0,7.2.6-2.5.8-4.7.2-7.2-.6Z"/>
    <path class="st19" d="M44.6,71.4c1,1.6,2.4,3,4.2,4.1,0,.3-.2.3-.5.3-.3,0-.6,0-1,0H1.4c-.5,0-1,.1-1.4-.2v-3.9c.5-.4,1.2-.3,1.8-.3h39.9c1,0,2,0,3,0"/>
    <path class="st27" d="M41.9,63c.3.9.2,1.8.4,2.7-1,.3-2.1.3-3.1.3H2.1c-.7,0-1.4.2-2.1,0v-3c1.4-.5,2.8-.5,4.2-.4,1.7,0,3.4,0,5.1,0,.8,0,1.5.2,2.3.1,2.4-.2,4.8,0,7.3,0,2,0,4-.1,5.9,0,.9,0,1.8-.2,2.8-.2,2.3,0,4.5,0,6.8,0,1.9,0,3.8,0,5.7,0,.7,0,1.3,0,1.8.4"/>
    <path class="st26" d="M0,47.5c.4,0,.8,0,1.1,0h49.3c-1.5.8-2.8,1.7-4.1,2.7-.6-.2-1.1-.3-1.8-.2-1.5.2-3,.2-4.5,0-1-.1-2,.1-3.1,0-3.3,0-6.7.2-10-.1-.9,0-1.8.2-2.7.1-3.2-.2-6.4,0-9.7,0-2.1,0-4.2.1-6.3,0-2.6,0-5.1-.2-7.7,0-.3,0-.5,0-.7-.2v-2.4h0Z"/>
    <path class="st7" d="M44.5,52.8c-.4.8-.8,1.5-1.1,2.3-1.5-.6-3.1-.3-4.7-.4-2.8,0-5.6,0-8.5,0-3.2,0-6.3,0-9.5,0-4.9-.1-9.9-.2-14.8,0-1.7,0-3.3,0-5,0s-.6,0-.9-.3v-2.5c.3-.3.8-.3,1.2-.3h41.6c.4,0,.8,0,1.1.2.4.2.7.4.5.9"/>
    <path class="st4" d="M44.5,52.8c0-.5-.5-.7-1-.8-.3,0-.6,0-.9,0H0v-2.2c1.9-.4,3.7-.1,5.6,0,2.2,0,4.4.2,6.5,0,2.1-.1,4.1.2,6.2,0,2-.1,3.9,0,5.9,0,4.1,0,8.2,0,12.3,0,2.3,0,4.6,0,6.9,0,.7,0,1.4-.2,2.1-.2.5,0,.8,0,.9.6-.6.8-1.3,1.7-1.9,2.6"/>
    <path class="st15" d="M41.9,63c0,0,0,.2-.1.2-2.2-.6-4.5-.7-6.7-.4-.6,0-1.2-.1-1.8-.2-2.1,0-4.2-.1-6.3,0-2,.1-4,.2-6,0-2.1,0-4.2.2-6.3,0-.9-.1-1.8.2-2.8,0-1.7-.2-3.5,0-5.2,0-2.2,0-4.5-.3-6.8,0v-2.5c.4-.3.8-.3,1.3-.3h38.9c1.5,0,1.7.2,1.7,1.5,0,.2,0,.3,0,.5,0,.3,0,.7,0,1"/>
    <path class="st2" d="M42.7,56.9c-.1.6-.3,1.1-.4,1.7,0,0-.2.1-.3.1-2,0-4,.2-5.9,0-3.3-.2-6.6-.1-9.9,0-1.7,0-3.4,0-5.1,0-2.5,0-4.9,0-7.4,0-.4,0-.8,0-1.2,0-3.7,0-7.3,0-10.9,0C1,58.7.4,58.8,0,58.4v-2c.4-.3.8-.3,1.3-.3h39.8c.7,0,1.4,0,1.6.8"/>
    <path class="st14" d="M42.7,56.9c-.4-.5-.9-.5-1.5-.5-13.7,0-27.5,0-41.2,0v-1.9c4.4,0,8.9-.3,13.3-.2,2.1,0,4.2,0,6.2,0,2,0,4,.2,6,.2,4.4,0,8.7-.1,13.1-.2,1.2,0,2.4.4,3.6,0,.6-.2.7.4,1,.7-.2.6-.4,1.2-.6,1.8"/>
    <path class="st20" d="M44.6,71.4c-.2.6-.7.3-1,.3-6.2,0-12.4,0-18.6,0H0v-1.9c.4-.3.9-.3,1.4-.3,2.3,0,4.6.2,7,0,2-.1,4.1,0,6.1.1,1.8.2,3.6,0,5.4-.1,2.8-.1,5.5,0,8.2.2.9,0,1.9-.2,2.8-.2h10.8c.8,0,1.5,0,2.2.4.4.4.6.8.8,1.3"/>
    <path class="st28" d="M0,58.4h12c2.1,0,4.1,0,6.1,0,2.4.1,4.9,0,7.3,0,2.3,0,4.6,0,6.9,0,1.3,0,2.6,0,3.9.1,1.6.2,3.3-.2,4.9,0,.4,0,.8,0,1.1.1-.2,1.1-.3,2.2-.4,3.4,0,0-.1-.1-.2-.2-.2-1-.8-1.5-1.9-1.5H0v-1.9h0Z"/>
    <path class="st3" d="M42.7,67.2c.3.5.5,1.1.6,1.7-.2.2-.5.2-.7.2-13.6-.1-27.2,0-40.8,0-.6,0-1.2.1-1.8-.3v-1.3c.3-.4.8-.5,1.3-.5,13.3,0,26.6,0,40,0,.5,0,1,0,1.5.3"/>
    <path class="st18" d="M42.7,67.2H2.2c-.7,0-1.5-.2-2.2.2v-1.5c.5-.2,1.1-.2,1.6-.2,12.7,0,25.4,0,38.2,0,.8,0,1.7-.4,2.5,0,.3.5.3,1,.4,1.5"/>
    <path class="st25" d="M0,68.7h40.2c1,0,2,0,3,.2.2.4.4.8.6,1.2-4.1-.3-8.2-.1-12.4-.2-1.8,0-3.7,0-5.5.2-.9,0-1.8-.2-2.7-.2-2,0-4.1,0-6.1.2-2.8.2-5.6-.3-8.4-.1-2.9.2-5.9,0-8.8,0,0,0,0-1.2,0-1.2Z"/>
    <path class="st11" d="M0,75.6h47.7c.4,0,.8.1,1.2-.2.3,0,.5.1.8.5H0v-.3h0Z"/>
    <path class="st21" d="M58.8,74.6c-3.2,2.1-7.3,1.8-10.5-.2-2.3-1.4-3.3-3.6-4.3-5.7-.9-1.9-1.4-3.9-1.4-5.9,0-4.7,1-9.3,5-12.8,3.4-2.9,8-3.6,11.9-.5,2.4,2,2.3,1.3-.3,2.7-.4.2-.8.2-1.2,0-4-1.9-8,.3-9.6,3.3-.9,1.7-1.5,3.5-1.6,5.4,0,1.9.2,3.8,1.1,5.5.5.9,1,1.8,1.7,2.7,1.1,1.2,2.5,2,4.2,2.3.6.1,1.1.3,1.5.8.9.9,2.2,1.5,3.4,2.3"/>
    <path class="st9" d="M107.6,56.9c-1.1.5-2.2.8-3.2,1.3-.8.4-1.6.2-2.4,0-4.1-1-7.8-.3-11.3,1.9-2.5,1.5-4.9,3.2-7.9,4.1-3,.9-6,1-9.1.8-2-.1-3.9-.4-5.8-.9-2.3-.6-4.6-1.3-6.6-2.4-.2-.1-.5-.2-.9-.4,1.9-.3,3.5-.9,4.9-1.8.2-.1.4,0,.6,0,1,.3,1.9.6,2.9.9,5.9,1.8,11.6,1.8,16.9-1.5,1.4-.9,2.8-1.9,4.4-2.6,4.3-2,8.8-2.1,13.4-.9,1.4.4,2.9.6,4.2,1.5"/>
    <path class="st17" d="M128.8,77.4c-1,.5-2.1.7-3,.7-2.1,0-4.1.5-6.2.4-2.8-.2-5.3-.7-7.9-1.8-3-1.2-5.3-3.2-7.9-4.8-.9-.5-1.8-.9-2.8-1.2-1.5-.4-3.2-.9-4.7-.8-2.9.4-4.9-.8-6.9-2.3-.3-.2-.9-.3-.8-.7.1-.3.7-.3,1.1-.3,1.3-.1,2.6-.4,3.9-.3,2,.1,3.9.4,5.8.7,2.6.4,5,1.3,7.3,2.4,1.5.7,2.8,1.8,4.1,2.7,2.6,1.8,5.5,3,8.8,3.3,1,0,2,0,2.9-.3.7-.1,1.4-.2,2.1.1,1.4.6,2.7,1.2,4.1,2"/>
    <path class="st23" d="M88.6,78.6c2.2-.2,4.2-.4,6.1.2,2.6.7,4.8,2,6.8,3.6,2.7,2.2,4.8,4.7,7.5,6.9,2.1,1.7,4.7,2.7,7.5,3.2,1.3.2,2.6.4,4,.3.4,0,.8,0,1,.3,1,.9,1.9,1.8,2.9,2.8-1.7.2-3.4.5-5.3.3-6.9-.7-12.1-3.9-16.2-8.7-2.1-2.4-4.7-4.2-8-5.1-.6-.2-1.2-.3-1.8-.2-.9,0-1.4-.3-1.9-.8-.8-.9-2-1.6-2.7-2.7"/>
    <path class="st24" d="M106.4,41.1c-1.1.8-2,1.6-3,2.4-.3.2-.6.3-1,.3-3-.5-5.5.4-7.8,2-1.6,1.1-3,2.3-4.4,3.5-2.6,2.2-5.9,3.3-9.3,4-2.1.5-4.3,1-6.5,1-.2,0-.6.2-.7-.1-.1-.2.2-.4.3-.5,0,0,0,0,.1-.1.8-.8,1.4-1.8,2.4-2.4.9-.6,2.3-.2,3.4-.5,3.1-.8,5.9-2,8.3-3.9,1.6-1.3,3.2-2.6,5-3.7,2.5-1.6,5.3-2.3,8.3-2.4,1.7,0,3.3,0,5,.5"/>
    <path class="st12" d="M53.9,64.3c1.9.5,3.7.5,5.3.8,2.2.5,4.3,1.4,6.2,2.7,2.2,1.5,4,3.4,5.4,5.5,2.7,3.7,6.5,5.4,11.4,5.8.3,0,.5,0,.7.2.8.9,1.7,1.8,2.7,2.8-1.9,0-3.5-.1-5.1-.3-2.8-.4-5.5-1-7.8-2.5-1.6-1-2.6-2.4-3.7-3.7-1.4-1.6-2.6-3.3-4.3-4.7-1.7-1.3-3.7-2-5.8-2.6-.7-.2-1.3-.5-1.8-1-.9-1-2-1.8-3.1-2.9"/>
    <path class="st9" d="M109.5,61.3c1.1-.4,2.1-.8,3.1-1.2,1.1-.5,2.2-.6,3.4-.3,4,.9,7.8.6,11.6-.8,3-1.2,6.1-2.3,9.3-3.1,2.2-.5,4.4-.7,6.6-.5.8,0,1.1.4.9,1.1-.1.6,0,1.3-.4,1.7-.4.5-1.2,0-1.9,0-3,0-5.9.5-8.6,1.7-3.5,1.4-7.1,2.3-10.8,3-2.1.4-4.2.4-6.4,0-2.3-.5-4.6-.7-6.9-1.6"/>
    <path class="st6" d="M88.3,45.7c-1.2.8-2.4,1.6-3.5,2.4-.3.2-.5.2-.9.2-1.2-.1-2.4,0-3.6.2h0c-1.8.6-3.4,1.3-4.8,2.5,0,0,0,0,0,0,0,0,0,0,0,0h0c-.7.9-1.6,1.7-2.5,2.5-2.7,2.3-5.5,4.3-8.8,6-3.1,1.6-6.4,1.9-9.9,1.4-2.1-.3-4.2-.4-6.1-1.3-.5-.2-.5-.4-.5-.8.4-1.8.5-1.9,2.4-1.6,2.3.4,4.6,1.1,7.1.8,3-.3,5.8-1,8.2-2.8,1.5-1.1,2.7-2.3,3.9-3.7,1.1-1.4,2.5-2.6,4.2-3.5h0c1.7-1,3.7-1.5,5.6-2.1,2.9-.8,5.8-.6,9-.2Z"/>
    <path class="st24" d="M110.3,43.9c2.1-1.3,3.7-2.7,6.5-2.3,3.8.5,7.3-.5,10.4-2.5,1.8-1.2,3.5-2.3,5.3-3.5,2.3-1.6,4.9-2.5,7.8-3,.5,0,.8,0,.9.5.1.6.3,1.1.5,1.7.1.4-.2.4-.4.5-3.8,1-7.1,2.8-10.3,4.8-2.7,1.8-5.7,3.4-9,4.1-3.8.8-7.6.9-11.6-.3"/>
    <path class="st6" d="M122,70.4h0s0,0,0,0h0Z"/>
    <path class="st6" d="M79.4,65.4c1-.2,1.8-.2,2.5-.4,1-.3,1.9,0,2.7.3,1.8.8,3.2,2,4.8,3.1,4.2,3,9,4.4,14.3,4.4.3,0,.6,0,.8.2.9.7,1.8,1.3,2.7,2-1.6.4-3.1.5-4.7.5-3.3-.1-6.6-.7-9.6-1.9-2.6-1-5-2.3-7.2-4-1.9-1.6-4.1-2.9-6.4-4.2"/>
    <path class="st8" d="M127.5,38.1c-1.8,1.3-3.5,2.5-6,1.6h0c-1.6.2-3.2-.2-4.8.1-2.9.8-5.1,2.4-7.5,4-3.4,2.3-6.9,4.2-11,5.2-2.3.5-4.8.5-7.3.4,1.4-.8,2-2.3,4.2-2.3,3.1,0,5.9-1,8.2-2.9,1.7-1.4,3.4-2.8,5.2-4.1,1.3-1,3-1.6,4.6-2.2,1-.4,1.9-.8,3-.9,1.7-.4,3.4-.6,5.1-.5,2.2,0,4.3.6,6.2,1.5Z"/>
    <path class="st6" d="M68.8,76.2c-4.4-.2-8.4-.9-11.8-3.2-1.1-.7-2-1.7-2.7-2.7-1.3-1.9-2.9-3.6-5.4-4.4-.7-.2-1.4-1.8-1.2-2.4,0-.2.2-.1.4-.1.2,0,.5,0,.7,0,1.8-.8,3,.1,4.2,1.1,1.7,1.3,3.3,2.7,4.5,4.4,1.8,2.4,4.5,3.9,7.9,4.2.3,0,.7,0,.9.4.8.9,1.6,1.8,2.5,2.9"/>
    <path class="st17" d="M64.5,64.3c.7-.4,1.4-.3,2.1,0,2,.6,4.1.9,6.1,1.2.4,0,.8.2,1.1.4,2.3,1.5,4.9,2.3,7.7,2.9.3,0,.6,0,.9,0,.9-.3,1.5,0,2.1.6.6.5,1.2.9,1.8,1.4.5.3.3.5-.2.7-1.2.3-2.5.2-3.8.2-4.1-.3-7.8-1.5-11.4-3.3-2.3-1.1-4.3-2.4-6.4-3.9"/>
    <path class="st6" d="M129,58c-1.7.5-3.2,1.2-4.8,1.5-.8.2-1.7-.4-2.5-.5-2.7-.3-5.4-.6-8.1.2h0c-2.1.6-3.9,1.8-6.1,2.3h0c-4.8,1.7-9.7,2-14.8,1-.8-.2-1.7-.2-2.5-.5-.6-.2-.7-.4-.1-.8.5-.3.9-.6,1.4-.8.8-.5,1.4-.8,2.6-.5,4,1.1,7.7,0,11.3-1.3.2,0,.4,0,.5-.1h0s0,0,0,0c2.1-.7,4-1.8,6.2-2.2t0,0h0c2.1-.7,4.3-.6,6.4-.5,2.5,0,5.1.4,7.5,1.1,1,.3,2,.6,3,1.3Z"/>
    <path class="st6" d="M87.6,57.1c-1,.6-1.8,1.2-2.8,1.8-.8.4-1.4,0-2.1-.3-2.1,0-4.3-.1-6.4.3-1.4.3-2.8.6-4,1.2-.8.4-1.6.3-2.4.1-1-.3-1.9-.7-3-1.1,5.1-2.5,10.3-4.3,16.3-3.2h0c1.3.2,2.6.5,3.9.9.2,0,.3.2.6.3Z"/>
    <path class="st24" d="M69.3,50.7c-.9,1-1.6,2-2.5,2.8-.3.2-.5.3-.9.3-3,.3-5.5,1.2-7.5,3.3-.2.2-.4.3-.7.3-1.5,0-3,0-4.7-.3,3.4-2.4,6.6-4.8,10.7-6,1.8-.5,3.7-.4,5.7-.3"/>
    <path class="st17" d="M129.9,73.1c2.6-1.1,5.2-1.4,7.9-1.4,2,0,4.1,0,6.1.6.5.1.9.5.7,1,0,.2-.1.4-.2.7-.2,1.1-.2,1.2-1.5,1-1.9-.3-3.7,0-5.5.1-.9,0-1.8.2-2.7.5-.5.2-.9-.2-1.3-.4-1.1-.7-2.2-1.5-3.6-2.1"/>
    <path class="st6" d="M129.4,61.9c1.6-.5,3.1-1,4.5-1.5.5-.2.9-.2,1.3,0,2.5.9,5.1,1.7,7.8,2.3.5.1.6.3.5.7-.1.4-.2.8-.3,1.1-.2,1.2-.2,1.3-1.5,1.1-4-.9-8-1.8-11.8-3.4-.1,0-.3-.1-.5-.2"/>
    <path class="st6" d="M104.9,90.2c-1.9.3-3.7.2-5.5-.2-3.8-.8-6.9-2.7-9.6-5-1.4-1.2-2.8-2.2-3.9-3.6-.7-.5-1.2-1.2-1.8-1.7-.7-.7-1.4-1.3-2.1-2h0s0,0,0,0c-1.3-.8-2.6-1.8-4.2-2.2-1.2-.3-2.4-.5-3.6,0-.4.1-.5,0-.7-.2-.6-.6-1.1-1.3-1.7-1.9-.4-.4.2-.5.4-.5,2.2-.4,4.3-.9,6.6-.4,2.3.5,4.4,1.5,6.2,2.9,1.2,1.3,2.5,2.7,3.7,4,2.3,2.3,4.7,4.4,7.8,5.9,1.2.6,2.5,1.1,3.9,1.1s1.8.7,2.4,1.4c.8.8,1.4,1.7,2.4,2.5Z"/>
    <path class="st12" d="M126.7,91.4c1.1-.4,2.1-.3,3-.4,2.6-.2,5.1.2,7.7.7.6,0,.8.3.7.9,0,.2,0,.4,0,.5-.3.6,0,1.5-.6,1.9-.6.3-1.4-.2-2.1-.2-1.3,0-2.6-.4-4-.2-.3,0-.6,0-.8-.1-1.4-.8-2.5-2-3.9-3"/>
    <path class="st8" d="M51.6,62.7c.6-.4,1.2-.9,2-1.2.8-.4,1.7,0,2.6,0s.8.2,1.2,0c1.8-.5,3.1.3,4.5,1,.8.4,1.7.8,2.7,1-4.6,1.1-8.9,1.6-13-.9"/>
    <path class="st8" d="M129.3,41.8c.6-.3,1-.5,1.3-.8,1.6-1.6,3.6-1.5,5.7-.9,1.1.3,2.3.6,3.6.4.4,0,.5,0,.4.4,0,.1,0,.3,0,.4-.1,2-.1,2.1-2.4,1.9-2.7-.3-5.4-.6-8.1-1.3-.1,0-.2,0-.5-.1"/>
    <path class="st6" d="M137.5,99.3c-.1.2-.2.5-.3.8-.5,1.3-.5,1.4-1.9.8-4.2-1.6-8.2-3.6-11.4-6.7-1.3-1.2-2.7-2.3-4.2-3.2,0,0,0,0,0,0,0,0,0,0,0,0-1.8-.8-3.8-1.4-5.9-1.6h0c-1,0-2-.1-2.9.2-.2,0-.5,0-.6-.1-1-1-2.3-1.8-3.4-3,2.6,0,5-.1,7.5.2h0c2.4.2,4.6.7,6.7,1.8h0c1.9.5,3.3,1.7,4.7,2.9,2.1,1.6,4.1,3.5,6.6,4.8,1.5.8,3,1.6,4.6,2.1.7.2,1,.5.6,1.1Z"/>
    <path class="st16" d="M51.7,53.8c1,0,2,.3,2.9.6.5.2.5.3,0,.6-.7.5-1.4.9-2.1,1.5-.5.5-1.3,0-1.9-.1-1.9-.3-2-.6-.8-2,.5-.6,1-.7,1.8-.7"/>
    <path class="st6" d="M143.9,79.9c-.5,1.8-.5,1.9-2.6,1.6-4.4-.8-8.3-2.5-12.1-4.4-2.6-1.4-5.3-2.6-8.3-3.2-1-.1-1.9-.3-2.9-.3-1,0-2.1,0-3.1.1h0c-1.5-.2-2.5-1.1-3.7-1.8-.5-.3-.9-.6-1.4-1,1.8-.5,3.5-.6,5.2-.9h0c2.3-.3,4.7,0,6.9.5,0,0,0,0,0,0h0c4,1,7.4,3,10.8,5,3.1,1.8,6.5,3,10.2,3.5.8.1,1.1.3.9,1.1Z"/>
    <path class="st22" d="M53,61.2c-1.5,1.2-3.2,1.4-4.9,1.6-.3,0-.5-.1-.5-.4,0-.9-.1-1.7.2-2.6,1.6.8,3.3,1.2,5.2,1.4"/>
    <path class="st18" d="M58.1,68.5c1.4.4,2.6.9,3.8,1.4.6.3.5.6.3,1-.2.4-.5.6-1,.3-1.1-.7-2.3-1.4-3-2.7"/>
    <path class="st13" d="M60.5,64.9c1.2-.2,2-.4,2.9-.5.5,0,.9.3,1,.6.2.4,0,.9-.2,1.3,0,.1-.3.1-.4,0-.9-.6-1.9-.8-3.2-1.3"/>
    <path class="st0" d="M61.7,56.6c-.5,0-.9-.1-1-.5,0-.3.3-.4.6-.6.4-.2.8-.4,1.3-.6.3-.1.7-.4.9.1.2.4.2.7-.3.9-.5.2-1,.4-1.4.6"/>
    <path class="st10" d="M60.5,56.9c-.6,0-1,.2-1.7.3.7-.3.9-1.1,1.7-.3"/>
    <path class="st1" d="M144.7,79.3c-.2.5,0,.7.6.7.9,0,1.7.3,2.5.5.2,0,.6,0,.5.4,0,.3-.4.4-.7.3-.8-.1-1.6-.2-2.4-.4-.6,0-1.1,0-1.2.6"/>
    <path class="st1" d="M145.4,72.6c0,.4.3.7.8.7.8,0,1.6.2,2.5.2.5,0,.6.3.9.6.1.1,0,.3-.1.3-.3,0-.6.3-1,.1-.9-.4-1.9-.3-2.8-.5-.6,0-.4.3-.5.5"/>
    <path class="st1" d="M138.8,92.3c-.3.6,0,.9.7,1,1,.2,1.9.4,2.9.5.3,0,.6,0,.6.4,0,.2.4.3.2.5-.2.2-.4,0-.7,0-1.1-.4-2.4-.5-3.6-.7-.9-.1-.7.7-.6,1"/>
    <path class="st1" d="M147.7,65.3c.3,0,.4,0,.6-.2.1-.2,0-.3,0-.5-.2-.4-.6-.4-1.1-.5-.8-.1-1.6-.2-2.5-.3h-.6c0-.1-.3.8-.3.8l3.8.6h0Z"/>
    <path class="st1" d="M145.7,56.6c1,0,2,.3,3,.3s.9,0,.8.5c0,.5-.5.5-.9.5-.9-.1-1.8-.2-2.8-.3"/>
    <path class="st1" d="M141.5,32.3c.1.6.6.6,1.1.4.9-.3,1.9-.5,2.8-.9.4-.1.7-.3.9.3.2.6-.2.5-.6.6-1,.3-1.9.7-2.9,1-.6.2-.7.4-.5,1"/>
    <path class="st1" d="M141,40.6c-.4.7,0,.8.7,1,1.5.2,3.1.4,4.6.3,0,.8-.4,1.1-1.2,1-1,0-2-.3-3-.5-1.3-.2-1.5-.2-1.5,1"/>
    <path class="st29" d="M138.4,98.7c-.5.7-.2,1,.6,1.1,1,.2,2.1.6,3.1.8.6.2.5.5.4.9-.1.5-.5.2-.8.1-1.1-.3-2.2-.5-3.2-.9-.8-.3-1.1,0-1.1.6"/>
  </g>
  <g id="Label" class="st33">
    <line class="st32" x1="88.9" y1="36.1" x2="77.3" y2="11.5"/>
    <polygon class="st30" points="92 33.3 91.4 41.3 84.8 36.7 92 33.3"/>
    <text class="st31" transform="translate(7.5 8.4)"><tspan x="0" y="0">Twisted Pair of Cables</tspan></text>
  </g>
</svg>